<?xml version="1.0" encoding="UTF-8" standalone="no"?>
<!DOCTYPE svg PUBLIC "-//W3C//DTD SVG 1.1//EN" "http://www.w3.org/Graphics/SVG/1.1/DTD/svg11.dtd">
<!-- Generated by Microsoft Visio, SVG Export CoAP Client.svg Page-1 -->
<svg xmlns="http://www.w3.org/2000/svg" xmlns:xlink="http://www.w3.org/1999/xlink" xmlns:ev="http://www.w3.org/2001/xml-events"
		width="8in" height="2.5in" viewBox="0 0 1148.98 354.938" xml:space="preserve" color-interpolation-filters="sRGB"
		class="st19">
	<style type="text/css">
	<![CDATA[
		.st1 {fill:none}
		.st2 {stroke:#000000;stroke-linecap:round;stroke-linejoin:round;stroke-width:0.75}
		.st3 {fill:none;stroke:#000000;stroke-linecap:butt;stroke-width:0.75}
		.st4 {fill:none;stroke:#000000;stroke-linecap:round;stroke-linejoin:round;stroke-width:0.75}
		.st5 {fill:none;stroke:#dfdfdf;stroke-linecap:butt;stroke-width:0.75}
		.st6 {stroke:#dfdfdf;stroke-linecap:round;stroke-linejoin:round;stroke-width:0.75}
		.st7 {fill:none;stroke:none;stroke-linecap:round;stroke-linejoin:round;stroke-width:0.75}
		.st8 {fill:#000000;font-family:Calibri;font-size:1.25983em}
		.st9 {stroke:#000000;stroke-linecap:butt;stroke-width:0.75}
		.st10 {fill:#000000;font-family:Calibri;font-size:0.472435em}
		.st11 {fill:#dfdfdf;font-family:Calibri;font-size:1.25983em}
		.st12 {fill:#dfdfdf;font-family:Calibri;font-size:0.472435em}
		.st13 {fill:#000000;font-family:Calibri;font-size:1.88976em}
		.st14 {fill:#000000;font-family:Calibri;font-size:0.944893em}
		.st15 {font-size:1em}
		.st16 {fill:#dfdfdf;font-family:Calibri;font-size:0.944893em}
		.st17 {fill:#000000;font-family:Calibri;font-size:0.629929em}
		.st18 {fill:#dfdfdf;font-family:Calibri;font-size:0.629929em}
		.st19 {fill:none;fill-rule:evenodd;font-size:12px;overflow:visible;stroke-linecap:square;stroke-miterlimit:3}
	]]>
	</style>

	<g>
		<title>Page-1</title>
		<g id="group17813-1" transform="translate(456.743,2.27374E-013)">
			<title>Sheet.17813</title>
			<g id="shape17814-2" transform="translate(21.9982,-80.3194)">
				<title>Sheet.17814</title>
				<path d="M0.23 354.94 C0.12 353.2 0.01 351.47 0 349.74 L0.23 354.94 Z" class="st1"/>
				<path d="M0.23 354.94 C0.12 353.2 0.01 351.47 0 349.74" class="st2"/>
			</g>
			<g id="shape17815-5" transform="translate(75.7498,-111.635)">
				<title>Sheet.17815</title>
				<path d="M0 354.94 C0.98 353.83 1.99 352.76 3.04 351.76 L0 354.94 Z" class="st1"/>
				<path d="M0 354.94 C0.98 353.83 1.99 352.76 3.04 351.76" class="st2"/>
			</g>
			<g id="shape17816-8" transform="translate(119.735,-113.351)">
				<title>Sheet.17816</title>
				<path d="M0 354.94 C2.53 351.32 5.23 347.9 8.79 345.61 C15.63 341.2 25.67 340.9 33.46 344.04 C36.91 345.43 39.93
							 347.5 42.82 349.74 L0 354.94 Z" class="st1"/>
				<path d="M0 354.94 C2.53 351.32 5.23 347.9 8.79 345.61 C15.63 341.2 25.67 340.9 33.46 344.04 C36.91 345.43 39.93
							 347.5 42.82 349.74" class="st2"/>
			</g>
			<g id="shape17817-11" transform="translate(157.556,-107.507)">
				<title>Sheet.17817</title>
				<path d="M0 347.53 C4.18 344.37 8.42 341.34 13.17 339.27 C18.62 336.9 24.74 335.81 30.8 336.64 C35.59 337.3 40.33
							 339.16 43.7 342.25 C47.23 345.49 49.25 350.08 51 354.91 C51 354.92 51 354.92 51 354.93 C51 354.93 51
							 354.93 51 354.94 L0 347.53 Z" class="st1"/>
				<path d="M0 347.53 C4.18 344.37 8.42 341.34 13.17 339.27 C18.62 336.9 24.74 335.81 30.8 336.64 C35.59 337.3 40.33
							 339.16 43.7 342.25 C47.23 345.49 49.25 350.08 51 354.91 C51 354.92 51 354.92 51 354.93 C51 354.93 51
							 354.93 51 354.94" class="st2"/>
			</g>
			<g id="shape17818-14" transform="translate(207.1,-73.9621)">
				<title>Sheet.17818</title>
				<path d="M0 321.51 C2.67 321.28 3.89 321.26 5.12 321.33 C8.51 321.54 11.99 322.51 14.68 324.49 C17.77 326.75 19.83
							 330.33 21 334.13 C22.13 337.8 22.43 341.67 21.35 345.27 C20.5 348.07 18.82 350.71 16.61 352.54 C15.4
							 353.55 14.02 354.31 12.56 354.94 L0 321.51 Z" class="st1"/>
				<path d="M0 321.51 C2.67 321.28 3.89 321.26 5.12 321.33 C8.51 321.54 11.99 322.51 14.68 324.49 C17.77 326.75 19.83
							 330.33 21 334.13 C22.13 337.8 22.43 341.67 21.35 345.27 C20.5 348.07 18.82 350.71 16.61 352.54 C15.4
							 353.55 14.02 354.31 12.56 354.94" class="st2"/>
			</g>
			<g id="shape17819-17" transform="translate(204.491,-39.8496)">
				<title>Sheet.17819</title>
				<path d="M22.59 314.34 C25.24 317.33 27.66 320.44 28.99 324.11 C30.24 327.54 30.53 331.46 29.7 335.07 C28.92 338.39
							 27.19 341.45 24.96 344.01 C22.09 347.3 18.41 349.75 14.43 351.64 C10.78 353.37 6.87 354.62 2.94 354.88
							 C1.96 354.95 0.98 354.95 -0 354.91 L22.59 314.34 Z" class="st1"/>
				<path d="M22.59 314.34 C25.24 317.33 27.66 320.44 28.99 324.11 C30.24 327.54 30.53 331.46 29.7 335.07 C28.92 338.39
							 27.19 341.45 24.96 344.01 C22.09 347.3 18.41 349.75 14.43 351.64 C10.78 353.37 6.87 354.62 2.94 354.88
							 C1.96 354.95 0.98 354.95 -0 354.91" class="st2"/>
			</g>
			<g id="shape17820-20" transform="translate(156.032,-14.273)">
				<title>Sheet.17820</title>
				<path d="M30.98 310.41 C35.04 312.36 39.1 314.31 42.2 317.36 C44.45 319.57 46.21 322.36 47.36 325.43 C48.82 329.32
							 49.32 333.67 48.26 337.54 C46.7 343.21 41.78 347.87 36.37 350.77 C29.69 354.33 22.24 355.21 14.83 355.03
							 C11.25 354.94 7.67 354.6 4.29 353.68 C2.83 353.28 1.4 352.77 0 352.17 L30.98 310.41 Z" class="st1"/>
				<path d="M30.98 310.41 C35.04 312.36 39.1 314.31 42.2 317.36 C44.45 319.57 46.21 322.36 47.36 325.43 C48.82 329.32
							 49.32 333.67 48.26 337.54 C46.7 343.21 41.78 347.87 36.37 350.77 C29.69 354.33 22.24 355.21 14.83 355.03
							 C11.25 354.94 7.67 354.6 4.29 353.68 C2.83 353.28 1.4 352.77 0 352.17" class="st2"/>
			</g>
			<g id="shape17821-23" transform="translate(86.7007,-1.7053E-013)">
				<title>Sheet.17821</title>
				<path d="M71.96 330.7 C70.53 335.49 68.78 340.04 65.77 343.67 C60.74 349.72 52.22 353.18 44.01 354.43 C37.03 355.49
							 30.28 354.96 23.38 353.53 C17.16 352.25 10.82 350.24 6.33 346.13 C3.84 343.86 1.92 340.95 0 338.03 L71.96
							 330.7 Z" class="st1"/>
				<path d="M71.96 330.7 C70.53 335.49 68.78 340.04 65.77 343.67 C60.74 349.72 52.22 353.18 44.01 354.43 C37.03 355.49
							 30.28 354.96 23.38 353.53 C17.16 352.25 10.82 350.24 6.33 346.13 C3.84 343.86 1.92 340.95 0 338.03"
						class="st2"/>
			</g>
			<g id="shape17822-26" transform="translate(34.185,-5.58812)">
				<title>Sheet.17822</title>
				<path d="M57.25 350.1 C57.22 350.11 57.2 350.12 57.18 350.13 C57.18 350.13 57.17 350.13 57.17 350.13 C52.59 351.84
							 47.96 353.33 43.14 354.19 C34.54 355.71 25.37 355.19 17.12 351.95 C11.38 349.68 6.08 346.1 2.32 341.41
							 C1.47 340.36 0.71 339.25 0 338.11 L57.25 350.1 Z" class="st1"/>
				<path d="M57.25 350.1 C57.22 350.11 57.2 350.12 57.18 350.13 C57.18 350.13 57.17 350.13 57.17 350.13 C52.59 351.84
							 47.96 353.33 43.14 354.19 C34.54 355.71 25.37 355.19 17.12 351.95 C11.38 349.68 6.08 346.1 2.32 341.41
							 C1.47 340.36 0.71 339.25 0 338.11" class="st2"/>
			</g>
			<g id="shape17823-29" transform="translate(6.54987,-22.3953)">
				<title>Sheet.17823</title>
				<path d="M32.28 354.63 C29.12 354.91 25.9 355.04 22.55 354.85 C15.36 354.44 7.54 352.54 3.48 347.23 C1.54 344.7 0.46
							 341.39 0.12 338.04 C-0.17 335.25 0.05 332.44 1.01 329.97 C1.79 327.97 3.04 326.2 4.48 324.52 L32.28
							 354.63 Z" class="st1"/>
				<path d="M32.28 354.63 C29.12 354.91 25.9 355.04 22.55 354.85 C15.36 354.44 7.54 352.54 3.48 347.23 C1.54 344.7 0.46
							 341.39 0.12 338.04 C-0.17 335.25 0.05 332.44 1.01 329.97 C1.79 327.97 3.04 326.2 4.48 324.52"
						class="st2"/>
			</g>
			<g id="shape17824-32" transform="translate(1.07914E-013,-48.8131)">
				<title>Sheet.17824</title>
				<path d="M24.56 354.94 C21.4 354.34 18.26 353.6 15.19 352.57 C11.36 351.29 7.63 349.54 4.65 346.74 C2.56 344.79 0.84
							 342.34 0.24 339.58 C-0.44 336.42 0.36 332.86 2.09 330.11 C5.04 325.41 10.72 323.1 16.12 321.43 C18.12
							 320.81 20.08 320.28 22.03 319.78 L24.56 354.94 Z" class="st1"/>
				<path d="M24.56 354.94 C21.4 354.34 18.26 353.6 15.19 352.57 C11.36 351.29 7.63 349.54 4.65 346.74 C2.56 344.79 0.84
							 342.34 0.24 339.58 C-0.44 336.42 0.36 332.86 2.09 330.11 C5.04 325.41 10.72 323.1 16.12 321.43 C18.12
							 320.81 20.08 320.28 22.03 319.78" class="st2"/>
			</g>
		</g>
		<g id="group18305-35" transform="translate(185.635,-24.9133)">
			<title>Sheet.18305</title>
			<g id="shape18306-36">
				<title>Sheet.18306</title>
				<path d="M0 354.94 L22.68 354.94 L22.68 332.26 L0 332.26 L0 354.94 Z" class="st3"/>
			</g>
			<g id="shape18307-38" transform="translate(4.29434,-4.29434)">
				<title>Sheet.18307</title>
				<ellipse cx="7.04425" cy="347.893" rx="7.04425" ry="7.04425" class="st4"/>
			</g>
		</g>
		<g id="group18711-40" transform="translate(153.637,-24.9133)">
			<title>Sheet.18711</title>
			<g id="shape18712-41">
				<title>Sheet.18712</title>
				<path d="M0 354.94 L22.68 354.94 L22.68 332.26 L0 332.26 L0 354.94 Z" class="st3"/>
			</g>
			<g id="shape18713-43" transform="translate(4.29434,-4.29434)">
				<title>Sheet.18713</title>
				<ellipse cx="7.04425" cy="347.893" rx="7.04425" ry="7.04425" class="st4"/>
			</g>
		</g>
		<g id="group19111-45" transform="translate(1076.8,-25.693)">
			<title>Sheet.19111</title>
			<g id="shape19112-46">
				<title>Sheet.19112</title>
				<path d="M0 354.94 L22.68 354.94 L22.68 319.72 L0 319.72 L0 354.94 Z" class="st5"/>
			</g>
			<g id="shape19113-48" transform="translate(4.30713,-19.3708)">
				<title>Sheet.19113</title>
				<path d="M12.44 354.94 A7.04425 7.04425 -180 1 0 1.62 354.94 L12.44 354.94 Z" class="st1"/>
				<path d="M12.44 354.94 A7.04425 7.04425 -180 1 0 1.62 354.94" class="st6"/>
			</g>
			<g id="shape19114-51" transform="translate(8.11838,-10.3513)">
				<title>Sheet.19114</title>
				<path d="M0 354.94 L6.44 354.94" class="st6"/>
			</g>
			<g id="shape19115-54" transform="translate(5.9282,-10.3513)">
				<title>Sheet.19115</title>
				<path d="M2.19 354.94 A17.0418 17.0418 -180 0 0 -0 345.92 L2.19 354.94 Z" class="st1"/>
				<path d="M2.19 354.94 A17.0418 17.0418 -180 0 0 -0 345.92" class="st6"/>
			</g>
			<g id="shape19116-57" transform="translate(14.5588,-10.3513)">
				<title>Sheet.19116</title>
				<path d="M2.19 345.92 A17.0418 17.0418 -180 0 0 -0 354.94 L2.19 345.92 Z" class="st1"/>
				<path d="M2.19 345.92 A17.0418 17.0418 -180 0 0 -0 354.94" class="st6"/>
			</g>
			<g id="shape19117-60" transform="translate(8.11838,-4.61203)">
				<title>Sheet.19117</title>
				<path d="M0 354.94 L6.44 354.94" class="st6"/>
			</g>
			<g id="shape19118-63" transform="translate(8.71209,-4.04939)">
				<title>Sheet.19118</title>
				<path d="M0 354.94 L5.25 354.94" class="st6"/>
			</g>
			<g id="shape19119-66" transform="translate(-235.435,608.518) rotate(-136.539)">
				<title>Sheet.19119</title>
				<path d="M0 354.94 L0.82 354.94" class="st6"/>
			</g>
			<g id="shape19120-69" transform="translate(-230.182,93.259) rotate(-43.4609)">
				<title>Sheet.19120</title>
				<path d="M0 354.94 L0.82 354.94" class="st6"/>
			</g>
			<g id="shape19121-72" transform="translate(363.056,344.586) rotate(90)">
				<title>Sheet.19121</title>
				<path d="M0 354.94 L0.93 354.94" class="st6"/>
			</g>
			<g id="shape19122-75" transform="translate(-346.819,350.326) rotate(-90)">
				<title>Sheet.19122</title>
				<path d="M0 354.94 L0.69 354.94" class="st6"/>
			</g>
			<g id="shape19123-78" transform="translate(-241.387,602.075) rotate(-135.336)">
				<title>Sheet.19123</title>
				<path d="M0 354.94 L0.45 354.94" class="st6"/>
			</g>
			<g id="shape19124-81" transform="translate(-241.71,96.666) rotate(-44.6645)">
				<title>Sheet.19124</title>
				<path d="M0 354.94 L0.45 354.94" class="st6"/>
			</g>
			<g id="shape19125-84" transform="translate(7.89481,-5.72667)">
				<title>Sheet.19125</title>
			</g>
			<g id="shape19126-85" transform="translate(-234.946,96.6088) rotate(-44.6645)">
				<title>Sheet.19126</title>
				<path d="M0 354.94 L0.45 354.94" class="st6"/>
			</g>
			<g id="shape19127-88" transform="translate(-234.623,600.976) rotate(-135.336)">
				<title>Sheet.19127</title>
				<path d="M0 354.94 L0.45 354.94" class="st6"/>
			</g>
			<g id="shape19128-91" transform="translate(14.7824,-6.30498)">
				<title>Sheet.19128</title>
			</g>
			<g id="shape19129-92" transform="translate(-241.387,600.985) rotate(-135.336)">
				<title>Sheet.19129</title>
				<path d="M0 354.94 L0.45 354.94" class="st6"/>
			</g>
			<g id="shape19130-95" transform="translate(-241.71,95.5751) rotate(-44.6645)">
				<title>Sheet.19130</title>
				<path d="M0 354.94 L0.45 354.94" class="st6"/>
			</g>
			<g id="shape19131-98" transform="translate(7.89481,-6.81756)">
				<title>Sheet.19131</title>
			</g>
			<g id="shape19132-99" transform="translate(-234.946,95.5179) rotate(-44.6645)">
				<title>Sheet.19132</title>
				<path d="M0 354.94 L0.45 354.94" class="st6"/>
			</g>
			<g id="shape19133-102" transform="translate(-234.623,599.885) rotate(-135.336)">
				<title>Sheet.19133</title>
				<path d="M0 354.94 L0.45 354.94" class="st6"/>
			</g>
			<g id="shape19134-105" transform="translate(14.7824,-7.39587)">
				<title>Sheet.19134</title>
			</g>
			<g id="shape19135-106" transform="translate(-241.387,599.894) rotate(-135.336)">
				<title>Sheet.19135</title>
				<path d="M0 354.94 L0.45 354.94" class="st6"/>
			</g>
			<g id="shape19136-109" transform="translate(-241.71,94.4842) rotate(-44.6645)">
				<title>Sheet.19136</title>
				<path d="M0 354.94 L0.45 354.94" class="st6"/>
			</g>
			<g id="shape19137-112" transform="translate(7.89481,-7.90845)">
				<title>Sheet.19137</title>
			</g>
			<g id="shape19138-113" transform="translate(-234.946,94.427) rotate(-44.6645)">
				<title>Sheet.19138</title>
				<path d="M0 354.94 L0.45 354.94" class="st6"/>
			</g>
			<g id="shape19139-116" transform="translate(-234.623,598.794) rotate(-135.336)">
				<title>Sheet.19139</title>
				<path d="M0 354.94 L0.45 354.94" class="st6"/>
			</g>
			<g id="shape19140-119" transform="translate(14.7824,-8.48676)">
				<title>Sheet.19140</title>
			</g>
			<g id="shape19141-120" transform="translate(-241.387,598.803) rotate(-135.336)">
				<title>Sheet.19141</title>
				<path d="M0 354.94 L0.45 354.94" class="st6"/>
			</g>
			<g id="shape19142-123" transform="translate(-241.71,93.3933) rotate(-44.6645)">
				<title>Sheet.19142</title>
				<path d="M0 354.94 L0.45 354.94" class="st6"/>
			</g>
			<g id="shape19143-126" transform="translate(7.89481,-8.99935)">
				<title>Sheet.19143</title>
			</g>
			<g id="shape19144-127" transform="translate(-234.946,93.3361) rotate(-44.6645)">
				<title>Sheet.19144</title>
				<path d="M0 354.94 L0.45 354.94" class="st6"/>
			</g>
			<g id="shape19145-130" transform="translate(-234.623,597.703) rotate(-135.336)">
				<title>Sheet.19145</title>
				<path d="M0 354.94 L0.45 354.94" class="st6"/>
			</g>
			<g id="shape19146-133" transform="translate(14.7824,-9.57765)">
				<title>Sheet.19146</title>
			</g>
			<g id="shape19147-134" transform="translate(-23.6248,-7.9973) rotate(-5.131)">
				<title>Sheet.19147</title>
				<path d="M0 354.94 L6.47 354.94" class="st6"/>
			</g>
			<g id="shape19148-137" transform="translate(-23.6248,-7.1568) rotate(-5.131)">
				<title>Sheet.19148</title>
				<path d="M0 354.94 L6.47 354.94" class="st6"/>
			</g>
			<g id="shape19149-140" transform="translate(-23.6248,-6.9064) rotate(-5.131)">
				<title>Sheet.19149</title>
				<path d="M0 354.94 L6.47 354.94" class="st6"/>
			</g>
			<g id="shape19150-143" transform="translate(-23.6248,-6.06591) rotate(-5.131)">
				<title>Sheet.19150</title>
				<path d="M0 354.94 L6.47 354.94" class="st6"/>
			</g>
			<g id="shape19151-146" transform="translate(-23.6248,-5.81551) rotate(-5.131)">
				<title>Sheet.19151</title>
				<path d="M0 354.94 L6.47 354.94" class="st6"/>
			</g>
			<g id="shape19152-149" transform="translate(-23.6248,-4.97502) rotate(-5.131)">
				<title>Sheet.19152</title>
				<path d="M0 354.94 L6.47 354.94" class="st6"/>
			</g>
			<g id="shape19153-152" transform="translate(-23.6248,-4.72462) rotate(-5.131)">
				<title>Sheet.19153</title>
				<path d="M0 354.94 L6.47 354.94" class="st6"/>
			</g>
			<g id="shape19154-155" transform="translate(-23.6248,-3.88413) rotate(-5.131)">
				<title>Sheet.19154</title>
				<path d="M0 354.94 L6.47 354.94" class="st6"/>
			</g>
			<g id="shape19155-158" transform="translate(363.056,346.359) rotate(90)">
				<title>Sheet.19155</title>
				<path d="M0 354.94 L0.25 354.94" class="st6"/>
			</g>
			<g id="shape19156-161" transform="translate(363.056,347.449) rotate(90)">
				<title>Sheet.19156</title>
				<path d="M0 354.94 L0.25 354.94" class="st6"/>
			</g>
			<g id="shape19157-164" transform="translate(363.056,348.54) rotate(90)">
				<title>Sheet.19157</title>
				<path d="M0 354.94 L0.25 354.94" class="st6"/>
			</g>
			<g id="shape19158-167" transform="translate(-340.379,348.212) rotate(-90)">
				<title>Sheet.19158</title>
				<path d="M0 354.94 L0.25 354.94" class="st6"/>
			</g>
			<g id="shape19159-170" transform="translate(-340.379,347.122) rotate(-90)">
				<title>Sheet.19159</title>
				<path d="M0 354.94 L0.25 354.94" class="st6"/>
			</g>
			<g id="shape19160-173" transform="translate(-340.379,346.031) rotate(-90)">
				<title>Sheet.19160</title>
				<path d="M0 354.94 L0.25 354.94" class="st6"/>
			</g>
			<g id="shape19161-176" transform="translate(369.496,344.586) rotate(90)">
				<title>Sheet.19161</title>
				<path d="M0 354.94 L0.35 354.94" class="st6"/>
			</g>
			<g id="shape19162-179" transform="translate(369.496,349.053) rotate(90)">
				<title>Sheet.19162</title>
				<path d="M0 354.94 L1.27 354.94" class="st6"/>
			</g>
			<g id="shape19163-182" transform="translate(10.7049,-3.79674)">
				<title>Sheet.19163</title>
				<path d="M0 354.94 L1.27 354.94" class="st6"/>
			</g>
			<g id="shape19164-185" transform="translate(-232.975,609.213) rotate(-136.643)">
				<title>Sheet.19164</title>
				<path d="M0 354.94 L0.37 354.94" class="st6"/>
			</g>
			<g id="shape19165-188" transform="translate(-231.707,93.0693) rotate(-43.357)">
				<title>Sheet.19165</title>
				<path d="M0 354.94 L0.37 354.94" class="st6"/>
			</g>
		</g>
		<g id="group19516-191" transform="translate(1108.8,-25.693)">
			<title>Sheet.19516</title>
			<g id="shape19517-192">
				<title>Sheet.19517</title>
				<path d="M0 354.94 L22.68 354.94 L22.68 319.72 L0 319.72 L0 354.94 Z" class="st5"/>
			</g>
			<g id="shape19518-194" transform="translate(4.30713,-19.3708)">
				<title>Sheet.19518</title>
				<path d="M12.44 354.94 A7.04425 7.04425 -180 1 0 1.62 354.94 L12.44 354.94 Z" class="st1"/>
				<path d="M12.44 354.94 A7.04425 7.04425 -180 1 0 1.62 354.94" class="st6"/>
			</g>
			<g id="shape19519-197" transform="translate(8.11838,-10.3513)">
				<title>Sheet.19519</title>
				<path d="M0 354.94 L6.44 354.94" class="st6"/>
			</g>
			<g id="shape19520-200" transform="translate(5.9282,-10.3513)">
				<title>Sheet.19520</title>
				<path d="M2.19 354.94 A17.0418 17.0418 -180 0 0 -0 345.92 L2.19 354.94 Z" class="st1"/>
				<path d="M2.19 354.94 A17.0418 17.0418 -180 0 0 -0 345.92" class="st6"/>
			</g>
			<g id="shape19521-203" transform="translate(14.5588,-10.3513)">
				<title>Sheet.19521</title>
				<path d="M2.19 345.92 A17.0418 17.0418 -180 0 0 0 354.94 L2.19 345.92 Z" class="st1"/>
				<path d="M2.19 345.92 A17.0418 17.0418 -180 0 0 0 354.94" class="st6"/>
			</g>
			<g id="shape19522-206" transform="translate(8.11838,-4.61203)">
				<title>Sheet.19522</title>
				<path d="M0 354.94 L6.44 354.94" class="st6"/>
			</g>
			<g id="shape19523-209" transform="translate(8.71209,-4.04939)">
				<title>Sheet.19523</title>
				<path d="M0 354.94 L5.25 354.94" class="st6"/>
			</g>
			<g id="shape19524-212" transform="translate(-235.435,608.518) rotate(-136.539)">
				<title>Sheet.19524</title>
				<path d="M0 354.94 L0.82 354.94" class="st6"/>
			</g>
			<g id="shape19525-215" transform="translate(-230.182,93.259) rotate(-43.4609)">
				<title>Sheet.19525</title>
				<path d="M0 354.94 L0.82 354.94" class="st6"/>
			</g>
			<g id="shape19526-218" transform="translate(363.056,344.586) rotate(90)">
				<title>Sheet.19526</title>
				<path d="M0 354.94 L0.93 354.94" class="st6"/>
			</g>
			<g id="shape19527-221" transform="translate(-346.819,350.326) rotate(-90)">
				<title>Sheet.19527</title>
				<path d="M0 354.94 L0.69 354.94" class="st6"/>
			</g>
			<g id="shape19528-224" transform="translate(-241.387,602.075) rotate(-135.336)">
				<title>Sheet.19528</title>
				<path d="M0 354.94 L0.45 354.94" class="st6"/>
			</g>
			<g id="shape19529-227" transform="translate(-241.71,96.666) rotate(-44.6645)">
				<title>Sheet.19529</title>
				<path d="M0 354.94 L0.45 354.94" class="st6"/>
			</g>
			<g id="shape19530-230" transform="translate(7.89481,-5.72667)">
				<title>Sheet.19530</title>
			</g>
			<g id="shape19531-231" transform="translate(-234.946,96.6088) rotate(-44.6645)">
				<title>Sheet.19531</title>
				<path d="M0 354.94 L0.45 354.94" class="st6"/>
			</g>
			<g id="shape19532-234" transform="translate(-234.623,600.976) rotate(-135.336)">
				<title>Sheet.19532</title>
				<path d="M0 354.94 L0.45 354.94" class="st6"/>
			</g>
			<g id="shape19533-237" transform="translate(14.7824,-6.30498)">
				<title>Sheet.19533</title>
			</g>
			<g id="shape19534-238" transform="translate(-241.387,600.985) rotate(-135.336)">
				<title>Sheet.19534</title>
				<path d="M0 354.94 L0.45 354.94" class="st6"/>
			</g>
			<g id="shape19535-241" transform="translate(-241.71,95.5751) rotate(-44.6645)">
				<title>Sheet.19535</title>
				<path d="M0 354.94 L0.45 354.94" class="st6"/>
			</g>
			<g id="shape19536-244" transform="translate(7.89481,-6.81756)">
				<title>Sheet.19536</title>
			</g>
			<g id="shape19537-245" transform="translate(-234.946,95.5179) rotate(-44.6645)">
				<title>Sheet.19537</title>
				<path d="M0 354.94 L0.45 354.94" class="st6"/>
			</g>
			<g id="shape19538-248" transform="translate(-234.623,599.885) rotate(-135.336)">
				<title>Sheet.19538</title>
				<path d="M0 354.94 L0.45 354.94" class="st6"/>
			</g>
			<g id="shape19539-251" transform="translate(14.7824,-7.39587)">
				<title>Sheet.19539</title>
			</g>
			<g id="shape19540-252" transform="translate(-241.387,599.894) rotate(-135.336)">
				<title>Sheet.19540</title>
				<path d="M0 354.94 L0.45 354.94" class="st6"/>
			</g>
			<g id="shape19541-255" transform="translate(-241.71,94.4842) rotate(-44.6645)">
				<title>Sheet.19541</title>
				<path d="M0 354.94 L0.45 354.94" class="st6"/>
			</g>
			<g id="shape19542-258" transform="translate(7.89481,-7.90845)">
				<title>Sheet.19542</title>
			</g>
			<g id="shape19543-259" transform="translate(-234.946,94.427) rotate(-44.6645)">
				<title>Sheet.19543</title>
				<path d="M0 354.94 L0.45 354.94" class="st6"/>
			</g>
			<g id="shape19544-262" transform="translate(-234.623,598.794) rotate(-135.336)">
				<title>Sheet.19544</title>
				<path d="M0 354.94 L0.45 354.94" class="st6"/>
			</g>
			<g id="shape19545-265" transform="translate(14.7824,-8.48676)">
				<title>Sheet.19545</title>
			</g>
			<g id="shape19546-266" transform="translate(-241.387,598.803) rotate(-135.336)">
				<title>Sheet.19546</title>
				<path d="M0 354.94 L0.45 354.94" class="st6"/>
			</g>
			<g id="shape19547-269" transform="translate(-241.71,93.3933) rotate(-44.6645)">
				<title>Sheet.19547</title>
				<path d="M0 354.94 L0.45 354.94" class="st6"/>
			</g>
			<g id="shape19548-272" transform="translate(7.89481,-8.99935)">
				<title>Sheet.19548</title>
			</g>
			<g id="shape19549-273" transform="translate(-234.946,93.3361) rotate(-44.6645)">
				<title>Sheet.19549</title>
				<path d="M0 354.94 L0.45 354.94" class="st6"/>
			</g>
			<g id="shape19550-276" transform="translate(-234.623,597.703) rotate(-135.336)">
				<title>Sheet.19550</title>
				<path d="M0 354.94 L0.45 354.94" class="st6"/>
			</g>
			<g id="shape19551-279" transform="translate(14.7824,-9.57765)">
				<title>Sheet.19551</title>
			</g>
			<g id="shape19552-280" transform="translate(-23.6248,-7.9973) rotate(-5.131)">
				<title>Sheet.19552</title>
				<path d="M0 354.94 L6.47 354.94" class="st6"/>
			</g>
			<g id="shape19553-283" transform="translate(-23.6248,-7.1568) rotate(-5.131)">
				<title>Sheet.19553</title>
				<path d="M0 354.94 L6.47 354.94" class="st6"/>
			</g>
			<g id="shape19554-286" transform="translate(-23.6248,-6.9064) rotate(-5.131)">
				<title>Sheet.19554</title>
				<path d="M0 354.94 L6.47 354.94" class="st6"/>
			</g>
			<g id="shape19555-289" transform="translate(-23.6248,-6.06591) rotate(-5.131)">
				<title>Sheet.19555</title>
				<path d="M0 354.94 L6.47 354.94" class="st6"/>
			</g>
			<g id="shape19556-292" transform="translate(-23.6248,-5.81551) rotate(-5.131)">
				<title>Sheet.19556</title>
				<path d="M0 354.94 L6.47 354.94" class="st6"/>
			</g>
			<g id="shape19557-295" transform="translate(-23.6248,-4.97502) rotate(-5.131)">
				<title>Sheet.19557</title>
				<path d="M0 354.94 L6.47 354.94" class="st6"/>
			</g>
			<g id="shape19558-298" transform="translate(-23.6248,-4.72462) rotate(-5.131)">
				<title>Sheet.19558</title>
				<path d="M0 354.94 L6.47 354.94" class="st6"/>
			</g>
			<g id="shape19559-301" transform="translate(-23.6248,-3.88413) rotate(-5.131)">
				<title>Sheet.19559</title>
				<path d="M0 354.94 L6.47 354.94" class="st6"/>
			</g>
			<g id="shape19560-304" transform="translate(363.056,346.359) rotate(90)">
				<title>Sheet.19560</title>
				<path d="M0 354.94 L0.25 354.94" class="st6"/>
			</g>
			<g id="shape19561-307" transform="translate(363.056,347.449) rotate(90)">
				<title>Sheet.19561</title>
				<path d="M0 354.94 L0.25 354.94" class="st6"/>
			</g>
			<g id="shape19562-310" transform="translate(363.056,348.54) rotate(90)">
				<title>Sheet.19562</title>
				<path d="M0 354.94 L0.25 354.94" class="st6"/>
			</g>
			<g id="shape19563-313" transform="translate(-340.379,348.212) rotate(-90)">
				<title>Sheet.19563</title>
				<path d="M0 354.94 L0.25 354.94" class="st6"/>
			</g>
			<g id="shape19564-316" transform="translate(-340.379,347.122) rotate(-90)">
				<title>Sheet.19564</title>
				<path d="M0 354.94 L0.25 354.94" class="st6"/>
			</g>
			<g id="shape19565-319" transform="translate(-340.379,346.031) rotate(-90)">
				<title>Sheet.19565</title>
				<path d="M0 354.94 L0.25 354.94" class="st6"/>
			</g>
			<g id="shape19566-322" transform="translate(369.496,344.586) rotate(90)">
				<title>Sheet.19566</title>
				<path d="M0 354.94 L0.35 354.94" class="st6"/>
			</g>
			<g id="shape19567-325" transform="translate(369.496,349.053) rotate(90)">
				<title>Sheet.19567</title>
				<path d="M0 354.94 L1.27 354.94" class="st6"/>
			</g>
			<g id="shape19568-328" transform="translate(10.7049,-3.79674)">
				<title>Sheet.19568</title>
				<path d="M0 354.94 L1.27 354.94" class="st6"/>
			</g>
			<g id="shape19569-331" transform="translate(-232.975,609.213) rotate(-136.643)">
				<title>Sheet.19569</title>
				<path d="M0 354.94 L0.37 354.94" class="st6"/>
			</g>
			<g id="shape19570-334" transform="translate(-231.707,93.0693) rotate(-43.357)">
				<title>Sheet.19570</title>
				<path d="M0 354.94 L0.37 354.94" class="st6"/>
			</g>
		</g>
		<g id="group19883-337" transform="translate(565.986,-122.835)">
			<title>Sheet.19883</title>
			<g id="shape19884-338" transform="translate(2.55546E-013,-77.045)">
				<title>Sheet.19884</title>
				<path d="M0 354.94 L4.25 354.94" class="st2"/>
			</g>
			<g id="shape19885-341" transform="translate(12.7559,-77.045)">
				<title>Sheet.19885</title>
				<path d="M0 354.94 L4.25 354.94" class="st2"/>
			</g>
			<g id="shape19886-344" transform="translate(-317.466,119.16) rotate(-63.4349)">
				<title>Sheet.19886</title>
				<path d="M0 354.94 L19.02 354.94" class="st2"/>
			</g>
			<g id="shape19887-347" transform="translate(325.97,102.152) rotate(63.4349)">
				<title>Sheet.19887</title>
				<path d="M0 354.94 L19.02 354.94" class="st2"/>
			</g>
			<g id="shape19888-350" transform="translate(2.55546E-013,-17.0079)">
				<title>Sheet.19888</title>
				<path d="M0 354.94 L4.25 354.94" class="st2"/>
			</g>
			<g id="shape19889-353" transform="translate(12.7559,-17.0079)">
				<title>Sheet.19889</title>
				<path d="M0 354.94 L4.25 354.94" class="st2"/>
			</g>
			<g id="shape19890-356" transform="translate(317.466,179.197) rotate(63.4349)">
				<title>Sheet.19890</title>
				<path d="M0 354.94 L19.02 354.94" class="st2"/>
			</g>
			<g id="shape19891-359" transform="translate(-308.962,196.205) rotate(-63.4349)">
				<title>Sheet.19891</title>
				<path d="M0 354.94 L19.02 354.94" class="st2"/>
			</g>
			<g id="shape19892-362" transform="translate(-350.686,337.93) rotate(-90)">
				<title>Sheet.19892</title>
				<path d="M0 354.94 L60.04 354.94" class="st2"/>
			</g>
			<g id="shape19893-365" transform="translate(367.694,277.893) rotate(90)">
				<title>Sheet.19893</title>
				<path d="M0 354.94 L60.04 354.94" class="st2"/>
			</g>
		</g>
		<g id="group19894-368" transform="translate(225.815,-54.2767)">
			<title>Sheet.19894</title>
			<g id="shape19895-369" transform="translate(371.946,337.93) rotate(90)">
				<title>Sheet.19895</title>
				<path d="M0 354.94 L4.25 354.94" class="st2"/>
			</g>
			<g id="shape19896-372" transform="translate(371.946,350.686) rotate(90)">
				<title>Sheet.19896</title>
				<path d="M0 354.94 L4.25 354.94" class="st2"/>
			</g>
			<g id="shape19897-375" transform="translate(175.741,655.396) rotate(153.435)">
				<title>Sheet.19897</title>
				<path d="M0 354.94 L19.02 354.94" class="st2"/>
			</g>
			<g id="shape19898-378" transform="translate(158.733,28.9678) rotate(26.5651)">
				<title>Sheet.19898</title>
				<path d="M0 354.94 L19.02 354.94" class="st2"/>
			</g>
			<g id="shape19899-381" transform="translate(17.0079,-12.7559)">
				<title>Sheet.19899</title>
				<path d="M0 354.94 L21.13 354.94" class="st2"/>
			</g>
			<g id="shape19900-384" transform="translate(38.1344,705.623) rotate(180)">
				<title>Sheet.19900</title>
				<path d="M0 354.94 L21.13 354.94" class="st2"/>
			</g>
			<g id="shape19901-387" transform="translate(393.072,337.93) rotate(90)">
				<title>Sheet.19901</title>
				<path d="M0 354.94 L4.25 354.94" class="st2"/>
			</g>
			<g id="shape19902-390" transform="translate(393.072,350.686) rotate(90)">
				<title>Sheet.19902</title>
				<path d="M0 354.94 L4.25 354.94" class="st2"/>
			</g>
			<g id="shape19903-393" transform="translate(196.867,20.4639) rotate(26.5651)">
				<title>Sheet.19903</title>
				<path d="M0 354.94 L19.02 354.94" class="st2"/>
			</g>
			<g id="shape19904-396" transform="translate(213.875,663.9) rotate(153.435)">
				<title>Sheet.19904</title>
				<path d="M0 354.94 L19.02 354.94" class="st2"/>
			</g>
		</g>
		<g id="group20003-399" transform="translate(350.218,-54.2767)">
			<title>Sheet.20003</title>
			<g id="shape20004-400" transform="translate(444.117,337.93) rotate(90)">
				<title>Sheet.20004</title>
				<path d="M0 354.94 L4.25 354.94" class="st2"/>
			</g>
			<g id="shape20005-403" transform="translate(444.117,350.686) rotate(90)">
				<title>Sheet.20005</title>
				<path d="M0 354.94 L4.25 354.94" class="st2"/>
			</g>
			<g id="shape20006-406" transform="translate(247.913,20.4639) rotate(26.5651)">
				<title>Sheet.20006</title>
				<path d="M0 354.94 L19.02 354.94" class="st2"/>
			</g>
			<g id="shape20007-409" transform="translate(264.92,663.9) rotate(153.435)">
				<title>Sheet.20007</title>
				<path d="M0 354.94 L19.02 354.94" class="st2"/>
			</g>
			<g id="shape20008-412" transform="translate(371.946,337.93) rotate(90)">
				<title>Sheet.20008</title>
				<path d="M0 354.94 L4.25 354.94" class="st2"/>
			</g>
			<g id="shape20009-415" transform="translate(371.946,350.686) rotate(90)">
				<title>Sheet.20009</title>
				<path d="M0 354.94 L4.25 354.94" class="st2"/>
			</g>
			<g id="shape20010-418" transform="translate(175.741,655.396) rotate(153.435)">
				<title>Sheet.20010</title>
				<path d="M0 354.94 L19.02 354.94" class="st2"/>
			</g>
			<g id="shape20011-421" transform="translate(158.733,28.9678) rotate(26.5651)">
				<title>Sheet.20011</title>
				<path d="M0 354.94 L19.02 354.94" class="st2"/>
			</g>
			<g id="shape20012-424" transform="translate(17.0079,-12.7559)">
				<title>Sheet.20012</title>
				<path d="M0 354.94 L72.17 354.94" class="st2"/>
			</g>
			<g id="shape20013-427" transform="translate(89.1796,705.623) rotate(180)">
				<title>Sheet.20013</title>
				<path d="M0 354.94 L72.17 354.94" class="st2"/>
			</g>
		</g>
		<g id="group20087-430" transform="translate(868.022,-54.2767)">
			<title>Sheet.20087</title>
			<g id="shape20088-431" transform="translate(393.072,337.93) rotate(90)">
				<title>Sheet.20088</title>
				<path d="M0 354.94 L4.25 354.94" class="st6"/>
			</g>
			<g id="shape20089-434" transform="translate(393.072,350.686) rotate(90)">
				<title>Sheet.20089</title>
				<path d="M0 354.94 L4.25 354.94" class="st6"/>
			</g>
			<g id="shape20090-437" transform="translate(196.867,20.4639) rotate(26.5651)">
				<title>Sheet.20090</title>
				<path d="M0 354.94 L19.02 354.94" class="st6"/>
			</g>
			<g id="shape20091-440" transform="translate(213.875,663.9) rotate(153.435)">
				<title>Sheet.20091</title>
				<path d="M0 354.94 L19.02 354.94" class="st6"/>
			</g>
			<g id="shape20092-443" transform="translate(38.1344,697.12) rotate(180)">
				<title>Sheet.20092</title>
				<path d="M0 354.94 L21.13 354.94" class="st6"/>
			</g>
			<g id="shape20093-446" transform="translate(17.0079,-4.25197)">
				<title>Sheet.20093</title>
				<path d="M0 354.94 L21.13 354.94" class="st6"/>
			</g>
			<g id="shape20094-449" transform="translate(371.946,337.93) rotate(90)">
				<title>Sheet.20094</title>
				<path d="M0 354.94 L4.25 354.94" class="st6"/>
			</g>
			<g id="shape20095-452" transform="translate(371.946,350.686) rotate(90)">
				<title>Sheet.20095</title>
				<path d="M0 354.94 L4.25 354.94" class="st6"/>
			</g>
			<g id="shape20096-455" transform="translate(175.741,655.396) rotate(153.435)">
				<title>Sheet.20096</title>
				<path d="M0 354.94 L19.02 354.94" class="st6"/>
			</g>
			<g id="shape20097-458" transform="translate(158.733,28.9678) rotate(26.5651)">
				<title>Sheet.20097</title>
				<path d="M0 354.94 L19.02 354.94" class="st6"/>
			</g>
		</g>
		<g id="group20211-461" transform="translate(692.574,-54.2767)">
			<title>Sheet.20211</title>
			<g id="shape20212-462" transform="translate(371.946,337.93) rotate(90)">
				<title>Sheet.20212</title>
				<path d="M0 354.94 L4.25 354.94" class="st6"/>
			</g>
			<g id="shape20213-465" transform="translate(371.946,350.686) rotate(90)">
				<title>Sheet.20213</title>
				<path d="M0 354.94 L4.25 354.94" class="st6"/>
			</g>
			<g id="shape20214-468" transform="translate(175.741,655.396) rotate(153.435)">
				<title>Sheet.20214</title>
				<path d="M0 354.94 L19.02 354.94" class="st6"/>
			</g>
			<g id="shape20215-471" transform="translate(158.733,28.9678) rotate(26.5651)">
				<title>Sheet.20215</title>
				<path d="M0 354.94 L19.02 354.94" class="st6"/>
			</g>
			<g id="shape20216-474" transform="translate(444.117,337.93) rotate(90)">
				<title>Sheet.20216</title>
				<path d="M0 354.94 L4.25 354.94" class="st6"/>
			</g>
			<g id="shape20217-477" transform="translate(444.117,350.686) rotate(90)">
				<title>Sheet.20217</title>
				<path d="M0 354.94 L4.25 354.94" class="st6"/>
			</g>
			<g id="shape20218-480" transform="translate(247.913,20.4639) rotate(26.5651)">
				<title>Sheet.20218</title>
				<path d="M0 354.94 L19.02 354.94" class="st6"/>
			</g>
			<g id="shape20219-483" transform="translate(264.92,663.9) rotate(153.435)">
				<title>Sheet.20219</title>
				<path d="M0 354.94 L19.02 354.94" class="st6"/>
			</g>
			<g id="shape20220-486" transform="translate(89.1796,697.12) rotate(180)">
				<title>Sheet.20220</title>
				<path d="M0 354.94 L72.17 354.94" class="st6"/>
			</g>
			<g id="shape20221-489" transform="translate(17.0079,-4.25197)">
				<title>Sheet.20221</title>
				<path d="M0 354.94 L72.17 354.94" class="st6"/>
			</g>
		</g>
		<g id="group22850-492" transform="translate(206.221,-83.2686)">
			<title>Sheet.22850</title>
			<g id="shape22851-493" transform="translate(290.904,-5.08759)">
				<title>Sheet.22851</title>
				<path d="M-0 354.94 A41.1024 41.1024 -180 0 0 41.1 313.84 L0 354.94 Z" class="st1"/>
				<path d="M-0 354.94 A41.1024 41.1024 -180 0 0 41.1 313.84" class="st2"/>
			</g>
			<g id="shape22852-496" transform="translate(686.944,231.654) rotate(90)">
				<title>Sheet.22852</title>
				<path d="M0 354.94 L77.09 354.94" class="st2"/>
			</g>
			<g id="shape22853-499" transform="translate(7.34054,-5.08759)">
				<title>Sheet.22853</title>
				<path d="M0 354.94 L283.56 354.94" class="st2"/>
			</g>
			<g id="shape22854-502" transform="translate(689.779,231.654) rotate(90)">
				<title>Sheet.22854</title>
				<path d="M0 354.94 L77.09 354.94" class="st2"/>
			</g>
			<g id="shape22855-505" transform="translate(290.904,-2.25295)">
				<title>Sheet.22855</title>
				<path d="M0 354.94 A43.937 43.937 -180 0 0 43.94 311 L0 354.94 Z" class="st1"/>
				<path d="M0 354.94 A43.937 43.937 -180 0 0 43.94 311" class="st2"/>
			</g>
			<g id="shape22856-508" transform="translate(7.34054,-2.25295)">
				<title>Sheet.22856</title>
				<path d="M0 354.94 L283.56 354.94" class="st2"/>
			</g>
			<g id="shape22857-511" transform="translate(166.074,665.063) rotate(153.435)">
				<title>Sheet.22857</title>
				<path d="M0 354.94 L8.21 354.94" class="st2"/>
			</g>
			<g id="shape22858-514" transform="translate(158.733,33.8015) rotate(26.5651)">
				<title>Sheet.22858</title>
				<path d="M0 354.94 L8.21 354.94" class="st2"/>
			</g>
			<g id="shape22859-517" transform="translate(362.278,347.597) rotate(90)">
				<title>Sheet.22859</title>
				<path d="M0 354.94 L2.25 354.94" class="st2"/>
			</g>
			<g id="shape22860-520" transform="translate(362.278,352.685) rotate(90)">
				<title>Sheet.22860</title>
				<path d="M0 354.94 L2.25 354.94" class="st2"/>
			</g>
			<g id="shape22861-523" transform="translate(19.6283,390.387) rotate(-116.565)">
				<title>Sheet.22861</title>
				<path d="M0 354.94 L8.21 354.94" class="st2"/>
			</g>
			<g id="shape22862-526" transform="translate(650.89,383.047) rotate(116.565)">
				<title>Sheet.22862</title>
				<path d="M0 354.94 L8.21 354.94" class="st2"/>
			</g>
			<g id="shape22863-529" transform="translate(337.094,586.592) rotate(180)">
				<title>Sheet.22863</title>
				<path d="M0 354.94 L2.25 354.94" class="st2"/>
			</g>
			<g id="shape22864-532" transform="translate(332.007,586.592) rotate(180)">
				<title>Sheet.22864</title>
				<path d="M0 354.94 L2.25 354.94" class="st2"/>
			</g>
		</g>
		<g id="group22985-535" transform="translate(473.319,-219.576)">
			<title>Sheet.22985</title>
			<g id="shape22986-536" transform="translate(26.5872,-135.362)">
				<title>Sheet.22986</title>
				<path d="M0 354.94 L151.71 354.94" class="st2"/>
			</g>
			<g id="shape22987-539" transform="translate(23.866,-132.624)">
				<title>Sheet.22987</title>
				<path d="M2.72 352.2 A2.72126 2.72126 -180 0 0 -0 354.94 L2.72 352.2 Z" class="st1"/>
				<path d="M2.72 352.2 A2.72126 2.72126 -180 0 0 -0 354.94" class="st2"/>
			</g>
			<g id="shape22988-542" transform="translate(28.8865,-128.507)">
				<title>Sheet.22988</title>
				<path d="M0 354.94 L147.22 354.94" class="st2"/>
			</g>
			<g id="shape22989-545" transform="translate(28.2062,-127.823)">
				<title>Sheet.22989</title>
				<path d="M0.68 354.25 a0.680315 0.680315 -180 0 0 -0.680308 0.6834 L0.68 354.25 Z" class="st1"/>
				<path d="M0.68 354.25 a0.680315 0.680315 -180 0 0 -0.680308 0.6834" class="st2"/>
			</g>
			<g id="shape22990-548" transform="translate(28.5798,-45.4194)">
				<title>Sheet.22990</title>
				<path d="M0 354.94 L148.25 354.94" class="st2"/>
			</g>
			<g id="shape22991-551" transform="translate(29.2595,-44.871)">
				<title>Sheet.22991</title>
				<path d="M0 354.94 L146.89 354.94" class="st2"/>
			</g>
			<g id="shape22992-554" transform="translate(26.4951,-37.8785)">
				<title>Sheet.22992</title>
				<path d="M0 354.94 L152.25 354.94" class="st2"/>
			</g>
			<g id="shape22993-557" transform="translate(24.4542,-38.1869)">
				<title>Sheet.22993</title>
				<path d="M0 353.22 A2.04094 2.04094 -180 0 0 0.96 354.94 L0 353.22 Z" class="st1"/>
				<path d="M0 353.22 A2.04094 2.04094 -180 0 0 0.96 354.94" class="st2"/>
			</g>
			<g id="shape22994-560" transform="translate(25.4163,-37.8785)">
				<title>Sheet.22994</title>
				<path d="M0 354.63 A2.04094 2.04094 -180 0 0 1.08 354.94 L0 354.63 Z" class="st1"/>
				<path d="M0 354.63 A2.04094 2.04094 -180 0 0 1.08 354.94" class="st2"/>
			</g>
			<g id="shape22995-563" transform="translate(9.96516,-18.8547)">
				<title>Sheet.22995</title>
				<path d="M0 354.94 L0.84 354.94" class="st2"/>
			</g>
			<g id="shape22996-566" transform="translate(10.8015,-18.8547)">
				<title>Sheet.22996</title>
				<path d="M0 354.94 L183.1 354.94" class="st2"/>
			</g>
			<g id="shape22997-569" transform="translate(193.899,-18.8547)">
				<title>Sheet.22997</title>
				<path d="M0 354.94 L0.83 354.94" class="st2"/>
			</g>
			<g id="shape22998-572" transform="translate(0.680315,-6.25546)">
				<title>Sheet.22998</title>
				<path d="M0 354.94 L202.61 354.94" class="st2"/>
			</g>
			<g id="shape22999-575" transform="translate(0.162995,-7.37759)">
				<title>Sheet.22999</title>
			</g>
			<g id="shape23000-576" transform="translate(-2.45928E-013,-6.25546)">
				<title>Sheet.23000</title>
				<path d="M0 354.26 a0.680315 0.680315 -180 0 0 0.680315 0.680315 L0 354.26 Z" class="st1"/>
				<path d="M0 354.26 a0.680315 0.680315 -180 0 0 0.680315 0.680315" class="st2"/>
			</g>
			<g id="shape23001-579" transform="translate(12.4677,-1.13687E-013)">
				<title>Sheet.23001</title>
				<path d="M0 354.94 L175.97 354.94" class="st2"/>
			</g>
			<g id="shape23002-582" transform="translate(378.797,220.062) rotate(89.6365)">
				<title>Sheet.23002</title>
				<path d="M0 354.94 L92.72 354.94" class="st2"/>
			</g>
			<g id="shape23003-585" transform="translate(383.14,225.505) rotate(89.7402)">
				<title>Sheet.23003</title>
				<path d="M0 354.94 L82.28 354.94" class="st2"/>
			</g>
			<g id="shape23004-588" transform="translate(28.5792,-44.871)">
				<title>Sheet.23004</title>
				<path d="M-0 354.26 a0.680315 0.680315 -180 0 0 0.680308 0.67723 L0 354.26 Z" class="st1"/>
				<path d="M-0 354.26 a0.680315 0.680315 -180 0 0 0.680308 0.67723" class="st2"/>
			</g>
			<g id="shape23005-591" transform="translate(531.726,226.941) rotate(89.9725)">
				<title>Sheet.23005</title>
				<path d="M0 354.94 L82.28 354.94" class="st2"/>
			</g>
			<g id="shape23006-594" transform="translate(176.148,-44.871)">
				<title>Sheet.23006</title>
				<path d="M0 354.94 a0.680315 0.680315 -180 0 0 0.680315 -0.680641 L0 354.94 Z" class="st1"/>
				<path d="M0 354.94 a0.680315 0.680315 -180 0 0 0.680315 -0.680641" class="st2"/>
			</g>
			<g id="shape23007-597" transform="translate(176.108,-127.827)">
				<title>Sheet.23007</title>
				<path d="M0.68 354.94 a0.680315 0.680315 -180 0 0 -0.680315 -0.679989 L0.68 354.94 Z" class="st1"/>
				<path d="M0.68 354.94 a0.680315 0.680315 -180 0 0 -0.680315 -0.679989" class="st2"/>
			</g>
			<g id="shape23008-600" transform="translate(-174.148,314.14) rotate(-89.8575)">
				<title>Sheet.23008</title>
				<path d="M0 354.94 L92.72 354.94" class="st2"/>
			</g>
			<g id="shape23009-603" transform="translate(178.748,-37.8785)">
				<title>Sheet.23009</title>
				<path d="M-0 354.94 A2.04094 2.04094 -180 0 0 1.51 354.27 L0 354.94 Z" class="st1"/>
				<path d="M-0 354.94 A2.04094 2.04094 -180 0 0 1.51 354.27" class="st2"/>
			</g>
			<g id="shape23010-606" transform="translate(180.262,-38.551)">
				<title>Sheet.23010</title>
				<path d="M0 354.94 A2.04094 2.04094 -180 0 0 0.53 353.57 L0 354.94 Z" class="st1"/>
				<path d="M0 354.94 A2.04094 2.04094 -180 0 0 0.53 353.57" class="st2"/>
			</g>
			<g id="shape23011-609" transform="translate(178.298,-132.634)">
				<title>Sheet.23011</title>
				<path d="M2.72 354.94 A2.72126 2.72126 -180 0 0 -0 352.21 L2.72 354.94 Z" class="st1"/>
				<path d="M2.72 354.94 A2.72126 2.72126 -180 0 0 -0 352.21" class="st2"/>
			</g>
			<g id="shape23012-612" transform="translate(293.814,550.261) rotate(130.499)">
				<title>Sheet.23012</title>
				<path d="M0 354.94 L3.2 354.94" class="st2"/>
			</g>
			<g id="shape23013-615" transform="translate(279.864,566.594) rotate(130.499)">
				<title>Sheet.23013</title>
				<path d="M0 354.94 L15.09 354.94" class="st2"/>
			</g>
			<g id="shape23014-618" transform="translate(459.939,99.2396) rotate(51.6576)">
				<title>Sheet.23014</title>
				<path d="M0 354.94 L3.51 354.94" class="st2"/>
			</g>
			<g id="shape23015-621" transform="translate(473.112,115.894) rotate(51.6576)">
				<title>Sheet.23015</title>
				<path d="M0 354.94 L14.66 354.94" class="st2"/>
			</g>
			<g id="shape23016-624" transform="translate(203.288,-6.25546)">
				<title>Sheet.23016</title>
				<path d="M0 354.94 a0.680315 0.680315 -180 0 0 0.680315 -0.680315 L0 354.94 Z" class="st1"/>
				<path d="M0 354.94 a0.680315 0.680315 -180 0 0 0.680315 -0.680315" class="st2"/>
			</g>
			<g id="shape23017-627" transform="translate(203.968,-6.93577)">
				<title>Sheet.23017</title>
			</g>
			<g id="shape23018-628" transform="translate(286.448,696.437) rotate(166.45)">
				<title>Sheet.23018</title>
				<path d="M0 354.94 L15.11 354.94" class="st2"/>
			</g>
			<g id="shape23019-631" transform="translate(188.441,-1.13687E-013)">
				<title>Sheet.23019</title>
			</g>
			<g id="shape23020-632" transform="translate(58.6247,-18.1109)">
				<title>Sheet.23020</title>
				<path d="M0 354.94 L45.36 354.94" class="st2"/>
			</g>
			<g id="shape23021-635" transform="translate(57.6846,-17.4874)">
				<title>Sheet.23021</title>
				<path d="M0.94 354.31 A1.02047 1.02047 -180 0 0 0 354.94 L0.94 354.31 Z" class="st1"/>
				<path d="M0.94 354.31 A1.02047 1.02047 -180 0 0 0 354.94" class="st2"/>
			</g>
			<g id="shape23022-638" transform="translate(54.7924,-8.81633)">
				<title>Sheet.23022</title>
				<path d="M0 354.94 L49.15 354.94" class="st2"/>
			</g>
			<g id="shape23023-641" transform="translate(104.968,699.394) rotate(180)">
				<title>Sheet.23023</title>
				<path d="M0 354.94 L50.24 354.94" class="st2"/>
			</g>
			<g id="shape23024-644" transform="translate(384.665,475.524) rotate(112.893)">
				<title>Sheet.23024</title>
				<path d="M0 354.94 L8.64 354.94" class="st2"/>
			</g>
			<g id="shape23025-647" transform="translate(54.3223,-8.81633)">
				<title>Sheet.23025</title>
				<path d="M0 354.23 a0.510236 0.510236 -180 0 0 0.470047 0.708723 L0 354.23 Z" class="st1"/>
				<path d="M0 354.23 a0.510236 0.510236 -180 0 0 0.470047 0.708723" class="st2"/>
			</g>
			<g id="shape23026-650" transform="translate(428.53,412.559) rotate(101.062)">
				<title>Sheet.23026</title>
				<path d="M0 354.94 L1.7 354.94" class="st2"/>
			</g>
			<g id="shape23027-653" transform="translate(428.153,412.559) rotate(101.062)">
				<title>Sheet.23027</title>
				<path d="M0 354.94 L1.7 354.94" class="st2"/>
			</g>
			<g id="shape23028-656" transform="translate(459.935,339.667) rotate(90.2929)">
				<title>Sheet.23028</title>
				<path d="M0 354.94 L7.25 354.94" class="st2"/>
			</g>
			<g id="shape23029-659" transform="translate(103.944,-8.81633)">
				<title>Sheet.23029</title>
				<path d="M-0 354.94 A1.02047 1.02047 -180 0 0 1.02 353.92 L0 354.94 Z" class="st1"/>
				<path d="M-0 354.94 A1.02047 1.02047 -180 0 0 1.02 353.92" class="st2"/>
			</g>
			<g id="shape23030-662" transform="translate(103.981,-17.0852)">
				<title>Sheet.23030</title>
				<path d="M1.02 354.94 A1.02047 1.02047 -180 0 0 -0 353.91 L1.02 354.94 Z" class="st1"/>
				<path d="M1.02 354.94 A1.02047 1.02047 -180 0 0 -0 353.91" class="st2"/>
			</g>
			<g id="shape23031-665" transform="translate(24.485,-37.1603)">
				<title>Sheet.23031</title>
				<path d="M0 354.94 L156.58 354.94" class="st2"/>
			</g>
			<g id="shape23032-668" transform="translate(181.063,-35.509)">
				<title>Sheet.23032</title>
				<path d="M-0 353.29 A3.46711 3.46711 -180 0 0 0.49 354.94 L0 353.29 Z" class="st1"/>
				<path d="M-0 353.29 A3.46711 3.46711 -180 0 0 0.49 354.94" class="st2"/>
			</g>
			<g id="shape23033-671" transform="translate(23.9148,-35.188)">
				<title>Sheet.23033</title>
				<path d="M-0 354.94 A3.52318 3.52318 -180 0 0 0.57 352.97 L0 354.94 Z" class="st1"/>
				<path d="M-0 354.94 A3.52318 3.52318 -180 0 0 0.57 352.97" class="st2"/>
			</g>
			<g id="shape23034-674" transform="translate(-238.398,79.2967) rotate(-47.7865)">
				<title>Sheet.23034</title>
				<path d="M0 354.94 L1.39 354.94" class="st2"/>
			</g>
			<g id="shape23035-677" transform="translate(-126.501,494.935) rotate(-119.942)">
				<title>Sheet.23035</title>
				<path d="M0 354.94 L1.6 354.94" class="st2"/>
			</g>
			<g id="shape23036-680" transform="translate(-91.1279,694.452) rotate(-163.063)">
				<title>Sheet.23036</title>
				<path d="M0 354.94 L12.12 354.94" class="st2"/>
			</g>
			<g id="shape23037-683" transform="translate(12.2711,-0.0290343)">
				<title>Sheet.23037</title>
			</g>
			<g id="shape23038-684" transform="translate(0.680315,-3.5587)">
				<title>Sheet.23038</title>
				<path d="M0 354.94 L202.61 354.94" class="st2"/>
			</g>
			<g id="shape23039-687" transform="translate(-2.45928E-013,-3.5587)">
				<title>Sheet.23039</title>
				<path d="M0 354.26 a0.680315 0.680315 -180 0 0 0.680315 0.680315 L0 354.26 Z" class="st1"/>
				<path d="M0 354.26 a0.680315 0.680315 -180 0 0 0.680315 0.680315" class="st2"/>
			</g>
			<g id="shape23040-690" transform="translate(203.288,-3.5587)">
				<title>Sheet.23040</title>
				<path d="M0 354.94 a0.680315 0.680315 -180 0 0 0.680315 -0.680315 L0 354.94 Z" class="st1"/>
				<path d="M0 354.94 a0.680315 0.680315 -180 0 0 0.680315 -0.680315" class="st2"/>
			</g>
			<g id="shape23041-693" transform="translate(558.906,348.002) rotate(90)">
				<title>Sheet.23041</title>
				<path d="M0 354.94 L2.7 354.94" class="st2"/>
			</g>
			<g id="shape23042-696" transform="translate(354.938,348.002) rotate(90)">
				<title>Sheet.23042</title>
				<path d="M0 354.94 L2.7 354.94" class="st2"/>
			</g>
			<g id="shape23043-699" transform="translate(291.646,553.698) rotate(130.319)">
				<title>Sheet.23043</title>
				<path d="M0 354.94 L15.8 354.94" class="st2"/>
			</g>
			<g id="shape23044-702" transform="translate(21.0235,-30.8999)">
				<title>Sheet.23044</title>
				<path d="M-0 354.94 A3.34859 3.34859 -180 0 0 0.81 353.08 L0 354.94 Z" class="st1"/>
				<path d="M-0 354.94 A3.34859 3.34859 -180 0 0 0.81 353.08" class="st2"/>
			</g>
			<g id="shape23045-705" transform="translate(462.862,103.95) rotate(51.7331)">
				<title>Sheet.23045</title>
				<path d="M0 354.94 L15.68 354.94" class="st2"/>
			</g>
			<g id="shape23046-708" transform="translate(21.834,-32.7563)">
				<title>Sheet.23046</title>
				<path d="M0 354.94 L161.9 354.94" class="st2"/>
			</g>
			<g id="shape23047-711" transform="translate(183.732,-31.1656)">
				<title>Sheet.23047</title>
				<path d="M-0 353.35 A3.46711 3.46711 -180 0 0 0.46 354.94 L0 353.35 Z" class="st1"/>
				<path d="M-0 353.35 A3.46711 3.46711 -180 0 0 0.46 354.94" class="st2"/>
			</g>
			<g id="shape23048-714" transform="translate(31.8435,-31.7816)">
				<title>Sheet.23048</title>
				<path d="M0 354.94 L110.07 354.94" class="st2"/>
			</g>
			<g id="shape23049-717" transform="translate(145.421,-31.7816)">
				<title>Sheet.23049</title>
				<path d="M0 354.94 L27.86 354.94" class="st2"/>
			</g>
			<g id="shape23050-720" transform="translate(144.949,-31.0766)">
				<title>Sheet.23050</title>
				<path d="M0.47 354.23 a0.510236 0.510236 -180 0 0 -0.471621 0.704953 L0.47 354.23 Z" class="st1"/>
				<path d="M0.47 354.23 a0.510236 0.510236 -180 0 0 -0.471621 0.704953" class="st2"/>
			</g>
			<g id="shape23051-723" transform="translate(31.0159,-31.3581)">
				<title>Sheet.23051</title>
				<path d="M0.83 354.51 A1.02047 1.02047 -180 0 0 0 354.94 L0.83 354.51 Z" class="st1"/>
				<path d="M0.83 354.51 A1.02047 1.02047 -180 0 0 0 354.94" class="st2"/>
			</g>
			<g id="shape23052-726" transform="translate(468.113,124.734) rotate(55.9235)">
				<title>Sheet.23052</title>
				<path d="M0 354.94 L12.64 354.94" class="st2"/>
			</g>
			<g id="shape23053-729" transform="translate(173.276,-31.3329)">
				<title>Sheet.23053</title>
				<path d="M0.85 354.94 A1.02047 1.02047 -180 0 0 0 354.49 L0.85 354.94 Z" class="st1"/>
				<path d="M0.85 354.94 A1.02047 1.02047 -180 0 0 0 354.49" class="st2"/>
			</g>
			<g id="shape23054-732" transform="translate(180.921,-20.3334)">
				<title>Sheet.23054</title>
				<path d="M0 354.94 a0.340157 0.340157 -180 0 0 0.281749 -0.530747 L0 354.94 Z" class="st1"/>
				<path d="M0 354.94 a0.340157 0.340157 -180 0 0 0.281749 -0.530747" class="st2"/>
			</g>
			<g id="shape23055-735" transform="translate(318.89,531.207) rotate(125.801)">
				<title>Sheet.23055</title>
				<path d="M0 354.94 L12.93 354.94" class="st2"/>
			</g>
			<g id="shape23056-738" transform="translate(23.3909,-20.3334)">
				<title>Sheet.23056</title>
				<path d="M0.06 354.4 a0.340157 0.340157 -180 0 0 0.275887 0.539139 L0.06 354.4 Z" class="st1"/>
				<path d="M0.06 354.4 a0.340157 0.340157 -180 0 0 0.275887 0.539139" class="st2"/>
			</g>
			<g id="shape23057-741" transform="translate(23.7291,-20.3334)">
				<title>Sheet.23057</title>
				<path d="M0 354.94 L122.83 354.94" class="st2"/>
			</g>
			<g id="shape23058-744" transform="translate(150.067,-20.3334)">
				<title>Sheet.23058</title>
				<path d="M0 354.94 L30.85 354.94" class="st2"/>
			</g>
			<g id="shape23059-747" transform="translate(180.921,-19.6291)">
				<title>Sheet.23059</title>
			</g>
			<g id="shape23060-748" transform="translate(23.7291,-19.6291)">
				<title>Sheet.23060</title>
			</g>
			<g id="shape23061-749" transform="translate(23.7291,-19.2889)">
				<title>Sheet.23061</title>
				<path d="M0 354.94 L122.83 354.94" class="st2"/>
			</g>
			<g id="shape23062-752" transform="translate(150.067,-19.2889)">
				<title>Sheet.23062</title>
				<path d="M0 354.94 L30.85 354.94" class="st2"/>
			</g>
			<g id="shape23063-755" transform="translate(536.199,334.264) rotate(90)">
				<title>Sheet.23063</title>
				<path d="M0 354.94 L1.04 354.94" class="st2"/>
			</g>
			<g id="shape23064-758" transform="translate(378.327,334.264) rotate(90)">
				<title>Sheet.23064</title>
				<path d="M0 354.94 L1.04 354.94" class="st2"/>
			</g>
			<g id="shape23065-761" transform="translate(473.025,188.41) rotate(67.5659)">
				<title>Sheet.23065</title>
				<path d="M0 354.94 L10.94 354.94" class="st2"/>
			</g>
			<g id="shape23066-764" transform="translate(149.124,-20.3334)">
				<title>Sheet.23066</title>
				<path d="M-0 354.31 A1.02047 1.02047 -180 0 0 0.94 354.94 L0 354.31 Z" class="st1"/>
				<path d="M-0 354.31 A1.02047 1.02047 -180 0 0 0.94 354.94" class="st2"/>
			</g>
			<g id="shape23067-767" transform="translate(473.025,189.454) rotate(67.5659)">
				<title>Sheet.23067</title>
				<path d="M0 354.94 L10.94 354.94" class="st2"/>
			</g>
			<g id="shape23068-770" transform="translate(470.93,188.336) rotate(67.5659)">
				<title>Sheet.23068</title>
				<path d="M0 354.94 L10.94 354.94" class="st2"/>
			</g>
			<g id="shape23069-773" transform="translate(146.558,-20.3334)">
				<title>Sheet.23069</title>
				<path d="M-0 354.94 a0.510236 0.510236 -180 0 0 0.471621 -0.704953 L0 354.94 Z" class="st1"/>
				<path d="M-0 354.94 a0.510236 0.510236 -180 0 0 0.471621 -0.704953" class="st2"/>
			</g>
			<g id="shape23070-776" transform="translate(141.911,-31.1506)">
				<title>Sheet.23070</title>
				<path d="M0.94 354.94 A1.02047 1.02047 -180 0 0 0 354.31 L0.94 354.94 Z" class="st1"/>
				<path d="M0.94 354.94 A1.02047 1.02047 -180 0 0 0 354.31" class="st2"/>
			</g>
			<g id="shape23071-779" transform="translate(501.495,334.604) rotate(90)">
				<title>Sheet.23071</title>
				<path d="M0 354.94 L1.04 354.94" class="st2"/>
			</g>
			<g id="shape23072-782" transform="translate(146.558,-19.2889)">
				<title>Sheet.23072</title>
				<path d="M0 354.94 a0.510236 0.510236 -180 0 0 0.510236 -0.510236 L0 354.94 Z" class="st1"/>
				<path d="M0 354.94 a0.510236 0.510236 -180 0 0 0.510236 -0.510236" class="st2"/>
			</g>
			<g id="shape23073-785" transform="translate(-207.87,335.139) rotate(-90)">
				<title>Sheet.23073</title>
				<path d="M0 354.94 L1.04 354.94" class="st2"/>
			</g>
			<g id="shape23074-788" transform="translate(505.005,334.604) rotate(90)">
				<title>Sheet.23074</title>
				<path d="M0 354.94 L1.04 354.94" class="st2"/>
			</g>
			<g id="shape23075-791" transform="translate(149.124,-19.2889)">
				<title>Sheet.23075</title>
				<path d="M-0 354.31 A1.02047 1.02047 -180 0 0 0.94 354.94 L0 354.31 Z" class="st1"/>
				<path d="M-0 354.31 A1.02047 1.02047 -180 0 0 0.94 354.94" class="st2"/>
			</g>
			<g id="shape23076-794" transform="translate(504.062,333.973) rotate(90)">
				<title>Sheet.23076</title>
				<path d="M0 354.94 L1.04 354.94" class="st2"/>
			</g>
			<g id="shape23077-797" transform="translate(499.848,323.666) rotate(90)">
				<title>Sheet.23077</title>
				<path d="M0 354.94 L1.04 354.94" class="st2"/>
			</g>
			<g id="shape23078-800" transform="translate(145.421,-30.2269)">
				<title>Sheet.23078</title>
			</g>
			<g id="shape23079-801" transform="translate(535.859,334.604) rotate(90)">
				<title>Sheet.23079</title>
				<path d="M0 354.94 L1.04 354.94" class="st2"/>
			</g>
			<g id="shape23080-804" transform="translate(558.225,348.682) rotate(90)">
				<title>Sheet.23080</title>
				<path d="M0 354.94 L2.7 354.94" class="st2"/>
			</g>
			<g id="shape23081-807" transform="translate(355.618,348.682) rotate(90)">
				<title>Sheet.23081</title>
				<path d="M0 354.94 L2.7 354.94" class="st2"/>
			</g>
			<g id="shape23082-810" transform="translate(378.667,334.604) rotate(90)">
				<title>Sheet.23082</title>
				<path d="M0 354.94 L1.04 354.94" class="st2"/>
			</g>
		</g>
		<g id="shape23812-813" transform="translate(16.7002,-29.7078)">
			<title>Sheet.23812</title>
			<desc>CoAP Client</desc>
			<rect x="0" y="339.82" width="123.248" height="15.1181" class="st7"/>
			<text x="0" y="349.65" class="st8">CoAP Client</text>		</g>
		<g id="shape23813-816" transform="translate(16.7002,-78.4329)">
			<title>Sheet.23813</title>
			<desc>CoAP Temperature server</desc>
			<rect x="0" y="339.82" width="197.596" height="15.1181" class="st7"/>
			<text x="0" y="349.65" class="st8">CoAP Temperature server</text>		</g>
		<g id="shape23814-819" transform="translate(8.10764,-67.1384)">
			<title>Sheet.23814</title>
			<path d="M209.33 336.55 L209.33 354.94 L0 354.94 L0 315.34 L209.33 315.34 L209.33 333.72 L209.33 333.72 L209.33 336.55
						 Z" class="st1"/>
			<path d="M209.33 336.55 L209.33 354.94 L0 354.94 L0 315.34 L209.33 315.34 L209.33 333.72 L209.33 333.72" class="st9"/>
		</g>
		<g id="shape23815-822" transform="translate(8.10764,-18.4257)">
			<title>Sheet.23815</title>
			<path d="M0 315.34 L209.33 315.34 L209.33 354.94 L0 354.94 L0 315.34 Z" class="st3"/>
		</g>
		<g id="shape23816-824" transform="translate(0,-9.62588)">
			<title>Sheet.23816</title>
			<path d="M225.81 279.04 L225.81 354.94 L0 354.94 L0 248.63 L225.81 248.63 L225.81 276.21 L225.81 276.21 L225.81 279.04
						 Z" class="st1"/>
			<path d="M225.81 279.04 L225.81 354.94 L0 354.94 L0 248.63 L225.81 248.63 L225.81 276.21 L225.81 276.21" class="st9"/>
		</g>
		<g id="shape23817-827" transform="translate(152.939,-49.5221)">
			<title>Sheet.23817</title>
			<desc>Button 1</desc>
			<rect x="0" y="349.268" width="24.2894" height="5.66929" class="st7"/>
			<text x="2.15" y="354.65" class="st10">Button 1</text>		</g>
		<g id="shape23818-830" transform="translate(184.937,-49.5221)">
			<title>Sheet.23818</title>
			<desc>Button 2</desc>
			<rect x="0" y="349.268" width="24.2894" height="5.66929" class="st7"/>
			<text x="2.15" y="354.65" class="st10">Button 2</text>		</g>
		<g id="shape23819-833" transform="translate(939.865,-78.4329)">
			<title>Sheet.23819</title>
			<desc>CoAP Light server</desc>
			<rect x="0" y="339.82" width="197.596" height="15.1181" class="st7"/>
			<text x="0" y="349.65" class="st11">CoAP Light server</text>		</g>
		<g id="shape23820-836" transform="translate(931.272,-17.5753)">
			<title>Sheet.23820</title>
			<path d="M0 265.77 L209.33 265.77 L209.33 354.94 L0 354.94 L0 265.77 Z" class="st5"/>
		</g>
		<g id="shape23821-838" transform="translate(923.164,-9.62588)">
			<title>Sheet.23821</title>
			<path d="M0 248.63 L225.81 248.63 L225.81 354.94 L0 354.94 L0 248.63 Z" class="st5"/>
		</g>
		<g id="shape23822-840" transform="translate(1076.1,-62.845)">
			<title>Sheet.23822</title>
			<desc>Light 1</desc>
			<rect x="0" y="349.268" width="24.2894" height="5.66929" class="st7"/>
			<text x="4.45" y="354.65" class="st12">Light 1</text>		</g>
		<g id="shape23823-843" transform="translate(1108.1,-62.845)">
			<title>Sheet.23823</title>
			<desc>Light 2</desc>
			<rect x="0" y="349.268" width="24.2894" height="5.66929" class="st7"/>
			<text x="4.45" y="354.65" class="st12">Light 2</text>		</g>
		<g id="shape23824-846" transform="translate(473.795,-54.5177)">
			<title>Sheet.23824</title>
			<desc>Internet</desc>
			<rect x="0" y="332.261" width="197.596" height="22.6772" class="st7"/>
			<text x="61.19" y="350.4" class="st13">Internet</text>		</g>
		<g id="shape23825-849" transform="translate(280.957,-9.62588)">
			<title>Sheet.23825</title>
			<path d="M69.26 279.04 L69.26 354.94 L0 354.94 L0 279.04 L0 279.04 L69.26 279.04 Z" class="st1"/>
			<path d="M69.26 279.04 L69.26 354.94 L0 354.94 L0 279.04 L0 279.04" class="st9"/>
		</g>
		<g id="shape23826-852" transform="translate(216.367,-59.6827)">
			<title>Sheet.23826</title>
			<desc>BLE enabled router</desc>
			<rect x="0" y="343.599" width="197.596" height="11.3386" class="st7"/>
			<text x="90.56" y="339.06" class="st14">BLE <tspan x="80.2" dy="1.2em" class="st15">enabled </tspan><tspan x="84.16"
						dy="1.2em" class="st15">router</tspan></text>		</g>
		<g id="shape23827-857" transform="translate(798.761,-9.62588)">
			<title>Sheet.23827</title>
			<path d="M69.26 248.63 L0 248.63 L0 354.94 L69.26 354.94 L69.26 248.63 Z" class="st5"/>
		</g>
		<g id="shape23828-859" transform="translate(734.171,-59.6827)">
			<title>Sheet.23828</title>
			<desc>BLE enabled router</desc>
			<rect x="0" y="343.599" width="197.596" height="11.3386" class="st7"/>
			<text x="90.56" y="339.06" class="st16">BLE <tspan x="80.2" dy="1.2em" class="st15">enabled </tspan><tspan x="84.16"
						dy="1.2em" class="st15">router</tspan></text>		</g>
		<g id="shape23829-864" transform="translate(335.833,-69.2306)">
			<title>Sheet.23829</title>
			<desc>UDP/IPv6</desc>
			<rect x="0" y="343.599" width="135.084" height="11.3386" class="st7"/>
			<text x="45.51" y="354.37" class="st14">UDP/IPv6</text>		</g>
		<g id="shape23830-867" transform="translate(938.972,117.534) rotate(90)">
			<title>Sheet.23830</title>
			<desc>UDP/IPv6</desc>
			<rect x="0" y="343.599" width="135.084" height="11.3386" class="st7"/>
			<text x="45.51" y="354.37" class="st14">UDP/IPv6</text>		</g>
		<g id="shape23831-870" transform="translate(678.189,-69.2306)">
			<title>Sheet.23831</title>
			<desc>UDP/IPv6</desc>
			<rect x="0" y="343.599" width="135.084" height="11.3386" class="st7"/>
			<text x="45.51" y="354.37" class="st16">UDP/IPv6</text>		</g>
		<g id="shape23832-873" transform="translate(539.563,-117.081)">
			<title>Sheet.23832</title>
			<path d="M0 353.94 C0.06 353.9 0.12 353.86 0.18 353.82 C5.97 350.07 13.45 348.97 20.81 349.11 C26.42 349.22 31.96 350.04
						 36.51 352.7 C37.63 353.35 38.68 354.11 39.7 354.94 L0 353.94 Z" class="st1"/>
			<path d="M0 353.94 C0.06 353.9 0.12 353.86 0.18 353.82 C5.97 350.07 13.45 348.97 20.81 349.11 C26.42 349.22 31.96 350.04
						 36.51 352.7 C37.63 353.35 38.68 354.11 39.7 354.94" class="st2"/>
		</g>
		<g id="shape23833-876" transform="translate(536.318,-107.44)">
			<title>Sheet.23833</title>
			<path d="M0 352.78 C1.22 353.48 2.44 354.21 3.65 354.94 L0 352.78 Z" class="st1"/>
			<path d="M0 352.78 C1.22 353.48 2.44 354.21 3.65 354.94" class="st2"/>
		</g>
		<g id="shape23834-879" transform="translate(478.818,-88.3562)">
			<title>Sheet.23834</title>
			<path d="M-0 354.94 C0.04 354.4 0.09 353.87 0.15 353.34 C0.79 348.29 2.92 343.26 6.21 339.44 C11.46 333.34 19.67 330.32
						 27.96 328.91 C35.67 327.6 43.44 327.68 50.39 330.25 C51.97 330.83 53.5 331.55 55.01 332.33 L0 354.94 Z"
					class="st1"/>
			<path d="M-0 354.94 C0.04 354.4 0.09 353.87 0.15 353.34 C0.79 348.29 2.92 343.26 6.21 339.44 C11.46 333.34 19.67 330.32
						 27.96 328.91 C35.67 327.6 43.44 327.68 50.39 330.25 C51.97 330.83 53.5 331.55 55.01 332.33" class="st2"/>
		</g>
		<g id="shape23835-882" transform="translate(280.957,-88.3562)">
			<title>Sheet.23835</title>
			<path d="M0 354.94 L0 327.36 L69.26 327.36 L69.26 354.94 L69.26 354.94 L0 354.94 Z" class="st1"/>
			<path d="M0 354.94 L0 327.36 L69.26 327.36 L69.26 354.94 L69.26 354.94" class="st9"/>
		</g>
		<g id="shape23888-885" transform="translate(477.217,-321.163)">
			<title>Sheet.23888</title>
			<desc>CoAP Client</desc>
			<rect x="0" y="339.82" width="197.596" height="15.1181" class="st7"/>
			<text x="63.03" y="349.65" class="st8">CoAP Client</text>		</g>
		<g id="shape24155-888" transform="translate(185.907,-72.2014)">
			<title>Sheet.24155</title>
			<desc>BLE 6lowpan</desc>
			<rect x="0" y="347.379" width="135.084" height="7.55906" class="st7"/>
			<text x="47.94" y="354.56" class="st17">BLE 6lowpan</text>		</g>
		<g id="shape24156-891" transform="translate(828.114,-72.2014)">
			<title>Sheet.24156</title>
			<desc>BLE 6lowpan</desc>
			<rect x="0" y="347.379" width="135.084" height="7.55906" class="st7"/>
			<text x="47.94" y="354.56" class="st18">BLE 6lowpan</text>		</g>
	</g>
</svg>
