<?xml version="1.0" encoding="UTF-8" standalone="no"?>
<!DOCTYPE svg PUBLIC "-//W3C//DTD SVG 1.1//EN" "http://www.w3.org/Graphics/SVG/1.1/DTD/svg11.dtd">
<!-- Generated by Microsoft Visio, SVG Export CoAP_observer_Client_Server 3.svg Page-1 -->
<svg xmlns="http://www.w3.org/2000/svg" xmlns:xlink="http://www.w3.org/1999/xlink" xmlns:ev="http://www.w3.org/2001/xml-events"
		width="7.979in" height="2.46516in" viewBox="0 0 1148.98 354.983" xml:space="preserve" color-interpolation-filters="sRGB"
		class="st20">
	<style type="text/css">
	<![CDATA[
		.st1 {fill:none}
		.st2 {stroke:#000000;stroke-linecap:round;stroke-linejoin:round;stroke-width:0.75}
		.st3 {fill:none;stroke:#dfdfdf;stroke-linecap:butt;stroke-width:0.75}
		.st4 {fill:none;stroke:none;stroke-linecap:round;stroke-linejoin:round;stroke-width:0.75}
		.st5 {fill:#000000;font-family:Calibri;font-size:1.88976em}
		.st6 {fill:#dfdfdf;font-family:Calibri;font-size:0.944893em}
		.st7 {font-size:1em}
		.st8 {stroke:#dfdfdf;stroke-linecap:round;stroke-linejoin:round;stroke-width:0.75}
		.st9 {stroke:#000000;stroke-linecap:butt;stroke-width:0.75}
		.st10 {fill:#000000;font-family:Calibri;font-size:0.944893em}
		.st11 {fill:#000000;font-family:Calibri;font-size:1.25983em}
		.st12 {fill:#dfdfdf;font-family:Calibri;font-size:0.629929em}
		.st13 {fill:#000000;font-family:Calibri;font-size:0.629929em}
		.st14 {fill:#dfdfdf;font-family:Calibri;font-size:1.25983em}
		.st15 {fill:none;stroke:#000000;stroke-linecap:butt;stroke-width:0.75}
		.st16 {fill:#000000;font-family:Calibri;font-size:0.472435em}
		.st17 {fill:none;stroke:#000000;stroke-linecap:round;stroke-linejoin:round;stroke-width:0.75}
		.st18 {fill:none;stroke:#dfdfdf;stroke-linecap:round;stroke-linejoin:round;stroke-width:0.75}
		.st19 {fill:#dfdfdf;font-family:Calibri;font-size:0.472435em}
		.st20 {fill:none;fill-rule:evenodd;font-size:12px;overflow:visible;stroke-linecap:square;stroke-miterlimit:3}
	]]>
	</style>

	<g>
		<title>Page-1</title>
		<g id="shape628-1" transform="translate(478.74,-80.3649)">
			<title>Sheet.628</title>
			<path d="M0.23 354.98 C0.03 351.77 -0.17 348.55 0.23 345.35 C0.87 340.3 2.99 335.27 6.29 331.45 C11.54 325.35 19.75 322.32
						 28.04 320.91 C35.75 319.6 43.52 319.69 50.47 322.26 C54.22 323.65 57.72 325.75 61.23 327.86 L0.23 354.98
						 Z" class="st1"/>
			<path d="M0.23 354.98 C0.03 351.77 -0.17 348.55 0.23 345.35 C0.87 340.3 2.99 335.27 6.29 331.45 C11.54 325.35 19.75 322.32
						 28.04 320.91 C35.75 319.6 43.52 319.69 50.47 322.26 C54.22 323.65 57.72 325.75 61.23 327.86" class="st2"/>
		</g>
		<g id="shape629-4" transform="translate(532.492,-111.68)">
			<title>Sheet.629</title>
			<path d="M0 354.98 C2.22 352.49 4.56 350.17 7.25 348.42 C13.05 344.67 20.52 343.57 27.88 343.71 C33.49 343.82 39.03 344.64
						 43.58 347.3 C44.7 347.95 45.75 348.71 46.77 349.54 L0 354.98 Z" class="st1"/>
			<path d="M0 354.98 C2.22 352.49 4.56 350.17 7.25 348.42 C13.05 344.67 20.52 343.57 27.88 343.71 C33.49 343.82 39.03 344.64
						 43.58 347.3 C44.7 347.95 45.75 348.71 46.77 349.54" class="st2"/>
		</g>
		<g id="shape630-7" transform="translate(576.477,-113.397)">
			<title>Sheet.630</title>
			<path d="M0 354.98 C2.53 351.36 5.23 347.95 8.79 345.65 C15.12 341.58 24.19 341.01 31.68 343.44 L0 354.98 Z"
					class="st1"/>
			<path d="M0 354.98 C2.53 351.36 5.23 347.95 8.79 345.65 C15.12 341.58 24.19 341.01 31.68 343.44" class="st2"/>
		</g>
		<g id="shape631-10" transform="translate(611.154,-118.59)">
			<title>Sheet.631</title>
			<path d="M0 349.8 C2.95 351.17 5.59 353.01 8.15 354.98 L0 349.8 Z" class="st1"/>
			<path d="M0 349.8 C2.95 351.17 5.59 353.01 8.15 354.98" class="st2"/>
		</g>
		<g id="shape632-13" transform="translate(614.299,-107.553)">
			<title>Sheet.632</title>
			<path d="M0 347.57 C4.18 344.42 8.42 341.38 13.17 339.32 C18.62 336.95 24.74 335.85 30.8 336.69 C35.59 337.34 40.33 339.21
						 43.7 342.3 C47.23 345.54 49.25 350.13 51 354.96 C51 354.96 51 354.97 51 354.97 C51 354.98 51 354.98 51 354.98
						 L0 347.57 Z" class="st1"/>
			<path d="M0 347.57 C4.18 344.42 8.42 341.38 13.17 339.32 C18.62 336.95 24.74 335.85 30.8 336.69 C35.59 337.34 40.33 339.21
						 43.7 342.3 C47.23 345.54 49.25 350.13 51 354.96 C51 354.96 51 354.97 51 354.97 C51 354.98 51 354.98 51 354.98"
					class="st2"/>
		</g>
		<g id="shape633-16" transform="translate(663.843,-88.4018)">
			<title>Sheet.633</title>
			<path d="M0 335.94 C2.67 335.72 3.89 335.7 5.12 335.77 C8.51 335.98 11.99 336.95 14.68 338.93 C17.77 341.19 19.83 344.77
						 21 348.57 C21.65 350.67 22.02 352.84 22.02 354.98 L0 335.94 Z" class="st1"/>
			<path d="M0 335.94 C2.67 335.72 3.89 335.7 5.12 335.77 C8.51 335.98 11.99 336.95 14.68 338.93 C17.77 341.19 19.83 344.77
						 21 348.57 C21.65 350.67 22.02 352.84 22.02 354.98" class="st2"/>
		</g>
		<g id="shape634-19" transform="translate(676.398,-74.0076)">
			<title>Sheet.634</title>
			<path d="M9.23 343.42 C9.13 344.06 8.98 344.69 8.79 345.31 C7.95 348.12 6.27 350.76 4.06 352.59 C2.84 353.6 1.47 354.36
						 0 354.98 L9.23 343.42 Z" class="st1"/>
			<path d="M9.23 343.42 C9.13 344.06 8.98 344.69 8.79 345.31 C7.95 348.12 6.27 350.76 4.06 352.59 C2.84 353.6 1.47 354.36
						 0 354.98" class="st2"/>
		</g>
		<g id="shape635-22" transform="translate(661.234,-39.8953)">
			<title>Sheet.635</title>
			<path d="M22.59 314.39 C25.24 317.38 27.66 320.49 28.99 324.15 C30.24 327.58 30.53 331.5 29.7 335.11 C28.92 338.44 27.19
						 341.5 24.96 344.05 C22.09 347.34 18.41 349.8 14.43 351.68 C10.78 353.41 6.87 354.66 2.94 354.93 C1.96 354.99
						 0.98 355 -0 354.96 L22.59 314.39 Z" class="st1"/>
			<path d="M22.59 314.39 C25.24 317.38 27.66 320.49 28.99 324.15 C30.24 327.58 30.53 331.5 29.7 335.11 C28.92 338.44 27.19
						 341.5 24.96 344.05 C22.09 347.34 18.41 349.8 14.43 351.68 C10.78 353.41 6.87 354.66 2.94 354.93 C1.96 354.99
						 0.98 355 -0 354.96" class="st2"/>
		</g>
		<g id="shape636-25" transform="translate(612.775,-14.2621)">
			<title>Sheet.636</title>
			<path d="M30.98 310.4 C35.04 312.35 39.1 314.3 42.2 317.35 C44.45 319.56 46.21 322.35 47.36 325.42 C48.82 329.31 49.32
						 333.65 48.26 337.53 C46.7 343.2 41.78 347.86 36.37 350.75 C29.69 354.32 22.24 355.19 14.83 355.01 C11.25
						 354.93 7.67 354.59 4.29 353.67 C2.83 353.27 1.4 352.76 0 352.16 L30.98 310.4 Z" class="st1"/>
			<path d="M30.98 310.4 C35.04 312.35 39.1 314.3 42.2 317.35 C44.45 319.56 46.21 322.35 47.36 325.42 C48.82 329.31 49.32
						 333.65 48.26 337.53 C46.7 343.2 41.78 347.86 36.37 350.75 C29.69 354.32 22.24 355.19 14.83 355.01 C11.25
						 354.93 7.67 354.59 4.29 353.67 C2.83 353.27 1.4 352.76 0 352.16" class="st2"/>
		</g>
		<g id="shape637-28" transform="translate(543.443,5.68434E-014)">
			<title>Sheet.637</title>
			<path d="M71.96 330.7 C70.53 335.49 68.78 340.04 65.77 343.67 C60.74 349.72 52.22 353.18 44.01 354.43 C37.03 355.49 30.28
						 354.96 23.38 353.53 C17.16 352.25 10.82 350.24 6.33 346.13 C3.84 343.86 1.92 340.95 0 338.03 L71.96 330.7
						 Z" class="st1"/>
			<path d="M71.96 330.7 C70.53 335.49 68.78 340.04 65.77 343.67 C60.74 349.72 52.22 353.18 44.01 354.43 C37.03 355.49 30.28
						 354.96 23.38 353.53 C17.16 352.25 10.82 350.24 6.33 346.13 C3.84 343.86 1.92 340.95 0 338.03" class="st2"/>
		</g>
		<g id="shape638-31" transform="translate(490.928,-5.57833)">
			<title>Sheet.638</title>
			<path d="M57.25 350.09 C57.22 350.1 57.2 350.11 57.18 350.12 C57.18 350.12 57.17 350.12 57.17 350.12 C52.59 351.83 47.96
						 353.32 43.14 354.18 C34.54 355.7 25.37 355.18 17.12 351.94 C11.38 349.68 6.08 346.09 2.32 341.4 C1.47 340.35
						 0.71 339.24 0 338.1 L57.25 350.09 Z" class="st1"/>
			<path d="M57.25 350.09 C57.22 350.1 57.2 350.11 57.18 350.12 C57.18 350.12 57.17 350.12 57.17 350.12 C52.59 351.83 47.96
						 353.32 43.14 354.18 C34.54 355.7 25.37 355.18 17.12 351.94 C11.38 349.68 6.08 346.09 2.32 341.4 C1.47 340.35
						 0.71 339.24 0 338.1" class="st2"/>
		</g>
		<g id="shape639-34" transform="translate(463.293,-22.4409)">
			<title>Sheet.639</title>
			<path d="M32.28 354.68 C29.12 354.96 25.9 355.09 22.55 354.9 C15.36 354.49 7.54 352.59 3.48 347.27 C1.54 344.74 0.46
						 341.44 0.12 338.08 C-0.17 335.3 0.05 332.49 1.01 330.01 C1.79 328.02 3.04 326.25 4.48 324.56 L32.28 354.68
						 Z" class="st1"/>
			<path d="M32.28 354.68 C29.12 354.96 25.9 355.09 22.55 354.9 C15.36 354.49 7.54 352.59 3.48 347.27 C1.54 344.74 0.46
						 341.44 0.12 338.08 C-0.17 335.3 0.05 332.49 1.01 330.01 C1.79 328.02 3.04 326.25 4.48 324.56" class="st2"/>
		</g>
		<g id="shape640-37" transform="translate(456.749,-48.8587)">
			<title>Sheet.640</title>
			<path d="M24.56 354.98 C21.39 354.38 18.25 353.65 15.18 352.62 C11.35 351.33 7.63 349.58 4.64 346.79 C2.56 344.84 0.83
						 342.38 0.24 339.63 C-0.45 336.46 0.35 332.9 2.08 330.16 C5.04 325.46 10.71 323.14 16.12 321.47 C18.11 320.86
						 20.08 320.33 22.03 319.83 L24.56 354.98 Z" class="st1"/>
			<path d="M24.56 354.98 C21.39 354.38 18.25 353.65 15.18 352.62 C11.35 351.33 7.63 349.58 4.64 346.79 C2.56 344.84 0.83
						 342.38 0.24 339.63 C-0.45 336.46 0.35 332.9 2.08 330.16 C5.04 325.46 10.71 323.14 16.12 321.47 C18.11 320.86
						 20.08 320.33 22.03 319.83" class="st2"/>
		</g>
		<g id="shape641-40" transform="translate(0,-9.67143)">
			<title>Sheet.641</title>
			<path d="M0 248.67 L225.81 248.67 L225.81 354.98 L0 354.98 L0 248.67 Z" class="st3"/>
		</g>
		<g id="shape642-42" transform="translate(473.795,-54.5633)">
			<title>Sheet.642</title>
			<desc>Internet</desc>
			<rect x="0" y="332.306" width="197.596" height="22.6772" class="st4"/>
			<text x="61.19" y="350.45" class="st5">Internet</text>		</g>
		<g id="shape643-45" transform="translate(565.986,-199.925)">
			<title>Sheet.643</title>
			<path d="M0 354.98 L4.25 354.98" class="st2"/>
		</g>
		<g id="shape644-48" transform="translate(578.742,-199.925)">
			<title>Sheet.644</title>
			<path d="M0 354.98 L4.25 354.98" class="st2"/>
		</g>
		<g id="shape645-51" transform="translate(248.479,-3.69551) rotate(-63.4349)">
			<title>Sheet.645</title>
			<path d="M0 354.98 L19.02 354.98" class="st2"/>
		</g>
		<g id="shape646-54" transform="translate(891.996,-20.7034) rotate(63.4349)">
			<title>Sheet.646</title>
			<path d="M0 354.98 L19.02 354.98" class="st2"/>
		</g>
		<g id="shape647-57" transform="translate(565.986,-139.888)">
			<title>Sheet.647</title>
			<path d="M0 354.98 L4.25 354.98" class="st2"/>
		</g>
		<g id="shape648-60" transform="translate(578.742,-139.888)">
			<title>Sheet.648</title>
			<path d="M0 354.98 L4.25 354.98" class="st2"/>
		</g>
		<g id="shape649-63" transform="translate(883.492,56.3416) rotate(63.4349)">
			<title>Sheet.649</title>
			<path d="M0 354.98 L19.02 354.98" class="st2"/>
		</g>
		<g id="shape650-66" transform="translate(256.983,73.3495) rotate(-63.4349)">
			<title>Sheet.650</title>
			<path d="M0 354.98 L19.02 354.98" class="st2"/>
		</g>
		<g id="shape651-69" transform="translate(215.254,215.095) rotate(-90)">
			<title>Sheet.651</title>
			<path d="M0 354.98 L60.04 354.98" class="st2"/>
		</g>
		<g id="shape652-72" transform="translate(933.725,155.058) rotate(90)">
			<title>Sheet.652</title>
			<path d="M0 354.98 L60.04 354.98" class="st2"/>
		</g>
		<g id="shape653-75" transform="translate(280.957,-9.67143)">
			<title>Sheet.653</title>
			<path d="M0 248.67 L69.26 248.67 L69.26 354.98 L0 354.98 L0 248.67 Z" class="st3"/>
		</g>
		<g id="shape654-77" transform="translate(216.367,-59.7282)">
			<title>Sheet.654</title>
			<desc>BLE enabled router</desc>
			<rect x="0" y="343.645" width="197.596" height="11.3386" class="st4"/>
			<text x="90.56" y="339.11" class="st6">BLE <tspan x="80.2" dy="1.2em" class="st7">enabled </tspan><tspan x="84.16"
						dy="1.2em" class="st7">router</tspan></text>		</g>
		<g id="shape655-82" transform="translate(597.806,283.653) rotate(90)">
			<title>Sheet.655</title>
			<path d="M0 354.98 L4.25 354.98" class="st8"/>
		</g>
		<g id="shape656-85" transform="translate(597.806,296.409) rotate(90)">
			<title>Sheet.656</title>
			<path d="M0 354.98 L4.25 354.98" class="st8"/>
		</g>
		<g id="shape657-88" transform="translate(401.576,601.16) rotate(153.435)">
			<title>Sheet.657</title>
			<path d="M0 354.98 L19.02 354.98" class="st8"/>
		</g>
		<g id="shape658-91" transform="translate(384.568,-25.3496) rotate(26.5651)">
			<title>Sheet.658</title>
			<path d="M0 354.98 L19.02 354.98" class="st8"/>
		</g>
		<g id="shape659-94" transform="translate(242.823,-67.0782)">
			<title>Sheet.659</title>
			<path d="M0 354.98 L21.13 354.98" class="st8"/>
		</g>
		<g id="shape660-97" transform="translate(263.949,651.392) rotate(180)">
			<title>Sheet.660</title>
			<path d="M0 354.98 L21.13 354.98" class="st8"/>
		</g>
		<g id="shape661-100" transform="translate(618.933,283.653) rotate(90)">
			<title>Sheet.661</title>
			<path d="M0 354.98 L4.25 354.98" class="st8"/>
		</g>
		<g id="shape662-103" transform="translate(618.933,296.409) rotate(90)">
			<title>Sheet.662</title>
			<path d="M0 354.98 L4.25 354.98" class="st8"/>
		</g>
		<g id="shape663-106" transform="translate(422.703,-33.8536) rotate(26.5651)">
			<title>Sheet.663</title>
			<path d="M0 354.98 L19.02 354.98" class="st8"/>
		</g>
		<g id="shape664-109" transform="translate(439.711,609.664) rotate(153.435)">
			<title>Sheet.664</title>
			<path d="M0 354.98 L19.02 354.98" class="st8"/>
		</g>
		<g id="shape665-112" transform="translate(794.381,283.653) rotate(90)">
			<title>Sheet.665</title>
			<path d="M0 354.98 L4.25 354.98" class="st8"/>
		</g>
		<g id="shape666-115" transform="translate(794.381,296.409) rotate(90)">
			<title>Sheet.666</title>
			<path d="M0 354.98 L4.25 354.98" class="st8"/>
		</g>
		<g id="shape667-118" transform="translate(598.151,-33.8536) rotate(26.5651)">
			<title>Sheet.667</title>
			<path d="M0 354.98 L19.02 354.98" class="st8"/>
		</g>
		<g id="shape668-121" transform="translate(615.159,609.664) rotate(153.435)">
			<title>Sheet.668</title>
			<path d="M0 354.98 L19.02 354.98" class="st8"/>
		</g>
		<g id="shape669-124" transform="translate(722.209,283.653) rotate(90)">
			<title>Sheet.669</title>
			<path d="M0 354.98 L4.25 354.98" class="st8"/>
		</g>
		<g id="shape670-127" transform="translate(722.209,296.409) rotate(90)">
			<title>Sheet.670</title>
			<path d="M0 354.98 L4.25 354.98" class="st8"/>
		</g>
		<g id="shape671-130" transform="translate(525.979,601.16) rotate(153.435)">
			<title>Sheet.671</title>
			<path d="M0 354.98 L19.02 354.98" class="st8"/>
		</g>
		<g id="shape672-133" transform="translate(508.972,-25.3496) rotate(26.5651)">
			<title>Sheet.672</title>
			<path d="M0 354.98 L19.02 354.98" class="st8"/>
		</g>
		<g id="shape673-136" transform="translate(367.226,-67.0782)">
			<title>Sheet.673</title>
			<path d="M0 354.98 L72.17 354.98" class="st8"/>
		</g>
		<g id="shape674-139" transform="translate(439.398,651.392) rotate(180)">
			<title>Sheet.674</title>
			<path d="M0 354.98 L72.17 354.98" class="st8"/>
		</g>
		<g id="shape675-142" transform="translate(798.761,-9.67143)">
			<title>Sheet.675</title>
			<path d="M0 279.09 L0 354.98 L69.26 354.98 L69.26 279.09 L69.26 279.09 L0 279.09 Z" class="st1"/>
			<path d="M0 279.09 L0 354.98 L69.26 354.98 L69.26 279.09 L69.26 279.09" class="st9"/>
		</g>
		<g id="shape676-145" transform="translate(798.761,-88.4018)">
			<title>Sheet.676</title>
			<path d="M69.26 354.98 L69.26 327.4 L0 327.4 L0 354.98 L0 354.98 L69.26 354.98 Z" class="st1"/>
			<path d="M69.26 354.98 L69.26 327.4 L0 327.4 L0 354.98 L0 354.98" class="st9"/>
		</g>
		<g id="shape677-148" transform="translate(1261.14,283.653) rotate(90)">
			<title>Sheet.677</title>
			<path d="M0 354.98 L4.25 354.98" class="st2"/>
		</g>
		<g id="shape678-151" transform="translate(1261.14,296.409) rotate(90)">
			<title>Sheet.678</title>
			<path d="M0 354.98 L4.25 354.98" class="st2"/>
		</g>
		<g id="shape679-154" transform="translate(1064.91,-33.8536) rotate(26.5651)">
			<title>Sheet.679</title>
			<path d="M0 354.98 L19.02 354.98" class="st2"/>
		</g>
		<g id="shape680-157" transform="translate(1081.92,609.664) rotate(153.435)">
			<title>Sheet.680</title>
			<path d="M0 354.98 L19.02 354.98" class="st2"/>
		</g>
		<g id="shape681-160" transform="translate(906.156,642.888) rotate(180)">
			<title>Sheet.681</title>
			<path d="M0 354.98 L21.13 354.98" class="st2"/>
		</g>
		<g id="shape682-163" transform="translate(885.03,-58.5742)">
			<title>Sheet.682</title>
			<path d="M0 354.98 L21.13 354.98" class="st2"/>
		</g>
		<g id="shape683-166" transform="translate(1240.01,283.653) rotate(90)">
			<title>Sheet.683</title>
			<path d="M0 354.98 L4.25 354.98" class="st2"/>
		</g>
		<g id="shape684-169" transform="translate(1240.01,296.409) rotate(90)">
			<title>Sheet.684</title>
			<path d="M0 354.98 L4.25 354.98" class="st2"/>
		</g>
		<g id="shape685-172" transform="translate(1043.78,601.16) rotate(153.435)">
			<title>Sheet.685</title>
			<path d="M0 354.98 L19.02 354.98" class="st2"/>
		</g>
		<g id="shape686-175" transform="translate(1026.78,-25.3496) rotate(26.5651)">
			<title>Sheet.686</title>
			<path d="M0 354.98 L19.02 354.98" class="st2"/>
		</g>
		<g id="shape687-178" transform="translate(1064.56,283.653) rotate(90)">
			<title>Sheet.687</title>
			<path d="M0 354.98 L4.25 354.98" class="st2"/>
		</g>
		<g id="shape688-181" transform="translate(1064.56,296.409) rotate(90)">
			<title>Sheet.688</title>
			<path d="M0 354.98 L4.25 354.98" class="st2"/>
		</g>
		<g id="shape689-184" transform="translate(868.335,601.16) rotate(153.435)">
			<title>Sheet.689</title>
			<path d="M0 354.98 L19.02 354.98" class="st2"/>
		</g>
		<g id="shape690-187" transform="translate(851.327,-25.3496) rotate(26.5651)">
			<title>Sheet.690</title>
			<path d="M0 354.98 L19.02 354.98" class="st2"/>
		</g>
		<g id="shape691-190" transform="translate(1136.74,283.653) rotate(90)">
			<title>Sheet.691</title>
			<path d="M0 354.98 L4.25 354.98" class="st2"/>
		</g>
		<g id="shape692-193" transform="translate(1136.74,296.409) rotate(90)">
			<title>Sheet.692</title>
			<path d="M0 354.98 L4.25 354.98" class="st2"/>
		</g>
		<g id="shape693-196" transform="translate(940.507,-33.8536) rotate(26.5651)">
			<title>Sheet.693</title>
			<path d="M0 354.98 L19.02 354.98" class="st2"/>
		</g>
		<g id="shape694-199" transform="translate(957.514,609.664) rotate(153.435)">
			<title>Sheet.694</title>
			<path d="M0 354.98 L19.02 354.98" class="st2"/>
		</g>
		<g id="shape695-202" transform="translate(781.753,642.888) rotate(180)">
			<title>Sheet.695</title>
			<path d="M0 354.98 L72.17 354.98" class="st2"/>
		</g>
		<g id="shape696-205" transform="translate(709.582,-58.5742)">
			<title>Sheet.696</title>
			<path d="M0 354.98 L72.17 354.98" class="st2"/>
		</g>
		<g id="shape697-208" transform="translate(734.171,-59.7282)">
			<title>Sheet.697</title>
			<desc>BLE enabled router</desc>
			<rect x="0" y="343.645" width="197.596" height="11.3386" class="st4"/>
			<text x="90.56" y="339.11" class="st10">BLE <tspan x="80.2" dy="1.2em" class="st7">enabled </tspan><tspan x="84.16"
						dy="1.2em" class="st7">router</tspan></text>		</g>
		<g id="shape698-213" transform="translate(335.833,-69.2761)">
			<title>Sheet.698</title>
			<desc>UDP/IPv6</desc>
			<rect x="0" y="343.645" width="135.084" height="11.3386" class="st4"/>
			<text x="45.51" y="354.42" class="st6">UDP/IPv6</text>		</g>
		<g id="shape699-216" transform="translate(939.018,117.534) rotate(90)">
			<title>Sheet.699</title>
			<desc>UDP/IPv6</desc>
			<rect x="0" y="343.645" width="135.084" height="11.3386" class="st4"/>
			<text x="45.51" y="354.42" class="st10">UDP/IPv6</text>		</g>
		<g id="shape700-219" transform="translate(678.189,-69.2761)">
			<title>Sheet.700</title>
			<desc>UDP/IPv6</desc>
			<rect x="0" y="343.645" width="135.084" height="11.3386" class="st4"/>
			<text x="45.51" y="354.42" class="st10">UDP/IPv6</text>		</g>
		<g id="shape776-222" transform="translate(965.735,148.386) rotate(90)">
			<title>Sheet.776</title>
			<path d="M0 354.98 L77.09 354.98" class="st2"/>
		</g>
		<g id="shape777-225" transform="translate(962.9,148.386) rotate(90)">
			<title>Sheet.777</title>
			<path d="M0 354.98 L77.09 354.98" class="st2"/>
		</g>
		<g id="shape778-228" transform="translate(607.917,-85.5671)">
			<title>Sheet.778</title>
			<path d="M0 311.05 A43.937 43.937 -180 0 0 43.94 354.98 L0 311.05 Z" class="st1"/>
			<path d="M0 311.05 A43.937 43.937 -180 0 0 43.94 354.98" class="st2"/>
		</g>
		<g id="shape779-231" transform="translate(610.752,-88.4018)">
			<title>Sheet.779</title>
			<path d="M0 313.88 A41.1024 41.1024 -180 0 0 41.1 354.98 L0 313.88 Z" class="st1"/>
			<path d="M0 313.88 A41.1024 41.1024 -180 0 0 41.1 354.98" class="st2"/>
		</g>
		<g id="shape780-234" transform="translate(935.418,624.399) rotate(180)">
			<title>Sheet.780</title>
			<path d="M0 354.98 L283.56 354.98" class="st2"/>
		</g>
		<g id="shape781-237" transform="translate(935.418,621.565) rotate(180)">
			<title>Sheet.781</title>
			<path d="M0 354.98 L283.56 354.98" class="st2"/>
		</g>
		<g id="shape782-240" transform="translate(1094.17,-53.1781) rotate(26.5651)">
			<title>Sheet.782</title>
			<path d="M0 354.98 L8.21 354.98" class="st2"/>
		</g>
		<g id="shape783-243" transform="translate(1101.51,585.505) rotate(153.435)">
			<title>Sheet.783</title>
			<path d="M0 354.98 L8.21 354.98" class="st2"/>
		</g>
		<g id="shape784-246" transform="translate(1290.4,264.329) rotate(90)">
			<title>Sheet.784</title>
			<path d="M0 354.98 L2.25 354.98" class="st2"/>
		</g>
		<g id="shape785-249" transform="translate(1290.4,269.416) rotate(90)">
			<title>Sheet.785</title>
			<path d="M0 354.98 L2.25 354.98" class="st2"/>
		</g>
		<g id="shape786-252" transform="translate(288.158,-10.3676) rotate(-63.4349)">
			<title>Sheet.786</title>
			<path d="M0 354.98 L8.21 354.98" class="st2"/>
		</g>
		<g id="shape787-255" transform="translate(926.841,-17.7082) rotate(63.4349)">
			<title>Sheet.787</title>
			<path d="M0 354.98 L8.21 354.98" class="st2"/>
		</g>
		<g id="shape788-258" transform="translate(605.664,-206.598)">
			<title>Sheet.788</title>
			<path d="M0 354.98 L2.25 354.98" class="st2"/>
		</g>
		<g id="shape789-261" transform="translate(610.752,-206.598)">
			<title>Sheet.789</title>
			<path d="M0 354.98 L2.25 354.98" class="st2"/>
		</g>
		<g id="shape800-264" transform="translate(499.906,-354.983)">
			<title>Sheet.800</title>
			<path d="M0 354.98 L151.71 354.98" class="st2"/>
		</g>
		<g id="shape801-267" transform="translate(497.185,-352.245)">
			<title>Sheet.801</title>
			<path d="M2.72 352.24 A2.72126 2.72126 -180 0 0 0 354.98 L2.72 352.24 Z" class="st1"/>
			<path d="M2.72 352.24 A2.72126 2.72126 -180 0 0 0 354.98" class="st2"/>
		</g>
		<g id="shape802-270" transform="translate(502.205,-348.128)">
			<title>Sheet.802</title>
			<path d="M0 354.98 L147.22 354.98" class="st2"/>
		</g>
		<g id="shape803-273" transform="translate(501.525,-347.444)">
			<title>Sheet.803</title>
			<path d="M0.68 354.3 a0.680315 0.680315 -180 0 0 -0.680308 0.6834 L0.68 354.3 Z" class="st1"/>
			<path d="M0.68 354.3 a0.680315 0.680315 -180 0 0 -0.680308 0.6834" class="st2"/>
		</g>
		<g id="shape804-276" transform="translate(501.899,-265.041)">
			<title>Sheet.804</title>
			<path d="M0 354.98 L148.25 354.98" class="st2"/>
		</g>
		<g id="shape805-279" transform="translate(502.578,-264.492)">
			<title>Sheet.805</title>
			<path d="M0 354.98 L146.89 354.98" class="st2"/>
		</g>
		<g id="shape806-282" transform="translate(499.814,-257.5)">
			<title>Sheet.806</title>
			<path d="M0 354.98 L152.25 354.98" class="st2"/>
		</g>
		<g id="shape807-285" transform="translate(497.773,-257.808)">
			<title>Sheet.807</title>
			<path d="M0 353.26 A2.04094 2.04094 -180 0 0 0.96 354.98 L0 353.26 Z" class="st1"/>
			<path d="M0 353.26 A2.04094 2.04094 -180 0 0 0.96 354.98" class="st2"/>
		</g>
		<g id="shape808-288" transform="translate(498.735,-257.5)">
			<title>Sheet.808</title>
			<path d="M0 354.67 A2.04094 2.04094 -180 0 0 1.08 354.98 L0 354.67 Z" class="st1"/>
			<path d="M0 354.67 A2.04094 2.04094 -180 0 0 1.08 354.98" class="st2"/>
		</g>
		<g id="shape809-291" transform="translate(483.284,-238.476)">
			<title>Sheet.809</title>
			<path d="M0 354.98 L0.84 354.98" class="st2"/>
		</g>
		<g id="shape810-294" transform="translate(484.12,-238.476)">
			<title>Sheet.810</title>
			<path d="M0 354.98 L183.1 354.98" class="st2"/>
		</g>
		<g id="shape811-297" transform="translate(667.218,-238.476)">
			<title>Sheet.811</title>
			<path d="M0 354.98 L0.83 354.98" class="st2"/>
		</g>
		<g id="shape812-300" transform="translate(473.999,-225.877)">
			<title>Sheet.812</title>
			<path d="M0 354.98 L202.61 354.98" class="st2"/>
		</g>
		<g id="shape813-303" transform="translate(473.319,-226.557)">
			<title>Sheet.813</title>
			<path d="M0.16 354.54 a0.680315 0.680315 -180 0 0 -0.162995 0.441824 L0.16 354.54 Z" class="st1"/>
			<path d="M0.16 354.54 a0.680315 0.680315 -180 0 0 -0.162995 0.441824" class="st2"/>
		</g>
		<g id="shape814-306" transform="translate(473.319,-225.877)">
			<title>Sheet.814</title>
			<path d="M0 354.3 a0.680315 0.680315 -180 0 0 0.680315 0.680315 L0 354.3 Z" class="st1"/>
			<path d="M0 354.3 a0.680315 0.680315 -180 0 0 0.680315 0.680315" class="st2"/>
		</g>
		<g id="shape815-309" transform="translate(485.787,-219.621)">
			<title>Sheet.815</title>
			<path d="M0 354.98 L175.97 354.98" class="st2"/>
		</g>
		<g id="shape816-312" transform="translate(852.161,0.486343) rotate(89.6365)">
			<title>Sheet.816</title>
			<path d="M0 354.98 L92.72 354.98" class="st2"/>
		</g>
		<g id="shape817-315" transform="translate(856.505,5.92919) rotate(89.7402)">
			<title>Sheet.817</title>
			<path d="M0 354.98 L82.28 354.98" class="st2"/>
		</g>
		<g id="shape818-318" transform="translate(501.898,-264.492)">
			<title>Sheet.818</title>
			<path d="M-0 354.31 a0.680315 0.680315 -180 0 0 0.680308 0.67723 L0 354.31 Z" class="st1"/>
			<path d="M-0 354.31 a0.680315 0.680315 -180 0 0 0.680308 0.67723" class="st2"/>
		</g>
		<g id="shape819-321" transform="translate(1005.09,7.36507) rotate(89.9725)">
			<title>Sheet.819</title>
			<path d="M0 354.98 L82.28 354.98" class="st2"/>
		</g>
		<g id="shape820-324" transform="translate(649.467,-264.492)">
			<title>Sheet.820</title>
			<path d="M-0 354.98 a0.680315 0.680315 -180 0 0 0.680315 -0.680641 L0 354.98 Z" class="st1"/>
			<path d="M-0 354.98 a0.680315 0.680315 -180 0 0 0.680315 -0.680641" class="st2"/>
		</g>
		<g id="shape821-327" transform="translate(649.427,-347.448)">
			<title>Sheet.821</title>
			<path d="M0.68 354.98 a0.680315 0.680315 -180 0 0 -0.680315 -0.679989 L0.68 354.98 Z" class="st1"/>
			<path d="M0.68 354.98 a0.680315 0.680315 -180 0 0 -0.680315 -0.679989" class="st2"/>
		</g>
		<g id="shape822-330" transform="translate(299.126,94.5648) rotate(-89.8575)">
			<title>Sheet.822</title>
			<path d="M0 354.98 L92.72 354.98" class="st2"/>
		</g>
		<g id="shape823-333" transform="translate(652.067,-257.5)">
			<title>Sheet.823</title>
			<path d="M-0 354.98 A2.04094 2.04094 -180 0 0 1.51 354.31 L0 354.98 Z" class="st1"/>
			<path d="M-0 354.98 A2.04094 2.04094 -180 0 0 1.51 354.31" class="st2"/>
		</g>
		<g id="shape824-336" transform="translate(653.581,-258.172)">
			<title>Sheet.824</title>
			<path d="M0 354.98 A2.04094 2.04094 -180 0 0 0.53 353.62 L0 354.98 Z" class="st1"/>
			<path d="M0 354.98 A2.04094 2.04094 -180 0 0 0.53 353.62" class="st2"/>
		</g>
		<g id="shape825-339" transform="translate(651.617,-352.255)">
			<title>Sheet.825</title>
			<path d="M2.72 354.98 A2.72126 2.72126 -180 0 0 -0 352.26 L2.72 354.98 Z" class="st1"/>
			<path d="M2.72 354.98 A2.72126 2.72126 -180 0 0 -0 352.26" class="st2"/>
		</g>
		<g id="shape826-342" transform="translate(767.167,330.715) rotate(130.499)">
			<title>Sheet.826</title>
			<path d="M0 354.98 L3.2 354.98" class="st2"/>
		</g>
		<g id="shape827-345" transform="translate(753.218,347.048) rotate(130.499)">
			<title>Sheet.827</title>
			<path d="M0 354.98 L15.09 354.98" class="st2"/>
		</g>
		<g id="shape828-348" transform="translate(933.293,-120.364) rotate(51.6576)">
			<title>Sheet.828</title>
			<path d="M0 354.98 L3.51 354.98" class="st2"/>
		</g>
		<g id="shape829-351" transform="translate(946.466,-103.71) rotate(51.6576)">
			<title>Sheet.829</title>
			<path d="M0 354.98 L14.66 354.98" class="st2"/>
		</g>
		<g id="shape830-354" transform="translate(676.607,-225.877)">
			<title>Sheet.830</title>
			<path d="M0 354.98 a0.680315 0.680315 -180 0 0 0.680315 -0.680315 L0 354.98 Z" class="st1"/>
			<path d="M0 354.98 a0.680315 0.680315 -180 0 0 0.680315 -0.680315" class="st2"/>
		</g>
		<g id="shape831-357" transform="translate(677.14,-226.557)">
			<title>Sheet.831</title>
			<path d="M0.15 354.98 a0.680315 0.680315 -180 0 0 -0.146732 -0.42204 L0.15 354.98 Z" class="st1"/>
			<path d="M0.15 354.98 a0.680315 0.680315 -180 0 0 -0.146732 -0.42204" class="st2"/>
		</g>
		<g id="shape832-360" transform="translate(759.777,476.906) rotate(166.45)">
			<title>Sheet.832</title>
			<path d="M0 354.98 L15.11 354.98" class="st2"/>
		</g>
		<g id="shape833-363" transform="translate(661.76,-219.621)">
			<title>Sheet.833</title>
		</g>
		<g id="shape834-364" transform="translate(531.943,-237.732)">
			<title>Sheet.834</title>
			<path d="M0 354.98 L45.36 354.98" class="st2"/>
		</g>
		<g id="shape835-367" transform="translate(531.003,-237.109)">
			<title>Sheet.835</title>
			<path d="M0.94 354.36 A1.02047 1.02047 -180 0 0 0 354.98 L0.94 354.36 Z" class="st1"/>
			<path d="M0.94 354.36 A1.02047 1.02047 -180 0 0 0 354.98" class="st2"/>
		</g>
		<g id="shape836-370" transform="translate(528.111,-228.437)">
			<title>Sheet.836</title>
			<path d="M0 354.98 L49.15 354.98" class="st2"/>
		</g>
		<g id="shape837-373" transform="translate(578.287,479.864) rotate(180)">
			<title>Sheet.837</title>
			<path d="M0 354.98 L50.24 354.98" class="st2"/>
		</g>
		<g id="shape838-376" transform="translate(858.026,255.966) rotate(112.893)">
			<title>Sheet.838</title>
			<path d="M0 354.98 L8.64 354.98" class="st2"/>
		</g>
		<g id="shape839-379" transform="translate(527.641,-228.437)">
			<title>Sheet.839</title>
			<path d="M0 354.27 a0.510236 0.510236 -180 0 0 0.470047 0.708723 L0 354.27 Z" class="st1"/>
			<path d="M0 354.27 a0.510236 0.510236 -180 0 0 0.470047 0.708723" class="st2"/>
		</g>
		<g id="shape840-382" transform="translate(901.893,192.992) rotate(101.062)">
			<title>Sheet.840</title>
			<path d="M0 354.98 L1.7 354.98" class="st2"/>
		</g>
		<g id="shape841-385" transform="translate(901.517,192.992) rotate(101.062)">
			<title>Sheet.841</title>
			<path d="M0 354.98 L1.7 354.98" class="st2"/>
		</g>
		<g id="shape842-388" transform="translate(933.299,120.091) rotate(90.2929)">
			<title>Sheet.842</title>
			<path d="M0 354.98 L7.25 354.98" class="st2"/>
		</g>
		<g id="shape843-391" transform="translate(577.263,-228.437)">
			<title>Sheet.843</title>
			<path d="M0 354.98 A1.02047 1.02047 -180 0 0 1.02 353.97 L0 354.98 Z" class="st1"/>
			<path d="M0 354.98 A1.02047 1.02047 -180 0 0 1.02 353.97" class="st2"/>
		</g>
		<g id="shape844-394" transform="translate(577.3,-236.706)">
			<title>Sheet.844</title>
			<path d="M1.02 354.98 A1.02047 1.02047 -180 0 0 -0 353.96 L1.02 354.98 Z" class="st1"/>
			<path d="M1.02 354.98 A1.02047 1.02047 -180 0 0 -0 353.96" class="st2"/>
		</g>
		<g id="shape845-397" transform="translate(497.804,-256.781)">
			<title>Sheet.845</title>
			<path d="M0 354.98 L156.58 354.98" class="st2"/>
		</g>
		<g id="shape846-400" transform="translate(654.382,-255.13)">
			<title>Sheet.846</title>
			<path d="M0 353.33 A3.46711 3.46711 -180 0 0 0.49 354.98 L0 353.33 Z" class="st1"/>
			<path d="M0 353.33 A3.46711 3.46711 -180 0 0 0.49 354.98" class="st2"/>
		</g>
		<g id="shape847-403" transform="translate(497.234,-254.809)">
			<title>Sheet.847</title>
			<path d="M0 354.98 A3.52318 3.52318 -180 0 0 0.57 353.01 L0 354.98 Z" class="st1"/>
			<path d="M0 354.98 A3.52318 3.52318 -180 0 0 0.57 353.01" class="st2"/>
		</g>
		<g id="shape848-406" transform="translate(234.887,-140.31) rotate(-47.7865)">
			<title>Sheet.848</title>
			<path d="M0 354.98 L1.39 354.98" class="st2"/>
		</g>
		<g id="shape849-409" transform="translate(346.778,275.382) rotate(-119.942)">
			<title>Sheet.849</title>
			<path d="M0 354.98 L1.6 354.98" class="st2"/>
		</g>
		<g id="shape850-412" transform="translate(382.178,474.92) rotate(-163.063)">
			<title>Sheet.850</title>
			<path d="M0 354.98 L12.12 354.98" class="st2"/>
		</g>
		<g id="shape851-415" transform="translate(485.59,-219.65)">
			<title>Sheet.851</title>
		</g>
		<g id="shape852-416" transform="translate(473.999,-223.18)">
			<title>Sheet.852</title>
			<path d="M0 354.98 L202.61 354.98" class="st2"/>
		</g>
		<g id="shape853-419" transform="translate(473.319,-223.18)">
			<title>Sheet.853</title>
			<path d="M0 354.3 a0.680315 0.680315 -180 0 0 0.680315 0.680315 L0 354.3 Z" class="st1"/>
			<path d="M0 354.3 a0.680315 0.680315 -180 0 0 0.680315 0.680315" class="st2"/>
		</g>
		<g id="shape854-422" transform="translate(676.607,-223.18)">
			<title>Sheet.854</title>
			<path d="M0 354.98 a0.680315 0.680315 -180 0 0 0.680315 -0.680315 L0 354.98 Z" class="st1"/>
			<path d="M0 354.98 a0.680315 0.680315 -180 0 0 0.680315 -0.680315" class="st2"/>
		</g>
		<g id="shape855-425" transform="translate(1032.27,128.426) rotate(90)">
			<title>Sheet.855</title>
			<path d="M0 354.98 L2.7 354.98" class="st2"/>
		</g>
		<g id="shape856-428" transform="translate(828.302,128.426) rotate(90)">
			<title>Sheet.856</title>
			<path d="M0 354.98 L2.7 354.98" class="st2"/>
		</g>
		<g id="shape857-431" transform="translate(765,334.152) rotate(130.319)">
			<title>Sheet.857</title>
			<path d="M0 354.98 L15.8 354.98" class="st2"/>
		</g>
		<g id="shape858-434" transform="translate(494.342,-250.521)">
			<title>Sheet.858</title>
			<path d="M0 354.98 A3.34859 3.34859 -180 0 0 0.81 353.13 L0 354.98 Z" class="st1"/>
			<path d="M0 354.98 A3.34859 3.34859 -180 0 0 0.81 353.13" class="st2"/>
		</g>
		<g id="shape859-437" transform="translate(936.217,-115.654) rotate(51.7331)">
			<title>Sheet.859</title>
			<path d="M0 354.98 L15.68 354.98" class="st2"/>
		</g>
		<g id="shape860-440" transform="translate(495.153,-252.377)">
			<title>Sheet.860</title>
			<path d="M0 354.98 L161.9 354.98" class="st2"/>
		</g>
		<g id="shape861-443" transform="translate(657.051,-250.787)">
			<title>Sheet.861</title>
			<path d="M0 353.39 A3.46711 3.46711 -180 0 0 0.46 354.98 L0 353.39 Z" class="st1"/>
			<path d="M0 353.39 A3.46711 3.46711 -180 0 0 0.46 354.98" class="st2"/>
		</g>
		<g id="shape862-446" transform="translate(505.162,-251.403)">
			<title>Sheet.862</title>
			<path d="M0 354.98 L110.07 354.98" class="st2"/>
		</g>
		<g id="shape863-449" transform="translate(618.74,-251.403)">
			<title>Sheet.863</title>
			<path d="M0 354.98 L27.86 354.98" class="st2"/>
		</g>
		<g id="shape864-452" transform="translate(618.268,-250.698)">
			<title>Sheet.864</title>
			<path d="M0.47 354.28 a0.510236 0.510236 -180 0 0 -0.471621 0.704953 L0.47 354.28 Z" class="st1"/>
			<path d="M0.47 354.28 a0.510236 0.510236 -180 0 0 -0.471621 0.704953" class="st2"/>
		</g>
		<g id="shape865-455" transform="translate(504.335,-250.979)">
			<title>Sheet.865</title>
			<path d="M0.83 354.56 A1.02047 1.02047 -180 0 0 0 354.98 L0.83 354.56 Z" class="st1"/>
			<path d="M0.83 354.56 A1.02047 1.02047 -180 0 0 0 354.98" class="st2"/>
		</g>
		<g id="shape866-458" transform="translate(941.469,-94.8676) rotate(55.9235)">
			<title>Sheet.866</title>
			<path d="M0 354.98 L12.64 354.98" class="st2"/>
		</g>
		<g id="shape867-461" transform="translate(646.595,-250.954)">
			<title>Sheet.867</title>
			<path d="M0.85 354.98 A1.02047 1.02047 -180 0 0 0 354.53 L0.85 354.98 Z" class="st1"/>
			<path d="M0.85 354.98 A1.02047 1.02047 -180 0 0 0 354.53" class="st2"/>
		</g>
		<g id="shape868-464" transform="translate(654.24,-239.955)">
			<title>Sheet.868</title>
			<path d="M0 354.98 a0.340157 0.340157 -180 0 0 0.281749 -0.530747 L0 354.98 Z" class="st1"/>
			<path d="M0 354.98 a0.340157 0.340157 -180 0 0 0.281749 -0.530747" class="st2"/>
		</g>
		<g id="shape869-467" transform="translate(792.246,311.658) rotate(125.801)">
			<title>Sheet.869</title>
			<path d="M0 354.98 L12.93 354.98" class="st2"/>
		</g>
		<g id="shape870-470" transform="translate(496.71,-239.955)">
			<title>Sheet.870</title>
			<path d="M0.06 354.44 a0.340157 0.340157 -180 0 0 0.275887 0.539139 L0.06 354.44 Z" class="st1"/>
			<path d="M0.06 354.44 a0.340157 0.340157 -180 0 0 0.275887 0.539139" class="st2"/>
		</g>
		<g id="shape871-473" transform="translate(497.048,-239.955)">
			<title>Sheet.871</title>
			<path d="M0 354.98 L122.83 354.98" class="st2"/>
		</g>
		<g id="shape872-476" transform="translate(623.386,-239.955)">
			<title>Sheet.872</title>
			<path d="M0 354.98 L30.85 354.98" class="st2"/>
		</g>
		<g id="shape873-479" transform="translate(654.24,-238.91)">
			<title>Sheet.873</title>
			<path d="M0 354.98 a0.340157 0.340157 -180 0 0 0.340157 -0.340157 L0 354.98 Z" class="st1"/>
			<path d="M0 354.98 a0.340157 0.340157 -180 0 0 0.340157 -0.340157" class="st2"/>
		</g>
		<g id="shape874-482" transform="translate(496.708,-238.91)">
			<title>Sheet.874</title>
			<path d="M0 354.64 a0.340157 0.340157 -180 0 0 0.340157 0.340157 L0 354.64 Z" class="st1"/>
			<path d="M0 354.64 a0.340157 0.340157 -180 0 0 0.340157 0.340157" class="st2"/>
		</g>
		<g id="shape875-485" transform="translate(497.048,-238.91)">
			<title>Sheet.875</title>
			<path d="M0 354.98 L122.83 354.98" class="st2"/>
		</g>
		<g id="shape876-488" transform="translate(623.386,-238.91)">
			<title>Sheet.876</title>
			<path d="M0 354.98 L30.85 354.98" class="st2"/>
		</g>
		<g id="shape877-491" transform="translate(1009.56,114.689) rotate(90)">
			<title>Sheet.877</title>
			<path d="M0 354.98 L1.04 354.98" class="st2"/>
		</g>
		<g id="shape878-494" transform="translate(851.691,114.689) rotate(90)">
			<title>Sheet.878</title>
			<path d="M0 354.98 L1.04 354.98" class="st2"/>
		</g>
		<g id="shape879-497" transform="translate(946.386,-31.1834) rotate(67.5659)">
			<title>Sheet.879</title>
			<path d="M0 354.98 L10.94 354.98" class="st2"/>
		</g>
		<g id="shape880-500" transform="translate(622.443,-239.955)">
			<title>Sheet.880</title>
			<path d="M0 354.35 A1.02047 1.02047 -180 0 0 0.94 354.98 L0 354.35 Z" class="st1"/>
			<path d="M0 354.35 A1.02047 1.02047 -180 0 0 0.94 354.98" class="st2"/>
		</g>
		<g id="shape881-503" transform="translate(946.386,-30.139) rotate(67.5659)">
			<title>Sheet.881</title>
			<path d="M0 354.98 L10.94 354.98" class="st2"/>
		</g>
		<g id="shape882-506" transform="translate(944.291,-31.2574) rotate(67.5659)">
			<title>Sheet.882</title>
			<path d="M0 354.98 L10.94 354.98" class="st2"/>
		</g>
		<g id="shape883-509" transform="translate(619.877,-239.955)">
			<title>Sheet.883</title>
			<path d="M0 354.98 a0.510236 0.510236 -180 0 0 0.471621 -0.704953 L0 354.98 Z" class="st1"/>
			<path d="M0 354.98 a0.510236 0.510236 -180 0 0 0.471621 -0.704953" class="st2"/>
		</g>
		<g id="shape884-512" transform="translate(615.23,-250.772)">
			<title>Sheet.884</title>
			<path d="M0.94 354.98 A1.02047 1.02047 -180 0 0 0 354.35 L0.94 354.98 Z" class="st1"/>
			<path d="M0.94 354.98 A1.02047 1.02047 -180 0 0 0 354.35" class="st2"/>
		</g>
		<g id="shape885-515" transform="translate(974.86,115.029) rotate(90)">
			<title>Sheet.885</title>
			<path d="M0 354.98 L1.04 354.98" class="st2"/>
		</g>
		<g id="shape886-518" transform="translate(619.877,-238.91)">
			<title>Sheet.886</title>
			<path d="M-0 354.98 a0.510236 0.510236 -180 0 0 0.510236 -0.510236 L0 354.98 Z" class="st1"/>
			<path d="M-0 354.98 a0.510236 0.510236 -180 0 0 0.510236 -0.510236" class="st2"/>
		</g>
		<g id="shape887-521" transform="translate(265.404,115.563) rotate(-90)">
			<title>Sheet.887</title>
			<path d="M0 354.98 L1.04 354.98" class="st2"/>
		</g>
		<g id="shape888-524" transform="translate(978.37,115.029) rotate(90)">
			<title>Sheet.888</title>
			<path d="M0 354.98 L1.04 354.98" class="st2"/>
		</g>
		<g id="shape889-527" transform="translate(622.443,-238.91)">
			<title>Sheet.889</title>
			<path d="M0 354.35 A1.02047 1.02047 -180 0 0 0.94 354.98 L0 354.35 Z" class="st1"/>
			<path d="M0 354.35 A1.02047 1.02047 -180 0 0 0.94 354.98" class="st2"/>
		</g>
		<g id="shape890-530" transform="translate(977.426,114.398) rotate(90)">
			<title>Sheet.890</title>
			<path d="M0 354.98 L1.04 354.98" class="st2"/>
		</g>
		<g id="shape891-533" transform="translate(973.213,104.091) rotate(90)">
			<title>Sheet.891</title>
			<path d="M0 354.98 L1.04 354.98" class="st2"/>
		</g>
		<g id="shape892-536" transform="translate(618.229,-249.848)">
			<title>Sheet.892</title>
		</g>
		<g id="shape893-537" transform="translate(1009.22,115.029) rotate(90)">
			<title>Sheet.893</title>
			<path d="M0 354.98 L1.04 354.98" class="st2"/>
		</g>
		<g id="shape894-540" transform="translate(1031.59,129.107) rotate(90)">
			<title>Sheet.894</title>
			<path d="M0 354.98 L2.7 354.98" class="st2"/>
		</g>
		<g id="shape895-543" transform="translate(828.982,129.107) rotate(90)">
			<title>Sheet.895</title>
			<path d="M0 354.98 L2.7 354.98" class="st2"/>
		</g>
		<g id="shape896-546" transform="translate(852.031,115.029) rotate(90)">
			<title>Sheet.896</title>
			<path d="M0 354.98 L1.04 354.98" class="st2"/>
		</g>
		<g id="shape897-549" transform="translate(477.217,-321.208)">
			<title>Sheet.897</title>
			<desc>CoAP Client</desc>
			<rect x="0" y="339.865" width="197.596" height="15.1181" class="st4"/>
			<text x="63.03" y="349.69" class="st11">CoAP Client</text>		</g>
		<g id="shape996-552" transform="translate(185.907,-72.247)">
			<title>Sheet.996</title>
			<desc>BLE 6lowpan</desc>
			<rect x="0" y="347.424" width="135.084" height="7.55906" class="st4"/>
			<text x="47.94" y="354.61" class="st12">BLE 6lowpan</text>		</g>
		<g id="shape997-555" transform="translate(828.114,-72.247)">
			<title>Sheet.997</title>
			<desc>BLE 6lowpan</desc>
			<rect x="0" y="347.424" width="135.084" height="7.55906" class="st4"/>
			<text x="47.94" y="354.61" class="st13">BLE 6lowpan</text>		</g>
		<g id="shape1000-558" transform="translate(946.09,-78.4785)">
			<title>Sheet.1000</title>
			<desc>CoAP observable Light server</desc>
			<rect x="0" y="339.865" width="197.596" height="15.1181" class="st4"/>
			<text x="0" y="349.69" class="st11">CoAP observable <tspan x="0" dy="1.2em" class="st7">Light server</tspan></text>		</g>
		<g id="shape1001-562" transform="translate(931.272,-17.6209)">
			<title>Sheet.1001</title>
			<path d="M0 284.2 L0 265.82 L209.33 265.82 L209.33 354.98 L0 354.98 L0 287.04 L0 287.04 L0 284.2 Z" class="st1"/>
			<path d="M0 284.2 L0 265.82 L209.33 265.82 L209.33 354.98 L0 354.98 L0 287.04 L0 287.04" class="st9"/>
		</g>
		<g id="shape1002-565" transform="translate(923.164,-9.67143)">
			<title>Sheet.1002</title>
			<path d="M0 276.25 L0 248.67 L225.81 248.67 L225.81 354.98 L0 354.98 L0 279.09 L0 279.09 L0 276.25 Z" class="st1"/>
			<path d="M0 276.25 L0 248.67 L225.81 248.67 L225.81 354.98 L0 354.98 L0 279.09 L0 279.09" class="st9"/>
		</g>
		<g id="shape1003-568" transform="translate(16.7002,-78.4785)">
			<title>Sheet.1003</title>
			<desc>CoAP observer client</desc>
			<rect x="0" y="339.865" width="197.596" height="15.1181" class="st4"/>
			<text x="0" y="349.69" class="st14">CoAP observer <tspan x="0" dy="1.2em" class="st7">client</tspan></text>		</g>
		<g id="shape1004-572" transform="translate(8.10764,-106.785)">
			<title>Sheet.1004</title>
			<path d="M0 354.98 L209.33 354.98" class="st8"/>
		</g>
		<g id="shape1005-575" transform="translate(572.42,248.198) rotate(90)">
			<title>Sheet.1005</title>
			<path d="M0 354.98 L89.16 354.98" class="st8"/>
		</g>
		<g id="shape1006-578" transform="translate(217.437,692.346) rotate(180)">
			<title>Sheet.1006</title>
			<path d="M0 354.98 L209.33 354.98" class="st8"/>
		</g>
		<g id="shape1007-581" transform="translate(-346.876,337.362) rotate(-90)">
			<title>Sheet.1007</title>
			<path d="M0 354.98 L89.16 354.98" class="st8"/>
		</g>
		<g id="shape1023-584" transform="translate(1109.65,-58.8762)">
			<title>Sheet.1023</title>
			<path d="M0 354.98 L22.68 354.98 L22.68 319.76 L0 319.76 L0 354.98 Z" class="st15"/>
		</g>
		<g id="shape1024-586" transform="translate(1113.95,-78.2471)">
			<title>Sheet.1024</title>
			<path d="M12.44 354.98 A7.04425 7.04425 -180 1 0 1.62 354.98 L12.44 354.98 Z" class="st1"/>
			<path d="M12.44 354.98 A7.04425 7.04425 -180 1 0 1.62 354.98" class="st2"/>
		</g>
		<g id="shape1025-589" transform="translate(1108.95,-96.0282)">
			<title>Sheet.1025</title>
			<desc>Light 1</desc>
			<rect x="0" y="349.314" width="24.2894" height="5.66929" class="st4"/>
			<text x="4.45" y="354.7" class="st16">Light 1</text>		</g>
		<g id="shape1026-592" transform="translate(1117.77,-69.2275)">
			<title>Sheet.1026</title>
			<path d="M0 354.98 L6.44 354.98" class="st2"/>
		</g>
		<g id="shape1027-595" transform="translate(1115.58,-69.2275)">
			<title>Sheet.1027</title>
			<path d="M2.19 354.98 A17.0418 17.0418 -180 0 0 0 345.96 L2.19 354.98 Z" class="st1"/>
			<path d="M2.19 354.98 A17.0418 17.0418 -180 0 0 0 345.96" class="st2"/>
		</g>
		<g id="shape1028-598" transform="translate(1124.21,-69.2275)">
			<title>Sheet.1028</title>
			<path d="M2.19 345.96 A17.0418 17.0418 -180 0 0 0 354.98 L2.19 345.96 Z" class="st1"/>
			<path d="M2.19 345.96 A17.0418 17.0418 -180 0 0 0 354.98" class="st2"/>
		</g>
		<g id="shape1029-601" transform="translate(1117.77,-63.4882)">
			<title>Sheet.1029</title>
			<path d="M0 354.98 L6.44 354.98" class="st2"/>
		</g>
		<g id="shape1030-604" transform="translate(1118.36,-62.9256)">
			<title>Sheet.1030</title>
			<path d="M0 354.98 L5.25 354.98" class="st2"/>
		</g>
		<g id="shape1031-607" transform="translate(874.181,549.72) rotate(-136.539)">
			<title>Sheet.1031</title>
			<path d="M0 354.98 L0.82 354.98" class="st2"/>
		</g>
		<g id="shape1032-610" transform="translate(879.434,34.3953) rotate(-43.4609)">
			<title>Sheet.1032</title>
			<path d="M0 354.98 L0.82 354.98" class="st2"/>
		</g>
		<g id="shape1033-613" transform="translate(1472.75,285.756) rotate(90)">
			<title>Sheet.1033</title>
			<path d="M0 354.98 L0.93 354.98" class="st2"/>
		</g>
		<g id="shape1034-616" transform="translate(762.782,291.495) rotate(-90)">
			<title>Sheet.1034</title>
			<path d="M0 354.98 L0.69 354.98" class="st2"/>
		</g>
		<g id="shape1035-619" transform="translate(868.229,543.277) rotate(-135.336)">
			<title>Sheet.1035</title>
			<path d="M0 354.98 L0.45 354.98" class="st2"/>
		</g>
		<g id="shape1036-622" transform="translate(867.906,37.803) rotate(-44.6645)">
			<title>Sheet.1036</title>
			<path d="M0 354.98 L0.45 354.98" class="st2"/>
		</g>
		<g id="shape1037-625" transform="translate(1117.54,-64.6029)">
			<title>Sheet.1037</title>
		</g>
		<g id="shape1038-626" transform="translate(874.669,37.7457) rotate(-44.6645)">
			<title>Sheet.1038</title>
			<path d="M0 354.98 L0.45 354.98" class="st2"/>
		</g>
		<g id="shape1039-629" transform="translate(874.992,542.178) rotate(-135.336)">
			<title>Sheet.1039</title>
			<path d="M0 354.98 L0.45 354.98" class="st2"/>
		</g>
		<g id="shape1040-632" transform="translate(1124.43,-65.1812)">
			<title>Sheet.1040</title>
		</g>
		<g id="shape1041-633" transform="translate(868.229,542.186) rotate(-135.336)">
			<title>Sheet.1041</title>
			<path d="M0 354.98 L0.45 354.98" class="st2"/>
		</g>
		<g id="shape1042-636" transform="translate(867.906,36.7121) rotate(-44.6645)">
			<title>Sheet.1042</title>
			<path d="M0 354.98 L0.45 354.98" class="st2"/>
		</g>
		<g id="shape1043-639" transform="translate(1117.54,-65.6938)">
			<title>Sheet.1043</title>
		</g>
		<g id="shape1044-640" transform="translate(874.669,36.6548) rotate(-44.6645)">
			<title>Sheet.1044</title>
			<path d="M0 354.98 L0.45 354.98" class="st2"/>
		</g>
		<g id="shape1045-643" transform="translate(874.992,541.087) rotate(-135.336)">
			<title>Sheet.1045</title>
			<path d="M0 354.98 L0.45 354.98" class="st2"/>
		</g>
		<g id="shape1046-646" transform="translate(1124.43,-66.2721)">
			<title>Sheet.1046</title>
		</g>
		<g id="shape1047-647" transform="translate(868.229,541.095) rotate(-135.336)">
			<title>Sheet.1047</title>
			<path d="M0 354.98 L0.45 354.98" class="st2"/>
		</g>
		<g id="shape1048-650" transform="translate(867.906,35.6212) rotate(-44.6645)">
			<title>Sheet.1048</title>
			<path d="M0 354.98 L0.45 354.98" class="st2"/>
		</g>
		<g id="shape1049-653" transform="translate(1117.54,-66.7847)">
			<title>Sheet.1049</title>
		</g>
		<g id="shape1050-654" transform="translate(874.669,35.5639) rotate(-44.6645)">
			<title>Sheet.1050</title>
			<path d="M0 354.98 L0.45 354.98" class="st2"/>
		</g>
		<g id="shape1051-657" transform="translate(874.992,539.996) rotate(-135.336)">
			<title>Sheet.1051</title>
			<path d="M0 354.98 L0.45 354.98" class="st2"/>
		</g>
		<g id="shape1052-660" transform="translate(1124.43,-67.363)">
			<title>Sheet.1052</title>
		</g>
		<g id="shape1053-661" transform="translate(868.229,540.005) rotate(-135.336)">
			<title>Sheet.1053</title>
			<path d="M0 354.98 L0.45 354.98" class="st2"/>
		</g>
		<g id="shape1054-664" transform="translate(867.906,34.5303) rotate(-44.6645)">
			<title>Sheet.1054</title>
			<path d="M0 354.98 L0.45 354.98" class="st2"/>
		</g>
		<g id="shape1055-667" transform="translate(1117.54,-67.8756)">
			<title>Sheet.1055</title>
		</g>
		<g id="shape1056-668" transform="translate(874.669,34.473) rotate(-44.6645)">
			<title>Sheet.1056</title>
			<path d="M0 354.98 L0.45 354.98" class="st2"/>
		</g>
		<g id="shape1057-671" transform="translate(874.992,538.905) rotate(-135.336)">
			<title>Sheet.1057</title>
			<path d="M0 354.98 L0.45 354.98" class="st2"/>
		</g>
		<g id="shape1058-674" transform="translate(1124.43,-68.4539)">
			<title>Sheet.1058</title>
		</g>
		<g id="shape1059-675" transform="translate(1086.02,-66.8733) rotate(-5.131)">
			<title>Sheet.1059</title>
			<path d="M0 354.98 L6.47 354.98" class="st2"/>
		</g>
		<g id="shape1060-678" transform="translate(1086.02,-66.0328) rotate(-5.131)">
			<title>Sheet.1060</title>
			<path d="M0 354.98 L6.47 354.98" class="st2"/>
		</g>
		<g id="shape1061-681" transform="translate(1086.02,-65.7824) rotate(-5.131)">
			<title>Sheet.1061</title>
			<path d="M0 354.98 L6.47 354.98" class="st2"/>
		</g>
		<g id="shape1062-684" transform="translate(1086.02,-64.9419) rotate(-5.131)">
			<title>Sheet.1062</title>
			<path d="M0 354.98 L6.47 354.98" class="st2"/>
		</g>
		<g id="shape1063-687" transform="translate(1086.02,-64.6915) rotate(-5.131)">
			<title>Sheet.1063</title>
			<path d="M0 354.98 L6.47 354.98" class="st2"/>
		</g>
		<g id="shape1064-690" transform="translate(1086.02,-63.8511) rotate(-5.131)">
			<title>Sheet.1064</title>
			<path d="M0 354.98 L6.47 354.98" class="st2"/>
		</g>
		<g id="shape1065-693" transform="translate(1086.02,-63.6007) rotate(-5.131)">
			<title>Sheet.1065</title>
			<path d="M0 354.98 L6.47 354.98" class="st2"/>
		</g>
		<g id="shape1066-696" transform="translate(1086.02,-62.7602) rotate(-5.131)">
			<title>Sheet.1066</title>
			<path d="M0 354.98 L6.47 354.98" class="st2"/>
		</g>
		<g id="shape1067-699" transform="translate(1472.75,287.528) rotate(90)">
			<title>Sheet.1067</title>
			<path d="M0 354.98 L0.25 354.98" class="st2"/>
		</g>
		<g id="shape1068-702" transform="translate(1472.75,288.619) rotate(90)">
			<title>Sheet.1068</title>
			<path d="M0 354.98 L0.25 354.98" class="st2"/>
		</g>
		<g id="shape1069-705" transform="translate(1472.75,289.71) rotate(90)">
			<title>Sheet.1069</title>
			<path d="M0 354.98 L0.25 354.98" class="st2"/>
		</g>
		<g id="shape1070-708" transform="translate(769.223,289.382) rotate(-90)">
			<title>Sheet.1070</title>
			<path d="M0 354.98 L0.25 354.98" class="st2"/>
		</g>
		<g id="shape1071-711" transform="translate(769.223,288.291) rotate(-90)">
			<title>Sheet.1071</title>
			<path d="M0 354.98 L0.25 354.98" class="st2"/>
		</g>
		<g id="shape1072-714" transform="translate(769.223,287.2) rotate(-90)">
			<title>Sheet.1072</title>
			<path d="M0 354.98 L0.25 354.98" class="st2"/>
		</g>
		<g id="shape1073-717" transform="translate(1479.19,285.756) rotate(90)">
			<title>Sheet.1073</title>
			<path d="M0 354.98 L0.35 354.98" class="st2"/>
		</g>
		<g id="shape1074-720" transform="translate(1479.19,290.222) rotate(90)">
			<title>Sheet.1074</title>
			<path d="M0 354.98 L1.27 354.98" class="st2"/>
		</g>
		<g id="shape1075-723" transform="translate(1120.35,-62.673)">
			<title>Sheet.1075</title>
			<path d="M0 354.98 L1.27 354.98" class="st2"/>
		</g>
		<g id="shape1076-726" transform="translate(876.641,550.415) rotate(-136.643)">
			<title>Sheet.1076</title>
			<path d="M0 354.98 L0.37 354.98" class="st2"/>
		</g>
		<g id="shape1077-729" transform="translate(877.908,34.2055) rotate(-43.357)">
			<title>Sheet.1077</title>
			<path d="M0 354.98 L0.37 354.98" class="st2"/>
		</g>
		<g id="shape1078-732" transform="translate(1109.65,-24.8602)">
			<title>Sheet.1078</title>
			<path d="M0 354.98 L22.68 354.98 L22.68 332.31 L0 332.31 L0 354.98 Z" class="st15"/>
		</g>
		<g id="shape1079-734" transform="translate(1113.94,-29.1546)">
			<title>Sheet.1079</title>
			<ellipse cx="7.04425" cy="347.939" rx="7.04425" ry="7.04425" class="st17"/>
		</g>
		<g id="shape1080-736" transform="translate(1108.95,-49.469)">
			<title>Sheet.1080</title>
			<desc>Button 1</desc>
			<rect x="0" y="349.314" width="24.2894" height="5.66929" class="st4"/>
			<text x="2.15" y="354.7" class="st16">Button 1</text>		</g>
		<g id="shape1197-739" transform="translate(153.637,-24.9589)">
			<title>Sheet.1197</title>
			<path d="M0 354.98 L22.68 354.98 L22.68 332.31 L0 332.31 L0 354.98 Z" class="st3"/>
		</g>
		<g id="shape1198-741" transform="translate(157.932,-29.2532)">
			<title>Sheet.1198</title>
			<ellipse cx="7.04425" cy="347.939" rx="7.04425" ry="7.04425" class="st18"/>
		</g>
		<g id="shape1199-743" transform="translate(152.939,-49.5677)">
			<title>Sheet.1199</title>
			<desc>Button 1</desc>
			<rect x="0" y="349.314" width="24.2894" height="5.66929" class="st4"/>
			<text x="2.15" y="354.7" class="st19">Button 1</text>		</g>
		<g id="shape1200-746" transform="translate(186.483,-58.8762)">
			<title>Sheet.1200</title>
			<path d="M0 354.98 L22.68 354.98 L22.68 319.76 L0 319.76 L0 354.98 Z" class="st3"/>
		</g>
		<g id="shape1201-748" transform="translate(190.79,-78.2471)">
			<title>Sheet.1201</title>
			<path d="M12.44 354.98 A7.04425 7.04425 -180 1 0 1.62 354.98 L12.44 354.98 Z" class="st1"/>
			<path d="M12.44 354.98 A7.04425 7.04425 -180 1 0 1.62 354.98" class="st8"/>
		</g>
		<g id="shape1202-751" transform="translate(185.785,-96.0282)">
			<title>Sheet.1202</title>
			<desc>Light 1</desc>
			<rect x="0" y="349.314" width="24.2894" height="5.66929" class="st4"/>
			<text x="4.45" y="354.7" class="st19">Light 1</text>		</g>
		<g id="shape1203-754" transform="translate(194.601,-69.2275)">
			<title>Sheet.1203</title>
			<path d="M0 354.98 L6.44 354.98" class="st8"/>
		</g>
		<g id="shape1204-757" transform="translate(192.411,-69.2275)">
			<title>Sheet.1204</title>
			<path d="M2.19 354.98 A17.0418 17.0418 -180 0 0 -0 345.96 L2.19 354.98 Z" class="st1"/>
			<path d="M2.19 354.98 A17.0418 17.0418 -180 0 0 -0 345.96" class="st8"/>
		</g>
		<g id="shape1205-760" transform="translate(201.042,-69.2275)">
			<title>Sheet.1205</title>
			<path d="M2.19 345.96 A17.0418 17.0418 -180 0 0 0 354.98 L2.19 345.96 Z" class="st1"/>
			<path d="M2.19 345.96 A17.0418 17.0418 -180 0 0 0 354.98" class="st8"/>
		</g>
		<g id="shape1206-763" transform="translate(194.601,-63.4882)">
			<title>Sheet.1206</title>
			<path d="M0 354.98 L6.44 354.98" class="st8"/>
		</g>
		<g id="shape1207-766" transform="translate(195.195,-62.9256)">
			<title>Sheet.1207</title>
			<path d="M0 354.98 L5.25 354.98" class="st8"/>
		</g>
		<g id="shape1208-769" transform="translate(-48.9836,549.72) rotate(-136.539)">
			<title>Sheet.1208</title>
			<path d="M0 354.98 L0.82 354.98" class="st8"/>
		</g>
		<g id="shape1209-772" transform="translate(-43.7306,34.3953) rotate(-43.4609)">
			<title>Sheet.1209</title>
			<path d="M0 354.98 L0.82 354.98" class="st8"/>
		</g>
		<g id="shape1210-775" transform="translate(549.585,285.756) rotate(90)">
			<title>Sheet.1210</title>
			<path d="M0 354.98 L0.93 354.98" class="st8"/>
		</g>
		<g id="shape1211-778" transform="translate(-160.382,291.495) rotate(-90)">
			<title>Sheet.1211</title>
			<path d="M0 354.98 L0.69 354.98" class="st8"/>
		</g>
		<g id="shape1212-781" transform="translate(-54.9356,543.277) rotate(-135.336)">
			<title>Sheet.1212</title>
			<path d="M0 354.98 L0.45 354.98" class="st8"/>
		</g>
		<g id="shape1213-784" transform="translate(-55.2588,37.803) rotate(-44.6645)">
			<title>Sheet.1213</title>
			<path d="M0 354.98 L0.45 354.98" class="st8"/>
		</g>
		<g id="shape1214-787" transform="translate(194.378,-64.6029)">
			<title>Sheet.1214</title>
		</g>
		<g id="shape1215-788" transform="translate(-48.4952,37.7457) rotate(-44.6645)">
			<title>Sheet.1215</title>
			<path d="M0 354.98 L0.45 354.98" class="st8"/>
		</g>
		<g id="shape1216-791" transform="translate(-48.172,542.178) rotate(-135.336)">
			<title>Sheet.1216</title>
			<path d="M0 354.98 L0.45 354.98" class="st8"/>
		</g>
		<g id="shape1217-794" transform="translate(201.265,-65.1812)">
			<title>Sheet.1217</title>
		</g>
		<g id="shape1218-795" transform="translate(-54.9356,542.186) rotate(-135.336)">
			<title>Sheet.1218</title>
			<path d="M0 354.98 L0.45 354.98" class="st8"/>
		</g>
		<g id="shape1219-798" transform="translate(-55.2588,36.7121) rotate(-44.6645)">
			<title>Sheet.1219</title>
			<path d="M0 354.98 L0.45 354.98" class="st8"/>
		</g>
		<g id="shape1220-801" transform="translate(194.378,-65.6938)">
			<title>Sheet.1220</title>
		</g>
		<g id="shape1221-802" transform="translate(-48.4952,36.6548) rotate(-44.6645)">
			<title>Sheet.1221</title>
			<path d="M0 354.98 L0.45 354.98" class="st8"/>
		</g>
		<g id="shape1222-805" transform="translate(-48.172,541.087) rotate(-135.336)">
			<title>Sheet.1222</title>
			<path d="M0 354.98 L0.45 354.98" class="st8"/>
		</g>
		<g id="shape1223-808" transform="translate(201.265,-66.2721)">
			<title>Sheet.1223</title>
		</g>
		<g id="shape1224-809" transform="translate(-54.9356,541.095) rotate(-135.336)">
			<title>Sheet.1224</title>
			<path d="M0 354.98 L0.45 354.98" class="st8"/>
		</g>
		<g id="shape1225-812" transform="translate(-55.2588,35.6212) rotate(-44.6645)">
			<title>Sheet.1225</title>
			<path d="M0 354.98 L0.45 354.98" class="st8"/>
		</g>
		<g id="shape1226-815" transform="translate(194.378,-66.7847)">
			<title>Sheet.1226</title>
		</g>
		<g id="shape1227-816" transform="translate(-48.4952,35.5639) rotate(-44.6645)">
			<title>Sheet.1227</title>
			<path d="M0 354.98 L0.45 354.98" class="st8"/>
		</g>
		<g id="shape1228-819" transform="translate(-48.172,539.996) rotate(-135.336)">
			<title>Sheet.1228</title>
			<path d="M0 354.98 L0.45 354.98" class="st8"/>
		</g>
		<g id="shape1229-822" transform="translate(201.265,-67.363)">
			<title>Sheet.1229</title>
		</g>
		<g id="shape1230-823" transform="translate(-54.9356,540.005) rotate(-135.336)">
			<title>Sheet.1230</title>
			<path d="M0 354.98 L0.45 354.98" class="st8"/>
		</g>
		<g id="shape1231-826" transform="translate(-55.2588,34.5303) rotate(-44.6645)">
			<title>Sheet.1231</title>
			<path d="M0 354.98 L0.45 354.98" class="st8"/>
		</g>
		<g id="shape1232-829" transform="translate(194.378,-67.8756)">
			<title>Sheet.1232</title>
		</g>
		<g id="shape1233-830" transform="translate(-48.4952,34.473) rotate(-44.6645)">
			<title>Sheet.1233</title>
			<path d="M0 354.98 L0.45 354.98" class="st8"/>
		</g>
		<g id="shape1234-833" transform="translate(-48.172,538.905) rotate(-135.336)">
			<title>Sheet.1234</title>
			<path d="M0 354.98 L0.45 354.98" class="st8"/>
		</g>
		<g id="shape1235-836" transform="translate(201.265,-68.4539)">
			<title>Sheet.1235</title>
		</g>
		<g id="shape1236-837" transform="translate(162.854,-66.8733) rotate(-5.131)">
			<title>Sheet.1236</title>
			<path d="M0 354.98 L6.47 354.98" class="st8"/>
		</g>
		<g id="shape1237-840" transform="translate(162.854,-66.0328) rotate(-5.131)">
			<title>Sheet.1237</title>
			<path d="M0 354.98 L6.47 354.98" class="st8"/>
		</g>
		<g id="shape1238-843" transform="translate(162.854,-65.7824) rotate(-5.131)">
			<title>Sheet.1238</title>
			<path d="M0 354.98 L6.47 354.98" class="st8"/>
		</g>
		<g id="shape1239-846" transform="translate(162.854,-64.9419) rotate(-5.131)">
			<title>Sheet.1239</title>
			<path d="M0 354.98 L6.47 354.98" class="st8"/>
		</g>
		<g id="shape1240-849" transform="translate(162.854,-64.6915) rotate(-5.131)">
			<title>Sheet.1240</title>
			<path d="M0 354.98 L6.47 354.98" class="st8"/>
		</g>
		<g id="shape1241-852" transform="translate(162.854,-63.8511) rotate(-5.131)">
			<title>Sheet.1241</title>
			<path d="M0 354.98 L6.47 354.98" class="st8"/>
		</g>
		<g id="shape1242-855" transform="translate(162.854,-63.6007) rotate(-5.131)">
			<title>Sheet.1242</title>
			<path d="M0 354.98 L6.47 354.98" class="st8"/>
		</g>
		<g id="shape1243-858" transform="translate(162.854,-62.7602) rotate(-5.131)">
			<title>Sheet.1243</title>
			<path d="M0 354.98 L6.47 354.98" class="st8"/>
		</g>
		<g id="shape1244-861" transform="translate(549.585,287.528) rotate(90)">
			<title>Sheet.1244</title>
			<path d="M0 354.98 L0.25 354.98" class="st8"/>
		</g>
		<g id="shape1245-864" transform="translate(549.585,288.619) rotate(90)">
			<title>Sheet.1245</title>
			<path d="M0 354.98 L0.25 354.98" class="st8"/>
		</g>
		<g id="shape1246-867" transform="translate(549.585,289.71) rotate(90)">
			<title>Sheet.1246</title>
			<path d="M0 354.98 L0.25 354.98" class="st8"/>
		</g>
		<g id="shape1247-870" transform="translate(-153.942,289.382) rotate(-90)">
			<title>Sheet.1247</title>
			<path d="M0 354.98 L0.25 354.98" class="st8"/>
		</g>
		<g id="shape1248-873" transform="translate(-153.942,288.291) rotate(-90)">
			<title>Sheet.1248</title>
			<path d="M0 354.98 L0.25 354.98" class="st8"/>
		</g>
		<g id="shape1249-876" transform="translate(-153.942,287.2) rotate(-90)">
			<title>Sheet.1249</title>
			<path d="M0 354.98 L0.25 354.98" class="st8"/>
		</g>
		<g id="shape1250-879" transform="translate(556.025,285.756) rotate(90)">
			<title>Sheet.1250</title>
			<path d="M0 354.98 L0.35 354.98" class="st8"/>
		</g>
		<g id="shape1251-882" transform="translate(556.025,290.222) rotate(90)">
			<title>Sheet.1251</title>
			<path d="M0 354.98 L1.27 354.98" class="st8"/>
		</g>
		<g id="shape1252-885" transform="translate(197.188,-62.673)">
			<title>Sheet.1252</title>
			<path d="M0 354.98 L1.27 354.98" class="st8"/>
		</g>
		<g id="shape1253-888" transform="translate(-46.5231,550.415) rotate(-136.643)">
			<title>Sheet.1253</title>
			<path d="M0 354.98 L0.37 354.98" class="st8"/>
		</g>
		<g id="shape1254-891" transform="translate(-45.2558,34.2055) rotate(-43.357)">
			<title>Sheet.1254</title>
			<path d="M0 354.98 L0.37 354.98" class="st8"/>
		</g>
		<g id="shape1255-894" transform="translate(186.483,-24.8602)">
			<title>Sheet.1255</title>
			<path d="M0 354.98 L22.68 354.98 L22.68 332.31 L0 332.31 L0 354.98 Z" class="st3"/>
		</g>
		<g id="shape1256-896" transform="translate(190.777,-29.1546)">
			<title>Sheet.1256</title>
			<ellipse cx="7.04425" cy="347.939" rx="7.04425" ry="7.04425" class="st18"/>
		</g>
		<g id="shape1257-898" transform="translate(185.785,-49.469)">
			<title>Sheet.1257</title>
			<desc>Button 2</desc>
			<rect x="0" y="349.314" width="24.2894" height="5.66929" class="st4"/>
			<text x="2.15" y="354.7" class="st19">Button 2</text>		</g>
	</g>
</svg>
