<?xml version="1.0" encoding="UTF-8" standalone="no"?>
<!DOCTYPE svg PUBLIC "-//W3C//DTD SVG 1.1//EN" "http://www.w3.org/Graphics/SVG/1.1/DTD/svg11.dtd">
<!-- Generated by Microsoft Visio, SVG Export CoAP_observer_Server 3.svg Page-1 -->
<svg xmlns="http://www.w3.org/2000/svg" xmlns:xlink="http://www.w3.org/1999/xlink" xmlns:ev="http://www.w3.org/2001/xml-events"
		width="7.979in" height="2.46516in" viewBox="0 0 1148.98 354.983" xml:space="preserve" color-interpolation-filters="sRGB"
		class="st16">
	<style type="text/css">
	<![CDATA[
		.st1 {fill:none}
		.st2 {stroke:#000000;stroke-linecap:round;stroke-linejoin:round;stroke-width:0.75}
		.st3 {stroke:#000000;stroke-linecap:butt;stroke-width:0.75}
		.st4 {fill:none;stroke:none;stroke-linecap:round;stroke-linejoin:round;stroke-width:0.75}
		.st5 {fill:#000000;font-family:Calibri;font-size:1.88976em}
		.st6 {stroke:#dfdfdf;stroke-linecap:round;stroke-linejoin:round;stroke-width:0.75}
		.st7 {fill:#000000;font-family:Calibri;font-size:0.944893em}
		.st8 {font-size:1em}
		.st9 {fill:#dfdfdf;font-family:Calibri;font-size:0.944893em}
		.st10 {fill:#dfdfdf;font-family:Calibri;font-size:1.25983em}
		.st11 {fill:#000000;font-family:Calibri;font-size:0.629929em}
		.st12 {fill:#000000;font-family:Calibri;font-size:1.25983em}
		.st13 {fill:none;stroke:#000000;stroke-linecap:butt;stroke-width:0.75}
		.st14 {fill:none;stroke:#000000;stroke-linecap:round;stroke-linejoin:round;stroke-width:0.75}
		.st15 {fill:#000000;font-family:Calibri;font-size:0.472435em}
		.st16 {fill:none;fill-rule:evenodd;font-size:12px;overflow:visible;stroke-linecap:square;stroke-miterlimit:3}
	]]>
	</style>

	<g>
		<title>Page-1</title>
		<g id="shape701-1" transform="translate(478.74,-80.3649)">
			<title>Sheet.701</title>
			<path d="M0.23 354.98 C0.03 351.77 -0.17 348.55 0.23 345.35 C0.87 340.3 2.99 335.27 6.29 331.45 C11.54 325.35 19.75 322.32
						 28.04 320.91 C35.75 319.6 43.52 319.69 50.47 322.26 C54.22 323.65 57.72 325.75 61.23 327.86 L0.23 354.98
						 Z" class="st1"/>
			<path d="M0.23 354.98 C0.03 351.77 -0.17 348.55 0.23 345.35 C0.87 340.3 2.99 335.27 6.29 331.45 C11.54 325.35 19.75 322.32
						 28.04 320.91 C35.75 319.6 43.52 319.69 50.47 322.26 C54.22 323.65 57.72 325.75 61.23 327.86" class="st2"/>
		</g>
		<g id="shape702-4" transform="translate(532.492,-111.68)">
			<title>Sheet.702</title>
			<path d="M0 354.98 C2.22 352.49 4.56 350.17 7.25 348.42 C13.05 344.67 20.52 343.57 27.88 343.71 C33.49 343.82 39.03 344.64
						 43.58 347.3 C44.7 347.95 45.75 348.71 46.77 349.54 L0 354.98 Z" class="st1"/>
			<path d="M0 354.98 C2.22 352.49 4.56 350.17 7.25 348.42 C13.05 344.67 20.52 343.57 27.88 343.71 C33.49 343.82 39.03 344.64
						 43.58 347.3 C44.7 347.95 45.75 348.71 46.77 349.54" class="st2"/>
		</g>
		<g id="shape703-7" transform="translate(576.477,-113.397)">
			<title>Sheet.703</title>
			<path d="M0 354.98 C2.53 351.36 5.23 347.95 8.79 345.65 C15.63 341.25 25.67 340.94 33.46 344.08 C36.91 345.48 39.93 347.55
						 42.82 349.79 L0 354.98 Z" class="st1"/>
			<path d="M0 354.98 C2.53 351.36 5.23 347.95 8.79 345.65 C15.63 341.25 25.67 340.94 33.46 344.08 C36.91 345.48 39.93 347.55
						 42.82 349.79" class="st2"/>
		</g>
		<g id="shape704-10" transform="translate(614.299,-107.553)">
			<title>Sheet.704</title>
			<path d="M0 347.57 C4.18 344.42 8.42 341.38 13.17 339.32 C18.62 336.95 24.74 335.85 30.8 336.69 C35.59 337.34 40.33 339.21
						 43.7 342.3 C47.23 345.54 49.25 350.13 51 354.96 C51 354.96 51 354.97 51 354.97 C51 354.98 51 354.98 51 354.98
						 L0 347.57 Z" class="st1"/>
			<path d="M0 347.57 C4.18 344.42 8.42 341.38 13.17 339.32 C18.62 336.95 24.74 335.85 30.8 336.69 C35.59 337.34 40.33 339.21
						 43.7 342.3 C47.23 345.54 49.25 350.13 51 354.96 C51 354.96 51 354.97 51 354.97 C51 354.98 51 354.98 51 354.98"
					class="st2"/>
		</g>
		<g id="shape705-13" transform="translate(663.843,-74.0076)">
			<title>Sheet.705</title>
			<path d="M0 321.55 C2.67 321.33 3.89 321.3 5.12 321.38 C8.51 321.58 11.99 322.55 14.68 324.53 C17.77 326.8 19.83 330.38
						 21 334.18 C22.13 337.85 22.43 341.71 21.35 345.31 C20.5 348.12 18.82 350.76 16.61 352.59 C15.4 353.6 14.02
						 354.36 12.56 354.98 L0 321.55 Z" class="st1"/>
			<path d="M0 321.55 C2.67 321.33 3.89 321.3 5.12 321.38 C8.51 321.58 11.99 322.55 14.68 324.53 C17.77 326.8 19.83 330.38
						 21 334.18 C22.13 337.85 22.43 341.71 21.35 345.31 C20.5 348.12 18.82 350.76 16.61 352.59 C15.4 353.6 14.02
						 354.36 12.56 354.98" class="st2"/>
		</g>
		<g id="shape706-16" transform="translate(665.561,-40.0853)">
			<title>Sheet.706</title>
			<path d="M18.27 314.58 C20.91 317.57 23.33 320.68 24.67 324.34 C25.92 327.77 26.21 331.69 25.37 335.3 C24.6 338.63 22.86
						 341.69 20.63 344.24 C17.77 347.53 14.08 349.99 10.1 351.87 C6.88 353.4 3.46 354.55 0 354.98 L18.27 314.58
						 Z" class="st1"/>
			<path d="M18.27 314.58 C20.91 317.57 23.33 320.68 24.67 324.34 C25.92 327.77 26.21 331.69 25.37 335.3 C24.6 338.63 22.86
						 341.69 20.63 344.24 C17.77 347.53 14.08 349.99 10.1 351.87 C6.88 353.4 3.46 354.55 0 354.98" class="st2"/>
		</g>
		<g id="shape707-19" transform="translate(643.759,-40.0853)">
			<title>Sheet.707</title>
			<path d="M0 336.22 C4.06 338.17 8.11 340.13 11.22 343.17 C13.47 345.38 15.22 348.17 16.38 351.24 C16.83 352.46 17.19
						 353.71 17.44 354.98 L0 336.22 Z" class="st1"/>
			<path d="M0 336.22 C4.06 338.17 8.11 340.13 11.22 343.17 C13.47 345.38 15.22 348.17 16.38 351.24 C16.83 352.46 17.19
						 353.71 17.44 354.98" class="st2"/>
		</g>
		<g id="shape708-22" transform="translate(612.775,-14.2621)">
			<title>Sheet.708</title>
			<path d="M48.79 331.99 C48.9 333.88 48.74 335.75 48.26 337.53 C46.7 343.2 41.78 347.86 36.37 350.75 C29.69 354.32 22.24
						 355.19 14.83 355.01 C11.25 354.93 7.67 354.59 4.29 353.67 C2.83 353.27 1.4 352.76 0 352.16 L48.79 331.99
						 Z" class="st1"/>
			<path d="M48.79 331.99 C48.9 333.88 48.74 335.75 48.26 337.53 C46.7 343.2 41.78 347.86 36.37 350.75 C29.69 354.32 22.24
						 355.19 14.83 355.01 C11.25 354.93 7.67 354.59 4.29 353.67 C2.83 353.27 1.4 352.76 0 352.16" class="st2"/>
		</g>
		<g id="shape709-25" transform="translate(543.443,0)">
			<title>Sheet.709</title>
			<path d="M71.96 330.7 C70.53 335.49 68.78 340.04 65.77 343.67 C60.74 349.72 52.22 353.18 44.01 354.43 C37.03 355.49 30.28
						 354.96 23.38 353.53 C17.16 352.25 10.82 350.24 6.33 346.13 C3.84 343.86 1.92 340.95 0 338.03 L71.96 330.7
						 Z" class="st1"/>
			<path d="M71.96 330.7 C70.53 335.49 68.78 340.04 65.77 343.67 C60.74 349.72 52.22 353.18 44.01 354.43 C37.03 355.49 30.28
						 354.96 23.38 353.53 C17.16 352.25 10.82 350.24 6.33 346.13 C3.84 343.86 1.92 340.95 0 338.03" class="st2"/>
		</g>
		<g id="shape710-28" transform="translate(490.928,-5.57833)">
			<title>Sheet.710</title>
			<path d="M57.25 350.09 C57.22 350.1 57.2 350.11 57.18 350.12 C57.18 350.12 57.17 350.12 57.17 350.12 C52.59 351.83 47.96
						 353.32 43.14 354.18 C34.54 355.7 25.37 355.18 17.12 351.94 C11.38 349.68 6.08 346.09 2.32 341.4 C1.47 340.35
						 0.71 339.24 0 338.1 L57.25 350.09 Z" class="st1"/>
			<path d="M57.25 350.09 C57.22 350.1 57.2 350.11 57.18 350.12 C57.18 350.12 57.17 350.12 57.17 350.12 C52.59 351.83 47.96
						 353.32 43.14 354.18 C34.54 355.7 25.37 355.18 17.12 351.94 C11.38 349.68 6.08 346.09 2.32 341.4 C1.47 340.35
						 0.71 339.24 0 338.1" class="st2"/>
		</g>
		<g id="shape711-31" transform="translate(463.723,-22.4409)">
			<title>Sheet.711</title>
			<path d="M31.85 354.68 C28.69 354.96 25.47 355.09 22.12 354.9 C14.93 354.49 7.11 352.59 3.05 347.27 C1.52 345.27 0.52
						 342.79 -0 340.17 L31.85 354.68 Z" class="st1"/>
			<path d="M31.85 354.68 C28.69 354.96 25.47 355.09 22.12 354.9 C14.93 354.49 7.11 352.59 3.05 347.27 C1.52 345.27 0.52
						 342.79 -0 340.17" class="st2"/>
		</g>
		<g id="shape712-34" transform="translate(463.297,-40.0853)">
			<title>Sheet.712</title>
			<path d="M0.05 354.98 C-0.13 352.45 0.13 349.91 1.01 347.66 C1.78 345.66 3.04 343.89 4.48 342.21 L0.05 354.98 Z"
					class="st1"/>
			<path d="M0.05 354.98 C-0.13 352.45 0.13 349.91 1.01 347.66 C1.78 345.66 3.04 343.89 4.48 342.21" class="st2"/>
		</g>
		<g id="shape713-37" transform="translate(456.749,-48.8587)">
			<title>Sheet.713</title>
			<path d="M24.56 354.98 C21.39 354.38 18.25 353.65 15.18 352.62 C11.35 351.33 7.63 349.58 4.64 346.79 C2.56 344.84 0.83
						 342.38 0.24 339.63 C-0.45 336.46 0.35 332.9 2.08 330.16 C5.04 325.46 10.71 323.14 16.12 321.47 C18.11 320.86
						 20.08 320.33 22.03 319.83 L24.56 354.98 Z" class="st1"/>
			<path d="M24.56 354.98 C21.39 354.38 18.25 353.65 15.18 352.62 C11.35 351.33 7.63 349.58 4.64 346.79 C2.56 344.84 0.83
						 342.38 0.24 339.63 C-0.45 336.46 0.35 332.9 2.08 330.16 C5.04 325.46 10.71 323.14 16.12 321.47 C18.11 320.86
						 20.08 320.33 22.03 319.83" class="st2"/>
		</g>
		<g id="shape714-40" transform="translate(0,-9.67143)">
			<title>Sheet.714</title>
			<path d="M225.81 327.4 L225.81 354.98 L0 354.98 L0 248.67 L225.81 248.67 L225.81 324.57 L225.81 324.57 L225.81 327.4 Z"
					class="st1"/>
			<path d="M225.81 327.4 L225.81 354.98 L0 354.98 L0 248.67 L225.81 248.67 L225.81 324.57 L225.81 324.57" class="st3"/>
		</g>
		<g id="shape715-43" transform="translate(923.164,-9.67143)">
			<title>Sheet.715</title>
			<path d="M0 324.57 L0 248.67 L225.81 248.67 L225.81 354.98 L0 354.98 L0 327.4 L0 327.4 L0 324.57 Z" class="st1"/>
			<path d="M0 324.57 L0 248.67 L225.81 248.67 L225.81 354.98 L0 354.98 L0 327.4 L0 327.4" class="st3"/>
		</g>
		<g id="shape716-46" transform="translate(473.795,-54.5633)">
			<title>Sheet.716</title>
			<desc>Internet</desc>
			<rect x="0" y="332.306" width="197.596" height="22.6772" class="st4"/>
			<text x="61.19" y="350.45" class="st5">Internet</text>		</g>
		<g id="shape717-49" transform="translate(565.986,-199.925)">
			<title>Sheet.717</title>
			<path d="M0 354.98 L4.25 354.98" class="st6"/>
		</g>
		<g id="shape718-52" transform="translate(578.742,-199.925)">
			<title>Sheet.718</title>
			<path d="M0 354.98 L4.25 354.98" class="st6"/>
		</g>
		<g id="shape719-55" transform="translate(248.479,-3.69551) rotate(-63.4349)">
			<title>Sheet.719</title>
			<path d="M0 354.98 L19.02 354.98" class="st6"/>
		</g>
		<g id="shape720-58" transform="translate(891.996,-20.7034) rotate(63.4349)">
			<title>Sheet.720</title>
			<path d="M0 354.98 L19.02 354.98" class="st6"/>
		</g>
		<g id="shape721-61" transform="translate(565.986,-139.888)">
			<title>Sheet.721</title>
			<path d="M0 354.98 L4.25 354.98" class="st6"/>
		</g>
		<g id="shape722-64" transform="translate(578.742,-139.888)">
			<title>Sheet.722</title>
			<path d="M0 354.98 L4.25 354.98" class="st6"/>
		</g>
		<g id="shape723-67" transform="translate(883.492,56.3416) rotate(63.4349)">
			<title>Sheet.723</title>
			<path d="M0 354.98 L19.02 354.98" class="st6"/>
		</g>
		<g id="shape724-70" transform="translate(256.983,73.3495) rotate(-63.4349)">
			<title>Sheet.724</title>
			<path d="M0 354.98 L19.02 354.98" class="st6"/>
		</g>
		<g id="shape725-73" transform="translate(215.254,215.095) rotate(-90)">
			<title>Sheet.725</title>
			<path d="M0 354.98 L60.04 354.98" class="st6"/>
		</g>
		<g id="shape726-76" transform="translate(933.725,155.058) rotate(90)">
			<title>Sheet.726</title>
			<path d="M0 354.98 L60.04 354.98" class="st6"/>
		</g>
		<g id="shape727-79" transform="translate(280.957,-9.67143)">
			<title>Sheet.727</title>
			<path d="M69.26 327.4 L69.26 354.98 L0 354.98 L0 327.4 L0 327.4 L69.26 327.4 Z" class="st1"/>
			<path d="M69.26 327.4 L69.26 354.98 L0 354.98 L0 327.4 L0 327.4" class="st3"/>
		</g>
		<g id="shape728-82" transform="translate(280.957,-40.0853)">
			<title>Sheet.728</title>
			<path d="M0 354.98 L0 279.09 L69.26 279.09 L69.26 354.98 L69.26 354.98 L0 354.98 Z" class="st1"/>
			<path d="M0 354.98 L0 279.09 L69.26 279.09 L69.26 354.98 L69.26 354.98" class="st3"/>
		</g>
		<g id="shape729-85" transform="translate(216.367,-59.7282)">
			<title>Sheet.729</title>
			<desc>BLE enabled router</desc>
			<rect x="0" y="343.645" width="197.596" height="11.3386" class="st4"/>
			<text x="90.56" y="339.11" class="st7">BLE <tspan x="80.2" dy="1.2em" class="st8">enabled </tspan><tspan x="84.16"
						dy="1.2em" class="st8">router</tspan></text>		</g>
		<g id="shape730-90" transform="translate(597.806,283.653) rotate(90)">
			<title>Sheet.730</title>
			<path d="M0 354.98 L4.25 354.98" class="st2"/>
		</g>
		<g id="shape731-93" transform="translate(597.806,296.409) rotate(90)">
			<title>Sheet.731</title>
			<path d="M0 354.98 L4.25 354.98" class="st2"/>
		</g>
		<g id="shape732-96" transform="translate(401.576,601.16) rotate(153.435)">
			<title>Sheet.732</title>
			<path d="M0 354.98 L19.02 354.98" class="st2"/>
		</g>
		<g id="shape733-99" transform="translate(384.568,-25.3496) rotate(26.5651)">
			<title>Sheet.733</title>
			<path d="M0 354.98 L19.02 354.98" class="st2"/>
		</g>
		<g id="shape734-102" transform="translate(242.823,-67.0782)">
			<title>Sheet.734</title>
			<path d="M0 354.98 L21.13 354.98" class="st2"/>
		</g>
		<g id="shape735-105" transform="translate(263.949,651.392) rotate(180)">
			<title>Sheet.735</title>
			<path d="M0 354.98 L21.13 354.98" class="st2"/>
		</g>
		<g id="shape736-108" transform="translate(618.933,283.653) rotate(90)">
			<title>Sheet.736</title>
			<path d="M0 354.98 L4.25 354.98" class="st2"/>
		</g>
		<g id="shape737-111" transform="translate(618.933,296.409) rotate(90)">
			<title>Sheet.737</title>
			<path d="M0 354.98 L4.25 354.98" class="st2"/>
		</g>
		<g id="shape738-114" transform="translate(422.703,-33.8536) rotate(26.5651)">
			<title>Sheet.738</title>
			<path d="M0 354.98 L19.02 354.98" class="st2"/>
		</g>
		<g id="shape739-117" transform="translate(439.711,609.664) rotate(153.435)">
			<title>Sheet.739</title>
			<path d="M0 354.98 L19.02 354.98" class="st2"/>
		</g>
		<g id="shape740-120" transform="translate(794.381,283.653) rotate(90)">
			<title>Sheet.740</title>
			<path d="M0 354.98 L4.25 354.98" class="st2"/>
		</g>
		<g id="shape741-123" transform="translate(794.381,296.409) rotate(90)">
			<title>Sheet.741</title>
			<path d="M0 354.98 L4.25 354.98" class="st2"/>
		</g>
		<g id="shape742-126" transform="translate(598.151,-33.8536) rotate(26.5651)">
			<title>Sheet.742</title>
			<path d="M0 354.98 L19.02 354.98" class="st2"/>
		</g>
		<g id="shape743-129" transform="translate(615.159,609.664) rotate(153.435)">
			<title>Sheet.743</title>
			<path d="M0 354.98 L19.02 354.98" class="st2"/>
		</g>
		<g id="shape744-132" transform="translate(722.209,283.653) rotate(90)">
			<title>Sheet.744</title>
			<path d="M0 354.98 L4.25 354.98" class="st2"/>
		</g>
		<g id="shape745-135" transform="translate(722.209,296.409) rotate(90)">
			<title>Sheet.745</title>
			<path d="M0 354.98 L4.25 354.98" class="st2"/>
		</g>
		<g id="shape746-138" transform="translate(525.979,601.16) rotate(153.435)">
			<title>Sheet.746</title>
			<path d="M0 354.98 L19.02 354.98" class="st2"/>
		</g>
		<g id="shape747-141" transform="translate(508.972,-25.3496) rotate(26.5651)">
			<title>Sheet.747</title>
			<path d="M0 354.98 L19.02 354.98" class="st2"/>
		</g>
		<g id="shape748-144" transform="translate(367.226,-67.0782)">
			<title>Sheet.748</title>
			<path d="M0 354.98 L72.17 354.98" class="st2"/>
		</g>
		<g id="shape749-147" transform="translate(439.398,651.392) rotate(180)">
			<title>Sheet.749</title>
			<path d="M0 354.98 L72.17 354.98" class="st2"/>
		</g>
		<g id="shape750-150" transform="translate(798.761,-40.0853)">
			<title>Sheet.750</title>
			<path d="M69.26 354.98 L69.26 279.09 L0 279.09 L0 354.98 L0 354.98 L69.26 354.98 Z" class="st1"/>
			<path d="M69.26 354.98 L69.26 279.09 L0 279.09 L0 354.98 L0 354.98" class="st3"/>
		</g>
		<g id="shape751-153" transform="translate(798.761,-9.67143)">
			<title>Sheet.751</title>
			<path d="M0 327.4 L0 354.98 L69.26 354.98 L69.26 327.4 L69.26 327.4 L0 327.4 Z" class="st1"/>
			<path d="M0 327.4 L0 354.98 L69.26 354.98 L69.26 327.4 L69.26 327.4" class="st3"/>
		</g>
		<g id="shape752-156" transform="translate(1261.14,283.653) rotate(90)">
			<title>Sheet.752</title>
			<path d="M0 354.98 L4.25 354.98" class="st2"/>
		</g>
		<g id="shape753-159" transform="translate(1261.14,296.409) rotate(90)">
			<title>Sheet.753</title>
			<path d="M0 354.98 L4.25 354.98" class="st2"/>
		</g>
		<g id="shape754-162" transform="translate(1064.91,-33.8536) rotate(26.5651)">
			<title>Sheet.754</title>
			<path d="M0 354.98 L19.02 354.98" class="st2"/>
		</g>
		<g id="shape755-165" transform="translate(1081.92,609.664) rotate(153.435)">
			<title>Sheet.755</title>
			<path d="M0 354.98 L19.02 354.98" class="st2"/>
		</g>
		<g id="shape756-168" transform="translate(906.156,642.888) rotate(180)">
			<title>Sheet.756</title>
			<path d="M0 354.98 L21.13 354.98" class="st2"/>
		</g>
		<g id="shape757-171" transform="translate(885.03,-58.5742)">
			<title>Sheet.757</title>
			<path d="M0 354.98 L21.13 354.98" class="st2"/>
		</g>
		<g id="shape758-174" transform="translate(1240.01,283.653) rotate(90)">
			<title>Sheet.758</title>
			<path d="M0 354.98 L4.25 354.98" class="st2"/>
		</g>
		<g id="shape759-177" transform="translate(1240.01,296.409) rotate(90)">
			<title>Sheet.759</title>
			<path d="M0 354.98 L4.25 354.98" class="st2"/>
		</g>
		<g id="shape760-180" transform="translate(1043.78,601.16) rotate(153.435)">
			<title>Sheet.760</title>
			<path d="M0 354.98 L19.02 354.98" class="st2"/>
		</g>
		<g id="shape761-183" transform="translate(1026.78,-25.3496) rotate(26.5651)">
			<title>Sheet.761</title>
			<path d="M0 354.98 L19.02 354.98" class="st2"/>
		</g>
		<g id="shape762-186" transform="translate(1064.56,283.653) rotate(90)">
			<title>Sheet.762</title>
			<path d="M0 354.98 L4.25 354.98" class="st2"/>
		</g>
		<g id="shape763-189" transform="translate(1064.56,296.409) rotate(90)">
			<title>Sheet.763</title>
			<path d="M0 354.98 L4.25 354.98" class="st2"/>
		</g>
		<g id="shape764-192" transform="translate(868.335,601.16) rotate(153.435)">
			<title>Sheet.764</title>
			<path d="M0 354.98 L19.02 354.98" class="st2"/>
		</g>
		<g id="shape765-195" transform="translate(851.327,-25.3496) rotate(26.5651)">
			<title>Sheet.765</title>
			<path d="M0 354.98 L19.02 354.98" class="st2"/>
		</g>
		<g id="shape766-198" transform="translate(1136.74,283.653) rotate(90)">
			<title>Sheet.766</title>
			<path d="M0 354.98 L4.25 354.98" class="st2"/>
		</g>
		<g id="shape767-201" transform="translate(1136.74,296.409) rotate(90)">
			<title>Sheet.767</title>
			<path d="M0 354.98 L4.25 354.98" class="st2"/>
		</g>
		<g id="shape768-204" transform="translate(940.507,-33.8536) rotate(26.5651)">
			<title>Sheet.768</title>
			<path d="M0 354.98 L19.02 354.98" class="st2"/>
		</g>
		<g id="shape769-207" transform="translate(957.514,609.664) rotate(153.435)">
			<title>Sheet.769</title>
			<path d="M0 354.98 L19.02 354.98" class="st2"/>
		</g>
		<g id="shape770-210" transform="translate(781.753,642.888) rotate(180)">
			<title>Sheet.770</title>
			<path d="M0 354.98 L72.17 354.98" class="st2"/>
		</g>
		<g id="shape771-213" transform="translate(709.582,-58.5742)">
			<title>Sheet.771</title>
			<path d="M0 354.98 L72.17 354.98" class="st2"/>
		</g>
		<g id="shape772-216" transform="translate(734.171,-59.7282)">
			<title>Sheet.772</title>
			<desc>BLE enabled router</desc>
			<rect x="0" y="343.645" width="197.596" height="11.3386" class="st4"/>
			<text x="90.56" y="339.11" class="st7">BLE <tspan x="80.2" dy="1.2em" class="st8">enabled </tspan><tspan x="84.16"
						dy="1.2em" class="st8">router</tspan></text>		</g>
		<g id="shape773-221" transform="translate(335.833,-69.2761)">
			<title>Sheet.773</title>
			<desc>UDP/IPv6</desc>
			<rect x="0" y="343.645" width="135.084" height="11.3386" class="st4"/>
			<text x="45.51" y="354.42" class="st7">UDP/IPv6</text>		</g>
		<g id="shape774-224" transform="translate(939.018,117.534) rotate(90)">
			<title>Sheet.774</title>
			<desc>UDP/IPv6</desc>
			<rect x="0" y="343.645" width="135.084" height="11.3386" class="st4"/>
			<text x="45.51" y="354.42" class="st9">UDP/IPv6</text>		</g>
		<g id="shape775-227" transform="translate(678.189,-69.2761)">
			<title>Sheet.775</title>
			<desc>UDP/IPv6</desc>
			<rect x="0" y="343.645" width="135.084" height="11.3386" class="st4"/>
			<text x="45.51" y="354.42" class="st7">UDP/IPv6</text>		</g>
		<g id="shape790-230" transform="translate(935.418,669.881) rotate(180)">
			<title>Sheet.790</title>
			<path d="M0 354.98 L716.81 354.98" class="st2"/>
		</g>
		<g id="shape791-233" transform="translate(935.418,672.716) rotate(180)">
			<title>Sheet.791</title>
			<path d="M0 354.98 L716.81 354.98" class="st2"/>
		</g>
		<g id="shape792-236" transform="translate(776.665,2.4789) rotate(-26.5651)">
			<title>Sheet.792</title>
			<path d="M0 354.98 L8.21 354.98" class="st2"/>
		</g>
		<g id="shape793-239" transform="translate(784.005,633.822) rotate(-153.435)">
			<title>Sheet.793</title>
			<path d="M0 354.98 L8.21 354.98" class="st2"/>
		</g>
		<g id="shape794-242" transform="translate(580.435,319.986) rotate(-90)">
			<title>Sheet.794</title>
			<path d="M0 354.98 L2.25 354.98" class="st2"/>
		</g>
		<g id="shape795-245" transform="translate(580.435,314.898) rotate(-90)">
			<title>Sheet.795</title>
			<path d="M0 354.98 L2.25 354.98" class="st2"/>
		</g>
		<g id="shape796-248" transform="translate(59.8585,637.492) rotate(-153.435)">
			<title>Sheet.796</title>
			<path d="M0 354.98 L8.21 354.98" class="st2"/>
		</g>
		<g id="shape797-251" transform="translate(52.518,-1.19137) rotate(-26.5651)">
			<title>Sheet.797</title>
			<path d="M0 354.98 L8.21 354.98" class="st2"/>
		</g>
		<g id="shape798-254" transform="translate(-136.371,319.986) rotate(-90)">
			<title>Sheet.798</title>
			<path d="M0 354.98 L2.25 354.98" class="st2"/>
		</g>
		<g id="shape799-257" transform="translate(-136.371,314.898) rotate(-90)">
			<title>Sheet.799</title>
			<path d="M0 354.98 L2.25 354.98" class="st2"/>
		</g>
		<g id="shape898-260" transform="translate(499.906,-354.983)">
			<title>Sheet.898</title>
			<path d="M0 354.98 L151.71 354.98" class="st6"/>
		</g>
		<g id="shape899-263" transform="translate(497.185,-352.245)">
			<title>Sheet.899</title>
			<path d="M2.72 352.24 A2.72126 2.72126 -180 0 0 0 354.98 L2.72 352.24 Z" class="st1"/>
			<path d="M2.72 352.24 A2.72126 2.72126 -180 0 0 0 354.98" class="st6"/>
		</g>
		<g id="shape900-266" transform="translate(502.205,-348.128)">
			<title>Sheet.900</title>
			<path d="M0 354.98 L147.22 354.98" class="st6"/>
		</g>
		<g id="shape901-269" transform="translate(501.525,-347.444)">
			<title>Sheet.901</title>
			<path d="M0.68 354.3 a0.680315 0.680315 -180 0 0 -0.680308 0.6834 L0.68 354.3 Z" class="st1"/>
			<path d="M0.68 354.3 a0.680315 0.680315 -180 0 0 -0.680308 0.6834" class="st6"/>
		</g>
		<g id="shape902-272" transform="translate(501.899,-265.041)">
			<title>Sheet.902</title>
			<path d="M0 354.98 L148.25 354.98" class="st6"/>
		</g>
		<g id="shape903-275" transform="translate(502.578,-264.492)">
			<title>Sheet.903</title>
			<path d="M0 354.98 L146.89 354.98" class="st6"/>
		</g>
		<g id="shape904-278" transform="translate(499.814,-257.5)">
			<title>Sheet.904</title>
			<path d="M0 354.98 L152.25 354.98" class="st6"/>
		</g>
		<g id="shape905-281" transform="translate(497.773,-257.808)">
			<title>Sheet.905</title>
			<path d="M0 353.26 A2.04094 2.04094 -180 0 0 0.96 354.98 L0 353.26 Z" class="st1"/>
			<path d="M0 353.26 A2.04094 2.04094 -180 0 0 0.96 354.98" class="st6"/>
		</g>
		<g id="shape906-284" transform="translate(498.735,-257.5)">
			<title>Sheet.906</title>
			<path d="M0 354.67 A2.04094 2.04094 -180 0 0 1.08 354.98 L0 354.67 Z" class="st1"/>
			<path d="M0 354.67 A2.04094 2.04094 -180 0 0 1.08 354.98" class="st6"/>
		</g>
		<g id="shape907-287" transform="translate(483.284,-238.476)">
			<title>Sheet.907</title>
			<path d="M0 354.98 L0.84 354.98" class="st6"/>
		</g>
		<g id="shape908-290" transform="translate(484.12,-238.476)">
			<title>Sheet.908</title>
			<path d="M0 354.98 L183.1 354.98" class="st6"/>
		</g>
		<g id="shape909-293" transform="translate(667.218,-238.476)">
			<title>Sheet.909</title>
			<path d="M0 354.98 L0.83 354.98" class="st6"/>
		</g>
		<g id="shape910-296" transform="translate(473.999,-225.877)">
			<title>Sheet.910</title>
			<path d="M0 354.98 L202.61 354.98" class="st6"/>
		</g>
		<g id="shape911-299" transform="translate(473.319,-226.557)">
			<title>Sheet.911</title>
			<path d="M0.16 354.54 a0.680315 0.680315 -180 0 0 -0.162995 0.441824 L0.16 354.54 Z" class="st1"/>
			<path d="M0.16 354.54 a0.680315 0.680315 -180 0 0 -0.162995 0.441824" class="st6"/>
		</g>
		<g id="shape912-302" transform="translate(473.319,-225.877)">
			<title>Sheet.912</title>
			<path d="M0 354.3 a0.680315 0.680315 -180 0 0 0.680315 0.680315 L0 354.3 Z" class="st1"/>
			<path d="M0 354.3 a0.680315 0.680315 -180 0 0 0.680315 0.680315" class="st6"/>
		</g>
		<g id="shape913-305" transform="translate(485.787,-219.621)">
			<title>Sheet.913</title>
			<path d="M0 354.98 L175.97 354.98" class="st6"/>
		</g>
		<g id="shape914-308" transform="translate(852.161,0.486343) rotate(89.6365)">
			<title>Sheet.914</title>
			<path d="M0 354.98 L92.72 354.98" class="st6"/>
		</g>
		<g id="shape915-311" transform="translate(856.505,5.92919) rotate(89.7402)">
			<title>Sheet.915</title>
			<path d="M0 354.98 L82.28 354.98" class="st6"/>
		</g>
		<g id="shape916-314" transform="translate(501.898,-264.492)">
			<title>Sheet.916</title>
			<path d="M-0 354.31 a0.680315 0.680315 -180 0 0 0.680308 0.67723 L0 354.31 Z" class="st1"/>
			<path d="M-0 354.31 a0.680315 0.680315 -180 0 0 0.680308 0.67723" class="st6"/>
		</g>
		<g id="shape917-317" transform="translate(1005.09,7.36507) rotate(89.9725)">
			<title>Sheet.917</title>
			<path d="M0 354.98 L82.28 354.98" class="st6"/>
		</g>
		<g id="shape918-320" transform="translate(649.467,-264.492)">
			<title>Sheet.918</title>
			<path d="M-0 354.98 a0.680315 0.680315 -180 0 0 0.680315 -0.680641 L0 354.98 Z" class="st1"/>
			<path d="M-0 354.98 a0.680315 0.680315 -180 0 0 0.680315 -0.680641" class="st6"/>
		</g>
		<g id="shape919-323" transform="translate(649.427,-347.448)">
			<title>Sheet.919</title>
			<path d="M0.68 354.98 a0.680315 0.680315 -180 0 0 -0.680315 -0.679989 L0.68 354.98 Z" class="st1"/>
			<path d="M0.68 354.98 a0.680315 0.680315 -180 0 0 -0.680315 -0.679989" class="st6"/>
		</g>
		<g id="shape920-326" transform="translate(299.126,94.5648) rotate(-89.8575)">
			<title>Sheet.920</title>
			<path d="M0 354.98 L92.72 354.98" class="st6"/>
		</g>
		<g id="shape921-329" transform="translate(652.067,-257.5)">
			<title>Sheet.921</title>
			<path d="M-0 354.98 A2.04094 2.04094 -180 0 0 1.51 354.31 L0 354.98 Z" class="st1"/>
			<path d="M-0 354.98 A2.04094 2.04094 -180 0 0 1.51 354.31" class="st6"/>
		</g>
		<g id="shape922-332" transform="translate(653.581,-258.172)">
			<title>Sheet.922</title>
			<path d="M0 354.98 A2.04094 2.04094 -180 0 0 0.53 353.62 L0 354.98 Z" class="st1"/>
			<path d="M0 354.98 A2.04094 2.04094 -180 0 0 0.53 353.62" class="st6"/>
		</g>
		<g id="shape923-335" transform="translate(651.617,-352.255)">
			<title>Sheet.923</title>
			<path d="M2.72 354.98 A2.72126 2.72126 -180 0 0 0 352.26 L2.72 354.98 Z" class="st1"/>
			<path d="M2.72 354.98 A2.72126 2.72126 -180 0 0 0 352.26" class="st6"/>
		</g>
		<g id="shape924-338" transform="translate(767.167,330.715) rotate(130.499)">
			<title>Sheet.924</title>
			<path d="M0 354.98 L3.2 354.98" class="st6"/>
		</g>
		<g id="shape925-341" transform="translate(753.218,347.048) rotate(130.499)">
			<title>Sheet.925</title>
			<path d="M0 354.98 L15.09 354.98" class="st6"/>
		</g>
		<g id="shape926-344" transform="translate(933.293,-120.364) rotate(51.6576)">
			<title>Sheet.926</title>
			<path d="M0 354.98 L3.51 354.98" class="st6"/>
		</g>
		<g id="shape927-347" transform="translate(946.466,-103.71) rotate(51.6576)">
			<title>Sheet.927</title>
			<path d="M0 354.98 L14.66 354.98" class="st6"/>
		</g>
		<g id="shape928-350" transform="translate(676.607,-225.877)">
			<title>Sheet.928</title>
			<path d="M-0 354.98 a0.680315 0.680315 -180 0 0 0.680315 -0.680315 L0 354.98 Z" class="st1"/>
			<path d="M-0 354.98 a0.680315 0.680315 -180 0 0 0.680315 -0.680315" class="st6"/>
		</g>
		<g id="shape929-353" transform="translate(677.14,-226.557)">
			<title>Sheet.929</title>
			<path d="M0.15 354.98 a0.680315 0.680315 -180 0 0 -0.146732 -0.42204 L0.15 354.98 Z" class="st1"/>
			<path d="M0.15 354.98 a0.680315 0.680315 -180 0 0 -0.146732 -0.42204" class="st6"/>
		</g>
		<g id="shape930-356" transform="translate(759.777,476.906) rotate(166.45)">
			<title>Sheet.930</title>
			<path d="M0 354.98 L15.11 354.98" class="st6"/>
		</g>
		<g id="shape931-359" transform="translate(661.76,-219.621)">
			<title>Sheet.931</title>
		</g>
		<g id="shape932-360" transform="translate(531.943,-237.732)">
			<title>Sheet.932</title>
			<path d="M0 354.98 L45.36 354.98" class="st6"/>
		</g>
		<g id="shape933-363" transform="translate(531.003,-237.109)">
			<title>Sheet.933</title>
			<path d="M0.94 354.36 A1.02047 1.02047 -180 0 0 0 354.98 L0.94 354.36 Z" class="st1"/>
			<path d="M0.94 354.36 A1.02047 1.02047 -180 0 0 0 354.98" class="st6"/>
		</g>
		<g id="shape934-366" transform="translate(528.111,-228.437)">
			<title>Sheet.934</title>
			<path d="M0 354.98 L49.15 354.98" class="st6"/>
		</g>
		<g id="shape935-369" transform="translate(578.287,479.864) rotate(180)">
			<title>Sheet.935</title>
			<path d="M0 354.98 L50.24 354.98" class="st6"/>
		</g>
		<g id="shape936-372" transform="translate(858.026,255.966) rotate(112.893)">
			<title>Sheet.936</title>
			<path d="M0 354.98 L8.64 354.98" class="st6"/>
		</g>
		<g id="shape937-375" transform="translate(527.641,-228.437)">
			<title>Sheet.937</title>
			<path d="M0 354.27 a0.510236 0.510236 -180 0 0 0.470047 0.708723 L0 354.27 Z" class="st1"/>
			<path d="M0 354.27 a0.510236 0.510236 -180 0 0 0.470047 0.708723" class="st6"/>
		</g>
		<g id="shape938-378" transform="translate(901.893,192.992) rotate(101.062)">
			<title>Sheet.938</title>
			<path d="M0 354.98 L1.7 354.98" class="st6"/>
		</g>
		<g id="shape939-381" transform="translate(901.517,192.992) rotate(101.062)">
			<title>Sheet.939</title>
			<path d="M0 354.98 L1.7 354.98" class="st6"/>
		</g>
		<g id="shape940-384" transform="translate(933.299,120.091) rotate(90.2929)">
			<title>Sheet.940</title>
			<path d="M0 354.98 L7.25 354.98" class="st6"/>
		</g>
		<g id="shape941-387" transform="translate(577.263,-228.437)">
			<title>Sheet.941</title>
			<path d="M-0 354.98 A1.02047 1.02047 -180 0 0 1.02 353.97 L0 354.98 Z" class="st1"/>
			<path d="M-0 354.98 A1.02047 1.02047 -180 0 0 1.02 353.97" class="st6"/>
		</g>
		<g id="shape942-390" transform="translate(577.3,-236.706)">
			<title>Sheet.942</title>
			<path d="M1.02 354.98 A1.02047 1.02047 -180 0 0 -0 353.96 L1.02 354.98 Z" class="st1"/>
			<path d="M1.02 354.98 A1.02047 1.02047 -180 0 0 -0 353.96" class="st6"/>
		</g>
		<g id="shape943-393" transform="translate(497.804,-256.781)">
			<title>Sheet.943</title>
			<path d="M0 354.98 L156.58 354.98" class="st6"/>
		</g>
		<g id="shape944-396" transform="translate(654.382,-255.13)">
			<title>Sheet.944</title>
			<path d="M0 353.33 A3.46711 3.46711 -180 0 0 0.49 354.98 L0 353.33 Z" class="st1"/>
			<path d="M0 353.33 A3.46711 3.46711 -180 0 0 0.49 354.98" class="st6"/>
		</g>
		<g id="shape945-399" transform="translate(497.234,-254.809)">
			<title>Sheet.945</title>
			<path d="M0 354.98 A3.52318 3.52318 -180 0 0 0.57 353.01 L0 354.98 Z" class="st1"/>
			<path d="M0 354.98 A3.52318 3.52318 -180 0 0 0.57 353.01" class="st6"/>
		</g>
		<g id="shape946-402" transform="translate(234.887,-140.31) rotate(-47.7865)">
			<title>Sheet.946</title>
			<path d="M0 354.98 L1.39 354.98" class="st6"/>
		</g>
		<g id="shape947-405" transform="translate(346.778,275.382) rotate(-119.942)">
			<title>Sheet.947</title>
			<path d="M0 354.98 L1.6 354.98" class="st6"/>
		</g>
		<g id="shape948-408" transform="translate(382.178,474.92) rotate(-163.063)">
			<title>Sheet.948</title>
			<path d="M0 354.98 L12.12 354.98" class="st6"/>
		</g>
		<g id="shape949-411" transform="translate(485.59,-219.65)">
			<title>Sheet.949</title>
		</g>
		<g id="shape950-412" transform="translate(473.999,-223.18)">
			<title>Sheet.950</title>
			<path d="M0 354.98 L202.61 354.98" class="st6"/>
		</g>
		<g id="shape951-415" transform="translate(473.319,-223.18)">
			<title>Sheet.951</title>
			<path d="M0 354.3 a0.680315 0.680315 -180 0 0 0.680315 0.680315 L0 354.3 Z" class="st1"/>
			<path d="M0 354.3 a0.680315 0.680315 -180 0 0 0.680315 0.680315" class="st6"/>
		</g>
		<g id="shape952-418" transform="translate(676.607,-223.18)">
			<title>Sheet.952</title>
			<path d="M-0 354.98 a0.680315 0.680315 -180 0 0 0.680315 -0.680315 L0 354.98 Z" class="st1"/>
			<path d="M-0 354.98 a0.680315 0.680315 -180 0 0 0.680315 -0.680315" class="st6"/>
		</g>
		<g id="shape953-421" transform="translate(1032.27,128.426) rotate(90)">
			<title>Sheet.953</title>
			<path d="M0 354.98 L2.7 354.98" class="st6"/>
		</g>
		<g id="shape954-424" transform="translate(828.302,128.426) rotate(90)">
			<title>Sheet.954</title>
			<path d="M0 354.98 L2.7 354.98" class="st6"/>
		</g>
		<g id="shape955-427" transform="translate(765,334.152) rotate(130.319)">
			<title>Sheet.955</title>
			<path d="M0 354.98 L15.8 354.98" class="st6"/>
		</g>
		<g id="shape956-430" transform="translate(494.342,-250.521)">
			<title>Sheet.956</title>
			<path d="M-0 354.98 A3.34859 3.34859 -180 0 0 0.81 353.13 L0 354.98 Z" class="st1"/>
			<path d="M-0 354.98 A3.34859 3.34859 -180 0 0 0.81 353.13" class="st6"/>
		</g>
		<g id="shape957-433" transform="translate(936.217,-115.654) rotate(51.7331)">
			<title>Sheet.957</title>
			<path d="M0 354.98 L15.68 354.98" class="st6"/>
		</g>
		<g id="shape958-436" transform="translate(495.153,-252.377)">
			<title>Sheet.958</title>
			<path d="M0 354.98 L161.9 354.98" class="st6"/>
		</g>
		<g id="shape959-439" transform="translate(657.051,-250.787)">
			<title>Sheet.959</title>
			<path d="M0 353.39 A3.46711 3.46711 -180 0 0 0.46 354.98 L0 353.39 Z" class="st1"/>
			<path d="M0 353.39 A3.46711 3.46711 -180 0 0 0.46 354.98" class="st6"/>
		</g>
		<g id="shape960-442" transform="translate(505.162,-251.403)">
			<title>Sheet.960</title>
			<path d="M0 354.98 L110.07 354.98" class="st6"/>
		</g>
		<g id="shape961-445" transform="translate(618.74,-251.403)">
			<title>Sheet.961</title>
			<path d="M0 354.98 L27.86 354.98" class="st6"/>
		</g>
		<g id="shape962-448" transform="translate(618.268,-250.698)">
			<title>Sheet.962</title>
			<path d="M0.47 354.28 a0.510236 0.510236 -180 0 0 -0.471621 0.704953 L0.47 354.28 Z" class="st1"/>
			<path d="M0.47 354.28 a0.510236 0.510236 -180 0 0 -0.471621 0.704953" class="st6"/>
		</g>
		<g id="shape963-451" transform="translate(504.335,-250.979)">
			<title>Sheet.963</title>
			<path d="M0.83 354.56 A1.02047 1.02047 -180 0 0 0 354.98 L0.83 354.56 Z" class="st1"/>
			<path d="M0.83 354.56 A1.02047 1.02047 -180 0 0 0 354.98" class="st6"/>
		</g>
		<g id="shape964-454" transform="translate(941.469,-94.8676) rotate(55.9235)">
			<title>Sheet.964</title>
			<path d="M0 354.98 L12.64 354.98" class="st6"/>
		</g>
		<g id="shape965-457" transform="translate(646.595,-250.954)">
			<title>Sheet.965</title>
			<path d="M0.85 354.98 A1.02047 1.02047 -180 0 0 0 354.53 L0.85 354.98 Z" class="st1"/>
			<path d="M0.85 354.98 A1.02047 1.02047 -180 0 0 0 354.53" class="st6"/>
		</g>
		<g id="shape966-460" transform="translate(654.24,-239.955)">
			<title>Sheet.966</title>
			<path d="M-0 354.98 a0.340157 0.340157 -180 0 0 0.281749 -0.530747 L0 354.98 Z" class="st1"/>
			<path d="M-0 354.98 a0.340157 0.340157 -180 0 0 0.281749 -0.530747" class="st6"/>
		</g>
		<g id="shape967-463" transform="translate(792.246,311.658) rotate(125.801)">
			<title>Sheet.967</title>
			<path d="M0 354.98 L12.93 354.98" class="st6"/>
		</g>
		<g id="shape968-466" transform="translate(496.71,-239.955)">
			<title>Sheet.968</title>
			<path d="M0.06 354.44 a0.340157 0.340157 -180 0 0 0.275887 0.539139 L0.06 354.44 Z" class="st1"/>
			<path d="M0.06 354.44 a0.340157 0.340157 -180 0 0 0.275887 0.539139" class="st6"/>
		</g>
		<g id="shape969-469" transform="translate(497.048,-239.955)">
			<title>Sheet.969</title>
			<path d="M0 354.98 L122.83 354.98" class="st6"/>
		</g>
		<g id="shape970-472" transform="translate(623.386,-239.955)">
			<title>Sheet.970</title>
			<path d="M0 354.98 L30.85 354.98" class="st6"/>
		</g>
		<g id="shape971-475" transform="translate(654.24,-238.91)">
			<title>Sheet.971</title>
			<path d="M-0 354.98 a0.340157 0.340157 -180 0 0 0.340157 -0.340157 L0 354.98 Z" class="st1"/>
			<path d="M-0 354.98 a0.340157 0.340157 -180 0 0 0.340157 -0.340157" class="st6"/>
		</g>
		<g id="shape972-478" transform="translate(496.708,-238.91)">
			<title>Sheet.972</title>
			<path d="M0 354.64 a0.340157 0.340157 -180 0 0 0.340157 0.340157 L0 354.64 Z" class="st1"/>
			<path d="M0 354.64 a0.340157 0.340157 -180 0 0 0.340157 0.340157" class="st6"/>
		</g>
		<g id="shape973-481" transform="translate(497.048,-238.91)">
			<title>Sheet.973</title>
			<path d="M0 354.98 L122.83 354.98" class="st6"/>
		</g>
		<g id="shape974-484" transform="translate(623.386,-238.91)">
			<title>Sheet.974</title>
			<path d="M0 354.98 L30.85 354.98" class="st6"/>
		</g>
		<g id="shape975-487" transform="translate(1009.56,114.689) rotate(90)">
			<title>Sheet.975</title>
			<path d="M0 354.98 L1.04 354.98" class="st6"/>
		</g>
		<g id="shape976-490" transform="translate(851.691,114.689) rotate(90)">
			<title>Sheet.976</title>
			<path d="M0 354.98 L1.04 354.98" class="st6"/>
		</g>
		<g id="shape977-493" transform="translate(946.386,-31.1834) rotate(67.5659)">
			<title>Sheet.977</title>
			<path d="M0 354.98 L10.94 354.98" class="st6"/>
		</g>
		<g id="shape978-496" transform="translate(622.443,-239.955)">
			<title>Sheet.978</title>
			<path d="M0 354.35 A1.02047 1.02047 -180 0 0 0.94 354.98 L0 354.35 Z" class="st1"/>
			<path d="M0 354.35 A1.02047 1.02047 -180 0 0 0.94 354.98" class="st6"/>
		</g>
		<g id="shape979-499" transform="translate(946.386,-30.139) rotate(67.5659)">
			<title>Sheet.979</title>
			<path d="M0 354.98 L10.94 354.98" class="st6"/>
		</g>
		<g id="shape980-502" transform="translate(944.291,-31.2574) rotate(67.5659)">
			<title>Sheet.980</title>
			<path d="M0 354.98 L10.94 354.98" class="st6"/>
		</g>
		<g id="shape981-505" transform="translate(619.877,-239.955)">
			<title>Sheet.981</title>
			<path d="M0 354.98 a0.510236 0.510236 -180 0 0 0.471621 -0.704953 L0 354.98 Z" class="st1"/>
			<path d="M0 354.98 a0.510236 0.510236 -180 0 0 0.471621 -0.704953" class="st6"/>
		</g>
		<g id="shape982-508" transform="translate(615.23,-250.772)">
			<title>Sheet.982</title>
			<path d="M0.94 354.98 A1.02047 1.02047 -180 0 0 0 354.35 L0.94 354.98 Z" class="st1"/>
			<path d="M0.94 354.98 A1.02047 1.02047 -180 0 0 0 354.35" class="st6"/>
		</g>
		<g id="shape983-511" transform="translate(974.86,115.029) rotate(90)">
			<title>Sheet.983</title>
			<path d="M0 354.98 L1.04 354.98" class="st6"/>
		</g>
		<g id="shape984-514" transform="translate(619.877,-238.91)">
			<title>Sheet.984</title>
			<path d="M0 354.98 a0.510236 0.510236 -180 0 0 0.510236 -0.510236 L0 354.98 Z" class="st1"/>
			<path d="M0 354.98 a0.510236 0.510236 -180 0 0 0.510236 -0.510236" class="st6"/>
		</g>
		<g id="shape985-517" transform="translate(265.404,115.563) rotate(-90)">
			<title>Sheet.985</title>
			<path d="M0 354.98 L1.04 354.98" class="st6"/>
		</g>
		<g id="shape986-520" transform="translate(978.37,115.029) rotate(90)">
			<title>Sheet.986</title>
			<path d="M0 354.98 L1.04 354.98" class="st6"/>
		</g>
		<g id="shape987-523" transform="translate(622.443,-238.91)">
			<title>Sheet.987</title>
			<path d="M0 354.35 A1.02047 1.02047 -180 0 0 0.94 354.98 L0 354.35 Z" class="st1"/>
			<path d="M0 354.35 A1.02047 1.02047 -180 0 0 0.94 354.98" class="st6"/>
		</g>
		<g id="shape988-526" transform="translate(977.426,114.398) rotate(90)">
			<title>Sheet.988</title>
			<path d="M0 354.98 L1.04 354.98" class="st6"/>
		</g>
		<g id="shape989-529" transform="translate(973.213,104.091) rotate(90)">
			<title>Sheet.989</title>
			<path d="M0 354.98 L1.04 354.98" class="st6"/>
		</g>
		<g id="shape990-532" transform="translate(618.229,-249.848)">
			<title>Sheet.990</title>
		</g>
		<g id="shape991-533" transform="translate(1009.22,115.029) rotate(90)">
			<title>Sheet.991</title>
			<path d="M0 354.98 L1.04 354.98" class="st6"/>
		</g>
		<g id="shape992-536" transform="translate(1031.59,129.107) rotate(90)">
			<title>Sheet.992</title>
			<path d="M0 354.98 L2.7 354.98" class="st6"/>
		</g>
		<g id="shape993-539" transform="translate(828.982,129.107) rotate(90)">
			<title>Sheet.993</title>
			<path d="M0 354.98 L2.7 354.98" class="st6"/>
		</g>
		<g id="shape994-542" transform="translate(852.031,115.029) rotate(90)">
			<title>Sheet.994</title>
			<path d="M0 354.98 L1.04 354.98" class="st6"/>
		</g>
		<g id="shape995-545" transform="translate(477.217,-321.208)">
			<title>Sheet.995</title>
			<desc>CoAP Client</desc>
			<rect x="0" y="339.865" width="197.596" height="15.1181" class="st4"/>
			<text x="63.03" y="349.69" class="st10">CoAP Client</text>		</g>
		<g id="shape998-548" transform="translate(185.907,-72.247)">
			<title>Sheet.998</title>
			<desc>BLE 6lowpan</desc>
			<rect x="0" y="347.424" width="135.084" height="7.55906" class="st4"/>
			<text x="47.94" y="354.61" class="st11">BLE 6lowpan</text>		</g>
		<g id="shape999-551" transform="translate(828.114,-72.247)">
			<title>Sheet.999</title>
			<desc>BLE 6lowpan</desc>
			<rect x="0" y="347.424" width="135.084" height="7.55906" class="st4"/>
			<text x="47.94" y="354.61" class="st11">BLE 6lowpan</text>		</g>
		<g id="shape1008-554" transform="translate(16.7002,-78.4785)">
			<title>Sheet.1008</title>
			<desc>CoAP observer client</desc>
			<rect x="0" y="339.865" width="197.596" height="15.1181" class="st4"/>
			<text x="0" y="349.69" class="st12">CoAP observer <tspan x="0" dy="1.2em" class="st8">client</tspan></text>		</g>
		<g id="shape1009-558" transform="translate(153.637,-24.9589)">
			<title>Sheet.1009</title>
			<path d="M0 354.98 L22.68 354.98 L22.68 332.31 L0 332.31 L0 354.98 Z" class="st13"/>
		</g>
		<g id="shape1010-560" transform="translate(157.932,-29.2532)">
			<title>Sheet.1010</title>
			<ellipse cx="7.04425" cy="347.939" rx="7.04425" ry="7.04425" class="st14"/>
		</g>
		<g id="shape1011-562" transform="translate(152.939,-49.5677)">
			<title>Sheet.1011</title>
			<desc>Button 1</desc>
			<rect x="0" y="349.314" width="24.2894" height="5.66929" class="st4"/>
			<text x="2.15" y="354.7" class="st15">Button 1</text>		</g>
		<g id="shape1012-565" transform="translate(8.10764,-106.785)">
			<title>Sheet.1012</title>
			<path d="M0 354.98 L209.33 354.98" class="st2"/>
		</g>
		<g id="shape1013-568" transform="translate(572.42,248.198) rotate(90)">
			<title>Sheet.1013</title>
			<path d="M0 354.98 L65.03 354.98" class="st2"/>
		</g>
		<g id="shape1014-571" transform="translate(572.42,319.398) rotate(90)">
			<title>Sheet.1014</title>
			<path d="M0 354.98 L17.96 354.98" class="st2"/>
		</g>
		<g id="shape1015-574" transform="translate(217.437,692.346) rotate(180)">
			<title>Sheet.1015</title>
			<path d="M0 354.98 L209.33 354.98" class="st2"/>
		</g>
		<g id="shape1016-577" transform="translate(-346.876,337.362) rotate(-90)">
			<title>Sheet.1016</title>
			<path d="M0 354.98 L89.16 354.98" class="st2"/>
		</g>
		<g id="shape1017-580" transform="translate(946.09,-78.4785)">
			<title>Sheet.1017</title>
			<desc>CoAP observable Light server</desc>
			<rect x="0" y="339.865" width="197.596" height="15.1181" class="st4"/>
			<text x="0" y="349.69" class="st12">CoAP observable <tspan x="0" dy="1.2em" class="st8">Light server</tspan></text>		</g>
		<g id="shape1018-584" transform="translate(931.272,-106.785)">
			<title>Sheet.1018</title>
			<path d="M0 354.98 L209.33 354.98" class="st2"/>
		</g>
		<g id="shape1019-587" transform="translate(1495.58,248.198) rotate(90)">
			<title>Sheet.1019</title>
			<path d="M0 354.98 L89.16 354.98" class="st2"/>
		</g>
		<g id="shape1020-590" transform="translate(1140.6,692.346) rotate(180)">
			<title>Sheet.1020</title>
			<path d="M0 354.98 L209.33 354.98" class="st2"/>
		</g>
		<g id="shape1021-593" transform="translate(576.289,337.362) rotate(-90)">
			<title>Sheet.1021</title>
			<path d="M0 354.98 L19.63 354.98" class="st2"/>
		</g>
		<g id="shape1022-596" transform="translate(576.289,314.898) rotate(-90)">
			<title>Sheet.1022</title>
			<path d="M0 354.98 L66.7 354.98" class="st2"/>
		</g>
		<g id="shape1081-599" transform="translate(1109.65,-58.8762)">
			<title>Sheet.1081</title>
			<path d="M0 354.98 L22.68 354.98 L22.68 319.76 L0 319.76 L0 354.98 Z" class="st13"/>
		</g>
		<g id="shape1082-601" transform="translate(1113.95,-78.2471)">
			<title>Sheet.1082</title>
			<path d="M12.44 354.98 A7.04425 7.04425 -180 1 0 1.62 354.98 L12.44 354.98 Z" class="st1"/>
			<path d="M12.44 354.98 A7.04425 7.04425 -180 1 0 1.62 354.98" class="st2"/>
		</g>
		<g id="shape1083-604" transform="translate(1108.95,-96.0282)">
			<title>Sheet.1083</title>
			<desc>Light 1</desc>
			<rect x="0" y="349.314" width="24.2894" height="5.66929" class="st4"/>
			<text x="4.45" y="354.7" class="st15">Light 1</text>		</g>
		<g id="shape1084-607" transform="translate(1117.77,-69.2275)">
			<title>Sheet.1084</title>
			<path d="M0 354.98 L6.44 354.98" class="st2"/>
		</g>
		<g id="shape1085-610" transform="translate(1115.58,-69.2275)">
			<title>Sheet.1085</title>
			<path d="M2.19 354.98 A17.0418 17.0418 -180 0 0 0 345.96 L2.19 354.98 Z" class="st1"/>
			<path d="M2.19 354.98 A17.0418 17.0418 -180 0 0 0 345.96" class="st2"/>
		</g>
		<g id="shape1086-613" transform="translate(1124.21,-69.2275)">
			<title>Sheet.1086</title>
			<path d="M2.19 345.96 A17.0418 17.0418 -180 0 0 0 354.98 L2.19 345.96 Z" class="st1"/>
			<path d="M2.19 345.96 A17.0418 17.0418 -180 0 0 0 354.98" class="st2"/>
		</g>
		<g id="shape1087-616" transform="translate(1117.77,-63.4882)">
			<title>Sheet.1087</title>
			<path d="M0 354.98 L6.44 354.98" class="st2"/>
		</g>
		<g id="shape1088-619" transform="translate(1118.36,-62.9256)">
			<title>Sheet.1088</title>
			<path d="M0 354.98 L5.25 354.98" class="st2"/>
		</g>
		<g id="shape1089-622" transform="translate(874.181,549.72) rotate(-136.539)">
			<title>Sheet.1089</title>
			<path d="M0 354.98 L0.82 354.98" class="st2"/>
		</g>
		<g id="shape1090-625" transform="translate(879.434,34.3953) rotate(-43.4609)">
			<title>Sheet.1090</title>
			<path d="M0 354.98 L0.82 354.98" class="st2"/>
		</g>
		<g id="shape1091-628" transform="translate(1472.75,285.756) rotate(90)">
			<title>Sheet.1091</title>
			<path d="M0 354.98 L0.93 354.98" class="st2"/>
		</g>
		<g id="shape1092-631" transform="translate(762.782,291.495) rotate(-90)">
			<title>Sheet.1092</title>
			<path d="M0 354.98 L0.69 354.98" class="st2"/>
		</g>
		<g id="shape1093-634" transform="translate(868.229,543.277) rotate(-135.336)">
			<title>Sheet.1093</title>
			<path d="M0 354.98 L0.45 354.98" class="st2"/>
		</g>
		<g id="shape1094-637" transform="translate(867.906,37.803) rotate(-44.6645)">
			<title>Sheet.1094</title>
			<path d="M0 354.98 L0.45 354.98" class="st2"/>
		</g>
		<g id="shape1095-640" transform="translate(1117.54,-64.6029)">
			<title>Sheet.1095</title>
		</g>
		<g id="shape1096-641" transform="translate(874.669,37.7457) rotate(-44.6645)">
			<title>Sheet.1096</title>
			<path d="M0 354.98 L0.45 354.98" class="st2"/>
		</g>
		<g id="shape1097-644" transform="translate(874.992,542.178) rotate(-135.336)">
			<title>Sheet.1097</title>
			<path d="M0 354.98 L0.45 354.98" class="st2"/>
		</g>
		<g id="shape1098-647" transform="translate(1124.43,-65.1812)">
			<title>Sheet.1098</title>
		</g>
		<g id="shape1099-648" transform="translate(868.229,542.186) rotate(-135.336)">
			<title>Sheet.1099</title>
			<path d="M0 354.98 L0.45 354.98" class="st2"/>
		</g>
		<g id="shape1100-651" transform="translate(867.906,36.7121) rotate(-44.6645)">
			<title>Sheet.1100</title>
			<path d="M0 354.98 L0.45 354.98" class="st2"/>
		</g>
		<g id="shape1101-654" transform="translate(1117.54,-65.6938)">
			<title>Sheet.1101</title>
		</g>
		<g id="shape1102-655" transform="translate(874.669,36.6548) rotate(-44.6645)">
			<title>Sheet.1102</title>
			<path d="M0 354.98 L0.45 354.98" class="st2"/>
		</g>
		<g id="shape1103-658" transform="translate(874.992,541.087) rotate(-135.336)">
			<title>Sheet.1103</title>
			<path d="M0 354.98 L0.45 354.98" class="st2"/>
		</g>
		<g id="shape1104-661" transform="translate(1124.43,-66.2721)">
			<title>Sheet.1104</title>
		</g>
		<g id="shape1105-662" transform="translate(868.229,541.095) rotate(-135.336)">
			<title>Sheet.1105</title>
			<path d="M0 354.98 L0.45 354.98" class="st2"/>
		</g>
		<g id="shape1106-665" transform="translate(867.906,35.6212) rotate(-44.6645)">
			<title>Sheet.1106</title>
			<path d="M0 354.98 L0.45 354.98" class="st2"/>
		</g>
		<g id="shape1107-668" transform="translate(1117.54,-66.7847)">
			<title>Sheet.1107</title>
		</g>
		<g id="shape1108-669" transform="translate(874.669,35.5639) rotate(-44.6645)">
			<title>Sheet.1108</title>
			<path d="M0 354.98 L0.45 354.98" class="st2"/>
		</g>
		<g id="shape1109-672" transform="translate(874.992,539.996) rotate(-135.336)">
			<title>Sheet.1109</title>
			<path d="M0 354.98 L0.45 354.98" class="st2"/>
		</g>
		<g id="shape1110-675" transform="translate(1124.43,-67.363)">
			<title>Sheet.1110</title>
		</g>
		<g id="shape1111-676" transform="translate(868.229,540.005) rotate(-135.336)">
			<title>Sheet.1111</title>
			<path d="M0 354.98 L0.45 354.98" class="st2"/>
		</g>
		<g id="shape1112-679" transform="translate(867.906,34.5303) rotate(-44.6645)">
			<title>Sheet.1112</title>
			<path d="M0 354.98 L0.45 354.98" class="st2"/>
		</g>
		<g id="shape1113-682" transform="translate(1117.54,-67.8756)">
			<title>Sheet.1113</title>
		</g>
		<g id="shape1114-683" transform="translate(874.669,34.473) rotate(-44.6645)">
			<title>Sheet.1114</title>
			<path d="M0 354.98 L0.45 354.98" class="st2"/>
		</g>
		<g id="shape1115-686" transform="translate(874.992,538.905) rotate(-135.336)">
			<title>Sheet.1115</title>
			<path d="M0 354.98 L0.45 354.98" class="st2"/>
		</g>
		<g id="shape1116-689" transform="translate(1124.43,-68.4539)">
			<title>Sheet.1116</title>
		</g>
		<g id="shape1117-690" transform="translate(1086.02,-66.8733) rotate(-5.131)">
			<title>Sheet.1117</title>
			<path d="M0 354.98 L6.47 354.98" class="st2"/>
		</g>
		<g id="shape1118-693" transform="translate(1086.02,-66.0328) rotate(-5.131)">
			<title>Sheet.1118</title>
			<path d="M0 354.98 L6.47 354.98" class="st2"/>
		</g>
		<g id="shape1119-696" transform="translate(1086.02,-65.7824) rotate(-5.131)">
			<title>Sheet.1119</title>
			<path d="M0 354.98 L6.47 354.98" class="st2"/>
		</g>
		<g id="shape1120-699" transform="translate(1086.02,-64.9419) rotate(-5.131)">
			<title>Sheet.1120</title>
			<path d="M0 354.98 L6.47 354.98" class="st2"/>
		</g>
		<g id="shape1121-702" transform="translate(1086.02,-64.6915) rotate(-5.131)">
			<title>Sheet.1121</title>
			<path d="M0 354.98 L6.47 354.98" class="st2"/>
		</g>
		<g id="shape1122-705" transform="translate(1086.02,-63.8511) rotate(-5.131)">
			<title>Sheet.1122</title>
			<path d="M0 354.98 L6.47 354.98" class="st2"/>
		</g>
		<g id="shape1123-708" transform="translate(1086.02,-63.6007) rotate(-5.131)">
			<title>Sheet.1123</title>
			<path d="M0 354.98 L6.47 354.98" class="st2"/>
		</g>
		<g id="shape1124-711" transform="translate(1086.02,-62.7602) rotate(-5.131)">
			<title>Sheet.1124</title>
			<path d="M0 354.98 L6.47 354.98" class="st2"/>
		</g>
		<g id="shape1125-714" transform="translate(1472.75,287.528) rotate(90)">
			<title>Sheet.1125</title>
			<path d="M0 354.98 L0.25 354.98" class="st2"/>
		</g>
		<g id="shape1126-717" transform="translate(1472.75,288.619) rotate(90)">
			<title>Sheet.1126</title>
			<path d="M0 354.98 L0.25 354.98" class="st2"/>
		</g>
		<g id="shape1127-720" transform="translate(1472.75,289.71) rotate(90)">
			<title>Sheet.1127</title>
			<path d="M0 354.98 L0.25 354.98" class="st2"/>
		</g>
		<g id="shape1128-723" transform="translate(769.223,289.382) rotate(-90)">
			<title>Sheet.1128</title>
			<path d="M0 354.98 L0.25 354.98" class="st2"/>
		</g>
		<g id="shape1129-726" transform="translate(769.223,288.291) rotate(-90)">
			<title>Sheet.1129</title>
			<path d="M0 354.98 L0.25 354.98" class="st2"/>
		</g>
		<g id="shape1130-729" transform="translate(769.223,287.2) rotate(-90)">
			<title>Sheet.1130</title>
			<path d="M0 354.98 L0.25 354.98" class="st2"/>
		</g>
		<g id="shape1131-732" transform="translate(1479.19,285.756) rotate(90)">
			<title>Sheet.1131</title>
			<path d="M0 354.98 L0.35 354.98" class="st2"/>
		</g>
		<g id="shape1132-735" transform="translate(1479.19,290.222) rotate(90)">
			<title>Sheet.1132</title>
			<path d="M0 354.98 L1.27 354.98" class="st2"/>
		</g>
		<g id="shape1133-738" transform="translate(1120.35,-62.673)">
			<title>Sheet.1133</title>
			<path d="M0 354.98 L1.27 354.98" class="st2"/>
		</g>
		<g id="shape1134-741" transform="translate(876.641,550.415) rotate(-136.643)">
			<title>Sheet.1134</title>
			<path d="M0 354.98 L0.37 354.98" class="st2"/>
		</g>
		<g id="shape1135-744" transform="translate(877.908,34.2055) rotate(-43.357)">
			<title>Sheet.1135</title>
			<path d="M0 354.98 L0.37 354.98" class="st2"/>
		</g>
		<g id="shape1136-747" transform="translate(1109.65,-24.8602)">
			<title>Sheet.1136</title>
			<path d="M0 354.98 L22.68 354.98 L22.68 332.31 L0 332.31 L0 354.98 Z" class="st13"/>
		</g>
		<g id="shape1137-749" transform="translate(1113.94,-29.1546)">
			<title>Sheet.1137</title>
			<ellipse cx="7.04425" cy="347.939" rx="7.04425" ry="7.04425" class="st14"/>
		</g>
		<g id="shape1138-751" transform="translate(1108.95,-49.469)">
			<title>Sheet.1138</title>
			<desc>Button 1</desc>
			<rect x="0" y="349.314" width="24.2894" height="5.66929" class="st4"/>
			<text x="2.15" y="354.7" class="st15">Button 1</text>		</g>
		<g id="shape1139-754" transform="translate(186.483,-58.8762)">
			<title>Sheet.1139</title>
			<path d="M0 354.98 L22.68 354.98 L22.68 319.76 L0 319.76 L0 354.98 Z" class="st13"/>
		</g>
		<g id="shape1140-756" transform="translate(190.79,-78.2471)">
			<title>Sheet.1140</title>
			<path d="M12.44 354.98 A7.04425 7.04425 -180 1 0 1.62 354.98 L12.44 354.98 Z" class="st1"/>
			<path d="M12.44 354.98 A7.04425 7.04425 -180 1 0 1.62 354.98" class="st2"/>
		</g>
		<g id="shape1141-759" transform="translate(185.785,-96.0282)">
			<title>Sheet.1141</title>
			<desc>Light 1</desc>
			<rect x="0" y="349.314" width="24.2894" height="5.66929" class="st4"/>
			<text x="4.45" y="354.7" class="st15">Light 1</text>		</g>
		<g id="shape1142-762" transform="translate(194.601,-69.2275)">
			<title>Sheet.1142</title>
			<path d="M0 354.98 L6.44 354.98" class="st2"/>
		</g>
		<g id="shape1143-765" transform="translate(192.411,-69.2275)">
			<title>Sheet.1143</title>
			<path d="M2.19 354.98 A17.0418 17.0418 -180 0 0 0 345.96 L2.19 354.98 Z" class="st1"/>
			<path d="M2.19 354.98 A17.0418 17.0418 -180 0 0 0 345.96" class="st2"/>
		</g>
		<g id="shape1144-768" transform="translate(201.042,-69.2275)">
			<title>Sheet.1144</title>
			<path d="M2.19 345.96 A17.0418 17.0418 -180 0 0 0 354.98 L2.19 345.96 Z" class="st1"/>
			<path d="M2.19 345.96 A17.0418 17.0418 -180 0 0 0 354.98" class="st2"/>
		</g>
		<g id="shape1145-771" transform="translate(194.601,-63.4882)">
			<title>Sheet.1145</title>
			<path d="M0 354.98 L6.44 354.98" class="st2"/>
		</g>
		<g id="shape1146-774" transform="translate(195.195,-62.9256)">
			<title>Sheet.1146</title>
			<path d="M0 354.98 L5.25 354.98" class="st2"/>
		</g>
		<g id="shape1147-777" transform="translate(-48.9836,549.72) rotate(-136.539)">
			<title>Sheet.1147</title>
			<path d="M0 354.98 L0.82 354.98" class="st2"/>
		</g>
		<g id="shape1148-780" transform="translate(-43.7306,34.3953) rotate(-43.4609)">
			<title>Sheet.1148</title>
			<path d="M0 354.98 L0.82 354.98" class="st2"/>
		</g>
		<g id="shape1149-783" transform="translate(549.585,285.756) rotate(90)">
			<title>Sheet.1149</title>
			<path d="M0 354.98 L0.93 354.98" class="st2"/>
		</g>
		<g id="shape1150-786" transform="translate(-160.382,291.495) rotate(-90)">
			<title>Sheet.1150</title>
			<path d="M0 354.98 L0.69 354.98" class="st2"/>
		</g>
		<g id="shape1151-789" transform="translate(-54.9356,543.277) rotate(-135.336)">
			<title>Sheet.1151</title>
			<path d="M0 354.98 L0.45 354.98" class="st2"/>
		</g>
		<g id="shape1152-792" transform="translate(-55.2588,37.803) rotate(-44.6645)">
			<title>Sheet.1152</title>
			<path d="M0 354.98 L0.45 354.98" class="st2"/>
		</g>
		<g id="shape1153-795" transform="translate(194.378,-64.6029)">
			<title>Sheet.1153</title>
		</g>
		<g id="shape1154-796" transform="translate(-48.4952,37.7457) rotate(-44.6645)">
			<title>Sheet.1154</title>
			<path d="M0 354.98 L0.45 354.98" class="st2"/>
		</g>
		<g id="shape1155-799" transform="translate(-48.172,542.178) rotate(-135.336)">
			<title>Sheet.1155</title>
			<path d="M0 354.98 L0.45 354.98" class="st2"/>
		</g>
		<g id="shape1156-802" transform="translate(201.265,-65.1812)">
			<title>Sheet.1156</title>
		</g>
		<g id="shape1157-803" transform="translate(-54.9356,542.186) rotate(-135.336)">
			<title>Sheet.1157</title>
			<path d="M0 354.98 L0.45 354.98" class="st2"/>
		</g>
		<g id="shape1158-806" transform="translate(-55.2588,36.7121) rotate(-44.6645)">
			<title>Sheet.1158</title>
			<path d="M0 354.98 L0.45 354.98" class="st2"/>
		</g>
		<g id="shape1159-809" transform="translate(194.378,-65.6938)">
			<title>Sheet.1159</title>
		</g>
		<g id="shape1160-810" transform="translate(-48.4952,36.6548) rotate(-44.6645)">
			<title>Sheet.1160</title>
			<path d="M0 354.98 L0.45 354.98" class="st2"/>
		</g>
		<g id="shape1161-813" transform="translate(-48.172,541.087) rotate(-135.336)">
			<title>Sheet.1161</title>
			<path d="M0 354.98 L0.45 354.98" class="st2"/>
		</g>
		<g id="shape1162-816" transform="translate(201.265,-66.2721)">
			<title>Sheet.1162</title>
		</g>
		<g id="shape1163-817" transform="translate(-54.9356,541.095) rotate(-135.336)">
			<title>Sheet.1163</title>
			<path d="M0 354.98 L0.45 354.98" class="st2"/>
		</g>
		<g id="shape1164-820" transform="translate(-55.2588,35.6212) rotate(-44.6645)">
			<title>Sheet.1164</title>
			<path d="M0 354.98 L0.45 354.98" class="st2"/>
		</g>
		<g id="shape1165-823" transform="translate(194.378,-66.7847)">
			<title>Sheet.1165</title>
		</g>
		<g id="shape1166-824" transform="translate(-48.4952,35.5639) rotate(-44.6645)">
			<title>Sheet.1166</title>
			<path d="M0 354.98 L0.45 354.98" class="st2"/>
		</g>
		<g id="shape1167-827" transform="translate(-48.172,539.996) rotate(-135.336)">
			<title>Sheet.1167</title>
			<path d="M0 354.98 L0.45 354.98" class="st2"/>
		</g>
		<g id="shape1168-830" transform="translate(201.265,-67.363)">
			<title>Sheet.1168</title>
		</g>
		<g id="shape1169-831" transform="translate(-54.9356,540.005) rotate(-135.336)">
			<title>Sheet.1169</title>
			<path d="M0 354.98 L0.45 354.98" class="st2"/>
		</g>
		<g id="shape1170-834" transform="translate(-55.2588,34.5303) rotate(-44.6645)">
			<title>Sheet.1170</title>
			<path d="M0 354.98 L0.45 354.98" class="st2"/>
		</g>
		<g id="shape1171-837" transform="translate(194.378,-67.8756)">
			<title>Sheet.1171</title>
		</g>
		<g id="shape1172-838" transform="translate(-48.4952,34.473) rotate(-44.6645)">
			<title>Sheet.1172</title>
			<path d="M0 354.98 L0.45 354.98" class="st2"/>
		</g>
		<g id="shape1173-841" transform="translate(-48.172,538.905) rotate(-135.336)">
			<title>Sheet.1173</title>
			<path d="M0 354.98 L0.45 354.98" class="st2"/>
		</g>
		<g id="shape1174-844" transform="translate(201.265,-68.4539)">
			<title>Sheet.1174</title>
		</g>
		<g id="shape1175-845" transform="translate(162.854,-66.8733) rotate(-5.131)">
			<title>Sheet.1175</title>
			<path d="M0 354.98 L6.47 354.98" class="st2"/>
		</g>
		<g id="shape1176-848" transform="translate(162.854,-66.0328) rotate(-5.131)">
			<title>Sheet.1176</title>
			<path d="M0 354.98 L6.47 354.98" class="st2"/>
		</g>
		<g id="shape1177-851" transform="translate(162.854,-65.7824) rotate(-5.131)">
			<title>Sheet.1177</title>
			<path d="M0 354.98 L6.47 354.98" class="st2"/>
		</g>
		<g id="shape1178-854" transform="translate(162.854,-64.9419) rotate(-5.131)">
			<title>Sheet.1178</title>
			<path d="M0 354.98 L6.47 354.98" class="st2"/>
		</g>
		<g id="shape1179-857" transform="translate(162.854,-64.6915) rotate(-5.131)">
			<title>Sheet.1179</title>
			<path d="M0 354.98 L6.47 354.98" class="st2"/>
		</g>
		<g id="shape1180-860" transform="translate(162.854,-63.8511) rotate(-5.131)">
			<title>Sheet.1180</title>
			<path d="M0 354.98 L6.47 354.98" class="st2"/>
		</g>
		<g id="shape1181-863" transform="translate(162.854,-63.6007) rotate(-5.131)">
			<title>Sheet.1181</title>
			<path d="M0 354.98 L6.47 354.98" class="st2"/>
		</g>
		<g id="shape1182-866" transform="translate(162.854,-62.7602) rotate(-5.131)">
			<title>Sheet.1182</title>
			<path d="M0 354.98 L6.47 354.98" class="st2"/>
		</g>
		<g id="shape1183-869" transform="translate(549.585,287.528) rotate(90)">
			<title>Sheet.1183</title>
			<path d="M0 354.98 L0.25 354.98" class="st2"/>
		</g>
		<g id="shape1184-872" transform="translate(549.585,288.619) rotate(90)">
			<title>Sheet.1184</title>
			<path d="M0 354.98 L0.25 354.98" class="st2"/>
		</g>
		<g id="shape1185-875" transform="translate(549.585,289.71) rotate(90)">
			<title>Sheet.1185</title>
			<path d="M0 354.98 L0.25 354.98" class="st2"/>
		</g>
		<g id="shape1186-878" transform="translate(-153.942,289.382) rotate(-90)">
			<title>Sheet.1186</title>
			<path d="M0 354.98 L0.25 354.98" class="st2"/>
		</g>
		<g id="shape1187-881" transform="translate(-153.942,288.291) rotate(-90)">
			<title>Sheet.1187</title>
			<path d="M0 354.98 L0.25 354.98" class="st2"/>
		</g>
		<g id="shape1188-884" transform="translate(-153.942,287.2) rotate(-90)">
			<title>Sheet.1188</title>
			<path d="M0 354.98 L0.25 354.98" class="st2"/>
		</g>
		<g id="shape1189-887" transform="translate(556.025,285.756) rotate(90)">
			<title>Sheet.1189</title>
			<path d="M0 354.98 L0.35 354.98" class="st2"/>
		</g>
		<g id="shape1190-890" transform="translate(556.025,290.222) rotate(90)">
			<title>Sheet.1190</title>
			<path d="M0 354.98 L1.27 354.98" class="st2"/>
		</g>
		<g id="shape1191-893" transform="translate(197.188,-62.673)">
			<title>Sheet.1191</title>
			<path d="M0 354.98 L1.27 354.98" class="st2"/>
		</g>
		<g id="shape1192-896" transform="translate(-46.5231,550.415) rotate(-136.643)">
			<title>Sheet.1192</title>
			<path d="M0 354.98 L0.37 354.98" class="st2"/>
		</g>
		<g id="shape1193-899" transform="translate(-45.2558,34.2055) rotate(-43.357)">
			<title>Sheet.1193</title>
			<path d="M0 354.98 L0.37 354.98" class="st2"/>
		</g>
		<g id="shape1194-902" transform="translate(186.483,-24.8602)">
			<title>Sheet.1194</title>
			<path d="M0 354.98 L22.68 354.98 L22.68 332.31 L0 332.31 L0 354.98 Z" class="st13"/>
		</g>
		<g id="shape1195-904" transform="translate(190.777,-29.1546)">
			<title>Sheet.1195</title>
			<ellipse cx="7.04425" cy="347.939" rx="7.04425" ry="7.04425" class="st14"/>
		</g>
		<g id="shape1196-906" transform="translate(185.785,-49.469)">
			<title>Sheet.1196</title>
			<desc>Button 2</desc>
			<rect x="0" y="349.314" width="24.2894" height="5.66929" class="st4"/>
			<text x="2.15" y="354.7" class="st15">Button 2</text>		</g>
	</g>
</svg>
