<?xml version="1.0" encoding="UTF-8" standalone="no"?>
<!DOCTYPE svg PUBLIC "-//W3C//DTD SVG 1.1//EN" "http://www.w3.org/Graphics/SVG/1.1/DTD/svg11.dtd">
<!-- Generated by Microsoft Visio, SVG Export CoAP Overall.svg Page-1 -->
<svg xmlns="http://www.w3.org/2000/svg" xmlns:xlink="http://www.w3.org/1999/xlink" xmlns:ev="http://www.w3.org/2001/xml-events"
		width="8in" height="2.5in" viewBox="0 0 1148.98 354.938" xml:space="preserve" color-interpolation-filters="sRGB"
		class="st12">
	<style type="text/css">
	<![CDATA[
		.st1 {fill:none}
		.st2 {stroke:#000000;stroke-linecap:round;stroke-linejoin:round;stroke-width:0.75}
		.st3 {fill:none;stroke:#000000;stroke-linecap:butt;stroke-width:0.75}
		.st4 {fill:none;stroke:#000000;stroke-linecap:round;stroke-linejoin:round;stroke-width:0.75}
		.st5 {fill:none;stroke:none;stroke-linecap:round;stroke-linejoin:round;stroke-width:0.75}
		.st6 {fill:#000000;font-family:Calibri;font-size:1.25983em}
		.st7 {fill:#000000;font-family:Calibri;font-size:0.472435em}
		.st8 {fill:#000000;font-family:Calibri;font-size:1.88976em}
		.st9 {fill:#000000;font-family:Calibri;font-size:0.944893em}
		.st10 {font-size:1em}
		.st11 {fill:#000000;font-family:Calibri;font-size:0.629929em}
		.st12 {fill:none;fill-rule:evenodd;font-size:12px;overflow:visible;stroke-linecap:square;stroke-miterlimit:3}
	]]>
	</style>

	<g>
		<title>Page-1</title>
		<g id="group15043-1" transform="translate(456.743,-6.25278E-013)">
			<title>Sheet.15043</title>
			<g id="shape15044-2" transform="translate(22.0027,-80.3194)">
				<title>Sheet.15044</title>
				<path d="M0.23 354.94 C0.03 351.72 -0.18 348.51 0.23 345.3 C0.86 340.25 2.99 335.23 6.28 331.4 C11.53 325.31 19.74
							 322.28 28.03 320.87 C35.74 319.56 43.52 319.65 50.46 322.21 C54.21 323.6 57.72 325.71 61.22 327.82 L0.23
							 354.94 Z" class="st1"/>
				<path d="M0.23 354.94 C0.03 351.72 -0.18 348.51 0.23 345.3 C0.86 340.25 2.99 335.23 6.28 331.4 C11.53 325.31 19.74
							 322.28 28.03 320.87 C35.74 319.56 43.52 319.65 50.46 322.21 C54.21 323.6 57.72 325.71 61.22 327.82"
						class="st2"/>
			</g>
			<g id="shape15045-5" transform="translate(75.7498,-111.635)">
				<title>Sheet.15045</title>
				<path d="M-0 354.94 C2.22 352.44 4.56 350.12 7.25 348.37 C13.05 344.62 20.52 343.53 27.88 343.67 C33.49 343.77 39.03
							 344.59 43.58 347.25 C44.7 347.9 45.75 348.66 46.77 349.49 L0 354.94 Z" class="st1"/>
				<path d="M-0 354.94 C2.22 352.44 4.56 350.12 7.25 348.37 C13.05 344.62 20.52 343.53 27.88 343.67 C33.49 343.77 39.03
							 344.59 43.58 347.25 C44.7 347.9 45.75 348.66 46.77 349.49" class="st2"/>
			</g>
			<g id="shape15046-8" transform="translate(119.735,-113.351)">
				<title>Sheet.15046</title>
				<path d="M0 354.94 C2.53 351.32 5.23 347.9 8.79 345.61 C15.63 341.2 25.67 340.9 33.46 344.04 C36.91 345.43 39.93
							 347.5 42.82 349.74 L0 354.94 Z" class="st1"/>
				<path d="M0 354.94 C2.53 351.32 5.23 347.9 8.79 345.61 C15.63 341.2 25.67 340.9 33.46 344.04 C36.91 345.43 39.93
							 347.5 42.82 349.74" class="st2"/>
			</g>
			<g id="shape15047-11" transform="translate(157.556,-107.507)">
				<title>Sheet.15047</title>
				<path d="M0 347.53 C4.18 344.37 8.42 341.34 13.17 339.27 C18.62 336.9 24.74 335.81 30.8 336.64 C35.59 337.3 40.33
							 339.16 43.7 342.25 C47.23 345.49 49.25 350.08 51 354.91 C51 354.92 51 354.92 51 354.93 C51 354.93 51
							 354.93 51 354.94 L0 347.53 Z" class="st1"/>
				<path d="M0 347.53 C4.18 344.37 8.42 341.34 13.17 339.27 C18.62 336.9 24.74 335.81 30.8 336.64 C35.59 337.3 40.33
							 339.16 43.7 342.25 C47.23 345.49 49.25 350.08 51 354.91 C51 354.92 51 354.92 51 354.93 C51 354.93 51
							 354.93 51 354.94" class="st2"/>
			</g>
			<g id="shape15048-14" transform="translate(207.1,-73.9621)">
				<title>Sheet.15048</title>
				<path d="M0 321.51 C2.67 321.28 3.89 321.26 5.12 321.33 C8.51 321.54 11.99 322.51 14.68 324.49 C17.77 326.75 19.83
							 330.33 21 334.13 C22.13 337.8 22.43 341.67 21.35 345.27 C20.5 348.07 18.82 350.71 16.61 352.54 C15.4
							 353.55 14.02 354.31 12.56 354.94 L0 321.51 Z" class="st1"/>
				<path d="M0 321.51 C2.67 321.28 3.89 321.26 5.12 321.33 C8.51 321.54 11.99 322.51 14.68 324.49 C17.77 326.75 19.83
							 330.33 21 334.13 C22.13 337.8 22.43 341.67 21.35 345.27 C20.5 348.07 18.82 350.71 16.61 352.54 C15.4
							 353.55 14.02 354.31 12.56 354.94" class="st2"/>
			</g>
			<g id="shape15049-17" transform="translate(204.491,-39.8496)">
				<title>Sheet.15049</title>
				<path d="M22.59 314.34 C25.24 317.33 27.66 320.44 28.99 324.11 C30.24 327.54 30.53 331.46 29.7 335.07 C28.92 338.39
							 27.19 341.45 24.96 344.01 C22.09 347.3 18.41 349.75 14.43 351.64 C10.78 353.37 6.87 354.62 2.94 354.88
							 C1.96 354.95 0.98 354.95 -0 354.91 L22.59 314.34 Z" class="st1"/>
				<path d="M22.59 314.34 C25.24 317.33 27.66 320.44 28.99 324.11 C30.24 327.54 30.53 331.46 29.7 335.07 C28.92 338.39
							 27.19 341.45 24.96 344.01 C22.09 347.3 18.41 349.75 14.43 351.64 C10.78 353.37 6.87 354.62 2.94 354.88
							 C1.96 354.95 0.98 354.95 -0 354.91" class="st2"/>
			</g>
			<g id="shape15050-20" transform="translate(156.032,-14.273)">
				<title>Sheet.15050</title>
				<path d="M30.98 310.41 C35.04 312.36 39.1 314.31 42.2 317.36 C44.45 319.57 46.21 322.36 47.36 325.43 C48.82 329.32
							 49.32 333.67 48.26 337.54 C46.7 343.21 41.78 347.87 36.37 350.77 C29.69 354.33 22.24 355.21 14.83 355.03
							 C11.25 354.94 7.67 354.6 4.29 353.68 C2.83 353.28 1.4 352.77 0 352.17 L30.98 310.41 Z" class="st1"/>
				<path d="M30.98 310.41 C35.04 312.36 39.1 314.31 42.2 317.36 C44.45 319.57 46.21 322.36 47.36 325.43 C48.82 329.32
							 49.32 333.67 48.26 337.54 C46.7 343.21 41.78 347.87 36.37 350.77 C29.69 354.33 22.24 355.21 14.83 355.03
							 C11.25 354.94 7.67 354.6 4.29 353.68 C2.83 353.28 1.4 352.77 0 352.17" class="st2"/>
			</g>
			<g id="shape15051-23" transform="translate(86.7007,0)">
				<title>Sheet.15051</title>
				<path d="M71.96 330.7 C70.53 335.49 68.78 340.04 65.77 343.67 C60.74 349.72 52.22 353.18 44.01 354.43 C37.03 355.49
							 30.28 354.96 23.38 353.53 C17.16 352.25 10.82 350.24 6.33 346.13 C3.84 343.86 1.92 340.95 0 338.03 L71.96
							 330.7 Z" class="st1"/>
				<path d="M71.96 330.7 C70.53 335.49 68.78 340.04 65.77 343.67 C60.74 349.72 52.22 353.18 44.01 354.43 C37.03 355.49
							 30.28 354.96 23.38 353.53 C17.16 352.25 10.82 350.24 6.33 346.13 C3.84 343.86 1.92 340.95 0 338.03"
						class="st2"/>
			</g>
			<g id="shape15052-26" transform="translate(34.185,-5.58812)">
				<title>Sheet.15052</title>
				<path d="M57.25 350.1 C57.22 350.11 57.2 350.12 57.18 350.13 C57.18 350.13 57.17 350.13 57.17 350.13 C52.59 351.84
							 47.96 353.33 43.14 354.19 C34.54 355.71 25.37 355.19 17.12 351.95 C11.38 349.68 6.08 346.1 2.32 341.41
							 C1.47 340.36 0.71 339.25 0 338.11 L57.25 350.1 Z" class="st1"/>
				<path d="M57.25 350.1 C57.22 350.11 57.2 350.12 57.18 350.13 C57.18 350.13 57.17 350.13 57.17 350.13 C52.59 351.84
							 47.96 353.33 43.14 354.19 C34.54 355.71 25.37 355.19 17.12 351.95 C11.38 349.68 6.08 346.1 2.32 341.41
							 C1.47 340.36 0.71 339.25 0 338.11" class="st2"/>
			</g>
			<g id="shape15053-29" transform="translate(6.54987,-22.3953)">
				<title>Sheet.15053</title>
				<path d="M32.28 354.63 C29.12 354.91 25.9 355.04 22.55 354.85 C15.36 354.44 7.54 352.54 3.48 347.23 C1.54 344.7 0.46
							 341.39 0.12 338.04 C-0.17 335.25 0.05 332.44 1.01 329.97 C1.79 327.97 3.04 326.2 4.48 324.52 L32.28
							 354.63 Z" class="st1"/>
				<path d="M32.28 354.63 C29.12 354.91 25.9 355.04 22.55 354.85 C15.36 354.44 7.54 352.54 3.48 347.23 C1.54 344.7 0.46
							 341.39 0.12 338.04 C-0.17 335.25 0.05 332.44 1.01 329.97 C1.79 327.97 3.04 326.2 4.48 324.52"
						class="st2"/>
			</g>
			<g id="shape15054-32" transform="translate(1.07914E-013,-48.8131)">
				<title>Sheet.15054</title>
				<path d="M24.56 354.94 C21.4 354.34 18.26 353.6 15.19 352.57 C11.36 351.29 7.63 349.54 4.65 346.74 C2.56 344.79 0.84
							 342.34 0.24 339.58 C-0.44 336.42 0.36 332.86 2.09 330.11 C5.04 325.41 10.72 323.1 16.12 321.43 C18.12
							 320.81 20.08 320.28 22.03 319.78 L24.56 354.94 Z" class="st1"/>
				<path d="M24.56 354.94 C21.4 354.34 18.26 353.6 15.19 352.57 C11.36 351.29 7.63 349.54 4.65 346.74 C2.56 344.79 0.84
							 342.34 0.24 339.58 C-0.44 336.42 0.36 332.86 2.09 330.11 C5.04 325.41 10.72 323.1 16.12 321.43 C18.12
							 320.81 20.08 320.28 22.03 319.78" class="st2"/>
			</g>
		</g>
		<g id="group16031-35" transform="translate(225.815,-54.2767)">
			<title>Sheet.16031</title>
			<g id="shape16032-36" transform="translate(371.946,337.93) rotate(90)">
				<title>Sheet.16032</title>
				<path d="M0 354.94 L4.25 354.94" class="st2"/>
			</g>
			<g id="shape16033-39" transform="translate(371.946,350.686) rotate(90)">
				<title>Sheet.16033</title>
				<path d="M0 354.94 L4.25 354.94" class="st2"/>
			</g>
			<g id="shape16034-42" transform="translate(175.741,655.396) rotate(153.435)">
				<title>Sheet.16034</title>
				<path d="M0 354.94 L19.02 354.94" class="st2"/>
			</g>
			<g id="shape16035-45" transform="translate(158.733,28.9678) rotate(26.5651)">
				<title>Sheet.16035</title>
				<path d="M0 354.94 L19.02 354.94" class="st2"/>
			</g>
			<g id="shape16036-48" transform="translate(17.0079,-12.7559)">
				<title>Sheet.16036</title>
				<path d="M0 354.94 L21.13 354.94" class="st2"/>
			</g>
			<g id="shape16037-51" transform="translate(38.1344,705.623) rotate(180)">
				<title>Sheet.16037</title>
				<path d="M0 354.94 L21.13 354.94" class="st2"/>
			</g>
			<g id="shape16038-54" transform="translate(393.072,337.93) rotate(90)">
				<title>Sheet.16038</title>
				<path d="M0 354.94 L4.25 354.94" class="st2"/>
			</g>
			<g id="shape16039-57" transform="translate(393.072,350.686) rotate(90)">
				<title>Sheet.16039</title>
				<path d="M0 354.94 L4.25 354.94" class="st2"/>
			</g>
			<g id="shape16040-60" transform="translate(196.867,20.4639) rotate(26.5651)">
				<title>Sheet.16040</title>
				<path d="M0 354.94 L19.02 354.94" class="st2"/>
			</g>
			<g id="shape16041-63" transform="translate(213.875,663.9) rotate(153.435)">
				<title>Sheet.16041</title>
				<path d="M0 354.94 L19.02 354.94" class="st2"/>
			</g>
		</g>
		<g id="group16332-66" transform="translate(350.218,-54.2767)">
			<title>Sheet.16332</title>
			<g id="shape16333-67" transform="translate(444.117,337.93) rotate(90)">
				<title>Sheet.16333</title>
				<path d="M0 354.94 L4.25 354.94" class="st2"/>
			</g>
			<g id="shape16334-70" transform="translate(444.117,350.686) rotate(90)">
				<title>Sheet.16334</title>
				<path d="M0 354.94 L4.25 354.94" class="st2"/>
			</g>
			<g id="shape16335-73" transform="translate(247.913,20.4639) rotate(26.5651)">
				<title>Sheet.16335</title>
				<path d="M0 354.94 L19.02 354.94" class="st2"/>
			</g>
			<g id="shape16336-76" transform="translate(264.92,663.9) rotate(153.435)">
				<title>Sheet.16336</title>
				<path d="M0 354.94 L19.02 354.94" class="st2"/>
			</g>
			<g id="shape16337-79" transform="translate(371.946,337.93) rotate(90)">
				<title>Sheet.16337</title>
				<path d="M0 354.94 L4.25 354.94" class="st2"/>
			</g>
			<g id="shape16338-82" transform="translate(371.946,350.686) rotate(90)">
				<title>Sheet.16338</title>
				<path d="M0 354.94 L4.25 354.94" class="st2"/>
			</g>
			<g id="shape16339-85" transform="translate(175.741,655.396) rotate(153.435)">
				<title>Sheet.16339</title>
				<path d="M0 354.94 L19.02 354.94" class="st2"/>
			</g>
			<g id="shape16340-88" transform="translate(158.733,28.9678) rotate(26.5651)">
				<title>Sheet.16340</title>
				<path d="M0 354.94 L19.02 354.94" class="st2"/>
			</g>
			<g id="shape16341-91" transform="translate(17.0079,-12.7559)">
				<title>Sheet.16341</title>
				<path d="M0 354.94 L72.17 354.94" class="st2"/>
			</g>
			<g id="shape16342-94" transform="translate(89.1796,705.623) rotate(180)">
				<title>Sheet.16342</title>
				<path d="M0 354.94 L72.17 354.94" class="st2"/>
			</g>
		</g>
		<g id="group16841-97" transform="translate(868.022,-54.2767)">
			<title>Sheet.16841</title>
			<g id="shape16842-98" transform="translate(393.072,337.93) rotate(90)">
				<title>Sheet.16842</title>
				<path d="M0 354.94 L4.25 354.94" class="st2"/>
			</g>
			<g id="shape16843-101" transform="translate(393.072,350.686) rotate(90)">
				<title>Sheet.16843</title>
				<path d="M0 354.94 L4.25 354.94" class="st2"/>
			</g>
			<g id="shape16844-104" transform="translate(196.867,20.4639) rotate(26.5651)">
				<title>Sheet.16844</title>
				<path d="M0 354.94 L19.02 354.94" class="st2"/>
			</g>
			<g id="shape16845-107" transform="translate(213.875,663.9) rotate(153.435)">
				<title>Sheet.16845</title>
				<path d="M0 354.94 L19.02 354.94" class="st2"/>
			</g>
			<g id="shape16846-110" transform="translate(38.1344,697.12) rotate(180)">
				<title>Sheet.16846</title>
				<path d="M0 354.94 L21.13 354.94" class="st2"/>
			</g>
			<g id="shape16847-113" transform="translate(17.0079,-4.25197)">
				<title>Sheet.16847</title>
				<path d="M0 354.94 L21.13 354.94" class="st2"/>
			</g>
			<g id="shape16848-116" transform="translate(371.946,337.93) rotate(90)">
				<title>Sheet.16848</title>
				<path d="M0 354.94 L4.25 354.94" class="st2"/>
			</g>
			<g id="shape16849-119" transform="translate(371.946,350.686) rotate(90)">
				<title>Sheet.16849</title>
				<path d="M0 354.94 L4.25 354.94" class="st2"/>
			</g>
			<g id="shape16850-122" transform="translate(175.741,655.396) rotate(153.435)">
				<title>Sheet.16850</title>
				<path d="M0 354.94 L19.02 354.94" class="st2"/>
			</g>
			<g id="shape16851-125" transform="translate(158.733,28.9678) rotate(26.5651)">
				<title>Sheet.16851</title>
				<path d="M0 354.94 L19.02 354.94" class="st2"/>
			</g>
		</g>
		<g id="group17302-128" transform="translate(692.574,-54.2767)">
			<title>Sheet.17302</title>
			<g id="shape17303-129" transform="translate(371.946,337.93) rotate(90)">
				<title>Sheet.17303</title>
				<path d="M0 354.94 L4.25 354.94" class="st2"/>
			</g>
			<g id="shape17304-132" transform="translate(371.946,350.686) rotate(90)">
				<title>Sheet.17304</title>
				<path d="M0 354.94 L4.25 354.94" class="st2"/>
			</g>
			<g id="shape17305-135" transform="translate(175.741,655.396) rotate(153.435)">
				<title>Sheet.17305</title>
				<path d="M0 354.94 L19.02 354.94" class="st2"/>
			</g>
			<g id="shape17306-138" transform="translate(158.733,28.9678) rotate(26.5651)">
				<title>Sheet.17306</title>
				<path d="M0 354.94 L19.02 354.94" class="st2"/>
			</g>
			<g id="shape17307-141" transform="translate(444.117,337.93) rotate(90)">
				<title>Sheet.17307</title>
				<path d="M0 354.94 L4.25 354.94" class="st2"/>
			</g>
			<g id="shape17308-144" transform="translate(444.117,350.686) rotate(90)">
				<title>Sheet.17308</title>
				<path d="M0 354.94 L4.25 354.94" class="st2"/>
			</g>
			<g id="shape17309-147" transform="translate(247.913,20.4639) rotate(26.5651)">
				<title>Sheet.17309</title>
				<path d="M0 354.94 L19.02 354.94" class="st2"/>
			</g>
			<g id="shape17310-150" transform="translate(264.92,663.9) rotate(153.435)">
				<title>Sheet.17310</title>
				<path d="M0 354.94 L19.02 354.94" class="st2"/>
			</g>
			<g id="shape17311-153" transform="translate(89.1796,697.12) rotate(180)">
				<title>Sheet.17311</title>
				<path d="M0 354.94 L72.17 354.94" class="st2"/>
			</g>
			<g id="shape17312-156" transform="translate(17.0079,-4.25197)">
				<title>Sheet.17312</title>
				<path d="M0 354.94 L72.17 354.94" class="st2"/>
			</g>
		</g>
		<g id="group17515-159" transform="translate(565.986,-122.835)">
			<title>Sheet.17515</title>
			<g id="shape17516-160" transform="translate(2.55546E-013,-77.045)">
				<title>Sheet.17516</title>
				<path d="M0 354.94 L4.25 354.94" class="st2"/>
			</g>
			<g id="shape17517-163" transform="translate(12.7559,-77.045)">
				<title>Sheet.17517</title>
				<path d="M0 354.94 L4.25 354.94" class="st2"/>
			</g>
			<g id="shape17518-166" transform="translate(-317.466,119.16) rotate(-63.4349)">
				<title>Sheet.17518</title>
				<path d="M0 354.94 L19.02 354.94" class="st2"/>
			</g>
			<g id="shape17519-169" transform="translate(325.97,102.152) rotate(63.4349)">
				<title>Sheet.17519</title>
				<path d="M0 354.94 L19.02 354.94" class="st2"/>
			</g>
			<g id="shape17520-172" transform="translate(2.55546E-013,-17.0079)">
				<title>Sheet.17520</title>
				<path d="M0 354.94 L4.25 354.94" class="st2"/>
			</g>
			<g id="shape17521-175" transform="translate(12.7559,-17.0079)">
				<title>Sheet.17521</title>
				<path d="M0 354.94 L4.25 354.94" class="st2"/>
			</g>
			<g id="shape17522-178" transform="translate(317.466,179.197) rotate(63.4349)">
				<title>Sheet.17522</title>
				<path d="M0 354.94 L19.02 354.94" class="st2"/>
			</g>
			<g id="shape17523-181" transform="translate(-308.962,196.205) rotate(-63.4349)">
				<title>Sheet.17523</title>
				<path d="M0 354.94 L19.02 354.94" class="st2"/>
			</g>
			<g id="shape17524-184" transform="translate(-350.686,337.93) rotate(-90)">
				<title>Sheet.17524</title>
				<path d="M0 354.94 L60.04 354.94" class="st2"/>
			</g>
			<g id="shape17525-187" transform="translate(367.694,277.893) rotate(90)">
				<title>Sheet.17525</title>
				<path d="M0 354.94 L60.04 354.94" class="st2"/>
			</g>
		</g>
		<g id="group19108-190" transform="translate(185.635,-24.9133)">
			<title>Sheet.19108</title>
			<g id="shape19109-191">
				<title>Sheet.19109</title>
				<path d="M0 354.94 L22.68 354.94 L22.68 332.26 L0 332.26 L0 354.94 Z" class="st3"/>
			</g>
			<g id="shape19110-193" transform="translate(4.29434,-4.29434)">
				<title>Sheet.19110</title>
				<ellipse cx="7.04425" cy="347.893" rx="7.04425" ry="7.04425" class="st4"/>
			</g>
		</g>
		<g id="group20357-195" transform="translate(153.637,-24.9133)">
			<title>Sheet.20357</title>
			<g id="shape20358-196">
				<title>Sheet.20358</title>
				<path d="M0 354.94 L22.68 354.94 L22.68 332.26 L0 332.26 L0 354.94 Z" class="st3"/>
			</g>
			<g id="shape20359-198" transform="translate(4.29434,-4.29434)">
				<title>Sheet.20359</title>
				<ellipse cx="7.04425" cy="347.893" rx="7.04425" ry="7.04425" class="st4"/>
			</g>
		</g>
		<g id="group22887-200" transform="translate(473.319,-219.576)">
			<title>Sheet.22887</title>
			<g id="shape22888-201" transform="translate(26.5872,-135.362)">
				<title>Sheet.22888</title>
				<path d="M0 354.94 L151.71 354.94" class="st2"/>
			</g>
			<g id="shape22889-204" transform="translate(23.866,-132.624)">
				<title>Sheet.22889</title>
				<path d="M2.72 352.2 A2.72126 2.72126 -180 0 0 -0 354.94 L2.72 352.2 Z" class="st1"/>
				<path d="M2.72 352.2 A2.72126 2.72126 -180 0 0 -0 354.94" class="st2"/>
			</g>
			<g id="shape22890-207" transform="translate(28.8865,-128.507)">
				<title>Sheet.22890</title>
				<path d="M0 354.94 L147.22 354.94" class="st2"/>
			</g>
			<g id="shape22891-210" transform="translate(28.2062,-127.823)">
				<title>Sheet.22891</title>
				<path d="M0.68 354.25 a0.680315 0.680315 -180 0 0 -0.680308 0.6834 L0.68 354.25 Z" class="st1"/>
				<path d="M0.68 354.25 a0.680315 0.680315 -180 0 0 -0.680308 0.6834" class="st2"/>
			</g>
			<g id="shape22892-213" transform="translate(28.5798,-45.4194)">
				<title>Sheet.22892</title>
				<path d="M0 354.94 L148.25 354.94" class="st2"/>
			</g>
			<g id="shape22893-216" transform="translate(29.2595,-44.871)">
				<title>Sheet.22893</title>
				<path d="M0 354.94 L146.89 354.94" class="st2"/>
			</g>
			<g id="shape22894-219" transform="translate(26.4951,-37.8785)">
				<title>Sheet.22894</title>
				<path d="M0 354.94 L152.25 354.94" class="st2"/>
			</g>
			<g id="shape22895-222" transform="translate(24.4542,-38.1869)">
				<title>Sheet.22895</title>
				<path d="M0 353.22 A2.04094 2.04094 -180 0 0 0.96 354.94 L0 353.22 Z" class="st1"/>
				<path d="M0 353.22 A2.04094 2.04094 -180 0 0 0.96 354.94" class="st2"/>
			</g>
			<g id="shape22896-225" transform="translate(9.96516,-18.8547)">
				<title>Sheet.22896</title>
				<path d="M0 354.94 L0.84 354.94" class="st2"/>
			</g>
			<g id="shape22897-228" transform="translate(0.680315,-6.25546)">
				<title>Sheet.22897</title>
				<path d="M0 354.94 L202.61 354.94" class="st2"/>
			</g>
			<g id="shape22898-231" transform="translate(0.162995,-7.37759)">
				<title>Sheet.22898</title>
			</g>
			<g id="shape22899-232" transform="translate(12.4677,0)">
				<title>Sheet.22899</title>
				<path d="M0 354.94 L175.97 354.94" class="st2"/>
			</g>
			<g id="shape22900-235" transform="translate(378.797,220.062) rotate(89.6365)">
				<title>Sheet.22900</title>
				<path d="M0 354.94 L92.72 354.94" class="st2"/>
			</g>
			<g id="shape22901-238" transform="translate(383.14,225.505) rotate(89.7402)">
				<title>Sheet.22901</title>
				<path d="M0 354.94 L82.28 354.94" class="st2"/>
			</g>
			<g id="shape22902-241" transform="translate(28.5792,-44.871)">
				<title>Sheet.22902</title>
				<path d="M-0 354.26 a0.680315 0.680315 -180 0 0 0.680308 0.67723 L0 354.26 Z" class="st1"/>
				<path d="M-0 354.26 a0.680315 0.680315 -180 0 0 0.680308 0.67723" class="st2"/>
			</g>
			<g id="shape22903-244" transform="translate(531.726,226.941) rotate(89.9725)">
				<title>Sheet.22903</title>
				<path d="M0 354.94 L82.28 354.94" class="st2"/>
			</g>
			<g id="shape22904-247" transform="translate(176.148,-44.871)">
				<title>Sheet.22904</title>
				<path d="M0 354.94 a0.680315 0.680315 -180 0 0 0.680315 -0.680641 L0 354.94 Z" class="st1"/>
				<path d="M0 354.94 a0.680315 0.680315 -180 0 0 0.680315 -0.680641" class="st2"/>
			</g>
			<g id="shape22905-250" transform="translate(176.108,-127.827)">
				<title>Sheet.22905</title>
				<path d="M0.68 354.94 a0.680315 0.680315 -180 0 0 -0.680315 -0.679989 L0.68 354.94 Z" class="st1"/>
				<path d="M0.68 354.94 a0.680315 0.680315 -180 0 0 -0.680315 -0.679989" class="st2"/>
			</g>
			<g id="shape22906-253" transform="translate(-174.148,314.14) rotate(-89.8575)">
				<title>Sheet.22906</title>
				<path d="M0 354.94 L92.72 354.94" class="st2"/>
			</g>
			<g id="shape22907-256" transform="translate(178.748,-37.8785)">
				<title>Sheet.22907</title>
				<path d="M-0 354.94 A2.04094 2.04094 -180 0 0 1.51 354.27 L0 354.94 Z" class="st1"/>
				<path d="M-0 354.94 A2.04094 2.04094 -180 0 0 1.51 354.27" class="st2"/>
			</g>
			<g id="shape22908-259" transform="translate(178.298,-132.634)">
				<title>Sheet.22908</title>
				<path d="M2.72 354.94 A2.72126 2.72126 -180 0 0 0 352.21 L2.72 354.94 Z" class="st1"/>
				<path d="M2.72 354.94 A2.72126 2.72126 -180 0 0 0 352.21" class="st2"/>
			</g>
			<g id="shape22909-262" transform="translate(293.814,550.261) rotate(130.499)">
				<title>Sheet.22909</title>
				<path d="M0 354.94 L3.2 354.94" class="st2"/>
			</g>
			<g id="shape22910-265" transform="translate(279.864,566.594) rotate(130.499)">
				<title>Sheet.22910</title>
				<path d="M0 354.94 L15.09 354.94" class="st2"/>
			</g>
			<g id="shape22911-268" transform="translate(459.939,99.2396) rotate(51.6576)">
				<title>Sheet.22911</title>
				<path d="M0 354.94 L3.51 354.94" class="st2"/>
			</g>
			<g id="shape22912-271" transform="translate(473.112,115.894) rotate(51.6576)">
				<title>Sheet.22912</title>
				<path d="M0 354.94 L14.66 354.94" class="st2"/>
			</g>
			<g id="shape22913-274" transform="translate(203.288,-6.25546)">
				<title>Sheet.22913</title>
				<path d="M-0 354.94 a0.680315 0.680315 -180 0 0 0.680315 -0.680315 L0 354.94 Z" class="st1"/>
				<path d="M-0 354.94 a0.680315 0.680315 -180 0 0 0.680315 -0.680315" class="st2"/>
			</g>
			<g id="shape22914-277" transform="translate(286.448,696.437) rotate(166.45)">
				<title>Sheet.22914</title>
				<path d="M0 354.94 L15.11 354.94" class="st2"/>
			</g>
			<g id="shape22915-280" transform="translate(188.441,0)">
				<title>Sheet.22915</title>
			</g>
			<g id="shape22916-281" transform="translate(58.6247,-18.1109)">
				<title>Sheet.22916</title>
				<path d="M0 354.94 L45.36 354.94" class="st2"/>
			</g>
			<g id="shape22917-284" transform="translate(57.6846,-17.4874)">
				<title>Sheet.22917</title>
				<path d="M0.94 354.31 A1.02047 1.02047 -180 0 0 -0 354.94 L0.94 354.31 Z" class="st1"/>
				<path d="M0.94 354.31 A1.02047 1.02047 -180 0 0 -0 354.94" class="st2"/>
			</g>
			<g id="shape22918-287" transform="translate(54.7924,-8.81633)">
				<title>Sheet.22918</title>
				<path d="M0 354.94 L49.15 354.94" class="st2"/>
			</g>
			<g id="shape22919-290" transform="translate(104.968,699.394) rotate(180)">
				<title>Sheet.22919</title>
				<path d="M0 354.94 L50.24 354.94" class="st2"/>
			</g>
			<g id="shape22920-293" transform="translate(384.665,475.524) rotate(112.893)">
				<title>Sheet.22920</title>
				<path d="M0 354.94 L8.64 354.94" class="st2"/>
			</g>
			<g id="shape22921-296" transform="translate(54.3223,-8.81633)">
				<title>Sheet.22921</title>
				<path d="M0 354.23 a0.510236 0.510236 -180 0 0 0.470047 0.708723 L0 354.23 Z" class="st1"/>
				<path d="M0 354.23 a0.510236 0.510236 -180 0 0 0.470047 0.708723" class="st2"/>
			</g>
			<g id="shape22922-299" transform="translate(428.53,412.559) rotate(101.062)">
				<title>Sheet.22922</title>
				<path d="M0 354.94 L1.7 354.94" class="st2"/>
			</g>
			<g id="shape22923-302" transform="translate(428.153,412.559) rotate(101.062)">
				<title>Sheet.22923</title>
				<path d="M0 354.94 L1.7 354.94" class="st2"/>
			</g>
			<g id="shape22924-305" transform="translate(459.935,339.667) rotate(90.2929)">
				<title>Sheet.22924</title>
				<path d="M0 354.94 L7.25 354.94" class="st2"/>
			</g>
			<g id="shape22925-308" transform="translate(103.944,-8.81633)">
				<title>Sheet.22925</title>
				<path d="M-0 354.94 A1.02047 1.02047 -180 0 0 1.02 353.92 L0 354.94 Z" class="st1"/>
				<path d="M-0 354.94 A1.02047 1.02047 -180 0 0 1.02 353.92" class="st2"/>
			</g>
			<g id="shape22926-311" transform="translate(103.981,-17.0852)">
				<title>Sheet.22926</title>
				<path d="M1.02 354.94 A1.02047 1.02047 -180 0 0 -0 353.91 L1.02 354.94 Z" class="st1"/>
				<path d="M1.02 354.94 A1.02047 1.02047 -180 0 0 -0 353.91" class="st2"/>
			</g>
			<g id="shape22927-314" transform="translate(24.485,-37.1603)">
				<title>Sheet.22927</title>
				<path d="M0 354.94 L156.58 354.94" class="st2"/>
			</g>
			<g id="shape22928-317" transform="translate(181.063,-35.509)">
				<title>Sheet.22928</title>
				<path d="M-0 353.29 A3.46711 3.46711 -180 0 0 0.49 354.94 L0 353.29 Z" class="st1"/>
				<path d="M-0 353.29 A3.46711 3.46711 -180 0 0 0.49 354.94" class="st2"/>
			</g>
			<g id="shape22929-320" transform="translate(23.9148,-35.188)">
				<title>Sheet.22929</title>
				<path d="M0 354.94 A3.52318 3.52318 -180 0 0 0.57 352.97 L0 354.94 Z" class="st1"/>
				<path d="M0 354.94 A3.52318 3.52318 -180 0 0 0.57 352.97" class="st2"/>
			</g>
			<g id="shape22930-323" transform="translate(-238.398,79.2967) rotate(-47.7865)">
				<title>Sheet.22930</title>
				<path d="M0 354.94 L1.39 354.94" class="st2"/>
			</g>
			<g id="shape22931-326" transform="translate(-126.501,494.935) rotate(-119.942)">
				<title>Sheet.22931</title>
				<path d="M0 354.94 L1.6 354.94" class="st2"/>
			</g>
			<g id="shape22932-329" transform="translate(-91.1279,694.452) rotate(-163.063)">
				<title>Sheet.22932</title>
				<path d="M0 354.94 L12.12 354.94" class="st2"/>
			</g>
			<g id="shape22933-332" transform="translate(12.2711,-0.0290343)">
				<title>Sheet.22933</title>
			</g>
			<g id="shape22934-333" transform="translate(0.680315,-3.5587)">
				<title>Sheet.22934</title>
				<path d="M0 354.94 L202.61 354.94" class="st2"/>
			</g>
			<g id="shape22935-336" transform="translate(-2.45928E-013,-3.5587)">
				<title>Sheet.22935</title>
				<path d="M0 354.26 a0.680315 0.680315 -180 0 0 0.680315 0.680315 L0 354.26 Z" class="st1"/>
				<path d="M0 354.26 a0.680315 0.680315 -180 0 0 0.680315 0.680315" class="st2"/>
			</g>
			<g id="shape22936-339" transform="translate(203.288,-3.5587)">
				<title>Sheet.22936</title>
				<path d="M-0 354.94 a0.680315 0.680315 -180 0 0 0.680315 -0.680315 L0 354.94 Z" class="st1"/>
				<path d="M-0 354.94 a0.680315 0.680315 -180 0 0 0.680315 -0.680315" class="st2"/>
			</g>
			<g id="shape22937-342" transform="translate(558.906,348.002) rotate(90)">
				<title>Sheet.22937</title>
				<path d="M0 354.94 L2.7 354.94" class="st2"/>
			</g>
			<g id="shape22938-345" transform="translate(354.938,348.002) rotate(90)">
				<title>Sheet.22938</title>
				<path d="M0 354.94 L2.7 354.94" class="st2"/>
			</g>
			<g id="shape22939-348" transform="translate(291.646,553.698) rotate(130.319)">
				<title>Sheet.22939</title>
				<path d="M0 354.94 L15.8 354.94" class="st2"/>
			</g>
			<g id="shape22940-351" transform="translate(21.0235,-30.8999)">
				<title>Sheet.22940</title>
				<path d="M0 354.94 A3.34859 3.34859 -180 0 0 0.81 353.08 L0 354.94 Z" class="st1"/>
				<path d="M0 354.94 A3.34859 3.34859 -180 0 0 0.81 353.08" class="st2"/>
			</g>
			<g id="shape22941-354" transform="translate(462.862,103.95) rotate(51.7331)">
				<title>Sheet.22941</title>
				<path d="M0 354.94 L15.68 354.94" class="st2"/>
			</g>
			<g id="shape22942-357" transform="translate(21.834,-32.7563)">
				<title>Sheet.22942</title>
				<path d="M0 354.94 L161.9 354.94" class="st2"/>
			</g>
			<g id="shape22943-360" transform="translate(183.732,-31.1656)">
				<title>Sheet.22943</title>
				<path d="M-0 353.35 A3.46711 3.46711 -180 0 0 0.46 354.94 L0 353.35 Z" class="st1"/>
				<path d="M-0 353.35 A3.46711 3.46711 -180 0 0 0.46 354.94" class="st2"/>
			</g>
			<g id="shape22944-363" transform="translate(31.8435,-31.7816)">
				<title>Sheet.22944</title>
				<path d="M0 354.94 L110.07 354.94" class="st2"/>
			</g>
			<g id="shape22945-366" transform="translate(145.421,-31.7816)">
				<title>Sheet.22945</title>
				<path d="M0 354.94 L27.86 354.94" class="st2"/>
			</g>
			<g id="shape22946-369" transform="translate(144.949,-31.0766)">
				<title>Sheet.22946</title>
				<path d="M0.47 354.23 a0.510236 0.510236 -180 0 0 -0.471621 0.704953 L0.47 354.23 Z" class="st1"/>
				<path d="M0.47 354.23 a0.510236 0.510236 -180 0 0 -0.471621 0.704953" class="st2"/>
			</g>
			<g id="shape22947-372" transform="translate(31.0159,-31.3581)">
				<title>Sheet.22947</title>
				<path d="M0.83 354.51 A1.02047 1.02047 -180 0 0 0 354.94 L0.83 354.51 Z" class="st1"/>
				<path d="M0.83 354.51 A1.02047 1.02047 -180 0 0 0 354.94" class="st2"/>
			</g>
			<g id="shape22948-375" transform="translate(468.113,124.734) rotate(55.9235)">
				<title>Sheet.22948</title>
				<path d="M0 354.94 L12.64 354.94" class="st2"/>
			</g>
			<g id="shape22949-378" transform="translate(173.276,-31.3329)">
				<title>Sheet.22949</title>
				<path d="M0.85 354.94 A1.02047 1.02047 -180 0 0 -0 354.49 L0.85 354.94 Z" class="st1"/>
				<path d="M0.85 354.94 A1.02047 1.02047 -180 0 0 -0 354.49" class="st2"/>
			</g>
			<g id="shape22950-381" transform="translate(180.921,-20.3334)">
				<title>Sheet.22950</title>
				<path d="M-0 354.94 a0.340157 0.340157 -180 0 0 0.281749 -0.530747 L0 354.94 Z" class="st1"/>
				<path d="M-0 354.94 a0.340157 0.340157 -180 0 0 0.281749 -0.530747" class="st2"/>
			</g>
			<g id="shape22951-384" transform="translate(318.89,531.207) rotate(125.801)">
				<title>Sheet.22951</title>
				<path d="M0 354.94 L12.93 354.94" class="st2"/>
			</g>
			<g id="shape22952-387" transform="translate(23.3909,-20.3334)">
				<title>Sheet.22952</title>
				<path d="M0.06 354.4 a0.340157 0.340157 -180 0 0 0.275887 0.539139 L0.06 354.4 Z" class="st1"/>
				<path d="M0.06 354.4 a0.340157 0.340157 -180 0 0 0.275887 0.539139" class="st2"/>
			</g>
			<g id="shape22953-390" transform="translate(23.7291,-20.3334)">
				<title>Sheet.22953</title>
				<path d="M0 354.94 L122.83 354.94" class="st2"/>
			</g>
			<g id="shape22954-393" transform="translate(150.067,-20.3334)">
				<title>Sheet.22954</title>
				<path d="M0 354.94 L30.85 354.94" class="st2"/>
			</g>
			<g id="shape22955-396" transform="translate(180.921,-19.6291)">
				<title>Sheet.22955</title>
			</g>
			<g id="shape22956-397" transform="translate(23.7291,-19.6291)">
				<title>Sheet.22956</title>
			</g>
			<g id="shape22957-398" transform="translate(23.7291,-19.2889)">
				<title>Sheet.22957</title>
				<path d="M0 354.94 L122.83 354.94" class="st2"/>
			</g>
			<g id="shape22958-401" transform="translate(150.067,-19.2889)">
				<title>Sheet.22958</title>
				<path d="M0 354.94 L30.85 354.94" class="st2"/>
			</g>
			<g id="shape22959-404" transform="translate(536.199,334.264) rotate(90)">
				<title>Sheet.22959</title>
				<path d="M0 354.94 L1.04 354.94" class="st2"/>
			</g>
			<g id="shape22960-407" transform="translate(378.327,334.264) rotate(90)">
				<title>Sheet.22960</title>
				<path d="M0 354.94 L1.04 354.94" class="st2"/>
			</g>
			<g id="shape22961-410" transform="translate(473.025,188.41) rotate(67.5659)">
				<title>Sheet.22961</title>
				<path d="M0 354.94 L10.94 354.94" class="st2"/>
			</g>
			<g id="shape22962-413" transform="translate(149.124,-20.3334)">
				<title>Sheet.22962</title>
				<path d="M0 354.31 A1.02047 1.02047 -180 0 0 0.94 354.94 L0 354.31 Z" class="st1"/>
				<path d="M0 354.31 A1.02047 1.02047 -180 0 0 0.94 354.94" class="st2"/>
			</g>
			<g id="shape22963-416" transform="translate(473.025,189.454) rotate(67.5659)">
				<title>Sheet.22963</title>
				<path d="M0 354.94 L10.94 354.94" class="st2"/>
			</g>
			<g id="shape22964-419" transform="translate(470.93,188.336) rotate(67.5659)">
				<title>Sheet.22964</title>
				<path d="M0 354.94 L10.94 354.94" class="st2"/>
			</g>
			<g id="shape22965-422" transform="translate(146.558,-20.3334)">
				<title>Sheet.22965</title>
				<path d="M0 354.94 a0.510236 0.510236 -180 0 0 0.471621 -0.704953 L0 354.94 Z" class="st1"/>
				<path d="M0 354.94 a0.510236 0.510236 -180 0 0 0.471621 -0.704953" class="st2"/>
			</g>
			<g id="shape22966-425" transform="translate(141.911,-31.1506)">
				<title>Sheet.22966</title>
				<path d="M0.94 354.94 A1.02047 1.02047 -180 0 0 0 354.31 L0.94 354.94 Z" class="st1"/>
				<path d="M0.94 354.94 A1.02047 1.02047 -180 0 0 0 354.31" class="st2"/>
			</g>
			<g id="shape22967-428" transform="translate(501.495,334.604) rotate(90)">
				<title>Sheet.22967</title>
				<path d="M0 354.94 L1.04 354.94" class="st2"/>
			</g>
			<g id="shape22968-431" transform="translate(146.558,-19.2889)">
				<title>Sheet.22968</title>
				<path d="M0 354.94 a0.510236 0.510236 -180 0 0 0.510236 -0.510236 L0 354.94 Z" class="st1"/>
				<path d="M0 354.94 a0.510236 0.510236 -180 0 0 0.510236 -0.510236" class="st2"/>
			</g>
			<g id="shape22969-434" transform="translate(-207.87,335.139) rotate(-90)">
				<title>Sheet.22969</title>
				<path d="M0 354.94 L1.04 354.94" class="st2"/>
			</g>
			<g id="shape22970-437" transform="translate(505.005,334.604) rotate(90)">
				<title>Sheet.22970</title>
				<path d="M0 354.94 L1.04 354.94" class="st2"/>
			</g>
			<g id="shape22971-440" transform="translate(149.124,-19.2889)">
				<title>Sheet.22971</title>
				<path d="M-0 354.31 A1.02047 1.02047 -180 0 0 0.94 354.94 L0 354.31 Z" class="st1"/>
				<path d="M-0 354.31 A1.02047 1.02047 -180 0 0 0.94 354.94" class="st2"/>
			</g>
			<g id="shape22972-443" transform="translate(504.062,333.973) rotate(90)">
				<title>Sheet.22972</title>
				<path d="M0 354.94 L1.04 354.94" class="st2"/>
			</g>
			<g id="shape22973-446" transform="translate(499.848,323.666) rotate(90)">
				<title>Sheet.22973</title>
				<path d="M0 354.94 L1.04 354.94" class="st2"/>
			</g>
			<g id="shape22974-449" transform="translate(145.421,-30.2269)">
				<title>Sheet.22974</title>
			</g>
			<g id="shape22975-450" transform="translate(535.859,334.604) rotate(90)">
				<title>Sheet.22975</title>
				<path d="M0 354.94 L1.04 354.94" class="st2"/>
			</g>
			<g id="shape22976-453" transform="translate(558.225,348.682) rotate(90)">
				<title>Sheet.22976</title>
				<path d="M0 354.94 L2.7 354.94" class="st2"/>
			</g>
			<g id="shape22977-456" transform="translate(355.618,348.682) rotate(90)">
				<title>Sheet.22977</title>
				<path d="M0 354.94 L2.7 354.94" class="st2"/>
			</g>
			<g id="shape22978-459" transform="translate(378.667,334.604) rotate(90)">
				<title>Sheet.22978</title>
				<path d="M0 354.94 L1.04 354.94" class="st2"/>
			</g>
			<g id="shape22979-462" transform="translate(-2.45928E-013,-6.25546)">
				<title>Sheet.22979</title>
				<path d="M0 354.26 a0.680315 0.680315 -180 0 0 0.680315 0.680315 L0 354.26 Z" class="st1"/>
				<path d="M0 354.26 a0.680315 0.680315 -180 0 0 0.680315 0.680315" class="st2"/>
			</g>
			<g id="shape22980-465" transform="translate(203.968,-6.93577)">
				<title>Sheet.22980</title>
			</g>
			<g id="shape22981-466" transform="translate(193.899,-18.8547)">
				<title>Sheet.22981</title>
				<path d="M0 354.94 L0.83 354.94" class="st2"/>
			</g>
			<g id="shape22982-469" transform="translate(10.8015,-18.8547)">
				<title>Sheet.22982</title>
				<path d="M0 354.94 L183.1 354.94" class="st2"/>
			</g>
			<g id="shape22983-472" transform="translate(25.4163,-37.8785)">
				<title>Sheet.22983</title>
				<path d="M-0 354.63 A2.04094 2.04094 -180 0 0 1.08 354.94 L0 354.63 Z" class="st1"/>
				<path d="M-0 354.63 A2.04094 2.04094 -180 0 0 1.08 354.94" class="st2"/>
			</g>
			<g id="shape22984-475" transform="translate(180.262,-38.551)">
				<title>Sheet.22984</title>
				<path d="M0 354.94 A2.04094 2.04094 -180 0 0 0.53 353.57 L0 354.94 Z" class="st1"/>
				<path d="M0 354.94 A2.04094 2.04094 -180 0 0 0.53 353.57" class="st2"/>
			</g>
		</g>
		<g id="group23294-478" transform="translate(1076.8,-25.693)">
			<title>Sheet.23294</title>
			<g id="shape23295-479">
				<title>Sheet.23295</title>
				<path d="M0 354.94 L22.68 354.94 L22.68 319.72 L0 319.72 L0 354.94 Z" class="st3"/>
			</g>
			<g id="shape23296-481" transform="translate(4.30713,-19.3708)">
				<title>Sheet.23296</title>
				<path d="M12.44 354.94 A7.04425 7.04425 -180 1 0 1.62 354.94 L12.44 354.94 Z" class="st1"/>
				<path d="M12.44 354.94 A7.04425 7.04425 -180 1 0 1.62 354.94" class="st2"/>
			</g>
			<g id="shape23297-484" transform="translate(8.11838,-10.3513)">
				<title>Sheet.23297</title>
				<path d="M0 354.94 L6.44 354.94" class="st2"/>
			</g>
			<g id="shape23298-487" transform="translate(5.9282,-10.3513)">
				<title>Sheet.23298</title>
				<path d="M2.19 354.94 A17.0418 17.0418 -180 0 0 -0 345.92 L2.19 354.94 Z" class="st1"/>
				<path d="M2.19 354.94 A17.0418 17.0418 -180 0 0 -0 345.92" class="st2"/>
			</g>
			<g id="shape23299-490" transform="translate(14.5588,-10.3513)">
				<title>Sheet.23299</title>
				<path d="M2.19 345.92 A17.0418 17.0418 -180 0 0 0 354.94 L2.19 345.92 Z" class="st1"/>
				<path d="M2.19 345.92 A17.0418 17.0418 -180 0 0 0 354.94" class="st2"/>
			</g>
			<g id="shape23300-493" transform="translate(8.11838,-4.61203)">
				<title>Sheet.23300</title>
				<path d="M0 354.94 L6.44 354.94" class="st2"/>
			</g>
			<g id="shape23301-496" transform="translate(8.71209,-4.04939)">
				<title>Sheet.23301</title>
				<path d="M0 354.94 L5.25 354.94" class="st2"/>
			</g>
			<g id="shape23302-499" transform="translate(-235.435,608.518) rotate(-136.539)">
				<title>Sheet.23302</title>
				<path d="M0 354.94 L0.82 354.94" class="st2"/>
			</g>
			<g id="shape23303-502" transform="translate(-230.182,93.259) rotate(-43.4609)">
				<title>Sheet.23303</title>
				<path d="M0 354.94 L0.82 354.94" class="st2"/>
			</g>
			<g id="shape23304-505" transform="translate(363.056,344.586) rotate(90)">
				<title>Sheet.23304</title>
				<path d="M0 354.94 L0.93 354.94" class="st2"/>
			</g>
			<g id="shape23305-508" transform="translate(-346.819,350.326) rotate(-90)">
				<title>Sheet.23305</title>
				<path d="M0 354.94 L0.69 354.94" class="st2"/>
			</g>
			<g id="shape23306-511" transform="translate(-241.387,602.075) rotate(-135.336)">
				<title>Sheet.23306</title>
				<path d="M0 354.94 L0.45 354.94" class="st2"/>
			</g>
			<g id="shape23307-514" transform="translate(-241.71,96.666) rotate(-44.6645)">
				<title>Sheet.23307</title>
				<path d="M0 354.94 L0.45 354.94" class="st2"/>
			</g>
			<g id="shape23308-517" transform="translate(7.89481,-5.72667)">
				<title>Sheet.23308</title>
			</g>
			<g id="shape23309-518" transform="translate(-234.946,96.6088) rotate(-44.6645)">
				<title>Sheet.23309</title>
				<path d="M0 354.94 L0.45 354.94" class="st2"/>
			</g>
			<g id="shape23310-521" transform="translate(-234.623,600.976) rotate(-135.336)">
				<title>Sheet.23310</title>
				<path d="M0 354.94 L0.45 354.94" class="st2"/>
			</g>
			<g id="shape23311-524" transform="translate(14.7824,-6.30498)">
				<title>Sheet.23311</title>
			</g>
			<g id="shape23312-525" transform="translate(-241.387,600.985) rotate(-135.336)">
				<title>Sheet.23312</title>
				<path d="M0 354.94 L0.45 354.94" class="st2"/>
			</g>
			<g id="shape23313-528" transform="translate(-241.71,95.5751) rotate(-44.6645)">
				<title>Sheet.23313</title>
				<path d="M0 354.94 L0.45 354.94" class="st2"/>
			</g>
			<g id="shape23314-531" transform="translate(7.89481,-6.81756)">
				<title>Sheet.23314</title>
			</g>
			<g id="shape23315-532" transform="translate(-234.946,95.5179) rotate(-44.6645)">
				<title>Sheet.23315</title>
				<path d="M0 354.94 L0.45 354.94" class="st2"/>
			</g>
			<g id="shape23316-535" transform="translate(-234.623,599.885) rotate(-135.336)">
				<title>Sheet.23316</title>
				<path d="M0 354.94 L0.45 354.94" class="st2"/>
			</g>
			<g id="shape23317-538" transform="translate(14.7824,-7.39587)">
				<title>Sheet.23317</title>
			</g>
			<g id="shape23318-539" transform="translate(-241.387,599.894) rotate(-135.336)">
				<title>Sheet.23318</title>
				<path d="M0 354.94 L0.45 354.94" class="st2"/>
			</g>
			<g id="shape23319-542" transform="translate(-241.71,94.4842) rotate(-44.6645)">
				<title>Sheet.23319</title>
				<path d="M0 354.94 L0.45 354.94" class="st2"/>
			</g>
			<g id="shape23320-545" transform="translate(7.89481,-7.90845)">
				<title>Sheet.23320</title>
			</g>
			<g id="shape23321-546" transform="translate(-234.946,94.427) rotate(-44.6645)">
				<title>Sheet.23321</title>
				<path d="M0 354.94 L0.45 354.94" class="st2"/>
			</g>
			<g id="shape23322-549" transform="translate(-234.623,598.794) rotate(-135.336)">
				<title>Sheet.23322</title>
				<path d="M0 354.94 L0.45 354.94" class="st2"/>
			</g>
			<g id="shape23323-552" transform="translate(14.7824,-8.48676)">
				<title>Sheet.23323</title>
			</g>
			<g id="shape23324-553" transform="translate(-241.387,598.803) rotate(-135.336)">
				<title>Sheet.23324</title>
				<path d="M0 354.94 L0.45 354.94" class="st2"/>
			</g>
			<g id="shape23325-556" transform="translate(-241.71,93.3933) rotate(-44.6645)">
				<title>Sheet.23325</title>
				<path d="M0 354.94 L0.45 354.94" class="st2"/>
			</g>
			<g id="shape23326-559" transform="translate(7.89481,-8.99935)">
				<title>Sheet.23326</title>
			</g>
			<g id="shape23327-560" transform="translate(-234.946,93.3361) rotate(-44.6645)">
				<title>Sheet.23327</title>
				<path d="M0 354.94 L0.45 354.94" class="st2"/>
			</g>
			<g id="shape23328-563" transform="translate(-234.623,597.703) rotate(-135.336)">
				<title>Sheet.23328</title>
				<path d="M0 354.94 L0.45 354.94" class="st2"/>
			</g>
			<g id="shape23329-566" transform="translate(14.7824,-9.57765)">
				<title>Sheet.23329</title>
			</g>
			<g id="shape23330-567" transform="translate(-23.6248,-7.9973) rotate(-5.131)">
				<title>Sheet.23330</title>
				<path d="M0 354.94 L6.47 354.94" class="st2"/>
			</g>
			<g id="shape23331-570" transform="translate(-23.6248,-7.1568) rotate(-5.131)">
				<title>Sheet.23331</title>
				<path d="M0 354.94 L6.47 354.94" class="st2"/>
			</g>
			<g id="shape23332-573" transform="translate(-23.6248,-6.9064) rotate(-5.131)">
				<title>Sheet.23332</title>
				<path d="M0 354.94 L6.47 354.94" class="st2"/>
			</g>
			<g id="shape23333-576" transform="translate(-23.6248,-6.06591) rotate(-5.131)">
				<title>Sheet.23333</title>
				<path d="M0 354.94 L6.47 354.94" class="st2"/>
			</g>
			<g id="shape23334-579" transform="translate(-23.6248,-5.81551) rotate(-5.131)">
				<title>Sheet.23334</title>
				<path d="M0 354.94 L6.47 354.94" class="st2"/>
			</g>
			<g id="shape23335-582" transform="translate(-23.6248,-4.97502) rotate(-5.131)">
				<title>Sheet.23335</title>
				<path d="M0 354.94 L6.47 354.94" class="st2"/>
			</g>
			<g id="shape23336-585" transform="translate(-23.6248,-4.72462) rotate(-5.131)">
				<title>Sheet.23336</title>
				<path d="M0 354.94 L6.47 354.94" class="st2"/>
			</g>
			<g id="shape23337-588" transform="translate(-23.6248,-3.88413) rotate(-5.131)">
				<title>Sheet.23337</title>
				<path d="M0 354.94 L6.47 354.94" class="st2"/>
			</g>
			<g id="shape23338-591" transform="translate(363.056,346.359) rotate(90)">
				<title>Sheet.23338</title>
				<path d="M0 354.94 L0.25 354.94" class="st2"/>
			</g>
			<g id="shape23339-594" transform="translate(363.056,347.449) rotate(90)">
				<title>Sheet.23339</title>
				<path d="M0 354.94 L0.25 354.94" class="st2"/>
			</g>
			<g id="shape23340-597" transform="translate(363.056,348.54) rotate(90)">
				<title>Sheet.23340</title>
				<path d="M0 354.94 L0.25 354.94" class="st2"/>
			</g>
			<g id="shape23341-600" transform="translate(-340.379,348.212) rotate(-90)">
				<title>Sheet.23341</title>
				<path d="M0 354.94 L0.25 354.94" class="st2"/>
			</g>
			<g id="shape23342-603" transform="translate(-340.379,347.122) rotate(-90)">
				<title>Sheet.23342</title>
				<path d="M0 354.94 L0.25 354.94" class="st2"/>
			</g>
			<g id="shape23343-606" transform="translate(-340.379,346.031) rotate(-90)">
				<title>Sheet.23343</title>
				<path d="M0 354.94 L0.25 354.94" class="st2"/>
			</g>
			<g id="shape23344-609" transform="translate(369.496,344.586) rotate(90)">
				<title>Sheet.23344</title>
				<path d="M0 354.94 L0.35 354.94" class="st2"/>
			</g>
			<g id="shape23345-612" transform="translate(369.496,349.053) rotate(90)">
				<title>Sheet.23345</title>
				<path d="M0 354.94 L1.27 354.94" class="st2"/>
			</g>
			<g id="shape23346-615" transform="translate(10.7049,-3.79674)">
				<title>Sheet.23346</title>
				<path d="M0 354.94 L1.27 354.94" class="st2"/>
			</g>
			<g id="shape23347-618" transform="translate(-232.975,609.213) rotate(-136.643)">
				<title>Sheet.23347</title>
				<path d="M0 354.94 L0.37 354.94" class="st2"/>
			</g>
			<g id="shape23348-621" transform="translate(-231.707,93.0693) rotate(-43.357)">
				<title>Sheet.23348</title>
				<path d="M0 354.94 L0.37 354.94" class="st2"/>
			</g>
		</g>
		<g id="group23529-624" transform="translate(1108.8,-25.693)">
			<title>Sheet.23529</title>
			<g id="shape23530-625">
				<title>Sheet.23530</title>
				<path d="M0 354.94 L22.68 354.94 L22.68 319.72 L0 319.72 L0 354.94 Z" class="st3"/>
			</g>
			<g id="shape23531-627" transform="translate(4.30713,-19.3708)">
				<title>Sheet.23531</title>
				<path d="M12.44 354.94 A7.04425 7.04425 -180 1 0 1.62 354.94 L12.44 354.94 Z" class="st1"/>
				<path d="M12.44 354.94 A7.04425 7.04425 -180 1 0 1.62 354.94" class="st2"/>
			</g>
			<g id="shape23532-630" transform="translate(8.11838,-10.3513)">
				<title>Sheet.23532</title>
				<path d="M0 354.94 L6.44 354.94" class="st2"/>
			</g>
			<g id="shape23533-633" transform="translate(5.9282,-10.3513)">
				<title>Sheet.23533</title>
				<path d="M2.19 354.94 A17.0418 17.0418 -180 0 0 -0 345.92 L2.19 354.94 Z" class="st1"/>
				<path d="M2.19 354.94 A17.0418 17.0418 -180 0 0 -0 345.92" class="st2"/>
			</g>
			<g id="shape23534-636" transform="translate(14.5588,-10.3513)">
				<title>Sheet.23534</title>
				<path d="M2.19 345.92 A17.0418 17.0418 -180 0 0 0 354.94 L2.19 345.92 Z" class="st1"/>
				<path d="M2.19 345.92 A17.0418 17.0418 -180 0 0 0 354.94" class="st2"/>
			</g>
			<g id="shape23535-639" transform="translate(8.11838,-4.61203)">
				<title>Sheet.23535</title>
				<path d="M0 354.94 L6.44 354.94" class="st2"/>
			</g>
			<g id="shape23536-642" transform="translate(8.71209,-4.04939)">
				<title>Sheet.23536</title>
				<path d="M0 354.94 L5.25 354.94" class="st2"/>
			</g>
			<g id="shape23537-645" transform="translate(-235.435,608.518) rotate(-136.539)">
				<title>Sheet.23537</title>
				<path d="M0 354.94 L0.82 354.94" class="st2"/>
			</g>
			<g id="shape23538-648" transform="translate(-230.182,93.259) rotate(-43.4609)">
				<title>Sheet.23538</title>
				<path d="M0 354.94 L0.82 354.94" class="st2"/>
			</g>
			<g id="shape23539-651" transform="translate(363.056,344.586) rotate(90)">
				<title>Sheet.23539</title>
				<path d="M0 354.94 L0.93 354.94" class="st2"/>
			</g>
			<g id="shape23540-654" transform="translate(-346.819,350.326) rotate(-90)">
				<title>Sheet.23540</title>
				<path d="M0 354.94 L0.69 354.94" class="st2"/>
			</g>
			<g id="shape23541-657" transform="translate(-241.387,602.075) rotate(-135.336)">
				<title>Sheet.23541</title>
				<path d="M0 354.94 L0.45 354.94" class="st2"/>
			</g>
			<g id="shape23542-660" transform="translate(-241.71,96.666) rotate(-44.6645)">
				<title>Sheet.23542</title>
				<path d="M0 354.94 L0.45 354.94" class="st2"/>
			</g>
			<g id="shape23543-663" transform="translate(7.89481,-5.72667)">
				<title>Sheet.23543</title>
			</g>
			<g id="shape23544-664" transform="translate(-234.946,96.6088) rotate(-44.6645)">
				<title>Sheet.23544</title>
				<path d="M0 354.94 L0.45 354.94" class="st2"/>
			</g>
			<g id="shape23545-667" transform="translate(-234.623,600.976) rotate(-135.336)">
				<title>Sheet.23545</title>
				<path d="M0 354.94 L0.45 354.94" class="st2"/>
			</g>
			<g id="shape23546-670" transform="translate(14.7824,-6.30498)">
				<title>Sheet.23546</title>
			</g>
			<g id="shape23547-671" transform="translate(-241.387,600.985) rotate(-135.336)">
				<title>Sheet.23547</title>
				<path d="M0 354.94 L0.45 354.94" class="st2"/>
			</g>
			<g id="shape23548-674" transform="translate(-241.71,95.5751) rotate(-44.6645)">
				<title>Sheet.23548</title>
				<path d="M0 354.94 L0.45 354.94" class="st2"/>
			</g>
			<g id="shape23549-677" transform="translate(7.89481,-6.81756)">
				<title>Sheet.23549</title>
			</g>
			<g id="shape23550-678" transform="translate(-234.946,95.5179) rotate(-44.6645)">
				<title>Sheet.23550</title>
				<path d="M0 354.94 L0.45 354.94" class="st2"/>
			</g>
			<g id="shape23551-681" transform="translate(-234.623,599.885) rotate(-135.336)">
				<title>Sheet.23551</title>
				<path d="M0 354.94 L0.45 354.94" class="st2"/>
			</g>
			<g id="shape23552-684" transform="translate(14.7824,-7.39587)">
				<title>Sheet.23552</title>
			</g>
			<g id="shape23553-685" transform="translate(-241.387,599.894) rotate(-135.336)">
				<title>Sheet.23553</title>
				<path d="M0 354.94 L0.45 354.94" class="st2"/>
			</g>
			<g id="shape23554-688" transform="translate(-241.71,94.4842) rotate(-44.6645)">
				<title>Sheet.23554</title>
				<path d="M0 354.94 L0.45 354.94" class="st2"/>
			</g>
			<g id="shape23555-691" transform="translate(7.89481,-7.90845)">
				<title>Sheet.23555</title>
			</g>
			<g id="shape23556-692" transform="translate(-234.946,94.427) rotate(-44.6645)">
				<title>Sheet.23556</title>
				<path d="M0 354.94 L0.45 354.94" class="st2"/>
			</g>
			<g id="shape23557-695" transform="translate(-234.623,598.794) rotate(-135.336)">
				<title>Sheet.23557</title>
				<path d="M0 354.94 L0.45 354.94" class="st2"/>
			</g>
			<g id="shape23558-698" transform="translate(14.7824,-8.48676)">
				<title>Sheet.23558</title>
			</g>
			<g id="shape23559-699" transform="translate(-241.387,598.803) rotate(-135.336)">
				<title>Sheet.23559</title>
				<path d="M0 354.94 L0.45 354.94" class="st2"/>
			</g>
			<g id="shape23560-702" transform="translate(-241.71,93.3933) rotate(-44.6645)">
				<title>Sheet.23560</title>
				<path d="M0 354.94 L0.45 354.94" class="st2"/>
			</g>
			<g id="shape23561-705" transform="translate(7.89481,-8.99935)">
				<title>Sheet.23561</title>
			</g>
			<g id="shape23562-706" transform="translate(-234.946,93.3361) rotate(-44.6645)">
				<title>Sheet.23562</title>
				<path d="M0 354.94 L0.45 354.94" class="st2"/>
			</g>
			<g id="shape23563-709" transform="translate(-234.623,597.703) rotate(-135.336)">
				<title>Sheet.23563</title>
				<path d="M0 354.94 L0.45 354.94" class="st2"/>
			</g>
			<g id="shape23564-712" transform="translate(14.7824,-9.57765)">
				<title>Sheet.23564</title>
			</g>
			<g id="shape23565-713" transform="translate(-23.6248,-7.9973) rotate(-5.131)">
				<title>Sheet.23565</title>
				<path d="M0 354.94 L6.47 354.94" class="st2"/>
			</g>
			<g id="shape23566-716" transform="translate(-23.6248,-7.1568) rotate(-5.131)">
				<title>Sheet.23566</title>
				<path d="M0 354.94 L6.47 354.94" class="st2"/>
			</g>
			<g id="shape23567-719" transform="translate(-23.6248,-6.9064) rotate(-5.131)">
				<title>Sheet.23567</title>
				<path d="M0 354.94 L6.47 354.94" class="st2"/>
			</g>
			<g id="shape23568-722" transform="translate(-23.6248,-6.06591) rotate(-5.131)">
				<title>Sheet.23568</title>
				<path d="M0 354.94 L6.47 354.94" class="st2"/>
			</g>
			<g id="shape23569-725" transform="translate(-23.6248,-5.81551) rotate(-5.131)">
				<title>Sheet.23569</title>
				<path d="M0 354.94 L6.47 354.94" class="st2"/>
			</g>
			<g id="shape23570-728" transform="translate(-23.6248,-4.97502) rotate(-5.131)">
				<title>Sheet.23570</title>
				<path d="M0 354.94 L6.47 354.94" class="st2"/>
			</g>
			<g id="shape23571-731" transform="translate(-23.6248,-4.72462) rotate(-5.131)">
				<title>Sheet.23571</title>
				<path d="M0 354.94 L6.47 354.94" class="st2"/>
			</g>
			<g id="shape23572-734" transform="translate(-23.6248,-3.88413) rotate(-5.131)">
				<title>Sheet.23572</title>
				<path d="M0 354.94 L6.47 354.94" class="st2"/>
			</g>
			<g id="shape23573-737" transform="translate(363.056,346.359) rotate(90)">
				<title>Sheet.23573</title>
				<path d="M0 354.94 L0.25 354.94" class="st2"/>
			</g>
			<g id="shape23574-740" transform="translate(363.056,347.449) rotate(90)">
				<title>Sheet.23574</title>
				<path d="M0 354.94 L0.25 354.94" class="st2"/>
			</g>
			<g id="shape23575-743" transform="translate(363.056,348.54) rotate(90)">
				<title>Sheet.23575</title>
				<path d="M0 354.94 L0.25 354.94" class="st2"/>
			</g>
			<g id="shape23576-746" transform="translate(-340.379,348.212) rotate(-90)">
				<title>Sheet.23576</title>
				<path d="M0 354.94 L0.25 354.94" class="st2"/>
			</g>
			<g id="shape23577-749" transform="translate(-340.379,347.122) rotate(-90)">
				<title>Sheet.23577</title>
				<path d="M0 354.94 L0.25 354.94" class="st2"/>
			</g>
			<g id="shape23578-752" transform="translate(-340.379,346.031) rotate(-90)">
				<title>Sheet.23578</title>
				<path d="M0 354.94 L0.25 354.94" class="st2"/>
			</g>
			<g id="shape23579-755" transform="translate(369.496,344.586) rotate(90)">
				<title>Sheet.23579</title>
				<path d="M0 354.94 L0.35 354.94" class="st2"/>
			</g>
			<g id="shape23580-758" transform="translate(369.496,349.053) rotate(90)">
				<title>Sheet.23580</title>
				<path d="M0 354.94 L1.27 354.94" class="st2"/>
			</g>
			<g id="shape23581-761" transform="translate(10.7049,-3.79674)">
				<title>Sheet.23581</title>
				<path d="M0 354.94 L1.27 354.94" class="st2"/>
			</g>
			<g id="shape23582-764" transform="translate(-232.975,609.213) rotate(-136.643)">
				<title>Sheet.23582</title>
				<path d="M0 354.94 L0.37 354.94" class="st2"/>
			</g>
			<g id="shape23583-767" transform="translate(-231.707,93.0693) rotate(-43.357)">
				<title>Sheet.23583</title>
				<path d="M0 354.94 L0.37 354.94" class="st2"/>
			</g>
		</g>
		<g id="shape23788-770" transform="translate(16.7002,-29.7078)">
			<title>Sheet.23788</title>
			<desc>CoAP Client</desc>
			<rect x="0" y="339.82" width="123.248" height="15.1181" class="st5"/>
			<text x="0" y="349.65" class="st6">CoAP Client</text>		</g>
		<g id="shape23789-773" transform="translate(16.7002,-78.4329)">
			<title>Sheet.23789</title>
			<desc>CoAP Temperature server</desc>
			<rect x="0" y="339.82" width="197.596" height="15.1181" class="st5"/>
			<text x="0" y="349.65" class="st6">CoAP Temperature server</text>		</g>
		<g id="shape23790-776" transform="translate(8.10764,-67.1384)">
			<title>Sheet.23790</title>
			<path d="M0 315.34 L209.33 315.34 L209.33 354.94 L0 354.94 L0 315.34 Z" class="st3"/>
		</g>
		<g id="shape23791-778" transform="translate(8.10764,-18.4257)">
			<title>Sheet.23791</title>
			<path d="M0 315.34 L209.33 315.34 L209.33 354.94 L0 354.94 L0 315.34 Z" class="st3"/>
		</g>
		<g id="shape23792-780" transform="translate(0,-9.62588)">
			<title>Sheet.23792</title>
			<path d="M0 248.63 L225.81 248.63 L225.81 354.94 L0 354.94 L0 248.63 Z" class="st3"/>
		</g>
		<g id="shape23793-782" transform="translate(152.939,-49.5221)">
			<title>Sheet.23793</title>
			<desc>Button 1</desc>
			<rect x="0" y="349.268" width="24.2894" height="5.66929" class="st5"/>
			<text x="2.15" y="354.65" class="st7">Button 1</text>		</g>
		<g id="shape23794-785" transform="translate(184.937,-49.5221)">
			<title>Sheet.23794</title>
			<desc>Button 2</desc>
			<rect x="0" y="349.268" width="24.2894" height="5.66929" class="st5"/>
			<text x="2.15" y="354.65" class="st7">Button 2</text>		</g>
		<g id="shape23795-788" transform="translate(939.865,-78.4329)">
			<title>Sheet.23795</title>
			<desc>CoAP Light server</desc>
			<rect x="0" y="339.82" width="197.596" height="15.1181" class="st5"/>
			<text x="0" y="349.65" class="st6">CoAP Light server</text>		</g>
		<g id="shape23796-791" transform="translate(931.272,-17.5753)">
			<title>Sheet.23796</title>
			<path d="M0 265.77 L209.33 265.77 L209.33 354.94 L0 354.94 L0 265.77 Z" class="st3"/>
		</g>
		<g id="shape23797-793" transform="translate(923.164,-9.62588)">
			<title>Sheet.23797</title>
			<path d="M0 248.63 L225.81 248.63 L225.81 354.94 L0 354.94 L0 248.63 Z" class="st3"/>
		</g>
		<g id="shape23798-795" transform="translate(1076.1,-62.845)">
			<title>Sheet.23798</title>
			<desc>Light 1</desc>
			<rect x="0" y="349.268" width="24.2894" height="5.66929" class="st5"/>
			<text x="4.45" y="354.65" class="st7">Light 1</text>		</g>
		<g id="shape23799-798" transform="translate(1108.1,-62.845)">
			<title>Sheet.23799</title>
			<desc>Light 2</desc>
			<rect x="0" y="349.268" width="24.2894" height="5.66929" class="st5"/>
			<text x="4.45" y="354.65" class="st7">Light 2</text>		</g>
		<g id="shape23800-801" transform="translate(473.795,-54.5177)">
			<title>Sheet.23800</title>
			<desc>Internet</desc>
			<rect x="0" y="332.261" width="197.596" height="22.6772" class="st5"/>
			<text x="61.19" y="350.4" class="st8">Internet</text>		</g>
		<g id="shape23801-804" transform="translate(280.957,-9.62588)">
			<title>Sheet.23801</title>
			<path d="M0 248.63 L69.26 248.63 L69.26 354.94 L0 354.94 L0 248.63 Z" class="st3"/>
		</g>
		<g id="shape23802-806" transform="translate(216.367,-59.6827)">
			<title>Sheet.23802</title>
			<desc>BLE enabled router</desc>
			<rect x="0" y="343.599" width="197.596" height="11.3386" class="st5"/>
			<text x="90.56" y="339.06" class="st9">BLE <tspan x="80.2" dy="1.2em" class="st10">enabled </tspan><tspan x="84.16"
						dy="1.2em" class="st10">router</tspan></text>		</g>
		<g id="shape23803-811" transform="translate(798.761,-9.62588)">
			<title>Sheet.23803</title>
			<path d="M69.26 248.63 L0 248.63 L0 354.94 L69.26 354.94 L69.26 248.63 Z" class="st3"/>
		</g>
		<g id="shape23804-813" transform="translate(734.171,-59.6827)">
			<title>Sheet.23804</title>
			<desc>BLE enabled router</desc>
			<rect x="0" y="343.599" width="197.596" height="11.3386" class="st5"/>
			<text x="90.56" y="339.06" class="st9">BLE <tspan x="80.2" dy="1.2em" class="st10">enabled </tspan><tspan x="84.16"
						dy="1.2em" class="st10">router</tspan></text>		</g>
		<g id="shape23805-818" transform="translate(185.907,-72.2014)">
			<title>Sheet.23805</title>
			<desc>BLE 6lowpan</desc>
			<rect x="0" y="347.379" width="135.084" height="7.55906" class="st5"/>
			<text x="47.94" y="354.56" class="st11">BLE 6lowpan</text>		</g>
		<g id="shape23806-821" transform="translate(335.833,-69.2306)">
			<title>Sheet.23806</title>
			<desc>UDP/IPv6</desc>
			<rect x="0" y="343.599" width="135.084" height="11.3386" class="st5"/>
			<text x="45.51" y="354.37" class="st9">UDP/IPv6</text>		</g>
		<g id="shape23807-824" transform="translate(938.972,117.534) rotate(90)">
			<title>Sheet.23807</title>
			<desc>UDP/IPv6</desc>
			<rect x="0" y="343.599" width="135.084" height="11.3386" class="st5"/>
			<text x="45.51" y="354.37" class="st9">UDP/IPv6</text>		</g>
		<g id="shape23808-827" transform="translate(678.189,-69.2306)">
			<title>Sheet.23808</title>
			<desc>UDP/IPv6</desc>
			<rect x="0" y="343.599" width="135.084" height="11.3386" class="st5"/>
			<text x="45.51" y="354.37" class="st9">UDP/IPv6</text>		</g>
		<g id="shape23887-830" transform="translate(477.217,-321.163)">
			<title>Sheet.23887</title>
			<desc>CoAP Client</desc>
			<rect x="0" y="339.82" width="197.596" height="15.1181" class="st5"/>
			<text x="63.03" y="349.65" class="st6">CoAP Client</text>		</g>
		<g id="shape24154-833" transform="translate(828.114,-72.2014)">
			<title>Sheet.24154</title>
			<desc>BLE 6lowpan</desc>
			<rect x="0" y="347.379" width="135.084" height="7.55906" class="st5"/>
			<text x="47.94" y="354.56" class="st11">BLE 6lowpan</text>		</g>
	</g>
</svg>
