<?xml version="1.0" encoding="UTF-8" standalone="no"?>
<!DOCTYPE svg PUBLIC "-//W3C//DTD SVG 1.1//EN" "http://www.w3.org/Graphics/SVG/1.1/DTD/svg11.dtd">
<!-- Generated by Microsoft Visio, SVG Export CoAP Client Server.svg Page-1 -->
<svg xmlns="http://www.w3.org/2000/svg" xmlns:xlink="http://www.w3.org/1999/xlink" xmlns:ev="http://www.w3.org/2001/xml-events"
		width="8in" height="2.5in" viewBox="0 0 1148.98 354.938" xml:space="preserve" color-interpolation-filters="sRGB"
		class="st16">
	<style type="text/css">
	<![CDATA[
		.st1 {fill:none}
		.st2 {stroke:#000000;stroke-linecap:round;stroke-linejoin:round;stroke-width:0.75}
		.st3 {fill:none;stroke:#000000;stroke-linecap:butt;stroke-width:0.75}
		.st4 {fill:none;stroke:#000000;stroke-linecap:round;stroke-linejoin:round;stroke-width:0.75}
		.st5 {stroke:#dfdfdf;stroke-linecap:round;stroke-linejoin:round;stroke-width:0.75}
		.st6 {fill:none;stroke:none;stroke-linecap:round;stroke-linejoin:round;stroke-width:0.75}
		.st7 {fill:#000000;font-family:Calibri;font-size:1.25983em}
		.st8 {stroke:#000000;stroke-linecap:butt;stroke-width:0.75}
		.st9 {fill:#000000;font-family:Calibri;font-size:0.472435em}
		.st10 {fill:#000000;font-family:Calibri;font-size:1.88976em}
		.st11 {fill:#000000;font-family:Calibri;font-size:0.944893em}
		.st12 {font-size:1em}
		.st13 {fill:#dfdfdf;font-family:Calibri;font-size:0.944893em}
		.st14 {fill:#dfdfdf;font-family:Calibri;font-size:1.25983em}
		.st15 {fill:#000000;font-family:Calibri;font-size:0.629929em}
		.st16 {fill:none;fill-rule:evenodd;font-size:12px;overflow:visible;stroke-linecap:square;stroke-miterlimit:3}
	]]>
	</style>

	<g>
		<title>Page-1</title>
		<g id="group22667-1" transform="translate(456.743,-5.68434E-014)">
			<title>Sheet.22667</title>
			<g id="shape22668-2" transform="translate(22.0027,-80.3194)">
				<title>Sheet.22668</title>
				<path d="M0.23 354.94 C0.03 351.72 -0.18 348.51 0.23 345.3 C0.86 340.25 2.99 335.23 6.28 331.4 C11.53 325.31 19.74
							 322.28 28.03 320.87 C35.74 319.56 43.52 319.65 50.46 322.21 C54.21 323.6 57.72 325.71 61.22 327.82 L0.23
							 354.94 Z" class="st1"/>
				<path d="M0.23 354.94 C0.03 351.72 -0.18 348.51 0.23 345.3 C0.86 340.25 2.99 335.23 6.28 331.4 C11.53 325.31 19.74
							 322.28 28.03 320.87 C35.74 319.56 43.52 319.65 50.46 322.21 C54.21 323.6 57.72 325.71 61.22 327.82"
						class="st2"/>
			</g>
			<g id="shape22669-5" transform="translate(75.7498,-111.635)">
				<title>Sheet.22669</title>
				<path d="M-0 354.94 C2.22 352.44 4.56 350.12 7.25 348.37 C13.05 344.62 20.52 343.53 27.88 343.67 C33.49 343.77 39.03
							 344.59 43.58 347.25 C44.7 347.9 45.75 348.66 46.77 349.49 L0 354.94 Z" class="st1"/>
				<path d="M-0 354.94 C2.22 352.44 4.56 350.12 7.25 348.37 C13.05 344.62 20.52 343.53 27.88 343.67 C33.49 343.77 39.03
							 344.59 43.58 347.25 C44.7 347.9 45.75 348.66 46.77 349.49" class="st2"/>
			</g>
			<g id="shape22670-8" transform="translate(119.735,-113.351)">
				<title>Sheet.22670</title>
				<path d="M0 354.94 C2.53 351.32 5.23 347.9 8.79 345.61 C15.63 341.2 25.67 340.9 33.46 344.04 C36.91 345.43 39.93
							 347.5 42.82 349.74 L0 354.94 Z" class="st1"/>
				<path d="M0 354.94 C2.53 351.32 5.23 347.9 8.79 345.61 C15.63 341.2 25.67 340.9 33.46 344.04 C36.91 345.43 39.93
							 347.5 42.82 349.74" class="st2"/>
			</g>
			<g id="shape22671-11" transform="translate(157.556,-107.507)">
				<title>Sheet.22671</title>
				<path d="M0 347.53 C4.18 344.37 8.42 341.34 13.17 339.27 C18.62 336.9 24.74 335.81 30.8 336.64 C35.59 337.3 40.33
							 339.16 43.7 342.25 C47.23 345.49 49.25 350.08 51 354.91 C51 354.92 51 354.92 51 354.93 C51 354.93 51
							 354.93 51 354.94 L0 347.53 Z" class="st1"/>
				<path d="M0 347.53 C4.18 344.37 8.42 341.34 13.17 339.27 C18.62 336.9 24.74 335.81 30.8 336.64 C35.59 337.3 40.33
							 339.16 43.7 342.25 C47.23 345.49 49.25 350.08 51 354.91 C51 354.92 51 354.92 51 354.93 C51 354.93 51
							 354.93 51 354.94" class="st2"/>
			</g>
			<g id="shape22672-14" transform="translate(207.1,-73.9621)">
				<title>Sheet.22672</title>
				<path d="M0 321.51 C2.67 321.28 3.89 321.26 5.12 321.33 C8.51 321.54 11.99 322.51 14.68 324.49 C17.77 326.75 19.83
							 330.33 21 334.13 C22.13 337.8 22.43 341.67 21.35 345.27 C20.5 348.07 18.82 350.71 16.61 352.54 C15.4
							 353.55 14.02 354.31 12.56 354.94 L0 321.51 Z" class="st1"/>
				<path d="M0 321.51 C2.67 321.28 3.89 321.26 5.12 321.33 C8.51 321.54 11.99 322.51 14.68 324.49 C17.77 326.75 19.83
							 330.33 21 334.13 C22.13 337.8 22.43 341.67 21.35 345.27 C20.5 348.07 18.82 350.71 16.61 352.54 C15.4
							 353.55 14.02 354.31 12.56 354.94" class="st2"/>
			</g>
			<g id="shape22673-17" transform="translate(208.818,-40.0397)">
				<title>Sheet.22673</title>
				<path d="M18.27 314.53 C20.91 317.53 23.33 320.63 24.67 324.3 C25.92 327.73 26.21 331.65 25.37 335.26 C24.6 338.58
							 22.86 341.64 20.63 344.2 C17.77 347.49 14.08 349.94 10.1 351.83 C6.88 353.35 3.46 354.5 0 354.94 L18.27
							 314.53 Z" class="st1"/>
				<path d="M18.27 314.53 C20.91 317.53 23.33 320.63 24.67 324.3 C25.92 327.73 26.21 331.65 25.37 335.26 C24.6 338.58
							 22.86 341.64 20.63 344.2 C17.77 347.49 14.08 349.94 10.1 351.83 C6.88 353.35 3.46 354.5 0 354.94"
						class="st2"/>
			</g>
			<g id="shape22674-20" transform="translate(187.017,-40.0397)">
				<title>Sheet.22674</title>
				<path d="M0 336.18 C4.06 338.13 8.11 340.08 11.22 343.13 C13.47 345.34 15.22 348.13 16.38 351.2 C16.83 352.41 17.19
							 353.67 17.44 354.94 L0 336.18 Z" class="st1"/>
				<path d="M0 336.18 C4.06 338.13 8.11 340.08 11.22 343.13 C13.47 345.34 15.22 348.13 16.38 351.2 C16.83 352.41 17.19
							 353.67 17.44 354.94" class="st2"/>
			</g>
			<g id="shape22675-23" transform="translate(86.7007,5.68434E-014)">
				<title>Sheet.22675</title>
				<path d="M71.96 330.7 C70.53 335.49 68.78 340.04 65.77 343.67 C60.74 349.72 52.22 353.18 44.01 354.43 C37.03 355.49
							 30.28 354.96 23.38 353.53 C17.16 352.25 10.82 350.24 6.33 346.13 C3.84 343.86 1.92 340.95 0 338.03 L71.96
							 330.7 Z" class="st1"/>
				<path d="M71.96 330.7 C70.53 335.49 68.78 340.04 65.77 343.67 C60.74 349.72 52.22 353.18 44.01 354.43 C37.03 355.49
							 30.28 354.96 23.38 353.53 C17.16 352.25 10.82 350.24 6.33 346.13 C3.84 343.86 1.92 340.95 0 338.03"
						class="st2"/>
			</g>
			<g id="shape22676-26" transform="translate(34.185,-5.58812)">
				<title>Sheet.22676</title>
				<path d="M57.25 350.1 C57.22 350.11 57.2 350.12 57.18 350.13 C57.18 350.13 57.17 350.13 57.17 350.13 C52.59 351.84
							 47.96 353.33 43.14 354.19 C34.54 355.71 25.37 355.19 17.12 351.95 C11.38 349.68 6.08 346.1 2.32 341.41
							 C1.47 340.36 0.71 339.25 0 338.11 L57.25 350.1 Z" class="st1"/>
				<path d="M57.25 350.1 C57.22 350.11 57.2 350.12 57.18 350.13 C57.18 350.13 57.17 350.13 57.17 350.13 C52.59 351.84
							 47.96 353.33 43.14 354.19 C34.54 355.71 25.37 355.19 17.12 351.95 C11.38 349.68 6.08 346.1 2.32 341.41
							 C1.47 340.36 0.71 339.25 0 338.11" class="st2"/>
			</g>
			<g id="shape22677-29" transform="translate(6.98029,-22.3953)">
				<title>Sheet.22677</title>
				<path d="M31.85 354.63 C28.69 354.91 25.47 355.04 22.12 354.85 C14.93 354.44 7.11 352.54 3.05 347.23 C1.52 345.23
							 0.52 342.74 -0 340.13 L31.85 354.63 Z" class="st1"/>
				<path d="M31.85 354.63 C28.69 354.91 25.47 355.04 22.12 354.85 C14.93 354.44 7.11 352.54 3.05 347.23 C1.52 345.23
							 0.52 342.74 -0 340.13" class="st2"/>
			</g>
			<g id="shape22678-32" transform="translate(1.07914E-013,-48.8131)">
				<title>Sheet.22678</title>
				<path d="M24.56 354.94 C21.4 354.34 18.26 353.6 15.19 352.57 C11.36 351.29 7.63 349.54 4.65 346.74 C2.56 344.79 0.84
							 342.34 0.24 339.58 C-0.44 336.42 0.36 332.86 2.09 330.11 C5.04 325.41 10.72 323.1 16.12 321.43 C18.12
							 320.81 20.08 320.28 22.03 319.78 L24.56 354.94 Z" class="st1"/>
				<path d="M24.56 354.94 C21.4 354.34 18.26 353.6 15.19 352.57 C11.36 351.29 7.63 349.54 4.65 346.74 C2.56 344.79 0.84
							 342.34 0.24 339.58 C-0.44 336.42 0.36 332.86 2.09 330.11 C5.04 325.41 10.72 323.1 16.12 321.43 C18.12
							 320.81 20.08 320.28 22.03 319.78" class="st2"/>
			</g>
		</g>
		<g id="group22679-35" transform="translate(185.635,-24.9133)">
			<title>Sheet.22679</title>
			<g id="shape22680-36">
				<title>Sheet.22680</title>
				<path d="M0 354.94 L22.68 354.94 L22.68 332.26 L0 332.26 L0 354.94 Z" class="st3"/>
			</g>
			<g id="shape22681-38" transform="translate(4.29434,-4.29434)">
				<title>Sheet.22681</title>
				<ellipse cx="7.04425" cy="347.893" rx="7.04425" ry="7.04425" class="st4"/>
			</g>
		</g>
		<g id="group22682-40" transform="translate(153.637,-24.9133)">
			<title>Sheet.22682</title>
			<g id="shape22683-41">
				<title>Sheet.22683</title>
				<path d="M0 354.94 L22.68 354.94 L22.68 332.26 L0 332.26 L0 354.94 Z" class="st3"/>
			</g>
			<g id="shape22684-43" transform="translate(4.29434,-4.29434)">
				<title>Sheet.22684</title>
				<ellipse cx="7.04425" cy="347.893" rx="7.04425" ry="7.04425" class="st4"/>
			</g>
		</g>
		<g id="group22685-45" transform="translate(1076.8,-25.693)">
			<title>Sheet.22685</title>
			<g id="shape22686-46">
				<title>Sheet.22686</title>
				<path d="M0 354.94 L22.68 354.94 L22.68 319.72 L0 319.72 L0 354.94 Z" class="st3"/>
			</g>
			<g id="shape22687-48" transform="translate(4.30713,-19.3708)">
				<title>Sheet.22687</title>
				<path d="M12.44 354.94 A7.04425 7.04425 -180 1 0 1.62 354.94 L12.44 354.94 Z" class="st1"/>
				<path d="M12.44 354.94 A7.04425 7.04425 -180 1 0 1.62 354.94" class="st2"/>
			</g>
			<g id="shape22688-51" transform="translate(8.11838,-10.3513)">
				<title>Sheet.22688</title>
				<path d="M0 354.94 L6.44 354.94" class="st2"/>
			</g>
			<g id="shape22689-54" transform="translate(5.9282,-10.3513)">
				<title>Sheet.22689</title>
				<path d="M2.19 354.94 A17.0418 17.0418 -180 0 0 -0 345.92 L2.19 354.94 Z" class="st1"/>
				<path d="M2.19 354.94 A17.0418 17.0418 -180 0 0 -0 345.92" class="st2"/>
			</g>
			<g id="shape22690-57" transform="translate(14.5588,-10.3513)">
				<title>Sheet.22690</title>
				<path d="M2.19 345.92 A17.0418 17.0418 -180 0 0 0 354.94 L2.19 345.92 Z" class="st1"/>
				<path d="M2.19 345.92 A17.0418 17.0418 -180 0 0 0 354.94" class="st2"/>
			</g>
			<g id="shape22691-60" transform="translate(8.11838,-4.61203)">
				<title>Sheet.22691</title>
				<path d="M0 354.94 L6.44 354.94" class="st2"/>
			</g>
			<g id="shape22692-63" transform="translate(8.71209,-4.04939)">
				<title>Sheet.22692</title>
				<path d="M0 354.94 L5.25 354.94" class="st2"/>
			</g>
			<g id="shape22693-66" transform="translate(-235.435,608.518) rotate(-136.539)">
				<title>Sheet.22693</title>
				<path d="M0 354.94 L0.82 354.94" class="st2"/>
			</g>
			<g id="shape22694-69" transform="translate(-230.182,93.259) rotate(-43.4609)">
				<title>Sheet.22694</title>
				<path d="M0 354.94 L0.82 354.94" class="st2"/>
			</g>
			<g id="shape22695-72" transform="translate(363.056,344.586) rotate(90)">
				<title>Sheet.22695</title>
				<path d="M0 354.94 L0.93 354.94" class="st2"/>
			</g>
			<g id="shape22696-75" transform="translate(-346.819,350.326) rotate(-90)">
				<title>Sheet.22696</title>
				<path d="M0 354.94 L0.69 354.94" class="st2"/>
			</g>
			<g id="shape22697-78" transform="translate(-241.387,602.075) rotate(-135.336)">
				<title>Sheet.22697</title>
				<path d="M0 354.94 L0.45 354.94" class="st2"/>
			</g>
			<g id="shape22698-81" transform="translate(-241.71,96.666) rotate(-44.6645)">
				<title>Sheet.22698</title>
				<path d="M0 354.94 L0.45 354.94" class="st2"/>
			</g>
			<g id="shape22699-84" transform="translate(7.89481,-5.72667)">
				<title>Sheet.22699</title>
			</g>
			<g id="shape22700-85" transform="translate(-234.946,96.6088) rotate(-44.6645)">
				<title>Sheet.22700</title>
				<path d="M0 354.94 L0.45 354.94" class="st2"/>
			</g>
			<g id="shape22701-88" transform="translate(-234.623,600.976) rotate(-135.336)">
				<title>Sheet.22701</title>
				<path d="M0 354.94 L0.45 354.94" class="st2"/>
			</g>
			<g id="shape22702-91" transform="translate(14.7824,-6.30498)">
				<title>Sheet.22702</title>
			</g>
			<g id="shape22703-92" transform="translate(-241.387,600.985) rotate(-135.336)">
				<title>Sheet.22703</title>
				<path d="M0 354.94 L0.45 354.94" class="st2"/>
			</g>
			<g id="shape22704-95" transform="translate(-241.71,95.5751) rotate(-44.6645)">
				<title>Sheet.22704</title>
				<path d="M0 354.94 L0.45 354.94" class="st2"/>
			</g>
			<g id="shape22705-98" transform="translate(7.89481,-6.81756)">
				<title>Sheet.22705</title>
			</g>
			<g id="shape22706-99" transform="translate(-234.946,95.5179) rotate(-44.6645)">
				<title>Sheet.22706</title>
				<path d="M0 354.94 L0.45 354.94" class="st2"/>
			</g>
			<g id="shape22707-102" transform="translate(-234.623,599.885) rotate(-135.336)">
				<title>Sheet.22707</title>
				<path d="M0 354.94 L0.45 354.94" class="st2"/>
			</g>
			<g id="shape22708-105" transform="translate(14.7824,-7.39587)">
				<title>Sheet.22708</title>
			</g>
			<g id="shape22709-106" transform="translate(-241.387,599.894) rotate(-135.336)">
				<title>Sheet.22709</title>
				<path d="M0 354.94 L0.45 354.94" class="st2"/>
			</g>
			<g id="shape22710-109" transform="translate(-241.71,94.4842) rotate(-44.6645)">
				<title>Sheet.22710</title>
				<path d="M0 354.94 L0.45 354.94" class="st2"/>
			</g>
			<g id="shape22711-112" transform="translate(7.89481,-7.90845)">
				<title>Sheet.22711</title>
			</g>
			<g id="shape22712-113" transform="translate(-234.946,94.427) rotate(-44.6645)">
				<title>Sheet.22712</title>
				<path d="M0 354.94 L0.45 354.94" class="st2"/>
			</g>
			<g id="shape22713-116" transform="translate(-234.623,598.794) rotate(-135.336)">
				<title>Sheet.22713</title>
				<path d="M0 354.94 L0.45 354.94" class="st2"/>
			</g>
			<g id="shape22714-119" transform="translate(14.7824,-8.48676)">
				<title>Sheet.22714</title>
			</g>
			<g id="shape22715-120" transform="translate(-241.387,598.803) rotate(-135.336)">
				<title>Sheet.22715</title>
				<path d="M0 354.94 L0.45 354.94" class="st2"/>
			</g>
			<g id="shape22716-123" transform="translate(-241.71,93.3933) rotate(-44.6645)">
				<title>Sheet.22716</title>
				<path d="M0 354.94 L0.45 354.94" class="st2"/>
			</g>
			<g id="shape22717-126" transform="translate(7.89481,-8.99935)">
				<title>Sheet.22717</title>
			</g>
			<g id="shape22718-127" transform="translate(-234.946,93.3361) rotate(-44.6645)">
				<title>Sheet.22718</title>
				<path d="M0 354.94 L0.45 354.94" class="st2"/>
			</g>
			<g id="shape22719-130" transform="translate(-234.623,597.703) rotate(-135.336)">
				<title>Sheet.22719</title>
				<path d="M0 354.94 L0.45 354.94" class="st2"/>
			</g>
			<g id="shape22720-133" transform="translate(14.7824,-9.57765)">
				<title>Sheet.22720</title>
			</g>
			<g id="shape22721-134" transform="translate(-23.6248,-7.9973) rotate(-5.131)">
				<title>Sheet.22721</title>
				<path d="M0 354.94 L6.47 354.94" class="st2"/>
			</g>
			<g id="shape22722-137" transform="translate(-23.6248,-7.1568) rotate(-5.131)">
				<title>Sheet.22722</title>
				<path d="M0 354.94 L6.47 354.94" class="st2"/>
			</g>
			<g id="shape22723-140" transform="translate(-23.6248,-6.9064) rotate(-5.131)">
				<title>Sheet.22723</title>
				<path d="M0 354.94 L6.47 354.94" class="st2"/>
			</g>
			<g id="shape22724-143" transform="translate(-23.6248,-6.06591) rotate(-5.131)">
				<title>Sheet.22724</title>
				<path d="M0 354.94 L6.47 354.94" class="st2"/>
			</g>
			<g id="shape22725-146" transform="translate(-23.6248,-5.81551) rotate(-5.131)">
				<title>Sheet.22725</title>
				<path d="M0 354.94 L6.47 354.94" class="st2"/>
			</g>
			<g id="shape22726-149" transform="translate(-23.6248,-4.97502) rotate(-5.131)">
				<title>Sheet.22726</title>
				<path d="M0 354.94 L6.47 354.94" class="st2"/>
			</g>
			<g id="shape22727-152" transform="translate(-23.6248,-4.72462) rotate(-5.131)">
				<title>Sheet.22727</title>
				<path d="M0 354.94 L6.47 354.94" class="st2"/>
			</g>
			<g id="shape22728-155" transform="translate(-23.6248,-3.88413) rotate(-5.131)">
				<title>Sheet.22728</title>
				<path d="M0 354.94 L6.47 354.94" class="st2"/>
			</g>
			<g id="shape22729-158" transform="translate(363.056,346.359) rotate(90)">
				<title>Sheet.22729</title>
				<path d="M0 354.94 L0.25 354.94" class="st2"/>
			</g>
			<g id="shape22730-161" transform="translate(363.056,347.449) rotate(90)">
				<title>Sheet.22730</title>
				<path d="M0 354.94 L0.25 354.94" class="st2"/>
			</g>
			<g id="shape22731-164" transform="translate(363.056,348.54) rotate(90)">
				<title>Sheet.22731</title>
				<path d="M0 354.94 L0.25 354.94" class="st2"/>
			</g>
			<g id="shape22732-167" transform="translate(-340.379,348.212) rotate(-90)">
				<title>Sheet.22732</title>
				<path d="M0 354.94 L0.25 354.94" class="st2"/>
			</g>
			<g id="shape22733-170" transform="translate(-340.379,347.122) rotate(-90)">
				<title>Sheet.22733</title>
				<path d="M0 354.94 L0.25 354.94" class="st2"/>
			</g>
			<g id="shape22734-173" transform="translate(-340.379,346.031) rotate(-90)">
				<title>Sheet.22734</title>
				<path d="M0 354.94 L0.25 354.94" class="st2"/>
			</g>
			<g id="shape22735-176" transform="translate(369.496,344.586) rotate(90)">
				<title>Sheet.22735</title>
				<path d="M0 354.94 L0.35 354.94" class="st2"/>
			</g>
			<g id="shape22736-179" transform="translate(369.496,349.053) rotate(90)">
				<title>Sheet.22736</title>
				<path d="M0 354.94 L1.27 354.94" class="st2"/>
			</g>
			<g id="shape22737-182" transform="translate(10.7049,-3.79674)">
				<title>Sheet.22737</title>
				<path d="M0 354.94 L1.27 354.94" class="st2"/>
			</g>
			<g id="shape22738-185" transform="translate(-232.975,609.213) rotate(-136.643)">
				<title>Sheet.22738</title>
				<path d="M0 354.94 L0.37 354.94" class="st2"/>
			</g>
			<g id="shape22739-188" transform="translate(-231.707,93.0693) rotate(-43.357)">
				<title>Sheet.22739</title>
				<path d="M0 354.94 L0.37 354.94" class="st2"/>
			</g>
		</g>
		<g id="group22740-191" transform="translate(1108.8,-25.693)">
			<title>Sheet.22740</title>
			<g id="shape22741-192">
				<title>Sheet.22741</title>
				<path d="M0 354.94 L22.68 354.94 L22.68 319.72 L0 319.72 L0 354.94 Z" class="st3"/>
			</g>
			<g id="shape22742-194" transform="translate(4.30713,-19.3708)">
				<title>Sheet.22742</title>
				<path d="M12.44 354.94 A7.04425 7.04425 -180 1 0 1.62 354.94 L12.44 354.94 Z" class="st1"/>
				<path d="M12.44 354.94 A7.04425 7.04425 -180 1 0 1.62 354.94" class="st2"/>
			</g>
			<g id="shape22743-197" transform="translate(8.11838,-10.3513)">
				<title>Sheet.22743</title>
				<path d="M0 354.94 L6.44 354.94" class="st2"/>
			</g>
			<g id="shape22744-200" transform="translate(5.9282,-10.3513)">
				<title>Sheet.22744</title>
				<path d="M2.19 354.94 A17.0418 17.0418 -180 0 0 -0 345.92 L2.19 354.94 Z" class="st1"/>
				<path d="M2.19 354.94 A17.0418 17.0418 -180 0 0 -0 345.92" class="st2"/>
			</g>
			<g id="shape22745-203" transform="translate(14.5588,-10.3513)">
				<title>Sheet.22745</title>
				<path d="M2.19 345.92 A17.0418 17.0418 -180 0 0 0 354.94 L2.19 345.92 Z" class="st1"/>
				<path d="M2.19 345.92 A17.0418 17.0418 -180 0 0 0 354.94" class="st2"/>
			</g>
			<g id="shape22746-206" transform="translate(8.11838,-4.61203)">
				<title>Sheet.22746</title>
				<path d="M0 354.94 L6.44 354.94" class="st2"/>
			</g>
			<g id="shape22747-209" transform="translate(8.71209,-4.04939)">
				<title>Sheet.22747</title>
				<path d="M0 354.94 L5.25 354.94" class="st2"/>
			</g>
			<g id="shape22748-212" transform="translate(-235.435,608.518) rotate(-136.539)">
				<title>Sheet.22748</title>
				<path d="M0 354.94 L0.82 354.94" class="st2"/>
			</g>
			<g id="shape22749-215" transform="translate(-230.182,93.259) rotate(-43.4609)">
				<title>Sheet.22749</title>
				<path d="M0 354.94 L0.82 354.94" class="st2"/>
			</g>
			<g id="shape22750-218" transform="translate(363.056,344.586) rotate(90)">
				<title>Sheet.22750</title>
				<path d="M0 354.94 L0.93 354.94" class="st2"/>
			</g>
			<g id="shape22751-221" transform="translate(-346.819,350.326) rotate(-90)">
				<title>Sheet.22751</title>
				<path d="M0 354.94 L0.69 354.94" class="st2"/>
			</g>
			<g id="shape22752-224" transform="translate(-241.387,602.075) rotate(-135.336)">
				<title>Sheet.22752</title>
				<path d="M0 354.94 L0.45 354.94" class="st2"/>
			</g>
			<g id="shape22753-227" transform="translate(-241.71,96.666) rotate(-44.6645)">
				<title>Sheet.22753</title>
				<path d="M0 354.94 L0.45 354.94" class="st2"/>
			</g>
			<g id="shape22754-230" transform="translate(7.89481,-5.72667)">
				<title>Sheet.22754</title>
			</g>
			<g id="shape22755-231" transform="translate(-234.946,96.6088) rotate(-44.6645)">
				<title>Sheet.22755</title>
				<path d="M0 354.94 L0.45 354.94" class="st2"/>
			</g>
			<g id="shape22756-234" transform="translate(-234.623,600.976) rotate(-135.336)">
				<title>Sheet.22756</title>
				<path d="M0 354.94 L0.45 354.94" class="st2"/>
			</g>
			<g id="shape22757-237" transform="translate(14.7824,-6.30498)">
				<title>Sheet.22757</title>
			</g>
			<g id="shape22758-238" transform="translate(-241.387,600.985) rotate(-135.336)">
				<title>Sheet.22758</title>
				<path d="M0 354.94 L0.45 354.94" class="st2"/>
			</g>
			<g id="shape22759-241" transform="translate(-241.71,95.5751) rotate(-44.6645)">
				<title>Sheet.22759</title>
				<path d="M0 354.94 L0.45 354.94" class="st2"/>
			</g>
			<g id="shape22760-244" transform="translate(7.89481,-6.81756)">
				<title>Sheet.22760</title>
			</g>
			<g id="shape22761-245" transform="translate(-234.946,95.5179) rotate(-44.6645)">
				<title>Sheet.22761</title>
				<path d="M0 354.94 L0.45 354.94" class="st2"/>
			</g>
			<g id="shape22762-248" transform="translate(-234.623,599.885) rotate(-135.336)">
				<title>Sheet.22762</title>
				<path d="M0 354.94 L0.45 354.94" class="st2"/>
			</g>
			<g id="shape22763-251" transform="translate(14.7824,-7.39587)">
				<title>Sheet.22763</title>
			</g>
			<g id="shape22764-252" transform="translate(-241.387,599.894) rotate(-135.336)">
				<title>Sheet.22764</title>
				<path d="M0 354.94 L0.45 354.94" class="st2"/>
			</g>
			<g id="shape22765-255" transform="translate(-241.71,94.4842) rotate(-44.6645)">
				<title>Sheet.22765</title>
				<path d="M0 354.94 L0.45 354.94" class="st2"/>
			</g>
			<g id="shape22766-258" transform="translate(7.89481,-7.90845)">
				<title>Sheet.22766</title>
			</g>
			<g id="shape22767-259" transform="translate(-234.946,94.427) rotate(-44.6645)">
				<title>Sheet.22767</title>
				<path d="M0 354.94 L0.45 354.94" class="st2"/>
			</g>
			<g id="shape22768-262" transform="translate(-234.623,598.794) rotate(-135.336)">
				<title>Sheet.22768</title>
				<path d="M0 354.94 L0.45 354.94" class="st2"/>
			</g>
			<g id="shape22769-265" transform="translate(14.7824,-8.48676)">
				<title>Sheet.22769</title>
			</g>
			<g id="shape22770-266" transform="translate(-241.387,598.803) rotate(-135.336)">
				<title>Sheet.22770</title>
				<path d="M0 354.94 L0.45 354.94" class="st2"/>
			</g>
			<g id="shape22771-269" transform="translate(-241.71,93.3933) rotate(-44.6645)">
				<title>Sheet.22771</title>
				<path d="M0 354.94 L0.45 354.94" class="st2"/>
			</g>
			<g id="shape22772-272" transform="translate(7.89481,-8.99935)">
				<title>Sheet.22772</title>
			</g>
			<g id="shape22773-273" transform="translate(-234.946,93.3361) rotate(-44.6645)">
				<title>Sheet.22773</title>
				<path d="M0 354.94 L0.45 354.94" class="st2"/>
			</g>
			<g id="shape22774-276" transform="translate(-234.623,597.703) rotate(-135.336)">
				<title>Sheet.22774</title>
				<path d="M0 354.94 L0.45 354.94" class="st2"/>
			</g>
			<g id="shape22775-279" transform="translate(14.7824,-9.57765)">
				<title>Sheet.22775</title>
			</g>
			<g id="shape22776-280" transform="translate(-23.6248,-7.9973) rotate(-5.131)">
				<title>Sheet.22776</title>
				<path d="M0 354.94 L6.47 354.94" class="st2"/>
			</g>
			<g id="shape22777-283" transform="translate(-23.6248,-7.1568) rotate(-5.131)">
				<title>Sheet.22777</title>
				<path d="M0 354.94 L6.47 354.94" class="st2"/>
			</g>
			<g id="shape22778-286" transform="translate(-23.6248,-6.9064) rotate(-5.131)">
				<title>Sheet.22778</title>
				<path d="M0 354.94 L6.47 354.94" class="st2"/>
			</g>
			<g id="shape22779-289" transform="translate(-23.6248,-6.06591) rotate(-5.131)">
				<title>Sheet.22779</title>
				<path d="M0 354.94 L6.47 354.94" class="st2"/>
			</g>
			<g id="shape22780-292" transform="translate(-23.6248,-5.81551) rotate(-5.131)">
				<title>Sheet.22780</title>
				<path d="M0 354.94 L6.47 354.94" class="st2"/>
			</g>
			<g id="shape22781-295" transform="translate(-23.6248,-4.97502) rotate(-5.131)">
				<title>Sheet.22781</title>
				<path d="M0 354.94 L6.47 354.94" class="st2"/>
			</g>
			<g id="shape22782-298" transform="translate(-23.6248,-4.72462) rotate(-5.131)">
				<title>Sheet.22782</title>
				<path d="M0 354.94 L6.47 354.94" class="st2"/>
			</g>
			<g id="shape22783-301" transform="translate(-23.6248,-3.88413) rotate(-5.131)">
				<title>Sheet.22783</title>
				<path d="M0 354.94 L6.47 354.94" class="st2"/>
			</g>
			<g id="shape22784-304" transform="translate(363.056,346.359) rotate(90)">
				<title>Sheet.22784</title>
				<path d="M0 354.94 L0.25 354.94" class="st2"/>
			</g>
			<g id="shape22785-307" transform="translate(363.056,347.449) rotate(90)">
				<title>Sheet.22785</title>
				<path d="M0 354.94 L0.25 354.94" class="st2"/>
			</g>
			<g id="shape22786-310" transform="translate(363.056,348.54) rotate(90)">
				<title>Sheet.22786</title>
				<path d="M0 354.94 L0.25 354.94" class="st2"/>
			</g>
			<g id="shape22787-313" transform="translate(-340.379,348.212) rotate(-90)">
				<title>Sheet.22787</title>
				<path d="M0 354.94 L0.25 354.94" class="st2"/>
			</g>
			<g id="shape22788-316" transform="translate(-340.379,347.122) rotate(-90)">
				<title>Sheet.22788</title>
				<path d="M0 354.94 L0.25 354.94" class="st2"/>
			</g>
			<g id="shape22789-319" transform="translate(-340.379,346.031) rotate(-90)">
				<title>Sheet.22789</title>
				<path d="M0 354.94 L0.25 354.94" class="st2"/>
			</g>
			<g id="shape22790-322" transform="translate(369.496,344.586) rotate(90)">
				<title>Sheet.22790</title>
				<path d="M0 354.94 L0.35 354.94" class="st2"/>
			</g>
			<g id="shape22791-325" transform="translate(369.496,349.053) rotate(90)">
				<title>Sheet.22791</title>
				<path d="M0 354.94 L1.27 354.94" class="st2"/>
			</g>
			<g id="shape22792-328" transform="translate(10.7049,-3.79674)">
				<title>Sheet.22792</title>
				<path d="M0 354.94 L1.27 354.94" class="st2"/>
			</g>
			<g id="shape22793-331" transform="translate(-232.975,609.213) rotate(-136.643)">
				<title>Sheet.22793</title>
				<path d="M0 354.94 L0.37 354.94" class="st2"/>
			</g>
			<g id="shape22794-334" transform="translate(-231.707,93.0693) rotate(-43.357)">
				<title>Sheet.22794</title>
				<path d="M0 354.94 L0.37 354.94" class="st2"/>
			</g>
		</g>
		<g id="group22795-337" transform="translate(565.986,-122.835)">
			<title>Sheet.22795</title>
			<g id="shape22796-338" transform="translate(2.55546E-013,-77.045)">
				<title>Sheet.22796</title>
				<path d="M0 354.94 L4.25 354.94" class="st5"/>
			</g>
			<g id="shape22797-341" transform="translate(12.7559,-77.045)">
				<title>Sheet.22797</title>
				<path d="M0 354.94 L4.25 354.94" class="st5"/>
			</g>
			<g id="shape22798-344" transform="translate(-317.466,119.16) rotate(-63.4349)">
				<title>Sheet.22798</title>
				<path d="M0 354.94 L19.02 354.94" class="st5"/>
			</g>
			<g id="shape22799-347" transform="translate(325.97,102.152) rotate(63.4349)">
				<title>Sheet.22799</title>
				<path d="M0 354.94 L19.02 354.94" class="st5"/>
			</g>
			<g id="shape22800-350" transform="translate(2.55546E-013,-17.0079)">
				<title>Sheet.22800</title>
				<path d="M0 354.94 L4.25 354.94" class="st5"/>
			</g>
			<g id="shape22801-353" transform="translate(12.7559,-17.0079)">
				<title>Sheet.22801</title>
				<path d="M0 354.94 L4.25 354.94" class="st5"/>
			</g>
			<g id="shape22802-356" transform="translate(317.466,179.197) rotate(63.4349)">
				<title>Sheet.22802</title>
				<path d="M0 354.94 L19.02 354.94" class="st5"/>
			</g>
			<g id="shape22803-359" transform="translate(-308.962,196.205) rotate(-63.4349)">
				<title>Sheet.22803</title>
				<path d="M0 354.94 L19.02 354.94" class="st5"/>
			</g>
			<g id="shape22804-362" transform="translate(-350.686,337.93) rotate(-90)">
				<title>Sheet.22804</title>
				<path d="M0 354.94 L60.04 354.94" class="st5"/>
			</g>
			<g id="shape22805-365" transform="translate(367.694,277.893) rotate(90)">
				<title>Sheet.22805</title>
				<path d="M0 354.94 L60.04 354.94" class="st5"/>
			</g>
		</g>
		<g id="group22806-368" transform="translate(225.815,-54.2767)">
			<title>Sheet.22806</title>
			<g id="shape22807-369" transform="translate(371.946,337.93) rotate(90)">
				<title>Sheet.22807</title>
				<path d="M0 354.94 L4.25 354.94" class="st2"/>
			</g>
			<g id="shape22808-372" transform="translate(371.946,350.686) rotate(90)">
				<title>Sheet.22808</title>
				<path d="M0 354.94 L4.25 354.94" class="st2"/>
			</g>
			<g id="shape22809-375" transform="translate(175.741,655.396) rotate(153.435)">
				<title>Sheet.22809</title>
				<path d="M0 354.94 L19.02 354.94" class="st2"/>
			</g>
			<g id="shape22810-378" transform="translate(158.733,28.9678) rotate(26.5651)">
				<title>Sheet.22810</title>
				<path d="M0 354.94 L19.02 354.94" class="st2"/>
			</g>
			<g id="shape22811-381" transform="translate(17.0079,-12.7559)">
				<title>Sheet.22811</title>
				<path d="M0 354.94 L21.13 354.94" class="st2"/>
			</g>
			<g id="shape22812-384" transform="translate(38.1344,705.623) rotate(180)">
				<title>Sheet.22812</title>
				<path d="M0 354.94 L21.13 354.94" class="st2"/>
			</g>
			<g id="shape22813-387" transform="translate(393.072,337.93) rotate(90)">
				<title>Sheet.22813</title>
				<path d="M0 354.94 L4.25 354.94" class="st2"/>
			</g>
			<g id="shape22814-390" transform="translate(393.072,350.686) rotate(90)">
				<title>Sheet.22814</title>
				<path d="M0 354.94 L4.25 354.94" class="st2"/>
			</g>
			<g id="shape22815-393" transform="translate(196.867,20.4639) rotate(26.5651)">
				<title>Sheet.22815</title>
				<path d="M0 354.94 L19.02 354.94" class="st2"/>
			</g>
			<g id="shape22816-396" transform="translate(213.875,663.9) rotate(153.435)">
				<title>Sheet.22816</title>
				<path d="M0 354.94 L19.02 354.94" class="st2"/>
			</g>
		</g>
		<g id="group22817-399" transform="translate(350.218,-54.2767)">
			<title>Sheet.22817</title>
			<g id="shape22818-400" transform="translate(444.117,337.93) rotate(90)">
				<title>Sheet.22818</title>
				<path d="M0 354.94 L4.25 354.94" class="st2"/>
			</g>
			<g id="shape22819-403" transform="translate(444.117,350.686) rotate(90)">
				<title>Sheet.22819</title>
				<path d="M0 354.94 L4.25 354.94" class="st2"/>
			</g>
			<g id="shape22820-406" transform="translate(247.913,20.4639) rotate(26.5651)">
				<title>Sheet.22820</title>
				<path d="M0 354.94 L19.02 354.94" class="st2"/>
			</g>
			<g id="shape22821-409" transform="translate(264.92,663.9) rotate(153.435)">
				<title>Sheet.22821</title>
				<path d="M0 354.94 L19.02 354.94" class="st2"/>
			</g>
			<g id="shape22822-412" transform="translate(371.946,337.93) rotate(90)">
				<title>Sheet.22822</title>
				<path d="M0 354.94 L4.25 354.94" class="st2"/>
			</g>
			<g id="shape22823-415" transform="translate(371.946,350.686) rotate(90)">
				<title>Sheet.22823</title>
				<path d="M0 354.94 L4.25 354.94" class="st2"/>
			</g>
			<g id="shape22824-418" transform="translate(175.741,655.396) rotate(153.435)">
				<title>Sheet.22824</title>
				<path d="M0 354.94 L19.02 354.94" class="st2"/>
			</g>
			<g id="shape22825-421" transform="translate(158.733,28.9678) rotate(26.5651)">
				<title>Sheet.22825</title>
				<path d="M0 354.94 L19.02 354.94" class="st2"/>
			</g>
			<g id="shape22826-424" transform="translate(17.0079,-12.7559)">
				<title>Sheet.22826</title>
				<path d="M0 354.94 L72.17 354.94" class="st2"/>
			</g>
			<g id="shape22827-427" transform="translate(89.1796,705.623) rotate(180)">
				<title>Sheet.22827</title>
				<path d="M0 354.94 L72.17 354.94" class="st2"/>
			</g>
		</g>
		<g id="group22828-430" transform="translate(868.022,-54.2767)">
			<title>Sheet.22828</title>
			<g id="shape22829-431" transform="translate(393.072,337.93) rotate(90)">
				<title>Sheet.22829</title>
				<path d="M0 354.94 L4.25 354.94" class="st2"/>
			</g>
			<g id="shape22830-434" transform="translate(393.072,350.686) rotate(90)">
				<title>Sheet.22830</title>
				<path d="M0 354.94 L4.25 354.94" class="st2"/>
			</g>
			<g id="shape22831-437" transform="translate(196.867,20.4639) rotate(26.5651)">
				<title>Sheet.22831</title>
				<path d="M0 354.94 L19.02 354.94" class="st2"/>
			</g>
			<g id="shape22832-440" transform="translate(213.875,663.9) rotate(153.435)">
				<title>Sheet.22832</title>
				<path d="M0 354.94 L19.02 354.94" class="st2"/>
			</g>
			<g id="shape22833-443" transform="translate(38.1344,697.12) rotate(180)">
				<title>Sheet.22833</title>
				<path d="M0 354.94 L21.13 354.94" class="st2"/>
			</g>
			<g id="shape22834-446" transform="translate(17.0079,-4.25197)">
				<title>Sheet.22834</title>
				<path d="M0 354.94 L21.13 354.94" class="st2"/>
			</g>
			<g id="shape22835-449" transform="translate(371.946,337.93) rotate(90)">
				<title>Sheet.22835</title>
				<path d="M0 354.94 L4.25 354.94" class="st2"/>
			</g>
			<g id="shape22836-452" transform="translate(371.946,350.686) rotate(90)">
				<title>Sheet.22836</title>
				<path d="M0 354.94 L4.25 354.94" class="st2"/>
			</g>
			<g id="shape22837-455" transform="translate(175.741,655.396) rotate(153.435)">
				<title>Sheet.22837</title>
				<path d="M0 354.94 L19.02 354.94" class="st2"/>
			</g>
			<g id="shape22838-458" transform="translate(158.733,28.9678) rotate(26.5651)">
				<title>Sheet.22838</title>
				<path d="M0 354.94 L19.02 354.94" class="st2"/>
			</g>
		</g>
		<g id="group22839-461" transform="translate(692.574,-54.2767)">
			<title>Sheet.22839</title>
			<g id="shape22840-462" transform="translate(371.946,337.93) rotate(90)">
				<title>Sheet.22840</title>
				<path d="M0 354.94 L4.25 354.94" class="st2"/>
			</g>
			<g id="shape22841-465" transform="translate(371.946,350.686) rotate(90)">
				<title>Sheet.22841</title>
				<path d="M0 354.94 L4.25 354.94" class="st2"/>
			</g>
			<g id="shape22842-468" transform="translate(175.741,655.396) rotate(153.435)">
				<title>Sheet.22842</title>
				<path d="M0 354.94 L19.02 354.94" class="st2"/>
			</g>
			<g id="shape22843-471" transform="translate(158.733,28.9678) rotate(26.5651)">
				<title>Sheet.22843</title>
				<path d="M0 354.94 L19.02 354.94" class="st2"/>
			</g>
			<g id="shape22844-474" transform="translate(444.117,337.93) rotate(90)">
				<title>Sheet.22844</title>
				<path d="M0 354.94 L4.25 354.94" class="st2"/>
			</g>
			<g id="shape22845-477" transform="translate(444.117,350.686) rotate(90)">
				<title>Sheet.22845</title>
				<path d="M0 354.94 L4.25 354.94" class="st2"/>
			</g>
			<g id="shape22846-480" transform="translate(247.913,20.4639) rotate(26.5651)">
				<title>Sheet.22846</title>
				<path d="M0 354.94 L19.02 354.94" class="st2"/>
			</g>
			<g id="shape22847-483" transform="translate(264.92,663.9) rotate(153.435)">
				<title>Sheet.22847</title>
				<path d="M0 354.94 L19.02 354.94" class="st2"/>
			</g>
			<g id="shape22848-486" transform="translate(89.1796,697.12) rotate(180)">
				<title>Sheet.22848</title>
				<path d="M0 354.94 L72.17 354.94" class="st2"/>
			</g>
			<g id="shape22849-489" transform="translate(17.0079,-4.25197)">
				<title>Sheet.22849</title>
				<path d="M0 354.94 L72.17 354.94" class="st2"/>
			</g>
		</g>
		<g id="group22880-492" transform="translate(218.612,-34.9521)">
			<title>Sheet.22880</title>
			<g id="shape22881-493" transform="translate(716.806,704.788) rotate(180)">
				<title>Sheet.22881</title>
				<path d="M0 354.94 L716.81 354.94" class="st2"/>
			</g>
			<g id="shape22882-496" transform="translate(716.806,707.622) rotate(180)">
				<title>Sheet.22882</title>
				<path d="M0 354.94 L716.81 354.94" class="st2"/>
			</g>
			<g id="shape22883-499" transform="translate(558.073,37.4718) rotate(-26.5651)">
				<title>Sheet.22883</title>
				<path d="M0 354.94 L8.21 354.94" class="st2"/>
			</g>
			<g id="shape22884-502" transform="translate(565.414,668.733) rotate(-153.435)">
				<title>Sheet.22884</title>
				<path d="M0 354.94 L8.21 354.94" class="st2"/>
			</g>
			<g id="shape22885-505" transform="translate(361.868,354.938) rotate(-90)">
				<title>Sheet.22885</title>
				<path d="M0 354.94 L2.25 354.94" class="st2"/>
			</g>
			<g id="shape22886-508" transform="translate(361.868,349.85) rotate(-90)">
				<title>Sheet.22886</title>
				<path d="M0 354.94 L2.25 354.94" class="st2"/>
			</g>
		</g>
		<g id="group23181-511" transform="translate(473.319,-219.576)">
			<title>Sheet.23181</title>
			<g id="shape23182-512" transform="translate(26.5872,-135.362)">
				<title>Sheet.23182</title>
				<path d="M0 354.94 L151.71 354.94" class="st5"/>
			</g>
			<g id="shape23183-515" transform="translate(23.866,-132.624)">
				<title>Sheet.23183</title>
				<path d="M2.72 352.2 A2.72126 2.72126 -180 0 0 -0 354.94 L2.72 352.2 Z" class="st1"/>
				<path d="M2.72 352.2 A2.72126 2.72126 -180 0 0 -0 354.94" class="st5"/>
			</g>
			<g id="shape23184-518" transform="translate(28.8865,-128.507)">
				<title>Sheet.23184</title>
				<path d="M0 354.94 L147.22 354.94" class="st5"/>
			</g>
			<g id="shape23185-521" transform="translate(28.2062,-127.823)">
				<title>Sheet.23185</title>
				<path d="M0.68 354.25 a0.680315 0.680315 -180 0 0 -0.680308 0.6834 L0.68 354.25 Z" class="st1"/>
				<path d="M0.68 354.25 a0.680315 0.680315 -180 0 0 -0.680308 0.6834" class="st5"/>
			</g>
			<g id="shape23186-524" transform="translate(28.5798,-45.4194)">
				<title>Sheet.23186</title>
				<path d="M0 354.94 L148.25 354.94" class="st5"/>
			</g>
			<g id="shape23187-527" transform="translate(29.2595,-44.871)">
				<title>Sheet.23187</title>
				<path d="M0 354.94 L146.89 354.94" class="st5"/>
			</g>
			<g id="shape23188-530" transform="translate(26.4951,-37.8785)">
				<title>Sheet.23188</title>
				<path d="M0 354.94 L152.25 354.94" class="st5"/>
			</g>
			<g id="shape23189-533" transform="translate(24.4542,-38.1869)">
				<title>Sheet.23189</title>
				<path d="M0 353.22 A2.04094 2.04094 -180 0 0 0.96 354.94 L0 353.22 Z" class="st1"/>
				<path d="M0 353.22 A2.04094 2.04094 -180 0 0 0.96 354.94" class="st5"/>
			</g>
			<g id="shape23190-536" transform="translate(25.4163,-37.8785)">
				<title>Sheet.23190</title>
				<path d="M0 354.63 A2.04094 2.04094 -180 0 0 1.08 354.94 L0 354.63 Z" class="st1"/>
				<path d="M0 354.63 A2.04094 2.04094 -180 0 0 1.08 354.94" class="st5"/>
			</g>
			<g id="shape23191-539" transform="translate(9.96516,-18.8547)">
				<title>Sheet.23191</title>
				<path d="M0 354.94 L0.84 354.94" class="st5"/>
			</g>
			<g id="shape23192-542" transform="translate(10.8015,-18.8547)">
				<title>Sheet.23192</title>
				<path d="M0 354.94 L183.1 354.94" class="st5"/>
			</g>
			<g id="shape23193-545" transform="translate(193.899,-18.8547)">
				<title>Sheet.23193</title>
				<path d="M0 354.94 L0.83 354.94" class="st5"/>
			</g>
			<g id="shape23194-548" transform="translate(0.680315,-6.25546)">
				<title>Sheet.23194</title>
				<path d="M0 354.94 L202.61 354.94" class="st5"/>
			</g>
			<g id="shape23195-551" transform="translate(0.162995,-7.37759)">
				<title>Sheet.23195</title>
			</g>
			<g id="shape23196-552" transform="translate(-2.45928E-013,-6.25546)">
				<title>Sheet.23196</title>
				<path d="M0 354.26 a0.680315 0.680315 -180 0 0 0.680315 0.680315 L0 354.26 Z" class="st1"/>
				<path d="M0 354.26 a0.680315 0.680315 -180 0 0 0.680315 0.680315" class="st5"/>
			</g>
			<g id="shape23197-555" transform="translate(12.4677,0)">
				<title>Sheet.23197</title>
				<path d="M0 354.94 L175.97 354.94" class="st5"/>
			</g>
			<g id="shape23198-558" transform="translate(378.797,220.062) rotate(89.6365)">
				<title>Sheet.23198</title>
				<path d="M0 354.94 L92.72 354.94" class="st5"/>
			</g>
			<g id="shape23199-561" transform="translate(383.14,225.505) rotate(89.7402)">
				<title>Sheet.23199</title>
				<path d="M0 354.94 L82.28 354.94" class="st5"/>
			</g>
			<g id="shape23200-564" transform="translate(28.5792,-44.871)">
				<title>Sheet.23200</title>
				<path d="M-0 354.26 a0.680315 0.680315 -180 0 0 0.680308 0.67723 L0 354.26 Z" class="st1"/>
				<path d="M-0 354.26 a0.680315 0.680315 -180 0 0 0.680308 0.67723" class="st5"/>
			</g>
			<g id="shape23201-567" transform="translate(531.726,226.941) rotate(89.9725)">
				<title>Sheet.23201</title>
				<path d="M0 354.94 L82.28 354.94" class="st5"/>
			</g>
			<g id="shape23202-570" transform="translate(176.148,-44.871)">
				<title>Sheet.23202</title>
				<path d="M0 354.94 a0.680315 0.680315 -180 0 0 0.680315 -0.680641 L0 354.94 Z" class="st1"/>
				<path d="M0 354.94 a0.680315 0.680315 -180 0 0 0.680315 -0.680641" class="st5"/>
			</g>
			<g id="shape23203-573" transform="translate(176.108,-127.827)">
				<title>Sheet.23203</title>
				<path d="M0.68 354.94 a0.680315 0.680315 -180 0 0 -0.680315 -0.679989 L0.68 354.94 Z" class="st1"/>
				<path d="M0.68 354.94 a0.680315 0.680315 -180 0 0 -0.680315 -0.679989" class="st5"/>
			</g>
			<g id="shape23204-576" transform="translate(-174.148,314.14) rotate(-89.8575)">
				<title>Sheet.23204</title>
				<path d="M0 354.94 L92.72 354.94" class="st5"/>
			</g>
			<g id="shape23205-579" transform="translate(178.748,-37.8785)">
				<title>Sheet.23205</title>
				<path d="M-0 354.94 A2.04094 2.04094 -180 0 0 1.51 354.27 L0 354.94 Z" class="st1"/>
				<path d="M-0 354.94 A2.04094 2.04094 -180 0 0 1.51 354.27" class="st5"/>
			</g>
			<g id="shape23206-582" transform="translate(180.262,-38.551)">
				<title>Sheet.23206</title>
				<path d="M0 354.94 A2.04094 2.04094 -180 0 0 0.53 353.57 L0 354.94 Z" class="st1"/>
				<path d="M0 354.94 A2.04094 2.04094 -180 0 0 0.53 353.57" class="st5"/>
			</g>
			<g id="shape23207-585" transform="translate(178.298,-132.634)">
				<title>Sheet.23207</title>
				<path d="M2.72 354.94 A2.72126 2.72126 -180 0 0 -0 352.21 L2.72 354.94 Z" class="st1"/>
				<path d="M2.72 354.94 A2.72126 2.72126 -180 0 0 -0 352.21" class="st5"/>
			</g>
			<g id="shape23208-588" transform="translate(293.814,550.261) rotate(130.499)">
				<title>Sheet.23208</title>
				<path d="M0 354.94 L3.2 354.94" class="st5"/>
			</g>
			<g id="shape23209-591" transform="translate(279.864,566.594) rotate(130.499)">
				<title>Sheet.23209</title>
				<path d="M0 354.94 L15.09 354.94" class="st5"/>
			</g>
			<g id="shape23210-594" transform="translate(459.939,99.2396) rotate(51.6576)">
				<title>Sheet.23210</title>
				<path d="M0 354.94 L3.51 354.94" class="st5"/>
			</g>
			<g id="shape23211-597" transform="translate(473.112,115.894) rotate(51.6576)">
				<title>Sheet.23211</title>
				<path d="M0 354.94 L14.66 354.94" class="st5"/>
			</g>
			<g id="shape23212-600" transform="translate(203.288,-6.25546)">
				<title>Sheet.23212</title>
				<path d="M0 354.94 a0.680315 0.680315 -180 0 0 0.680315 -0.680315 L0 354.94 Z" class="st1"/>
				<path d="M0 354.94 a0.680315 0.680315 -180 0 0 0.680315 -0.680315" class="st5"/>
			</g>
			<g id="shape23213-603" transform="translate(203.968,-6.93577)">
				<title>Sheet.23213</title>
			</g>
			<g id="shape23214-604" transform="translate(286.448,696.437) rotate(166.45)">
				<title>Sheet.23214</title>
				<path d="M0 354.94 L15.11 354.94" class="st5"/>
			</g>
			<g id="shape23215-607" transform="translate(188.441,0)">
				<title>Sheet.23215</title>
			</g>
			<g id="shape23216-608" transform="translate(58.6247,-18.1109)">
				<title>Sheet.23216</title>
				<path d="M0 354.94 L45.36 354.94" class="st5"/>
			</g>
			<g id="shape23217-611" transform="translate(57.6846,-17.4874)">
				<title>Sheet.23217</title>
				<path d="M0.94 354.31 A1.02047 1.02047 -180 0 0 0 354.94 L0.94 354.31 Z" class="st1"/>
				<path d="M0.94 354.31 A1.02047 1.02047 -180 0 0 0 354.94" class="st5"/>
			</g>
			<g id="shape23218-614" transform="translate(54.7924,-8.81633)">
				<title>Sheet.23218</title>
				<path d="M0 354.94 L49.15 354.94" class="st5"/>
			</g>
			<g id="shape23219-617" transform="translate(104.968,699.394) rotate(180)">
				<title>Sheet.23219</title>
				<path d="M0 354.94 L50.24 354.94" class="st5"/>
			</g>
			<g id="shape23220-620" transform="translate(384.665,475.524) rotate(112.893)">
				<title>Sheet.23220</title>
				<path d="M0 354.94 L8.64 354.94" class="st5"/>
			</g>
			<g id="shape23221-623" transform="translate(54.3223,-8.81633)">
				<title>Sheet.23221</title>
				<path d="M0 354.23 a0.510236 0.510236 -180 0 0 0.470047 0.708723 L0 354.23 Z" class="st1"/>
				<path d="M0 354.23 a0.510236 0.510236 -180 0 0 0.470047 0.708723" class="st5"/>
			</g>
			<g id="shape23222-626" transform="translate(428.53,412.559) rotate(101.062)">
				<title>Sheet.23222</title>
				<path d="M0 354.94 L1.7 354.94" class="st5"/>
			</g>
			<g id="shape23223-629" transform="translate(428.153,412.559) rotate(101.062)">
				<title>Sheet.23223</title>
				<path d="M0 354.94 L1.7 354.94" class="st5"/>
			</g>
			<g id="shape23224-632" transform="translate(459.935,339.667) rotate(90.2929)">
				<title>Sheet.23224</title>
				<path d="M0 354.94 L7.25 354.94" class="st5"/>
			</g>
			<g id="shape23225-635" transform="translate(103.944,-8.81633)">
				<title>Sheet.23225</title>
				<path d="M-0 354.94 A1.02047 1.02047 -180 0 0 1.02 353.92 L0 354.94 Z" class="st1"/>
				<path d="M-0 354.94 A1.02047 1.02047 -180 0 0 1.02 353.92" class="st5"/>
			</g>
			<g id="shape23226-638" transform="translate(103.981,-17.0852)">
				<title>Sheet.23226</title>
				<path d="M1.02 354.94 A1.02047 1.02047 -180 0 0 -0 353.91 L1.02 354.94 Z" class="st1"/>
				<path d="M1.02 354.94 A1.02047 1.02047 -180 0 0 -0 353.91" class="st5"/>
			</g>
			<g id="shape23227-641" transform="translate(24.485,-37.1603)">
				<title>Sheet.23227</title>
				<path d="M0 354.94 L156.58 354.94" class="st5"/>
			</g>
			<g id="shape23228-644" transform="translate(181.063,-35.509)">
				<title>Sheet.23228</title>
				<path d="M0 353.29 A3.46711 3.46711 -180 0 0 0.49 354.94 L0 353.29 Z" class="st1"/>
				<path d="M0 353.29 A3.46711 3.46711 -180 0 0 0.49 354.94" class="st5"/>
			</g>
			<g id="shape23229-647" transform="translate(23.9148,-35.188)">
				<title>Sheet.23229</title>
				<path d="M0 354.94 A3.52318 3.52318 -180 0 0 0.57 352.97 L0 354.94 Z" class="st1"/>
				<path d="M0 354.94 A3.52318 3.52318 -180 0 0 0.57 352.97" class="st5"/>
			</g>
			<g id="shape23230-650" transform="translate(-238.398,79.2967) rotate(-47.7865)">
				<title>Sheet.23230</title>
				<path d="M0 354.94 L1.39 354.94" class="st5"/>
			</g>
			<g id="shape23231-653" transform="translate(-126.501,494.935) rotate(-119.942)">
				<title>Sheet.23231</title>
				<path d="M0 354.94 L1.6 354.94" class="st5"/>
			</g>
			<g id="shape23232-656" transform="translate(-91.1279,694.452) rotate(-163.063)">
				<title>Sheet.23232</title>
				<path d="M0 354.94 L12.12 354.94" class="st5"/>
			</g>
			<g id="shape23233-659" transform="translate(12.2711,-0.0290343)">
				<title>Sheet.23233</title>
			</g>
			<g id="shape23234-660" transform="translate(0.680315,-3.5587)">
				<title>Sheet.23234</title>
				<path d="M0 354.94 L202.61 354.94" class="st5"/>
			</g>
			<g id="shape23235-663" transform="translate(-2.45928E-013,-3.5587)">
				<title>Sheet.23235</title>
				<path d="M0 354.26 a0.680315 0.680315 -180 0 0 0.680315 0.680315 L0 354.26 Z" class="st1"/>
				<path d="M0 354.26 a0.680315 0.680315 -180 0 0 0.680315 0.680315" class="st5"/>
			</g>
			<g id="shape23236-666" transform="translate(203.288,-3.5587)">
				<title>Sheet.23236</title>
				<path d="M0 354.94 a0.680315 0.680315 -180 0 0 0.680315 -0.680315 L0 354.94 Z" class="st1"/>
				<path d="M0 354.94 a0.680315 0.680315 -180 0 0 0.680315 -0.680315" class="st5"/>
			</g>
			<g id="shape23237-669" transform="translate(558.906,348.002) rotate(90)">
				<title>Sheet.23237</title>
				<path d="M0 354.94 L2.7 354.94" class="st5"/>
			</g>
			<g id="shape23238-672" transform="translate(354.938,348.002) rotate(90)">
				<title>Sheet.23238</title>
				<path d="M0 354.94 L2.7 354.94" class="st5"/>
			</g>
			<g id="shape23239-675" transform="translate(291.646,553.698) rotate(130.319)">
				<title>Sheet.23239</title>
				<path d="M0 354.94 L15.8 354.94" class="st5"/>
			</g>
			<g id="shape23240-678" transform="translate(21.0235,-30.8999)">
				<title>Sheet.23240</title>
				<path d="M0 354.94 A3.34859 3.34859 -180 0 0 0.81 353.08 L0 354.94 Z" class="st1"/>
				<path d="M0 354.94 A3.34859 3.34859 -180 0 0 0.81 353.08" class="st5"/>
			</g>
			<g id="shape23241-681" transform="translate(462.862,103.95) rotate(51.7331)">
				<title>Sheet.23241</title>
				<path d="M0 354.94 L15.68 354.94" class="st5"/>
			</g>
			<g id="shape23242-684" transform="translate(21.834,-32.7563)">
				<title>Sheet.23242</title>
				<path d="M0 354.94 L161.9 354.94" class="st5"/>
			</g>
			<g id="shape23243-687" transform="translate(183.732,-31.1656)">
				<title>Sheet.23243</title>
				<path d="M-0 353.35 A3.46711 3.46711 -180 0 0 0.46 354.94 L0 353.35 Z" class="st1"/>
				<path d="M-0 353.35 A3.46711 3.46711 -180 0 0 0.46 354.94" class="st5"/>
			</g>
			<g id="shape23244-690" transform="translate(31.8435,-31.7816)">
				<title>Sheet.23244</title>
				<path d="M0 354.94 L110.07 354.94" class="st5"/>
			</g>
			<g id="shape23245-693" transform="translate(145.421,-31.7816)">
				<title>Sheet.23245</title>
				<path d="M0 354.94 L27.86 354.94" class="st5"/>
			</g>
			<g id="shape23246-696" transform="translate(144.949,-31.0766)">
				<title>Sheet.23246</title>
				<path d="M0.47 354.23 a0.510236 0.510236 -180 0 0 -0.471621 0.704953 L0.47 354.23 Z" class="st1"/>
				<path d="M0.47 354.23 a0.510236 0.510236 -180 0 0 -0.471621 0.704953" class="st5"/>
			</g>
			<g id="shape23247-699" transform="translate(31.0159,-31.3581)">
				<title>Sheet.23247</title>
				<path d="M0.83 354.51 A1.02047 1.02047 -180 0 0 -0 354.94 L0.83 354.51 Z" class="st1"/>
				<path d="M0.83 354.51 A1.02047 1.02047 -180 0 0 -0 354.94" class="st5"/>
			</g>
			<g id="shape23248-702" transform="translate(468.113,124.734) rotate(55.9235)">
				<title>Sheet.23248</title>
				<path d="M0 354.94 L12.64 354.94" class="st5"/>
			</g>
			<g id="shape23249-705" transform="translate(173.276,-31.3329)">
				<title>Sheet.23249</title>
				<path d="M0.85 354.94 A1.02047 1.02047 -180 0 0 0 354.49 L0.85 354.94 Z" class="st1"/>
				<path d="M0.85 354.94 A1.02047 1.02047 -180 0 0 0 354.49" class="st5"/>
			</g>
			<g id="shape23250-708" transform="translate(180.921,-20.3334)">
				<title>Sheet.23250</title>
				<path d="M-0 354.94 a0.340157 0.340157 -180 0 0 0.281749 -0.530747 L0 354.94 Z" class="st1"/>
				<path d="M-0 354.94 a0.340157 0.340157 -180 0 0 0.281749 -0.530747" class="st5"/>
			</g>
			<g id="shape23251-711" transform="translate(318.89,531.207) rotate(125.801)">
				<title>Sheet.23251</title>
				<path d="M0 354.94 L12.93 354.94" class="st5"/>
			</g>
			<g id="shape23252-714" transform="translate(23.3909,-20.3334)">
				<title>Sheet.23252</title>
				<path d="M0.06 354.4 a0.340157 0.340157 -180 0 0 0.275887 0.539139 L0.06 354.4 Z" class="st1"/>
				<path d="M0.06 354.4 a0.340157 0.340157 -180 0 0 0.275887 0.539139" class="st5"/>
			</g>
			<g id="shape23253-717" transform="translate(23.7291,-20.3334)">
				<title>Sheet.23253</title>
				<path d="M0 354.94 L122.83 354.94" class="st5"/>
			</g>
			<g id="shape23254-720" transform="translate(150.067,-20.3334)">
				<title>Sheet.23254</title>
				<path d="M0 354.94 L30.85 354.94" class="st5"/>
			</g>
			<g id="shape23255-723" transform="translate(180.921,-19.6291)">
				<title>Sheet.23255</title>
			</g>
			<g id="shape23256-724" transform="translate(23.7291,-19.6291)">
				<title>Sheet.23256</title>
			</g>
			<g id="shape23257-725" transform="translate(23.7291,-19.2889)">
				<title>Sheet.23257</title>
				<path d="M0 354.94 L122.83 354.94" class="st5"/>
			</g>
			<g id="shape23258-728" transform="translate(150.067,-19.2889)">
				<title>Sheet.23258</title>
				<path d="M0 354.94 L30.85 354.94" class="st5"/>
			</g>
			<g id="shape23259-731" transform="translate(536.199,334.264) rotate(90)">
				<title>Sheet.23259</title>
				<path d="M0 354.94 L1.04 354.94" class="st5"/>
			</g>
			<g id="shape23260-734" transform="translate(378.327,334.264) rotate(90)">
				<title>Sheet.23260</title>
				<path d="M0 354.94 L1.04 354.94" class="st5"/>
			</g>
			<g id="shape23261-737" transform="translate(473.025,188.41) rotate(67.5659)">
				<title>Sheet.23261</title>
				<path d="M0 354.94 L10.94 354.94" class="st5"/>
			</g>
			<g id="shape23262-740" transform="translate(149.124,-20.3334)">
				<title>Sheet.23262</title>
				<path d="M0 354.31 A1.02047 1.02047 -180 0 0 0.94 354.94 L0 354.31 Z" class="st1"/>
				<path d="M0 354.31 A1.02047 1.02047 -180 0 0 0.94 354.94" class="st5"/>
			</g>
			<g id="shape23263-743" transform="translate(473.025,189.454) rotate(67.5659)">
				<title>Sheet.23263</title>
				<path d="M0 354.94 L10.94 354.94" class="st5"/>
			</g>
			<g id="shape23264-746" transform="translate(470.93,188.336) rotate(67.5659)">
				<title>Sheet.23264</title>
				<path d="M0 354.94 L10.94 354.94" class="st5"/>
			</g>
			<g id="shape23265-749" transform="translate(146.558,-20.3334)">
				<title>Sheet.23265</title>
				<path d="M0 354.94 a0.510236 0.510236 -180 0 0 0.471621 -0.704953 L0 354.94 Z" class="st1"/>
				<path d="M0 354.94 a0.510236 0.510236 -180 0 0 0.471621 -0.704953" class="st5"/>
			</g>
			<g id="shape23266-752" transform="translate(141.911,-31.1506)">
				<title>Sheet.23266</title>
				<path d="M0.94 354.94 A1.02047 1.02047 -180 0 0 -0 354.31 L0.94 354.94 Z" class="st1"/>
				<path d="M0.94 354.94 A1.02047 1.02047 -180 0 0 -0 354.31" class="st5"/>
			</g>
			<g id="shape23267-755" transform="translate(501.495,334.604) rotate(90)">
				<title>Sheet.23267</title>
				<path d="M0 354.94 L1.04 354.94" class="st5"/>
			</g>
			<g id="shape23268-758" transform="translate(146.558,-19.2889)">
				<title>Sheet.23268</title>
				<path d="M-0 354.94 a0.510236 0.510236 -180 0 0 0.510236 -0.510236 L0 354.94 Z" class="st1"/>
				<path d="M-0 354.94 a0.510236 0.510236 -180 0 0 0.510236 -0.510236" class="st5"/>
			</g>
			<g id="shape23269-761" transform="translate(-207.87,335.139) rotate(-90)">
				<title>Sheet.23269</title>
				<path d="M0 354.94 L1.04 354.94" class="st5"/>
			</g>
			<g id="shape23270-764" transform="translate(505.005,334.604) rotate(90)">
				<title>Sheet.23270</title>
				<path d="M0 354.94 L1.04 354.94" class="st5"/>
			</g>
			<g id="shape23271-767" transform="translate(149.124,-19.2889)">
				<title>Sheet.23271</title>
				<path d="M0 354.31 A1.02047 1.02047 -180 0 0 0.94 354.94 L0 354.31 Z" class="st1"/>
				<path d="M0 354.31 A1.02047 1.02047 -180 0 0 0.94 354.94" class="st5"/>
			</g>
			<g id="shape23272-770" transform="translate(504.062,333.973) rotate(90)">
				<title>Sheet.23272</title>
				<path d="M0 354.94 L1.04 354.94" class="st5"/>
			</g>
			<g id="shape23273-773" transform="translate(499.848,323.666) rotate(90)">
				<title>Sheet.23273</title>
				<path d="M0 354.94 L1.04 354.94" class="st5"/>
			</g>
			<g id="shape23274-776" transform="translate(145.421,-30.2269)">
				<title>Sheet.23274</title>
			</g>
			<g id="shape23275-777" transform="translate(535.859,334.604) rotate(90)">
				<title>Sheet.23275</title>
				<path d="M0 354.94 L1.04 354.94" class="st5"/>
			</g>
			<g id="shape23276-780" transform="translate(558.225,348.682) rotate(90)">
				<title>Sheet.23276</title>
				<path d="M0 354.94 L2.7 354.94" class="st5"/>
			</g>
			<g id="shape23277-783" transform="translate(355.618,348.682) rotate(90)">
				<title>Sheet.23277</title>
				<path d="M0 354.94 L2.7 354.94" class="st5"/>
			</g>
			<g id="shape23278-786" transform="translate(378.667,334.604) rotate(90)">
				<title>Sheet.23278</title>
				<path d="M0 354.94 L1.04 354.94" class="st5"/>
			</g>
		</g>
		<g id="shape23856-789" transform="translate(16.7002,-29.7078)">
			<title>Sheet.23856</title>
			<desc>CoAP Client</desc>
			<rect x="0" y="339.82" width="123.248" height="15.1181" class="st6"/>
			<text x="0" y="349.65" class="st7">CoAP Client</text>		</g>
		<g id="shape23857-792" transform="translate(16.7002,-78.4329)">
			<title>Sheet.23857</title>
			<desc>CoAP Temperature server</desc>
			<rect x="0" y="339.82" width="197.596" height="15.1181" class="st6"/>
			<text x="0" y="349.65" class="st7">CoAP Temperature server</text>		</g>
		<g id="shape23858-795" transform="translate(8.10764,-67.1384)">
			<title>Sheet.23858</title>
			<path d="M0 315.34 L209.33 315.34 L209.33 354.94 L0 354.94 L0 315.34 Z" class="st3"/>
		</g>
		<g id="shape23859-797" transform="translate(8.10764,-18.4257)">
			<title>Sheet.23859</title>
			<path d="M209.33 337.82 L209.33 354.94 L0 354.94 L0 315.34 L209.33 315.34 L209.33 331.66 L209.33 331.66 L209.33 337.82
						 Z" class="st1"/>
			<path d="M209.33 337.82 L209.33 354.94 L0 354.94 L0 315.34 L209.33 315.34 L209.33 331.66 L209.33 331.66" class="st8"/>
		</g>
		<g id="shape23860-800" transform="translate(0,-9.62588)">
			<title>Sheet.23860</title>
			<path d="M225.81 327.36 L225.81 354.94 L0 354.94 L0 248.63 L225.81 248.63 L225.81 324.52 L225.81 324.52 L225.81 327.36
						 Z" class="st1"/>
			<path d="M225.81 327.36 L225.81 354.94 L0 354.94 L0 248.63 L225.81 248.63 L225.81 324.52 L225.81 324.52" class="st8"/>
		</g>
		<g id="shape23861-803" transform="translate(152.939,-49.5221)">
			<title>Sheet.23861</title>
			<desc>Button 1</desc>
			<rect x="0" y="349.268" width="24.2894" height="5.66929" class="st6"/>
			<text x="2.15" y="354.65" class="st9">Button 1</text>		</g>
		<g id="shape23862-806" transform="translate(184.937,-49.5221)">
			<title>Sheet.23862</title>
			<desc>Button 2</desc>
			<rect x="0" y="349.268" width="24.2894" height="5.66929" class="st6"/>
			<text x="2.15" y="354.65" class="st9">Button 2</text>		</g>
		<g id="shape23863-809" transform="translate(939.865,-78.4329)">
			<title>Sheet.23863</title>
			<desc>CoAP Light server</desc>
			<rect x="0" y="339.82" width="197.596" height="15.1181" class="st6"/>
			<text x="0" y="349.65" class="st7">CoAP Light server</text>		</g>
		<g id="shape23864-812" transform="translate(931.272,-17.5753)">
			<title>Sheet.23864</title>
			<path d="M0 332.47 L0 265.77 L209.33 265.77 L209.33 354.94 L0 354.94 L0 335.31 L0 335.31 L0 332.47 Z" class="st1"/>
			<path d="M0 332.47 L0 265.77 L209.33 265.77 L209.33 354.94 L0 354.94 L0 335.31 L0 335.31" class="st8"/>
		</g>
		<g id="shape23865-815" transform="translate(923.164,-9.62588)">
			<title>Sheet.23865</title>
			<path d="M0 324.52 L0 248.63 L225.81 248.63 L225.81 354.94 L0 354.94 L0 327.36 L0 327.36 L0 324.52 Z" class="st1"/>
			<path d="M0 324.52 L0 248.63 L225.81 248.63 L225.81 354.94 L0 354.94 L0 327.36 L0 327.36" class="st8"/>
		</g>
		<g id="shape23866-818" transform="translate(1076.1,-62.845)">
			<title>Sheet.23866</title>
			<desc>Light 1</desc>
			<rect x="0" y="349.268" width="24.2894" height="5.66929" class="st6"/>
			<text x="4.45" y="354.65" class="st9">Light 1</text>		</g>
		<g id="shape23867-821" transform="translate(1108.1,-62.845)">
			<title>Sheet.23867</title>
			<desc>Light 2</desc>
			<rect x="0" y="349.268" width="24.2894" height="5.66929" class="st6"/>
			<text x="4.45" y="354.65" class="st9">Light 2</text>		</g>
		<g id="shape23868-824" transform="translate(473.795,-54.5177)">
			<title>Sheet.23868</title>
			<desc>Internet</desc>
			<rect x="0" y="332.261" width="197.596" height="22.6772" class="st6"/>
			<text x="61.19" y="350.4" class="st10">Internet</text>		</g>
		<g id="shape23869-827" transform="translate(280.957,-9.62588)">
			<title>Sheet.23869</title>
			<path d="M69.26 327.36 L69.26 354.94 L0 354.94 L0 327.36 L0 327.36 L69.26 327.36 Z" class="st1"/>
			<path d="M69.26 327.36 L69.26 354.94 L0 354.94 L0 327.36 L0 327.36" class="st8"/>
		</g>
		<g id="shape23870-830" transform="translate(216.367,-59.6827)">
			<title>Sheet.23870</title>
			<desc>BLE enabled router</desc>
			<rect x="0" y="343.599" width="197.596" height="11.3386" class="st6"/>
			<text x="90.56" y="339.06" class="st11">BLE <tspan x="80.2" dy="1.2em" class="st12">enabled </tspan><tspan x="84.16"
						dy="1.2em" class="st12">router</tspan></text>		</g>
		<g id="shape23871-835" transform="translate(798.761,-40.0397)">
			<title>Sheet.23871</title>
			<path d="M69.26 354.94 L69.26 279.04 L0 279.04 L0 354.94 L0 354.94 L69.26 354.94 Z" class="st1"/>
			<path d="M69.26 354.94 L69.26 279.04 L0 279.04 L0 354.94 L0 354.94" class="st8"/>
		</g>
		<g id="shape23872-838" transform="translate(734.171,-59.6827)">
			<title>Sheet.23872</title>
			<desc>BLE enabled router</desc>
			<rect x="0" y="343.599" width="197.596" height="11.3386" class="st6"/>
			<text x="90.56" y="339.06" class="st11">BLE <tspan x="80.2" dy="1.2em" class="st12">enabled </tspan><tspan x="84.16"
						dy="1.2em" class="st12">router</tspan></text>		</g>
		<g id="shape23873-843" transform="translate(335.833,-69.2306)">
			<title>Sheet.23873</title>
			<desc>UDP/IPv6</desc>
			<rect x="0" y="343.599" width="135.084" height="11.3386" class="st6"/>
			<text x="45.51" y="354.37" class="st11">UDP/IPv6</text>		</g>
		<g id="shape23874-846" transform="translate(938.972,117.534) rotate(90)">
			<title>Sheet.23874</title>
			<desc>UDP/IPv6</desc>
			<rect x="0" y="343.599" width="135.084" height="11.3386" class="st6"/>
			<text x="45.51" y="354.37" class="st13">UDP/IPv6</text>		</g>
		<g id="shape23875-849" transform="translate(678.189,-69.2306)">
			<title>Sheet.23875</title>
			<desc>UDP/IPv6</desc>
			<rect x="0" y="343.599" width="135.084" height="11.3386" class="st6"/>
			<text x="45.51" y="354.37" class="st11">UDP/IPv6</text>		</g>
		<g id="shape23879-852" transform="translate(59.8789,637.452) rotate(-153.435)">
			<title>Sheet.23879</title>
			<path d="M0 354.94 L8.21 354.94" class="st2"/>
		</g>
		<g id="shape23880-855" transform="translate(52.5384,-1.15063) rotate(-26.5651)">
			<title>Sheet.23880</title>
			<path d="M0 354.94 L8.21 354.94" class="st2"/>
		</g>
		<g id="shape23881-858" transform="translate(-136.326,319.986) rotate(-90)">
			<title>Sheet.23881</title>
			<path d="M0 354.94 L2.25 354.94" class="st2"/>
		</g>
		<g id="shape23882-861" transform="translate(-136.326,314.898) rotate(-90)">
			<title>Sheet.23882</title>
			<path d="M0 354.94 L2.25 354.94" class="st2"/>
		</g>
		<g id="shape23883-864" transform="translate(798.761,-9.62588)">
			<title>Sheet.23883</title>
			<path d="M0 327.36 L0 354.94 L69.26 354.94 L69.26 327.36 L69.26 327.36 L0 327.36 Z" class="st1"/>
			<path d="M0 327.36 L0 354.94 L69.26 354.94 L69.26 327.36 L69.26 327.36" class="st8"/>
		</g>
		<g id="shape23884-867" transform="translate(612.775,-14.273)">
			<title>Sheet.23884</title>
			<path d="M48.79 332.01 C48.9 333.89 48.74 335.76 48.26 337.54 C46.7 343.21 41.78 347.87 36.37 350.77 C29.69 354.33 22.24
						 355.21 14.83 355.03 C11.25 354.94 7.67 354.6 4.29 353.68 C2.83 353.28 1.4 352.77 0 352.17 L48.79 332.01
						 Z" class="st1"/>
			<path d="M48.79 332.01 C48.9 333.89 48.74 335.76 48.26 337.54 C46.7 343.21 41.78 347.87 36.37 350.77 C29.69 354.33 22.24
						 355.21 14.83 355.03 C11.25 354.94 7.67 354.6 4.29 353.68 C2.83 353.28 1.4 352.77 0 352.17" class="st2"/>
		</g>
		<g id="shape23885-870" transform="translate(463.32,-40.0397)">
			<title>Sheet.23885</title>
			<path d="M0.02 354.94 C-0.15 352.4 0.11 349.86 0.99 347.61 C1.76 345.62 3.02 343.85 4.45 342.16 L0.02 354.94 Z"
					class="st1"/>
			<path d="M0.02 354.94 C-0.15 352.4 0.11 349.86 0.99 347.61 C1.76 345.62 3.02 343.85 4.45 342.16" class="st2"/>
		</g>
		<g id="shape23886-873" transform="translate(280.957,-40.0397)">
			<title>Sheet.23886</title>
			<path d="M0 354.94 L0 279.04 L69.26 279.04 L69.26 354.94 L69.26 354.94 L0 354.94 Z" class="st1"/>
			<path d="M0 354.94 L0 279.04 L69.26 279.04 L69.26 354.94 L69.26 354.94" class="st8"/>
		</g>
		<g id="shape23890-876" transform="translate(477.217,-321.163)">
			<title>Sheet.23890</title>
			<desc>CoAP Client</desc>
			<rect x="0" y="339.82" width="197.596" height="15.1181" class="st6"/>
			<text x="63.03" y="349.65" class="st14">CoAP Client</text>		</g>
		<g id="shape24159-879" transform="translate(185.907,-72.2014)">
			<title>Sheet.24159</title>
			<desc>BLE 6lowpan</desc>
			<rect x="0" y="347.379" width="135.084" height="7.55906" class="st6"/>
			<text x="47.94" y="354.56" class="st15">BLE 6lowpan</text>		</g>
		<g id="shape24160-882" transform="translate(828.114,-72.2014)">
			<title>Sheet.24160</title>
			<desc>BLE 6lowpan</desc>
			<rect x="0" y="347.379" width="135.084" height="7.55906" class="st6"/>
			<text x="47.94" y="354.56" class="st15">BLE 6lowpan</text>		</g>
	</g>
</svg>
