<?xml version="1.0" encoding="UTF-8" standalone="no"?>
<!DOCTYPE svg PUBLIC "-//W3C//DTD SVG 1.1//EN" "http://www.w3.org/Graphics/SVG/1.1/DTD/svg11.dtd">
<!-- Generated by Microsoft Visio, SVG Export CoAP Server.svg Page-1 -->
<svg xmlns="http://www.w3.org/2000/svg" xmlns:xlink="http://www.w3.org/1999/xlink" xmlns:ev="http://www.w3.org/2001/xml-events"
		width="8in" height="2.5in" viewBox="0 0 1148.98 354.938" xml:space="preserve" color-interpolation-filters="sRGB"
		class="st19">
	<style type="text/css">
	<![CDATA[
		.st1 {fill:none}
		.st2 {stroke:#000000;stroke-linecap:round;stroke-linejoin:round;stroke-width:0.75}
		.st3 {fill:none;stroke:#dfdfdf;stroke-linecap:butt;stroke-width:0.75}
		.st4 {fill:none;stroke:#dfdfdf;stroke-linecap:round;stroke-linejoin:round;stroke-width:0.75}
		.st5 {fill:none;stroke:#000000;stroke-linecap:butt;stroke-width:0.75}
		.st6 {stroke:#dfdfdf;stroke-linecap:round;stroke-linejoin:round;stroke-width:0.75}
		.st7 {fill:none;stroke:none;stroke-linecap:round;stroke-linejoin:round;stroke-width:0.75}
		.st8 {fill:#dfdfdf;font-family:Calibri;font-size:1.25983em}
		.st9 {fill:#dfdfdf;font-family:Calibri;font-size:0.472435em}
		.st10 {fill:#000000;font-family:Calibri;font-size:1.25983em}
		.st11 {stroke:#000000;stroke-linecap:butt;stroke-width:0.75}
		.st12 {fill:#000000;font-family:Calibri;font-size:0.472435em}
		.st13 {fill:#000000;font-family:Calibri;font-size:1.88976em}
		.st14 {fill:#dfdfdf;font-family:Calibri;font-size:0.944893em}
		.st15 {font-size:1em}
		.st16 {fill:#000000;font-family:Calibri;font-size:0.944893em}
		.st17 {fill:#dfdfdf;font-family:Calibri;font-size:0.629929em}
		.st18 {fill:#000000;font-family:Calibri;font-size:0.629929em}
		.st19 {fill:none;fill-rule:evenodd;font-size:12px;overflow:visible;stroke-linecap:square;stroke-miterlimit:3}
	]]>
	</style>

	<g>
		<title>Page-1</title>
		<g id="group20222-1" transform="translate(456.743,-5.68434E-014)">
			<title>Sheet.20222</title>
			<g id="shape20223-2" transform="translate(22.0027,-80.3194)">
				<title>Sheet.20223</title>
				<path d="M0.23 354.94 C0.03 351.72 -0.18 348.51 0.23 345.3 C0.86 340.25 2.99 335.23 6.28 331.4 C11.53 325.31 19.74
							 322.28 28.03 320.87 C35.74 319.56 43.52 319.65 50.46 322.21 C54.21 323.6 57.72 325.71 61.22 327.82 L0.23
							 354.94 Z" class="st1"/>
				<path d="M0.23 354.94 C0.03 351.72 -0.18 348.51 0.23 345.3 C0.86 340.25 2.99 335.23 6.28 331.4 C11.53 325.31 19.74
							 322.28 28.03 320.87 C35.74 319.56 43.52 319.65 50.46 322.21 C54.21 323.6 57.72 325.71 61.22 327.82"
						class="st2"/>
			</g>
			<g id="shape20224-5" transform="translate(75.7498,-111.635)">
				<title>Sheet.20224</title>
				<path d="M-0 354.94 C2.22 352.44 4.56 350.12 7.25 348.37 C13.05 344.62 20.52 343.53 27.88 343.67 C33.49 343.77 39.03
							 344.59 43.58 347.25 C44.7 347.9 45.75 348.66 46.77 349.49 L0 354.94 Z" class="st1"/>
				<path d="M-0 354.94 C2.22 352.44 4.56 350.12 7.25 348.37 C13.05 344.62 20.52 343.53 27.88 343.67 C33.49 343.77 39.03
							 344.59 43.58 347.25 C44.7 347.9 45.75 348.66 46.77 349.49" class="st2"/>
			</g>
			<g id="shape20225-8" transform="translate(119.735,-113.351)">
				<title>Sheet.20225</title>
				<path d="M0 354.94 C2.53 351.32 5.23 347.9 8.79 345.61 C15.12 341.53 24.19 340.97 31.68 343.39 L0 354.94 Z"
						class="st1"/>
				<path d="M0 354.94 C2.53 351.32 5.23 347.9 8.79 345.61 C15.12 341.53 24.19 340.97 31.68 343.39" class="st2"/>
			</g>
			<g id="shape20226-11" transform="translate(157.556,-107.507)">
				<title>Sheet.20226</title>
				<path d="M0 347.53 C4.18 344.37 8.42 341.34 13.17 339.27 C18.62 336.9 24.74 335.81 30.8 336.64 C35.59 337.3 40.33
							 339.16 43.7 342.25 C47.23 345.49 49.25 350.08 51 354.91 C51 354.92 51 354.92 51 354.93 C51 354.93 51
							 354.93 51 354.94 L0 347.53 Z" class="st1"/>
				<path d="M0 347.53 C4.18 344.37 8.42 341.34 13.17 339.27 C18.62 336.9 24.74 335.81 30.8 336.64 C35.59 337.3 40.33
							 339.16 43.7 342.25 C47.23 345.49 49.25 350.08 51 354.91 C51 354.92 51 354.92 51 354.93 C51 354.93 51
							 354.93 51 354.94" class="st2"/>
			</g>
			<g id="shape20227-14" transform="translate(207.1,-88.3562)">
				<title>Sheet.20227</title>
				<path d="M0 335.9 C2.67 335.68 3.89 335.65 5.12 335.73 C8.51 335.93 11.99 336.9 14.68 338.88 C17.77 341.15 19.83
							 344.73 21 348.53 C21.65 350.63 22.02 352.79 22.02 354.94 L0 335.9 Z" class="st1"/>
				<path d="M0 335.9 C2.67 335.68 3.89 335.65 5.12 335.73 C8.51 335.93 11.99 336.9 14.68 338.88 C17.77 341.15 19.83
							 344.73 21 348.53 C21.65 350.63 22.02 352.79 22.02 354.94" class="st2"/>
			</g>
			<g id="shape20228-17" transform="translate(204.491,-39.8496)">
				<title>Sheet.20228</title>
				<path d="M22.59 314.34 C25.24 317.33 27.66 320.44 28.99 324.11 C30.24 327.54 30.53 331.46 29.7 335.07 C28.92 338.39
							 27.19 341.45 24.96 344.01 C22.09 347.3 18.41 349.75 14.43 351.64 C10.78 353.37 6.87 354.62 2.94 354.88
							 C1.96 354.95 0.98 354.95 -0 354.91 L22.59 314.34 Z" class="st1"/>
				<path d="M22.59 314.34 C25.24 317.33 27.66 320.44 28.99 324.11 C30.24 327.54 30.53 331.46 29.7 335.07 C28.92 338.39
							 27.19 341.45 24.96 344.01 C22.09 347.3 18.41 349.75 14.43 351.64 C10.78 353.37 6.87 354.62 2.94 354.88
							 C1.96 354.95 0.98 354.95 -0 354.91" class="st2"/>
			</g>
			<g id="shape20229-20" transform="translate(156.032,-14.273)">
				<title>Sheet.20229</title>
				<path d="M30.98 310.41 C35.04 312.36 39.1 314.31 42.2 317.36 C44.45 319.57 46.21 322.36 47.36 325.43 C48.82 329.32
							 49.32 333.67 48.26 337.54 C46.7 343.21 41.78 347.87 36.37 350.77 C29.69 354.33 22.24 355.21 14.83 355.03
							 C11.25 354.94 7.67 354.6 4.29 353.68 C2.83 353.28 1.4 352.77 0 352.17 L30.98 310.41 Z" class="st1"/>
				<path d="M30.98 310.41 C35.04 312.36 39.1 314.31 42.2 317.36 C44.45 319.57 46.21 322.36 47.36 325.43 C48.82 329.32
							 49.32 333.67 48.26 337.54 C46.7 343.21 41.78 347.87 36.37 350.77 C29.69 354.33 22.24 355.21 14.83 355.03
							 C11.25 354.94 7.67 354.6 4.29 353.68 C2.83 353.28 1.4 352.77 0 352.17" class="st2"/>
			</g>
			<g id="shape20230-23" transform="translate(86.7007,-5.68434E-014)">
				<title>Sheet.20230</title>
				<path d="M71.96 330.7 C70.53 335.49 68.78 340.04 65.77 343.67 C60.74 349.72 52.22 353.18 44.01 354.43 C37.03 355.49
							 30.28 354.96 23.38 353.53 C17.16 352.25 10.82 350.24 6.33 346.13 C3.84 343.86 1.92 340.95 0 338.03 L71.96
							 330.7 Z" class="st1"/>
				<path d="M71.96 330.7 C70.53 335.49 68.78 340.04 65.77 343.67 C60.74 349.72 52.22 353.18 44.01 354.43 C37.03 355.49
							 30.28 354.96 23.38 353.53 C17.16 352.25 10.82 350.24 6.33 346.13 C3.84 343.86 1.92 340.95 0 338.03"
						class="st2"/>
			</g>
			<g id="shape20231-26" transform="translate(34.185,-5.58812)">
				<title>Sheet.20231</title>
				<path d="M57.25 350.1 C57.22 350.11 57.2 350.12 57.18 350.13 C57.18 350.13 57.17 350.13 57.17 350.13 C52.59 351.84
							 47.96 353.33 43.14 354.19 C34.54 355.71 25.37 355.19 17.12 351.95 C11.38 349.68 6.08 346.1 2.32 341.41
							 C1.47 340.36 0.71 339.25 0 338.11 L57.25 350.1 Z" class="st1"/>
				<path d="M57.25 350.1 C57.22 350.11 57.2 350.12 57.18 350.13 C57.18 350.13 57.17 350.13 57.17 350.13 C52.59 351.84
							 47.96 353.33 43.14 354.19 C34.54 355.71 25.37 355.19 17.12 351.95 C11.38 349.68 6.08 346.1 2.32 341.41
							 C1.47 340.36 0.71 339.25 0 338.11" class="st2"/>
			</g>
			<g id="shape20232-29" transform="translate(6.54987,-22.3953)">
				<title>Sheet.20232</title>
				<path d="M32.28 354.63 C29.12 354.91 25.9 355.04 22.55 354.85 C15.36 354.44 7.54 352.54 3.48 347.23 C1.54 344.7 0.46
							 341.39 0.12 338.04 C-0.17 335.25 0.05 332.44 1.01 329.97 C1.79 327.97 3.04 326.2 4.48 324.52 L32.28
							 354.63 Z" class="st1"/>
				<path d="M32.28 354.63 C29.12 354.91 25.9 355.04 22.55 354.85 C15.36 354.44 7.54 352.54 3.48 347.23 C1.54 344.7 0.46
							 341.39 0.12 338.04 C-0.17 335.25 0.05 332.44 1.01 329.97 C1.79 327.97 3.04 326.2 4.48 324.52"
						class="st2"/>
			</g>
			<g id="shape20233-32" transform="translate(1.07914E-013,-48.8131)">
				<title>Sheet.20233</title>
				<path d="M24.56 354.94 C21.4 354.34 18.26 353.6 15.19 352.57 C11.36 351.29 7.63 349.54 4.65 346.74 C2.56 344.79 0.84
							 342.34 0.24 339.58 C-0.44 336.42 0.36 332.86 2.09 330.11 C5.04 325.41 10.72 323.1 16.12 321.43 C18.12
							 320.81 20.08 320.28 22.03 319.78 L24.56 354.94 Z" class="st1"/>
				<path d="M24.56 354.94 C21.4 354.34 18.26 353.6 15.19 352.57 C11.36 351.29 7.63 349.54 4.65 346.74 C2.56 344.79 0.84
							 342.34 0.24 339.58 C-0.44 336.42 0.36 332.86 2.09 330.11 C5.04 325.41 10.72 323.1 16.12 321.43 C18.12
							 320.81 20.08 320.28 22.03 319.78" class="st2"/>
			</g>
		</g>
		<g id="group20234-35" transform="translate(185.635,-24.9133)">
			<title>Sheet.20234</title>
			<g id="shape20235-36">
				<title>Sheet.20235</title>
				<path d="M0 354.94 L22.68 354.94 L22.68 332.26 L0 332.26 L0 354.94 Z" class="st3"/>
			</g>
			<g id="shape20236-38" transform="translate(4.29434,-4.29434)">
				<title>Sheet.20236</title>
				<ellipse cx="7.04425" cy="347.893" rx="7.04425" ry="7.04425" class="st4"/>
			</g>
		</g>
		<g id="group20360-40" transform="translate(153.637,-24.9133)">
			<title>Sheet.20360</title>
			<g id="shape20361-41">
				<title>Sheet.20361</title>
				<path d="M0 354.94 L22.68 354.94 L22.68 332.26 L0 332.26 L0 354.94 Z" class="st3"/>
			</g>
			<g id="shape20362-43" transform="translate(4.29434,-4.29434)">
				<title>Sheet.20362</title>
				<ellipse cx="7.04425" cy="347.893" rx="7.04425" ry="7.04425" class="st4"/>
			</g>
		</g>
		<g id="group20661-45" transform="translate(1076.8,-25.693)">
			<title>Sheet.20661</title>
			<g id="shape20662-46">
				<title>Sheet.20662</title>
				<path d="M0 354.94 L22.68 354.94 L22.68 319.72 L0 319.72 L0 354.94 Z" class="st5"/>
			</g>
			<g id="shape20663-48" transform="translate(4.30713,-19.3708)">
				<title>Sheet.20663</title>
				<path d="M12.44 354.94 A7.04425 7.04425 -180 1 0 1.62 354.94 L12.44 354.94 Z" class="st1"/>
				<path d="M12.44 354.94 A7.04425 7.04425 -180 1 0 1.62 354.94" class="st2"/>
			</g>
			<g id="shape20664-51" transform="translate(8.11838,-10.3513)">
				<title>Sheet.20664</title>
				<path d="M0 354.94 L6.44 354.94" class="st2"/>
			</g>
			<g id="shape20665-54" transform="translate(5.9282,-10.3513)">
				<title>Sheet.20665</title>
				<path d="M2.19 354.94 A17.0418 17.0418 -180 0 0 0 345.92 L2.19 354.94 Z" class="st1"/>
				<path d="M2.19 354.94 A17.0418 17.0418 -180 0 0 0 345.92" class="st2"/>
			</g>
			<g id="shape20666-57" transform="translate(14.5588,-10.3513)">
				<title>Sheet.20666</title>
				<path d="M2.19 345.92 A17.0418 17.0418 -180 0 0 0 354.94 L2.19 345.92 Z" class="st1"/>
				<path d="M2.19 345.92 A17.0418 17.0418 -180 0 0 0 354.94" class="st2"/>
			</g>
			<g id="shape20667-60" transform="translate(8.11838,-4.61203)">
				<title>Sheet.20667</title>
				<path d="M0 354.94 L6.44 354.94" class="st2"/>
			</g>
			<g id="shape20668-63" transform="translate(8.71209,-4.04939)">
				<title>Sheet.20668</title>
				<path d="M0 354.94 L5.25 354.94" class="st2"/>
			</g>
			<g id="shape20669-66" transform="translate(-235.435,608.518) rotate(-136.539)">
				<title>Sheet.20669</title>
				<path d="M0 354.94 L0.82 354.94" class="st2"/>
			</g>
			<g id="shape20670-69" transform="translate(-230.182,93.259) rotate(-43.4609)">
				<title>Sheet.20670</title>
				<path d="M0 354.94 L0.82 354.94" class="st2"/>
			</g>
			<g id="shape20671-72" transform="translate(363.056,344.586) rotate(90)">
				<title>Sheet.20671</title>
				<path d="M0 354.94 L0.93 354.94" class="st2"/>
			</g>
			<g id="shape20672-75" transform="translate(-346.819,350.326) rotate(-90)">
				<title>Sheet.20672</title>
				<path d="M0 354.94 L0.69 354.94" class="st2"/>
			</g>
			<g id="shape20673-78" transform="translate(-241.387,602.075) rotate(-135.336)">
				<title>Sheet.20673</title>
				<path d="M0 354.94 L0.45 354.94" class="st2"/>
			</g>
			<g id="shape20674-81" transform="translate(-241.71,96.666) rotate(-44.6645)">
				<title>Sheet.20674</title>
				<path d="M0 354.94 L0.45 354.94" class="st2"/>
			</g>
			<g id="shape20675-84" transform="translate(7.89481,-5.72667)">
				<title>Sheet.20675</title>
			</g>
			<g id="shape20676-85" transform="translate(-234.946,96.6088) rotate(-44.6645)">
				<title>Sheet.20676</title>
				<path d="M0 354.94 L0.45 354.94" class="st2"/>
			</g>
			<g id="shape20677-88" transform="translate(-234.623,600.976) rotate(-135.336)">
				<title>Sheet.20677</title>
				<path d="M0 354.94 L0.45 354.94" class="st2"/>
			</g>
			<g id="shape20678-91" transform="translate(14.7824,-6.30498)">
				<title>Sheet.20678</title>
			</g>
			<g id="shape20679-92" transform="translate(-241.387,600.985) rotate(-135.336)">
				<title>Sheet.20679</title>
				<path d="M0 354.94 L0.45 354.94" class="st2"/>
			</g>
			<g id="shape20680-95" transform="translate(-241.71,95.5751) rotate(-44.6645)">
				<title>Sheet.20680</title>
				<path d="M0 354.94 L0.45 354.94" class="st2"/>
			</g>
			<g id="shape20681-98" transform="translate(7.89481,-6.81756)">
				<title>Sheet.20681</title>
			</g>
			<g id="shape20682-99" transform="translate(-234.946,95.5179) rotate(-44.6645)">
				<title>Sheet.20682</title>
				<path d="M0 354.94 L0.45 354.94" class="st2"/>
			</g>
			<g id="shape20683-102" transform="translate(-234.623,599.885) rotate(-135.336)">
				<title>Sheet.20683</title>
				<path d="M0 354.94 L0.45 354.94" class="st2"/>
			</g>
			<g id="shape20684-105" transform="translate(14.7824,-7.39587)">
				<title>Sheet.20684</title>
			</g>
			<g id="shape20685-106" transform="translate(-241.387,599.894) rotate(-135.336)">
				<title>Sheet.20685</title>
				<path d="M0 354.94 L0.45 354.94" class="st2"/>
			</g>
			<g id="shape20686-109" transform="translate(-241.71,94.4842) rotate(-44.6645)">
				<title>Sheet.20686</title>
				<path d="M0 354.94 L0.45 354.94" class="st2"/>
			</g>
			<g id="shape20687-112" transform="translate(7.89481,-7.90845)">
				<title>Sheet.20687</title>
			</g>
			<g id="shape20688-113" transform="translate(-234.946,94.427) rotate(-44.6645)">
				<title>Sheet.20688</title>
				<path d="M0 354.94 L0.45 354.94" class="st2"/>
			</g>
			<g id="shape20689-116" transform="translate(-234.623,598.794) rotate(-135.336)">
				<title>Sheet.20689</title>
				<path d="M0 354.94 L0.45 354.94" class="st2"/>
			</g>
			<g id="shape20690-119" transform="translate(14.7824,-8.48676)">
				<title>Sheet.20690</title>
			</g>
			<g id="shape20691-120" transform="translate(-241.387,598.803) rotate(-135.336)">
				<title>Sheet.20691</title>
				<path d="M0 354.94 L0.45 354.94" class="st2"/>
			</g>
			<g id="shape20692-123" transform="translate(-241.71,93.3933) rotate(-44.6645)">
				<title>Sheet.20692</title>
				<path d="M0 354.94 L0.45 354.94" class="st2"/>
			</g>
			<g id="shape20693-126" transform="translate(7.89481,-8.99935)">
				<title>Sheet.20693</title>
			</g>
			<g id="shape20694-127" transform="translate(-234.946,93.3361) rotate(-44.6645)">
				<title>Sheet.20694</title>
				<path d="M0 354.94 L0.45 354.94" class="st2"/>
			</g>
			<g id="shape20695-130" transform="translate(-234.623,597.703) rotate(-135.336)">
				<title>Sheet.20695</title>
				<path d="M0 354.94 L0.45 354.94" class="st2"/>
			</g>
			<g id="shape20696-133" transform="translate(14.7824,-9.57765)">
				<title>Sheet.20696</title>
			</g>
			<g id="shape20697-134" transform="translate(-23.6248,-7.9973) rotate(-5.131)">
				<title>Sheet.20697</title>
				<path d="M0 354.94 L6.47 354.94" class="st2"/>
			</g>
			<g id="shape20698-137" transform="translate(-23.6248,-7.1568) rotate(-5.131)">
				<title>Sheet.20698</title>
				<path d="M0 354.94 L6.47 354.94" class="st2"/>
			</g>
			<g id="shape20699-140" transform="translate(-23.6248,-6.9064) rotate(-5.131)">
				<title>Sheet.20699</title>
				<path d="M0 354.94 L6.47 354.94" class="st2"/>
			</g>
			<g id="shape20700-143" transform="translate(-23.6248,-6.06591) rotate(-5.131)">
				<title>Sheet.20700</title>
				<path d="M0 354.94 L6.47 354.94" class="st2"/>
			</g>
			<g id="shape20701-146" transform="translate(-23.6248,-5.81551) rotate(-5.131)">
				<title>Sheet.20701</title>
				<path d="M0 354.94 L6.47 354.94" class="st2"/>
			</g>
			<g id="shape20702-149" transform="translate(-23.6248,-4.97502) rotate(-5.131)">
				<title>Sheet.20702</title>
				<path d="M0 354.94 L6.47 354.94" class="st2"/>
			</g>
			<g id="shape20703-152" transform="translate(-23.6248,-4.72462) rotate(-5.131)">
				<title>Sheet.20703</title>
				<path d="M0 354.94 L6.47 354.94" class="st2"/>
			</g>
			<g id="shape20704-155" transform="translate(-23.6248,-3.88413) rotate(-5.131)">
				<title>Sheet.20704</title>
				<path d="M0 354.94 L6.47 354.94" class="st2"/>
			</g>
			<g id="shape20705-158" transform="translate(363.056,346.359) rotate(90)">
				<title>Sheet.20705</title>
				<path d="M0 354.94 L0.25 354.94" class="st2"/>
			</g>
			<g id="shape20706-161" transform="translate(363.056,347.449) rotate(90)">
				<title>Sheet.20706</title>
				<path d="M0 354.94 L0.25 354.94" class="st2"/>
			</g>
			<g id="shape20707-164" transform="translate(363.056,348.54) rotate(90)">
				<title>Sheet.20707</title>
				<path d="M0 354.94 L0.25 354.94" class="st2"/>
			</g>
			<g id="shape20708-167" transform="translate(-340.379,348.212) rotate(-90)">
				<title>Sheet.20708</title>
				<path d="M0 354.94 L0.25 354.94" class="st2"/>
			</g>
			<g id="shape20709-170" transform="translate(-340.379,347.122) rotate(-90)">
				<title>Sheet.20709</title>
				<path d="M0 354.94 L0.25 354.94" class="st2"/>
			</g>
			<g id="shape20710-173" transform="translate(-340.379,346.031) rotate(-90)">
				<title>Sheet.20710</title>
				<path d="M0 354.94 L0.25 354.94" class="st2"/>
			</g>
			<g id="shape20711-176" transform="translate(369.496,344.586) rotate(90)">
				<title>Sheet.20711</title>
				<path d="M0 354.94 L0.35 354.94" class="st2"/>
			</g>
			<g id="shape20712-179" transform="translate(369.496,349.053) rotate(90)">
				<title>Sheet.20712</title>
				<path d="M0 354.94 L1.27 354.94" class="st2"/>
			</g>
			<g id="shape20713-182" transform="translate(10.7049,-3.79674)">
				<title>Sheet.20713</title>
				<path d="M0 354.94 L1.27 354.94" class="st2"/>
			</g>
			<g id="shape20714-185" transform="translate(-232.975,609.213) rotate(-136.643)">
				<title>Sheet.20714</title>
				<path d="M0 354.94 L0.37 354.94" class="st2"/>
			</g>
			<g id="shape20715-188" transform="translate(-231.707,93.0693) rotate(-43.357)">
				<title>Sheet.20715</title>
				<path d="M0 354.94 L0.37 354.94" class="st2"/>
			</g>
		</g>
		<g id="group20941-191" transform="translate(1108.8,-25.693)">
			<title>Sheet.20941</title>
			<g id="shape20942-192">
				<title>Sheet.20942</title>
				<path d="M0 354.94 L22.68 354.94 L22.68 319.72 L0 319.72 L0 354.94 Z" class="st5"/>
			</g>
			<g id="shape20943-194" transform="translate(4.30713,-19.3708)">
				<title>Sheet.20943</title>
				<path d="M12.44 354.94 A7.04425 7.04425 -180 1 0 1.62 354.94 L12.44 354.94 Z" class="st1"/>
				<path d="M12.44 354.94 A7.04425 7.04425 -180 1 0 1.62 354.94" class="st2"/>
			</g>
			<g id="shape20944-197" transform="translate(8.11838,-10.3513)">
				<title>Sheet.20944</title>
				<path d="M0 354.94 L6.44 354.94" class="st2"/>
			</g>
			<g id="shape20945-200" transform="translate(5.9282,-10.3513)">
				<title>Sheet.20945</title>
				<path d="M2.19 354.94 A17.0418 17.0418 -180 0 0 0 345.92 L2.19 354.94 Z" class="st1"/>
				<path d="M2.19 354.94 A17.0418 17.0418 -180 0 0 0 345.92" class="st2"/>
			</g>
			<g id="shape20946-203" transform="translate(14.5588,-10.3513)">
				<title>Sheet.20946</title>
				<path d="M2.19 345.92 A17.0418 17.0418 -180 0 0 0 354.94 L2.19 345.92 Z" class="st1"/>
				<path d="M2.19 345.92 A17.0418 17.0418 -180 0 0 0 354.94" class="st2"/>
			</g>
			<g id="shape20947-206" transform="translate(8.11838,-4.61203)">
				<title>Sheet.20947</title>
				<path d="M0 354.94 L6.44 354.94" class="st2"/>
			</g>
			<g id="shape20948-209" transform="translate(8.71209,-4.04939)">
				<title>Sheet.20948</title>
				<path d="M0 354.94 L5.25 354.94" class="st2"/>
			</g>
			<g id="shape20949-212" transform="translate(-235.435,608.518) rotate(-136.539)">
				<title>Sheet.20949</title>
				<path d="M0 354.94 L0.82 354.94" class="st2"/>
			</g>
			<g id="shape20950-215" transform="translate(-230.182,93.259) rotate(-43.4609)">
				<title>Sheet.20950</title>
				<path d="M0 354.94 L0.82 354.94" class="st2"/>
			</g>
			<g id="shape20951-218" transform="translate(363.056,344.586) rotate(90)">
				<title>Sheet.20951</title>
				<path d="M0 354.94 L0.93 354.94" class="st2"/>
			</g>
			<g id="shape20952-221" transform="translate(-346.819,350.326) rotate(-90)">
				<title>Sheet.20952</title>
				<path d="M0 354.94 L0.69 354.94" class="st2"/>
			</g>
			<g id="shape20953-224" transform="translate(-241.387,602.075) rotate(-135.336)">
				<title>Sheet.20953</title>
				<path d="M0 354.94 L0.45 354.94" class="st2"/>
			</g>
			<g id="shape20954-227" transform="translate(-241.71,96.666) rotate(-44.6645)">
				<title>Sheet.20954</title>
				<path d="M0 354.94 L0.45 354.94" class="st2"/>
			</g>
			<g id="shape20955-230" transform="translate(7.89481,-5.72667)">
				<title>Sheet.20955</title>
			</g>
			<g id="shape20956-231" transform="translate(-234.946,96.6088) rotate(-44.6645)">
				<title>Sheet.20956</title>
				<path d="M0 354.94 L0.45 354.94" class="st2"/>
			</g>
			<g id="shape20957-234" transform="translate(-234.623,600.976) rotate(-135.336)">
				<title>Sheet.20957</title>
				<path d="M0 354.94 L0.45 354.94" class="st2"/>
			</g>
			<g id="shape20958-237" transform="translate(14.7824,-6.30498)">
				<title>Sheet.20958</title>
			</g>
			<g id="shape20959-238" transform="translate(-241.387,600.985) rotate(-135.336)">
				<title>Sheet.20959</title>
				<path d="M0 354.94 L0.45 354.94" class="st2"/>
			</g>
			<g id="shape20960-241" transform="translate(-241.71,95.5751) rotate(-44.6645)">
				<title>Sheet.20960</title>
				<path d="M0 354.94 L0.45 354.94" class="st2"/>
			</g>
			<g id="shape20961-244" transform="translate(7.89481,-6.81756)">
				<title>Sheet.20961</title>
			</g>
			<g id="shape20962-245" transform="translate(-234.946,95.5179) rotate(-44.6645)">
				<title>Sheet.20962</title>
				<path d="M0 354.94 L0.45 354.94" class="st2"/>
			</g>
			<g id="shape20963-248" transform="translate(-234.623,599.885) rotate(-135.336)">
				<title>Sheet.20963</title>
				<path d="M0 354.94 L0.45 354.94" class="st2"/>
			</g>
			<g id="shape20964-251" transform="translate(14.7824,-7.39587)">
				<title>Sheet.20964</title>
			</g>
			<g id="shape20965-252" transform="translate(-241.387,599.894) rotate(-135.336)">
				<title>Sheet.20965</title>
				<path d="M0 354.94 L0.45 354.94" class="st2"/>
			</g>
			<g id="shape20966-255" transform="translate(-241.71,94.4842) rotate(-44.6645)">
				<title>Sheet.20966</title>
				<path d="M0 354.94 L0.45 354.94" class="st2"/>
			</g>
			<g id="shape20967-258" transform="translate(7.89481,-7.90845)">
				<title>Sheet.20967</title>
			</g>
			<g id="shape20968-259" transform="translate(-234.946,94.427) rotate(-44.6645)">
				<title>Sheet.20968</title>
				<path d="M0 354.94 L0.45 354.94" class="st2"/>
			</g>
			<g id="shape20969-262" transform="translate(-234.623,598.794) rotate(-135.336)">
				<title>Sheet.20969</title>
				<path d="M0 354.94 L0.45 354.94" class="st2"/>
			</g>
			<g id="shape20970-265" transform="translate(14.7824,-8.48676)">
				<title>Sheet.20970</title>
			</g>
			<g id="shape20971-266" transform="translate(-241.387,598.803) rotate(-135.336)">
				<title>Sheet.20971</title>
				<path d="M0 354.94 L0.45 354.94" class="st2"/>
			</g>
			<g id="shape20972-269" transform="translate(-241.71,93.3933) rotate(-44.6645)">
				<title>Sheet.20972</title>
				<path d="M0 354.94 L0.45 354.94" class="st2"/>
			</g>
			<g id="shape20973-272" transform="translate(7.89481,-8.99935)">
				<title>Sheet.20973</title>
			</g>
			<g id="shape20974-273" transform="translate(-234.946,93.3361) rotate(-44.6645)">
				<title>Sheet.20974</title>
				<path d="M0 354.94 L0.45 354.94" class="st2"/>
			</g>
			<g id="shape20975-276" transform="translate(-234.623,597.703) rotate(-135.336)">
				<title>Sheet.20975</title>
				<path d="M0 354.94 L0.45 354.94" class="st2"/>
			</g>
			<g id="shape20976-279" transform="translate(14.7824,-9.57765)">
				<title>Sheet.20976</title>
			</g>
			<g id="shape20977-280" transform="translate(-23.6248,-7.9973) rotate(-5.131)">
				<title>Sheet.20977</title>
				<path d="M0 354.94 L6.47 354.94" class="st2"/>
			</g>
			<g id="shape20978-283" transform="translate(-23.6248,-7.1568) rotate(-5.131)">
				<title>Sheet.20978</title>
				<path d="M0 354.94 L6.47 354.94" class="st2"/>
			</g>
			<g id="shape20979-286" transform="translate(-23.6248,-6.9064) rotate(-5.131)">
				<title>Sheet.20979</title>
				<path d="M0 354.94 L6.47 354.94" class="st2"/>
			</g>
			<g id="shape20980-289" transform="translate(-23.6248,-6.06591) rotate(-5.131)">
				<title>Sheet.20980</title>
				<path d="M0 354.94 L6.47 354.94" class="st2"/>
			</g>
			<g id="shape20981-292" transform="translate(-23.6248,-5.81551) rotate(-5.131)">
				<title>Sheet.20981</title>
				<path d="M0 354.94 L6.47 354.94" class="st2"/>
			</g>
			<g id="shape20982-295" transform="translate(-23.6248,-4.97502) rotate(-5.131)">
				<title>Sheet.20982</title>
				<path d="M0 354.94 L6.47 354.94" class="st2"/>
			</g>
			<g id="shape20983-298" transform="translate(-23.6248,-4.72462) rotate(-5.131)">
				<title>Sheet.20983</title>
				<path d="M0 354.94 L6.47 354.94" class="st2"/>
			</g>
			<g id="shape20984-301" transform="translate(-23.6248,-3.88413) rotate(-5.131)">
				<title>Sheet.20984</title>
				<path d="M0 354.94 L6.47 354.94" class="st2"/>
			</g>
			<g id="shape20985-304" transform="translate(363.056,346.359) rotate(90)">
				<title>Sheet.20985</title>
				<path d="M0 354.94 L0.25 354.94" class="st2"/>
			</g>
			<g id="shape20986-307" transform="translate(363.056,347.449) rotate(90)">
				<title>Sheet.20986</title>
				<path d="M0 354.94 L0.25 354.94" class="st2"/>
			</g>
			<g id="shape20987-310" transform="translate(363.056,348.54) rotate(90)">
				<title>Sheet.20987</title>
				<path d="M0 354.94 L0.25 354.94" class="st2"/>
			</g>
			<g id="shape20988-313" transform="translate(-340.379,348.212) rotate(-90)">
				<title>Sheet.20988</title>
				<path d="M0 354.94 L0.25 354.94" class="st2"/>
			</g>
			<g id="shape20989-316" transform="translate(-340.379,347.122) rotate(-90)">
				<title>Sheet.20989</title>
				<path d="M0 354.94 L0.25 354.94" class="st2"/>
			</g>
			<g id="shape20990-319" transform="translate(-340.379,346.031) rotate(-90)">
				<title>Sheet.20990</title>
				<path d="M0 354.94 L0.25 354.94" class="st2"/>
			</g>
			<g id="shape20991-322" transform="translate(369.496,344.586) rotate(90)">
				<title>Sheet.20991</title>
				<path d="M0 354.94 L0.35 354.94" class="st2"/>
			</g>
			<g id="shape20992-325" transform="translate(369.496,349.053) rotate(90)">
				<title>Sheet.20992</title>
				<path d="M0 354.94 L1.27 354.94" class="st2"/>
			</g>
			<g id="shape20993-328" transform="translate(10.7049,-3.79674)">
				<title>Sheet.20993</title>
				<path d="M0 354.94 L1.27 354.94" class="st2"/>
			</g>
			<g id="shape20994-331" transform="translate(-232.975,609.213) rotate(-136.643)">
				<title>Sheet.20994</title>
				<path d="M0 354.94 L0.37 354.94" class="st2"/>
			</g>
			<g id="shape20995-334" transform="translate(-231.707,93.0693) rotate(-43.357)">
				<title>Sheet.20995</title>
				<path d="M0 354.94 L0.37 354.94" class="st2"/>
			</g>
		</g>
		<g id="group21571-337" transform="translate(565.986,-122.835)">
			<title>Sheet.21571</title>
			<g id="shape21572-338" transform="translate(2.55546E-013,-77.045)">
				<title>Sheet.21572</title>
				<path d="M0 354.94 L4.25 354.94" class="st2"/>
			</g>
			<g id="shape21573-341" transform="translate(12.7559,-77.045)">
				<title>Sheet.21573</title>
				<path d="M0 354.94 L4.25 354.94" class="st2"/>
			</g>
			<g id="shape21574-344" transform="translate(-317.466,119.16) rotate(-63.4349)">
				<title>Sheet.21574</title>
				<path d="M0 354.94 L19.02 354.94" class="st2"/>
			</g>
			<g id="shape21575-347" transform="translate(325.97,102.152) rotate(63.4349)">
				<title>Sheet.21575</title>
				<path d="M0 354.94 L19.02 354.94" class="st2"/>
			</g>
			<g id="shape21576-350" transform="translate(2.55546E-013,-17.0079)">
				<title>Sheet.21576</title>
				<path d="M0 354.94 L4.25 354.94" class="st2"/>
			</g>
			<g id="shape21577-353" transform="translate(12.7559,-17.0079)">
				<title>Sheet.21577</title>
				<path d="M0 354.94 L4.25 354.94" class="st2"/>
			</g>
			<g id="shape21578-356" transform="translate(317.466,179.197) rotate(63.4349)">
				<title>Sheet.21578</title>
				<path d="M0 354.94 L19.02 354.94" class="st2"/>
			</g>
			<g id="shape21579-359" transform="translate(-308.962,196.205) rotate(-63.4349)">
				<title>Sheet.21579</title>
				<path d="M0 354.94 L19.02 354.94" class="st2"/>
			</g>
			<g id="shape21580-362" transform="translate(-350.686,337.93) rotate(-90)">
				<title>Sheet.21580</title>
				<path d="M0 354.94 L60.04 354.94" class="st2"/>
			</g>
			<g id="shape21581-365" transform="translate(367.694,277.893) rotate(90)">
				<title>Sheet.21581</title>
				<path d="M0 354.94 L60.04 354.94" class="st2"/>
			</g>
		</g>
		<g id="group21924-368" transform="translate(225.815,-54.2767)">
			<title>Sheet.21924</title>
			<g id="shape21925-369" transform="translate(371.946,337.93) rotate(90)">
				<title>Sheet.21925</title>
				<path d="M0 354.94 L4.25 354.94" class="st6"/>
			</g>
			<g id="shape21926-372" transform="translate(371.946,350.686) rotate(90)">
				<title>Sheet.21926</title>
				<path d="M0 354.94 L4.25 354.94" class="st6"/>
			</g>
			<g id="shape21927-375" transform="translate(175.741,655.396) rotate(153.435)">
				<title>Sheet.21927</title>
				<path d="M0 354.94 L19.02 354.94" class="st6"/>
			</g>
			<g id="shape21928-378" transform="translate(158.733,28.9678) rotate(26.5651)">
				<title>Sheet.21928</title>
				<path d="M0 354.94 L19.02 354.94" class="st6"/>
			</g>
			<g id="shape21929-381" transform="translate(17.0079,-12.7559)">
				<title>Sheet.21929</title>
				<path d="M0 354.94 L21.13 354.94" class="st6"/>
			</g>
			<g id="shape21930-384" transform="translate(38.1344,705.623) rotate(180)">
				<title>Sheet.21930</title>
				<path d="M0 354.94 L21.13 354.94" class="st6"/>
			</g>
			<g id="shape21931-387" transform="translate(393.072,337.93) rotate(90)">
				<title>Sheet.21931</title>
				<path d="M0 354.94 L4.25 354.94" class="st6"/>
			</g>
			<g id="shape21932-390" transform="translate(393.072,350.686) rotate(90)">
				<title>Sheet.21932</title>
				<path d="M0 354.94 L4.25 354.94" class="st6"/>
			</g>
			<g id="shape21933-393" transform="translate(196.867,20.4639) rotate(26.5651)">
				<title>Sheet.21933</title>
				<path d="M0 354.94 L19.02 354.94" class="st6"/>
			</g>
			<g id="shape21934-396" transform="translate(213.875,663.9) rotate(153.435)">
				<title>Sheet.21934</title>
				<path d="M0 354.94 L19.02 354.94" class="st6"/>
			</g>
		</g>
		<g id="group22212-399" transform="translate(350.218,-54.2767)">
			<title>Sheet.22212</title>
			<g id="shape22213-400" transform="translate(444.117,337.93) rotate(90)">
				<title>Sheet.22213</title>
				<path d="M0 354.94 L4.25 354.94" class="st6"/>
			</g>
			<g id="shape22214-403" transform="translate(444.117,350.686) rotate(90)">
				<title>Sheet.22214</title>
				<path d="M0 354.94 L4.25 354.94" class="st6"/>
			</g>
			<g id="shape22215-406" transform="translate(247.913,20.4639) rotate(26.5651)">
				<title>Sheet.22215</title>
				<path d="M0 354.94 L19.02 354.94" class="st6"/>
			</g>
			<g id="shape22216-409" transform="translate(264.92,663.9) rotate(153.435)">
				<title>Sheet.22216</title>
				<path d="M0 354.94 L19.02 354.94" class="st6"/>
			</g>
			<g id="shape22217-412" transform="translate(371.946,337.93) rotate(90)">
				<title>Sheet.22217</title>
				<path d="M0 354.94 L4.25 354.94" class="st6"/>
			</g>
			<g id="shape22218-415" transform="translate(371.946,350.686) rotate(90)">
				<title>Sheet.22218</title>
				<path d="M0 354.94 L4.25 354.94" class="st6"/>
			</g>
			<g id="shape22219-418" transform="translate(175.741,655.396) rotate(153.435)">
				<title>Sheet.22219</title>
				<path d="M0 354.94 L19.02 354.94" class="st6"/>
			</g>
			<g id="shape22220-421" transform="translate(158.733,28.9678) rotate(26.5651)">
				<title>Sheet.22220</title>
				<path d="M0 354.94 L19.02 354.94" class="st6"/>
			</g>
			<g id="shape22221-424" transform="translate(17.0079,-12.7559)">
				<title>Sheet.22221</title>
				<path d="M0 354.94 L72.17 354.94" class="st6"/>
			</g>
			<g id="shape22222-427" transform="translate(89.1796,705.623) rotate(180)">
				<title>Sheet.22222</title>
				<path d="M0 354.94 L72.17 354.94" class="st6"/>
			</g>
		</g>
		<g id="group22478-430" transform="translate(868.022,-54.2767)">
			<title>Sheet.22478</title>
			<g id="shape22479-431" transform="translate(393.072,337.93) rotate(90)">
				<title>Sheet.22479</title>
				<path d="M0 354.94 L4.25 354.94" class="st2"/>
			</g>
			<g id="shape22480-434" transform="translate(393.072,350.686) rotate(90)">
				<title>Sheet.22480</title>
				<path d="M0 354.94 L4.25 354.94" class="st2"/>
			</g>
			<g id="shape22481-437" transform="translate(196.867,20.4639) rotate(26.5651)">
				<title>Sheet.22481</title>
				<path d="M0 354.94 L19.02 354.94" class="st2"/>
			</g>
			<g id="shape22482-440" transform="translate(213.875,663.9) rotate(153.435)">
				<title>Sheet.22482</title>
				<path d="M0 354.94 L19.02 354.94" class="st2"/>
			</g>
			<g id="shape22483-443" transform="translate(38.1344,697.12) rotate(180)">
				<title>Sheet.22483</title>
				<path d="M0 354.94 L21.13 354.94" class="st2"/>
			</g>
			<g id="shape22484-446" transform="translate(17.0079,-4.25197)">
				<title>Sheet.22484</title>
				<path d="M0 354.94 L21.13 354.94" class="st2"/>
			</g>
			<g id="shape22485-449" transform="translate(371.946,337.93) rotate(90)">
				<title>Sheet.22485</title>
				<path d="M0 354.94 L4.25 354.94" class="st2"/>
			</g>
			<g id="shape22486-452" transform="translate(371.946,350.686) rotate(90)">
				<title>Sheet.22486</title>
				<path d="M0 354.94 L4.25 354.94" class="st2"/>
			</g>
			<g id="shape22487-455" transform="translate(175.741,655.396) rotate(153.435)">
				<title>Sheet.22487</title>
				<path d="M0 354.94 L19.02 354.94" class="st2"/>
			</g>
			<g id="shape22488-458" transform="translate(158.733,28.9678) rotate(26.5651)">
				<title>Sheet.22488</title>
				<path d="M0 354.94 L19.02 354.94" class="st2"/>
			</g>
		</g>
		<g id="group22656-461" transform="translate(692.574,-54.2767)">
			<title>Sheet.22656</title>
			<g id="shape22657-462" transform="translate(371.946,337.93) rotate(90)">
				<title>Sheet.22657</title>
				<path d="M0 354.94 L4.25 354.94" class="st2"/>
			</g>
			<g id="shape22658-465" transform="translate(371.946,350.686) rotate(90)">
				<title>Sheet.22658</title>
				<path d="M0 354.94 L4.25 354.94" class="st2"/>
			</g>
			<g id="shape22659-468" transform="translate(175.741,655.396) rotate(153.435)">
				<title>Sheet.22659</title>
				<path d="M0 354.94 L19.02 354.94" class="st2"/>
			</g>
			<g id="shape22660-471" transform="translate(158.733,28.9678) rotate(26.5651)">
				<title>Sheet.22660</title>
				<path d="M0 354.94 L19.02 354.94" class="st2"/>
			</g>
			<g id="shape22661-474" transform="translate(444.117,337.93) rotate(90)">
				<title>Sheet.22661</title>
				<path d="M0 354.94 L4.25 354.94" class="st2"/>
			</g>
			<g id="shape22662-477" transform="translate(444.117,350.686) rotate(90)">
				<title>Sheet.22662</title>
				<path d="M0 354.94 L4.25 354.94" class="st2"/>
			</g>
			<g id="shape22663-480" transform="translate(247.913,20.4639) rotate(26.5651)">
				<title>Sheet.22663</title>
				<path d="M0 354.94 L19.02 354.94" class="st2"/>
			</g>
			<g id="shape22664-483" transform="translate(264.92,663.9) rotate(153.435)">
				<title>Sheet.22664</title>
				<path d="M0 354.94 L19.02 354.94" class="st2"/>
			</g>
			<g id="shape22665-486" transform="translate(89.1796,697.12) rotate(180)">
				<title>Sheet.22665</title>
				<path d="M0 354.94 L72.17 354.94" class="st2"/>
			</g>
			<g id="shape22666-489" transform="translate(17.0079,-4.25197)">
				<title>Sheet.22666</title>
				<path d="M0 354.94 L72.17 354.94" class="st2"/>
			</g>
		</g>
		<g id="group22865-492" transform="translate(605.664,-83.2686)">
			<title>Sheet.22865</title>
			<g id="shape22866-493" transform="translate(360.025,231.654) rotate(90)">
				<title>Sheet.22866</title>
				<path d="M0 354.94 L77.09 354.94" class="st2"/>
			</g>
			<g id="shape22867-496" transform="translate(357.191,231.654) rotate(90)">
				<title>Sheet.22867</title>
				<path d="M0 354.94 L77.09 354.94" class="st2"/>
			</g>
			<g id="shape22868-499" transform="translate(2.25295,-2.25295)">
				<title>Sheet.22868</title>
				<path d="M0 311 A43.937 43.937 -180 0 0 43.94 354.94 L0 311 Z" class="st1"/>
				<path d="M0 311 A43.937 43.937 -180 0 0 43.94 354.94" class="st2"/>
			</g>
			<g id="shape22869-502" transform="translate(5.08759,-5.08759)">
				<title>Sheet.22869</title>
				<path d="M0 313.84 A41.1024 41.1024 -180 0 0 41.1 354.94 L0 313.84 Z" class="st1"/>
				<path d="M0 313.84 A41.1024 41.1024 -180 0 0 41.1 354.94" class="st2"/>
			</g>
			<g id="shape22870-505" transform="translate(329.754,707.622) rotate(180)">
				<title>Sheet.22870</title>
				<path d="M0 354.94 L283.56 354.94" class="st2"/>
			</g>
			<g id="shape22871-508" transform="translate(329.754,704.788) rotate(180)">
				<title>Sheet.22871</title>
				<path d="M0 354.94 L283.56 354.94" class="st2"/>
			</g>
			<g id="shape22872-511" transform="translate(488.487,30.1312) rotate(26.5651)">
				<title>Sheet.22872</title>
				<path d="M0 354.94 L8.21 354.94" class="st2"/>
			</g>
			<g id="shape22873-514" transform="translate(495.827,668.733) rotate(153.435)">
				<title>Sheet.22873</title>
				<path d="M0 354.94 L8.21 354.94" class="st2"/>
			</g>
			<g id="shape22874-517" transform="translate(684.691,347.597) rotate(90)">
				<title>Sheet.22874</title>
				<path d="M0 354.94 L2.25 354.94" class="st2"/>
			</g>
			<g id="shape22875-520" transform="translate(684.691,352.685) rotate(90)">
				<title>Sheet.22875</title>
				<path d="M0 354.94 L2.25 354.94" class="st2"/>
			</g>
			<g id="shape22876-523" transform="translate(-317.466,72.9214) rotate(-63.4349)">
				<title>Sheet.22876</title>
				<path d="M0 354.94 L8.21 354.94" class="st2"/>
			</g>
			<g id="shape22877-526" transform="translate(321.136,65.5808) rotate(63.4349)">
				<title>Sheet.22877</title>
				<path d="M0 354.94 L8.21 354.94" class="st2"/>
			</g>
			<g id="shape22878-529" transform="translate(0,-123.283)">
				<title>Sheet.22878</title>
				<path d="M0 354.94 L2.25 354.94" class="st2"/>
			</g>
			<g id="shape22879-532" transform="translate(5.08759,-123.283)">
				<title>Sheet.22879</title>
				<path d="M0 354.94 L2.25 354.94" class="st2"/>
			</g>
		</g>
		<g id="group23083-535" transform="translate(473.319,-219.576)">
			<title>Sheet.23083</title>
			<g id="shape23084-536" transform="translate(26.5872,-135.362)">
				<title>Sheet.23084</title>
				<path d="M0 354.94 L151.71 354.94" class="st2"/>
			</g>
			<g id="shape23085-539" transform="translate(23.866,-132.624)">
				<title>Sheet.23085</title>
				<path d="M2.72 352.2 A2.72126 2.72126 -180 0 0 -0 354.94 L2.72 352.2 Z" class="st1"/>
				<path d="M2.72 352.2 A2.72126 2.72126 -180 0 0 -0 354.94" class="st2"/>
			</g>
			<g id="shape23086-542" transform="translate(28.8865,-128.507)">
				<title>Sheet.23086</title>
				<path d="M0 354.94 L147.22 354.94" class="st2"/>
			</g>
			<g id="shape23087-545" transform="translate(28.2062,-127.823)">
				<title>Sheet.23087</title>
				<path d="M0.68 354.25 a0.680315 0.680315 -180 0 0 -0.680308 0.6834 L0.68 354.25 Z" class="st1"/>
				<path d="M0.68 354.25 a0.680315 0.680315 -180 0 0 -0.680308 0.6834" class="st2"/>
			</g>
			<g id="shape23088-548" transform="translate(28.5798,-45.4194)">
				<title>Sheet.23088</title>
				<path d="M0 354.94 L148.25 354.94" class="st2"/>
			</g>
			<g id="shape23089-551" transform="translate(29.2595,-44.871)">
				<title>Sheet.23089</title>
				<path d="M0 354.94 L146.89 354.94" class="st2"/>
			</g>
			<g id="shape23090-554" transform="translate(26.4951,-37.8785)">
				<title>Sheet.23090</title>
				<path d="M0 354.94 L152.25 354.94" class="st2"/>
			</g>
			<g id="shape23091-557" transform="translate(24.4542,-38.1869)">
				<title>Sheet.23091</title>
				<path d="M0 353.22 A2.04094 2.04094 -180 0 0 0.96 354.94 L0 353.22 Z" class="st1"/>
				<path d="M0 353.22 A2.04094 2.04094 -180 0 0 0.96 354.94" class="st2"/>
			</g>
			<g id="shape23092-560" transform="translate(25.4163,-37.8785)">
				<title>Sheet.23092</title>
				<path d="M0 354.63 A2.04094 2.04094 -180 0 0 1.08 354.94 L0 354.63 Z" class="st1"/>
				<path d="M0 354.63 A2.04094 2.04094 -180 0 0 1.08 354.94" class="st2"/>
			</g>
			<g id="shape23093-563" transform="translate(9.96516,-18.8547)">
				<title>Sheet.23093</title>
				<path d="M0 354.94 L0.84 354.94" class="st2"/>
			</g>
			<g id="shape23094-566" transform="translate(10.8015,-18.8547)">
				<title>Sheet.23094</title>
				<path d="M0 354.94 L183.1 354.94" class="st2"/>
			</g>
			<g id="shape23095-569" transform="translate(193.899,-18.8547)">
				<title>Sheet.23095</title>
				<path d="M0 354.94 L0.83 354.94" class="st2"/>
			</g>
			<g id="shape23096-572" transform="translate(0.680315,-6.25546)">
				<title>Sheet.23096</title>
				<path d="M0 354.94 L202.61 354.94" class="st2"/>
			</g>
			<g id="shape23097-575" transform="translate(0.162995,-7.37759)">
				<title>Sheet.23097</title>
			</g>
			<g id="shape23098-576" transform="translate(-2.45928E-013,-6.25546)">
				<title>Sheet.23098</title>
				<path d="M0 354.26 a0.680315 0.680315 -180 0 0 0.680315 0.680315 L0 354.26 Z" class="st1"/>
				<path d="M0 354.26 a0.680315 0.680315 -180 0 0 0.680315 0.680315" class="st2"/>
			</g>
			<g id="shape23099-579" transform="translate(12.4677,0)">
				<title>Sheet.23099</title>
				<path d="M0 354.94 L175.97 354.94" class="st2"/>
			</g>
			<g id="shape23100-582" transform="translate(378.797,220.062) rotate(89.6365)">
				<title>Sheet.23100</title>
				<path d="M0 354.94 L92.72 354.94" class="st2"/>
			</g>
			<g id="shape23101-585" transform="translate(383.14,225.505) rotate(89.7402)">
				<title>Sheet.23101</title>
				<path d="M0 354.94 L82.28 354.94" class="st2"/>
			</g>
			<g id="shape23102-588" transform="translate(28.5792,-44.871)">
				<title>Sheet.23102</title>
				<path d="M0 354.26 a0.680315 0.680315 -180 0 0 0.680308 0.67723 L0 354.26 Z" class="st1"/>
				<path d="M0 354.26 a0.680315 0.680315 -180 0 0 0.680308 0.67723" class="st2"/>
			</g>
			<g id="shape23103-591" transform="translate(531.726,226.941) rotate(89.9725)">
				<title>Sheet.23103</title>
				<path d="M0 354.94 L82.28 354.94" class="st2"/>
			</g>
			<g id="shape23104-594" transform="translate(176.148,-44.871)">
				<title>Sheet.23104</title>
				<path d="M-0 354.94 a0.680315 0.680315 -180 0 0 0.680315 -0.680641 L0 354.94 Z" class="st1"/>
				<path d="M-0 354.94 a0.680315 0.680315 -180 0 0 0.680315 -0.680641" class="st2"/>
			</g>
			<g id="shape23105-597" transform="translate(176.108,-127.827)">
				<title>Sheet.23105</title>
				<path d="M0.68 354.94 a0.680315 0.680315 -180 0 0 -0.680315 -0.679989 L0.68 354.94 Z" class="st1"/>
				<path d="M0.68 354.94 a0.680315 0.680315 -180 0 0 -0.680315 -0.679989" class="st2"/>
			</g>
			<g id="shape23106-600" transform="translate(-174.148,314.14) rotate(-89.8575)">
				<title>Sheet.23106</title>
				<path d="M0 354.94 L92.72 354.94" class="st2"/>
			</g>
			<g id="shape23107-603" transform="translate(178.748,-37.8785)">
				<title>Sheet.23107</title>
				<path d="M-0 354.94 A2.04094 2.04094 -180 0 0 1.51 354.27 L0 354.94 Z" class="st1"/>
				<path d="M-0 354.94 A2.04094 2.04094 -180 0 0 1.51 354.27" class="st2"/>
			</g>
			<g id="shape23108-606" transform="translate(180.262,-38.551)">
				<title>Sheet.23108</title>
				<path d="M-0 354.94 A2.04094 2.04094 -180 0 0 0.53 353.57 L0 354.94 Z" class="st1"/>
				<path d="M-0 354.94 A2.04094 2.04094 -180 0 0 0.53 353.57" class="st2"/>
			</g>
			<g id="shape23109-609" transform="translate(178.298,-132.634)">
				<title>Sheet.23109</title>
				<path d="M2.72 354.94 A2.72126 2.72126 -180 0 0 0 352.21 L2.72 354.94 Z" class="st1"/>
				<path d="M2.72 354.94 A2.72126 2.72126 -180 0 0 0 352.21" class="st2"/>
			</g>
			<g id="shape23110-612" transform="translate(293.814,550.261) rotate(130.499)">
				<title>Sheet.23110</title>
				<path d="M0 354.94 L3.2 354.94" class="st2"/>
			</g>
			<g id="shape23111-615" transform="translate(279.864,566.594) rotate(130.499)">
				<title>Sheet.23111</title>
				<path d="M0 354.94 L15.09 354.94" class="st2"/>
			</g>
			<g id="shape23112-618" transform="translate(459.939,99.2396) rotate(51.6576)">
				<title>Sheet.23112</title>
				<path d="M0 354.94 L3.51 354.94" class="st2"/>
			</g>
			<g id="shape23113-621" transform="translate(473.112,115.894) rotate(51.6576)">
				<title>Sheet.23113</title>
				<path d="M0 354.94 L14.66 354.94" class="st2"/>
			</g>
			<g id="shape23114-624" transform="translate(203.288,-6.25546)">
				<title>Sheet.23114</title>
				<path d="M-0 354.94 a0.680315 0.680315 -180 0 0 0.680315 -0.680315 L0 354.94 Z" class="st1"/>
				<path d="M-0 354.94 a0.680315 0.680315 -180 0 0 0.680315 -0.680315" class="st2"/>
			</g>
			<g id="shape23115-627" transform="translate(203.968,-6.93577)">
				<title>Sheet.23115</title>
			</g>
			<g id="shape23116-628" transform="translate(286.448,696.437) rotate(166.45)">
				<title>Sheet.23116</title>
				<path d="M0 354.94 L15.11 354.94" class="st2"/>
			</g>
			<g id="shape23117-631" transform="translate(188.441,0)">
				<title>Sheet.23117</title>
			</g>
			<g id="shape23118-632" transform="translate(58.6247,-18.1109)">
				<title>Sheet.23118</title>
				<path d="M0 354.94 L45.36 354.94" class="st2"/>
			</g>
			<g id="shape23119-635" transform="translate(57.6846,-17.4874)">
				<title>Sheet.23119</title>
				<path d="M0.94 354.31 A1.02047 1.02047 -180 0 0 -0 354.94 L0.94 354.31 Z" class="st1"/>
				<path d="M0.94 354.31 A1.02047 1.02047 -180 0 0 -0 354.94" class="st2"/>
			</g>
			<g id="shape23120-638" transform="translate(54.7924,-8.81633)">
				<title>Sheet.23120</title>
				<path d="M0 354.94 L49.15 354.94" class="st2"/>
			</g>
			<g id="shape23121-641" transform="translate(104.968,699.394) rotate(180)">
				<title>Sheet.23121</title>
				<path d="M0 354.94 L50.24 354.94" class="st2"/>
			</g>
			<g id="shape23122-644" transform="translate(384.665,475.524) rotate(112.893)">
				<title>Sheet.23122</title>
				<path d="M0 354.94 L8.64 354.94" class="st2"/>
			</g>
			<g id="shape23123-647" transform="translate(54.3223,-8.81633)">
				<title>Sheet.23123</title>
				<path d="M0 354.23 a0.510236 0.510236 -180 0 0 0.470047 0.708723 L0 354.23 Z" class="st1"/>
				<path d="M0 354.23 a0.510236 0.510236 -180 0 0 0.470047 0.708723" class="st2"/>
			</g>
			<g id="shape23124-650" transform="translate(428.53,412.559) rotate(101.062)">
				<title>Sheet.23124</title>
				<path d="M0 354.94 L1.7 354.94" class="st2"/>
			</g>
			<g id="shape23125-653" transform="translate(428.153,412.559) rotate(101.062)">
				<title>Sheet.23125</title>
				<path d="M0 354.94 L1.7 354.94" class="st2"/>
			</g>
			<g id="shape23126-656" transform="translate(459.935,339.667) rotate(90.2929)">
				<title>Sheet.23126</title>
				<path d="M0 354.94 L7.25 354.94" class="st2"/>
			</g>
			<g id="shape23127-659" transform="translate(103.944,-8.81633)">
				<title>Sheet.23127</title>
				<path d="M0 354.94 A1.02047 1.02047 -180 0 0 1.02 353.92 L0 354.94 Z" class="st1"/>
				<path d="M0 354.94 A1.02047 1.02047 -180 0 0 1.02 353.92" class="st2"/>
			</g>
			<g id="shape23128-662" transform="translate(103.981,-17.0852)">
				<title>Sheet.23128</title>
				<path d="M1.02 354.94 A1.02047 1.02047 -180 0 0 -0 353.91 L1.02 354.94 Z" class="st1"/>
				<path d="M1.02 354.94 A1.02047 1.02047 -180 0 0 -0 353.91" class="st2"/>
			</g>
			<g id="shape23129-665" transform="translate(24.485,-37.1603)">
				<title>Sheet.23129</title>
				<path d="M0 354.94 L156.58 354.94" class="st2"/>
			</g>
			<g id="shape23130-668" transform="translate(181.063,-35.509)">
				<title>Sheet.23130</title>
				<path d="M0 353.29 A3.46711 3.46711 -180 0 0 0.49 354.94 L0 353.29 Z" class="st1"/>
				<path d="M0 353.29 A3.46711 3.46711 -180 0 0 0.49 354.94" class="st2"/>
			</g>
			<g id="shape23131-671" transform="translate(23.9148,-35.188)">
				<title>Sheet.23131</title>
				<path d="M-0 354.94 A3.52318 3.52318 -180 0 0 0.57 352.97 L0 354.94 Z" class="st1"/>
				<path d="M-0 354.94 A3.52318 3.52318 -180 0 0 0.57 352.97" class="st2"/>
			</g>
			<g id="shape23132-674" transform="translate(-238.398,79.2967) rotate(-47.7865)">
				<title>Sheet.23132</title>
				<path d="M0 354.94 L1.39 354.94" class="st2"/>
			</g>
			<g id="shape23133-677" transform="translate(-126.501,494.935) rotate(-119.942)">
				<title>Sheet.23133</title>
				<path d="M0 354.94 L1.6 354.94" class="st2"/>
			</g>
			<g id="shape23134-680" transform="translate(-91.1279,694.452) rotate(-163.063)">
				<title>Sheet.23134</title>
				<path d="M0 354.94 L12.12 354.94" class="st2"/>
			</g>
			<g id="shape23135-683" transform="translate(12.2711,-0.0290343)">
				<title>Sheet.23135</title>
			</g>
			<g id="shape23136-684" transform="translate(0.680315,-3.5587)">
				<title>Sheet.23136</title>
				<path d="M0 354.94 L202.61 354.94" class="st2"/>
			</g>
			<g id="shape23137-687" transform="translate(-2.45928E-013,-3.5587)">
				<title>Sheet.23137</title>
				<path d="M0 354.26 a0.680315 0.680315 -180 0 0 0.680315 0.680315 L0 354.26 Z" class="st1"/>
				<path d="M0 354.26 a0.680315 0.680315 -180 0 0 0.680315 0.680315" class="st2"/>
			</g>
			<g id="shape23138-690" transform="translate(203.288,-3.5587)">
				<title>Sheet.23138</title>
				<path d="M-0 354.94 a0.680315 0.680315 -180 0 0 0.680315 -0.680315 L0 354.94 Z" class="st1"/>
				<path d="M-0 354.94 a0.680315 0.680315 -180 0 0 0.680315 -0.680315" class="st2"/>
			</g>
			<g id="shape23139-693" transform="translate(558.906,348.002) rotate(90)">
				<title>Sheet.23139</title>
				<path d="M0 354.94 L2.7 354.94" class="st2"/>
			</g>
			<g id="shape23140-696" transform="translate(354.938,348.002) rotate(90)">
				<title>Sheet.23140</title>
				<path d="M0 354.94 L2.7 354.94" class="st2"/>
			</g>
			<g id="shape23141-699" transform="translate(291.646,553.698) rotate(130.319)">
				<title>Sheet.23141</title>
				<path d="M0 354.94 L15.8 354.94" class="st2"/>
			</g>
			<g id="shape23142-702" transform="translate(21.0235,-30.8999)">
				<title>Sheet.23142</title>
				<path d="M0 354.94 A3.34859 3.34859 -180 0 0 0.81 353.08 L0 354.94 Z" class="st1"/>
				<path d="M0 354.94 A3.34859 3.34859 -180 0 0 0.81 353.08" class="st2"/>
			</g>
			<g id="shape23143-705" transform="translate(462.862,103.95) rotate(51.7331)">
				<title>Sheet.23143</title>
				<path d="M0 354.94 L15.68 354.94" class="st2"/>
			</g>
			<g id="shape23144-708" transform="translate(21.834,-32.7563)">
				<title>Sheet.23144</title>
				<path d="M0 354.94 L161.9 354.94" class="st2"/>
			</g>
			<g id="shape23145-711" transform="translate(183.732,-31.1656)">
				<title>Sheet.23145</title>
				<path d="M0 353.35 A3.46711 3.46711 -180 0 0 0.46 354.94 L0 353.35 Z" class="st1"/>
				<path d="M0 353.35 A3.46711 3.46711 -180 0 0 0.46 354.94" class="st2"/>
			</g>
			<g id="shape23146-714" transform="translate(31.8435,-31.7816)">
				<title>Sheet.23146</title>
				<path d="M0 354.94 L110.07 354.94" class="st2"/>
			</g>
			<g id="shape23147-717" transform="translate(145.421,-31.7816)">
				<title>Sheet.23147</title>
				<path d="M0 354.94 L27.86 354.94" class="st2"/>
			</g>
			<g id="shape23148-720" transform="translate(144.949,-31.0766)">
				<title>Sheet.23148</title>
				<path d="M0.47 354.23 a0.510236 0.510236 -180 0 0 -0.471621 0.704953 L0.47 354.23 Z" class="st1"/>
				<path d="M0.47 354.23 a0.510236 0.510236 -180 0 0 -0.471621 0.704953" class="st2"/>
			</g>
			<g id="shape23149-723" transform="translate(31.0159,-31.3581)">
				<title>Sheet.23149</title>
				<path d="M0.83 354.51 A1.02047 1.02047 -180 0 0 0 354.94 L0.83 354.51 Z" class="st1"/>
				<path d="M0.83 354.51 A1.02047 1.02047 -180 0 0 0 354.94" class="st2"/>
			</g>
			<g id="shape23150-726" transform="translate(468.113,124.734) rotate(55.9235)">
				<title>Sheet.23150</title>
				<path d="M0 354.94 L12.64 354.94" class="st2"/>
			</g>
			<g id="shape23151-729" transform="translate(173.276,-31.3329)">
				<title>Sheet.23151</title>
				<path d="M0.85 354.94 A1.02047 1.02047 -180 0 0 -0 354.49 L0.85 354.94 Z" class="st1"/>
				<path d="M0.85 354.94 A1.02047 1.02047 -180 0 0 -0 354.49" class="st2"/>
			</g>
			<g id="shape23152-732" transform="translate(180.921,-20.3334)">
				<title>Sheet.23152</title>
				<path d="M-0 354.94 a0.340157 0.340157 -180 0 0 0.281749 -0.530747 L0 354.94 Z" class="st1"/>
				<path d="M-0 354.94 a0.340157 0.340157 -180 0 0 0.281749 -0.530747" class="st2"/>
			</g>
			<g id="shape23153-735" transform="translate(318.89,531.207) rotate(125.801)">
				<title>Sheet.23153</title>
				<path d="M0 354.94 L12.93 354.94" class="st2"/>
			</g>
			<g id="shape23154-738" transform="translate(23.3909,-20.3334)">
				<title>Sheet.23154</title>
				<path d="M0.06 354.4 a0.340157 0.340157 -180 0 0 0.275887 0.539139 L0.06 354.4 Z" class="st1"/>
				<path d="M0.06 354.4 a0.340157 0.340157 -180 0 0 0.275887 0.539139" class="st2"/>
			</g>
			<g id="shape23155-741" transform="translate(23.7291,-20.3334)">
				<title>Sheet.23155</title>
				<path d="M0 354.94 L122.83 354.94" class="st2"/>
			</g>
			<g id="shape23156-744" transform="translate(150.067,-20.3334)">
				<title>Sheet.23156</title>
				<path d="M0 354.94 L30.85 354.94" class="st2"/>
			</g>
			<g id="shape23157-747" transform="translate(180.921,-19.6291)">
				<title>Sheet.23157</title>
			</g>
			<g id="shape23158-748" transform="translate(23.7291,-19.6291)">
				<title>Sheet.23158</title>
			</g>
			<g id="shape23159-749" transform="translate(23.7291,-19.2889)">
				<title>Sheet.23159</title>
				<path d="M0 354.94 L122.83 354.94" class="st2"/>
			</g>
			<g id="shape23160-752" transform="translate(150.067,-19.2889)">
				<title>Sheet.23160</title>
				<path d="M0 354.94 L30.85 354.94" class="st2"/>
			</g>
			<g id="shape23161-755" transform="translate(536.199,334.264) rotate(90)">
				<title>Sheet.23161</title>
				<path d="M0 354.94 L1.04 354.94" class="st2"/>
			</g>
			<g id="shape23162-758" transform="translate(378.327,334.264) rotate(90)">
				<title>Sheet.23162</title>
				<path d="M0 354.94 L1.04 354.94" class="st2"/>
			</g>
			<g id="shape23163-761" transform="translate(473.025,188.41) rotate(67.5659)">
				<title>Sheet.23163</title>
				<path d="M0 354.94 L10.94 354.94" class="st2"/>
			</g>
			<g id="shape23164-764" transform="translate(149.124,-20.3334)">
				<title>Sheet.23164</title>
				<path d="M0 354.31 A1.02047 1.02047 -180 0 0 0.94 354.94 L0 354.31 Z" class="st1"/>
				<path d="M0 354.31 A1.02047 1.02047 -180 0 0 0.94 354.94" class="st2"/>
			</g>
			<g id="shape23165-767" transform="translate(473.025,189.454) rotate(67.5659)">
				<title>Sheet.23165</title>
				<path d="M0 354.94 L10.94 354.94" class="st2"/>
			</g>
			<g id="shape23166-770" transform="translate(470.93,188.336) rotate(67.5659)">
				<title>Sheet.23166</title>
				<path d="M0 354.94 L10.94 354.94" class="st2"/>
			</g>
			<g id="shape23167-773" transform="translate(146.558,-20.3334)">
				<title>Sheet.23167</title>
				<path d="M0 354.94 a0.510236 0.510236 -180 0 0 0.471621 -0.704953 L0 354.94 Z" class="st1"/>
				<path d="M0 354.94 a0.510236 0.510236 -180 0 0 0.471621 -0.704953" class="st2"/>
			</g>
			<g id="shape23168-776" transform="translate(141.911,-31.1506)">
				<title>Sheet.23168</title>
				<path d="M0.94 354.94 A1.02047 1.02047 -180 0 0 -0 354.31 L0.94 354.94 Z" class="st1"/>
				<path d="M0.94 354.94 A1.02047 1.02047 -180 0 0 -0 354.31" class="st2"/>
			</g>
			<g id="shape23169-779" transform="translate(501.495,334.604) rotate(90)">
				<title>Sheet.23169</title>
				<path d="M0 354.94 L1.04 354.94" class="st2"/>
			</g>
			<g id="shape23170-782" transform="translate(146.558,-19.2889)">
				<title>Sheet.23170</title>
				<path d="M0 354.94 a0.510236 0.510236 -180 0 0 0.510236 -0.510236 L0 354.94 Z" class="st1"/>
				<path d="M0 354.94 a0.510236 0.510236 -180 0 0 0.510236 -0.510236" class="st2"/>
			</g>
			<g id="shape23171-785" transform="translate(-207.87,335.139) rotate(-90)">
				<title>Sheet.23171</title>
				<path d="M0 354.94 L1.04 354.94" class="st2"/>
			</g>
			<g id="shape23172-788" transform="translate(505.005,334.604) rotate(90)">
				<title>Sheet.23172</title>
				<path d="M0 354.94 L1.04 354.94" class="st2"/>
			</g>
			<g id="shape23173-791" transform="translate(149.124,-19.2889)">
				<title>Sheet.23173</title>
				<path d="M0 354.31 A1.02047 1.02047 -180 0 0 0.94 354.94 L0 354.31 Z" class="st1"/>
				<path d="M0 354.31 A1.02047 1.02047 -180 0 0 0.94 354.94" class="st2"/>
			</g>
			<g id="shape23174-794" transform="translate(504.062,333.973) rotate(90)">
				<title>Sheet.23174</title>
				<path d="M0 354.94 L1.04 354.94" class="st2"/>
			</g>
			<g id="shape23175-797" transform="translate(499.848,323.666) rotate(90)">
				<title>Sheet.23175</title>
				<path d="M0 354.94 L1.04 354.94" class="st2"/>
			</g>
			<g id="shape23176-800" transform="translate(145.421,-30.2269)">
				<title>Sheet.23176</title>
			</g>
			<g id="shape23177-801" transform="translate(535.859,334.604) rotate(90)">
				<title>Sheet.23177</title>
				<path d="M0 354.94 L1.04 354.94" class="st2"/>
			</g>
			<g id="shape23178-804" transform="translate(558.225,348.682) rotate(90)">
				<title>Sheet.23178</title>
				<path d="M0 354.94 L2.7 354.94" class="st2"/>
			</g>
			<g id="shape23179-807" transform="translate(355.618,348.682) rotate(90)">
				<title>Sheet.23179</title>
				<path d="M0 354.94 L2.7 354.94" class="st2"/>
			</g>
			<g id="shape23180-810" transform="translate(378.667,334.604) rotate(90)">
				<title>Sheet.23180</title>
				<path d="M0 354.94 L1.04 354.94" class="st2"/>
			</g>
		</g>
		<g id="shape23836-813" transform="translate(16.7002,-29.7078)">
			<title>Sheet.23836</title>
			<desc>CoAP Client</desc>
			<rect x="0" y="339.82" width="123.248" height="15.1181" class="st7"/>
			<text x="0" y="349.65" class="st8">CoAP Client</text>		</g>
		<g id="shape23837-816" transform="translate(16.7002,-78.4329)">
			<title>Sheet.23837</title>
			<desc>CoAP Temperature server</desc>
			<rect x="0" y="339.82" width="197.596" height="15.1181" class="st7"/>
			<text x="0" y="349.65" class="st8">CoAP Temperature server</text>		</g>
		<g id="shape23838-819" transform="translate(8.10764,-67.1384)">
			<title>Sheet.23838</title>
			<path d="M0 315.34 L209.33 315.34 L209.33 354.94 L0 354.94 L0 315.34 Z" class="st3"/>
		</g>
		<g id="shape23839-821" transform="translate(8.10764,-18.4257)">
			<title>Sheet.23839</title>
			<path d="M0 315.34 L209.33 315.34 L209.33 354.94 L0 354.94 L0 315.34 Z" class="st3"/>
		</g>
		<g id="shape23840-823" transform="translate(0,-9.62588)">
			<title>Sheet.23840</title>
			<path d="M0 248.63 L225.81 248.63 L225.81 354.94 L0 354.94 L0 248.63 Z" class="st3"/>
		</g>
		<g id="shape23841-825" transform="translate(152.939,-49.5221)">
			<title>Sheet.23841</title>
			<desc>Button 1</desc>
			<rect x="0" y="349.268" width="24.2894" height="5.66929" class="st7"/>
			<text x="2.15" y="354.65" class="st9">Button 1</text>		</g>
		<g id="shape23842-828" transform="translate(184.937,-49.5221)">
			<title>Sheet.23842</title>
			<desc>Button 2</desc>
			<rect x="0" y="349.268" width="24.2894" height="5.66929" class="st7"/>
			<text x="2.15" y="354.65" class="st9">Button 2</text>		</g>
		<g id="shape23843-831" transform="translate(946.109,-78.4329)">
			<title>Sheet.23843</title>
			<desc>CoAP Light server</desc>
			<rect x="0" y="339.82" width="197.596" height="15.1181" class="st7"/>
			<text x="0" y="349.65" class="st10">CoAP Light server</text>		</g>
		<g id="shape23844-834" transform="translate(931.272,-17.5753)">
			<title>Sheet.23844</title>
			<path d="M0 284.16 L0 265.77 L209.33 265.77 L209.33 354.94 L0 354.94 L0 286.99 L0 286.99 L0 284.16 Z" class="st1"/>
			<path d="M0 284.16 L0 265.77 L209.33 265.77 L209.33 354.94 L0 354.94 L0 286.99 L0 286.99" class="st11"/>
		</g>
		<g id="shape23845-837" transform="translate(923.164,-9.62588)">
			<title>Sheet.23845</title>
			<path d="M0 276.21 L0 248.63 L225.81 248.63 L225.81 354.94 L0 354.94 L0 279.04 L0 279.04 L0 276.21 Z" class="st1"/>
			<path d="M0 276.21 L0 248.63 L225.81 248.63 L225.81 354.94 L0 354.94 L0 279.04 L0 279.04" class="st11"/>
		</g>
		<g id="shape23846-840" transform="translate(1076.1,-62.845)">
			<title>Sheet.23846</title>
			<desc>Light 1</desc>
			<rect x="0" y="349.268" width="24.2894" height="5.66929" class="st7"/>
			<text x="4.45" y="354.65" class="st12">Light 1</text>		</g>
		<g id="shape23847-843" transform="translate(1108.1,-62.845)">
			<title>Sheet.23847</title>
			<desc>Light 2</desc>
			<rect x="0" y="349.268" width="24.2894" height="5.66929" class="st7"/>
			<text x="4.45" y="354.65" class="st12">Light 2</text>		</g>
		<g id="shape23848-846" transform="translate(473.795,-54.5177)">
			<title>Sheet.23848</title>
			<desc>Internet</desc>
			<rect x="0" y="332.261" width="197.596" height="22.6772" class="st7"/>
			<text x="61.19" y="350.4" class="st13">Internet</text>		</g>
		<g id="shape23849-849" transform="translate(280.957,-9.62588)">
			<title>Sheet.23849</title>
			<path d="M0 248.63 L69.26 248.63 L69.26 354.94 L0 354.94 L0 248.63 Z" class="st3"/>
		</g>
		<g id="shape23850-851" transform="translate(216.367,-59.6827)">
			<title>Sheet.23850</title>
			<desc>BLE enabled router</desc>
			<rect x="0" y="343.599" width="197.596" height="11.3386" class="st7"/>
			<text x="90.56" y="339.06" class="st14">BLE <tspan x="80.2" dy="1.2em" class="st15">enabled </tspan><tspan x="84.16"
						dy="1.2em" class="st15">router</tspan></text>		</g>
		<g id="shape23851-856" transform="translate(798.761,-9.62588)">
			<title>Sheet.23851</title>
			<path d="M0 279.04 L0 354.94 L69.26 354.94 L69.26 279.04 L69.26 279.04 L0 279.04 Z" class="st1"/>
			<path d="M0 279.04 L0 354.94 L69.26 354.94 L69.26 279.04 L69.26 279.04" class="st11"/>
		</g>
		<g id="shape23852-859" transform="translate(734.171,-59.6827)">
			<title>Sheet.23852</title>
			<desc>BLE enabled router</desc>
			<rect x="0" y="343.599" width="197.596" height="11.3386" class="st7"/>
			<text x="90.56" y="339.06" class="st16">BLE <tspan x="80.2" dy="1.2em" class="st15">enabled </tspan><tspan x="84.16"
						dy="1.2em" class="st15">router</tspan></text>		</g>
		<g id="shape23853-864" transform="translate(335.833,-69.2306)">
			<title>Sheet.23853</title>
			<desc>UDP/IPv6</desc>
			<rect x="0" y="343.599" width="135.084" height="11.3386" class="st7"/>
			<text x="45.51" y="354.37" class="st14">UDP/IPv6</text>		</g>
		<g id="shape23854-867" transform="translate(938.972,117.534) rotate(90)">
			<title>Sheet.23854</title>
			<desc>UDP/IPv6</desc>
			<rect x="0" y="343.599" width="135.084" height="11.3386" class="st7"/>
			<text x="45.51" y="354.37" class="st16">UDP/IPv6</text>		</g>
		<g id="shape23855-870" transform="translate(678.189,-69.2306)">
			<title>Sheet.23855</title>
			<desc>UDP/IPv6</desc>
			<rect x="0" y="343.599" width="135.084" height="11.3386" class="st7"/>
			<text x="45.51" y="354.37" class="st16">UDP/IPv6</text>		</g>
		<g id="shape23876-873" transform="translate(611.154,-118.545)">
			<title>Sheet.23876</title>
			<path d="M0 349.76 C2.95 351.12 5.59 352.96 8.15 354.94 L0 349.76 Z" class="st1"/>
			<path d="M0 349.76 C2.95 351.12 5.59 352.96 8.15 354.94" class="st2"/>
		</g>
		<g id="shape23877-876" transform="translate(676.398,-73.9621)">
			<title>Sheet.23877</title>
			<path d="M9.23 343.38 C9.13 344.01 8.98 344.64 8.79 345.27 C7.95 348.07 6.27 350.71 4.06 352.54 C2.84 353.55 1.47 354.31
						 0 354.94 L9.23 343.38 Z" class="st1"/>
			<path d="M9.23 343.38 C9.13 344.01 8.98 344.64 8.79 345.27 C7.95 348.07 6.27 350.71 4.06 352.54 C2.84 353.55 1.47 354.31
						 0 354.94" class="st2"/>
		</g>
		<g id="shape23878-879" transform="translate(798.761,-88.3562)">
			<title>Sheet.23878</title>
			<path d="M69.26 354.94 L69.26 327.36 L0 327.36 L0 354.94 L0 354.94 L69.26 354.94 Z" class="st1"/>
			<path d="M69.26 354.94 L69.26 327.36 L0 327.36 L0 354.94 L0 354.94" class="st11"/>
		</g>
		<g id="shape23889-882" transform="translate(477.217,-321.163)">
			<title>Sheet.23889</title>
			<desc>CoAP Client</desc>
			<rect x="0" y="339.82" width="197.596" height="15.1181" class="st7"/>
			<text x="63.03" y="349.65" class="st10">CoAP Client</text>		</g>
		<g id="shape24157-885" transform="translate(185.907,-72.2014)">
			<title>Sheet.24157</title>
			<desc>BLE 6lowpan</desc>
			<rect x="0" y="347.379" width="135.084" height="7.55906" class="st7"/>
			<text x="47.94" y="354.56" class="st17">BLE 6lowpan</text>		</g>
		<g id="shape24158-888" transform="translate(828.114,-72.2014)">
			<title>Sheet.24158</title>
			<desc>BLE 6lowpan</desc>
			<rect x="0" y="347.379" width="135.084" height="7.55906" class="st7"/>
			<text x="47.94" y="354.56" class="st18">BLE 6lowpan</text>		</g>
	</g>
</svg>
