<svg xmlns="http://www.w3.org/2000/svg" width="760.91" height="436.91" viewBox="0 0 760.91248 436.91125" xmlns:xlink="http://www.w3.org/1999/xlink"><defs><path id="1" d="m0 0v44.16" stroke-linejoin="round" stroke="#000" fill="none" stroke-linecap="round" stroke-miterlimit="10"/><path id="2" d="m0 0h-103.44" stroke-linejoin="round" stroke="#000" fill="none" stroke-linecap="round" stroke-miterlimit="10"/><path id="3" d="m0 0l.12-.24v-.12l.06-.3.06 1.68-.24.24" fill-rule="evenodd"/><path id="4" d="m0 0v-.06c.048-.616.224-1.257.72-1.68l.18-.18v3.72-.06c-.451-.476-.577-.618-.84-1.2v-.3" fill-rule="evenodd"/><path id="5" d="m0 0l.06-.24c.27-.506.382-1.107.36-1.68l.12-2.28.18.24.18.18c.513.918.414 1.277.42 2.28l-.06.24v.18l-.06.24-.06.24-.12.24-.06.24-.12.18-.06.06-.12.06h-.42l-.12-.06h-.12" fill-rule="evenodd"/><path id="6" d="m0 0v-.12l.06-.3.18-.36.36-.36.12-.18.24-.12.24-.18.06 1.02-.18.18v.06l-.06.24-.06.96h-.24c-.442-.012-.483.116-.66-.42l-.06-.24" fill-rule="evenodd"/><path id="7" d="m0 0v-2.04.06c.074.957.626 1.456 1.56 1.5h.3v-4.26l.3-.06c.861-.024 1.747.063 2.46.6l.24.18-.12 2.28v-.18c.04-1.067-.783-1.758-1.8-1.74h-.3v3.9l-.12.24-.12.06-.24.06h-.78l-.72-.18-.48-.24" fill-rule="evenodd"/><path id="8" d="m0 0v-.24l.06-.18.06-.06h6.06l.06.12v.12l.06.3-.06.24v.18l-.06.06-.12.06h-3.84c-.399.239-.505.291-.84.6l-.18.18-.06.12-.06-1.02h-.96l-.12-.24" fill-rule="evenodd"/><path id="9" d="m0 0l.06-.06c2.768-1.557 7.261.082 4.86 3.48l-.18.18-.06-1.68-.06-.24c-.123-.761-1.091-1.207-1.8-1.14l-.24-.06h-.24c-.737-.013-1.838.197-2.16.96l-.12.3v.24" fill-rule="evenodd"/><path id="A" d="m0 0l.06-.96.06.3.06.18.06.18v.24h-.12" fill-rule="evenodd"/><path id="B" d="m0 0v-1.92l.06-.12.18-.06h3.9v.06h.06v.48h-.06v.06h-1.8v1.5h-.06l-.06.06h-.18l-.12-.06v-1.5h-1.44v1.56l-.06.06h-.36l-.06-.06" fill-rule="evenodd"/><path id="C" d="m0 0l.06-.06v-.42h-.06v-.06h-4.38l-.06.06v.48h4.44" fill-rule="evenodd"/><path id="D" d="m0 0v-.06l.06-.06v-.24.48l-.06-.06" fill-rule="evenodd"/><path id="E" d="m0 0v-.12l.06-.12.06-.06h.66v-.36l.06-.06v-.06h.36l.06.12v.36h1.74l.18.06h.24l.06.06.24.12h.06l.06.12.06.12v.12l.06.12v.3l-.06.18v.06l-.06.12h-.12l-.12.06h-.12v-.48c.051-.352-.349-.421-.6-.42h-1.62v.78l-.06.06-.18.06h-.12l-.06-.06-.06-.06v-.78h-.72v-.06l-.06-.06" fill-rule="evenodd"/><path id="F" d="m0 0l.06-.12v-.18l.06.78-.12.12" fill-rule="evenodd"/><path id="G" d="m0 0v-.18l.06-.12.12-.06h.36l.12.06.06.12v.36l-.06.06-.12.06-.18.06h-.06l-.24-.12-.06-.06v-.06" fill-rule="evenodd"/><path id="H" d="m0 0l.48-.6h3.24v-.96h.36l.06.06v2.28l-.06.06h-.36v-.84" fill-rule="evenodd"/><path id="I" d="m0 0v-.06h.12l.12-.06.06.06-.06 1.02v-.36l-.06-.06v-.12l-.06-.12v-.06l-.06-.12" fill-rule="evenodd"/><path id="J" d="m0 0v-.36l.06-.18v.9-.12l-.06-.12" fill-rule="evenodd"/><path id="K" d="m0 0v-.06l.06-.06v-.12l.6-.96.06-.06h.12l.06-.06.18.06h.06v.06l-.06.12-.48.78-.48.6-.06-.06-.06-.12" fill-rule="evenodd"/><path id="L" d="m0 0v-.06l.06-.12.06-.12.12-.06h.36l.06.06.06.12.06.06v.12l-.06.18-.12.12h-.06l-.12.06h-.06l-.24-.12-.06-.06-.06-.06" fill-rule="evenodd"/><path id="M" d="m0 0v-.12l.06-.12.06-.06h2.94v.06h.06v.42l-.06.06h-3v-.06l-.06-.06" fill-rule="evenodd"/><path id="N" d="m0 0v-1.02l.06.18v.12l.06.12.06.06.06.12h.06l.36.18h.24v-1.62l.06-.54h.12c.431-.037.982.086 1.32.36v1.14-.06c-.043-.647-.389-.78-.96-.9h-.12v1.98l-.06.12h-.06l-.12.06h-.36l-.12-.06h-.12l-.36-.18" fill-rule="evenodd"/><path id="O" d="m0 0l.06-.18v-.12l.06.78-.06.06" fill-rule="evenodd"/><path id="P" d="m0 0l.12-.06h.12l.06.06h.06v.06l-.06.12-.06.06-.06.12v.06l-.06.12-.06.12v.36" fill-rule="evenodd"/><path id="Q" d="m0 0l.06-.12.06.54-.06.12-.06.12v.12" fill-rule="evenodd"/><path id="R" d="m0 0l.06-.12c.027-.211.122-.534.3-.66l.12-.12v.96l.06.12.06.06.12.12.24.12h2.16v.06h.06v.42l-.06.06h-2.22l-.12-.06h-.18l-.12-.06-.12-.12-.06-.06-.12-.12-.06-.12-.06-.12v-.24" fill-rule="evenodd"/><path id="S" d="m0 0v-.96.18l.06.12.06.06v.66" fill-rule="evenodd"/><path id="T" d="m0 0v-1.02l.06.18v.12l.06.12.06.06.06.12h.06l.36.18h.24v-1.62l.06-.54h.12c.431-.037.982.086 1.32.36v1.14-.06c-.043-.647-.389-.78-.96-.9h-.12v1.98l-.06.12h-.06l-.12.06h-.36l-.12-.06h-.12l-.12-.06-.24-.12" fill-rule="evenodd"/><path id="U" d="m0 0l.12.06v-.06l.06-.06v-.36l-.06-.06h-.06l-5.4-1.98h-.12v.48l.06.06 5.4 1.92" fill-rule="evenodd"/><path id="V" d="m0 0v-.06h.06l.06-.06c.288-.047.587.252.54.54l.06.12v.18c.015.312-.069.693-.24.96l-.06.06-.12.06v-1.14l-.06-.12-.06-.18v-.06l-.06-.12-.06-.06" fill-rule="evenodd"/><path id="W" d="m0 0v-.06l.06-.12v-.12l.06-.12v-.18l.12-.12.06-.06.06-.12.12-.12c.369-.382.444-.145.66-.3h.12l.12-.06-.06.54h-.06l-.12.06h-.12l-.06.06-.24.12-.06.06-.06.06-.06.12-.06.12v.12l-.06.12v1.02l-.06-.06c-.123-.211-.321-.393-.3-.66v-.12" fill-rule="evenodd"/><path id="X" d="m0 0v-.12l.06-.06v-.06h3v.06h.06v.42l-.06.06h-1.92l-.12.06-.18.18h-.06l-.06.06-.12.12-.06.06v-.54h-.48l-.06-.12" fill-rule="evenodd"/><path id="Y" d="m0 0l.06-.78.06.18v.18l.06.12v.06l.12.12v.12h-.18" fill-rule="evenodd"/><path id="Z" d="m0 0l.06-.18v-.12c.02-.345.206-.669.48-.9l.12-.06.06-.06c.473-.223.867-.183 1.38-.18l.12.06h.12v.06h.18l.12.06.18.18-.06 1.08v-.3l-.12-.24-.12-.06-.06-.12-.24-.12h-.18l-.12-.06h-.36c-.439.02-1.073.247-1.08.78v.12l-.06 1.14v-.06c-.228-.182-.367-.496-.36-.78v-.12" fill-rule="evenodd"/><path id="a" d="m0 0l.06-.12v-.06l.12-.24v-.24l.06-.12v-1.32l.12.12c.192.371.184.346.3.72v.54l-.06.12v.18l-.06.12v.12l-.06.12-.06.12h-.06v.06h-.3l-.06-.06" fill-rule="evenodd"/><path id="b" d="m0 0l.06-.48v.12l.06.12v.18l-.06.06" fill-rule="evenodd"/><path id="c" d="m0 0l.06-.12v-.06l.12-.24v-.24l.06-.12v-1.32l.06.06.06.06c.192.37.184.347.3.72v.54l-.06.12v.18l-.06.12v.12l-.06.12-.06.12h-.06v.06h-.3l-.06-.06" fill-rule="evenodd"/><path id="d" d="m0 0h-10.14" stroke-linejoin="round" stroke="#000" stroke-width=".24" fill="none" stroke-linecap="round" stroke-miterlimit="10"/><path id="e" d="m0 0l3.12 2.88" stroke-linejoin="round" stroke="#000" stroke-width=".42" fill="none" stroke-linecap="round" stroke-miterlimit="10"/><path id="f" d="m0 0l2.46 3.48" stroke-linejoin="round" stroke="#000" stroke-width=".42" fill="none" stroke-linecap="round" stroke-miterlimit="10"/><clipPath id="0"><path d="m117.82 132.87h349.53v608.73h-349.53v-608.73"/></clipPath></defs><g transform="matrix(0 1.25 1.25 0-166.09-147.27)" clip-path="url(#0)"><g transform="translate(220.44 514.91)" fill="none" stroke="#000" stroke-linejoin="round" stroke-linecap="round" stroke-width=".72" stroke-miterlimit="10"><path d="m0 0l-5.22-.24-2.64.06c-10.221.797-18.318 6.271-22.56 15.66l-1.02 2.52-.9 2.52c-3.257 10.853-4.075 23.32 1.32 33.66l1.2 2.28 2.7 4.56"/><g transform="translate(-31.32 53.52)"><path d="m0 0l-2.34 2.22-2.16 2.34c-3.711 4.083-5.303 9.01-6.24 14.34l-.36 3.3-.18 3.3c-.009 5.431.303 10.908 2.52 15.96l1.44 2.76 1.86 2.58"/><g transform="translate(-1.74 43.98)"><path d="m0 0l-2.46 1.86c-13.04 8.678-13.304 26.894-4.5 38.52l1.8 2.46"/><g transform="translate(-1.56 37.86)"><path d="m0 0l-2.34 3.12-2.16 3.24c-4.767 6.965-7.479 15.599-6.42 24.06l.3 1.98.48 1.98c1.681 6.03 4.734 10.376 10.26 13.44l3.54 1.68 3.78 1.5"/><g transform="translate(7.56 49.5)"><path d="m0 0l-.12 1.56-.06 1.2c-.349 6.497 2.042 12.983 8.04 16.2l1.44.78 3 1.2c7.247 2.442 15.237.98 19.68-5.64l.78-1.32.66-1.38"/><g transform="translate(26.94 19.98)"><path d="m0 0l2.94 2.52c18.384 14.327 36.418-3.892 37.62-23.22v-1.86"/><g transform="translate(21.6-40.02)"><path d="m0 0l2.58 5.1 1.5 2.4c5.731 9.519 20.507 14.21 29.46 6.36l2.1-1.92 1.92-2.22c7.573-9.543 8.213-23.98 6-35.46l-.78-2.7-1.02-2.58"/><g transform="translate(34.56-28.38)"><path d="m0 0l2.7-.84 2.64-.96c11.375-4.162 16.576-14.663 18.36-25.98l.36-2.82.24-2.76c.284-9.819-2.303-26.926-10.26-33.66l-2.1-1.74-4.56-3.18"/><g transform="translate(13.86-67.2)"><path d="m0 0l2.28-6.84c1.756-5.799 2.841-11.8 2.58-17.88l-.24-3.6"/><g transform="translate(2.46-38.46)"><path d="m0 0l-1.14-2.88c-2.135-5.359-6.273-10.782-10.86-14.28l-2.46-1.68"/><g transform="translate(-14.76-14.16)"><path d="m0 0l.18-2.76c.366-5.542.053-11.953-1.8-17.22l-1.02-2.7"/><g transform="translate(-11.16-30.9)"><path d="m0 0l-2.46-.78c-5.201-1.068-10.163-.929-14.52 2.34l-1.98 1.56"/><path d="m0 0l-.78-3.78-1.02-3.78c-1.779-6.435-5.81-14.372-12.72-16.5l-1.92-.42-1.98-.06c-8.437.75-12.09 7.184-14.58 14.46l-1.14 3.78-1.02 3.78" transform="translate(-14.94 16.62)"/></g></g></g></g></g></g></g></g></g></g></g></g><path d="m0 0l.18-.06.12-.18.12-.36v-1.08l-.12-.36-.12-.18-.18-.06h-16.2l-.18.12-.12.18-.12.36v1.02l.12.36.12.18.18.06h16.2" fill-rule="evenodd" transform="translate(242.94 567.89)"/><path d="m0 0l.42-.42.24 2.04-.3.48-.12.54-.06.48" fill-rule="evenodd" transform="translate(232.32 574.55)" id="g"/><path d="m0 0v-.48l.06-.3.18-.18.18-.06h11.76l.12.06.18.18.06.3v1.08l-.06.36-.18.12-.12.06h-8.22l-.3.24-.42.36-.36.36-.36.42-.3.36-.06.12-.24-2.04h-1.5l-.18-.06-.18-.12-.06-.3" fill-rule="evenodd" transform="translate(230.82 573.17)" id="h"/><path d="m0 0v-.48c.304-1.54.469-1.461 1.32-2.7l.36-.36.18 3.12v.06l.06.54c.23.92 1.022 1.536 1.92 1.74l.48.06.54.06h7.5l.12.06.18.18.06.3v1.08l-.06.3-.18.18-.12.06h-7.86l-.54-.06-.96-.12-.12-.06-.54-.18c-.852-.364-1.567-.946-1.98-1.8l-.12-.36-.18-.48-.06-.54" fill-rule="evenodd" transform="translate(230.64 578.09)"/><path d="m0 0l.06-.24.12-.3.12-.42.06-.54.06 1.8-.24-.06-.18-.12" fill-rule="evenodd" transform="translate(241.32 592.07)" id="i"/><g fill-rule="evenodd"><path d="m0 0l.06-.54.06-.3.12-.18.18-.06h2.82v-1.62l.06-.18.12-.18.3-.06.42-.06h.24l.42.12.24.3v1.68h7.08c1.416-.041 3.01.381 3.54 1.86l.12.48.06.54.06.54v.06l-.06.54v.06l-.12.54-.12.48-.18.3-.36.12-.06.06h-.9l-.06-1.8c.049-1.421-1.363-1.65-2.46-1.62h-6.54v3l-.24.3-.12.06-.54.06h-.42l-.3-.12-.12-.12-.06-.18v-3h-2.82l-.18-.06-.12-.18-.06-.3v-.06" transform="translate(227.64 587.87)"/><path d="m0 0l.12-.42c.458-.944.851-2.371.78-3.42l.12-4.62.48.48c1.069 1.41 1.291 3.266 1.08 4.98l-.06.54-.06.24-.12.54-.24.96-.18.42-.24.48-.12.12-.18.06h-.96l-.24-.06-.12-.12" transform="translate(240.9 604.43)"/></g><path d="m0 0l.06-4.02v.06c.045 1.885 1.176 2.889 3 3h.6v-6.42l.12-2.16.54-.06c1.857-.017 3.909.18 5.34 1.5l-.12 4.62v-.3c-.197-2.461-1.337-3.374-3.72-3.54l-.54-.06v7.92l-.24.42-.18.18-.54.12h-.48l-1.08-.12-.48-.06-.54-.12-.42-.18-.48-.18-.42-.3" fill-rule="evenodd" transform="translate(232.26 604.07)" id="j"/><path d="m0 0v-.3c.093-2.945 2.083-4.681 4.86-5.22l.54-.06-.12 2.16-.36.06c-1.841.199-3.278 1.323-3.24 3.3l-.06 4.02-.3-.24c-.846-.915-.996-1.411-1.26-2.58l-.06-.54" fill-rule="evenodd" transform="translate(230.64 600.11)" id="k"/><g fill-rule="evenodd"><path d="m0 0l.24-1.86.06.48.06.48.12.3.06.24-.06.18-.18.12" transform="translate(232.44 615.47)"/><path d="m0 0v-.48l.06-.3.18-.18.18-.06h11.76l.12.06.18.18.06.3v1.08l-.06.36-.18.12-.12.06h-7.74l-.42.24-.84.6v.06l-.42.36-.36.3-.18.24-.12-1.98h-1.68l-.18-.06-.18-.12-.06-.3" transform="translate(230.82 609.59)"/><path d="m0 0v-.18c-.017-1.19.99-1.986 1.8-2.7l.48-.3.12 1.98-.24.42-.06.12-.06.54-.24 1.86h-.96l-.24-.06h-.18l-.12-.12-.12-.3-.12-.42-.06-.42" transform="translate(230.64 613.73)"/></g><use transform="translate(0 45.72)" xlink:href="#g"/><use transform="translate(0 45.72)" xlink:href="#h"/><g fill-rule="evenodd"><path d="m0 0v-.48c.304-1.54.469-1.46 1.32-2.7l.36-.36.18 3.12v.06l.06.54c.23.919 1.023 1.536 1.92 1.74l.48.06.54.06h7.5l.12.06.18.18.06.3v1.08l-.06.3-.18.18-.12.06h-7.86l-.54-.06-.96-.12-.12-.06-.54-.18c-.852-.364-1.567-.946-1.98-1.8l-.12-.36-.18-.48-.06-.54" transform="translate(230.64 623.81)"/><path d="m0 0l.12-.42c.458-.944.851-2.371.78-3.42l.12-4.62.48.48c1.069 1.41 1.291 3.266 1.08 4.98l-.06.54-.06.24-.12.54-.12.48-.12.48-.18.42-.24.48-.12.12-.18.06h-.96l-.24-.06-.12-.12" transform="translate(240.9 641.09)"/></g><use transform="translate(0 36.66)" xlink:href="#j"/><use transform="translate(0 36.661)" xlink:href="#k"/><use transform="translate(0 58.92)" xlink:href="#i"/><path d="m0 0l.06-.54.06-.3.12-.18.18-.06h2.82v-1.62l.06-.18.12-.18.3-.06.42-.06h.24l.42.12.24.3v1.68h7.08c1.416-.041 3.01.381 3.54 1.86l.12.48.06.54.06.54v.06l-.06.54v.06l-.12.54-.12.48-.18.3-.36.12-.06.06h-.9l-.06-1.8c.049-1.421-1.364-1.65-2.46-1.62h-6.54v3l-.24.3-.12.06-.54.06h-.42l-.3-.12-.12-.12-.06-.18v-3h-2.82l-.18-.06-.12-.18-.06-.3v-.06" fill-rule="evenodd" transform="translate(227.64 646.79)"/><g transform="translate(393.9 238.01)"><path d="m0 0h4.2" fill="none" stroke="#000" stroke-linejoin="round" stroke-linecap="round" stroke-width=".42" stroke-miterlimit="10" id="1d"/><g transform="translate(12.72)"><path d="m0 0h4.26" fill="none" stroke="#000" stroke-linejoin="round" stroke-linecap="round" stroke-width=".42" stroke-miterlimit="10" id="1e"/><g transform="translate(-12.72)"><path d="M 0,0 8.46,-17.04 16.98,0" fill="none" stroke="#000" stroke-linejoin="round" stroke-linecap="round" stroke-width=".42" stroke-miterlimit="10"/><g transform="translate(4.2)"><path d="m0 0v94.14" fill="none" stroke="#000" stroke-linejoin="round" stroke-linecap="round" stroke-width=".42" stroke-miterlimit="10"/><g transform="translate(8.52 94.14)"><path d="m0 0v-94.14" fill="none" stroke="#000" stroke-linejoin="round" stroke-linecap="round" stroke-width=".42" stroke-miterlimit="10"/><g transform="translate(-12.72)"><use xlink:href="#1d"/><g transform="translate(12.72)"><use xlink:href="#1e"/><path d="M 0,0 8.46,17.04 16.98,0" fill="none" stroke="#000" stroke-linejoin="round" stroke-linecap="round" stroke-width=".42" stroke-miterlimit="10" transform="translate(-12.72)"/></g></g></g></g></g></g></g><g fill-rule="evenodd"><path d="m0 0l.06-1.68v.42l.06.12v.12l.12.12.06.18h.06c.226.309.613.315.96.3l.18-.06v-.06l.18-.06c.235-.242.367-.545.36-.9v-1.08 2.58l-.18.18-.36.12-.12.06h-.54l-.18-.06h-.18l-.12-.06-.12-.12-.12-.06" transform="translate(391.32 262.79)"/><path d="m0 0l.12-1.5v.36l.06.12.06.18.24.24.12.06.06.06h.48l.36-.12.12-.06.12-.18.12-.12v-.12l.06-.18v-1.02l.06 2.04c-.275.487-1.167.697-1.68.42l-.18-.06" transform="translate(388.86 262.49)"/><path d="m0 0v-1.26h.06l.06-.18.06-.06.18-.06h4.98l.24.12.06.18v1.86c-.091.354-.152.754-.42 1.02l-.18.18v-2.58h-1.98v.9l-.06 1.68-.12-.18-.06-.12-.06-.12-.06-.12-.06-.18-.12.18-.06-2.04h-1.8v.78l-.12 1.5-.3-.3-.06-.18-.06-.18v-.12l-.06-.12v-.36" transform="translate(388.32 260.99)"/></g><path d="m0 0v-.18l.06-.12v-.06l.06-.06h5.22l.24.12.06.18v2.58h-.06l-.12.06h-.3l-.12-.06-.06-.12v-1.98h-4.92v-.06l-.06-.12" fill-rule="evenodd" transform="translate(388.32 264.71)" id="l"/><g fill-rule="evenodd"><path d="m0 0v-2.64h.06l.06-.18.06-.06.18-.06h4.98l.24.12.06.18v2.76l-.06.06h-.48l-.06-.06v-2.28h-2.04v1.92l-.12.12h-.3l-.12-.06-.06-.06v-1.92h-1.74v2.28h-.06l-.12.06h-.3l-.06-.06h-.06" transform="translate(388.32 270.95)"/><path d="m0 0h.36c.24 0 .48 0 .72 0l.18.06h.18l.18.06h.18l.18.06.18.12.12.06.18.06-.06 1.44v-.18c-.012-.863-1.131-.882-1.74-.96h-.18l-.06.12-.12.12-.06.12-.06.18v.12l-.06.18v.18l-.06.18" transform="translate(391.02 274.13)"/><path d="m0 0v-.42l.06-.18.06-.18v-.12l.12-.18v-.06l.12-.18v2.52l-.06-.12-.12-.12-.06-.18-.06-.06v-.18l-.06-.18v-.18" transform="translate(390.54 276.17)"/><path d="m0 0l.24-.24.18-.12.12-.06.9-.3h.18l.18-.06h.36l.06 1.92.06.12c-.056.516.395.925.9.84l.18.06h.12l.12-.06h.18l.24-.12.18-.12.3-.3v-.12l.06-.18v-.18l.06-1.44.24.24.06.18.12.12.06.18v.12l.06.12v.54c-.072.558-.009.56-.3 1.02l-.24.24-.18.12c-.593.501-1.733.479-2.34 0l-.06-.06v-2.52h-.06c-.939.097-1.788.321-1.98 1.38v.18" transform="translate(388.86 274.91)"/><path d="m0 0v-.18c.027-.476.226-.919.48-1.32l.12-.06v1.74l.06.12v.12l.06.18v.06l.06.12v.24h-.06l-.06.06h-.18l-.06-.06h-.18v-.06l-.06-.12-.06-.06-.06-.18v-.12l-.06-.18v-.12" transform="translate(388.26 276.47)"/></g><use transform="translate(0 14.64)" xlink:href="#l"/><g fill-rule="evenodd"><path d="m0 0l.06-1.5v.06c-.108 1.328 2.249 1.451 2.88.66l.06-.18h.06l.06-.18v-.36l.06-1.5v.06l.24.24c.246.299.271.58.3.96v.42c.011.315-.115.628-.24.9l-.54.54-.36.12-.12.06-.36.12h-.36l-.18.06-.18-.06h-.36l-.18-.06h-.18l-.06-.06-.12-.06-.18-.06-.18-.12" transform="translate(390.3 285.77)"/><path d="m0 0v-.42l.06-.18.06-.12.06-.18v-.06l.06-.18.12-.12.42-.42.54-.18.12-.06c.469-.119 1.567-.116 1.98.18l.18.12.12.06-.06 1.5v-.06c.082-1.569-3.189-1.557-3.06.06l-.06 1.5v-.06c-.33-.267-.428-.63-.54-1.02v-.18" transform="translate(389.76 284.33)"/><path d="m0 0l4.68-1.2.6-.54h.12l.06.12v.78l-.06.06-.12.06-4.2 1.08" transform="translate(388.5 290.21)"/><path d="m0 0v-.24l.06-.12v-.06h.12l1.08.36 4.2 1.2-.6.54-4.68-1.32h-.12v-.06l-.06-.12" transform="translate(388.32 290.63)"/><path d="m0 0v-.18l.06-.12v-.06h.12l4.68-1.26.6-.54h.12l.06.12v.78l-.06.06-.12.06-5.16 1.5h-.24l-.06-.12v-.06" transform="translate(388.32 293.93)"/><path d="m0 0v-.24l.06-.12.06-.06.18.06 5.16 1.5-.6.54-4.68-1.26-.12-.06v-.06l-.06-.12" transform="translate(388.32 287.33)"/><path d="m0 0v-1.68.48l.06.18.12.12.06.12.24.24h.06l.36.12h.3l.18-.06h.18l.06-.06.18-.06.12-.12.06-.06.06-.18.12-.18.06-.18v-1.02l.12 2.16-.24.24-.18.06-.12.12h-.06l-.18.06h-.18l-.18.06c-.456-.008-.301.053-.78-.12l-.18-.06-.12-.06" transform="translate(388.98 298.37)"/><path d="m0 0v-1.2h.06l.06-.18.06-.06.18-.06h5.16l.06.06.06.06v.6l-.06.06h-2.1v.6c.049.496-.075 1.035-.36 1.44l-.12.12-.12-2.16h-2.22v2.34l-.18-.12c-.234-.325-.407-.732-.42-1.14v-.18" transform="translate(388.32 296.75)"/><path d="m0 0l.6-.54 2.82 1.02v-1.98l.54 2.16 1.38.48h.06l.06.06v.72h-.12l-.12-.06" transform="translate(388.5 302.15)"/><path d="m0 0v-.24l.06-.12v-.12h.12l5.22-1.92h.24v.66l-.06.06h-.06l-1.38.48v2.34l-.54-2.16-2.82.96-.6.54-.12-.06v-.06l-.06-.18" transform="translate(388.32 301.67)"/><path d="m0 0l.36-.54h.06l.18.06.12.12.18.06h.06l.18.12.12.06.18.06 3.18 1.74-.48.54-.06-.06c-.488-.213-.955-.478-1.44-.72l-.18-.12" transform="translate(388.8 306.23)"/><path d="m0 0v-.36l.06-.06.06-.18.06-.06.18-.06h5.16l.06.06.06.06v.6l-.06.06h-4.74l-.36.54h-.06l-.18-.12-.12-.12-.06-.18" transform="translate(388.32 305.63)"/><path d="m0 0v-.18l.06-.12.06-.06h4.5l.48-.54.12.06.18.12.18.18.06.12v.6l-.06.06-.12.12h-5.34l-.06-.06-.06-.12" transform="translate(388.32 308.81)"/></g><g transform="translate(374.04 149.51)"><path d="m56.7 0h-56.7v69.24h56.7v-69.24z" fill="none" stroke="#000" stroke-linejoin="round" stroke-linecap="round" stroke-width=".72" stroke-miterlimit="10"/></g><g fill-rule="evenodd"><path d="m0 0l.3-.24.12 1.38-.18.3-.06.36-.06.3" transform="translate(399.6 163.73)"/><path d="m0 0l.06-.3v-.24l.24-.12h7.8l.12.06.12.12.06.18v.72l-.06.24-.12.12h-5.58l-.18.12-.54.54-.18.24-.24.24-.06.12-.12-1.38h-1.02l-.24-.12v-.24" transform="translate(398.58 162.83)"/><path d="m0 0l.06-.3c.04-.676.361-1.327.84-1.8l.24-.3.12 2.1v.06l.06.36c.185.659.625.977 1.26 1.14l.3.06h.36l.42.06h4.68l.12.12.06.24v.66l-.06.24-.12.12-.12.06c-.819-.074-4.468.212-6.18-.18h-.12l-.3-.12c-.649-.372-1.01-.516-1.32-1.2l-.12-.24-.12-.36v-.36" transform="translate(398.46 166.13)"/><path d="m0 0l.12-2.64v.18l.06.36.12.3v.06l.18.3.24.3.06.06.3.18.3.24c1.158.515 3.061 1.066 3.66 1.5l.12.12.06.24v.78l-.06.24-.12.12h-.3l-.06-.06c-1.103-.368-2.516-.907-3.6-1.5l-.36-.18-.48-.36" transform="translate(401.76 176.93)"/><path d="m0 0l.18-3.42v.42c-.03 3.02 4.02 2.658 3.78-.24v-1.44l.24 4.26c-.889 1.098-2.409 1.398-3.66.78l-.3-.18" transform="translate(396.72 177.95)"/><path d="m0 0v-2.46l.18-.3.12-.12.3-.06h10.44l.12.06.12.12v.24l.06.3v.06l-.06.36v.18l-.12.12-.12.06h-4.8v1.02l-.12 2.64-.12-.18-.18-.3-.12.24-.12.36-.18.3-.12.18-.24-4.26h-3.78v1.26l-.18 3.42-.24-.24c-.584-.574-.738-1.508-.78-2.28l-.06-.3" transform="translate(395.64 174.71)"/><path d="m0 0v-5.16l.18-.3.12-.12.3-.06h10.44l.12.06.12.12v.24l.06.3v.06l-.06.36v.18l-.12.12-.12.06h-4.68v3.9c-.136.38-1.127.375-1.26 0v-3.9h-3.78v4.14l-.06.12-.12.06-.18.06-.3.06-.3-.06-.18-.06-.12-.06" transform="translate(395.64 187.07)"/><path d="m0 0v-.12l.12-.06.18-.06h.54l-.18 2.82v-.42c-.113-.823-.187-.862-.42-1.62l-.18-.3" transform="translate(405.18 189.23)"/><path d="m0 0h.06l.06.36v.36l-.06.36v.9" transform="translate(401.22 189.65)"/><path d="m0 0v-.96l.06-.36v2.4l-.06-.36v-.36" transform="translate(400.08 192.35)"/><path d="m0 0v-5.1l.18-.24.06-.06.36-.12h4.74l.24.12.06 1.98c-.417 3.975 4.847 3.672 4.56.18l.18-2.82h.18l.12.06c1.034 1.42 1.089 4.531-.24 5.88l-.3.3c-1.851 1.45-4.822 1.137-5.58-1.44l-.06-.36v-2.4h-3.18v4.02l-.18.24-.12.06-.36.06-.3-.06-.18-.06-.12-.12" transform="translate(395.64 195.05)"/><path d="m0 0l.12-.06h.54l.24.06.12.06v.18l-.12.3-.36.54v.12l-.18.3-.12.36-.06.24-.06.36v.36" transform="translate(396.72 198.35)"/><path d="m0 0v-.3c-.074-.605.541-2.248 1.02-2.64l.18-.06.12 2.82v.18c.229 2.665 3.485 1.77 4.8.54l.24-.18.3-.24.24-.24.3-.24 2.58-2.58.24-.12.18-.12.24-.06h.6l.24.12.06.12.06.24v6.18l-.06.18-.12.12-.18.06h-.54l-.24-.06-.12-.12v-5.04l-1.86 1.74-.18.18c-1.135 1.067-2.321 2.16-3.84 2.64l-.3.06-.36.06c-1.615.178-3.157-.433-3.48-2.16l-.12-.3v-.36" transform="translate(395.52 201.35)"/></g><use stroke-width=".72" transform="translate(147.18 263.09)" xlink:href="#1"/><use stroke-width=".24" transform="translate(148.62 263.09)" xlink:href="#1"/><path d="m0 0l.12-1.44c.618-3.778 3.747-7.125 7.62-7.56l1.44-.12" fill="none" stroke="#000" stroke-linejoin="round" stroke-linecap="round" stroke-width=".72" stroke-miterlimit="10" transform="translate(147.18 263.09)"/><g transform="translate(148.62 263.09)"><path d="m0 0l.12-1.32c.569-3.269 3.037-5.624 6.24-6.3l1.38-.12" fill="none" stroke="#000" stroke-linejoin="round" stroke-linecap="round" stroke-width=".24" stroke-miterlimit="10"/><g transform="translate(7.26-4.38)"><path d="m0 0v53.22" fill="none" stroke="#000" stroke-linejoin="round" stroke-linecap="round" stroke-width=".24" stroke-miterlimit="10" id="1f"/><use transform="translate(94.62)" xlink:href="#1f"/></g></g><use stroke-width=".72" transform="translate(268.92 263.09)" xlink:href="#1"/><use stroke-width=".24" transform="translate(267.48 263.09)" xlink:href="#1"/><use stroke-width=".72" transform="translate(259.8 316.37)" xlink:href="#2"/><use stroke-width=".24" transform="translate(259.8 314.99)" xlink:href="#2"/><g fill="none" stroke="#000" stroke-linejoin="round" stroke-linecap="round" stroke-miterlimit="10"><path d="m0 0l-.12 1.44c-.497 3.798-3.762 7.06-7.56 7.56l-1.44.12" stroke-width=".72" transform="translate(268.92 307.25)"/><path d="m0 0l-.12 1.32c-.405 3.134-3.188 5.739-6.24 6.3l-1.32.12" stroke-width=".24" transform="translate(267.48 307.25)"/><path d="m0 0l-1.44-.12c-3.873-.435-7-3.782-7.62-7.56l-.12-1.44" stroke-width=".72" transform="translate(156.36 316.37)"/></g><g transform="translate(156.36 314.99)"><path d="m0 0l-1.38-.12c-3.203-.676-5.671-3.03-6.24-6.3l-.12-1.32" fill="none" stroke="#000" stroke-linejoin="round" stroke-linecap="round" stroke-width=".24" stroke-miterlimit="10"/><g transform="translate(94.14-3.06)"><path d="m0 0h-94.62" fill="none" stroke="#000" stroke-linejoin="round" stroke-linecap="round" stroke-width=".24" stroke-miterlimit="10" id="1g"/><use transform="translate(0-53.22)" xlink:href="#1g"/></g></g><use stroke-width=".72" transform="translate(259.8 253.97)" xlink:href="#2"/><use stroke-width=".24" transform="translate(259.8 255.35)" xlink:href="#2"/><g fill="none" stroke="#000" stroke-linejoin="round" stroke-linecap="round" stroke-miterlimit="10"><path d="m0 0l1.44.12c3.798.497 7.06 3.762 7.56 7.56l.12 1.44" stroke-width=".72" transform="translate(259.8 253.97)"/><g transform="translate(259.8 255.35)" stroke-width=".24"><path d="m0 0l1.32.12c3.052.561 5.835 3.166 6.24 6.3l.12 1.32"/><g transform="translate(-3.3 36.42)"><path d="m0 0v-12.84c-.119-2.284 3.261-2.933 4.08-.66l.06.66"/><g transform="translate(4.14)"><path d="m0 0l-.06.6c-.587 1.939-3.433 1.941-4.02 0l-.06-.6"/><path d="m0 0v-12.84"/></g></g></g></g><g fill-rule="evenodd"><path d="m0 0l.06-.36.06-.18.06-.12.12-.06h10.62l.3.18v.06l.12.3v4.98l-.06.12-.12.12-.18.06h-.6l-.18-.06-.12-.12-.06-.12v-4.02h-9.72l-.12-.06-.06-.12-.06-.18v-.06" transform="translate(429.6 356.03)"/><path d="m0 0l.06-2.94v.12l.06.36c.119 1.364 1.541 1.816 2.7 1.92h.6c1.376-.111 2.654-.536 2.82-2.1l.06-.36.06-2.94.06.06c3.345 4.388-1.404 8.436-5.88 6.24l-.3-.18" transform="translate(433.62 368.99)"/></g><path d="m0 0v-.06l.06-.36c-.002-1.466.917-2.62 2.22-3.24l.36-.12.3-.06c1.534-.34 2.939-.227 4.32.54l.24.24-.06 2.94v-.18l-.06-.36c-.185-1.3-1.538-1.843-2.7-1.86h-.54c-1.225-.058-2.799.637-2.88 2.04l-.06.42-.06 2.94-.06-.06c-.56-.561-.902-1.323-1.02-2.1v-.36" fill-rule="evenodd" transform="translate(432.48 366.11)" id="m"/><g fill-rule="evenodd"><path d="m0 0l.18-.3c.453-.416.658-1.043.84-1.62v-.36l.12 2.46-.18.06h-.6l-.18-.06-.12-.06" transform="translate(438.84 377.39)"/><path d="m0 0l.24-.18.3-.18c1.325-.829 4.28-.803 5.52.12l.24.18.24.24c1.312 1.195 1.052 3.528.06 4.8l-.18.18h-.12l-.12-2.46c.27-2.821-5.847-2.882-6.12-.36v.36" transform="translate(433.68 372.41)"/><path d="m0 0v-.06c.106-.924.319-1.899 1.08-2.52l.12-.12.06 2.7v.54l.12.3.18.36.12.3.12.18.24.24.12.3-.12.18-.12.06h-.84l-.12-.06-.18-.18-.24-.3-.12-.24-.24-.6-.06-.36-.06-.36" transform="translate(432.48 375.11)"/></g><path d="m0 0l.12-.36v-.36l.24 2.04-.3.24" fill-rule="evenodd" transform="translate(439.86 382.67)" id="n"/><path d="m0 0l.24-.24c3.035-1.79 4.962 1.954 3.12 4.2l-.18.3-.24-2.04v-.12l-.06-.36-.12-.3-.18-.3h-.06c-1.659-1.107-2.467.409-2.4 1.92v1.26" fill-rule="evenodd" transform="translate(437.04 379.73)" id="o"/><path d="m0 0h.6l.18.06.12.06v.18c-.36.766-.664 1.264-.78 2.16v.36" fill-rule="evenodd" transform="translate(433.56 379.43)" id="p"/><path d="m0 0v-.18c.138-.866.26-1.885.84-2.58l.24-.18.12 2.82c-.046 1.364.636 1.753 1.86 1.8h.6v-1.74l.06-.36v-.3l.06-.36.12-.3.06-.3.3-.6.06-.06.24-.3.12 4.32h1.68c.622-.548.457-.568.9-1.08l.12-.3.06 1.56h.84l.12.06.06.18.06.36-.06.36-.06.18-.12.12h-5.34l-.24-.06h-.36l-.36-.06-.3-.06c-.94-.323-1.337-.933-1.56-1.86l-.06-.3v-.36" fill-rule="evenodd" transform="translate(432.48 382.37)" id="q"/><g fill-rule="evenodd"><path d="m0 0h.12l.12-.12.06-.24v-.72l-.06-.18-.12-.12-.12-.06h-11.58l-.12.06-.12.12-.06.18v.72l.06.24.12.12h11.7" transform="translate(440.7 389.51)"/><path d="m0 0l1.2-1.08 5.64 1.92v-3.9l1.2 4.32 2.7.96.18.06.06.12.06.24v.9l-.12.24-.18.06-.3-.12" transform="translate(429.96 401.09)"/><path d="m0 0v-.06l.06-.36v-.24l.12-.18.18-.12 10.44-3.78.3-.06.18.06.06.24.06.06v.72l-.06.24-.12.12-.12.12-2.7.9v4.68l-1.2-4.32-5.64 1.98-1.2 1.08-.18-.12-.12-.18v-.36" transform="translate(429.6 400.01)"/><path d="m0 0l.12-1.2.06.36.12.48.06.18-.06.12-.12.06" transform="translate(433.74 411.11)"/></g><path d="m0 0l.06-.3v-.24l.24-.12h7.8l.12.06.12.12.06.18v.72l-.06.24-.12.12h-5.22l-.6.36-.24.18v.06l-.3.24-.36.36-.06-1.32h-1.14l-.24-.12v-.24" fill-rule="evenodd" transform="translate(432.6 407.21)" id="r"/><g fill-rule="evenodd"><path d="m0 0v-.12l.06-.36.06-.18.18-.3.24-.3.42-.42.3-.18.3-.24.06 1.32-.18.3v.06l-.06.36-.12 1.2h-.96l-.06-.12-.06-.12-.12-.3-.06-.3" transform="translate(432.48 409.97)"/><path d="m0 0l.12-.3c.263-.735.578-1.468.48-2.28l.12-3.06.3.3c.665.966.919 2.205.72 3.36l-.06.3v.18l-.06.36-.12.36-.06.3-.12.3-.18.3-.24.12h-.6l-.18-.06-.06-.06" transform="translate(439.32 418.85)"/></g><path d="m0 0l.06-2.7v.06c.032 1.222.851 1.974 2.04 1.98h.36v-4.26l.06-1.44h.36c1.15-.111 2.382.089 3.36.78l.24.18-.12 3.06v-.18c.094-1.47-1.091-2.336-2.46-2.4h-.36v5.28l-.18.3-.12.06-.36.12h-.3l-.36-.06h-.36l-.3-.06-.36-.12-.3-.06-.6-.36" fill-rule="evenodd" transform="translate(433.56 418.61)" id="s"/><path d="m0 0v-.18c.136-1.94 1.379-3.229 3.3-3.48l.3-.06-.06 1.44-.24.06c-1.133.049-2.264.948-2.16 2.16l-.06 2.7-.42-.42-.18-.3-.18-.36-.06-.18-.12-.3-.06-.3v-.36" fill-rule="evenodd" transform="translate(432.48 415.97)" id="t"/><use transform="translate(0 42.06)" xlink:href="#n"/><use transform="translate(0 42.06)" xlink:href="#o"/><use transform="translate(0 42.06)" xlink:href="#p"/><use transform="translate(0 42.06)" xlink:href="#q"/><g fill-rule="evenodd"><path d="m0 0l.72-1.14h.12c.63.356 1.35.664 1.98 1.02l6.42 3.42-.96 1.08-.18-.06c-.955-.517-1.916-.983-2.88-1.5l-.3-.18" transform="translate(430.62 437.03)"/><path d="m0 0v-.84l.18-.36.12-.12.36-.06h10.38l.12.06.12.12v.18l.06.36-.06.36v.24l-.12.12-.12.06h-8.64l-.36-.06h-.36v.06l-.72 1.14-.18-.06-.3-.18v-.06l-.3-.24-.12-.3v-.06" transform="translate(429.66 435.77)"/><path d="m0 0v-.42l.06-.24.12-.12h6.9c.6 0 1.2 0 1.8 0h.36l.96-1.08.24.18.3.18.12.06.24.24v.06l.18.3v1.14l-.12.18-.18.18-.3.06h-10.38l-.12-.06-.12-.12-.06-.24" transform="translate(429.66 442.19)"/><path d="m0 0l.12-.3c.263-.735.578-1.468.48-2.28l.12-3.06.06.06.24.24c.665.966.919 2.205.72 3.36l-.06.3v.18l-.06.36-.12.36-.06.3-.12.3-.18.3-.24.12h-.6l-.18-.06-.06-.06" transform="translate(439.32 451.79)"/></g><use transform="translate(0 32.94)" xlink:href="#s"/><use transform="translate(0 32.94)" xlink:href="#t"/><g fill-rule="evenodd"><path d="m0 0l.06-.18.06-.18.06-.3.06-.36v1.2l-.24-.12" transform="translate(439.62 458.45)"/><path d="m0 0l.06-.36.06-.24.06-.12h1.98v-1.08l.06-.12.06-.12.18-.06h.48l.3.06.12.24v1.08h4.56c2.329-.218 3.21 1.666 2.34 3.6l-.24.06v.06h-.66v-1.2l-.06-.36-.12-.3-.24-.18-.12-.06-.3-.12-.36-.06h-4.8v1.98l-.12.24h-.12l-.36.06h-.3l-.18-.06-.12-.24v-1.98h-1.86l-.12-.06-.06-.12-.06-.18" transform="translate(430.5 455.63)"/><path d="m0 0l6.48-1.74h.06l1.26-1.08.12.06.12.18.06.3v.84l-.06.3-.12.18-.12.06-5.7 1.56h-.06" transform="translate(432.9 464.81)"/><path d="m0 0l.06-.36v-.18l.12-.12.12-.06 2.04.66h.06l5.7 1.68-1.26 1.02-.06-.06-6.48-1.86-.12-.06-.12-.12v-.18" transform="translate(432.6 465.53)"/><path d="m0 0v-.06l.06-.3v-.24l.12-.12.12-.06 6.48-1.86h.06l1.26-1.02.12.06.12.18.06.3v.84l-.06.3-.12.18-.12.06-7.44 2.28-.24.06-.12.06-.24-.12v-.24" transform="translate(432.6 470.81)"/><path d="m0 0l.06-.36v-.24l.06-.12h.3l.24.06 7.44 2.28-1.26 1.08-.06-.06-6.48-1.86-.12-.06-.12-.12v-.24h-.06" transform="translate(432.6 460.37)"/><path d="m0 0l.06-2.94v.12l.06.36c.119 1.364 1.54 1.816 2.7 1.92h.6c1.376-.111 2.654-.535 2.82-2.1l.06-.36.06-2.94.06.06c3.345 4.388-1.404 8.436-5.88 6.24l-.3-.18" transform="translate(433.62 479.63)"/></g><use transform="translate(0 110.64)" xlink:href="#m"/><path d="m0 0l.12-1.2.06.36.06.24.06.24.06.18-.06.12-.12.06" fill-rule="evenodd" transform="translate(433.74 487.19)"/><use transform="translate(0 76.08)" xlink:href="#r"/><g fill-rule="evenodd"><path d="m0 0v-.12l.06-.36.06-.18.18-.3.24-.3.42-.42.3-.18.3-.24.06 1.32-.18.3v.06l-.06.36-.12 1.2h-.96l-.12-.24-.12-.3-.06-.3" transform="translate(432.48 486.05)"/><path d="m0 0l.06-.36v-.24l.24-.36 3.3-2.94h.18l4.32 3.3.12.12.12.18.06.24v.78l-.06.24-.12.12h-.3l-.24-.18-4.08-3.18-2.88 2.82-.24.18-.18.06h-.12l-.12-.18v-.24h-.06" transform="translate(432.6 494.15)"/><path d="m0 0v-.36l.06-.18.12-.12.12-.06h11.58l.12.06.12.12.06.18v.72l-.06.24-.12.12h-11.82l-.12-.12-.06-.24" transform="translate(428.82 489.53)"/></g><g transform="translate(363 340.43)" fill="none" stroke="#000" stroke-linejoin="round" stroke-linecap="round" stroke-width=".72" stroke-miterlimit="10"><path d="m0 0v129.84"/><g transform="translate(0 142.32)"><path d="m0 0v66.96h89.16v-209.28h-45.42"/><path d="m0 0h-34.98" transform="translate(34.98-142.32)"/></g></g><path d="m0 0v-4.08l.12-.24.06-.06.3-.06h7.68l.18.12.06.06.06.24v4.14l-.24.12h-.42l-.18-.06-.06-.06-.06-.12v-3.36h-3v2.94l-.12.12h-.66l-.12-.12v-2.94h-2.64v3.36l-.06.06-.06.06-.18.06h-.42l-.12-.06-.06-.06" fill-rule="evenodd" transform="translate(397.5 365.45)"/><use transform="translate(405 370.25)" xlink:href="#3"/><path d="m0 0l.06-.06c2.768-1.557 7.261.082 4.86 3.48l-.18.18-.06-1.68-.06-.24c-.123-.761-1.091-1.207-1.8-1.14l-.24-.06h-.24c-.737-.013-1.838.197-2.16.96l-.12.3v.24" fill-rule="evenodd" transform="translate(400.5 367.67)"/><use transform="translate(399.6 369.59)" xlink:href="#4"/><g fill-rule="evenodd"><path d="m0 0v-.24l.06-.18.06-.06h3.48v-3.72l.06 1.98c-.024.516.465 1.239.9 1.5l.18.24h2.4l.12-.18.24-.18.12-.18h.06l.18-.18.12-.24.12-.18v1.26h.9l.06.06v.18l.06.24-.06.18v.18l-.06.06-.12.06h-8.7l-.12-.12-.06-.18" transform="translate(396.9 371.87)"/><path d="m0 0l.18-.18c.436-.524 1.195-.578 1.8-.36l.12.06v2.52-.24c-.006-1.2-.744-1.982-1.8-.96l-.18.24" transform="translate(405.42 374.51)"/><path d="m0 0l.06-2.64h.06l.12.24.06.24.06.18.06.24v.42l-.06.3v.24l-.12.24v.06l-.12.24" transform="translate(403.44 377.93)"/><path d="m0 0l.18-.12.24-.18h.12l.24-.06.3-.06h.78l.24.12h.06l.24.12.24.18-.06 1.86v-.3l-.06-.24-.12-.24-.3-.3-.24-.12-.24-.06h-.54l-.48.12-.18.18-.18.12-.12.24v.06l-.06.24-.06.24" transform="translate(400.44 374.63)"/><path d="m0 0v-.18c.004-.538.164-1.098.54-1.5l.24-.18v1.8l.06.3.06.24.06.24.18.18.36.24.3.06h.48l.3-.06.18-.06.24-.18.12-.12.12-.24v-.06l.12-.24v-.24l.06-1.86.3-.3.24-.12.18-.06c.527-.121.58-.22 1.08.06l.06.06.18.18.18.24.12-.18.12 1.08.06 1.5c-.067.382.104.709.3 1.02l.24.12h.24c.443.027.558-.132.84-.42l.12-.18.06-.3h.06v-.24l.06-.24v-2.82l.18.18.18.24.06.06c.33.677.317.989.42 1.68v.54c-.113.768-.13 1.239-.6 1.92l-.42.42-.24.12c-.547.169-1.325.238-1.74-.24l-.3-.3c-.466-.936-.262-2.183-.42-3.18l-.12-.24-.36-.24-.12.06-.24.06h-.06l-.24.18-.06 2.64-.54.54-.3.12-.06.06-.24.06h-.3l-.3.06h-.06l-.48-.12h-.12l-.24-.12-.18-.18v.84l-.12.18h-.06l-.24.06h-.12l-.24-.06-.12-.18v-1.92l-.06-.3v-.24" transform="translate(399.66 376.49)"/></g><use transform="translate(404.76 385.37)" xlink:href="#5"/><g fill-rule="evenodd"><path d="m0 0v-2.04.06c.074.957.626 1.456 1.56 1.5h.3v-4.26l.3-.06c.861-.024 1.747.063 2.46.6l.24.18-.12 2.28v-.18c.04-1.067-.783-1.758-1.8-1.74h-.3v3.9l-.12.24-.12.06-.24.06h-.78l-.72-.18-.48-.24" transform="translate(400.44 385.19)"/><path d="m0 0v-.12l.06-.3.06-.24.06-.24.06-.24v-.06l.18-.24.12-.24.36-.36c.371-.317.84-.569 1.32-.66l.24-.06h.24v1.08h-.18c-1.048.196-1.515.54-1.68 1.62v2.04l-.18-.12c-.386-.548-.458-.601-.6-1.26v-.3" transform="translate(399.6 383.21)"/></g><path d="m0 0l.06-.96.06.3.12.36v.24h-.12" fill-rule="evenodd" transform="translate(400.56 393.95)" id="u"/><path d="m0 0v-.24l.06-.18.06-.06h6.06l.06.12v.12l.06.3-.06.24v.18l-.06.06-.12.06h-3.84c-.399.239-.505.291-.84.6l-.18.18-.06.12-.06-1.02h-.96l-.06-.12-.06-.12" fill-rule="evenodd" transform="translate(399.72 391.01)" id="v"/><use transform="translate(399.6 393.11)" xlink:href="#6"/><g fill-rule="evenodd"><path d="m0 0l.06-2.22v.12l.06.3c.081.963 1.22 1.39 2.04 1.38h.42c1.089-.057 1.955-.364 2.16-1.56v-.24l.06-2.22h.06c2.428 3.365-.987 6.341-4.44 4.74l-.18-.18" transform="translate(400.44 399.95)"/><path d="m0 0l.06-.3c-.05-2.769 3.806-3.429 5.58-1.98l-.06 2.22v-.12l-.06-.3c-.093-.981-1.114-1.388-1.98-1.38l-.3-.06h-.12l-.3.06h-.24l-.3.06-.72.36-.18.12-.12.18-.18.24v.06l-.06.24-.06.24-.06.3-.06 2.22v-.06c-.485-.378-.69-.972-.78-1.56v-.24" transform="translate(399.6 397.79)"/><path d="m0 0l.12-.24.06-.24.06-.24.06 1.56-.24.18" transform="translate(404.94 405.29)"/><path d="m0 0v-.24l.06-.18.12-.12h3.9l.3.06h.24l.24.06h.06l.72.36h.06l.18.18c.64.756.655 2.052 0 2.82l-.18.18-.18.24-.06-1.56v-.06l-.06-.24-.06-.24-.18-.24-.18-.18h-.06l-.48-.24h-.24l-.24-.06h-3.84l-.12-.24" transform="translate(399.72 402.77)"/></g><path d="m0 0v-.3l.06-.18.06-.06h4.2l.54-.54.12-.18.24-.24.06 1.02h.78l.12.06.06.06v.12l.06.24-.06.24v.18l-.06.06-.12.06h-5.88l-.12-.12-.06-.18" fill-rule="evenodd" transform="translate(399.72 406.79)" id="w"/><path d="m0 0l.06-.12.06-.12.06-.24v-.24l.06.84h-.12l-.06-.06" fill-rule="evenodd" transform="translate(404.94 412.19)" id="x"/><path d="m0 0v-.3l.12-.24h1.44v-.84l.06-.06.06-.06.12-.06h.36l.24.06.06.12v.84h3.48c1.218.016 2.01.405 1.98 1.74v.3h-.06v.24l-.12.24-.06.18-.18.06-.3.06-.18-.06-.06-.84v-.3l-.12-.24-.18-.12-.12-.06-.18-.06-.3-.06h-3.6v1.5l-.06.18h-.06l-.3.06-.24-.06h-.12l-.06-.06-.06-.12v-1.5h-1.38l-.12-.12-.06-.18" fill-rule="evenodd" transform="translate(398.16 410.09)"/><use transform="translate(404.76 418.31)" xlink:href="#5"/><use transform="translate(400.44 418.13)" xlink:href="#7"/><path d="m0 0v-.12l.06-.3.06-.24.06-.24.06-.24v-.06l.18-.24.12-.24.36-.36c.37-.317.84-.569 1.32-.66l.24-.06h.24v1.08h-.18c-1.048.196-1.515.54-1.68 1.62v2.04l-.18-.12c-.386-.548-.458-.601-.6-1.26v-.3" fill-rule="evenodd" transform="translate(399.6 416.15)"/><use transform="translate(0 29.82)" xlink:href="#u"/><use transform="translate(399.72 420.83)" xlink:href="#8"/><path d="m0 0v-.12l.06-.3.18-.36.36-.36.12-.18.24-.12.24-.18.06 1.02-.18.18v.06l-.06.24-.06.96h-.24c-.442-.012-.482.116-.66-.42l-.06-.24" fill-rule="evenodd" transform="translate(399.6 422.93)"/><g transform="translate(392.16 352.01)"><path d="m20.46 0h-20.46v79.44h20.46v-79.44z" fill="none" stroke="#000" stroke-linejoin="round" stroke-linecap="round" stroke-width=".24" stroke-miterlimit="10"/><g><g transform="translate(0 25.86)" fill="none" stroke="#000" stroke-linejoin="round" stroke-linecap="round" stroke-width=".24" stroke-miterlimit="10"><path d="m0 0l-20.22-11.4"/><g transform="translate(0-2.16)"><path d="m0 0l-19.26-10.86"/><g transform="translate(-20.22-9.24)"><path d="m0 0l-.36-.36-.12-.42.12-.48.36-.36.48-.12.48.12"/><g transform="translate(20.22 39.06)"><path d="m0 0l-20.22 11.4"/><path d="m0 0l-19.26 10.86-.48.12-.48-.12-.36-.36-.12-.42.12-.48.36-.36" transform="translate(0 2.16)"/></g></g></g></g></g></g><g transform="translate(352.62 188.75)"><path d="m0 0l2.46 3.42" fill="none" stroke="#000" stroke-linejoin="round" stroke-linecap="round" stroke-width=".42" stroke-miterlimit="10"/><g transform="translate(7.38 10.38)"><use xlink:href="#f"/><g transform="translate(-7.38-10.38)"><path d="m0 0l18.78-2.88-8.94 16.74" fill="none" stroke="#000" stroke-linejoin="round" stroke-linecap="round" stroke-width=".42" stroke-miterlimit="10"/><g transform="translate(2.46 3.42)"><path d="m0 0l-51.72 36.6" fill="none" stroke="#000" stroke-linejoin="round" stroke-linecap="round" stroke-width=".42" stroke-miterlimit="10"/><g transform="translate(-46.8 43.56)"><path d="m0 0l51.72-36.6" fill="none" stroke="#000" stroke-linejoin="round" stroke-linecap="round" stroke-width=".42" stroke-miterlimit="10"/><g transform="translate(-7.38-10.44)"><use xlink:href="#f"/><g transform="translate(7.38 10.44)"><use xlink:href="#f"/><path d="m0 0l-8.94 16.8 18.78-2.88" fill="none" stroke="#000" stroke-linejoin="round" stroke-linecap="round" stroke-width=".42" stroke-miterlimit="10" transform="translate(-7.38-10.44)"/></g></g></g></g></g></g></g><g fill-rule="evenodd"><path d="m0 0l1.38-.9h-.06l-.18.12-.3.3-.12.36v.48l.06.12.12.18.3.3h.06l.12.06.18.06h.06l.18-.06h.12l.24-.12 1.08-.72-2.1 1.5h-.18l-.06-.06-.18-.06-.48-.48-.12-.18-.06-.12-.06-.18v-.12l-.06-.18v-.18" transform="translate(326.82 202.61)"/><path d="m0 0l1.32-.78-.12.12-.18.12-.06.06v.06l-.12.12-.06.18v.36l.12.12.06.18.12.12c.311.377.669.373 1.08.18l.18-.12.66-.48-1.62 1.26c-.723-.017-1.139-.479-1.32-1.14l-.06-.18" transform="translate(325.56 200.45)"/><path d="m0 0l1.02-.72v-.06h.3l.12.12 2.88 4.08.06.12v.18l-.12.12-1.2.84-.36.24c-.26.168-.724.257-1.02.24h-.06l-.18-.06 2.1-1.5-1.14-1.62-.72.54-1.38.9v-.18l.12-.24.12-.12.12-.18h-.06l-.18.06 1.62-1.26-1.02-1.5-.66.48-1.32.78.06-.18c-.016-.211.403-.753.6-.84l.12-.12" transform="translate(326.52 199.19)"/><path d="m0 0l.18-.06.12-.06h.06l.06.06 3 4.2v.12l.06.12-.06.06-.06.12-2.04 1.44h-.12l-.12-.06-.18-.36v-.06l.06-.06 1.62-1.14-2.82-3.96v-.06l.06-.06.06-.12" transform="translate(323.52 201.23)"/><path d="m0 0l2.16-1.56h.3l.12.12 2.88 4.08.06.12v.18l-.12.12-2.16 1.56h-.18l-.18-.18-.06-.12v-.18l.06-.06 1.8-1.26-1.2-1.62-1.5 1.08h-.12l-.12-.06-.12-.24-.06-.06v-.12h.06l1.56-1.14-1.02-1.44-1.8 1.32c-.312.046-.287-.227-.42-.42v-.06" transform="translate(318.42 204.89)"/></g><g transform="translate(383.1 442.43)"><use xlink:href="#e"/><g transform="translate(9.36 8.7)"><use xlink:href="#e"/><g transform="translate(-9.36-8.7)"><path d="m0 0l17.82-6.66-5.34 18.24" fill="none" stroke="#000" stroke-linejoin="round" stroke-linecap="round" stroke-width=".42" stroke-miterlimit="10"/><g transform="translate(3.12 2.88)"><path d="m0 0l-109.5 117.6" fill="none" stroke="#000" stroke-linejoin="round" stroke-linecap="round" stroke-width=".42" stroke-miterlimit="10"/><g transform="translate(-103.26 123.42)"><path d="m0 0l109.5-117.6" fill="none" stroke="#000" stroke-linejoin="round" stroke-linecap="round" stroke-width=".42" stroke-miterlimit="10"/><g transform="translate(-9.3-8.7)"><path d="m0 0l3.06 2.88" fill="none" stroke="#000" stroke-linejoin="round" stroke-linecap="round" stroke-width=".42" stroke-miterlimit="10"/><g transform="translate(9.3 8.7)"><use xlink:href="#e"/><path d="m0 0l-5.4 18.24 17.82-6.66" fill="none" stroke="#000" stroke-linejoin="round" stroke-linecap="round" stroke-width=".42" stroke-miterlimit="10" transform="translate(-9.3-8.7)"/></g></g></g></g></g></g></g><g fill-rule="evenodd"><path d="m0 0l.54-.9.06.06c.51.275.99.445 1.5.72l4.8 2.58-.66.84-.18-.06c-.698-.425-1.444-.737-2.16-1.14l-.24-.12" transform="translate(435.84 173.03)"/><path d="m0 0v-.66l.12-.24.12-.06.24-.06h7.92l.06.12v.18l.06.24-.06.3v.12l-.06.12h-.12c-2.26 0-4.52 0-6.78 0h-.24l-.54.9-.18-.06-.18-.12v-.06l-.24-.18-.06-.24-.06-.06" transform="translate(435.12 172.07)"/><path d="m0 0v-.3l.06-.18.12-.12h4.86l.24.06h1.68l.66-.84.24.12.18.18h.06l.24.24.12.24v.84l-.12.18-.12.06-.24.06h-7.86l-.06-.12-.06-.18" transform="translate(435.12 176.87)"/><path d="m0 0l.06-2.22v.12l.06.3c.081.963 1.22 1.39 2.04 1.38h.42c1.089-.057 1.955-.364 2.16-1.56v-.24l.06-2.22h.06c2.428 3.365-.987 6.341-4.44 4.74l-.18-.18" transform="translate(438.06 184.31)"/><path d="m0 0l.06-.3c-.05-2.769 3.806-3.429 5.58-1.98l-.06 2.22v-.12l-.06-.3c-.093-.981-1.114-1.388-1.98-1.38l-.3-.06h-.12l-.3.06h-.24l-.3.06-.72.36-.18.12-.12.18-.18.24v.06l-.12.48-.06.3-.06 2.22v-.06c-.485-.378-.69-.972-.78-1.56v-.24" transform="translate(437.22 182.15)"/></g><use transform="translate(442.62 189.47)" xlink:href="#3"/><use transform="translate(438.12 186.89)" xlink:href="#9"/><use transform="translate(437.22 188.81)" xlink:href="#4"/><g fill-rule="evenodd"><path d="m0 0v-.24l.06-.18.06-.06h3.48v-3.72l.06 1.98c-.024.516.465 1.239.9 1.5l.18.24h2.4l.12-.18.24-.18.12-.18h.06l.18-.18.12-.24.12-.18v1.26h.9l.06.06v.18l.06.24-.06.18v.18l-.06.06-.12.06h-8.7l-.12-.12-.06-.18" transform="translate(434.52 191.09)"/><path d="m0 0l.06-.24c.27-.506.382-1.107.36-1.68l.12-2.28.18.24.18.18c.513.918.414 1.278.42 2.28l-.06.24v.18l-.12.48-.12.24-.06.24-.12.18-.06.06-.12.06h-.42l-.12-.06h-.12" transform="translate(442.38 198.23)"/></g><use transform="translate(438.06 198.05)" xlink:href="#7"/><path d="m0 0v-.12l.06-.3.18-.72v-.06l.18-.24.12-.24.36-.36c.37-.317.84-.569 1.32-.66l.24-.06h.24v1.08h-.18c-1.048.196-1.515.54-1.68 1.62v2.04l-.18-.12c-.386-.548-.458-.601-.6-1.26v-.3" fill-rule="evenodd" transform="translate(437.22 196.07)"/><path d="m0 0l1.56.72c2.565 1.346 4.714 3.446 6.18 5.94l.78 1.56" fill="none" stroke="#000" stroke-linejoin="round" stroke-linecap="round" stroke-width=".72" stroke-miterlimit="10" transform="translate(266.88 500.63)"/><g fill-rule="evenodd"><path d="m0 0l.12-.12.12-.06h.6l-.12 2.34v-.06c-.016-.641-.235-1.275-.6-1.8v-.06" transform="translate(138.9 251.75)"/><path d="m0 0l.12-1.98v.18c-.074.557.286.934.48 1.44l.12.24-.12.12h-.36" transform="translate(132.72 256.25)"/><path d="m0 0v-.24l.06-.3c.182-2.274 3.038-2.783 4.14-.84l.12.24.18.24.06.24c.345.657.586 1.403 1.26 1.8l.24.06.3.06h.06l.48-.12h.06l.24-.18.18-.18v-.06l.18-.18.06-.24.06-.18.06-.24v-.3l.12-2.34.18.12.06.06c1.275 1.905.562 5.357-2.28 4.98l-.48-.12-.24-.12c-1.137-.885-1.015-1.436-1.68-2.52l-.24-.48-.24-.24-.24-.18-.06-.06-.24-.06-.3-.06-.18.06c-.563.126-.65.188-.9.72v.06l-.06.3v.24l-.12 1.98h-.12l-.12-.06-.06-.06h-.06l-.12-.24-.06-.18-.12-.3-.06-.24-.12-.6" transform="translate(131.88 254.33)"/><path d="m0 0v-1.92.3l.12.24.12.18v1.32" transform="translate(135.06 262.85)"/><path d="m0 0l.18-.18.24-.18v-1.32l.24.18.24.12.24.06.18.06h4.08l.12.06.06.06v.18l.06.24-.06.3v.12l-.06.12h-4.2l-.12.12-.24.18-.36.36-.12.18-.06.06-.24.48v.24" transform="translate(134.88 263.33)"/><path d="m0 0v-.24l.06-.18.06-.06h6.06l.06.12v.12l.06.3-.06.24v.18l-.06.06-.12.06h-4.08l-.12.06-.24.18-.36.36-.12.18-.06.06-.12-.96h-.84l-.06-.12-.06-.12" transform="translate(134.22 258.77)"/><path d="m0 0l.06-.18c-.036-.574.451-1.177.84-1.56l.18-.18.12.96-.12.24-.12.24v2.16l-.24-.18-.18-.12-.18-.24h-.06l-.12-.24-.06-.24-.06-.12v-.3" transform="translate(134.1 261.17)"/><path d="m0 0l.06-.18v-.24l.24-.48v-.12l.18-.18.18-.24.12-.18.18 1.44v.24l.24.48.24.12v.06l.24.12.24.06h.18l.24.06h3.96l.06.12v.18l.06.24-.06.24v.18l-.06.12h-3.84c-.607.036-.462-.053-.96-.12l-.3-.06-.24-.12c-.334-.221-.639-.518-.78-.9l-.12-.24v-.3" transform="translate(134.1 264.95)"/></g><path d="m0 0l.06-.24v-.24l.18 1.5-.18.18" fill-rule="evenodd" transform="translate(139.68 271.31)" id="y"/><path d="m0 0l.18-.18c2.162-1.416 3.731 1.38 2.4 3.12l-.18.24-.18-1.5c-.013-1.671-2.326-1.529-2.1.6v.96" fill-rule="evenodd" transform="translate(137.52 269.15)" id="z"/><path d="m0 0h.42l.24.12v.06c-.22.557-.543 1.062-.6 1.62v.3" fill-rule="evenodd" transform="translate(134.94 268.91)" id="10"/><path d="m0 0v-.18l.06-.24v-.24l.06-.12.06-.3.06-.24.12-.24.06-.24.06-.12.18-.18.18-.12.06 2.1c-.071 1.033.496 1.306 1.38 1.38h.48v-1.56l.18-.72.06-.24.24-.48v-.06l.18-.18.12 3.24h1.2c.46-.425.391-.412.72-.84l.12-.24.06 1.2h.54l.12.06.06.12.06.3-.06.24-.06.18h-4.08c-.623.033-.62-.052-1.2-.18l-.24-.18-.18-.12c-.492-.628-.293-.326-.48-.96l-.06-.3v-.24" fill-rule="evenodd" transform="translate(134.1 271.13)"/><use transform="translate(135.06 278.87)" xlink:href="#A"/><use transform="translate(134.22 275.93)" xlink:href="#8"/><use transform="translate(134.1 278.03)" xlink:href="#6"/><use transform="translate(-265.5-129.18)" xlink:href="#x"/><path d="m0 0v-.3l.12-.24h1.44v-.84l.12-.12.12-.06h.36l.24.06.06.12v.84h3.48c1.218.016 2.01.405 1.98 1.74v.3h-.06v.24l-.12.24-.06.18-.18.06-.3.06-.18-.06-.06-.84v-.3l-.12-.24-.18-.12-.12-.06-.18-.06-.3-.06h-3.6v1.5l-.06.18h-.06l-.3.06-.24-.06h-.12l-.06-.06-.06-.12v-1.5h-1.38l-.12-.12-.06-.18" fill-rule="evenodd" transform="translate(132.66 280.91)"/><use transform="translate(139.5 290.51)" xlink:href="#3"/><use transform="translate(135 287.93)" xlink:href="#9"/><use transform="translate(134.1 289.85)" xlink:href="#4"/><path d="m0 0v-.24l.06-.18.06-.06h3.48v-3.72l.06 1.98c.026.853.635 1.215 1.08 1.74h2.4l.12-.18.24-.18.12-.18h.06l.18-.18.12-.24.12-.18v1.26h.9l.06.06v.18l.06.24-.06.18v.18l-.06.06-.12.06h-8.7l-.12-.12-.06-.18" fill-rule="evenodd" transform="translate(131.4 292.13)"/><path d="m0 0l.06-.24c.27-.506.382-1.107.36-1.68l.12-2.28.18.24.18.18c.513.918.414 1.278.42 2.28l-.06.24v.18l-.06.24-.06.24-.12.24-.06.24-.12.18-.06.06-.12.06h-.42l-.12-.06h-.12" fill-rule="evenodd" transform="translate(139.26 299.27)" id="11"/><path d="m0 0v-2.04.06c.074.957.626 1.456 1.56 1.5h.3v-4.26l.3-.06c.861-.024 1.747.063 2.46.6l.24.18-.12 2.28v-.18c.039-1.067-.783-1.758-1.8-1.74h-.3v3.9l-.12.24-.12.06-.24.06h-.78l-.72-.18-.48-.24" fill-rule="evenodd" transform="translate(134.94 299.09)" id="12"/><path d="m0 0v-.12l.06-.3.06-.24.06-.24.06-.24v-.06l.18-.24.12-.24.36-.36c.37-.317.84-.569 1.32-.66l.24-.06h.24v1.08h-.18c-1.048.196-1.515.54-1.68 1.62v2.04l-.18-.12c-.386-.548-.458-.601-.6-1.26v-.3" fill-rule="evenodd" transform="translate(134.1 297.11)" id="13"/><g fill-rule="evenodd"><path d="m0 0v-.3l.06-.18.06-.12h.06l4.86-1.68h.06l.96-.78.12.06.06.12c-.007.318.152.483 0 .9v.18l-.06.18-.12.06-5.58 1.98-.12.06h-.24l-.06-.12-.06-.12" transform="translate(134.22 305.63)"/><path d="m0 0v-.42l.12-.12h.18l.18.06 5.58 1.98-.96.78h-.06l-4.86-1.68-.12-.12-.06-.18v-.06" transform="translate(134.22 301.07)"/><path d="m0 0v-.3l.06-.12.06-.12h6.06l.06.12v.12l.06.3-.06.24v.18l-.06.06-.12.06h-5.88l-.06-.06-.06-.06-.06-.18" transform="translate(134.22 307.85)"/></g><path d="m0 0v-.36l.12-.18.18-.12.3-.06h.06l.3.06.18.12.12.18v.36l-.06.3-.06.18v.06l-.24.06-.3.06-.3-.06-.18-.12h-.06l-.06-.18" fill-rule="evenodd" transform="translate(131.82 307.85)" id="14"/><g fill-rule="evenodd"><path d="m0 0l.12-.18.06-.12.18-.24v-.06l.18-.18.12-.24v-.12l.06-.3v-.24l.12 1.86h-.54l-.18-.06-.06-.06" transform="translate(138.9 314.39)"/><path d="m0 0l.18-.18.24-.12c1.066-.575 3.142-.61 4.14.12l.18.12.36.36.18.24.12.24v.06l.06.24.06.24.06.3v.6c-.03.249-.322 1.206-.48 1.32l-.12.18-.18.12-.06.06-.12-1.86c.328-2.104-4.391-2.202-4.56-.3v.24" transform="translate(135 310.67)"/><path d="m0 0v-.06c.032-.612.317-1.562.84-1.92l.06-.06.06 1.98c-.038.917.21.887.54 1.5l.12.18-.12.18h-.06l-.24.06h-.24l-.36-.18v-.06c-.301-.311-.467-.718-.54-1.14v-.24" transform="translate(134.1 312.71)"/></g><use transform="translate(0 21.3)" xlink:href="#11"/><use transform="translate(0 21.3)" xlink:href="#12"/><use transform="translate(0 21.3)" xlink:href="#13"/><path d="m0 0v-5.88l.12-.12.12-.06h.48l.24.12v2.46h7.44l.06.12v.18l.06.24v.06l-.06.24v.18l-.06.06-.12.06h-7.32v2.46l-.24.12h-.48l-.12-.06-.06-.06" fill-rule="evenodd" transform="translate(275.28 237.29)" id="15"/><use transform="translate(278.34 242.09)" xlink:href="#A"/><use transform="translate(277.5 239.15)" xlink:href="#8"/><use transform="translate(277.38 241.25)" xlink:href="#6"/><g fill-rule="evenodd"><path d="m0 0l.12-.24.12-.48.06 1.56-.24.18" transform="translate(282.72 246.29)"/><path d="m0 0v-.24l.06-.18.12-.12h3.9l.3.06h.24l.24.06h.06l.72.36h.06l.18.18c.64.756.655 2.052 0 2.82l-.18.18-.18.24-.06-1.56v-.06l-.12-.48-.18-.24-.18-.18h-.06l-.48-.24h-.24l-.24-.06h-3.84l-.12-.24" transform="translate(277.5 243.77)"/></g><use transform="translate(-122.22-159)" xlink:href="#w"/><g fill-rule="evenodd"><path d="m0 0l.12-.12c.774-.263 1.086.16 1.2.9l.06.3v.06c.19.765-.011 1.561-.42 2.22l-.18.12-.18.18v-1.98c-.024-.401-.151-.912-.36-1.26l-.12-.24" transform="translate(282.42 250.07)"/><path d="m0 0l.12-1.56.06.3c.136.76.015.311.36.96l.06.12-.06.12-.06.06h-.3" transform="translate(278.1 253.73)"/><path d="m0 0v-.18l.06-.24.06-.3c.098-.631.403-.985.96-1.26l.18-.06.24-.06c.519-.188 1.062.066 1.44.42v.06l.18.18.12.24.06.06c.301.519.37.993.66 1.5l.3.3.18.12h.42l.24-.06.12-.06.18-.18.06-.12.12-.3v-.18l.06-.3v1.98l-.24.12v.06l-.24.06-.3.06h-.42l-.48-.12h-.06l-.24-.18-.18-.18h-.06l-.12-.24-.18-.18v-.12l-.24-.48v-.06l-.12-.24-.06-.24-.12-.24-.12-.24-.3-.3-.18-.12-.3-.06h-.06l-.24.12h-.06l-.24.18-.06.06-.12.3v.18l-.06.3-.12 1.56h-.12l-.12-.06-.06-.06-.12-.24-.06-.06-.06-.24-.06-.18-.06-.24v-.24" transform="translate(277.38 252.17)"/></g><path d="m0 0l.12-.24.06-.24v-.24l.06.84h-.12l-.06-.06" fill-rule="evenodd" transform="translate(282.72 258.47)" id="16"/><path d="m0 0v-.3l.12-.24h1.44v-.84l.12-.12.12-.06h.36l.24.06.06.12v.84h3.48c1.218.016 2.01.405 1.98 1.74v.3h-.06v.24l-.12.24-.06.18-.18.06-.3.06-.18-.06-.06-.84v-.3l-.12-.24-.18-.12-.12-.06-.18-.06-.3-.06h-3.6v1.5l-.06.18h-.06l-.3.06-.24-.06h-.12l-.06-.06-.06-.12v-1.5h-1.38l-.12-.12-.06-.18" fill-rule="evenodd" transform="translate(275.94 256.37)" id="17"/><use transform="translate(282.54 264.65)" xlink:href="#5"/><use transform="translate(278.22 264.47)" xlink:href="#7"/><path d="m0 0v-.12l.06-.3.06-.24.12-.48v-.06l.18-.24.12-.24.36-.36c.37-.317.84-.569 1.32-.66l.24-.06h.24v1.08h-.18c-1.048.196-1.515.54-1.68 1.62v2.04l-.18-.12c-.386-.548-.458-.601-.6-1.26v-.3" fill-rule="evenodd" transform="translate(277.38 262.49)"/><use transform="translate(282.78 269.51)" xlink:href="#3"/><use transform="translate(278.28 266.93)" xlink:href="#9"/><use transform="translate(277.38 268.85)" xlink:href="#4"/><path d="m0 0v-.24l.06-.18.06-.06h3.48v-3.72l.06 1.98c.026.853.636 1.215 1.08 1.74h2.4l.12-.18.24-.18.12-.18h.06l.18-.18.12-.24.12-.18v1.26h.9l.06.06v.18l.06.24-.06.18v.18l-.06.06-.12.06h-8.7l-.12-.12-.06-.18" fill-rule="evenodd" transform="translate(274.68 271.13)" id="18"/><use transform="translate(0 44.64)" xlink:href="#15"/><g fill-rule="evenodd"><path d="m0 0l.18-.18.12 1.14-.12.24v.24" transform="translate(278.16 284.57)"/><path d="m0 0l.06-.18v-.24l.06-.3.12-.24.06-.06.12-.24.18-.18.18-.24.18 1.44v.06l.06.3.06.24.12.18.24.18.48.24h.06l.18.06h4.02l.12.06.06.06v.18l.06.24-.06.24v.18l-.06.12h-3.66c-.671.033-.64-.031-1.2-.12l-.24-.06-.24-.12c-.425-.355-.571-.459-.84-1.02l-.06-.24v-.24" transform="translate(277.38 286.25)"/><path d="m0 0l.06-.3v-.12l.06-.12h8.94l.06.12v.12l.06.3-.06.24v.18l-.06.06-.12.06h-4.08l-.12.06-.6.6-.12.18-.06.06-.12.24-.12-1.14h-3.48l-.12-.06-.06-.06v-.18" transform="translate(274.62 283.85)"/><path d="m0 0v-.3l.06-.12.06-.12h6.06l.06.12v.12l.06.3-.06.24v.18l-.06.06-.12.06h-5.88l-.12-.12-.06-.18" transform="translate(277.5 290.87)"/></g><use transform="translate(143.28-16.98)" xlink:href="#14"/><use transform="translate(278.34 296.87)" xlink:href="#A"/><path d="m0 0v-.24l.06-.18.06-.06h6.06l.06.12v.12l.06.3-.06.24v.18l-.06.06-.12.06h-3.84c-.4.239-.505.291-.84.6l-.18.18-.06.12-.06-1.02h-.96l-.12-.24" fill-rule="evenodd" transform="translate(277.5 293.93)"/><use transform="translate(277.38 296.03)" xlink:href="#6"/><use transform="translate(282.78 300.89)" xlink:href="#3"/><use transform="translate(278.28 298.31)" xlink:href="#9"/><use transform="translate(277.38 300.23)" xlink:href="#4"/><use transform="translate(0 31.38)" xlink:href="#18"/><g fill-rule="evenodd"><path d="m0 0l.06-2.52v.06c-.19 2.444 3.579 2.346 3.36-.12v-1.02l.18 3.3c-.722.82-2.164 1.025-3.12.54l-.24-.12" transform="translate(276.18 312.95)"/><path d="m0 0v-1.86l.12-.24.12-.06.24-.06h7.92l.06.12v.18l.06.24-.06.3v.12l-.06.12h-3.18v.96c.06.762-.155 1.508-.54 2.16l-.18.18-.18-3.3h-3.36v1.08l-.06 2.52-.18-.18c-.559-.719-.545-.921-.72-1.74v-.24" transform="translate(275.28 310.49)"/></g><use transform="translate(143.28 46.08)" xlink:href="#y"/><use transform="translate(143.28 46.08)" xlink:href="#z"/><use transform="translate(143.28 46.08)" xlink:href="#10"/><path d="m0 0v-.18l.06-.24v-.24l.06-.12.06-.3.06-.24.12-.24.06-.24.06-.12.18-.18.18-.12.06 2.1c-.071 1.033.496 1.307 1.38 1.38h.48v-1.56l.12-.48.06-.24.06-.24.24-.48v-.06l.18-.18.12 3.24h1.2c.46-.425.391-.412.72-.84l.12-.24.06 1.2h.54l.12.06.06.12.06.3-.06.24-.06.18h-4.08c-.623.033-.62-.052-1.2-.18l-.24-.18-.18-.12c-.491-.626-.293-.327-.48-.96l-.06-.3v-.24" fill-rule="evenodd" transform="translate(277.38 317.21)"/><use transform="translate(278.34 324.89)" xlink:href="#A"/><use transform="translate(-122.22-69.06)" xlink:href="#v"/><path d="m0 0v-.12l.06-.3.18-.36.36-.36.12-.18.24-.12.24-.18.06 1.02-.18.18v.06l-.06.24-.06.96h-.24c-.442-.012-.482.116-.66-.42l-.06-.24" fill-rule="evenodd" transform="translate(277.38 324.05)"/><use transform="translate(0 70.56)" xlink:href="#16"/><use transform="translate(0 70.56)" xlink:href="#17"/><g fill-rule="evenodd"><path d="m0 0v-.3l.06-.18.18-.06 4.74-1.62v-.06l1.08-.66.12.06.06.12 2.04-.84h.18l.06.06.06.12.06.3-.06.24v.24l-.18.18-7.98 2.88-.24.06-.12-.06-.06-.18" transform="translate(277.5 334.85)"/><path d="m0 0v-.36l.06-.12.12-.06.24.06 5.64 2.1-1.08.66-4.74-1.68-.12-.06-.06-.06-.06-.18v-.06" transform="translate(277.5 330.35)"/><path d="m0 0h.12l.06-.06.18-.12.12-.24.06-.06-.06-.06-3.9-3.66-.06-.06h-.12l-.06.12-.24.24-.06.12-.06.06.06.06 3.96 3.66" transform="translate(338.88 488.33)"/><path d="m0 0l1.14-1.2-.12.12-.12.18v.06l-.12.12v.18l-.06.12v.18l.06.18.06.06.06.12.06.18.18.12.06.06c.528.382 1.01.412 1.5-.06l.6-.6-1.44 1.62-.12.06c-.456-.123-.294-.004-.78-.24l-.12-.06-.18-.12-.42-.42-.06-.18-.06-.18-.06-.12" transform="translate(332.1 488.39)"/><path d="m0 0l.84-.84v-.06l.18-.06h.12l.12.12 3.78 3.54.06.06v.06l-.06.06-.12.18-.18.12-.06.06h-.12l-1.5-1.38-.42.42v.06l-.18.12c-.412.452-.537.407-1.08.6h-.18l1.44-1.62-1.68-1.56-.48.54-1.14 1.2v-.18c-.02-.433.188-.789.42-1.14l.12-.12" transform="translate(332.76 486.77)"/><path d="m0 0l.12-.12.06-.06h.18l3.06 1.38.06.06h.78l.06.12-.06.06-.06.12v.06l-.12.12-.06.06-.12.12-.12.06-.06.06-.12-.06-3.6-1.56h-.12v-.06h-.06v-.12l.06-.12" transform="translate(329.88 492.05)"/><path d="m0 0l.12-.12.06-.06h.18v.12l.06.06 1.8 3.48h-.78v-.06l-1.62-3v-.12l.06-.12" transform="translate(331.92 489.83)"/><path d="m0 0l.12.12c.423.191 1.239 1.196 1.32 1.68l.06.18-.96 1.02.06-.12.12-.18.12-.24v-.18l-.06-.18v-.12l-.12-.12-.06-.18-.12-.12v-.06l-.36-.36-.12-.18-.18-.12h-.06l-.18.06-.12.06-.18.12-.24.12-.24.24" transform="translate(330.06 493.61)"/><path d="m0 0l.06-.06c.265-.312.591-.452.96-.6l.12-.06-1.68 1.86v-.12l.06-.18.06-.18v-.06l.06-.18.12-.12.12-.18" transform="translate(328.32 494.75)"/><path d="m0 0h.18c.776.135 1.207.349 1.8.84l.12.12-1.2 1.44-.24.24-.06.18-.06.18v.24l.06.12.12.18.06.06.06.18.18.12.06.06c.38.394.977.369 1.44.12l.12-.12.96-1.02v.36c-.126.922-.84 1.501-1.74 1.68h-.12l-.18-.06h-.18c-.523-.207-.418-.025-.78-.42l-.18-.12-.06-.06c-.415-.476-.286-.301-.48-.78l-.06-.18v-.12l1.68-1.86-.06-.06c-.695-.577-1.558-.957-2.34-.3l-.12.12" transform="translate(327.96 492.65)"/><path d="m0 0l.12-.12c.356-.307.762-.605 1.26-.6l.12-.06-1.02 1.14-.12.18-.12.12-.12.24-.06.06-.06.12-.06.12-.06.06h-.06l-.06-.06-.12-.06-.06-.12-.06-.06v-.24l.06-.06.06-.18.06-.12.12-.12.06-.12" transform="translate(326.46 493.43)"/><path d="m0 0h.18l.3-.3.06-.12v-.06l-.12-.06-7.02-3h-.18l-.12.06-.12.12-.12.12v.18l.06.06 7.08 3" transform="translate(329.76 499.79)"/><path d="m0 0h.12l.18-.18.12-.18.06-.06.06-.12-.06-.06-3.96-3.66h-.12l-.12.06-.12.12-.06.12-.06.06v.06l-.06.06.06.06 3.96 3.72" transform="translate(326.04 502.13)"/><path d="m0 0l1.14-1.2-.12.12-.12.18-.06.06-.06.12-.06.18v.3l.06.18v.06l.06.12.12.18.12.12.12.06.12.12.18.06.06.06h.18l.18.06.06-.06h.18l.18-.06.06-.06.12-.06.12-.12.18-.12.42-.48-1.38 1.62h-.18c-.512-.007-.329.053-.72-.18l-.18-.06-.12-.12c-.217-.232-.338-.279-.48-.6l-.12-.18-.06-.12" transform="translate(319.32 502.13)"/><path d="m0 0l.78-.84.06-.06.18-.06h.06l.18.12 3.78 3.54v.12l-.06.06-.12.18-.12.12-.12.06h-.12l-1.44-1.38-.48.42v.06l-.12.12-.18.12-.24.24-.12.06h-.06l-.18.06-.12.06-.18.06h-.18l1.38-1.62-1.62-1.56-.48.54-1.14 1.2v-.54l.06-.12.06-.18.06-.18h.06l.06-.18.24-.24" transform="translate(319.98 500.51)"/><path d="m0 0l.12-.12.12-.06h.12l3.12 1.38.06.06h.78v.18l-.06.12-.18.18v.06l-.12.12-.24.12-.06-.06-3.66-1.56-.06-.06h-.06l-.06-.06v-.06l.06-.12" transform="translate(317.04 505.79)"/><path d="m0 0l.18-.18h.12v.06l.12.12 1.8 3.48h-.78l-.06-.06-1.56-3-.06-.06v-.06l.06-.12h.06" transform="translate(319.14 503.57)"/><path d="m0 0l.84-.18 2.28 2.1 1.2-1.32-1.74 1.86" transform="translate(313.44 507.71)"/><path d="m0 0l.3-.3.12-.06h.06l3.9.9h.12l.06.06.12.06.24.24v.18l-.06.06-1.56 1.68.9.78v.12l-.06.12-.24.24-.12.06-.06.06-.06-.06-.84-.78-.42.48h-.18l-.18-.12-.06-.06-.06-.12v-.12l.42-.48 1.74-1.86-3.48-.78-.84.18-.06-.06.06-.12.12-.12v-.06" transform="translate(313.68 507.23)"/></g><path d="m0 0v-1.02l.06-.12.18-.06h3.84l.06.06v.06l.06.12v1.2c-.044.299-.135.696-.3.96l-.06.12-.06.12-.06-2.04h-3.24v.54l-.06 1.44-.12-.12c-.165-.264-.256-.661-.3-.96v-.18" fill-rule="evenodd" transform="translate(578.22 591.89)" id="19"/><use transform="translate(578.22 596.87)" xlink:href="#B"/><path d="m0 0l.06-.12v-.12l.06-.12.06-.12v-.06l.06-.12.06-.12.06-.06.12-.06.06-.12v.72l-.06.12v1.14l-.06-.06-.12-.12-.06-.12-.12-.06v-.06l-.06-.12v-.24" fill-rule="evenodd" transform="translate(579.24 600.77)" id="1A"/><use transform="translate(582.36 603.35)" xlink:href="#C"/><use transform="translate(581.94 609.23)" xlink:href="#D"/><use transform="translate(581.94 611.45)" xlink:href="#D"/><use transform="translate(578.52 610.43)" xlink:href="#E"/><use transform="translate(581.94 617.03)" xlink:href="#F"/><use transform="translate(581.7 619.55)" xlink:href="#G"/><path d="m0 0l.12-.06.12-.12h.06c.437-.271.623-.176.96-.3h.24c.412-.02.804.011 1.2.06h.06l.18.06h.12l.36.18.06.06.12.06.06.12.12.06.06.12v.06l.06.12v.12l.06.12v.48l-.06.12v.12l-.06.12-.06.12-.06.12-.06.12-.12.06-.06-.96v-.3l-.06-.12-.12-.06-.06-.12-.12-.06h-.06l-.06-.06-.12-.06c-.38.024-.08-.096-.66-.06h-.18l-.12-.06h-.3l-.12.06h-.54l-.24.12h-.12l-.06.06-.24.12-.06.12-.06.06-.06.12v.12l-.06.12" fill-rule="evenodd" transform="translate(578.52 626.21)" id="1B"/><use transform="translate(578.28 631.01)" xlink:href="#H"/><use transform="translate(581.76 632.69)" xlink:href="#I"/><use transform="translate(579.84 633.89)" xlink:href="#J"/><path d="m0 0h.18v-1.56h-.36l-.06.12v1.38l.06.06h.18" fill-rule="evenodd" transform="translate(580.8 637.43)" id="1C"/><use transform="translate(0 12.18)" xlink:href="#1B"/><path d="m0 0v-.06h.12l.12-.06.12.06h.06l.06.12v.06c.117.286.136.467.12.78v.12l-.06.12v.12l-.06.12v.06l-.06.12-.06.12-.06.12-.06.06-.06.12-.06-1.2v-.42l-.06-.12-.06-.12" fill-rule="evenodd" transform="translate(581.88 641.51)" id="1D"/><use transform="translate(0 8.819)" xlink:href="#1C"/><use transform="translate(578.28 648.59)" xlink:href="#H"/><use transform="translate(578.16 648.29)" xlink:href="#K"/><path d="m0 0v-.12l.06-.12.06-.06h.54l.9-.48h.06v.06l.06.06v.18l-.06.06v.06h-.06l-.66.48h-.06l-.12.06v.06h-.12v.06h-.48l-.06-.06-.06-.12" fill-rule="evenodd" transform="translate(581.7 654.23)" id="1E"/><use transform="translate(0 18.901)" xlink:href="#1D"/><path d="m0 0v-.18l.06-.12.12-.06h.36l.12.06.06.12v.36l-.06.06-.12.06-.18.06h-.06l-.12-.06-.12-.06-.06-.06v-.06" fill-rule="evenodd" transform="translate(581.7 664.25)" id="1F"/><path d="m0 0h.36v.18l-.06.06-.06.12-.06.06-.12.24v.36" fill-rule="evenodd" transform="translate(578.58 665.51)" id="1G"/><use transform="translate(0 3.421)" xlink:href="#1G"/><use transform="translate(581.7 672.77)" xlink:href="#G"/><use transform="translate(579.42 672.77)" xlink:href="#L"/><use transform="translate(581.76 673.97)" xlink:href="#I"/><use transform="translate(579.84 675.17)" xlink:href="#J"/><path d="m0 0l.06-1.44v.06c-.05.333.087.814.36 1.02l.06.12h.06l.12.06.06.06.12.06.18.06h.06l.18.06h.9l.12-.06h.18l.36-.18.06-.12h.06l.06-.12.12-.06.12-.24v-.18l.06-.12v-.96l.06 2.04-.12.06-.06.12c-.404.204-.804.434-1.26.42h-.3c-.483.002-1.041-.035-1.38-.42l-.12-.06-.06-.06" fill-rule="evenodd" transform="translate(578.28 14.571)" id="1H"/><use transform="translate(-.36-578.7)" xlink:href="#19"/><use transform="translate(578.94 30.05)" xlink:href="#M"/><use transform="translate(582 31.791)" xlink:href="#C"/><path d="m0 0l.06-.12v-.06l.06-.12.06-.12v-.24l.06-.12v-1.32l.12.12c.192.371.184.346.3.72v.54l-.06.12v.18l-.06.12v.12l-.06.12-.06.12h-.06v.06h-.3l-.06-.06" fill-rule="evenodd" transform="translate(581.46 35.09)" id="1I"/><use transform="translate(579.3 35.03)" xlink:href="#N"/><use transform="translate(-.36-561.6)" xlink:href="#1A"/><use transform="translate(581.64 42.35)" xlink:href="#O"/><use transform="translate(579.3 41.15)" xlink:href="#P"/><use transform="translate(581.58 45.831)" xlink:href="#D"/><use transform="translate(578.16 44.811)" xlink:href="#E"/><use transform="translate(579.36 53.27)" xlink:href="#Q"/><use transform="translate(578.88 54.17)" xlink:href="#R"/><use transform="translate(581.64 57.35)" xlink:href="#O"/><use transform="translate(579.3 56.15)" xlink:href="#P"/><use transform="translate(579.36 61.61)" xlink:href="#S"/><path d="m0 0v-.12l.06-.06v-.06h3v.06h.06v.42l-.06.06h-2.04l-.18.18-.12.06-.06.12-.06.06h-.06l-.06-.48h-.42l-.06-.12" fill-rule="evenodd" transform="translate(578.94 59.57)" id="1J"/><path d="m0 0l.06-.06v-.12l.06-.18.06-.12v-.06l.06-.12.12-.06.06-.12.12-.12.06.48-.06.12-.06.12v1.08l-.12-.06c-.138-.124-.288-.287-.3-.48v-.12" fill-rule="evenodd" transform="translate(578.88 60.771)" id="1K"/><path d="m0 0l.06-.12v-.12l.06-.12.06-.12v-.06l.06-.06.12-.12.06-.12.06.72v.12l.06.12.06.12.12.06v.06h.12l.12.06h.12l.12.06h1.92l.06.06v.42h-.06v.06h-1.98l-.12-.06h-.3l-.24-.12c-.178-.098-.288-.265-.42-.42v-.3" fill-rule="evenodd" transform="translate(578.88 62.691)" id="1L"/><path d="m0 0l.06-.12v-.06l.12-.24v-.24l.06-.12v-1.32l.06.06.06.06c.192.371.184.346.3.72v.54l-.06.12v.18l-.06.12v.12l-.06.12-.06.12h-.06v.06h-.3l-.06-.06" fill-rule="evenodd" transform="translate(581.46 66.891)" id="1M"/><use transform="translate(579.3 66.831)" xlink:href="#T"/><use transform="translate(581.34 68.39)" xlink:href="#G"/><path d="m0 0v-.06l.06-.12.06-.12.12-.06h.36l.06.06.06.12.06.06v.12l-.06.18-.12.12h-.06l-.12.06-.06-.06h-.12l-.12-.06-.06-.06-.06-.06" fill-rule="evenodd" transform="translate(579.06 68.39)" id="1N"/><use transform="translate(581.34 75.59)" xlink:href="#G"/><use transform="translate(0 7.2)" xlink:href="#1N"/><use transform="translate(582.78 78.891)" xlink:href="#U"/><use transform="translate(581.4 83.57)" xlink:href="#V"/><path d="m0 0v-.06l.06-.12c.012-.357.243-.714.6-.84h.48l.06.06h.06l.12.06.18.18.06.12.06.06.06.12v.12h.06v.12l.06.12.06.12.06.12.06.12.12.06.06.06h.24l.12-.06.18-.18v-.12l.06-.12v-.12.96l-.12.12c-.321.04-.515.154-.84-.06l-.24-.24-.06-.12-.06-.12-.06-.12v-.06l-.12-.24v-.12l-.12-.12-.06-.06-.06-.12h-.06l-.18-.06-.12.06h-.06l-.12.06v.06l-.06.12v.12l-.06.12-.06.78h-.12v-.06l-.06-.12h-.06v-.12l-.06-.06v-.24" fill-rule="evenodd" transform="translate(578.88 84.59)" id="1O"/><use transform="translate(0 21.72)" xlink:href="#1M"/><use transform="translate(579.3 88.55)" xlink:href="#T"/><use transform="translate(578.88 87.53)" xlink:href="#W"/><use transform="translate(578.94 89.87)" xlink:href="#X"/><use transform="translate(581.4 91.85)" xlink:href="#V"/><use transform="translate(579.24 93.65)" xlink:href="#Y"/><use transform="translate(0 8.28)" xlink:href="#1O"/><use transform="translate(582.78 96.59)" xlink:href="#U"/><use transform="translate(581.4 97.01)" xlink:href="#V"/><use transform="translate(579.24 98.81)" xlink:href="#Y"/><use transform="translate(581.58 101.15)" xlink:href="#D"/><use transform="translate(578.16 100.13)" xlink:href="#E"/><use transform="translate(0 72.66)" xlink:href="#1I"/><use transform="translate(579.3 107.69)" xlink:href="#N"/><use transform="translate(578.88 106.67)" xlink:href="#W"/><use transform="translate(582.78 110.87)" xlink:href="#U"/><use transform="translate(578.88 116.81)" xlink:href="#Z"/><path d="m0 0v-.06l.06-.12v-.24l.06-.12.06-.12.06-.12.06-.12.12-.12h.06v1.02c-.041.278.187.492.3.72l.06.06-.06.12h-.36l-.06-.06h-.06v-.06l-.06-.06-.06-.12-.06-.12-.06-.12v-.24" fill-rule="evenodd" transform="translate(578.88 120.17)" id="1P"/><path d="m0 0l.06-.12.06-.12v-.12l.06.78-.12.12" fill-rule="evenodd" transform="translate(581.52 123.29)" id="1Q"/><path d="m0 0v-.18l.06-.06v-.06h2.1l.18.06h.12l.36.18.18.18.06.12.06.12.06.12v.54l-.06.12-.06.12-.06.06-.12.24-.12.06-.06-.78v-.12l-.12-.24-.12-.06v-.06l-.12-.06h-.12l-.12-.06h-2.04v-.06l-.06-.06" fill-rule="evenodd" transform="translate(578.94 122.09)" id="1R"/><path d="m0 0v-.18l.06-.06v-.06h2.1l.06-.06.12-.06.06-.12.12-.06.06-.12v-.06l.06.54h.42l.06.06v.36l-.06.06h-3v-.06l-.06-.06" fill-rule="evenodd" transform="translate(578.94 124.07)" id="1S"/><use transform="translate(579.36 127.55)" xlink:href="#S"/><use transform="translate(0 65.94)" xlink:href="#1J"/><use transform="translate(0 65.94)" xlink:href="#1K"/><use transform="translate(0 65.94)" xlink:href="#1L"/><use transform="translate(581.46 132.89)" xlink:href="#a"/><use transform="translate(579.3 132.83)" xlink:href="#N"/><use transform="translate(578.88 131.81)" xlink:href="#W"/><use transform="translate(579.36 134.51)" xlink:href="#Q"/><use transform="translate(578.88 135.41)" xlink:href="#R"/><use transform="translate(581.58 138.89)" xlink:href="#D"/><use transform="translate(578.16 137.87)" xlink:href="#E"/><use transform="translate(581.4 139.55)" xlink:href="#V"/><use transform="translate(579.24 141.35)" xlink:href="#Y"/><use transform="translate(582.78 144.35)" xlink:href="#U"/><use transform="translate(577.86 146.99)" xlink:href="#B"/><use transform="translate(578.94 148.25)" xlink:href="#M"/><path d="m0 0v-.18l.06-.12.12-.06h.18l.12.06h.12v.06l.06.06v.18l-.06.18v.06l-.12.06h-.3l-.12-.06-.06-.12" fill-rule="evenodd" transform="translate(577.74 148.25)" id="1T"/><path d="m0 0l.06-1.32.06.12.06.12v.66l-.06.12v.06l-.06.12" fill-rule="evenodd" transform="translate(580.8 151.19)" id="1U"/><use transform="translate(0 30.84)" xlink:href="#1Q"/><use transform="translate(0 30.84)" xlink:href="#1R"/><use transform="translate(0 30.84)" xlink:href="#1S"/><use transform="translate(579.36 157.85)" xlink:href="#b"/><use transform="translate(578.94 156.35)" xlink:href="#X"/><use transform="translate(581.46 160.73)" xlink:href="#a"/><use transform="translate(578.88 159.65)" xlink:href="#W"/><use transform="translate(581.4 161.63)" xlink:href="#V"/><use transform="translate(579.24 163.43)" xlink:href="#Y"/><use transform="translate(582.78 166.43)" xlink:href="#U"/><use transform="translate(578.88 169.91)" xlink:href="#Z"/><path d="m0 0v-.06l.06-.06h.36l-.06 1.2v-.06c.028-.264-.106-.611-.24-.84l-.06-.06" fill-rule="evenodd" transform="translate(581.28 176.75)" id="1V"/><use transform="translate(0 168.06)" xlink:href="#1H"/><use transform="translate(582.78 189.59)" xlink:href="#U"/><use transform="translate(579.36 190.67)" xlink:href="#Q"/><path d="m0 0v-.12l.06-.06v-.06h3v.06h.06v.42l-.06.06h-2.04l-.12.06-.06.12-.12.06-.06.12-.06.06-.06.06-.06-.54h-.42l-.06-.12" fill-rule="evenodd" transform="translate(578.94 190.31)" id="1W"/><use transform="translate(578.88 191.57)" xlink:href="#R"/><use transform="translate(577.86 199.37)" xlink:href="#B"/><use transform="translate(581.4 200.27)" xlink:href="#I"/><use transform="translate(579.48 201.47)" xlink:href="#J"/><use transform="translate(581.64 209.75)" xlink:href="#O"/><path d="m0 0l.06-.06c1.096-.661 1.869.621 1.2 1.56l-.12.12-.06-.78v-.18l-.06-.12-.06-.06v-.06l-.12-.06c-.608-.285-.819.38-.84.84v.42" fill-rule="evenodd" transform="translate(580.62 208.61)" id="1X"/><use transform="translate(579.3 208.55)" xlink:href="#P"/><use transform="translate(581.4 211.61)" xlink:href="#V"/><use transform="translate(579.24 213.41)" xlink:href="#Y"/><use transform="translate(579.36 216.41)" xlink:href="#Q"/><use transform="translate(0 25.74)" xlink:href="#1W"/><use transform="translate(578.88 217.31)" xlink:href="#R"/><use transform="translate(578.88 220.61)" xlink:href="#Z"/><use transform="translate(581.58 224.21)" xlink:href="#F"/><path d="m0 0v-.24l.06-.06h1.74v-1.8 1.02l.06.12v.12l.06.12.06.06.06.06.3.3h1.2l.06-.06.12-.06.06-.12h.06l.12-.24.06-.06v.6h.42l.06.06v.36l-.06.06h-4.38l-.06-.06v-.06" fill-rule="evenodd" transform="translate(577.56 225.05)" id="1Y"/><use transform="translate(581.46 228.53)" xlink:href="#a"/><use transform="translate(579.3 228.47)" xlink:href="#N"/><use transform="translate(578.88 227.45)" xlink:href="#W"/><use transform="translate(581.58 232.67)" xlink:href="#F"/><use transform="translate(0 8.46)" xlink:href="#1Y"/><path d="m0 0l.12-.12.12-.06.06-.06.12-.06h.42l.12.06.06.06v1.2-.24l-.06-.12v-.12l-.12-.24-.12-.06h-.3l-.12.06-.12.12-.06.06-.12.06" fill-rule="evenodd" transform="translate(581.82 239.45)" id="1Z"/><use transform="translate(0 90)" xlink:href="#1U"/><use transform="translate(582.06 533.69)" xlink:href="#C"/><use transform="translate(578.94 535.97)" xlink:href="#Z"/><use transform="translate(581.64 539.63)" xlink:href="#D"/><use transform="translate(578.22 538.61)" xlink:href="#E"/><use transform="translate(579.3 543.65)" xlink:href="#Y"/><use transform="translate(.06 425.58)" xlink:href="#1P"/><use transform="translate(581.7 548.57)" xlink:href="#O"/><path d="m0 0l.06-.06c1.097-.661 1.869.621 1.2 1.56l-.12.12-.06-.78v-.18l-.06-.12-.06-.06v-.06l-.12-.06c-.608-.285-.819.38-.84.84v.42" fill-rule="evenodd" transform="translate(580.68 547.43)" id="1a"/><use transform="translate(579.36 547.37)" xlink:href="#P"/><use transform="translate(582.06 551.09)" xlink:href="#C"/><use transform="translate(579.36 554.27)" xlink:href="#N"/><use transform="translate(578.94 553.25)" xlink:href="#W"/><use transform="translate(581.4 555.83)" xlink:href="#G"/><use transform="translate(579.12 555.83)" xlink:href="#L"/><use transform="translate(577.98 560.51)" xlink:href="#H"/><use transform="translate(577.86 560.21)" xlink:href="#K"/><use transform="translate(581.4 562.73)" xlink:href="#G"/><use transform="translate(579.12 562.73)" xlink:href="#L"/><use transform="translate(577.98 565.67)" xlink:href="#H"/><use transform="translate(577.86 565.37)" xlink:href="#K"/><g transform="translate(585.06 9.831)"><g><g transform="translate(0 516.24)"><use xlink:href="#d"/><use transform="translate(0 57.12)" xlink:href="#d"/></g></g></g><use transform="translate(581.88 693.83)" xlink:href="#O"/><use transform="translate(.18 145.26)" xlink:href="#1a"/><path d="m0 0l.12-.06h.12l.06.06h.06v.06l-.06.12-.06.06-.06.12v.06l-.12.24v.36" fill-rule="evenodd" transform="translate(579.54 692.63)" id="1b"/><use transform="translate(579.6 698.09)" xlink:href="#S"/><use transform="translate(581.7 703.43)" xlink:href="#c"/><use transform="translate(-.12 40.681)" xlink:href="#1F"/><use transform="translate(581.7 713.75)" xlink:href="#c"/><use transform="translate(579.6 716.51)" xlink:href="#b"/><path d="m0 0v-.06l.06-.12v-.12l.06-.12.12-.06.06-.12.06-.06.12-.06.12-.12v.54l-.06.06v.18l-.06.48h-.3l-.06-.06-.06-.06v-.12l-.06-.12" fill-rule="evenodd" transform="translate(579.12 716.09)" id="1c"/><use transform="translate(.24 477.6)" xlink:href="#1Z"/><use transform="translate(581.7 722.51)" xlink:href="#c"/><use transform="translate(579.54 722.45)" xlink:href="#T"/><use transform="translate(581.82 724.97)" xlink:href="#D"/><use transform="translate(578.4 723.95)" xlink:href="#E"/><use transform="translate(-.12 71.94)" xlink:href="#1E"/><use transform="translate(.24 552.06)" xlink:href="#1V"/><use transform="translate(581.82 733.43)" xlink:href="#D"/><use transform="translate(578.4 732.41)" xlink:href="#E"/><use transform="translate(581.7 736.55)" xlink:href="#c"/><use transform="translate(579.18 737.87)" xlink:href="#M"/><use transform="translate(.24 589.62)" xlink:href="#1T"/><use transform="translate(581.88 743.75)" xlink:href="#O"/><use transform="translate(.24 534)" xlink:href="#1X"/><use transform="translate(0 49.921)" xlink:href="#1b"/><use transform="translate(579.6 747.47)" xlink:href="#b"/><use transform="translate(579.18 745.97)" xlink:href="#X"/><use transform="translate(0 30.96)" xlink:href="#1c"/><use transform="translate(585.06 685.07)" xlink:href="#d"/></g></svg>