<?xml version="1.0" encoding="UTF-8" standalone="no"?>
<!DOCTYPE svg PUBLIC "-//W3C//DTD SVG 1.1//EN" "http://www.w3.org/Graphics/SVG/1.1/DTD/svg11.dtd">
<!-- Generated by Microsoft Visio, SVG Export DNS_client_server_v2.svg Page-1 -->
<svg xmlns="http://www.w3.org/2000/svg" xmlns:xlink="http://www.w3.org/1999/xlink" xmlns:ev="http://www.w3.org/2001/xml-events"
		width="7.5605in" height="2.76334in" viewBox="0 0 1088.71 397.921" xml:space="preserve" color-interpolation-filters="sRGB"
		class="st12">
	<style type="text/css">
	<![CDATA[
		.st1 {fill:none}
		.st2 {stroke:#000000;stroke-linecap:round;stroke-linejoin:round;stroke-width:0.75}
		.st3 {fill:none;stroke:none;stroke-linecap:round;stroke-linejoin:round;stroke-width:0.75}
		.st4 {fill:#000000;font-family:Calibri;font-size:1.25983em}
		.st5 {font-size:1em}
		.st6 {fill:none;stroke:#000000;stroke-linecap:butt;stroke-width:0.75}
		.st7 {fill:#000000;font-family:Calibri;font-size:1.88976em}
		.st8 {fill:#000000;font-family:Calibri;font-size:0.944893em}
		.st9 {fill:#000000;font-family:Calibri;font-size:0.629929em}
		.st10 {fill:#000000;font-family:Calibri;font-size:0.472435em}
		.st11 {fill:none;stroke:#000000;stroke-linecap:round;stroke-linejoin:round;stroke-width:0.75}
		.st12 {fill:none;fill-rule:evenodd;font-size:12px;overflow:visible;stroke-linecap:square;stroke-miterlimit:3}
	]]>
	</style>

	<g>
		<title>Page-1</title>
		<g id="shape2-1">
			<title>DWG-D2D3DA72ECD7449DB8B6C5483A</title>
			<path d="M0 -0 L1088.71 -0 L1088.71 397.92 L0 397.92 L0 -0 Z" class="st1"/>
		</g>
		<g id="shape3-4" transform="translate(528.314,-105.118)">
			<title>Sheet.3</title>
			<path d="M0.23 397.92 C0.03 394.71 -0.18 391.49 0.23 388.28 C0.86 383.24 2.99 378.21 6.28 374.39 C11.53 368.29 19.74
						 365.26 28.03 363.85 C35.74 362.54 43.52 362.63 50.46 365.2 C54.21 366.58 57.72 368.69 61.22 370.8 L0.23
						 397.92 Z" class="st1"/>
			<path d="M0.23 397.92 C0.03 394.71 -0.18 391.49 0.23 388.28 C0.86 383.24 2.99 378.21 6.28 374.39 C11.53 368.29 19.74
						 365.26 28.03 363.85 C35.74 362.54 43.52 362.63 50.46 365.2 C54.21 366.58 57.72 368.69 61.22 370.8"
					class="st2"/>
		</g>
		<g id="shape4-7" transform="translate(582.061,-136.433)">
			<title>Sheet.4</title>
			<path d="M0 397.92 C2.22 395.43 4.56 393.1 7.25 391.36 C13.05 387.61 20.52 386.51 27.88 386.65 C33.49 386.76 39.03 387.58
						 43.58 390.24 C44.7 390.89 45.75 391.65 46.77 392.47 L0 397.92 Z" class="st1"/>
			<path d="M0 397.92 C2.22 395.43 4.56 393.1 7.25 391.36 C13.05 387.61 20.52 386.51 27.88 386.65 C33.49 386.76 39.03 387.58
						 43.58 390.24 C44.7 390.89 45.75 391.65 46.77 392.47" class="st2"/>
		</g>
		<g id="shape5-10" transform="translate(626.046,-138.15)">
			<title>Sheet.5</title>
			<path d="M0 397.92 C2.53 394.3 5.23 390.89 8.79 388.59 C15.63 384.18 25.67 383.88 33.46 387.02 C36.91 388.41 39.93 390.48
						 42.82 392.73 L0 397.92 Z" class="st1"/>
			<path d="M0 397.92 C2.53 394.3 5.23 390.89 8.79 388.59 C15.63 384.18 25.67 383.88 33.46 387.02 C36.91 388.41 39.93 390.48
						 42.82 392.73" class="st2"/>
		</g>
		<g id="shape6-13" transform="translate(663.867,-132.306)">
			<title>Sheet.6</title>
			<path d="M0 390.51 C4.18 387.35 8.42 384.32 13.17 382.25 C18.62 379.89 24.74 378.79 30.8 379.62 C35.59 380.28 40.33 382.14
						 43.7 385.23 C47.23 388.47 49.25 393.06 51 397.9 C51 397.9 51 397.91 51 397.91 C51 397.91 51 397.92 51 397.92
						 L0 390.51 Z" class="st1"/>
			<path d="M0 390.51 C4.18 387.35 8.42 384.32 13.17 382.25 C18.62 379.89 24.74 378.79 30.8 379.62 C35.59 380.28 40.33 382.14
						 43.7 385.23 C47.23 388.47 49.25 393.06 51 397.9 C51 397.9 51 397.91 51 397.91 C51 397.91 51 397.92 51 397.92"
					class="st2"/>
		</g>
		<g id="shape7-16" transform="translate(713.411,-98.7609)">
			<title>Sheet.7</title>
			<path d="M0 364.49 C2.67 364.27 3.89 364.24 5.12 364.31 C8.51 364.52 11.99 365.49 14.68 367.47 C17.77 369.73 19.83 373.32
						 21 377.11 C22.13 380.78 22.43 384.65 21.35 388.25 C20.5 391.05 18.82 393.69 16.61 395.53 C15.4 396.53 14.02
						 397.3 12.56 397.92 L0 364.49 Z" class="st1"/>
			<path d="M0 364.49 C2.67 364.27 3.89 364.24 5.12 364.31 C8.51 364.52 11.99 365.49 14.68 367.47 C17.77 369.73 19.83 373.32
						 21 377.11 C22.13 380.78 22.43 384.65 21.35 388.25 C20.5 391.05 18.82 393.69 16.61 395.53 C15.4 396.53 14.02
						 397.3 12.56 397.92" class="st2"/>
		</g>
		<g id="shape8-19" transform="translate(710.803,-64.6475)">
			<title>Sheet.8</title>
			<path d="M22.59 357.32 C25.24 360.32 27.66 363.42 28.99 367.09 C30.24 370.52 30.53 374.44 29.7 378.05 C28.92 381.37 27.19
						 384.43 24.96 386.99 C22.09 390.28 18.41 392.74 14.43 394.62 C10.78 396.35 6.87 397.6 2.94 397.86 C1.96 397.93
						 0.98 397.94 -0 397.89 L22.59 357.32 Z" class="st1"/>
			<path d="M22.59 357.32 C25.24 360.32 27.66 363.42 28.99 367.09 C30.24 370.52 30.53 374.44 29.7 378.05 C28.92 381.37 27.19
						 384.43 24.96 386.99 C22.09 390.28 18.41 392.74 14.43 394.62 C10.78 396.35 6.87 397.6 2.94 397.86 C1.96 397.93
						 0.98 397.94 -0 397.89" class="st2"/>
		</g>
		<g id="shape9-22" transform="translate(662.343,-38.9894)">
			<title>Sheet.9</title>
			<path d="M30.98 353.31 C35.04 355.26 39.1 357.21 42.2 360.26 C44.45 362.47 46.21 365.26 47.36 368.33 C48.82 372.22 49.32
						 376.57 48.26 380.44 C46.7 386.11 41.78 390.77 36.37 393.67 C29.69 397.24 22.24 398.11 14.83 397.93 C11.25
						 397.84 7.67 397.5 4.29 396.58 C2.83 396.18 1.4 395.67 0 395.07 L30.98 353.31 Z" class="st1"/>
			<path d="M30.98 353.31 C35.04 355.26 39.1 357.21 42.2 360.26 C44.45 362.47 46.21 365.26 47.36 368.33 C48.82 372.22 49.32
						 376.57 48.26 380.44 C46.7 386.11 41.78 390.77 36.37 393.67 C29.69 397.24 22.24 398.11 14.83 397.93 C11.25
						 397.84 7.67 397.5 4.29 396.58 C2.83 396.18 1.4 395.67 0 395.07" class="st2"/>
		</g>
		<g id="shape10-25" transform="translate(593.012,-24.7508)">
			<title>Sheet.10</title>
			<path d="M71.96 373.63 C70.53 378.43 68.78 382.98 65.77 386.6 C60.74 392.66 52.22 396.11 44.01 397.36 C37.03 398.43 30.28
						 397.89 23.38 396.47 C17.16 395.18 10.82 393.18 6.33 389.07 C3.84 386.8 1.92 383.88 0 380.97 L71.96 373.63
						 Z" class="st1"/>
			<path d="M71.96 373.63 C70.53 378.43 68.78 382.98 65.77 386.6 C60.74 392.66 52.22 396.11 44.01 397.36 C37.03 398.43 30.28
						 397.89 23.38 396.47 C17.16 395.18 10.82 393.18 6.33 389.07 C3.84 386.8 1.92 383.88 0 380.97" class="st2"/>
		</g>
		<g id="shape11-28" transform="translate(540.496,-30.3184)">
			<title>Sheet.11</title>
			<path d="M57.25 393.01 C57.22 393.02 57.2 393.03 57.18 393.04 C57.18 393.04 57.17 393.04 57.17 393.04 C52.59 394.75 47.96
						 396.25 43.14 397.1 C34.54 398.63 25.37 398.11 17.12 394.86 C11.38 392.6 6.08 389.02 2.32 384.32 C1.47 383.27
						 0.71 382.17 0 381.02 L57.25 393.01 Z" class="st1"/>
			<path d="M57.25 393.01 C57.22 393.02 57.2 393.03 57.18 393.04 C57.18 393.04 57.17 393.04 57.17 393.04 C52.59 394.75 47.96
						 396.25 43.14 397.1 C34.54 398.63 25.37 398.11 17.12 394.86 C11.38 392.6 6.08 389.02 2.32 384.32 C1.47 383.27
						 0.71 382.17 0 381.02" class="st2"/>
		</g>
		<g id="shape12-31" transform="translate(512.868,-47.1943)">
			<title>Sheet.12</title>
			<path d="M32.28 397.61 C29.12 397.89 25.9 398.03 22.54 397.84 C15.35 397.42 7.54 395.52 3.47 390.21 C1.54 387.68 0.45
						 384.37 0.11 381.02 C-0.18 378.24 0.04 375.42 1.01 372.95 C1.78 370.96 3.04 369.19 4.47 367.5 L32.28 397.61
						 Z" class="st1"/>
			<path d="M32.28 397.61 C29.12 397.89 25.9 398.03 22.54 397.84 C15.35 397.42 7.54 395.52 3.47 390.21 C1.54 387.68 0.45
						 384.37 0.11 381.02 C-0.18 378.24 0.04 375.42 1.01 372.95 C1.78 370.96 3.04 369.19 4.47 367.5" class="st2"/>
		</g>
		<g id="shape13-34" transform="translate(506.334,-73.612)">
			<title>Sheet.13</title>
			<path d="M24.54 397.92 C21.37 397.32 18.24 396.59 15.17 395.56 C11.34 394.27 7.61 392.52 4.62 389.73 C2.54 387.78 0.82
						 385.32 0.22 382.56 C-0.46 379.4 0.34 375.84 2.06 373.09 C5.02 368.4 10.69 366.08 16.1 364.41 C18.1 363.8
						 20.06 363.27 22.01 362.77 L24.54 397.92 Z" class="st1"/>
			<path d="M24.54 397.92 C21.37 397.32 18.24 396.59 15.17 395.56 C11.34 394.27 7.61 392.52 4.62 389.73 C2.54 387.78 0.82
						 385.32 0.22 382.56 C-0.46 379.4 0.34 375.84 2.06 373.09 C5.02 368.4 10.69 366.08 16.1 364.41 C18.1 363.8
						 20.06 363.27 22.01 362.77" class="st2"/>
		</g>
		<g id="shape14-37" transform="translate(63.9902,-104.37)">
			<title>Sheet.14</title>
			<desc>DNS client</desc>
			<rect x="0" y="382.803" width="197.596" height="15.1181" class="st3"/>
			<text x="0" y="392.63" class="st4">DNS <tspan x="0" dy="1.2em" class="st5">client</tspan></text>		</g>
		<g id="shape15-41" transform="translate(49.5684,-34.4247)">
			<title>Sheet.15</title>
			<path d="M0 291.61 L225.81 291.61 L225.81 397.92 L0 397.92 L0 291.61 Z" class="st6"/>
		</g>
		<g id="shape16-43" transform="translate(523.363,-79.3166)">
			<title>Sheet.16</title>
			<desc>Internet</desc>
			<rect x="0" y="375.244" width="197.596" height="22.6772" class="st3"/>
			<text x="61.19" y="393.39" class="st7">Internet</text>		</g>
		<g id="shape17-46" transform="translate(330.526,-34.4247)">
			<title>Sheet.17</title>
			<path d="M0 291.61 L69.26 291.61 L69.26 397.92 L0 397.92 L0 291.61 Z" class="st6"/>
		</g>
		<g id="shape18-48" transform="translate(265.935,-84.4815)">
			<title>Sheet.18</title>
			<desc>BLE enabled router</desc>
			<rect x="0" y="386.582" width="197.596" height="11.3386" class="st3"/>
			<text x="90.56" y="382.05" class="st8">BLE <tspan x="80.2" dy="1.2em" class="st5">enabled </tspan><tspan x="84.16"
						dy="1.2em" class="st5">router</tspan></text>		</g>
		<g id="shape19-53" transform="translate(690.312,301.837) rotate(90)">
			<title>Sheet.19</title>
			<path d="M0 397.92 L4.25 397.92" class="st2"/>
		</g>
		<g id="shape20-56" transform="translate(690.312,314.593) rotate(90)">
			<title>Sheet.20</title>
			<path d="M0 397.92 L4.25 397.92" class="st2"/>
		</g>
		<g id="shape21-59" transform="translate(470.347,657.748) rotate(153.435)">
			<title>Sheet.21</title>
			<path d="M0 397.92 L19.02 397.92" class="st2"/>
		</g>
		<g id="shape22-62" transform="translate(453.339,-45.5699) rotate(26.5651)">
			<title>Sheet.22</title>
			<path d="M0 397.92 L19.02 397.92" class="st2"/>
		</g>
		<g id="shape23-65" transform="translate(292.391,-91.8315)">
			<title>Sheet.23</title>
			<path d="M0 397.92 L21.13 397.92" class="st2"/>
		</g>
		<g id="shape24-68" transform="translate(313.518,712.514) rotate(180)">
			<title>Sheet.24</title>
			<path d="M0 397.92 L21.13 397.92" class="st2"/>
		</g>
		<g id="shape25-71" transform="translate(711.439,301.837) rotate(90)">
			<title>Sheet.25</title>
			<path d="M0 397.92 L4.25 397.92" class="st2"/>
		</g>
		<g id="shape26-74" transform="translate(711.439,314.593) rotate(90)">
			<title>Sheet.26</title>
			<path d="M0 397.92 L4.25 397.92" class="st2"/>
		</g>
		<g id="shape27-77" transform="translate(491.473,-54.0738) rotate(26.5651)">
			<title>Sheet.27</title>
			<path d="M0 397.92 L19.02 397.92" class="st2"/>
		</g>
		<g id="shape28-80" transform="translate(508.481,666.252) rotate(153.435)">
			<title>Sheet.28</title>
			<path d="M0 397.92 L19.02 397.92" class="st2"/>
		</g>
		<g id="shape29-83" transform="translate(886.887,301.837) rotate(90)">
			<title>Sheet.29</title>
			<path d="M0 397.92 L4.25 397.92" class="st2"/>
		</g>
		<g id="shape30-86" transform="translate(886.887,314.593) rotate(90)">
			<title>Sheet.30</title>
			<path d="M0 397.92 L4.25 397.92" class="st2"/>
		</g>
		<g id="shape31-89" transform="translate(666.922,-54.0738) rotate(26.5651)">
			<title>Sheet.31</title>
			<path d="M0 397.92 L19.02 397.92" class="st2"/>
		</g>
		<g id="shape32-92" transform="translate(683.93,666.252) rotate(153.435)">
			<title>Sheet.32</title>
			<path d="M0 397.92 L19.02 397.92" class="st2"/>
		</g>
		<g id="shape33-95" transform="translate(814.715,301.837) rotate(90)">
			<title>Sheet.33</title>
			<path d="M0 397.92 L4.25 397.92" class="st2"/>
		</g>
		<g id="shape34-98" transform="translate(814.715,314.593) rotate(90)">
			<title>Sheet.34</title>
			<path d="M0 397.92 L4.25 397.92" class="st2"/>
		</g>
		<g id="shape35-101" transform="translate(594.75,657.748) rotate(153.435)">
			<title>Sheet.35</title>
			<path d="M0 397.92 L19.02 397.92" class="st2"/>
		</g>
		<g id="shape36-104" transform="translate(577.742,-45.5699) rotate(26.5651)">
			<title>Sheet.36</title>
			<path d="M0 397.92 L19.02 397.92" class="st2"/>
		</g>
		<g id="shape37-107" transform="translate(416.794,-91.8315)">
			<title>Sheet.37</title>
			<path d="M0 397.92 L72.17 397.92" class="st2"/>
		</g>
		<g id="shape38-110" transform="translate(488.966,712.514) rotate(180)">
			<title>Sheet.38</title>
			<path d="M0 397.92 L72.17 397.92" class="st2"/>
		</g>
		<g id="shape39-113" transform="translate(1157.07,301.837) rotate(90)">
			<title>Sheet.39</title>
			<path d="M0 397.92 L4.25 397.92" class="st2"/>
		</g>
		<g id="shape40-116" transform="translate(1157.07,314.593) rotate(90)">
			<title>Sheet.40</title>
			<path d="M0 397.92 L4.25 397.92" class="st2"/>
		</g>
		<g id="shape41-119" transform="translate(937.106,657.748) rotate(153.435)">
			<title>Sheet.41</title>
			<path d="M0 397.92 L19.02 397.92" class="st2"/>
		</g>
		<g id="shape42-122" transform="translate(920.098,-45.5699) rotate(26.5651)">
			<title>Sheet.42</title>
			<path d="M0 397.92 L19.02 397.92" class="st2"/>
		</g>
		<g id="shape43-125" transform="translate(1229.24,301.837) rotate(90)">
			<title>Sheet.43</title>
			<path d="M0 397.92 L4.25 397.92" class="st2"/>
		</g>
		<g id="shape44-128" transform="translate(1229.24,314.593) rotate(90)">
			<title>Sheet.44</title>
			<path d="M0 397.92 L4.25 397.92" class="st2"/>
		</g>
		<g id="shape45-131" transform="translate(1009.28,-54.0738) rotate(26.5651)">
			<title>Sheet.45</title>
			<path d="M0 397.92 L19.02 397.92" class="st2"/>
		</g>
		<g id="shape46-134" transform="translate(1026.29,666.252) rotate(153.435)">
			<title>Sheet.46</title>
			<path d="M0 397.92 L19.02 397.92" class="st2"/>
		</g>
		<g id="shape47-137" transform="translate(831.322,704.01) rotate(180)">
			<title>Sheet.47</title>
			<path d="M0 397.92 L72.17 397.92" class="st2"/>
		</g>
		<g id="shape48-140" transform="translate(759.15,-83.3275)">
			<title>Sheet.48</title>
			<path d="M0 397.92 L72.17 397.92" class="st2"/>
		</g>
		<g id="shape49-143" transform="translate(385.401,-96.866)">
			<title>Sheet.49</title>
			<desc>UDP/ICMPv6/IPv6</desc>
			<rect x="0" y="386.582" width="135.084" height="11.3386" class="st3"/>
			<text x="25.66" y="397.35" class="st8">UDP/ICMPv6/IPv6</text>		</g>
		<g id="shape50-146" transform="translate(727.757,-96.866)">
			<title>Sheet.50</title>
			<desc>UDP/IPv6</desc>
			<rect x="0" y="386.582" width="135.084" height="11.3386" class="st3"/>
			<text x="45.51" y="397.35" class="st8">UDP/IPv6</text>		</g>
		<g id="shape51-149" transform="translate(57.6761,-42.3742)">
			<title>Sheet.51</title>
			<path d="M0 308.76 L209.33 308.76 L209.33 397.92 L0 397.92 L0 308.76 Z" class="st6"/>
		</g>
		<g id="shape52-151" transform="translate(235.476,-97.0003)">
			<title>Sheet.52</title>
			<desc>BLE 6lowpan</desc>
			<rect x="0" y="390.362" width="135.084" height="7.55906" class="st3"/>
			<text x="47.94" y="397.54" class="st9">BLE 6lowpan</text>		</g>
		<g id="shape53-154" transform="translate(206.952,-83.6295)">
			<title>Sheet.53</title>
			<path d="M0 397.92 L22.68 397.92 L22.68 362.7 L0 362.7 L0 397.92 Z" class="st6"/>
		</g>
		<g id="shape54-156" transform="translate(211.259,-103)">
			<title>Sheet.54</title>
			<path d="M12.44 397.92 A7.04425 7.04425 -180 1 0 1.62 397.92 L12.44 397.92 Z" class="st1"/>
			<path d="M12.44 397.92 A7.04425 7.04425 -180 1 0 1.62 397.92" class="st2"/>
		</g>
		<g id="shape55-159" transform="translate(206.254,-120.782)">
			<title>Sheet.55</title>
			<desc>Light 3</desc>
			<rect x="0" y="392.251" width="24.2894" height="5.66929" class="st3"/>
			<text x="4.45" y="397.64" class="st10">Light 3</text>		</g>
		<g id="shape56-162" transform="translate(238.252,-120.782)">
			<title>Sheet.56</title>
			<desc>Light 4</desc>
			<rect x="0" y="392.251" width="24.2894" height="5.66929" class="st3"/>
			<text x="4.45" y="397.64" class="st10">Light 4</text>		</g>
		<g id="shape57-165" transform="translate(215.071,-93.9808)">
			<title>Sheet.57</title>
			<path d="M0 397.92 L6.44 397.92" class="st2"/>
		</g>
		<g id="shape58-168" transform="translate(212.881,-93.9808)">
			<title>Sheet.58</title>
			<path d="M2.19 397.92 A17.0418 17.0418 -180 0 0 0 388.9 L2.19 397.92 Z" class="st1"/>
			<path d="M2.19 397.92 A17.0418 17.0418 -180 0 0 0 388.9" class="st2"/>
		</g>
		<g id="shape59-171" transform="translate(221.511,-93.9808)">
			<title>Sheet.59</title>
			<path d="M2.19 388.9 A17.0418 17.0418 -180 0 0 -0 397.92 L2.19 388.9 Z" class="st1"/>
			<path d="M2.19 388.9 A17.0418 17.0418 -180 0 0 -0 397.92" class="st2"/>
		</g>
		<g id="shape60-174" transform="translate(215.071,-88.2416)">
			<title>Sheet.60</title>
			<path d="M0 397.92 L6.44 397.92" class="st2"/>
		</g>
		<g id="shape61-177" transform="translate(215.664,-87.6789)">
			<title>Sheet.61</title>
			<path d="M0 397.92 L5.25 397.92" class="st2"/>
		</g>
		<g id="shape62-180" transform="translate(-58.0492,599.07) rotate(-136.539)">
			<title>Sheet.62</title>
			<path d="M0 397.92 L0.82 397.92" class="st2"/>
		</g>
		<g id="shape63-183" transform="translate(-52.7962,21.4136) rotate(-43.4609)">
			<title>Sheet.63</title>
			<path d="M0 397.92 L0.82 397.92" class="st2"/>
		</g>
		<g id="shape64-186" transform="translate(612.991,303.94) rotate(90)">
			<title>Sheet.64</title>
			<path d="M0 397.92 L0.93 397.92" class="st2"/>
		</g>
		<g id="shape65-189" transform="translate(-182.85,309.679) rotate(-90)">
			<title>Sheet.65</title>
			<path d="M0 397.92 L0.69 397.92" class="st2"/>
		</g>
		<g id="shape66-192" transform="translate(-64.6493,592) rotate(-135.336)">
			<title>Sheet.66</title>
			<path d="M0 397.92 L0.45 397.92" class="st2"/>
		</g>
		<g id="shape67-195" transform="translate(-64.9725,25.4485) rotate(-44.6645)">
			<title>Sheet.67</title>
			<path d="M0 397.92 L0.45 397.92" class="st2"/>
		</g>
		<g id="shape68-198" transform="translate(214.705,-89.2554)">
			<title>Sheet.68</title>
			<path d="M0.04 397.72 a0.141732 0.141732 -180 0 0 -1.40166E-015 0.20161 L0.04 397.72 Z" class="st1"/>
			<path d="M0.04 397.72 a0.141732 0.141732 -180 0 0 -1.40166E-015 0.20161" class="st2"/>
		</g>
		<g id="shape69-201" transform="translate(-58.2088,25.3912) rotate(-44.6645)">
			<title>Sheet.69</title>
			<path d="M0 397.92 L0.45 397.92" class="st2"/>
		</g>
		<g id="shape70-204" transform="translate(-57.8856,590.901) rotate(-135.336)">
			<title>Sheet.70</title>
			<path d="M0 397.92 L0.45 397.92" class="st2"/>
		</g>
		<g id="shape71-207" transform="translate(221.834,-89.8337)">
			<title>Sheet.71</title>
			<path d="M0 397.92 a0.141732 0.141732 -180 0 0 0 -0.20161 L0 397.92 Z" class="st1"/>
			<path d="M0 397.92 a0.141732 0.141732 -180 0 0 0 -0.20161" class="st2"/>
		</g>
		<g id="shape72-210" transform="translate(-64.6493,590.909) rotate(-135.336)">
			<title>Sheet.72</title>
			<path d="M0 397.92 L0.45 397.92" class="st2"/>
		</g>
		<g id="shape73-213" transform="translate(-64.9725,24.3576) rotate(-44.6645)">
			<title>Sheet.73</title>
			<path d="M0 397.92 L0.45 397.92" class="st2"/>
		</g>
		<g id="shape74-216" transform="translate(214.705,-90.3463)">
			<title>Sheet.74</title>
			<path d="M0.04 397.72 a0.141732 0.141732 -180 0 0 -1.41553E-015 0.20161 L0.04 397.72 Z" class="st1"/>
			<path d="M0.04 397.72 a0.141732 0.141732 -180 0 0 -1.41553E-015 0.20161" class="st2"/>
		</g>
		<g id="shape75-219" transform="translate(-58.2088,24.3003) rotate(-44.6645)">
			<title>Sheet.75</title>
			<path d="M0 397.92 L0.45 397.92" class="st2"/>
		</g>
		<g id="shape76-222" transform="translate(-57.8856,589.81) rotate(-135.336)">
			<title>Sheet.76</title>
			<path d="M0 397.92 L0.45 397.92" class="st2"/>
		</g>
		<g id="shape77-225" transform="translate(221.834,-90.9246)">
			<title>Sheet.77</title>
			<path d="M0 397.92 a0.141732 0.141732 -180 0 0 0 -0.20161 L0 397.92 Z" class="st1"/>
			<path d="M0 397.92 a0.141732 0.141732 -180 0 0 0 -0.20161" class="st2"/>
		</g>
		<g id="shape78-228" transform="translate(-64.6493,589.818) rotate(-135.336)">
			<title>Sheet.78</title>
			<path d="M0 397.92 L0.45 397.92" class="st2"/>
		</g>
		<g id="shape79-231" transform="translate(-64.9725,23.2667) rotate(-44.6645)">
			<title>Sheet.79</title>
			<path d="M0 397.92 L0.45 397.92" class="st2"/>
		</g>
		<g id="shape80-234" transform="translate(214.705,-91.4372)">
			<title>Sheet.80</title>
			<path d="M0.04 397.72 a0.141732 0.141732 -180 0 0 -1.40166E-015 0.20161 L0.04 397.72 Z" class="st1"/>
			<path d="M0.04 397.72 a0.141732 0.141732 -180 0 0 -1.40166E-015 0.20161" class="st2"/>
		</g>
		<g id="shape81-237" transform="translate(-58.2088,23.2094) rotate(-44.6645)">
			<title>Sheet.81</title>
			<path d="M0 397.92 L0.45 397.92" class="st2"/>
		</g>
		<g id="shape82-240" transform="translate(-57.8856,588.719) rotate(-135.336)">
			<title>Sheet.82</title>
			<path d="M0 397.92 L0.45 397.92" class="st2"/>
		</g>
		<g id="shape83-243" transform="translate(221.834,-92.0155)">
			<title>Sheet.83</title>
			<path d="M0 397.92 a0.141732 0.141732 -180 0 0 0 -0.20161 L0 397.92 Z" class="st1"/>
			<path d="M0 397.92 a0.141732 0.141732 -180 0 0 0 -0.20161" class="st2"/>
		</g>
		<g id="shape84-246" transform="translate(-64.6493,588.727) rotate(-135.336)">
			<title>Sheet.84</title>
			<path d="M0 397.92 L0.45 397.92" class="st2"/>
		</g>
		<g id="shape85-249" transform="translate(-64.9725,22.1758) rotate(-44.6645)">
			<title>Sheet.85</title>
			<path d="M0 397.92 L0.45 397.92" class="st2"/>
		</g>
		<g id="shape86-252" transform="translate(214.705,-92.5281)">
			<title>Sheet.86</title>
			<path d="M0.04 397.72 a0.141732 0.141732 -180 0 0 -1.40166E-015 0.20161 L0.04 397.72 Z" class="st1"/>
			<path d="M0.04 397.72 a0.141732 0.141732 -180 0 0 -1.40166E-015 0.20161" class="st2"/>
		</g>
		<g id="shape87-255" transform="translate(-58.2088,22.1186) rotate(-44.6645)">
			<title>Sheet.87</title>
			<path d="M0 397.92 L0.45 397.92" class="st2"/>
		</g>
		<g id="shape88-258" transform="translate(-57.8856,587.628) rotate(-135.336)">
			<title>Sheet.88</title>
			<path d="M0 397.92 L0.45 397.92" class="st2"/>
		</g>
		<g id="shape89-261" transform="translate(221.834,-93.1064)">
			<title>Sheet.89</title>
			<path d="M0 397.92 a0.141732 0.141732 -180 0 0 0 -0.20161 L0 397.92 Z" class="st1"/>
			<path d="M0 397.92 a0.141732 0.141732 -180 0 0 0 -0.20161" class="st2"/>
		</g>
		<g id="shape90-264" transform="translate(179.483,-91.4546) rotate(-5.131)">
			<title>Sheet.90</title>
			<path d="M0 397.92 L6.47 397.92" class="st2"/>
		</g>
		<g id="shape91-267" transform="translate(179.483,-90.6141) rotate(-5.131)">
			<title>Sheet.91</title>
			<path d="M0 397.92 L6.47 397.92" class="st2"/>
		</g>
		<g id="shape92-270" transform="translate(179.483,-90.3637) rotate(-5.131)">
			<title>Sheet.92</title>
			<path d="M0 397.92 L6.47 397.92" class="st2"/>
		</g>
		<g id="shape93-273" transform="translate(179.483,-89.5232) rotate(-5.131)">
			<title>Sheet.93</title>
			<path d="M0 397.92 L6.47 397.92" class="st2"/>
		</g>
		<g id="shape94-276" transform="translate(179.483,-89.2728) rotate(-5.131)">
			<title>Sheet.94</title>
			<path d="M0 397.92 L6.47 397.92" class="st2"/>
		</g>
		<g id="shape95-279" transform="translate(179.483,-88.4323) rotate(-5.131)">
			<title>Sheet.95</title>
			<path d="M0 397.92 L6.47 397.92" class="st2"/>
		</g>
		<g id="shape96-282" transform="translate(179.483,-88.1819) rotate(-5.131)">
			<title>Sheet.96</title>
			<path d="M0 397.92 L6.47 397.92" class="st2"/>
		</g>
		<g id="shape97-285" transform="translate(179.483,-87.3414) rotate(-5.131)">
			<title>Sheet.97</title>
			<path d="M0 397.92 L6.47 397.92" class="st2"/>
		</g>
		<g id="shape98-288" transform="translate(612.991,305.712) rotate(90)">
			<title>Sheet.98</title>
			<path d="M0 397.92 L0.25 397.92" class="st2"/>
		</g>
		<g id="shape99-291" transform="translate(612.991,306.803) rotate(90)">
			<title>Sheet.99</title>
			<path d="M0 397.92 L0.25 397.92" class="st2"/>
		</g>
		<g id="shape100-294" transform="translate(612.991,307.894) rotate(90)">
			<title>Sheet.100</title>
			<path d="M0 397.92 L0.25 397.92" class="st2"/>
		</g>
		<g id="shape101-297" transform="translate(-176.41,307.566) rotate(-90)">
			<title>Sheet.101</title>
			<path d="M0 397.92 L0.25 397.92" class="st2"/>
		</g>
		<g id="shape102-300" transform="translate(-176.41,306.475) rotate(-90)">
			<title>Sheet.102</title>
			<path d="M0 397.92 L0.25 397.92" class="st2"/>
		</g>
		<g id="shape103-303" transform="translate(-176.41,305.384) rotate(-90)">
			<title>Sheet.103</title>
			<path d="M0 397.92 L0.25 397.92" class="st2"/>
		</g>
		<g id="shape104-306" transform="translate(619.432,303.94) rotate(90)">
			<title>Sheet.104</title>
			<path d="M0 397.92 L0.35 397.92" class="st2"/>
		</g>
		<g id="shape105-309" transform="translate(619.432,308.406) rotate(90)">
			<title>Sheet.105</title>
			<path d="M0 397.92 L1.27 397.92" class="st2"/>
		</g>
		<g id="shape106-312" transform="translate(217.657,-87.4263)">
			<title>Sheet.106</title>
			<path d="M0 397.92 L1.27 397.92" class="st2"/>
		</g>
		<g id="shape107-315" transform="translate(-55.5321,599.819) rotate(-136.643)">
			<title>Sheet.107</title>
			<path d="M0 397.92 L0.37 397.92" class="st2"/>
		</g>
		<g id="shape108-318" transform="translate(-54.2648,21.1703) rotate(-43.357)">
			<title>Sheet.108</title>
			<path d="M0 397.92 L0.37 397.92" class="st2"/>
		</g>
		<g id="shape109-321" transform="translate(238.95,-83.6295)">
			<title>Sheet.109</title>
			<path d="M0 397.92 L22.68 397.92 L22.68 362.7 L0 362.7 L0 397.92 Z" class="st6"/>
		</g>
		<g id="shape110-323" transform="translate(243.257,-103)">
			<title>Sheet.110</title>
			<path d="M12.44 397.92 A7.04425 7.04425 -180 1 0 1.62 397.92 L12.44 397.92 Z" class="st1"/>
			<path d="M12.44 397.92 A7.04425 7.04425 -180 1 0 1.62 397.92" class="st2"/>
		</g>
		<g id="shape111-326" transform="translate(247.068,-93.9808)">
			<title>Sheet.111</title>
			<path d="M0 397.92 L6.44 397.92" class="st2"/>
		</g>
		<g id="shape112-329" transform="translate(244.878,-93.9808)">
			<title>Sheet.112</title>
			<path d="M2.19 397.92 A17.0418 17.0418 -180 0 0 -0 388.9 L2.19 397.92 Z" class="st1"/>
			<path d="M2.19 397.92 A17.0418 17.0418 -180 0 0 -0 388.9" class="st2"/>
		</g>
		<g id="shape113-332" transform="translate(253.509,-93.9808)">
			<title>Sheet.113</title>
			<path d="M2.19 388.9 A17.0418 17.0418 -180 0 0 0 397.92 L2.19 388.9 Z" class="st1"/>
			<path d="M2.19 388.9 A17.0418 17.0418 -180 0 0 0 397.92" class="st2"/>
		</g>
		<g id="shape114-335" transform="translate(247.068,-88.2416)">
			<title>Sheet.114</title>
			<path d="M0 397.92 L6.44 397.92" class="st2"/>
		</g>
		<g id="shape115-338" transform="translate(247.662,-87.6789)">
			<title>Sheet.115</title>
			<path d="M0 397.92 L5.25 397.92" class="st2"/>
		</g>
		<g id="shape116-341" transform="translate(-26.0514,599.07) rotate(-136.539)">
			<title>Sheet.116</title>
			<path d="M0 397.92 L0.82 397.92" class="st2"/>
		</g>
		<g id="shape117-344" transform="translate(-20.7985,21.4136) rotate(-43.4609)">
			<title>Sheet.117</title>
			<path d="M0 397.92 L0.82 397.92" class="st2"/>
		</g>
		<g id="shape118-347" transform="translate(644.989,303.94) rotate(90)">
			<title>Sheet.118</title>
			<path d="M0 397.92 L0.93 397.92" class="st2"/>
		</g>
		<g id="shape119-350" transform="translate(-150.852,309.679) rotate(-90)">
			<title>Sheet.119</title>
			<path d="M0 397.92 L0.69 397.92" class="st2"/>
		</g>
		<g id="shape120-353" transform="translate(-32.6515,592) rotate(-135.336)">
			<title>Sheet.120</title>
			<path d="M0 397.92 L0.45 397.92" class="st2"/>
		</g>
		<g id="shape121-356" transform="translate(-32.9747,25.4485) rotate(-44.6645)">
			<title>Sheet.121</title>
			<path d="M0 397.92 L0.45 397.92" class="st2"/>
		</g>
		<g id="shape122-359" transform="translate(246.703,-89.2554)">
			<title>Sheet.122</title>
			<path d="M0.04 397.72 a0.141732 0.141732 -180 0 0 -1.40166E-015 0.20161 L0.04 397.72 Z" class="st1"/>
			<path d="M0.04 397.72 a0.141732 0.141732 -180 0 0 -1.40166E-015 0.20161" class="st2"/>
		</g>
		<g id="shape123-362" transform="translate(-26.2111,25.3912) rotate(-44.6645)">
			<title>Sheet.123</title>
			<path d="M0 397.92 L0.45 397.92" class="st2"/>
		</g>
		<g id="shape124-365" transform="translate(-25.8879,590.901) rotate(-135.336)">
			<title>Sheet.124</title>
			<path d="M0 397.92 L0.45 397.92" class="st2"/>
		</g>
		<g id="shape125-368" transform="translate(253.832,-89.8337)">
			<title>Sheet.125</title>
			<path d="M0 397.92 a0.141732 0.141732 -180 0 0 0 -0.20161 L0 397.92 Z" class="st1"/>
			<path d="M0 397.92 a0.141732 0.141732 -180 0 0 0 -0.20161" class="st2"/>
		</g>
		<g id="shape126-371" transform="translate(-32.6515,590.909) rotate(-135.336)">
			<title>Sheet.126</title>
			<path d="M0 397.92 L0.45 397.92" class="st2"/>
		</g>
		<g id="shape127-374" transform="translate(-32.9747,24.3576) rotate(-44.6645)">
			<title>Sheet.127</title>
			<path d="M0 397.92 L0.45 397.92" class="st2"/>
		</g>
		<g id="shape128-377" transform="translate(246.703,-90.3463)">
			<title>Sheet.128</title>
			<path d="M0.04 397.72 a0.141732 0.141732 -180 0 0 -1.41553E-015 0.20161 L0.04 397.72 Z" class="st1"/>
			<path d="M0.04 397.72 a0.141732 0.141732 -180 0 0 -1.41553E-015 0.20161" class="st2"/>
		</g>
		<g id="shape129-380" transform="translate(-26.2111,24.3003) rotate(-44.6645)">
			<title>Sheet.129</title>
			<path d="M0 397.92 L0.45 397.92" class="st2"/>
		</g>
		<g id="shape130-383" transform="translate(-25.8879,589.81) rotate(-135.336)">
			<title>Sheet.130</title>
			<path d="M0 397.92 L0.45 397.92" class="st2"/>
		</g>
		<g id="shape131-386" transform="translate(253.832,-90.9246)">
			<title>Sheet.131</title>
			<path d="M0 397.92 a0.141732 0.141732 -180 0 0 0 -0.20161 L0 397.92 Z" class="st1"/>
			<path d="M0 397.92 a0.141732 0.141732 -180 0 0 0 -0.20161" class="st2"/>
		</g>
		<g id="shape132-389" transform="translate(-32.6515,589.818) rotate(-135.336)">
			<title>Sheet.132</title>
			<path d="M0 397.92 L0.45 397.92" class="st2"/>
		</g>
		<g id="shape133-392" transform="translate(-32.9747,23.2667) rotate(-44.6645)">
			<title>Sheet.133</title>
			<path d="M0 397.92 L0.45 397.92" class="st2"/>
		</g>
		<g id="shape134-395" transform="translate(246.703,-91.4372)">
			<title>Sheet.134</title>
			<path d="M0.04 397.72 a0.141732 0.141732 -180 0 0 -1.40166E-015 0.20161 L0.04 397.72 Z" class="st1"/>
			<path d="M0.04 397.72 a0.141732 0.141732 -180 0 0 -1.40166E-015 0.20161" class="st2"/>
		</g>
		<g id="shape135-398" transform="translate(-26.2111,23.2094) rotate(-44.6645)">
			<title>Sheet.135</title>
			<path d="M0 397.92 L0.45 397.92" class="st2"/>
		</g>
		<g id="shape136-401" transform="translate(-25.8879,588.719) rotate(-135.336)">
			<title>Sheet.136</title>
			<path d="M0 397.92 L0.45 397.92" class="st2"/>
		</g>
		<g id="shape137-404" transform="translate(253.832,-92.0155)">
			<title>Sheet.137</title>
			<path d="M0 397.92 a0.141732 0.141732 -180 0 0 0 -0.20161 L0 397.92 Z" class="st1"/>
			<path d="M0 397.92 a0.141732 0.141732 -180 0 0 0 -0.20161" class="st2"/>
		</g>
		<g id="shape138-407" transform="translate(-32.6515,588.727) rotate(-135.336)">
			<title>Sheet.138</title>
			<path d="M0 397.92 L0.45 397.92" class="st2"/>
		</g>
		<g id="shape139-410" transform="translate(-32.9747,22.1758) rotate(-44.6645)">
			<title>Sheet.139</title>
			<path d="M0 397.92 L0.45 397.92" class="st2"/>
		</g>
		<g id="shape140-413" transform="translate(246.703,-92.5281)">
			<title>Sheet.140</title>
			<path d="M0.04 397.72 a0.141732 0.141732 -180 0 0 -1.40166E-015 0.20161 L0.04 397.72 Z" class="st1"/>
			<path d="M0.04 397.72 a0.141732 0.141732 -180 0 0 -1.40166E-015 0.20161" class="st2"/>
		</g>
		<g id="shape141-416" transform="translate(-26.2111,22.1186) rotate(-44.6645)">
			<title>Sheet.141</title>
			<path d="M0 397.92 L0.45 397.92" class="st2"/>
		</g>
		<g id="shape142-419" transform="translate(-25.8879,587.628) rotate(-135.336)">
			<title>Sheet.142</title>
			<path d="M0 397.92 L0.45 397.92" class="st2"/>
		</g>
		<g id="shape143-422" transform="translate(253.832,-93.1064)">
			<title>Sheet.143</title>
			<path d="M0 397.92 a0.141732 0.141732 -180 0 0 0 -0.20161 L0 397.92 Z" class="st1"/>
			<path d="M0 397.92 a0.141732 0.141732 -180 0 0 0 -0.20161" class="st2"/>
		</g>
		<g id="shape144-425" transform="translate(211.481,-91.4546) rotate(-5.131)">
			<title>Sheet.144</title>
			<path d="M0 397.92 L6.47 397.92" class="st2"/>
		</g>
		<g id="shape145-428" transform="translate(211.481,-90.6141) rotate(-5.131)">
			<title>Sheet.145</title>
			<path d="M0 397.92 L6.47 397.92" class="st2"/>
		</g>
		<g id="shape146-431" transform="translate(211.481,-90.3637) rotate(-5.131)">
			<title>Sheet.146</title>
			<path d="M0 397.92 L6.47 397.92" class="st2"/>
		</g>
		<g id="shape147-434" transform="translate(211.481,-89.5232) rotate(-5.131)">
			<title>Sheet.147</title>
			<path d="M0 397.92 L6.47 397.92" class="st2"/>
		</g>
		<g id="shape148-437" transform="translate(211.481,-89.2728) rotate(-5.131)">
			<title>Sheet.148</title>
			<path d="M0 397.92 L6.47 397.92" class="st2"/>
		</g>
		<g id="shape149-440" transform="translate(211.481,-88.4323) rotate(-5.131)">
			<title>Sheet.149</title>
			<path d="M0 397.92 L6.47 397.92" class="st2"/>
		</g>
		<g id="shape150-443" transform="translate(211.481,-88.1819) rotate(-5.131)">
			<title>Sheet.150</title>
			<path d="M0 397.92 L6.47 397.92" class="st2"/>
		</g>
		<g id="shape151-446" transform="translate(211.481,-87.3414) rotate(-5.131)">
			<title>Sheet.151</title>
			<path d="M0 397.92 L6.47 397.92" class="st2"/>
		</g>
		<g id="shape152-449" transform="translate(644.989,305.712) rotate(90)">
			<title>Sheet.152</title>
			<path d="M0 397.92 L0.25 397.92" class="st2"/>
		</g>
		<g id="shape153-452" transform="translate(644.989,306.803) rotate(90)">
			<title>Sheet.153</title>
			<path d="M0 397.92 L0.25 397.92" class="st2"/>
		</g>
		<g id="shape154-455" transform="translate(644.989,307.894) rotate(90)">
			<title>Sheet.154</title>
			<path d="M0 397.92 L0.25 397.92" class="st2"/>
		</g>
		<g id="shape155-458" transform="translate(-144.412,307.566) rotate(-90)">
			<title>Sheet.155</title>
			<path d="M0 397.92 L0.25 397.92" class="st2"/>
		</g>
		<g id="shape156-461" transform="translate(-144.412,306.475) rotate(-90)">
			<title>Sheet.156</title>
			<path d="M0 397.92 L0.25 397.92" class="st2"/>
		</g>
		<g id="shape157-464" transform="translate(-144.412,305.384) rotate(-90)">
			<title>Sheet.157</title>
			<path d="M0 397.92 L0.25 397.92" class="st2"/>
		</g>
		<g id="shape158-467" transform="translate(651.43,303.94) rotate(90)">
			<title>Sheet.158</title>
			<path d="M0 397.92 L0.35 397.92" class="st2"/>
		</g>
		<g id="shape159-470" transform="translate(651.43,308.406) rotate(90)">
			<title>Sheet.159</title>
			<path d="M0 397.92 L1.27 397.92" class="st2"/>
		</g>
		<g id="shape160-473" transform="translate(249.655,-87.4263)">
			<title>Sheet.160</title>
			<path d="M0 397.92 L1.27 397.92" class="st2"/>
		</g>
		<g id="shape161-476" transform="translate(-23.5343,599.819) rotate(-136.643)">
			<title>Sheet.161</title>
			<path d="M0 397.92 L0.37 397.92" class="st2"/>
		</g>
		<g id="shape162-479" transform="translate(-22.2671,21.1703) rotate(-43.357)">
			<title>Sheet.162</title>
			<path d="M0 397.92 L0.37 397.92" class="st2"/>
		</g>
		<g id="shape163-482" transform="translate(174.955,-83.6295)">
			<title>Sheet.163</title>
			<path d="M0 397.92 L22.68 397.92 L22.68 362.7 L0 362.7 L0 397.92 Z" class="st6"/>
		</g>
		<g id="shape164-484" transform="translate(179.262,-103)">
			<title>Sheet.164</title>
			<path d="M12.44 397.92 A7.04425 7.04425 -180 1 0 1.62 397.92 L12.44 397.92 Z" class="st1"/>
			<path d="M12.44 397.92 A7.04425 7.04425 -180 1 0 1.62 397.92" class="st2"/>
		</g>
		<g id="shape165-487" transform="translate(174.257,-120.782)">
			<title>Sheet.165</title>
			<desc>Light 2</desc>
			<rect x="0" y="392.251" width="24.2894" height="5.66929" class="st3"/>
			<text x="4.45" y="397.64" class="st10">Light 2</text>		</g>
		<g id="shape166-490" transform="translate(183.073,-93.9808)">
			<title>Sheet.166</title>
			<path d="M0 397.92 L6.44 397.92" class="st2"/>
		</g>
		<g id="shape167-493" transform="translate(180.883,-93.9808)">
			<title>Sheet.167</title>
			<path d="M2.19 397.92 A17.0418 17.0418 -180 0 0 0 388.9 L2.19 397.92 Z" class="st1"/>
			<path d="M2.19 397.92 A17.0418 17.0418 -180 0 0 0 388.9" class="st2"/>
		</g>
		<g id="shape168-496" transform="translate(189.513,-93.9808)">
			<title>Sheet.168</title>
			<path d="M2.19 388.9 A17.0418 17.0418 -180 0 0 -0 397.92 L2.19 388.9 Z" class="st1"/>
			<path d="M2.19 388.9 A17.0418 17.0418 -180 0 0 -0 397.92" class="st2"/>
		</g>
		<g id="shape169-499" transform="translate(183.073,-88.2416)">
			<title>Sheet.169</title>
			<path d="M0 397.92 L6.44 397.92" class="st2"/>
		</g>
		<g id="shape170-502" transform="translate(183.667,-87.6789)">
			<title>Sheet.170</title>
			<path d="M0 397.92 L5.25 397.92" class="st2"/>
		</g>
		<g id="shape171-505" transform="translate(-90.0469,599.07) rotate(-136.539)">
			<title>Sheet.171</title>
			<path d="M0 397.92 L0.82 397.92" class="st2"/>
		</g>
		<g id="shape172-508" transform="translate(-84.7939,21.4136) rotate(-43.4609)">
			<title>Sheet.172</title>
			<path d="M0 397.92 L0.82 397.92" class="st2"/>
		</g>
		<g id="shape173-511" transform="translate(580.994,303.94) rotate(90)">
			<title>Sheet.173</title>
			<path d="M0 397.92 L0.93 397.92" class="st2"/>
		</g>
		<g id="shape174-514" transform="translate(-214.848,309.679) rotate(-90)">
			<title>Sheet.174</title>
			<path d="M0 397.92 L0.69 397.92" class="st2"/>
		</g>
		<g id="shape175-517" transform="translate(-96.647,592) rotate(-135.336)">
			<title>Sheet.175</title>
			<path d="M0 397.92 L0.45 397.92" class="st2"/>
		</g>
		<g id="shape176-520" transform="translate(-96.9702,25.4485) rotate(-44.6645)">
			<title>Sheet.176</title>
			<path d="M0 397.92 L0.45 397.92" class="st2"/>
		</g>
		<g id="shape177-523" transform="translate(182.708,-89.2554)">
			<title>Sheet.177</title>
			<path d="M0.04 397.72 a0.141732 0.141732 -180 0 0 -1.41553E-015 0.20161 L0.04 397.72 Z" class="st1"/>
			<path d="M0.04 397.72 a0.141732 0.141732 -180 0 0 -1.41553E-015 0.20161" class="st2"/>
		</g>
		<g id="shape178-526" transform="translate(-90.2066,25.3912) rotate(-44.6645)">
			<title>Sheet.178</title>
			<path d="M0 397.92 L0.45 397.92" class="st2"/>
		</g>
		<g id="shape179-529" transform="translate(-89.8834,590.901) rotate(-135.336)">
			<title>Sheet.179</title>
			<path d="M0 397.92 L0.45 397.92" class="st2"/>
		</g>
		<g id="shape180-532" transform="translate(189.837,-89.8337)">
			<title>Sheet.180</title>
			<path d="M0 397.92 a0.141732 0.141732 -180 0 0 0 -0.20161 L0 397.92 Z" class="st1"/>
			<path d="M0 397.92 a0.141732 0.141732 -180 0 0 0 -0.20161" class="st2"/>
		</g>
		<g id="shape181-535" transform="translate(-96.647,590.909) rotate(-135.336)">
			<title>Sheet.181</title>
			<path d="M0 397.92 L0.45 397.92" class="st2"/>
		</g>
		<g id="shape182-538" transform="translate(-96.9702,24.3576) rotate(-44.6645)">
			<title>Sheet.182</title>
			<path d="M0 397.92 L0.45 397.92" class="st2"/>
		</g>
		<g id="shape183-541" transform="translate(182.708,-90.3463)">
			<title>Sheet.183</title>
			<path d="M0.04 397.72 a0.141732 0.141732 -180 0 0 -1.34615E-015 0.20161 L0.04 397.72 Z" class="st1"/>
			<path d="M0.04 397.72 a0.141732 0.141732 -180 0 0 -1.34615E-015 0.20161" class="st2"/>
		</g>
		<g id="shape184-544" transform="translate(-90.2066,24.3003) rotate(-44.6645)">
			<title>Sheet.184</title>
			<path d="M0 397.92 L0.45 397.92" class="st2"/>
		</g>
		<g id="shape185-547" transform="translate(-89.8834,589.81) rotate(-135.336)">
			<title>Sheet.185</title>
			<path d="M0 397.92 L0.45 397.92" class="st2"/>
		</g>
		<g id="shape186-550" transform="translate(189.837,-90.9246)">
			<title>Sheet.186</title>
			<path d="M0 397.92 a0.141732 0.141732 -180 0 0 0 -0.20161 L0 397.92 Z" class="st1"/>
			<path d="M0 397.92 a0.141732 0.141732 -180 0 0 0 -0.20161" class="st2"/>
		</g>
		<g id="shape187-553" transform="translate(-96.647,589.818) rotate(-135.336)">
			<title>Sheet.187</title>
			<path d="M0 397.92 L0.45 397.92" class="st2"/>
		</g>
		<g id="shape188-556" transform="translate(-96.9702,23.2667) rotate(-44.6645)">
			<title>Sheet.188</title>
			<path d="M0 397.92 L0.45 397.92" class="st2"/>
		</g>
		<g id="shape189-559" transform="translate(182.708,-91.4372)">
			<title>Sheet.189</title>
			<path d="M0.04 397.72 a0.141732 0.141732 -180 0 0 -1.40166E-015 0.20161 L0.04 397.72 Z" class="st1"/>
			<path d="M0.04 397.72 a0.141732 0.141732 -180 0 0 -1.40166E-015 0.20161" class="st2"/>
		</g>
		<g id="shape190-562" transform="translate(-90.2066,23.2094) rotate(-44.6645)">
			<title>Sheet.190</title>
			<path d="M0 397.92 L0.45 397.92" class="st2"/>
		</g>
		<g id="shape191-565" transform="translate(-89.8834,588.719) rotate(-135.336)">
			<title>Sheet.191</title>
			<path d="M0 397.92 L0.45 397.92" class="st2"/>
		</g>
		<g id="shape192-568" transform="translate(189.837,-92.0155)">
			<title>Sheet.192</title>
			<path d="M0 397.92 a0.141732 0.141732 -180 0 0 0 -0.20161 L0 397.92 Z" class="st1"/>
			<path d="M0 397.92 a0.141732 0.141732 -180 0 0 0 -0.20161" class="st2"/>
		</g>
		<g id="shape193-571" transform="translate(-96.647,588.727) rotate(-135.336)">
			<title>Sheet.193</title>
			<path d="M0 397.92 L0.45 397.92" class="st2"/>
		</g>
		<g id="shape194-574" transform="translate(-96.9702,22.1758) rotate(-44.6645)">
			<title>Sheet.194</title>
			<path d="M0 397.92 L0.45 397.92" class="st2"/>
		</g>
		<g id="shape195-577" transform="translate(182.708,-92.5281)">
			<title>Sheet.195</title>
			<path d="M0.04 397.72 a0.141732 0.141732 -180 0 0 -1.41553E-015 0.20161 L0.04 397.72 Z" class="st1"/>
			<path d="M0.04 397.72 a0.141732 0.141732 -180 0 0 -1.41553E-015 0.20161" class="st2"/>
		</g>
		<g id="shape196-580" transform="translate(-90.2066,22.1186) rotate(-44.6645)">
			<title>Sheet.196</title>
			<path d="M0 397.92 L0.45 397.92" class="st2"/>
		</g>
		<g id="shape197-583" transform="translate(-89.8834,587.628) rotate(-135.336)">
			<title>Sheet.197</title>
			<path d="M0 397.92 L0.45 397.92" class="st2"/>
		</g>
		<g id="shape198-586" transform="translate(189.837,-93.1064)">
			<title>Sheet.198</title>
			<path d="M0 397.92 a0.141732 0.141732 -180 0 0 0 -0.20161 L0 397.92 Z" class="st1"/>
			<path d="M0 397.92 a0.141732 0.141732 -180 0 0 0 -0.20161" class="st2"/>
		</g>
		<g id="shape199-589" transform="translate(147.486,-91.4546) rotate(-5.131)">
			<title>Sheet.199</title>
			<path d="M0 397.92 L6.47 397.92" class="st2"/>
		</g>
		<g id="shape200-592" transform="translate(147.486,-90.6141) rotate(-5.131)">
			<title>Sheet.200</title>
			<path d="M0 397.92 L6.47 397.92" class="st2"/>
		</g>
		<g id="shape201-595" transform="translate(147.486,-90.3637) rotate(-5.131)">
			<title>Sheet.201</title>
			<path d="M0 397.92 L6.47 397.92" class="st2"/>
		</g>
		<g id="shape202-598" transform="translate(147.486,-89.5232) rotate(-5.131)">
			<title>Sheet.202</title>
			<path d="M0 397.92 L6.47 397.92" class="st2"/>
		</g>
		<g id="shape203-601" transform="translate(147.486,-89.2728) rotate(-5.131)">
			<title>Sheet.203</title>
			<path d="M0 397.92 L6.47 397.92" class="st2"/>
		</g>
		<g id="shape204-604" transform="translate(147.486,-88.4323) rotate(-5.131)">
			<title>Sheet.204</title>
			<path d="M0 397.92 L6.47 397.92" class="st2"/>
		</g>
		<g id="shape205-607" transform="translate(147.486,-88.1819) rotate(-5.131)">
			<title>Sheet.205</title>
			<path d="M0 397.92 L6.47 397.92" class="st2"/>
		</g>
		<g id="shape206-610" transform="translate(147.486,-87.3414) rotate(-5.131)">
			<title>Sheet.206</title>
			<path d="M0 397.92 L6.47 397.92" class="st2"/>
		</g>
		<g id="shape207-613" transform="translate(580.994,305.712) rotate(90)">
			<title>Sheet.207</title>
			<path d="M0 397.92 L0.25 397.92" class="st2"/>
		</g>
		<g id="shape208-616" transform="translate(580.994,306.803) rotate(90)">
			<title>Sheet.208</title>
			<path d="M0 397.92 L0.25 397.92" class="st2"/>
		</g>
		<g id="shape209-619" transform="translate(580.994,307.894) rotate(90)">
			<title>Sheet.209</title>
			<path d="M0 397.92 L0.25 397.92" class="st2"/>
		</g>
		<g id="shape210-622" transform="translate(-208.407,307.566) rotate(-90)">
			<title>Sheet.210</title>
			<path d="M0 397.92 L0.25 397.92" class="st2"/>
		</g>
		<g id="shape211-625" transform="translate(-208.407,306.475) rotate(-90)">
			<title>Sheet.211</title>
			<path d="M0 397.92 L0.25 397.92" class="st2"/>
		</g>
		<g id="shape212-628" transform="translate(-208.407,305.384) rotate(-90)">
			<title>Sheet.212</title>
			<path d="M0 397.92 L0.25 397.92" class="st2"/>
		</g>
		<g id="shape213-631" transform="translate(587.434,303.94) rotate(90)">
			<title>Sheet.213</title>
			<path d="M0 397.92 L0.35 397.92" class="st2"/>
		</g>
		<g id="shape214-634" transform="translate(587.434,308.406) rotate(90)">
			<title>Sheet.214</title>
			<path d="M0 397.92 L1.27 397.92" class="st2"/>
		</g>
		<g id="shape215-637" transform="translate(185.66,-87.4263)">
			<title>Sheet.215</title>
			<path d="M0 397.92 L1.27 397.92" class="st2"/>
		</g>
		<g id="shape216-640" transform="translate(-87.5298,599.819) rotate(-136.643)">
			<title>Sheet.216</title>
			<path d="M0 397.92 L0.37 397.92" class="st2"/>
		</g>
		<g id="shape217-643" transform="translate(-86.2625,21.1703) rotate(-43.357)">
			<title>Sheet.217</title>
			<path d="M0 397.92 L0.37 397.92" class="st2"/>
		</g>
		<g id="shape218-646" transform="translate(142.957,-83.6295)">
			<title>Sheet.218</title>
			<path d="M0 397.92 L22.68 397.92 L22.68 362.7 L0 362.7 L0 397.92 Z" class="st6"/>
		</g>
		<g id="shape219-648" transform="translate(147.264,-103)">
			<title>Sheet.219</title>
			<path d="M12.44 397.92 A7.04425 7.04425 -180 1 0 1.62 397.92 L12.44 397.92 Z" class="st1"/>
			<path d="M12.44 397.92 A7.04425 7.04425 -180 1 0 1.62 397.92" class="st2"/>
		</g>
		<g id="shape220-651" transform="translate(142.259,-120.782)">
			<title>Sheet.220</title>
			<desc>Light 1</desc>
			<rect x="0" y="392.251" width="24.2894" height="5.66929" class="st3"/>
			<text x="4.45" y="397.64" class="st10">Light 1</text>		</g>
		<g id="shape221-654" transform="translate(151.075,-93.9808)">
			<title>Sheet.221</title>
			<path d="M0 397.92 L6.44 397.92" class="st2"/>
		</g>
		<g id="shape222-657" transform="translate(148.885,-93.9808)">
			<title>Sheet.222</title>
			<path d="M2.19 397.92 A17.0418 17.0418 -180 0 0 0 388.9 L2.19 397.92 Z" class="st1"/>
			<path d="M2.19 397.92 A17.0418 17.0418 -180 0 0 0 388.9" class="st2"/>
		</g>
		<g id="shape223-660" transform="translate(157.516,-93.9808)">
			<title>Sheet.223</title>
			<path d="M2.19 388.9 A17.0418 17.0418 -180 0 0 0 397.92 L2.19 388.9 Z" class="st1"/>
			<path d="M2.19 388.9 A17.0418 17.0418 -180 0 0 0 397.92" class="st2"/>
		</g>
		<g id="shape224-663" transform="translate(151.075,-88.2416)">
			<title>Sheet.224</title>
			<path d="M0 397.92 L6.44 397.92" class="st2"/>
		</g>
		<g id="shape225-666" transform="translate(151.669,-87.6789)">
			<title>Sheet.225</title>
			<path d="M0 397.92 L5.25 397.92" class="st2"/>
		</g>
		<g id="shape226-669" transform="translate(-122.045,599.07) rotate(-136.539)">
			<title>Sheet.226</title>
			<path d="M0 397.92 L0.82 397.92" class="st2"/>
		</g>
		<g id="shape227-672" transform="translate(-116.792,21.4136) rotate(-43.4609)">
			<title>Sheet.227</title>
			<path d="M0 397.92 L0.82 397.92" class="st2"/>
		</g>
		<g id="shape228-675" transform="translate(548.996,303.94) rotate(90)">
			<title>Sheet.228</title>
			<path d="M0 397.92 L0.93 397.92" class="st2"/>
		</g>
		<g id="shape229-678" transform="translate(-246.845,309.679) rotate(-90)">
			<title>Sheet.229</title>
			<path d="M0 397.92 L0.69 397.92" class="st2"/>
		</g>
		<g id="shape230-681" transform="translate(-128.645,592) rotate(-135.336)">
			<title>Sheet.230</title>
			<path d="M0 397.92 L0.45 397.92" class="st2"/>
		</g>
		<g id="shape231-684" transform="translate(-128.968,25.4485) rotate(-44.6645)">
			<title>Sheet.231</title>
			<path d="M0 397.92 L0.45 397.92" class="st2"/>
		</g>
		<g id="shape232-687" transform="translate(150.71,-89.2554)">
			<title>Sheet.232</title>
			<path d="M0.04 397.72 a0.141732 0.141732 -180 0 0 -1.40166E-015 0.20161 L0.04 397.72 Z" class="st1"/>
			<path d="M0.04 397.72 a0.141732 0.141732 -180 0 0 -1.40166E-015 0.20161" class="st2"/>
		</g>
		<g id="shape233-690" transform="translate(-122.204,25.3912) rotate(-44.6645)">
			<title>Sheet.233</title>
			<path d="M0 397.92 L0.45 397.92" class="st2"/>
		</g>
		<g id="shape234-693" transform="translate(-121.881,590.901) rotate(-135.336)">
			<title>Sheet.234</title>
			<path d="M0 397.92 L0.45 397.92" class="st2"/>
		</g>
		<g id="shape235-696" transform="translate(157.839,-89.8337)">
			<title>Sheet.235</title>
			<path d="M0 397.92 a0.141732 0.141732 -180 0 0 0 -0.20161 L0 397.92 Z" class="st1"/>
			<path d="M0 397.92 a0.141732 0.141732 -180 0 0 0 -0.20161" class="st2"/>
		</g>
		<g id="shape236-699" transform="translate(-128.645,590.909) rotate(-135.336)">
			<title>Sheet.236</title>
			<path d="M0 397.92 L0.45 397.92" class="st2"/>
		</g>
		<g id="shape237-702" transform="translate(-128.968,24.3576) rotate(-44.6645)">
			<title>Sheet.237</title>
			<path d="M0 397.92 L0.45 397.92" class="st2"/>
		</g>
		<g id="shape238-705" transform="translate(150.71,-90.3463)">
			<title>Sheet.238</title>
			<path d="M0.04 397.72 a0.141732 0.141732 -180 0 0 -1.41553E-015 0.20161 L0.04 397.72 Z" class="st1"/>
			<path d="M0.04 397.72 a0.141732 0.141732 -180 0 0 -1.41553E-015 0.20161" class="st2"/>
		</g>
		<g id="shape239-708" transform="translate(-122.204,24.3003) rotate(-44.6645)">
			<title>Sheet.239</title>
			<path d="M0 397.92 L0.45 397.92" class="st2"/>
		</g>
		<g id="shape240-711" transform="translate(-121.881,589.81) rotate(-135.336)">
			<title>Sheet.240</title>
			<path d="M0 397.92 L0.45 397.92" class="st2"/>
		</g>
		<g id="shape241-714" transform="translate(157.839,-90.9246)">
			<title>Sheet.241</title>
			<path d="M0 397.92 a0.141732 0.141732 -180 0 0 0 -0.20161 L0 397.92 Z" class="st1"/>
			<path d="M0 397.92 a0.141732 0.141732 -180 0 0 0 -0.20161" class="st2"/>
		</g>
		<g id="shape242-717" transform="translate(-128.645,589.818) rotate(-135.336)">
			<title>Sheet.242</title>
			<path d="M0 397.92 L0.45 397.92" class="st2"/>
		</g>
		<g id="shape243-720" transform="translate(-128.968,23.2667) rotate(-44.6645)">
			<title>Sheet.243</title>
			<path d="M0 397.92 L0.45 397.92" class="st2"/>
		</g>
		<g id="shape244-723" transform="translate(150.71,-91.4372)">
			<title>Sheet.244</title>
			<path d="M0.04 397.72 a0.141732 0.141732 -180 0 0 -1.40166E-015 0.20161 L0.04 397.72 Z" class="st1"/>
			<path d="M0.04 397.72 a0.141732 0.141732 -180 0 0 -1.40166E-015 0.20161" class="st2"/>
		</g>
		<g id="shape245-726" transform="translate(-122.204,23.2094) rotate(-44.6645)">
			<title>Sheet.245</title>
			<path d="M0 397.92 L0.45 397.92" class="st2"/>
		</g>
		<g id="shape246-729" transform="translate(-121.881,588.719) rotate(-135.336)">
			<title>Sheet.246</title>
			<path d="M0 397.92 L0.45 397.92" class="st2"/>
		</g>
		<g id="shape247-732" transform="translate(157.839,-92.0155)">
			<title>Sheet.247</title>
			<path d="M0 397.92 a0.141732 0.141732 -180 0 0 0 -0.20161 L0 397.92 Z" class="st1"/>
			<path d="M0 397.92 a0.141732 0.141732 -180 0 0 0 -0.20161" class="st2"/>
		</g>
		<g id="shape248-735" transform="translate(-128.645,588.727) rotate(-135.336)">
			<title>Sheet.248</title>
			<path d="M0 397.92 L0.45 397.92" class="st2"/>
		</g>
		<g id="shape249-738" transform="translate(-128.968,22.1758) rotate(-44.6645)">
			<title>Sheet.249</title>
			<path d="M0 397.92 L0.45 397.92" class="st2"/>
		</g>
		<g id="shape250-741" transform="translate(150.71,-92.5281)">
			<title>Sheet.250</title>
			<path d="M0.04 397.72 a0.141732 0.141732 -180 0 0 -1.40166E-015 0.20161 L0.04 397.72 Z" class="st1"/>
			<path d="M0.04 397.72 a0.141732 0.141732 -180 0 0 -1.40166E-015 0.20161" class="st2"/>
		</g>
		<g id="shape251-744" transform="translate(-122.204,22.1186) rotate(-44.6645)">
			<title>Sheet.251</title>
			<path d="M0 397.92 L0.45 397.92" class="st2"/>
		</g>
		<g id="shape252-747" transform="translate(-121.881,587.628) rotate(-135.336)">
			<title>Sheet.252</title>
			<path d="M0 397.92 L0.45 397.92" class="st2"/>
		</g>
		<g id="shape253-750" transform="translate(157.839,-93.1064)">
			<title>Sheet.253</title>
			<path d="M0 397.92 a0.141732 0.141732 -180 0 0 0 -0.20161 L0 397.92 Z" class="st1"/>
			<path d="M0 397.92 a0.141732 0.141732 -180 0 0 0 -0.20161" class="st2"/>
		</g>
		<g id="shape254-753" transform="translate(115.488,-91.4546) rotate(-5.131)">
			<title>Sheet.254</title>
			<path d="M0 397.92 L6.47 397.92" class="st2"/>
		</g>
		<g id="shape255-756" transform="translate(115.488,-90.6141) rotate(-5.131)">
			<title>Sheet.255</title>
			<path d="M0 397.92 L6.47 397.92" class="st2"/>
		</g>
		<g id="shape256-759" transform="translate(115.488,-90.3637) rotate(-5.131)">
			<title>Sheet.256</title>
			<path d="M0 397.92 L6.47 397.92" class="st2"/>
		</g>
		<g id="shape257-762" transform="translate(115.488,-89.5232) rotate(-5.131)">
			<title>Sheet.257</title>
			<path d="M0 397.92 L6.47 397.92" class="st2"/>
		</g>
		<g id="shape258-765" transform="translate(115.488,-89.2728) rotate(-5.131)">
			<title>Sheet.258</title>
			<path d="M0 397.92 L6.47 397.92" class="st2"/>
		</g>
		<g id="shape259-768" transform="translate(115.488,-88.4323) rotate(-5.131)">
			<title>Sheet.259</title>
			<path d="M0 397.92 L6.47 397.92" class="st2"/>
		</g>
		<g id="shape260-771" transform="translate(115.488,-88.1819) rotate(-5.131)">
			<title>Sheet.260</title>
			<path d="M0 397.92 L6.47 397.92" class="st2"/>
		</g>
		<g id="shape261-774" transform="translate(115.488,-87.3414) rotate(-5.131)">
			<title>Sheet.261</title>
			<path d="M0 397.92 L6.47 397.92" class="st2"/>
		</g>
		<g id="shape262-777" transform="translate(548.996,305.712) rotate(90)">
			<title>Sheet.262</title>
			<path d="M0 397.92 L0.25 397.92" class="st2"/>
		</g>
		<g id="shape263-780" transform="translate(548.996,306.803) rotate(90)">
			<title>Sheet.263</title>
			<path d="M0 397.92 L0.25 397.92" class="st2"/>
		</g>
		<g id="shape264-783" transform="translate(548.996,307.894) rotate(90)">
			<title>Sheet.264</title>
			<path d="M0 397.92 L0.25 397.92" class="st2"/>
		</g>
		<g id="shape265-786" transform="translate(-240.405,307.566) rotate(-90)">
			<title>Sheet.265</title>
			<path d="M0 397.92 L0.25 397.92" class="st2"/>
		</g>
		<g id="shape266-789" transform="translate(-240.405,306.475) rotate(-90)">
			<title>Sheet.266</title>
			<path d="M0 397.92 L0.25 397.92" class="st2"/>
		</g>
		<g id="shape267-792" transform="translate(-240.405,305.384) rotate(-90)">
			<title>Sheet.267</title>
			<path d="M0 397.92 L0.25 397.92" class="st2"/>
		</g>
		<g id="shape268-795" transform="translate(555.436,303.94) rotate(90)">
			<title>Sheet.268</title>
			<path d="M0 397.92 L0.35 397.92" class="st2"/>
		</g>
		<g id="shape269-798" transform="translate(555.436,308.406) rotate(90)">
			<title>Sheet.269</title>
			<path d="M0 397.92 L1.27 397.92" class="st2"/>
		</g>
		<g id="shape270-801" transform="translate(153.662,-87.4263)">
			<title>Sheet.270</title>
			<path d="M0 397.92 L1.27 397.92" class="st2"/>
		</g>
		<g id="shape271-804" transform="translate(-119.528,599.819) rotate(-136.643)">
			<title>Sheet.271</title>
			<path d="M0 397.92 L0.37 397.92" class="st2"/>
		</g>
		<g id="shape272-807" transform="translate(-118.26,21.1703) rotate(-43.357)">
			<title>Sheet.272</title>
			<path d="M0 397.92 L0.37 397.92" class="st2"/>
		</g>
		<g id="shape273-810" transform="translate(206.952,-49.6135)">
			<title>Sheet.273</title>
			<path d="M0 397.92 L22.68 397.92 L22.68 375.24 L0 375.24 L0 397.92 Z" class="st6"/>
		</g>
		<g id="shape274-812" transform="translate(211.247,-53.9079)">
			<title>Sheet.274</title>
			<ellipse cx="7.04425" cy="390.876" rx="7.04425" ry="7.04425" class="st11"/>
		</g>
		<g id="shape275-814" transform="translate(206.254,-74.2223)">
			<title>Sheet.275</title>
			<desc>Button 1</desc>
			<rect x="0" y="392.251" width="24.2894" height="5.66929" class="st3"/>
			<text x="2.15" y="397.64" class="st10">Button 1</text>		</g>
		<g id="shape276-817" transform="translate(238.95,-49.6135)">
			<title>Sheet.276</title>
			<path d="M0 397.92 L22.68 397.92 L22.68 375.24 L0 375.24 L0 397.92 Z" class="st6"/>
		</g>
		<g id="shape277-819" transform="translate(243.244,-53.9079)">
			<title>Sheet.277</title>
			<ellipse cx="7.04425" cy="390.876" rx="7.04425" ry="7.04425" class="st11"/>
		</g>
		<g id="shape278-821" transform="translate(238.252,-74.2223)">
			<title>Sheet.278</title>
			<desc>Button 2</desc>
			<rect x="0" y="392.251" width="24.2894" height="5.66929" class="st3"/>
			<text x="2.15" y="397.64" class="st10">Button 2</text>		</g>
		<g id="shape279-824" transform="translate(861.985,-153.297)">
			<title>Sheet.279</title>
			<path d="M0 397.92 L151.71 397.92" class="st2"/>
		</g>
		<g id="shape280-827" transform="translate(859.264,-150.559)">
			<title>Sheet.280</title>
			<path d="M2.72 395.18 A2.72126 2.72126 -180 0 0 -0 397.92 L2.72 395.18 Z" class="st1"/>
			<path d="M2.72 395.18 A2.72126 2.72126 -180 0 0 -0 397.92" class="st2"/>
		</g>
		<g id="shape281-830" transform="translate(864.284,-146.442)">
			<title>Sheet.281</title>
			<path d="M0 397.92 L147.22 397.92" class="st2"/>
		</g>
		<g id="shape282-833" transform="translate(863.604,-145.759)">
			<title>Sheet.282</title>
			<path d="M0.68 397.24 a0.680315 0.680315 -180 0 0 -0.680308 0.6834 L0.68 397.24 Z" class="st1"/>
			<path d="M0.68 397.24 a0.680315 0.680315 -180 0 0 -0.680308 0.6834" class="st2"/>
		</g>
		<g id="shape283-836" transform="translate(863.978,-63.3546)">
			<title>Sheet.283</title>
			<path d="M0 397.92 L148.25 397.92" class="st2"/>
		</g>
		<g id="shape284-839" transform="translate(864.658,-62.8061)">
			<title>Sheet.284</title>
			<path d="M0 397.92 L146.89 397.92" class="st2"/>
		</g>
		<g id="shape285-842" transform="translate(861.893,-55.8137)">
			<title>Sheet.285</title>
			<path d="M0 397.92 L152.25 397.92" class="st2"/>
		</g>
		<g id="shape286-845" transform="translate(859.852,-56.1221)">
			<title>Sheet.286</title>
			<path d="M0 396.2 A2.04094 2.04094 -180 0 0 0.96 397.92 L0 396.2 Z" class="st1"/>
			<path d="M0 396.2 A2.04094 2.04094 -180 0 0 0.96 397.92" class="st2"/>
		</g>
		<g id="shape287-848" transform="translate(860.814,-55.8137)">
			<title>Sheet.287</title>
			<path d="M0 397.61 A2.04094 2.04094 -180 0 0 1.08 397.92 L0 397.61 Z" class="st1"/>
			<path d="M0 397.61 A2.04094 2.04094 -180 0 0 1.08 397.92" class="st2"/>
		</g>
		<g id="shape288-851" transform="translate(845.363,-36.7899)">
			<title>Sheet.288</title>
			<path d="M0 397.92 L0.84 397.92" class="st2"/>
		</g>
		<g id="shape289-854" transform="translate(846.199,-36.7899)">
			<title>Sheet.289</title>
			<path d="M0 397.92 L183.1 397.92" class="st2"/>
		</g>
		<g id="shape290-857" transform="translate(1029.3,-36.7899)">
			<title>Sheet.290</title>
			<path d="M0 397.92 L0.83 397.92" class="st2"/>
		</g>
		<g id="shape291-860" transform="translate(836.078,-24.1906)">
			<title>Sheet.291</title>
			<path d="M0 397.92 L202.61 397.92" class="st2"/>
		</g>
		<g id="shape292-863" transform="translate(835.398,-24.8709)">
			<title>Sheet.292</title>
			<path d="M0.16 397.48 a0.680315 0.680315 -180 0 0 -0.162995 0.441824 L0.16 397.48 Z" class="st1"/>
			<path d="M0.16 397.48 a0.680315 0.680315 -180 0 0 -0.162995 0.441824" class="st2"/>
		</g>
		<g id="shape293-866" transform="translate(835.398,-24.1906)">
			<title>Sheet.293</title>
			<path d="M0 397.24 a0.680315 0.680315 -180 0 0 0.680315 0.680315 L0 397.24 Z" class="st1"/>
			<path d="M0 397.24 a0.680315 0.680315 -180 0 0 0.680315 0.680315" class="st2"/>
		</g>
		<g id="shape294-869" transform="translate(847.866,-17.9352)">
			<title>Sheet.294</title>
			<path d="M0 397.92 L175.97 397.92" class="st2"/>
		</g>
		<g id="shape295-872" transform="translate(1257.18,244.837) rotate(89.6365)">
			<title>Sheet.295</title>
			<path d="M0 397.92 L92.72 397.92" class="st2"/>
		</g>
		<g id="shape296-875" transform="translate(1261.52,250.358) rotate(89.7402)">
			<title>Sheet.296</title>
			<path d="M0 397.92 L82.28 397.92" class="st2"/>
		</g>
		<g id="shape297-878" transform="translate(863.977,-62.8061)">
			<title>Sheet.297</title>
			<path d="M0 397.24 a0.680315 0.680315 -180 0 0 0.680308 0.67723 L0 397.24 Z" class="st1"/>
			<path d="M0 397.24 a0.680315 0.680315 -180 0 0 0.680308 0.67723" class="st2"/>
		</g>
		<g id="shape298-881" transform="translate(1410.11,251.968) rotate(89.9725)">
			<title>Sheet.298</title>
			<path d="M0 397.92 L82.28 397.92" class="st2"/>
		</g>
		<g id="shape299-884" transform="translate(1011.55,-62.8061)">
			<title>Sheet.299</title>
			<path d="M-0 397.92 a0.680315 0.680315 -180 0 0 0.680315 -0.680641 L0 397.92 Z" class="st1"/>
			<path d="M-0 397.92 a0.680315 0.680315 -180 0 0 0.680315 -0.680641" class="st2"/>
		</g>
		<g id="shape300-887" transform="translate(1011.51,-145.762)">
			<title>Sheet.300</title>
			<path d="M0.68 397.92 a0.680315 0.680315 -180 0 0 -0.680315 -0.679989 L0.68 397.92 Z" class="st1"/>
			<path d="M0.68 397.92 a0.680315 0.680315 -180 0 0 -0.680315 -0.679989" class="st2"/>
		</g>
		<g id="shape301-890" transform="translate(618.267,339.081) rotate(-89.8575)">
			<title>Sheet.301</title>
			<path d="M0 397.92 L92.72 397.92" class="st2"/>
		</g>
		<g id="shape302-893" transform="translate(1014.15,-55.8137)">
			<title>Sheet.302</title>
			<path d="M0 397.92 A2.04094 2.04094 -180 0 0 1.51 397.25 L0 397.92 Z" class="st1"/>
			<path d="M0 397.92 A2.04094 2.04094 -180 0 0 1.51 397.25" class="st2"/>
		</g>
		<g id="shape303-896" transform="translate(1015.66,-56.4861)">
			<title>Sheet.303</title>
			<path d="M0 397.92 A2.04094 2.04094 -180 0 0 0.53 396.56 L0 397.92 Z" class="st1"/>
			<path d="M0 397.92 A2.04094 2.04094 -180 0 0 0.53 396.56" class="st2"/>
		</g>
		<g id="shape304-899" transform="translate(1013.7,-150.569)">
			<title>Sheet.304</title>
			<path d="M2.72 397.92 A2.72126 2.72126 -180 0 0 0 395.19 L2.72 397.92 Z" class="st1"/>
			<path d="M2.72 397.92 A2.72126 2.72126 -180 0 0 0 395.19" class="st2"/>
		</g>
		<g id="shape305-902" transform="translate(1161.9,603.223) rotate(130.499)">
			<title>Sheet.305</title>
			<path d="M0 397.92 L3.2 397.92" class="st2"/>
		</g>
		<g id="shape306-905" transform="translate(1147.95,619.557) rotate(130.499)">
			<title>Sheet.306</title>
			<path d="M0 397.92 L15.09 397.92" class="st2"/>
		</g>
		<g id="shape307-908" transform="translate(1329.05,97.6225) rotate(51.6576)">
			<title>Sheet.307</title>
			<path d="M0 397.92 L3.51 397.92" class="st2"/>
		</g>
		<g id="shape308-911" transform="translate(1342.22,114.277) rotate(51.6576)">
			<title>Sheet.308</title>
			<path d="M0 397.92 L14.66 397.92" class="st2"/>
		</g>
		<g id="shape309-914" transform="translate(1038.69,-24.1906)">
			<title>Sheet.309</title>
			<path d="M0 397.92 a0.680315 0.680315 -180 0 0 0.680315 -0.680315 L0 397.92 Z" class="st1"/>
			<path d="M0 397.92 a0.680315 0.680315 -180 0 0 0.680315 -0.680315" class="st2"/>
		</g>
		<g id="shape310-917" transform="translate(1039.22,-24.8709)">
			<title>Sheet.310</title>
			<path d="M0.15 397.92 a0.680315 0.680315 -180 0 0 -0.146732 -0.42204 L0.15 397.92 Z" class="st1"/>
			<path d="M0.15 397.92 a0.680315 0.680315 -180 0 0 -0.146732 -0.42204" class="st2"/>
		</g>
		<g id="shape311-920" transform="translate(1131.92,763.272) rotate(166.45)">
			<title>Sheet.311</title>
			<path d="M0 397.92 L15.11 397.92" class="st2"/>
		</g>
		<g id="shape312-923" transform="translate(1023.84,-17.9352)">
			<title>Sheet.312</title>
			<path d="M-0 397.92 a0.680315 0.680315 -180 0 0 0.158574 -0.018739 L0 397.92 Z" class="st1"/>
			<path d="M-0 397.92 a0.680315 0.680315 -180 0 0 0.158574 -0.018739" class="st2"/>
		</g>
		<g id="shape313-926" transform="translate(894.023,-36.0461)">
			<title>Sheet.313</title>
			<path d="M0 397.92 L45.36 397.92" class="st2"/>
		</g>
		<g id="shape314-929" transform="translate(893.083,-35.4226)">
			<title>Sheet.314</title>
			<path d="M0.94 397.3 A1.02047 1.02047 -180 0 0 -0 397.92 L0.94 397.3 Z" class="st1"/>
			<path d="M0.94 397.3 A1.02047 1.02047 -180 0 0 -0 397.92" class="st2"/>
		</g>
		<g id="shape315-932" transform="translate(890.19,-26.7515)">
			<title>Sheet.315</title>
			<path d="M0 397.92 L49.15 397.92" class="st2"/>
		</g>
		<g id="shape316-935" transform="translate(940.366,767.424) rotate(180)">
			<title>Sheet.316</title>
			<path d="M0 397.92 L50.24 397.92" class="st2"/>
		</g>
		<g id="shape317-938" transform="translate(1259.66,517.293) rotate(112.893)">
			<title>Sheet.317</title>
			<path d="M0 397.92 L8.64 397.92" class="st2"/>
		</g>
		<g id="shape318-941" transform="translate(889.72,-26.7515)">
			<title>Sheet.318</title>
			<path d="M0 397.21 a0.510236 0.510236 -180 0 0 0.470047 0.708723 L0 397.21 Z" class="st1"/>
			<path d="M0 397.21 a0.510236 0.510236 -180 0 0 0.470047 0.708723" class="st2"/>
		</g>
		<g id="shape319-944" transform="translate(1306.11,445.854) rotate(101.062)">
			<title>Sheet.319</title>
			<path d="M0 397.92 L1.7 397.92" class="st2"/>
		</g>
		<g id="shape320-947" transform="translate(1305.74,445.854) rotate(101.062)">
			<title>Sheet.320</title>
			<path d="M0 397.92 L1.7 397.92" class="st2"/>
		</g>
		<g id="shape321-950" transform="translate(1338.32,364.934) rotate(90.2929)">
			<title>Sheet.321</title>
			<path d="M0 397.92 L7.25 397.92" class="st2"/>
		</g>
		<g id="shape322-953" transform="translate(939.342,-26.7515)">
			<title>Sheet.322</title>
			<path d="M0 397.92 A1.02047 1.02047 -180 0 0 1.02 396.91 L0 397.92 Z" class="st1"/>
			<path d="M0 397.92 A1.02047 1.02047 -180 0 0 1.02 396.91" class="st2"/>
		</g>
		<g id="shape323-956" transform="translate(939.379,-35.0204)">
			<title>Sheet.323</title>
			<path d="M1.02 397.92 A1.02047 1.02047 -180 0 0 -0 396.9 L1.02 397.92 Z" class="st1"/>
			<path d="M1.02 397.92 A1.02047 1.02047 -180 0 0 -0 396.9" class="st2"/>
		</g>
		<g id="shape324-959" transform="translate(859.883,-55.0955)">
			<title>Sheet.324</title>
			<path d="M0 397.92 L156.58 397.92" class="st2"/>
		</g>
		<g id="shape325-962" transform="translate(1016.46,-53.4442)">
			<title>Sheet.325</title>
			<path d="M0 396.27 A3.46711 3.46711 -180 0 0 0.49 397.92 L0 396.27 Z" class="st1"/>
			<path d="M0 396.27 A3.46711 3.46711 -180 0 0 0.49 397.92" class="st2"/>
		</g>
		<g id="shape326-965" transform="translate(859.313,-53.1231)">
			<title>Sheet.326</title>
			<path d="M0 397.92 A3.52318 3.52318 -180 0 0 0.57 395.95 L0 397.92 Z" class="st1"/>
			<path d="M0 397.92 A3.52318 3.52318 -180 0 0 0.57 395.95" class="st2"/>
		</g>
		<g id="shape327-968" transform="translate(565.164,75.4645) rotate(-47.7865)">
			<title>Sheet.327</title>
			<path d="M0 397.92 L1.39 397.92" class="st2"/>
		</g>
		<g id="shape328-971" transform="translate(671.65,541.437) rotate(-119.942)">
			<title>Sheet.328</title>
			<path d="M0 397.92 L1.6 397.92" class="st2"/>
		</g>
		<g id="shape329-974" transform="translate(731.748,760.618) rotate(-163.063)">
			<title>Sheet.329</title>
			<path d="M0 397.92 L12.12 397.92" class="st2"/>
		</g>
		<g id="shape330-977" transform="translate(847.669,-17.9352)">
			<title>Sheet.330</title>
			<path d="M0 397.89 a0.680315 0.680315 -180 0 0 0.196626 0.0290343 L0 397.89 Z" class="st1"/>
			<path d="M0 397.89 a0.680315 0.680315 -180 0 0 0.196626 0.0290343" class="st2"/>
		</g>
		<g id="shape331-980" transform="translate(836.078,-21.4939)">
			<title>Sheet.331</title>
			<path d="M0 397.92 L202.61 397.92" class="st2"/>
		</g>
		<g id="shape332-983" transform="translate(835.398,-21.4939)">
			<title>Sheet.332</title>
			<path d="M0 397.24 a0.680315 0.680315 -180 0 0 0.680315 0.680315 L0 397.24 Z" class="st1"/>
			<path d="M0 397.24 a0.680315 0.680315 -180 0 0 0.680315 0.680315" class="st2"/>
		</g>
		<g id="shape333-986" transform="translate(1038.69,-21.4939)">
			<title>Sheet.333</title>
			<path d="M0 397.92 a0.680315 0.680315 -180 0 0 0.680315 -0.680315 L0 397.92 Z" class="st1"/>
			<path d="M0 397.92 a0.680315 0.680315 -180 0 0 0.680315 -0.680315" class="st2"/>
		</g>
		<g id="shape334-989" transform="translate(1437.29,373.05) rotate(90)">
			<title>Sheet.334</title>
			<path d="M0 397.92 L2.7 397.92" class="st2"/>
		</g>
		<g id="shape335-992" transform="translate(1233.32,373.05) rotate(90)">
			<title>Sheet.335</title>
			<path d="M0 397.92 L2.7 397.92" class="st2"/>
		</g>
		<g id="shape336-995" transform="translate(1159.82,606.558) rotate(130.319)">
			<title>Sheet.336</title>
			<path d="M0 397.92 L15.8 397.92" class="st2"/>
		</g>
		<g id="shape337-998" transform="translate(856.422,-48.8351)">
			<title>Sheet.337</title>
			<path d="M0 397.92 A3.34859 3.34859 -180 0 0 0.81 396.06 L0 397.92 Z" class="st1"/>
			<path d="M0 397.92 A3.34859 3.34859 -180 0 0 0.81 396.06" class="st2"/>
		</g>
		<g id="shape338-1001" transform="translate(1332.01,102.377) rotate(51.7331)">
			<title>Sheet.338</title>
			<path d="M0 397.92 L15.68 397.92" class="st2"/>
		</g>
		<g id="shape339-1004" transform="translate(857.232,-50.6915)">
			<title>Sheet.339</title>
			<path d="M0 397.92 L161.9 397.92" class="st2"/>
		</g>
		<g id="shape340-1007" transform="translate(1019.13,-49.1008)">
			<title>Sheet.340</title>
			<path d="M-0 396.33 A3.46711 3.46711 -180 0 0 0.46 397.92 L0 396.33 Z" class="st1"/>
			<path d="M-0 396.33 A3.46711 3.46711 -180 0 0 0.46 397.92" class="st2"/>
		</g>
		<g id="shape341-1010" transform="translate(867.241,-49.7168)">
			<title>Sheet.341</title>
			<path d="M0 397.92 L110.07 397.92" class="st2"/>
		</g>
		<g id="shape342-1013" transform="translate(980.819,-49.7168)">
			<title>Sheet.342</title>
			<path d="M0 397.92 L27.86 397.92" class="st2"/>
		</g>
		<g id="shape343-1016" transform="translate(980.347,-49.0118)">
			<title>Sheet.343</title>
			<path d="M0.47 397.22 a0.510236 0.510236 -180 0 0 -0.471621 0.704953 L0.47 397.22 Z" class="st1"/>
			<path d="M0.47 397.22 a0.510236 0.510236 -180 0 0 -0.471621 0.704953" class="st2"/>
		</g>
		<g id="shape344-1019" transform="translate(866.414,-49.2932)">
			<title>Sheet.344</title>
			<path d="M0.83 397.5 A1.02047 1.02047 -180 0 0 0 397.92 L0.83 397.5 Z" class="st1"/>
			<path d="M0.83 397.5 A1.02047 1.02047 -180 0 0 0 397.92" class="st2"/>
		</g>
		<g id="shape345-1022" transform="translate(1339.11,125.698) rotate(55.9235)">
			<title>Sheet.345</title>
			<path d="M0 397.92 L12.64 397.92" class="st2"/>
		</g>
		<g id="shape346-1025" transform="translate(1008.67,-49.2681)">
			<title>Sheet.346</title>
			<path d="M0.85 397.92 A1.02047 1.02047 -180 0 0 -0 397.47 L0.85 397.92 Z" class="st1"/>
			<path d="M0.85 397.92 A1.02047 1.02047 -180 0 0 -0 397.47" class="st2"/>
		</g>
		<g id="shape347-1028" transform="translate(1016.32,-38.2685)">
			<title>Sheet.347</title>
			<path d="M-0 397.92 a0.340157 0.340157 -180 0 0 0.281749 -0.530747 L0 397.92 Z" class="st1"/>
			<path d="M-0 397.92 a0.340157 0.340157 -180 0 0 0.281749 -0.530747" class="st2"/>
		</g>
		<g id="shape348-1031" transform="translate(1189.15,581.399) rotate(125.801)">
			<title>Sheet.348</title>
			<path d="M0 397.92 L12.93 397.92" class="st2"/>
		</g>
		<g id="shape349-1034" transform="translate(858.789,-38.2685)">
			<title>Sheet.349</title>
			<path d="M0.06 397.38 a0.340157 0.340157 -180 0 0 0.275887 0.539139 L0.06 397.38 Z" class="st1"/>
			<path d="M0.06 397.38 a0.340157 0.340157 -180 0 0 0.275887 0.539139" class="st2"/>
		</g>
		<g id="shape350-1037" transform="translate(859.127,-38.2685)">
			<title>Sheet.350</title>
			<path d="M0 397.92 L122.83 397.92" class="st2"/>
		</g>
		<g id="shape351-1040" transform="translate(985.465,-38.2685)">
			<title>Sheet.351</title>
			<path d="M0 397.92 L30.85 397.92" class="st2"/>
		</g>
		<g id="shape352-1043" transform="translate(1016.32,-37.2241)">
			<title>Sheet.352</title>
			<path d="M0 397.92 a0.340157 0.340157 -180 0 0 0.340157 -0.340157 L0 397.92 Z" class="st1"/>
			<path d="M0 397.92 a0.340157 0.340157 -180 0 0 0.340157 -0.340157" class="st2"/>
		</g>
		<g id="shape353-1046" transform="translate(858.787,-37.2241)">
			<title>Sheet.353</title>
			<path d="M0 397.58 a0.340157 0.340157 -180 0 0 0.340157 0.340157 L0 397.58 Z" class="st1"/>
			<path d="M0 397.58 a0.340157 0.340157 -180 0 0 0.340157 0.340157" class="st2"/>
		</g>
		<g id="shape354-1049" transform="translate(859.127,-37.2241)">
			<title>Sheet.354</title>
			<path d="M0 397.92 L122.83 397.92" class="st2"/>
		</g>
		<g id="shape355-1052" transform="translate(985.465,-37.2241)">
			<title>Sheet.355</title>
			<path d="M0 397.92 L30.85 397.92" class="st2"/>
		</g>
		<g id="shape356-1055" transform="translate(1414.58,359.312) rotate(90)">
			<title>Sheet.356</title>
			<path d="M0 397.92 L1.04 397.92" class="st2"/>
		</g>
		<g id="shape357-1058" transform="translate(1256.71,359.312) rotate(90)">
			<title>Sheet.357</title>
			<path d="M0 397.92 L1.04 397.92" class="st2"/>
		</g>
		<g id="shape358-1061" transform="translate(1348.15,197.054) rotate(67.5659)">
			<title>Sheet.358</title>
			<path d="M0 397.92 L10.94 397.92" class="st2"/>
		</g>
		<g id="shape359-1064" transform="translate(984.522,-38.2685)">
			<title>Sheet.359</title>
			<path d="M-0 397.29 A1.02047 1.02047 -180 0 0 0.94 397.92 L0 397.29 Z" class="st1"/>
			<path d="M-0 397.29 A1.02047 1.02047 -180 0 0 0.94 397.92" class="st2"/>
		</g>
		<g id="shape360-1067" transform="translate(1348.15,198.099) rotate(67.5659)">
			<title>Sheet.360</title>
			<path d="M0 397.92 L10.94 397.92" class="st2"/>
		</g>
		<g id="shape361-1070" transform="translate(1346.06,196.98) rotate(67.5659)">
			<title>Sheet.361</title>
			<path d="M0 397.92 L10.94 397.92" class="st2"/>
		</g>
		<g id="shape362-1073" transform="translate(981.956,-38.2685)">
			<title>Sheet.362</title>
			<path d="M0 397.92 a0.510236 0.510236 -180 0 0 0.471621 -0.704953 L0 397.92 Z" class="st1"/>
			<path d="M0 397.92 a0.510236 0.510236 -180 0 0 0.471621 -0.704953" class="st2"/>
		</g>
		<g id="shape363-1076" transform="translate(977.309,-49.0857)">
			<title>Sheet.363</title>
			<path d="M0.94 397.92 A1.02047 1.02047 -180 0 0 0 397.29 L0.94 397.92 Z" class="st1"/>
			<path d="M0.94 397.92 A1.02047 1.02047 -180 0 0 0 397.29" class="st2"/>
		</g>
		<g id="shape364-1079" transform="translate(1379.88,359.652) rotate(90)">
			<title>Sheet.364</title>
			<path d="M0 397.92 L1.04 397.92" class="st2"/>
		</g>
		<g id="shape365-1082" transform="translate(981.956,-37.2241)">
			<title>Sheet.365</title>
			<path d="M-0 397.92 a0.510236 0.510236 -180 0 0 0.510236 -0.510236 L0 397.92 Z" class="st1"/>
			<path d="M-0 397.92 a0.510236 0.510236 -180 0 0 0.510236 -0.510236" class="st2"/>
		</g>
		<g id="shape366-1085" transform="translate(584.545,360.186) rotate(-90)">
			<title>Sheet.366</title>
			<path d="M0 397.92 L1.04 397.92" class="st2"/>
		</g>
		<g id="shape367-1088" transform="translate(1383.39,359.652) rotate(90)">
			<title>Sheet.367</title>
			<path d="M0 397.92 L1.04 397.92" class="st2"/>
		</g>
		<g id="shape368-1091" transform="translate(984.522,-37.2241)">
			<title>Sheet.368</title>
			<path d="M-0 397.29 A1.02047 1.02047 -180 0 0 0.94 397.92 L0 397.29 Z" class="st1"/>
			<path d="M-0 397.29 A1.02047 1.02047 -180 0 0 0.94 397.92" class="st2"/>
		</g>
		<g id="shape369-1094" transform="translate(1382.44,359.021) rotate(90)">
			<title>Sheet.369</title>
			<path d="M0 397.92 L1.04 397.92" class="st2"/>
		</g>
		<g id="shape370-1097" transform="translate(1378.23,348.714) rotate(90)">
			<title>Sheet.370</title>
			<path d="M0 397.92 L1.04 397.92" class="st2"/>
		</g>
		<g id="shape371-1100" transform="translate(980.309,-47.9674)">
			<title>Sheet.371</title>
			<path d="M0 397.73 a0.510236 0.510236 -180 0 0 0.0386152 0.194717 L0 397.73 Z" class="st1"/>
			<path d="M0 397.73 a0.510236 0.510236 -180 0 0 0.0386152 0.194717" class="st2"/>
		</g>
		<g id="shape372-1103" transform="translate(1414.24,359.652) rotate(90)">
			<title>Sheet.372</title>
			<path d="M0 397.92 L1.04 397.92" class="st2"/>
		</g>
		<g id="shape373-1106" transform="translate(1436.61,373.73) rotate(90)">
			<title>Sheet.373</title>
			<path d="M0 397.92 L2.7 397.92" class="st2"/>
		</g>
		<g id="shape374-1109" transform="translate(1234,373.73) rotate(90)">
			<title>Sheet.374</title>
			<path d="M0 397.92 L2.7 397.92" class="st2"/>
		</g>
		<g id="shape375-1112" transform="translate(1257.05,359.652) rotate(90)">
			<title>Sheet.375</title>
			<path d="M0 397.92 L1.04 397.92" class="st2"/>
		</g>
		<g id="shape376-1115" transform="translate(876.214,-119.522)">
			<title>Sheet.376</title>
			<desc>Remote DNS server</desc>
			<rect x="0" y="382.803" width="197.596" height="15.1181" class="st3"/>
			<text x="0" y="392.63" class="st4">Remote DNS <tspan x="0" dy="1.2em" class="st5">server</tspan></text>		</g>
		<g id="shape377-1119" transform="translate(615.554,-224.679)">
			<title>Sheet.377</title>
			<path d="M0 397.92 L4.25 397.92" class="st2"/>
		</g>
		<g id="shape378-1122" transform="translate(628.31,-224.679)">
			<title>Sheet.378</title>
			<path d="M0 397.92 L4.25 397.92" class="st2"/>
		</g>
		<g id="shape379-1125" transform="translate(259.643,-4.71356) rotate(-63.4349)">
			<title>Sheet.379</title>
			<path d="M0 397.92 L19.02 397.92" class="st2"/>
		</g>
		<g id="shape380-1128" transform="translate(979.969,-21.7214) rotate(63.4349)">
			<title>Sheet.380</title>
			<path d="M0 397.92 L19.02 397.92" class="st2"/>
		</g>
		<g id="shape381-1131" transform="translate(615.554,-164.642)">
			<title>Sheet.381</title>
			<path d="M0 397.92 L4.25 397.92" class="st2"/>
		</g>
		<g id="shape382-1134" transform="translate(628.31,-164.642)">
			<title>Sheet.382</title>
			<path d="M0 397.92 L4.25 397.92" class="st2"/>
		</g>
		<g id="shape383-1137" transform="translate(971.465,55.3236) rotate(63.4349)">
			<title>Sheet.383</title>
			<path d="M0 397.92 L19.02 397.92" class="st2"/>
		</g>
		<g id="shape384-1140" transform="translate(268.147,72.3315) rotate(-63.4349)">
			<title>Sheet.384</title>
			<path d="M0 397.92 L19.02 397.92" class="st2"/>
		</g>
		<g id="shape385-1143" transform="translate(221.885,233.279) rotate(-90)">
			<title>Sheet.385</title>
			<path d="M0 397.92 L60.04 397.92" class="st2"/>
		</g>
		<g id="shape386-1146" transform="translate(1026.23,173.242) rotate(90)">
			<title>Sheet.386</title>
			<path d="M0 397.92 L60.04 397.92" class="st2"/>
		</g>
		<g id="shape387-1149" transform="translate(549.474,-379.737)">
			<title>Sheet.387</title>
			<path d="M0 397.92 L151.71 397.92" class="st2"/>
		</g>
		<g id="shape388-1152" transform="translate(546.753,-376.998)">
			<title>Sheet.388</title>
			<path d="M2.72 395.18 A2.72126 2.72126 -180 0 0 -0 397.92 L2.72 395.18 Z" class="st1"/>
			<path d="M2.72 395.18 A2.72126 2.72126 -180 0 0 -0 397.92" class="st2"/>
		</g>
		<g id="shape389-1155" transform="translate(551.774,-372.881)">
			<title>Sheet.389</title>
			<path d="M0 397.92 L147.22 397.92" class="st2"/>
		</g>
		<g id="shape390-1158" transform="translate(551.093,-372.198)">
			<title>Sheet.390</title>
			<path d="M0.68 397.24 a0.680315 0.680315 -180 0 0 -0.680308 0.6834 L0.68 397.24 Z" class="st1"/>
			<path d="M0.68 397.24 a0.680315 0.680315 -180 0 0 -0.680308 0.6834" class="st2"/>
		</g>
		<g id="shape391-1161" transform="translate(551.467,-289.794)">
			<title>Sheet.391</title>
			<path d="M0 397.92 L148.25 397.92" class="st2"/>
		</g>
		<g id="shape392-1164" transform="translate(552.147,-289.245)">
			<title>Sheet.392</title>
			<path d="M0 397.92 L146.89 397.92" class="st2"/>
		</g>
		<g id="shape393-1167" transform="translate(549.382,-282.253)">
			<title>Sheet.393</title>
			<path d="M0 397.92 L152.25 397.92" class="st2"/>
		</g>
		<g id="shape394-1170" transform="translate(547.342,-282.561)">
			<title>Sheet.394</title>
			<path d="M-0 396.2 A2.04094 2.04094 -180 0 0 0.96 397.92 L0 396.2 Z" class="st1"/>
			<path d="M-0 396.2 A2.04094 2.04094 -180 0 0 0.96 397.92" class="st2"/>
		</g>
		<g id="shape395-1173" transform="translate(548.304,-282.253)">
			<title>Sheet.395</title>
			<path d="M-0 397.61 A2.04094 2.04094 -180 0 0 1.08 397.92 L0 397.61 Z" class="st1"/>
			<path d="M-0 397.61 A2.04094 2.04094 -180 0 0 1.08 397.92" class="st2"/>
		</g>
		<g id="shape396-1176" transform="translate(532.852,-263.229)">
			<title>Sheet.396</title>
			<path d="M0 397.92 L0.84 397.92" class="st2"/>
		</g>
		<g id="shape397-1179" transform="translate(533.689,-263.229)">
			<title>Sheet.397</title>
			<path d="M0 397.92 L183.1 397.92" class="st2"/>
		</g>
		<g id="shape398-1182" transform="translate(716.787,-263.229)">
			<title>Sheet.398</title>
			<path d="M0 397.92 L0.83 397.92" class="st2"/>
		</g>
		<g id="shape399-1185" transform="translate(523.568,-250.63)">
			<title>Sheet.399</title>
			<path d="M0 397.92 L202.61 397.92" class="st2"/>
		</g>
		<g id="shape400-1188" transform="translate(522.887,-251.31)">
			<title>Sheet.400</title>
			<path d="M0.16 397.48 a0.680315 0.680315 -180 0 0 -0.162995 0.441824 L0.16 397.48 Z" class="st1"/>
			<path d="M0.16 397.48 a0.680315 0.680315 -180 0 0 -0.162995 0.441824" class="st2"/>
		</g>
		<g id="shape401-1191" transform="translate(522.887,-250.63)">
			<title>Sheet.401</title>
			<path d="M0 397.24 a0.680315 0.680315 -180 0 0 0.680315 0.680315 L0 397.24 Z" class="st1"/>
			<path d="M0 397.24 a0.680315 0.680315 -180 0 0 0.680315 0.680315" class="st2"/>
		</g>
		<g id="shape402-1194" transform="translate(535.355,-244.374)">
			<title>Sheet.402</title>
			<path d="M0 397.92 L175.97 397.92" class="st2"/>
		</g>
		<g id="shape403-1197" transform="translate(944.666,18.3981) rotate(89.6365)">
			<title>Sheet.403</title>
			<path d="M0 397.92 L92.72 397.92" class="st2"/>
		</g>
		<g id="shape404-1200" transform="translate(949.01,23.9187) rotate(89.7402)">
			<title>Sheet.404</title>
			<path d="M0 397.92 L82.28 397.92" class="st2"/>
		</g>
		<g id="shape405-1203" transform="translate(551.467,-289.245)">
			<title>Sheet.405</title>
			<path d="M-0 397.24 a0.680315 0.680315 -180 0 0 0.680308 0.67723 L0 397.24 Z" class="st1"/>
			<path d="M-0 397.24 a0.680315 0.680315 -180 0 0 0.680308 0.67723" class="st2"/>
		</g>
		<g id="shape406-1206" transform="translate(1097.6,25.5286) rotate(89.9725)">
			<title>Sheet.406</title>
			<path d="M0 397.92 L82.28 397.92" class="st2"/>
		</g>
		<g id="shape407-1209" transform="translate(699.035,-289.245)">
			<title>Sheet.407</title>
			<path d="M0 397.92 a0.680315 0.680315 -180 0 0 0.680315 -0.680641 L0 397.92 Z" class="st1"/>
			<path d="M0 397.92 a0.680315 0.680315 -180 0 0 0.680315 -0.680641" class="st2"/>
		</g>
		<g id="shape408-1212" transform="translate(698.996,-372.201)">
			<title>Sheet.408</title>
			<path d="M0.68 397.92 a0.680315 0.680315 -180 0 0 -0.680315 -0.679989 L0.68 397.92 Z" class="st1"/>
			<path d="M0.68 397.92 a0.680315 0.680315 -180 0 0 -0.680315 -0.679989" class="st2"/>
		</g>
		<g id="shape409-1215" transform="translate(305.757,112.642) rotate(-89.8575)">
			<title>Sheet.409</title>
			<path d="M0 397.92 L92.72 397.92" class="st2"/>
		</g>
		<g id="shape410-1218" transform="translate(701.635,-282.253)">
			<title>Sheet.410</title>
			<path d="M0 397.92 A2.04094 2.04094 -180 0 0 1.51 397.25 L0 397.92 Z" class="st1"/>
			<path d="M0 397.92 A2.04094 2.04094 -180 0 0 1.51 397.25" class="st2"/>
		</g>
		<g id="shape411-1221" transform="translate(703.149,-282.925)">
			<title>Sheet.411</title>
			<path d="M0 397.92 A2.04094 2.04094 -180 0 0 0.53 396.56 L0 397.92 Z" class="st1"/>
			<path d="M0 397.92 A2.04094 2.04094 -180 0 0 0.53 396.56" class="st2"/>
		</g>
		<g id="shape412-1224" transform="translate(701.186,-377.009)">
			<title>Sheet.412</title>
			<path d="M2.72 397.92 A2.72126 2.72126 -180 0 0 -0 395.19 L2.72 397.92 Z" class="st1"/>
			<path d="M2.72 397.92 A2.72126 2.72126 -180 0 0 -0 395.19" class="st2"/>
		</g>
		<g id="shape413-1227" transform="translate(849.386,376.784) rotate(130.499)">
			<title>Sheet.413</title>
			<path d="M0 397.92 L3.2 397.92" class="st2"/>
		</g>
		<g id="shape414-1230" transform="translate(835.436,393.117) rotate(130.499)">
			<title>Sheet.414</title>
			<path d="M0 397.92 L15.09 397.92" class="st2"/>
		</g>
		<g id="shape415-1233" transform="translate(1016.54,-128.817) rotate(51.6576)">
			<title>Sheet.415</title>
			<path d="M0 397.92 L3.51 397.92" class="st2"/>
		</g>
		<g id="shape416-1236" transform="translate(1029.71,-112.162) rotate(51.6576)">
			<title>Sheet.416</title>
			<path d="M0 397.92 L14.66 397.92" class="st2"/>
		</g>
		<g id="shape417-1239" transform="translate(726.175,-250.63)">
			<title>Sheet.417</title>
			<path d="M-0 397.92 a0.680315 0.680315 -180 0 0 0.680315 -0.680315 L0 397.92 Z" class="st1"/>
			<path d="M-0 397.92 a0.680315 0.680315 -180 0 0 0.680315 -0.680315" class="st2"/>
		</g>
		<g id="shape418-1242" transform="translate(726.709,-251.31)">
			<title>Sheet.418</title>
			<path d="M0.15 397.92 a0.680315 0.680315 -180 0 0 -0.146732 -0.42204 L0.15 397.92 Z" class="st1"/>
			<path d="M0.15 397.92 a0.680315 0.680315 -180 0 0 -0.146732 -0.42204" class="st2"/>
		</g>
		<g id="shape419-1245" transform="translate(819.406,536.832) rotate(166.45)">
			<title>Sheet.419</title>
			<path d="M0 397.92 L15.11 397.92" class="st2"/>
		</g>
		<g id="shape420-1248" transform="translate(711.328,-244.374)">
			<title>Sheet.420</title>
			<path d="M0 397.92 a0.680315 0.680315 -180 0 0 0.158574 -0.018739 L0 397.92 Z" class="st1"/>
			<path d="M0 397.92 a0.680315 0.680315 -180 0 0 0.158574 -0.018739" class="st2"/>
		</g>
		<g id="shape421-1251" transform="translate(581.512,-262.485)">
			<title>Sheet.421</title>
			<path d="M0 397.92 L45.36 397.92" class="st2"/>
		</g>
		<g id="shape422-1254" transform="translate(580.572,-261.862)">
			<title>Sheet.422</title>
			<path d="M0.94 397.3 A1.02047 1.02047 -180 0 0 0 397.92 L0.94 397.3 Z" class="st1"/>
			<path d="M0.94 397.3 A1.02047 1.02047 -180 0 0 0 397.92" class="st2"/>
		</g>
		<g id="shape423-1257" transform="translate(577.68,-253.191)">
			<title>Sheet.423</title>
			<path d="M0 397.92 L49.15 397.92" class="st2"/>
		</g>
		<g id="shape424-1260" transform="translate(627.855,540.985) rotate(180)">
			<title>Sheet.424</title>
			<path d="M0 397.92 L50.24 397.92" class="st2"/>
		</g>
		<g id="shape425-1263" transform="translate(947.15,290.854) rotate(112.893)">
			<title>Sheet.425</title>
			<path d="M0 397.92 L8.64 397.92" class="st2"/>
		</g>
		<g id="shape426-1266" transform="translate(577.21,-253.191)">
			<title>Sheet.426</title>
			<path d="M0 397.21 a0.510236 0.510236 -180 0 0 0.470047 0.708723 L0 397.21 Z" class="st1"/>
			<path d="M0 397.21 a0.510236 0.510236 -180 0 0 0.470047 0.708723" class="st2"/>
		</g>
		<g id="shape427-1269" transform="translate(993.601,219.414) rotate(101.062)">
			<title>Sheet.427</title>
			<path d="M0 397.92 L1.7 397.92" class="st2"/>
		</g>
		<g id="shape428-1272" transform="translate(993.225,219.414) rotate(101.062)">
			<title>Sheet.428</title>
			<path d="M0 397.92 L1.7 397.92" class="st2"/>
		</g>
		<g id="shape429-1275" transform="translate(1025.8,138.495) rotate(90.2929)">
			<title>Sheet.429</title>
			<path d="M0 397.92 L7.25 397.92" class="st2"/>
		</g>
		<g id="shape430-1278" transform="translate(626.832,-253.191)">
			<title>Sheet.430</title>
			<path d="M-0 397.92 A1.02047 1.02047 -180 0 0 1.02 396.91 L0 397.92 Z" class="st1"/>
			<path d="M-0 397.92 A1.02047 1.02047 -180 0 0 1.02 396.91" class="st2"/>
		</g>
		<g id="shape431-1281" transform="translate(626.869,-261.46)">
			<title>Sheet.431</title>
			<path d="M1.02 397.92 A1.02047 1.02047 -180 0 0 -0 396.9 L1.02 397.92 Z" class="st1"/>
			<path d="M1.02 397.92 A1.02047 1.02047 -180 0 0 -0 396.9" class="st2"/>
		</g>
		<g id="shape432-1284" transform="translate(547.372,-281.535)">
			<title>Sheet.432</title>
			<path d="M0 397.92 L156.58 397.92" class="st2"/>
		</g>
		<g id="shape433-1287" transform="translate(703.95,-279.883)">
			<title>Sheet.433</title>
			<path d="M-0 396.27 A3.46711 3.46711 -180 0 0 0.49 397.92 L0 396.27 Z" class="st1"/>
			<path d="M-0 396.27 A3.46711 3.46711 -180 0 0 0.49 397.92" class="st2"/>
		</g>
		<g id="shape434-1290" transform="translate(546.802,-279.562)">
			<title>Sheet.434</title>
			<path d="M0 397.92 A3.52318 3.52318 -180 0 0 0.57 395.95 L0 397.92 Z" class="st1"/>
			<path d="M0 397.92 A3.52318 3.52318 -180 0 0 0.57 395.95" class="st2"/>
		</g>
		<g id="shape435-1293" transform="translate(252.654,-150.975) rotate(-47.7865)">
			<title>Sheet.435</title>
			<path d="M0 397.92 L1.39 397.92" class="st2"/>
		</g>
		<g id="shape436-1296" transform="translate(359.14,314.997) rotate(-119.942)">
			<title>Sheet.436</title>
			<path d="M0 397.92 L1.6 397.92" class="st2"/>
		</g>
		<g id="shape437-1299" transform="translate(419.238,534.179) rotate(-163.063)">
			<title>Sheet.437</title>
			<path d="M0 397.92 L12.12 397.92" class="st2"/>
		</g>
		<g id="shape438-1302" transform="translate(535.158,-244.374)">
			<title>Sheet.438</title>
			<path d="M0 397.89 a0.680315 0.680315 -180 0 0 0.196626 0.0290343 L0 397.89 Z" class="st1"/>
			<path d="M0 397.89 a0.680315 0.680315 -180 0 0 0.196626 0.0290343" class="st2"/>
		</g>
		<g id="shape439-1305" transform="translate(523.568,-247.933)">
			<title>Sheet.439</title>
			<path d="M0 397.92 L202.61 397.92" class="st2"/>
		</g>
		<g id="shape440-1308" transform="translate(522.887,-247.933)">
			<title>Sheet.440</title>
			<path d="M0 397.24 a0.680315 0.680315 -180 0 0 0.680315 0.680315 L0 397.24 Z" class="st1"/>
			<path d="M0 397.24 a0.680315 0.680315 -180 0 0 0.680315 0.680315" class="st2"/>
		</g>
		<g id="shape441-1311" transform="translate(726.175,-247.933)">
			<title>Sheet.441</title>
			<path d="M-0 397.92 a0.680315 0.680315 -180 0 0 0.680315 -0.680315 L0 397.92 Z" class="st1"/>
			<path d="M-0 397.92 a0.680315 0.680315 -180 0 0 0.680315 -0.680315" class="st2"/>
		</g>
		<g id="shape442-1314" transform="translate(1124.78,146.611) rotate(90)">
			<title>Sheet.442</title>
			<path d="M0 397.92 L2.7 397.92" class="st2"/>
		</g>
		<g id="shape443-1317" transform="translate(920.808,146.611) rotate(90)">
			<title>Sheet.443</title>
			<path d="M0 397.92 L2.7 397.92" class="st2"/>
		</g>
		<g id="shape444-1320" transform="translate(847.306,380.119) rotate(130.319)">
			<title>Sheet.444</title>
			<path d="M0 397.92 L15.8 397.92" class="st2"/>
		</g>
		<g id="shape445-1323" transform="translate(543.911,-275.274)">
			<title>Sheet.445</title>
			<path d="M0 397.92 A3.34859 3.34859 -180 0 0 0.81 396.06 L0 397.92 Z" class="st1"/>
			<path d="M0 397.92 A3.34859 3.34859 -180 0 0 0.81 396.06" class="st2"/>
		</g>
		<g id="shape446-1326" transform="translate(1019.5,-124.062) rotate(51.7331)">
			<title>Sheet.446</title>
			<path d="M0 397.92 L15.68 397.92" class="st2"/>
		</g>
		<g id="shape447-1329" transform="translate(544.721,-277.131)">
			<title>Sheet.447</title>
			<path d="M0 397.92 L161.9 397.92" class="st2"/>
		</g>
		<g id="shape448-1332" transform="translate(706.619,-275.54)">
			<title>Sheet.448</title>
			<path d="M-0 396.33 A3.46711 3.46711 -180 0 0 0.46 397.92 L0 396.33 Z" class="st1"/>
			<path d="M-0 396.33 A3.46711 3.46711 -180 0 0 0.46 397.92" class="st2"/>
		</g>
		<g id="shape449-1335" transform="translate(554.731,-276.156)">
			<title>Sheet.449</title>
			<path d="M0 397.92 L110.07 397.92" class="st2"/>
		</g>
		<g id="shape450-1338" transform="translate(668.308,-276.156)">
			<title>Sheet.450</title>
			<path d="M0 397.92 L27.86 397.92" class="st2"/>
		</g>
		<g id="shape451-1341" transform="translate(667.837,-275.451)">
			<title>Sheet.451</title>
			<path d="M0.47 397.22 a0.510236 0.510236 -180 0 0 -0.471621 0.704953 L0.47 397.22 Z" class="st1"/>
			<path d="M0.47 397.22 a0.510236 0.510236 -180 0 0 -0.471621 0.704953" class="st2"/>
		</g>
		<g id="shape452-1344" transform="translate(553.903,-275.733)">
			<title>Sheet.452</title>
			<path d="M0.83 397.5 A1.02047 1.02047 -180 0 0 -0 397.92 L0.83 397.5 Z" class="st1"/>
			<path d="M0.83 397.5 A1.02047 1.02047 -180 0 0 -0 397.92" class="st2"/>
		</g>
		<g id="shape453-1347" transform="translate(1026.6,-100.741) rotate(55.9235)">
			<title>Sheet.453</title>
			<path d="M0 397.92 L12.64 397.92" class="st2"/>
		</g>
		<g id="shape454-1350" transform="translate(696.163,-275.707)">
			<title>Sheet.454</title>
			<path d="M0.85 397.92 A1.02047 1.02047 -180 0 0 -0 397.47 L0.85 397.92 Z" class="st1"/>
			<path d="M0.85 397.92 A1.02047 1.02047 -180 0 0 -0 397.47" class="st2"/>
		</g>
		<g id="shape455-1353" transform="translate(703.808,-264.708)">
			<title>Sheet.455</title>
			<path d="M0 397.92 a0.340157 0.340157 -180 0 0 0.281749 -0.530747 L0 397.92 Z" class="st1"/>
			<path d="M0 397.92 a0.340157 0.340157 -180 0 0 0.281749 -0.530747" class="st2"/>
		</g>
		<g id="shape456-1356" transform="translate(876.639,354.96) rotate(125.801)">
			<title>Sheet.456</title>
			<path d="M0 397.92 L12.93 397.92" class="st2"/>
		</g>
		<g id="shape457-1359" transform="translate(546.278,-264.708)">
			<title>Sheet.457</title>
			<path d="M0.06 397.38 a0.340157 0.340157 -180 0 0 0.275887 0.539139 L0.06 397.38 Z" class="st1"/>
			<path d="M0.06 397.38 a0.340157 0.340157 -180 0 0 0.275887 0.539139" class="st2"/>
		</g>
		<g id="shape458-1362" transform="translate(546.616,-264.708)">
			<title>Sheet.458</title>
			<path d="M0 397.92 L122.83 397.92" class="st2"/>
		</g>
		<g id="shape459-1365" transform="translate(672.955,-264.708)">
			<title>Sheet.459</title>
			<path d="M0 397.92 L30.85 397.92" class="st2"/>
		</g>
		<g id="shape460-1368" transform="translate(703.808,-263.663)">
			<title>Sheet.460</title>
			<path d="M-0 397.92 a0.340157 0.340157 -180 0 0 0.340157 -0.340157 L0 397.92 Z" class="st1"/>
			<path d="M-0 397.92 a0.340157 0.340157 -180 0 0 0.340157 -0.340157" class="st2"/>
		</g>
		<g id="shape461-1371" transform="translate(546.276,-263.663)">
			<title>Sheet.461</title>
			<path d="M0 397.58 a0.340157 0.340157 -180 0 0 0.340157 0.340157 L0 397.58 Z" class="st1"/>
			<path d="M0 397.58 a0.340157 0.340157 -180 0 0 0.340157 0.340157" class="st2"/>
		</g>
		<g id="shape462-1374" transform="translate(546.616,-263.663)">
			<title>Sheet.462</title>
			<path d="M0 397.92 L122.83 397.92" class="st2"/>
		</g>
		<g id="shape463-1377" transform="translate(672.955,-263.663)">
			<title>Sheet.463</title>
			<path d="M0 397.92 L30.85 397.92" class="st2"/>
		</g>
		<g id="shape464-1380" transform="translate(1102.07,132.873) rotate(90)">
			<title>Sheet.464</title>
			<path d="M0 397.92 L1.04 397.92" class="st2"/>
		</g>
		<g id="shape465-1383" transform="translate(944.197,132.873) rotate(90)">
			<title>Sheet.465</title>
			<path d="M0 397.92 L1.04 397.92" class="st2"/>
		</g>
		<g id="shape466-1386" transform="translate(1035.64,-29.3851) rotate(67.5659)">
			<title>Sheet.466</title>
			<path d="M0 397.92 L10.94 397.92" class="st2"/>
		</g>
		<g id="shape467-1389" transform="translate(672.012,-264.708)">
			<title>Sheet.467</title>
			<path d="M-0 397.29 A1.02047 1.02047 -180 0 0 0.94 397.92 L0 397.29 Z" class="st1"/>
			<path d="M-0 397.29 A1.02047 1.02047 -180 0 0 0.94 397.92" class="st2"/>
		</g>
		<g id="shape468-1392" transform="translate(1035.64,-28.3406) rotate(67.5659)">
			<title>Sheet.468</title>
			<path d="M0 397.92 L10.94 397.92" class="st2"/>
		</g>
		<g id="shape469-1395" transform="translate(1033.55,-29.459) rotate(67.5659)">
			<title>Sheet.469</title>
			<path d="M0 397.92 L10.94 397.92" class="st2"/>
		</g>
		<g id="shape470-1398" transform="translate(669.445,-264.708)">
			<title>Sheet.470</title>
			<path d="M0 397.92 a0.510236 0.510236 -180 0 0 0.471621 -0.704953 L0 397.92 Z" class="st1"/>
			<path d="M0 397.92 a0.510236 0.510236 -180 0 0 0.471621 -0.704953" class="st2"/>
		</g>
		<g id="shape471-1401" transform="translate(664.798,-275.525)">
			<title>Sheet.471</title>
			<path d="M0.94 397.92 A1.02047 1.02047 -180 0 0 0 397.29 L0.94 397.92 Z" class="st1"/>
			<path d="M0.94 397.92 A1.02047 1.02047 -180 0 0 0 397.29" class="st2"/>
		</g>
		<g id="shape472-1404" transform="translate(1067.37,133.213) rotate(90)">
			<title>Sheet.472</title>
			<path d="M0 397.92 L1.04 397.92" class="st2"/>
		</g>
		<g id="shape473-1407" transform="translate(669.445,-263.663)">
			<title>Sheet.473</title>
			<path d="M0 397.92 a0.510236 0.510236 -180 0 0 0.510236 -0.510236 L0 397.92 Z" class="st1"/>
			<path d="M0 397.92 a0.510236 0.510236 -180 0 0 0.510236 -0.510236" class="st2"/>
		</g>
		<g id="shape474-1410" transform="translate(272.034,133.747) rotate(-90)">
			<title>Sheet.474</title>
			<path d="M0 397.92 L1.04 397.92" class="st2"/>
		</g>
		<g id="shape475-1413" transform="translate(1070.88,133.213) rotate(90)">
			<title>Sheet.475</title>
			<path d="M0 397.92 L1.04 397.92" class="st2"/>
		</g>
		<g id="shape476-1416" transform="translate(672.012,-263.663)">
			<title>Sheet.476</title>
			<path d="M-0 397.29 A1.02047 1.02047 -180 0 0 0.94 397.92 L0 397.29 Z" class="st1"/>
			<path d="M-0 397.29 A1.02047 1.02047 -180 0 0 0.94 397.92" class="st2"/>
		</g>
		<g id="shape477-1419" transform="translate(1069.93,132.582) rotate(90)">
			<title>Sheet.477</title>
			<path d="M0 397.92 L1.04 397.92" class="st2"/>
		</g>
		<g id="shape478-1422" transform="translate(1065.72,122.275) rotate(90)">
			<title>Sheet.478</title>
			<path d="M0 397.92 L1.04 397.92" class="st2"/>
		</g>
		<g id="shape479-1425" transform="translate(667.798,-274.407)">
			<title>Sheet.479</title>
			<path d="M0 397.73 a0.510236 0.510236 -180 0 0 0.0386152 0.194717 L0 397.73 Z" class="st1"/>
			<path d="M0 397.73 a0.510236 0.510236 -180 0 0 0.0386152 0.194717" class="st2"/>
		</g>
		<g id="shape480-1428" transform="translate(1101.73,133.213) rotate(90)">
			<title>Sheet.480</title>
			<path d="M0 397.92 L1.04 397.92" class="st2"/>
		</g>
		<g id="shape481-1431" transform="translate(1124.1,147.291) rotate(90)">
			<title>Sheet.481</title>
			<path d="M0 397.92 L2.7 397.92" class="st2"/>
		</g>
		<g id="shape482-1434" transform="translate(921.488,147.291) rotate(90)">
			<title>Sheet.482</title>
			<path d="M0 397.92 L2.7 397.92" class="st2"/>
		</g>
		<g id="shape483-1437" transform="translate(944.537,133.213) rotate(90)">
			<title>Sheet.483</title>
			<path d="M0 397.92 L1.04 397.92" class="st2"/>
		</g>
		<g id="shape484-1440" transform="translate(563.703,-345.962)">
			<title>Sheet.484</title>
			<desc>Remote host</desc>
			<rect x="0" y="382.803" width="197.596" height="15.1181" class="st3"/>
			<text x="0" y="392.63" class="st4">Remote host</text>		</g>
		<g id="shape485-1443" transform="translate(1031.52,135.719) rotate(90)">
			<title>Sheet.485</title>
			<desc>ICMPv6/IPv6</desc>
			<rect x="0" y="386.582" width="135.084" height="11.3386" class="st3"/>
			<text x="37.9" y="397.35" class="st8">ICMPv6/IPv6</text>		</g>
	</g>
</svg>
