<?xml version="1.0" encoding="UTF-8" standalone="no"?>
<!DOCTYPE svg PUBLIC "-//W3C//DTD SVG 1.1//EN" "http://www.w3.org/Graphics/SVG/1.1/DTD/svg11.dtd">
<!-- Generated by Microsoft Visio, SVG Export ICMPv6_remote.svg Page-1 -->
<svg xmlns="http://www.w3.org/2000/svg" xmlns:xlink="http://www.w3.org/1999/xlink" xmlns:ev="http://www.w3.org/2001/xml-events"
		width="8in" height="1.2in" viewBox="0 0 1024.24 135.362" xml:space="preserve" color-interpolation-filters="sRGB"
		class="st12">
	<style type="text/css">
	<![CDATA[
		.st1 {fill:none}
		.st2 {stroke:#000000;stroke-linecap:round;stroke-linejoin:round;stroke-width:0.75}
		.st3 {fill:none;stroke:none;stroke-linecap:round;stroke-linejoin:round;stroke-width:0.75}
		.st4 {fill:#000000;font-family:Calibri;font-size:1.25983em}
		.st5 {font-size:1em}
		.st6 {fill:none;stroke:#000000;stroke-linecap:butt;stroke-width:0.75}
		.st7 {fill:#000000;font-family:Calibri;font-size:1.88976em}
		.st8 {fill:#000000;font-family:Calibri;font-size:0.944893em}
		.st9 {fill:#000000;font-family:Calibri;font-size:0.629929em}
		.st10 {fill:none;stroke:#000000;stroke-linecap:round;stroke-linejoin:round;stroke-width:0.75}
		.st11 {fill:#000000;font-family:Calibri;font-size:0.472435em}
		.st12 {fill:none;fill-rule:evenodd;font-size:12px;overflow:visible;stroke-linecap:square;stroke-miterlimit:3}
	]]>
	</style>

	<g>
		<title>Page-1</title>
		<g id="shape18-1" transform="translate(478.74,-87.1831)">
			<title>Sheet.18</title>
			<path d="M0.23 135.36 C0.03 132.15 -0.17 128.93 0.23 125.72 C0.87 120.68 2.99 115.65 6.29 111.83 C11.54 105.73 19.75
						 102.7 28.04 101.29 C35.75 99.98 43.52 100.07 50.47 102.64 C54.22 104.02 57.72 106.13 61.23 108.24 L0.23
						 135.36 Z" class="st1"/>
			<path d="M0.23 135.36 C0.03 132.15 -0.17 128.93 0.23 125.72 C0.87 120.68 2.99 115.65 6.29 111.83 C11.54 105.73 19.75
						 102.7 28.04 101.29 C35.75 99.98 43.52 100.07 50.47 102.64 C54.22 104.02 57.72 106.13 61.23 108.24"
					class="st2"/>
		</g>
		<g id="shape19-4" transform="translate(532.492,-118.498)">
			<title>Sheet.19</title>
			<path d="M-0 135.36 C2.22 132.87 4.56 130.54 7.25 128.8 C13.05 125.05 20.52 123.95 27.88 124.09 C33.49 124.2 39.03 125.02
						 43.58 127.68 C44.7 128.33 45.75 129.09 46.77 129.92 L0 135.36 Z" class="st1"/>
			<path d="M-0 135.36 C2.22 132.87 4.56 130.54 7.25 128.8 C13.05 125.05 20.52 123.95 27.88 124.09 C33.49 124.2 39.03 125.02
						 43.58 127.68 C44.7 128.33 45.75 129.09 46.77 129.92" class="st2"/>
		</g>
		<g id="shape20-7" transform="translate(576.477,-120.215)">
			<title>Sheet.20</title>
			<path d="M0 135.36 C2.53 131.74 5.23 128.33 8.79 126.03 C15.63 121.63 25.67 121.32 33.46 124.46 C36.91 125.86 39.93 127.93
						 42.82 130.17 L0 135.36 Z" class="st1"/>
			<path d="M0 135.36 C2.53 131.74 5.23 128.33 8.79 126.03 C15.63 121.63 25.67 121.32 33.46 124.46 C36.91 125.86 39.93 127.93
						 42.82 130.17" class="st2"/>
		</g>
		<g id="shape21-10" transform="translate(614.299,-114.371)">
			<title>Sheet.21</title>
			<path d="M0 127.95 C4.18 124.79 8.42 121.76 13.17 119.7 C18.62 117.33 24.74 116.23 30.8 117.06 C35.59 117.72 40.33 119.58
						 43.7 122.68 C47.23 125.91 49.25 130.5 51 135.34 C51 135.34 51 135.35 51 135.35 C51 135.35 51 135.36 51 135.36
						 L0 127.95 Z" class="st1"/>
			<path d="M0 127.95 C4.18 124.79 8.42 121.76 13.17 119.7 C18.62 117.33 24.74 116.23 30.8 117.06 C35.59 117.72 40.33 119.58
						 43.7 122.68 C47.23 125.91 49.25 130.5 51 135.34 C51 135.34 51 135.35 51 135.35 C51 135.35 51 135.36 51 135.36"
					class="st2"/>
		</g>
		<g id="shape22-13" transform="translate(663.843,-80.8258)">
			<title>Sheet.22</title>
			<path d="M0 101.93 C2.67 101.71 3.89 101.68 5.12 101.76 C8.51 101.96 11.99 102.93 14.68 104.91 C17.77 107.18 19.83 110.76
						 21 114.56 C22.13 118.22 22.43 122.09 21.35 125.69 C20.5 128.49 18.82 131.13 16.61 132.97 C15.4 133.97 14.02
						 134.74 12.56 135.36 L0 101.93 Z" class="st1"/>
			<path d="M0 101.93 C2.67 101.71 3.89 101.68 5.12 101.76 C8.51 101.96 11.99 102.93 14.68 104.91 C17.77 107.18 19.83 110.76
						 21 114.56 C22.13 118.22 22.43 122.09 21.35 125.69 C20.5 128.49 18.82 131.13 16.61 132.97 C15.4 133.97 14.02
						 134.74 12.56 135.36" class="st2"/>
		</g>
		<g id="shape23-16" transform="translate(661.234,-46.7134)">
			<title>Sheet.23</title>
			<path d="M22.59 94.76 C25.24 97.76 27.66 100.87 28.99 104.53 C30.24 107.96 30.53 111.88 29.7 115.49 C28.92 118.82 27.19
						 121.88 24.96 124.43 C22.09 127.72 18.41 130.18 14.43 132.06 C10.78 133.79 6.87 135.04 2.94 135.31 C1.96
						 135.37 0.98 135.38 -0 135.34 L22.59 94.76 Z" class="st1"/>
			<path d="M22.59 94.76 C25.24 97.76 27.66 100.87 28.99 104.53 C30.24 107.96 30.53 111.88 29.7 115.49 C28.92 118.82 27.19
						 121.88 24.96 124.43 C22.09 127.72 18.41 130.18 14.43 132.06 C10.78 133.79 6.87 135.04 2.94 135.31 C1.96
						 135.37 0.98 135.38 -0 135.34" class="st2"/>
		</g>
		<g id="shape24-19" transform="translate(612.775,-21.0802)">
			<title>Sheet.24</title>
			<path d="M30.98 90.78 C35.04 92.73 39.1 94.68 42.2 97.73 C44.45 99.94 46.21 102.73 47.36 105.8 C48.82 109.69 49.32 114.03
						 48.26 117.91 C46.7 123.58 41.78 128.24 36.37 131.13 C29.69 134.7 22.24 135.57 14.83 135.39 C11.25 135.31
						 7.67 134.97 4.29 134.05 C2.83 133.65 1.4 133.14 0 132.54 L30.98 90.78 Z" class="st1"/>
			<path d="M30.98 90.78 C35.04 92.73 39.1 94.68 42.2 97.73 C44.45 99.94 46.21 102.73 47.36 105.8 C48.82 109.69 49.32 114.03
						 48.26 117.91 C46.7 123.58 41.78 128.24 36.37 131.13 C29.69 134.7 22.24 135.57 14.83 135.39 C11.25 135.31
						 7.67 134.97 4.29 134.05 C2.83 133.65 1.4 133.14 0 132.54" class="st2"/>
		</g>
		<g id="shape25-22" transform="translate(543.443,-6.81813)">
			<title>Sheet.25</title>
			<path d="M71.96 111.08 C70.53 115.87 68.78 120.42 65.77 124.05 C60.74 130.1 52.22 133.56 44.01 134.81 C37.03 135.87 30.28
						 135.34 23.38 133.91 C17.16 132.63 10.82 130.62 6.33 126.51 C3.84 124.24 1.92 121.33 0 118.41 L71.96 111.08
						 Z" class="st1"/>
			<path d="M71.96 111.08 C70.53 115.87 68.78 120.42 65.77 124.05 C60.74 130.1 52.22 133.56 44.01 134.81 C37.03 135.87 30.28
						 135.34 23.38 133.91 C17.16 132.63 10.82 130.62 6.33 126.51 C3.84 124.24 1.92 121.33 0 118.41" class="st2"/>
		</g>
		<g id="shape26-25" transform="translate(490.928,-12.3965)">
			<title>Sheet.26</title>
			<path d="M57.25 130.47 C57.22 130.48 57.2 130.49 57.18 130.49 C57.18 130.5 57.17 130.5 57.17 130.5 C52.59 132.21 47.96
						 133.7 43.14 134.56 C34.54 136.08 25.37 135.56 17.12 132.31 C11.38 130.05 6.08 126.47 2.32 121.78 C1.47 120.73
						 0.71 119.62 0 118.48 L57.25 130.47 Z" class="st1"/>
			<path d="M57.25 130.47 C57.22 130.48 57.2 130.49 57.18 130.49 C57.18 130.5 57.17 130.5 57.17 130.5 C52.59 132.21 47.96
						 133.7 43.14 134.56 C34.54 136.08 25.37 135.56 17.12 132.31 C11.38 130.05 6.08 126.47 2.32 121.78 C1.47 120.73
						 0.71 119.62 0 118.48" class="st2"/>
		</g>
		<g id="shape27-28" transform="translate(463.293,-29.259)">
			<title>Sheet.27</title>
			<path d="M32.28 135.05 C29.12 135.33 25.9 135.47 22.55 135.28 C15.36 134.87 7.54 132.96 3.48 127.65 C1.54 125.12 0.46
						 121.82 0.12 118.46 C-0.17 115.68 0.05 112.86 1.01 110.39 C1.79 108.4 3.04 106.63 4.48 104.94 L32.28 135.05
						 Z" class="st1"/>
			<path d="M32.28 135.05 C29.12 135.33 25.9 135.47 22.55 135.28 C15.36 134.87 7.54 132.96 3.48 127.65 C1.54 125.12 0.46
						 121.82 0.12 118.46 C-0.17 115.68 0.05 112.86 1.01 110.39 C1.79 108.4 3.04 106.63 4.48 104.94" class="st2"/>
		</g>
		<g id="shape28-31" transform="translate(456.749,-55.6768)">
			<title>Sheet.28</title>
			<path d="M24.56 135.36 C21.39 134.76 18.25 134.03 15.18 133 C11.35 131.71 7.63 129.96 4.64 127.17 C2.56 125.22 0.83 122.76
						 0.24 120.01 C-0.45 116.84 0.35 113.28 2.08 110.53 C5.04 105.84 10.71 103.52 16.12 101.85 C18.11 101.24 20.08
						 100.71 22.03 100.21 L24.56 135.36 Z" class="st1"/>
			<path d="M24.56 135.36 C21.39 134.76 18.25 134.03 15.18 133 C11.35 131.71 7.63 129.96 4.64 127.17 C2.56 125.22 0.83 122.76
						 0.24 120.01 C-0.45 116.84 0.35 113.28 2.08 110.53 C5.04 105.84 10.71 103.52 16.12 101.85 C18.11 101.24 20.08
						 100.71 22.03 100.21" class="st2"/>
		</g>
		<g id="shape29-34" transform="translate(14.4218,-86.4352)">
			<title>Sheet.29</title>
			<desc>ICMPv6 client</desc>
			<rect x="0" y="120.244" width="197.596" height="15.1181" class="st3"/>
			<text x="0" y="130.07" class="st4">ICMPv6 <tspan x="0" dy="1.2em" class="st5">client</tspan></text>		</g>
		<g id="shape30-38" transform="translate(0,-16.4896)">
			<title>Sheet.30</title>
			<path d="M0 29.05 L225.81 29.05 L225.81 135.36 L0 135.36 L0 29.05 Z" class="st6"/>
		</g>
		<g id="shape31-40" transform="translate(473.795,-61.3814)">
			<title>Sheet.31</title>
			<desc>Internet</desc>
			<rect x="0" y="112.685" width="197.596" height="22.6772" class="st3"/>
			<text x="61.19" y="130.83" class="st7">Internet</text>		</g>
		<g id="shape32-43" transform="translate(280.957,-16.4896)">
			<title>Sheet.32</title>
			<path d="M0 29.05 L69.26 29.05 L69.26 135.36 L0 135.36 L0 29.05 Z" class="st6"/>
		</g>
		<g id="shape33-45" transform="translate(216.367,-66.5463)">
			<title>Sheet.33</title>
			<desc>BLE enabled router</desc>
			<rect x="0" y="124.024" width="197.596" height="11.3386" class="st3"/>
			<text x="90.56" y="119.49" class="st8">BLE <tspan x="80.2" dy="1.2em" class="st5">enabled </tspan><tspan x="84.16"
						dy="1.2em" class="st5">router</tspan></text>		</g>
		<g id="shape34-50" transform="translate(378.185,57.2139) rotate(90)">
			<title>Sheet.34</title>
			<path d="M0 135.36 L4.25 135.36" class="st2"/>
		</g>
		<g id="shape35-53" transform="translate(378.185,69.9698) rotate(90)">
			<title>Sheet.35</title>
			<path d="M0 135.36 L4.25 135.36" class="st2"/>
		</g>
		<g id="shape36-56" transform="translate(303.359,178.285) rotate(153.435)">
			<title>Sheet.36</title>
			<path d="M0 135.36 L19.02 135.36" class="st2"/>
		</g>
		<g id="shape37-59" transform="translate(286.351,-55.3538) rotate(26.5651)">
			<title>Sheet.37</title>
			<path d="M0 135.36 L19.02 135.36" class="st2"/>
		</g>
		<g id="shape38-62" transform="translate(242.823,-73.8963)">
			<title>Sheet.38</title>
			<path d="M0 135.36 L21.13 135.36" class="st2"/>
		</g>
		<g id="shape39-65" transform="translate(263.949,205.332) rotate(180)">
			<title>Sheet.39</title>
			<path d="M0 135.36 L21.13 135.36" class="st2"/>
		</g>
		<g id="shape40-68" transform="translate(399.312,57.2139) rotate(90)">
			<title>Sheet.40</title>
			<path d="M0 135.36 L4.25 135.36" class="st2"/>
		</g>
		<g id="shape41-71" transform="translate(399.312,69.9698) rotate(90)">
			<title>Sheet.41</title>
			<path d="M0 135.36 L4.25 135.36" class="st2"/>
		</g>
		<g id="shape42-74" transform="translate(324.485,-63.8577) rotate(26.5651)">
			<title>Sheet.42</title>
			<path d="M0 135.36 L19.02 135.36" class="st2"/>
		</g>
		<g id="shape43-77" transform="translate(341.493,186.789) rotate(153.435)">
			<title>Sheet.43</title>
			<path d="M0 135.36 L19.02 135.36" class="st2"/>
		</g>
		<g id="shape44-80" transform="translate(574.76,57.2139) rotate(90)">
			<title>Sheet.44</title>
			<path d="M0 135.36 L4.25 135.36" class="st2"/>
		</g>
		<g id="shape45-83" transform="translate(574.76,69.9698) rotate(90)">
			<title>Sheet.45</title>
			<path d="M0 135.36 L4.25 135.36" class="st2"/>
		</g>
		<g id="shape46-86" transform="translate(499.934,-63.8577) rotate(26.5651)">
			<title>Sheet.46</title>
			<path d="M0 135.36 L19.02 135.36" class="st2"/>
		</g>
		<g id="shape47-89" transform="translate(516.941,186.789) rotate(153.435)">
			<title>Sheet.47</title>
			<path d="M0 135.36 L19.02 135.36" class="st2"/>
		</g>
		<g id="shape48-92" transform="translate(502.588,57.2139) rotate(90)">
			<title>Sheet.48</title>
			<path d="M0 135.36 L4.25 135.36" class="st2"/>
		</g>
		<g id="shape49-95" transform="translate(502.588,69.9698) rotate(90)">
			<title>Sheet.49</title>
			<path d="M0 135.36 L4.25 135.36" class="st2"/>
		</g>
		<g id="shape50-98" transform="translate(427.762,178.285) rotate(153.435)">
			<title>Sheet.50</title>
			<path d="M0 135.36 L19.02 135.36" class="st2"/>
		</g>
		<g id="shape51-101" transform="translate(410.754,-55.3538) rotate(26.5651)">
			<title>Sheet.51</title>
			<path d="M0 135.36 L19.02 135.36" class="st2"/>
		</g>
		<g id="shape52-104" transform="translate(367.226,-73.8963)">
			<title>Sheet.52</title>
			<path d="M0 135.36 L72.17 135.36" class="st2"/>
		</g>
		<g id="shape53-107" transform="translate(439.398,205.332) rotate(180)">
			<title>Sheet.53</title>
			<path d="M0 135.36 L72.17 135.36" class="st2"/>
		</g>
		<g id="shape54-110" transform="translate(844.944,57.2139) rotate(90)">
			<title>Sheet.54</title>
			<path d="M0 135.36 L4.25 135.36" class="st2"/>
		</g>
		<g id="shape55-113" transform="translate(844.944,69.9698) rotate(90)">
			<title>Sheet.55</title>
			<path d="M0 135.36 L4.25 135.36" class="st2"/>
		</g>
		<g id="shape56-116" transform="translate(770.117,178.285) rotate(153.435)">
			<title>Sheet.56</title>
			<path d="M0 135.36 L19.02 135.36" class="st2"/>
		</g>
		<g id="shape57-119" transform="translate(753.109,-55.3538) rotate(26.5651)">
			<title>Sheet.57</title>
			<path d="M0 135.36 L19.02 135.36" class="st2"/>
		</g>
		<g id="shape58-122" transform="translate(917.115,57.2139) rotate(90)">
			<title>Sheet.58</title>
			<path d="M0 135.36 L4.25 135.36" class="st2"/>
		</g>
		<g id="shape59-125" transform="translate(917.115,69.9698) rotate(90)">
			<title>Sheet.59</title>
			<path d="M0 135.36 L4.25 135.36" class="st2"/>
		</g>
		<g id="shape60-128" transform="translate(842.289,-63.8577) rotate(26.5651)">
			<title>Sheet.60</title>
			<path d="M0 135.36 L19.02 135.36" class="st2"/>
		</g>
		<g id="shape61-131" transform="translate(859.297,186.789) rotate(153.435)">
			<title>Sheet.61</title>
			<path d="M0 135.36 L19.02 135.36" class="st2"/>
		</g>
		<g id="shape62-134" transform="translate(781.753,196.828) rotate(180)">
			<title>Sheet.62</title>
			<path d="M0 135.36 L72.17 135.36" class="st2"/>
		</g>
		<g id="shape63-137" transform="translate(709.582,-65.3924)">
			<title>Sheet.63</title>
			<path d="M0 135.36 L72.17 135.36" class="st2"/>
		</g>
		<g id="shape64-140" transform="translate(335.833,-76.0942)">
			<title>Sheet.64</title>
			<desc>ICMPv6/IPv6</desc>
			<rect x="0" y="124.024" width="135.084" height="11.3386" class="st3"/>
			<text x="37.9" y="134.8" class="st8">ICMPv6/IPv6</text>		</g>
		<g id="shape65-143" transform="translate(678.189,-76.0942)">
			<title>Sheet.65</title>
			<desc>ICMPv6/IPv6</desc>
			<rect x="0" y="124.024" width="135.084" height="11.3386" class="st3"/>
			<text x="37.9" y="134.8" class="st8">ICMPv6/IPv6</text>		</g>
		<g id="shape66-146" transform="translate(8.10764,-24.439)">
			<title>Sheet.66</title>
			<path d="M0 46.2 L209.33 46.2 L209.33 135.36 L0 135.36 L0 46.2 Z" class="st6"/>
		</g>
		<g id="shape67-148" transform="translate(185.907,-79.0651)">
			<title>Sheet.67</title>
			<desc>BLE 6lowpan</desc>
			<rect x="0" y="127.803" width="135.084" height="7.55906" class="st3"/>
			<text x="47.94" y="134.98" class="st9">BLE 6lowpan</text>		</g>
		<g id="shape68-151" transform="translate(125.386,-31.6784)">
			<title>Sheet.68</title>
			<path d="M0 135.36 L22.68 135.36 L22.68 112.68 L0 112.68 L0 135.36 Z" class="st6"/>
		</g>
		<g id="shape69-153" transform="translate(129.681,-35.9727)">
			<title>Sheet.69</title>
			<ellipse cx="7.04425" cy="128.318" rx="7.04425" ry="7.04425" class="st10"/>
		</g>
		<g id="shape70-155" transform="translate(93.3885,-31.6784)">
			<title>Sheet.70</title>
			<path d="M0 135.36 L22.68 135.36 L22.68 112.68 L0 112.68 L0 135.36 Z" class="st6"/>
		</g>
		<g id="shape71-157" transform="translate(97.6828,-35.9727)">
			<title>Sheet.71</title>
			<ellipse cx="7.04425" cy="128.318" rx="7.04425" ry="7.04425" class="st10"/>
		</g>
		<g id="shape72-159" transform="translate(92.6904,-56.2871)">
			<title>Sheet.72</title>
			<desc>Button 1</desc>
			<rect x="0" y="129.693" width="24.2894" height="5.66929" class="st3"/>
			<text x="2.15" y="135.08" class="st11">Button 1</text>		</g>
		<g id="shape73-162" transform="translate(124.688,-56.2871)">
			<title>Sheet.73</title>
			<desc>Button 2</desc>
			<rect x="0" y="129.693" width="24.2894" height="5.66929" class="st3"/>
			<text x="2.15" y="135.08" class="st11">Button 2</text>		</g>
		<g id="shape74-165" transform="translate(157.384,-65.6944)">
			<title>Sheet.74</title>
			<path d="M0 135.36 L22.68 135.36 L22.68 100.14 L0 100.14 L0 135.36 Z" class="st6"/>
		</g>
		<g id="shape75-167" transform="translate(161.691,-85.0652)">
			<title>Sheet.75</title>
			<path d="M12.44 135.36 A7.04425 7.04425 -180 1 0 1.62 135.36 L12.44 135.36 Z" class="st1"/>
			<path d="M12.44 135.36 A7.04425 7.04425 -180 1 0 1.62 135.36" class="st2"/>
		</g>
		<g id="shape76-170" transform="translate(156.686,-102.846)">
			<title>Sheet.76</title>
			<desc>Light 3</desc>
			<rect x="0" y="129.693" width="24.2894" height="5.66929" class="st3"/>
			<text x="4.45" y="135.08" class="st11">Light 3</text>		</g>
		<g id="shape77-173" transform="translate(188.684,-102.846)">
			<title>Sheet.77</title>
			<desc>Light 4</desc>
			<rect x="0" y="129.693" width="24.2894" height="5.66929" class="st3"/>
			<text x="4.45" y="135.08" class="st11">Light 4</text>		</g>
		<g id="shape78-176" transform="translate(165.502,-76.0456)">
			<title>Sheet.78</title>
			<path d="M0 135.36 L6.44 135.36" class="st2"/>
		</g>
		<g id="shape79-179" transform="translate(163.312,-76.0456)">
			<title>Sheet.79</title>
			<path d="M2.19 135.36 A17.0418 17.0418 -180 0 0 -0 126.34 L2.19 135.36 Z" class="st1"/>
			<path d="M2.19 135.36 A17.0418 17.0418 -180 0 0 -0 126.34" class="st2"/>
		</g>
		<g id="shape80-182" transform="translate(171.943,-76.0456)">
			<title>Sheet.80</title>
			<path d="M2.19 126.34 A17.0418 17.0418 -180 0 0 0 135.36 L2.19 126.34 Z" class="st1"/>
			<path d="M2.19 126.34 A17.0418 17.0418 -180 0 0 0 135.36" class="st2"/>
		</g>
		<g id="shape81-185" transform="translate(165.502,-70.3064)">
			<title>Sheet.81</title>
			<path d="M0 135.36 L6.44 135.36" class="st2"/>
		</g>
		<g id="shape82-188" transform="translate(166.096,-69.7437)">
			<title>Sheet.82</title>
			<path d="M0 135.36 L5.25 135.36" class="st2"/>
		</g>
		<g id="shape83-191" transform="translate(72.9859,163.87) rotate(-136.539)">
			<title>Sheet.83</title>
			<path d="M0 135.36 L0.82 135.36" class="st2"/>
		</g>
		<g id="shape84-194" transform="translate(78.2389,-32.6334) rotate(-43.4609)">
			<title>Sheet.84</title>
			<path d="M0 135.36 L0.82 135.36" class="st2"/>
		</g>
		<g id="shape85-197" transform="translate(300.864,59.3165) rotate(90)">
			<title>Sheet.85</title>
			<path d="M0 135.36 L0.93 135.36" class="st2"/>
		</g>
		<g id="shape86-200" transform="translate(30.1402,65.0557) rotate(-90)">
			<title>Sheet.86</title>
			<path d="M0 135.36 L0.69 135.36" class="st2"/>
		</g>
		<g id="shape87-203" transform="translate(70.349,160.636) rotate(-135.336)">
			<title>Sheet.87</title>
			<path d="M0 135.36 L0.45 135.36" class="st2"/>
		</g>
		<g id="shape88-206" transform="translate(70.0258,-32.434) rotate(-44.6645)">
			<title>Sheet.88</title>
			<path d="M0 135.36 L0.45 135.36" class="st2"/>
		</g>
		<g id="shape89-209" transform="translate(165.137,-71.3202)">
			<title>Sheet.89</title>
			<path d="M0.04 135.16 a0.141732 0.141732 -180 0 0 -1.3739E-015 0.20161 L0.04 135.16 Z" class="st1"/>
			<path d="M0.04 135.16 a0.141732 0.141732 -180 0 0 -1.3739E-015 0.20161" class="st2"/>
		</g>
		<g id="shape90-212" transform="translate(76.7894,-32.4913) rotate(-44.6645)">
			<title>Sheet.90</title>
			<path d="M0 135.36 L0.45 135.36" class="st2"/>
		</g>
		<g id="shape91-215" transform="translate(77.1126,159.536) rotate(-135.336)">
			<title>Sheet.91</title>
			<path d="M0 135.36 L0.45 135.36" class="st2"/>
		</g>
		<g id="shape92-218" transform="translate(172.266,-71.8985)">
			<title>Sheet.92</title>
			<path d="M0 135.36 a0.141732 0.141732 -180 0 0 1.38778E-017 -0.20161 L0 135.36 Z" class="st1"/>
			<path d="M0 135.36 a0.141732 0.141732 -180 0 0 1.38778E-017 -0.20161" class="st2"/>
		</g>
		<g id="shape93-221" transform="translate(70.349,159.545) rotate(-135.336)">
			<title>Sheet.93</title>
			<path d="M0 135.36 L0.45 135.36" class="st2"/>
		</g>
		<g id="shape94-224" transform="translate(70.0258,-33.5249) rotate(-44.6645)">
			<title>Sheet.94</title>
			<path d="M0 135.36 L0.45 135.36" class="st2"/>
		</g>
		<g id="shape95-227" transform="translate(165.137,-72.4111)">
			<title>Sheet.95</title>
			<path d="M0.04 135.16 a0.141732 0.141732 -180 0 0 -1.3739E-015 0.20161 L0.04 135.16 Z" class="st1"/>
			<path d="M0.04 135.16 a0.141732 0.141732 -180 0 0 -1.3739E-015 0.20161" class="st2"/>
		</g>
		<g id="shape96-230" transform="translate(76.7894,-33.5822) rotate(-44.6645)">
			<title>Sheet.96</title>
			<path d="M0 135.36 L0.45 135.36" class="st2"/>
		</g>
		<g id="shape97-233" transform="translate(77.1126,158.445) rotate(-135.336)">
			<title>Sheet.97</title>
			<path d="M0 135.36 L0.45 135.36" class="st2"/>
		</g>
		<g id="shape98-236" transform="translate(172.266,-72.9894)">
			<title>Sheet.98</title>
			<path d="M0 135.36 a0.141732 0.141732 -180 0 0 1.38778E-017 -0.20161 L0 135.36 Z" class="st1"/>
			<path d="M0 135.36 a0.141732 0.141732 -180 0 0 1.38778E-017 -0.20161" class="st2"/>
		</g>
		<g id="shape99-239" transform="translate(70.349,158.454) rotate(-135.336)">
			<title>Sheet.99</title>
			<path d="M0 135.36 L0.45 135.36" class="st2"/>
		</g>
		<g id="shape100-242" transform="translate(70.0258,-34.6158) rotate(-44.6645)">
			<title>Sheet.100</title>
			<path d="M0 135.36 L0.45 135.36" class="st2"/>
		</g>
		<g id="shape101-245" transform="translate(165.137,-73.502)">
			<title>Sheet.101</title>
			<path d="M0.04 135.16 a0.141732 0.141732 -180 0 0 -1.3739E-015 0.20161 L0.04 135.16 Z" class="st1"/>
			<path d="M0.04 135.16 a0.141732 0.141732 -180 0 0 -1.3739E-015 0.20161" class="st2"/>
		</g>
		<g id="shape102-248" transform="translate(76.7894,-34.6731) rotate(-44.6645)">
			<title>Sheet.102</title>
			<path d="M0 135.36 L0.45 135.36" class="st2"/>
		</g>
		<g id="shape103-251" transform="translate(77.1126,157.355) rotate(-135.336)">
			<title>Sheet.103</title>
			<path d="M0 135.36 L0.45 135.36" class="st2"/>
		</g>
		<g id="shape104-254" transform="translate(172.266,-74.0803)">
			<title>Sheet.104</title>
			<path d="M0 135.36 a0.141732 0.141732 -180 0 0 1.38778E-017 -0.20161 L0 135.36 Z" class="st1"/>
			<path d="M0 135.36 a0.141732 0.141732 -180 0 0 1.38778E-017 -0.20161" class="st2"/>
		</g>
		<g id="shape105-257" transform="translate(70.349,157.363) rotate(-135.336)">
			<title>Sheet.105</title>
			<path d="M0 135.36 L0.45 135.36" class="st2"/>
		</g>
		<g id="shape106-260" transform="translate(70.0258,-35.7067) rotate(-44.6645)">
			<title>Sheet.106</title>
			<path d="M0 135.36 L0.45 135.36" class="st2"/>
		</g>
		<g id="shape107-263" transform="translate(165.137,-74.5929)">
			<title>Sheet.107</title>
			<path d="M0.04 135.16 a0.141732 0.141732 -180 0 0 -1.3739E-015 0.20161 L0.04 135.16 Z" class="st1"/>
			<path d="M0.04 135.16 a0.141732 0.141732 -180 0 0 -1.3739E-015 0.20161" class="st2"/>
		</g>
		<g id="shape108-266" transform="translate(76.7894,-35.7639) rotate(-44.6645)">
			<title>Sheet.108</title>
			<path d="M0 135.36 L0.45 135.36" class="st2"/>
		</g>
		<g id="shape109-269" transform="translate(77.1126,156.264) rotate(-135.336)">
			<title>Sheet.109</title>
			<path d="M0 135.36 L0.45 135.36" class="st2"/>
		</g>
		<g id="shape110-272" transform="translate(172.266,-75.1712)">
			<title>Sheet.110</title>
			<path d="M0 135.36 a0.141732 0.141732 -180 0 0 1.38778E-017 -0.20161 L0 135.36 Z" class="st1"/>
			<path d="M0 135.36 a0.141732 0.141732 -180 0 0 1.38778E-017 -0.20161" class="st2"/>
		</g>
		<g id="shape111-275" transform="translate(153.396,-74.5715) rotate(-5.131)">
			<title>Sheet.111</title>
			<path d="M0 135.36 L6.47 135.36" class="st2"/>
		</g>
		<g id="shape112-278" transform="translate(153.396,-73.731) rotate(-5.131)">
			<title>Sheet.112</title>
			<path d="M0 135.36 L6.47 135.36" class="st2"/>
		</g>
		<g id="shape113-281" transform="translate(153.396,-73.4806) rotate(-5.131)">
			<title>Sheet.113</title>
			<path d="M0 135.36 L6.47 135.36" class="st2"/>
		</g>
		<g id="shape114-284" transform="translate(153.396,-72.6401) rotate(-5.131)">
			<title>Sheet.114</title>
			<path d="M0 135.36 L6.47 135.36" class="st2"/>
		</g>
		<g id="shape115-287" transform="translate(153.396,-72.3897) rotate(-5.131)">
			<title>Sheet.115</title>
			<path d="M0 135.36 L6.47 135.36" class="st2"/>
		</g>
		<g id="shape116-290" transform="translate(153.396,-71.5493) rotate(-5.131)">
			<title>Sheet.116</title>
			<path d="M0 135.36 L6.47 135.36" class="st2"/>
		</g>
		<g id="shape117-293" transform="translate(153.396,-71.2989) rotate(-5.131)">
			<title>Sheet.117</title>
			<path d="M0 135.36 L6.47 135.36" class="st2"/>
		</g>
		<g id="shape118-296" transform="translate(153.396,-70.4584) rotate(-5.131)">
			<title>Sheet.118</title>
			<path d="M0 135.36 L6.47 135.36" class="st2"/>
		</g>
		<g id="shape119-299" transform="translate(300.864,61.0887) rotate(90)">
			<title>Sheet.119</title>
			<path d="M0 135.36 L0.25 135.36" class="st2"/>
		</g>
		<g id="shape120-302" transform="translate(300.864,62.1796) rotate(90)">
			<title>Sheet.120</title>
			<path d="M0 135.36 L0.25 135.36" class="st2"/>
		</g>
		<g id="shape121-305" transform="translate(300.864,63.2705) rotate(90)">
			<title>Sheet.121</title>
			<path d="M0 135.36 L0.25 135.36" class="st2"/>
		</g>
		<g id="shape122-308" transform="translate(36.5806,62.9425) rotate(-90)">
			<title>Sheet.122</title>
			<path d="M0 135.36 L0.25 135.36" class="st2"/>
		</g>
		<g id="shape123-311" transform="translate(36.5806,61.8517) rotate(-90)">
			<title>Sheet.123</title>
			<path d="M0 135.36 L0.25 135.36" class="st2"/>
		</g>
		<g id="shape124-314" transform="translate(36.5806,60.7608) rotate(-90)">
			<title>Sheet.124</title>
			<path d="M0 135.36 L0.25 135.36" class="st2"/>
		</g>
		<g id="shape125-317" transform="translate(307.305,59.3165) rotate(90)">
			<title>Sheet.125</title>
			<path d="M0 135.36 L0.35 135.36" class="st2"/>
		</g>
		<g id="shape126-320" transform="translate(307.305,63.783) rotate(90)">
			<title>Sheet.126</title>
			<path d="M0 135.36 L1.27 135.36" class="st2"/>
		</g>
		<g id="shape127-323" transform="translate(168.089,-69.4911)">
			<title>Sheet.127</title>
			<path d="M0 135.36 L1.27 135.36" class="st2"/>
		</g>
		<g id="shape128-326" transform="translate(75.1571,164.291) rotate(-136.643)">
			<title>Sheet.128</title>
			<path d="M0 135.36 L0.37 135.36" class="st2"/>
		</g>
		<g id="shape129-329" transform="translate(76.4243,-32.5494) rotate(-43.357)">
			<title>Sheet.129</title>
			<path d="M0 135.36 L0.37 135.36" class="st2"/>
		</g>
		<g id="shape130-332" transform="translate(189.382,-65.6944)">
			<title>Sheet.130</title>
			<path d="M0 135.36 L22.68 135.36 L22.68 100.14 L0 100.14 L0 135.36 Z" class="st6"/>
		</g>
		<g id="shape131-334" transform="translate(193.689,-85.0652)">
			<title>Sheet.131</title>
			<path d="M12.44 135.36 A7.04425 7.04425 -180 1 0 1.62 135.36 L12.44 135.36 Z" class="st1"/>
			<path d="M12.44 135.36 A7.04425 7.04425 -180 1 0 1.62 135.36" class="st2"/>
		</g>
		<g id="shape132-337" transform="translate(197.5,-76.0456)">
			<title>Sheet.132</title>
			<path d="M0 135.36 L6.44 135.36" class="st2"/>
		</g>
		<g id="shape133-340" transform="translate(195.31,-76.0456)">
			<title>Sheet.133</title>
			<path d="M2.19 135.36 A17.0418 17.0418 -180 0 0 0 126.34 L2.19 135.36 Z" class="st1"/>
			<path d="M2.19 135.36 A17.0418 17.0418 -180 0 0 0 126.34" class="st2"/>
		</g>
		<g id="shape134-343" transform="translate(203.94,-76.0456)">
			<title>Sheet.134</title>
			<path d="M2.19 126.34 A17.0418 17.0418 -180 0 0 -0 135.36 L2.19 126.34 Z" class="st1"/>
			<path d="M2.19 126.34 A17.0418 17.0418 -180 0 0 -0 135.36" class="st2"/>
		</g>
		<g id="shape135-346" transform="translate(197.5,-70.3064)">
			<title>Sheet.135</title>
			<path d="M0 135.36 L6.44 135.36" class="st2"/>
		</g>
		<g id="shape136-349" transform="translate(198.094,-69.7437)">
			<title>Sheet.136</title>
			<path d="M0 135.36 L5.25 135.36" class="st2"/>
		</g>
		<g id="shape137-352" transform="translate(104.984,163.87) rotate(-136.539)">
			<title>Sheet.137</title>
			<path d="M0 135.36 L0.82 135.36" class="st2"/>
		</g>
		<g id="shape138-355" transform="translate(110.237,-32.6334) rotate(-43.4609)">
			<title>Sheet.138</title>
			<path d="M0 135.36 L0.82 135.36" class="st2"/>
		</g>
		<g id="shape139-358" transform="translate(332.862,59.3165) rotate(90)">
			<title>Sheet.139</title>
			<path d="M0 135.36 L0.93 135.36" class="st2"/>
		</g>
		<g id="shape140-361" transform="translate(62.1379,65.0557) rotate(-90)">
			<title>Sheet.140</title>
			<path d="M0 135.36 L0.69 135.36" class="st2"/>
		</g>
		<g id="shape141-364" transform="translate(102.347,160.636) rotate(-135.336)">
			<title>Sheet.141</title>
			<path d="M0 135.36 L0.45 135.36" class="st2"/>
		</g>
		<g id="shape142-367" transform="translate(102.023,-32.434) rotate(-44.6645)">
			<title>Sheet.142</title>
			<path d="M0 135.36 L0.45 135.36" class="st2"/>
		</g>
		<g id="shape143-370" transform="translate(197.135,-71.3202)">
			<title>Sheet.143</title>
			<path d="M0.04 135.16 a0.141732 0.141732 -180 0 0 -1.3739E-015 0.20161 L0.04 135.16 Z" class="st1"/>
			<path d="M0.04 135.16 a0.141732 0.141732 -180 0 0 -1.3739E-015 0.20161" class="st2"/>
		</g>
		<g id="shape144-373" transform="translate(108.787,-32.4913) rotate(-44.6645)">
			<title>Sheet.144</title>
			<path d="M0 135.36 L0.45 135.36" class="st2"/>
		</g>
		<g id="shape145-376" transform="translate(109.11,159.536) rotate(-135.336)">
			<title>Sheet.145</title>
			<path d="M0 135.36 L0.45 135.36" class="st2"/>
		</g>
		<g id="shape146-379" transform="translate(204.264,-71.8985)">
			<title>Sheet.146</title>
			<path d="M0 135.36 a0.141732 0.141732 -180 0 0 1.38778E-017 -0.20161 L0 135.36 Z" class="st1"/>
			<path d="M0 135.36 a0.141732 0.141732 -180 0 0 1.38778E-017 -0.20161" class="st2"/>
		</g>
		<g id="shape147-382" transform="translate(102.347,159.545) rotate(-135.336)">
			<title>Sheet.147</title>
			<path d="M0 135.36 L0.45 135.36" class="st2"/>
		</g>
		<g id="shape148-385" transform="translate(102.023,-33.5249) rotate(-44.6645)">
			<title>Sheet.148</title>
			<path d="M0 135.36 L0.45 135.36" class="st2"/>
		</g>
		<g id="shape149-388" transform="translate(197.135,-72.4111)">
			<title>Sheet.149</title>
			<path d="M0.04 135.16 a0.141732 0.141732 -180 0 0 -1.3739E-015 0.20161 L0.04 135.16 Z" class="st1"/>
			<path d="M0.04 135.16 a0.141732 0.141732 -180 0 0 -1.3739E-015 0.20161" class="st2"/>
		</g>
		<g id="shape150-391" transform="translate(108.787,-33.5822) rotate(-44.6645)">
			<title>Sheet.150</title>
			<path d="M0 135.36 L0.45 135.36" class="st2"/>
		</g>
		<g id="shape151-394" transform="translate(109.11,158.445) rotate(-135.336)">
			<title>Sheet.151</title>
			<path d="M0 135.36 L0.45 135.36" class="st2"/>
		</g>
		<g id="shape152-397" transform="translate(204.264,-72.9894)">
			<title>Sheet.152</title>
			<path d="M0 135.36 a0.141732 0.141732 -180 0 0 1.38778E-017 -0.20161 L0 135.36 Z" class="st1"/>
			<path d="M0 135.36 a0.141732 0.141732 -180 0 0 1.38778E-017 -0.20161" class="st2"/>
		</g>
		<g id="shape153-400" transform="translate(102.347,158.454) rotate(-135.336)">
			<title>Sheet.153</title>
			<path d="M0 135.36 L0.45 135.36" class="st2"/>
		</g>
		<g id="shape154-403" transform="translate(102.023,-34.6158) rotate(-44.6645)">
			<title>Sheet.154</title>
			<path d="M0 135.36 L0.45 135.36" class="st2"/>
		</g>
		<g id="shape155-406" transform="translate(197.135,-73.502)">
			<title>Sheet.155</title>
			<path d="M0.04 135.16 a0.141732 0.141732 -180 0 0 -1.3739E-015 0.20161 L0.04 135.16 Z" class="st1"/>
			<path d="M0.04 135.16 a0.141732 0.141732 -180 0 0 -1.3739E-015 0.20161" class="st2"/>
		</g>
		<g id="shape156-409" transform="translate(108.787,-34.6731) rotate(-44.6645)">
			<title>Sheet.156</title>
			<path d="M0 135.36 L0.45 135.36" class="st2"/>
		</g>
		<g id="shape157-412" transform="translate(109.11,157.355) rotate(-135.336)">
			<title>Sheet.157</title>
			<path d="M0 135.36 L0.45 135.36" class="st2"/>
		</g>
		<g id="shape158-415" transform="translate(204.264,-74.0803)">
			<title>Sheet.158</title>
			<path d="M0 135.36 a0.141732 0.141732 -180 0 0 1.38778E-017 -0.20161 L0 135.36 Z" class="st1"/>
			<path d="M0 135.36 a0.141732 0.141732 -180 0 0 1.38778E-017 -0.20161" class="st2"/>
		</g>
		<g id="shape159-418" transform="translate(102.347,157.363) rotate(-135.336)">
			<title>Sheet.159</title>
			<path d="M0 135.36 L0.45 135.36" class="st2"/>
		</g>
		<g id="shape160-421" transform="translate(102.023,-35.7067) rotate(-44.6645)">
			<title>Sheet.160</title>
			<path d="M0 135.36 L0.45 135.36" class="st2"/>
		</g>
		<g id="shape161-424" transform="translate(197.135,-74.5929)">
			<title>Sheet.161</title>
			<path d="M0.04 135.16 a0.141732 0.141732 -180 0 0 -1.3739E-015 0.20161 L0.04 135.16 Z" class="st1"/>
			<path d="M0.04 135.16 a0.141732 0.141732 -180 0 0 -1.3739E-015 0.20161" class="st2"/>
		</g>
		<g id="shape162-427" transform="translate(108.787,-35.7639) rotate(-44.6645)">
			<title>Sheet.162</title>
			<path d="M0 135.36 L0.45 135.36" class="st2"/>
		</g>
		<g id="shape163-430" transform="translate(109.11,156.264) rotate(-135.336)">
			<title>Sheet.163</title>
			<path d="M0 135.36 L0.45 135.36" class="st2"/>
		</g>
		<g id="shape164-433" transform="translate(204.264,-75.1712)">
			<title>Sheet.164</title>
			<path d="M0 135.36 a0.141732 0.141732 -180 0 0 1.38778E-017 -0.20161 L0 135.36 Z" class="st1"/>
			<path d="M0 135.36 a0.141732 0.141732 -180 0 0 1.38778E-017 -0.20161" class="st2"/>
		</g>
		<g id="shape165-436" transform="translate(185.394,-74.5715) rotate(-5.131)">
			<title>Sheet.165</title>
			<path d="M0 135.36 L6.47 135.36" class="st2"/>
		</g>
		<g id="shape166-439" transform="translate(185.394,-73.731) rotate(-5.131)">
			<title>Sheet.166</title>
			<path d="M0 135.36 L6.47 135.36" class="st2"/>
		</g>
		<g id="shape167-442" transform="translate(185.394,-73.4806) rotate(-5.131)">
			<title>Sheet.167</title>
			<path d="M0 135.36 L6.47 135.36" class="st2"/>
		</g>
		<g id="shape168-445" transform="translate(185.394,-72.6401) rotate(-5.131)">
			<title>Sheet.168</title>
			<path d="M0 135.36 L6.47 135.36" class="st2"/>
		</g>
		<g id="shape169-448" transform="translate(185.394,-72.3897) rotate(-5.131)">
			<title>Sheet.169</title>
			<path d="M0 135.36 L6.47 135.36" class="st2"/>
		</g>
		<g id="shape170-451" transform="translate(185.394,-71.5493) rotate(-5.131)">
			<title>Sheet.170</title>
			<path d="M0 135.36 L6.47 135.36" class="st2"/>
		</g>
		<g id="shape171-454" transform="translate(185.394,-71.2989) rotate(-5.131)">
			<title>Sheet.171</title>
			<path d="M0 135.36 L6.47 135.36" class="st2"/>
		</g>
		<g id="shape172-457" transform="translate(185.394,-70.4584) rotate(-5.131)">
			<title>Sheet.172</title>
			<path d="M0 135.36 L6.47 135.36" class="st2"/>
		</g>
		<g id="shape173-460" transform="translate(332.862,61.0887) rotate(90)">
			<title>Sheet.173</title>
			<path d="M0 135.36 L0.25 135.36" class="st2"/>
		</g>
		<g id="shape174-463" transform="translate(332.862,62.1796) rotate(90)">
			<title>Sheet.174</title>
			<path d="M0 135.36 L0.25 135.36" class="st2"/>
		</g>
		<g id="shape175-466" transform="translate(332.862,63.2705) rotate(90)">
			<title>Sheet.175</title>
			<path d="M0 135.36 L0.25 135.36" class="st2"/>
		</g>
		<g id="shape176-469" transform="translate(68.5783,62.9425) rotate(-90)">
			<title>Sheet.176</title>
			<path d="M0 135.36 L0.25 135.36" class="st2"/>
		</g>
		<g id="shape177-472" transform="translate(68.5783,61.8517) rotate(-90)">
			<title>Sheet.177</title>
			<path d="M0 135.36 L0.25 135.36" class="st2"/>
		</g>
		<g id="shape178-475" transform="translate(68.5783,60.7608) rotate(-90)">
			<title>Sheet.178</title>
			<path d="M0 135.36 L0.25 135.36" class="st2"/>
		</g>
		<g id="shape179-478" transform="translate(339.303,59.3165) rotate(90)">
			<title>Sheet.179</title>
			<path d="M0 135.36 L0.35 135.36" class="st2"/>
		</g>
		<g id="shape180-481" transform="translate(339.303,63.783) rotate(90)">
			<title>Sheet.180</title>
			<path d="M0 135.36 L1.27 135.36" class="st2"/>
		</g>
		<g id="shape181-484" transform="translate(200.087,-69.4911)">
			<title>Sheet.181</title>
			<path d="M0 135.36 L1.27 135.36" class="st2"/>
		</g>
		<g id="shape182-487" transform="translate(107.155,164.291) rotate(-136.643)">
			<title>Sheet.182</title>
			<path d="M0 135.36 L0.37 135.36" class="st2"/>
		</g>
		<g id="shape183-490" transform="translate(108.422,-32.5494) rotate(-43.357)">
			<title>Sheet.183</title>
			<path d="M0 135.36 L0.37 135.36" class="st2"/>
		</g>
		<g id="shape184-493" transform="translate(125.386,-65.6944)">
			<title>Sheet.184</title>
			<path d="M0 135.36 L22.68 135.36 L22.68 100.14 L0 100.14 L0 135.36 Z" class="st6"/>
		</g>
		<g id="shape185-495" transform="translate(129.693,-85.0652)">
			<title>Sheet.185</title>
			<path d="M12.44 135.36 A7.04425 7.04425 -180 1 0 1.62 135.36 L12.44 135.36 Z" class="st1"/>
			<path d="M12.44 135.36 A7.04425 7.04425 -180 1 0 1.62 135.36" class="st2"/>
		</g>
		<g id="shape186-498" transform="translate(124.688,-102.846)">
			<title>Sheet.186</title>
			<desc>Light 2</desc>
			<rect x="0" y="129.693" width="24.2894" height="5.66929" class="st3"/>
			<text x="4.45" y="135.08" class="st11">Light 2</text>		</g>
		<g id="shape187-501" transform="translate(133.505,-76.0456)">
			<title>Sheet.187</title>
			<path d="M0 135.36 L6.44 135.36" class="st2"/>
		</g>
		<g id="shape188-504" transform="translate(131.314,-76.0456)">
			<title>Sheet.188</title>
			<path d="M2.19 135.36 A17.0418 17.0418 -180 0 0 0 126.34 L2.19 135.36 Z" class="st1"/>
			<path d="M2.19 135.36 A17.0418 17.0418 -180 0 0 0 126.34" class="st2"/>
		</g>
		<g id="shape189-507" transform="translate(139.945,-76.0456)">
			<title>Sheet.189</title>
			<path d="M2.19 126.34 A17.0418 17.0418 -180 0 0 -0 135.36 L2.19 126.34 Z" class="st1"/>
			<path d="M2.19 126.34 A17.0418 17.0418 -180 0 0 -0 135.36" class="st2"/>
		</g>
		<g id="shape190-510" transform="translate(133.505,-70.3064)">
			<title>Sheet.190</title>
			<path d="M0 135.36 L6.44 135.36" class="st2"/>
		</g>
		<g id="shape191-513" transform="translate(134.098,-69.7437)">
			<title>Sheet.191</title>
			<path d="M0 135.36 L5.25 135.36" class="st2"/>
		</g>
		<g id="shape192-516" transform="translate(40.9882,163.87) rotate(-136.539)">
			<title>Sheet.192</title>
			<path d="M0 135.36 L0.82 135.36" class="st2"/>
		</g>
		<g id="shape193-519" transform="translate(46.2411,-32.6334) rotate(-43.4609)">
			<title>Sheet.193</title>
			<path d="M0 135.36 L0.82 135.36" class="st2"/>
		</g>
		<g id="shape194-522" transform="translate(268.867,59.3165) rotate(90)">
			<title>Sheet.194</title>
			<path d="M0 135.36 L0.93 135.36" class="st2"/>
		</g>
		<g id="shape195-525" transform="translate(-1.85754,65.0557) rotate(-90)">
			<title>Sheet.195</title>
			<path d="M0 135.36 L0.69 135.36" class="st2"/>
		</g>
		<g id="shape196-528" transform="translate(38.3512,160.636) rotate(-135.336)">
			<title>Sheet.196</title>
			<path d="M0 135.36 L0.45 135.36" class="st2"/>
		</g>
		<g id="shape197-531" transform="translate(38.028,-32.434) rotate(-44.6645)">
			<title>Sheet.197</title>
			<path d="M0 135.36 L0.45 135.36" class="st2"/>
		</g>
		<g id="shape198-534" transform="translate(133.139,-71.3202)">
			<title>Sheet.198</title>
			<path d="M0.04 135.16 a0.141732 0.141732 -180 0 0 -1.3739E-015 0.20161 L0.04 135.16 Z" class="st1"/>
			<path d="M0.04 135.16 a0.141732 0.141732 -180 0 0 -1.3739E-015 0.20161" class="st2"/>
		</g>
		<g id="shape199-537" transform="translate(44.7916,-32.4913) rotate(-44.6645)">
			<title>Sheet.199</title>
			<path d="M0 135.36 L0.45 135.36" class="st2"/>
		</g>
		<g id="shape200-540" transform="translate(45.1148,159.536) rotate(-135.336)">
			<title>Sheet.200</title>
			<path d="M0 135.36 L0.45 135.36" class="st2"/>
		</g>
		<g id="shape201-543" transform="translate(140.268,-71.8985)">
			<title>Sheet.201</title>
			<path d="M0 135.36 a0.141732 0.141732 -180 0 0 1.38778E-017 -0.20161 L0 135.36 Z" class="st1"/>
			<path d="M0 135.36 a0.141732 0.141732 -180 0 0 1.38778E-017 -0.20161" class="st2"/>
		</g>
		<g id="shape202-546" transform="translate(38.3512,159.545) rotate(-135.336)">
			<title>Sheet.202</title>
			<path d="M0 135.36 L0.45 135.36" class="st2"/>
		</g>
		<g id="shape203-549" transform="translate(38.028,-33.5249) rotate(-44.6645)">
			<title>Sheet.203</title>
			<path d="M0 135.36 L0.45 135.36" class="st2"/>
		</g>
		<g id="shape204-552" transform="translate(133.139,-72.4111)">
			<title>Sheet.204</title>
			<path d="M0.04 135.16 a0.141732 0.141732 -180 0 0 -1.3739E-015 0.20161 L0.04 135.16 Z" class="st1"/>
			<path d="M0.04 135.16 a0.141732 0.141732 -180 0 0 -1.3739E-015 0.20161" class="st2"/>
		</g>
		<g id="shape205-555" transform="translate(44.7916,-33.5822) rotate(-44.6645)">
			<title>Sheet.205</title>
			<path d="M0 135.36 L0.45 135.36" class="st2"/>
		</g>
		<g id="shape206-558" transform="translate(45.1148,158.445) rotate(-135.336)">
			<title>Sheet.206</title>
			<path d="M0 135.36 L0.45 135.36" class="st2"/>
		</g>
		<g id="shape207-561" transform="translate(140.268,-72.9894)">
			<title>Sheet.207</title>
			<path d="M0 135.36 a0.141732 0.141732 -180 0 0 1.38778E-017 -0.20161 L0 135.36 Z" class="st1"/>
			<path d="M0 135.36 a0.141732 0.141732 -180 0 0 1.38778E-017 -0.20161" class="st2"/>
		</g>
		<g id="shape208-564" transform="translate(38.3512,158.454) rotate(-135.336)">
			<title>Sheet.208</title>
			<path d="M0 135.36 L0.45 135.36" class="st2"/>
		</g>
		<g id="shape209-567" transform="translate(38.028,-34.6158) rotate(-44.6645)">
			<title>Sheet.209</title>
			<path d="M0 135.36 L0.45 135.36" class="st2"/>
		</g>
		<g id="shape210-570" transform="translate(133.139,-73.502)">
			<title>Sheet.210</title>
			<path d="M0.04 135.16 a0.141732 0.141732 -180 0 0 -1.3739E-015 0.20161 L0.04 135.16 Z" class="st1"/>
			<path d="M0.04 135.16 a0.141732 0.141732 -180 0 0 -1.3739E-015 0.20161" class="st2"/>
		</g>
		<g id="shape211-573" transform="translate(44.7916,-34.6731) rotate(-44.6645)">
			<title>Sheet.211</title>
			<path d="M0 135.36 L0.45 135.36" class="st2"/>
		</g>
		<g id="shape212-576" transform="translate(45.1148,157.355) rotate(-135.336)">
			<title>Sheet.212</title>
			<path d="M0 135.36 L0.45 135.36" class="st2"/>
		</g>
		<g id="shape213-579" transform="translate(140.268,-74.0803)">
			<title>Sheet.213</title>
			<path d="M0 135.36 a0.141732 0.141732 -180 0 0 1.38778E-017 -0.20161 L0 135.36 Z" class="st1"/>
			<path d="M0 135.36 a0.141732 0.141732 -180 0 0 1.38778E-017 -0.20161" class="st2"/>
		</g>
		<g id="shape214-582" transform="translate(38.3512,157.363) rotate(-135.336)">
			<title>Sheet.214</title>
			<path d="M0 135.36 L0.45 135.36" class="st2"/>
		</g>
		<g id="shape215-585" transform="translate(38.028,-35.7067) rotate(-44.6645)">
			<title>Sheet.215</title>
			<path d="M0 135.36 L0.45 135.36" class="st2"/>
		</g>
		<g id="shape216-588" transform="translate(133.139,-74.5929)">
			<title>Sheet.216</title>
			<path d="M0.04 135.16 a0.141732 0.141732 -180 0 0 -1.3739E-015 0.20161 L0.04 135.16 Z" class="st1"/>
			<path d="M0.04 135.16 a0.141732 0.141732 -180 0 0 -1.3739E-015 0.20161" class="st2"/>
		</g>
		<g id="shape217-591" transform="translate(44.7916,-35.7639) rotate(-44.6645)">
			<title>Sheet.217</title>
			<path d="M0 135.36 L0.45 135.36" class="st2"/>
		</g>
		<g id="shape218-594" transform="translate(45.1148,156.264) rotate(-135.336)">
			<title>Sheet.218</title>
			<path d="M0 135.36 L0.45 135.36" class="st2"/>
		</g>
		<g id="shape219-597" transform="translate(140.268,-75.1712)">
			<title>Sheet.219</title>
			<path d="M0 135.36 a0.141732 0.141732 -180 0 0 1.38778E-017 -0.20161 L0 135.36 Z" class="st1"/>
			<path d="M0 135.36 a0.141732 0.141732 -180 0 0 1.38778E-017 -0.20161" class="st2"/>
		</g>
		<g id="shape220-600" transform="translate(121.399,-74.5715) rotate(-5.131)">
			<title>Sheet.220</title>
			<path d="M0 135.36 L6.47 135.36" class="st2"/>
		</g>
		<g id="shape221-603" transform="translate(121.399,-73.731) rotate(-5.131)">
			<title>Sheet.221</title>
			<path d="M0 135.36 L6.47 135.36" class="st2"/>
		</g>
		<g id="shape222-606" transform="translate(121.399,-73.4806) rotate(-5.131)">
			<title>Sheet.222</title>
			<path d="M0 135.36 L6.47 135.36" class="st2"/>
		</g>
		<g id="shape223-609" transform="translate(121.399,-72.6401) rotate(-5.131)">
			<title>Sheet.223</title>
			<path d="M0 135.36 L6.47 135.36" class="st2"/>
		</g>
		<g id="shape224-612" transform="translate(121.399,-72.3897) rotate(-5.131)">
			<title>Sheet.224</title>
			<path d="M0 135.36 L6.47 135.36" class="st2"/>
		</g>
		<g id="shape225-615" transform="translate(121.399,-71.5493) rotate(-5.131)">
			<title>Sheet.225</title>
			<path d="M0 135.36 L6.47 135.36" class="st2"/>
		</g>
		<g id="shape226-618" transform="translate(121.399,-71.2989) rotate(-5.131)">
			<title>Sheet.226</title>
			<path d="M0 135.36 L6.47 135.36" class="st2"/>
		</g>
		<g id="shape227-621" transform="translate(121.399,-70.4584) rotate(-5.131)">
			<title>Sheet.227</title>
			<path d="M0 135.36 L6.47 135.36" class="st2"/>
		</g>
		<g id="shape228-624" transform="translate(268.867,61.0887) rotate(90)">
			<title>Sheet.228</title>
			<path d="M0 135.36 L0.25 135.36" class="st2"/>
		</g>
		<g id="shape229-627" transform="translate(268.867,62.1796) rotate(90)">
			<title>Sheet.229</title>
			<path d="M0 135.36 L0.25 135.36" class="st2"/>
		</g>
		<g id="shape230-630" transform="translate(268.867,63.2705) rotate(90)">
			<title>Sheet.230</title>
			<path d="M0 135.36 L0.25 135.36" class="st2"/>
		</g>
		<g id="shape231-633" transform="translate(4.58287,62.9425) rotate(-90)">
			<title>Sheet.231</title>
			<path d="M0 135.36 L0.25 135.36" class="st2"/>
		</g>
		<g id="shape232-636" transform="translate(4.58287,61.8517) rotate(-90)">
			<title>Sheet.232</title>
			<path d="M0 135.36 L0.25 135.36" class="st2"/>
		</g>
		<g id="shape233-639" transform="translate(4.58287,60.7608) rotate(-90)">
			<title>Sheet.233</title>
			<path d="M0 135.36 L0.25 135.36" class="st2"/>
		</g>
		<g id="shape234-642" transform="translate(275.307,59.3165) rotate(90)">
			<title>Sheet.234</title>
			<path d="M0 135.36 L0.35 135.36" class="st2"/>
		</g>
		<g id="shape235-645" transform="translate(275.307,63.783) rotate(90)">
			<title>Sheet.235</title>
			<path d="M0 135.36 L1.27 135.36" class="st2"/>
		</g>
		<g id="shape236-648" transform="translate(136.091,-69.4911)">
			<title>Sheet.236</title>
			<path d="M0 135.36 L1.27 135.36" class="st2"/>
		</g>
		<g id="shape237-651" transform="translate(43.1593,164.291) rotate(-136.643)">
			<title>Sheet.237</title>
			<path d="M0 135.36 L0.37 135.36" class="st2"/>
		</g>
		<g id="shape238-654" transform="translate(44.4266,-32.5494) rotate(-43.357)">
			<title>Sheet.238</title>
			<path d="M0 135.36 L0.37 135.36" class="st2"/>
		</g>
		<g id="shape239-657" transform="translate(93.3885,-65.6944)">
			<title>Sheet.239</title>
			<path d="M0 135.36 L22.68 135.36 L22.68 100.14 L0 100.14 L0 135.36 Z" class="st6"/>
		</g>
		<g id="shape240-659" transform="translate(97.6956,-85.0652)">
			<title>Sheet.240</title>
			<path d="M12.44 135.36 A7.04425 7.04425 -180 1 0 1.62 135.36 L12.44 135.36 Z" class="st1"/>
			<path d="M12.44 135.36 A7.04425 7.04425 -180 1 0 1.62 135.36" class="st2"/>
		</g>
		<g id="shape241-662" transform="translate(92.6904,-102.846)">
			<title>Sheet.241</title>
			<desc>Light 1</desc>
			<rect x="0" y="129.693" width="24.2894" height="5.66929" class="st3"/>
			<text x="4.45" y="135.08" class="st11">Light 1</text>		</g>
		<g id="shape242-665" transform="translate(101.507,-76.0456)">
			<title>Sheet.242</title>
			<path d="M0 135.36 L6.44 135.36" class="st2"/>
		</g>
		<g id="shape243-668" transform="translate(99.3167,-76.0456)">
			<title>Sheet.243</title>
			<path d="M2.19 135.36 A17.0418 17.0418 -180 0 0 0 126.34 L2.19 135.36 Z" class="st1"/>
			<path d="M2.19 135.36 A17.0418 17.0418 -180 0 0 0 126.34" class="st2"/>
		</g>
		<g id="shape244-671" transform="translate(107.947,-76.0456)">
			<title>Sheet.244</title>
			<path d="M2.19 126.34 A17.0418 17.0418 -180 0 0 0 135.36 L2.19 126.34 Z" class="st1"/>
			<path d="M2.19 126.34 A17.0418 17.0418 -180 0 0 0 135.36" class="st2"/>
		</g>
		<g id="shape245-674" transform="translate(101.507,-70.3064)">
			<title>Sheet.245</title>
			<path d="M0 135.36 L6.44 135.36" class="st2"/>
		</g>
		<g id="shape246-677" transform="translate(102.101,-69.7437)">
			<title>Sheet.246</title>
			<path d="M0 135.36 L5.25 135.36" class="st2"/>
		</g>
		<g id="shape247-680" transform="translate(8.99043,163.87) rotate(-136.539)">
			<title>Sheet.247</title>
			<path d="M0 135.36 L0.82 135.36" class="st2"/>
		</g>
		<g id="shape248-683" transform="translate(14.2434,-32.6334) rotate(-43.4609)">
			<title>Sheet.248</title>
			<path d="M0 135.36 L0.82 135.36" class="st2"/>
		</g>
		<g id="shape249-686" transform="translate(236.869,59.3165) rotate(90)">
			<title>Sheet.249</title>
			<path d="M0 135.36 L0.93 135.36" class="st2"/>
		</g>
		<g id="shape250-689" transform="translate(-33.8553,65.0557) rotate(-90)">
			<title>Sheet.250</title>
			<path d="M0 135.36 L0.69 135.36" class="st2"/>
		</g>
		<g id="shape251-692" transform="translate(6.35351,160.636) rotate(-135.336)">
			<title>Sheet.251</title>
			<path d="M0 135.36 L0.45 135.36" class="st2"/>
		</g>
		<g id="shape252-695" transform="translate(6.03031,-32.434) rotate(-44.6645)">
			<title>Sheet.252</title>
			<path d="M0 135.36 L0.45 135.36" class="st2"/>
		</g>
		<g id="shape253-698" transform="translate(101.142,-71.3202)">
			<title>Sheet.253</title>
			<path d="M0.04 135.16 a0.141732 0.141732 -180 0 0 -1.3739E-015 0.20161 L0.04 135.16 Z" class="st1"/>
			<path d="M0.04 135.16 a0.141732 0.141732 -180 0 0 -1.3739E-015 0.20161" class="st2"/>
		</g>
		<g id="shape254-701" transform="translate(12.7939,-32.4913) rotate(-44.6645)">
			<title>Sheet.254</title>
			<path d="M0 135.36 L0.45 135.36" class="st2"/>
		</g>
		<g id="shape255-704" transform="translate(13.1171,159.536) rotate(-135.336)">
			<title>Sheet.255</title>
			<path d="M0 135.36 L0.45 135.36" class="st2"/>
		</g>
		<g id="shape256-707" transform="translate(108.27,-71.8985)">
			<title>Sheet.256</title>
			<path d="M0 135.36 a0.141732 0.141732 -180 0 0 1.38778E-017 -0.20161 L0 135.36 Z" class="st1"/>
			<path d="M0 135.36 a0.141732 0.141732 -180 0 0 1.38778E-017 -0.20161" class="st2"/>
		</g>
		<g id="shape257-710" transform="translate(6.35351,159.545) rotate(-135.336)">
			<title>Sheet.257</title>
			<path d="M0 135.36 L0.45 135.36" class="st2"/>
		</g>
		<g id="shape258-713" transform="translate(6.03031,-33.5249) rotate(-44.6645)">
			<title>Sheet.258</title>
			<path d="M0 135.36 L0.45 135.36" class="st2"/>
		</g>
		<g id="shape259-716" transform="translate(101.142,-72.4111)">
			<title>Sheet.259</title>
			<path d="M0.04 135.16 a0.141732 0.141732 -180 0 0 -1.3739E-015 0.20161 L0.04 135.16 Z" class="st1"/>
			<path d="M0.04 135.16 a0.141732 0.141732 -180 0 0 -1.3739E-015 0.20161" class="st2"/>
		</g>
		<g id="shape260-719" transform="translate(12.7939,-33.5822) rotate(-44.6645)">
			<title>Sheet.260</title>
			<path d="M0 135.36 L0.45 135.36" class="st2"/>
		</g>
		<g id="shape261-722" transform="translate(13.1171,158.445) rotate(-135.336)">
			<title>Sheet.261</title>
			<path d="M0 135.36 L0.45 135.36" class="st2"/>
		</g>
		<g id="shape262-725" transform="translate(108.27,-72.9894)">
			<title>Sheet.262</title>
			<path d="M0 135.36 a0.141732 0.141732 -180 0 0 1.38778E-017 -0.20161 L0 135.36 Z" class="st1"/>
			<path d="M0 135.36 a0.141732 0.141732 -180 0 0 1.38778E-017 -0.20161" class="st2"/>
		</g>
		<g id="shape263-728" transform="translate(6.35351,158.454) rotate(-135.336)">
			<title>Sheet.263</title>
			<path d="M0 135.36 L0.45 135.36" class="st2"/>
		</g>
		<g id="shape264-731" transform="translate(6.03031,-34.6158) rotate(-44.6645)">
			<title>Sheet.264</title>
			<path d="M0 135.36 L0.45 135.36" class="st2"/>
		</g>
		<g id="shape265-734" transform="translate(101.142,-73.502)">
			<title>Sheet.265</title>
			<path d="M0.04 135.16 a0.141732 0.141732 -180 0 0 -1.3739E-015 0.20161 L0.04 135.16 Z" class="st1"/>
			<path d="M0.04 135.16 a0.141732 0.141732 -180 0 0 -1.3739E-015 0.20161" class="st2"/>
		</g>
		<g id="shape266-737" transform="translate(12.7939,-34.6731) rotate(-44.6645)">
			<title>Sheet.266</title>
			<path d="M0 135.36 L0.45 135.36" class="st2"/>
		</g>
		<g id="shape267-740" transform="translate(13.1171,157.355) rotate(-135.336)">
			<title>Sheet.267</title>
			<path d="M0 135.36 L0.45 135.36" class="st2"/>
		</g>
		<g id="shape268-743" transform="translate(108.27,-74.0803)">
			<title>Sheet.268</title>
			<path d="M0 135.36 a0.141732 0.141732 -180 0 0 1.38778E-017 -0.20161 L0 135.36 Z" class="st1"/>
			<path d="M0 135.36 a0.141732 0.141732 -180 0 0 1.38778E-017 -0.20161" class="st2"/>
		</g>
		<g id="shape269-746" transform="translate(6.35351,157.363) rotate(-135.336)">
			<title>Sheet.269</title>
			<path d="M0 135.36 L0.45 135.36" class="st2"/>
		</g>
		<g id="shape270-749" transform="translate(6.03031,-35.7067) rotate(-44.6645)">
			<title>Sheet.270</title>
			<path d="M0 135.36 L0.45 135.36" class="st2"/>
		</g>
		<g id="shape271-752" transform="translate(101.142,-74.5929)">
			<title>Sheet.271</title>
			<path d="M0.04 135.16 a0.141732 0.141732 -180 0 0 -1.3739E-015 0.20161 L0.04 135.16 Z" class="st1"/>
			<path d="M0.04 135.16 a0.141732 0.141732 -180 0 0 -1.3739E-015 0.20161" class="st2"/>
		</g>
		<g id="shape272-755" transform="translate(12.7939,-35.7639) rotate(-44.6645)">
			<title>Sheet.272</title>
			<path d="M0 135.36 L0.45 135.36" class="st2"/>
		</g>
		<g id="shape273-758" transform="translate(13.1171,156.264) rotate(-135.336)">
			<title>Sheet.273</title>
			<path d="M0 135.36 L0.45 135.36" class="st2"/>
		</g>
		<g id="shape274-761" transform="translate(108.27,-75.1712)">
			<title>Sheet.274</title>
			<path d="M0 135.36 a0.141732 0.141732 -180 0 0 1.38778E-017 -0.20161 L0 135.36 Z" class="st1"/>
			<path d="M0 135.36 a0.141732 0.141732 -180 0 0 1.38778E-017 -0.20161" class="st2"/>
		</g>
		<g id="shape275-764" transform="translate(89.401,-74.5715) rotate(-5.131)">
			<title>Sheet.275</title>
			<path d="M0 135.36 L6.47 135.36" class="st2"/>
		</g>
		<g id="shape276-767" transform="translate(89.401,-73.731) rotate(-5.131)">
			<title>Sheet.276</title>
			<path d="M0 135.36 L6.47 135.36" class="st2"/>
		</g>
		<g id="shape277-770" transform="translate(89.401,-73.4806) rotate(-5.131)">
			<title>Sheet.277</title>
			<path d="M0 135.36 L6.47 135.36" class="st2"/>
		</g>
		<g id="shape278-773" transform="translate(89.401,-72.6401) rotate(-5.131)">
			<title>Sheet.278</title>
			<path d="M0 135.36 L6.47 135.36" class="st2"/>
		</g>
		<g id="shape279-776" transform="translate(89.401,-72.3897) rotate(-5.131)">
			<title>Sheet.279</title>
			<path d="M0 135.36 L6.47 135.36" class="st2"/>
		</g>
		<g id="shape280-779" transform="translate(89.401,-71.5493) rotate(-5.131)">
			<title>Sheet.280</title>
			<path d="M0 135.36 L6.47 135.36" class="st2"/>
		</g>
		<g id="shape281-782" transform="translate(89.401,-71.2989) rotate(-5.131)">
			<title>Sheet.281</title>
			<path d="M0 135.36 L6.47 135.36" class="st2"/>
		</g>
		<g id="shape282-785" transform="translate(89.401,-70.4584) rotate(-5.131)">
			<title>Sheet.282</title>
			<path d="M0 135.36 L6.47 135.36" class="st2"/>
		</g>
		<g id="shape283-788" transform="translate(236.869,61.0887) rotate(90)">
			<title>Sheet.283</title>
			<path d="M0 135.36 L0.25 135.36" class="st2"/>
		</g>
		<g id="shape284-791" transform="translate(236.869,62.1796) rotate(90)">
			<title>Sheet.284</title>
			<path d="M0 135.36 L0.25 135.36" class="st2"/>
		</g>
		<g id="shape285-794" transform="translate(236.869,63.2705) rotate(90)">
			<title>Sheet.285</title>
			<path d="M0 135.36 L0.25 135.36" class="st2"/>
		</g>
		<g id="shape286-797" transform="translate(-27.4149,62.9425) rotate(-90)">
			<title>Sheet.286</title>
			<path d="M0 135.36 L0.25 135.36" class="st2"/>
		</g>
		<g id="shape287-800" transform="translate(-27.4149,61.8517) rotate(-90)">
			<title>Sheet.287</title>
			<path d="M0 135.36 L0.25 135.36" class="st2"/>
		</g>
		<g id="shape288-803" transform="translate(-27.4149,60.7608) rotate(-90)">
			<title>Sheet.288</title>
			<path d="M0 135.36 L0.25 135.36" class="st2"/>
		</g>
		<g id="shape289-806" transform="translate(243.309,59.3165) rotate(90)">
			<title>Sheet.289</title>
			<path d="M0 135.36 L0.35 135.36" class="st2"/>
		</g>
		<g id="shape290-809" transform="translate(243.309,63.783) rotate(90)">
			<title>Sheet.290</title>
			<path d="M0 135.36 L1.27 135.36" class="st2"/>
		</g>
		<g id="shape291-812" transform="translate(104.093,-69.4911)">
			<title>Sheet.291</title>
			<path d="M0 135.36 L1.27 135.36" class="st2"/>
		</g>
		<g id="shape292-815" transform="translate(11.1616,164.291) rotate(-136.643)">
			<title>Sheet.292</title>
			<path d="M0 135.36 L0.37 135.36" class="st2"/>
		</g>
		<g id="shape293-818" transform="translate(12.4289,-32.5494) rotate(-43.357)">
			<title>Sheet.293</title>
			<path d="M0 135.36 L0.37 135.36" class="st2"/>
		</g>
		<g id="shape294-821" transform="translate(157.384,-31.6784)">
			<title>Sheet.294</title>
			<path d="M0 135.36 L22.68 135.36 L22.68 112.68 L0 112.68 L0 135.36 Z" class="st6"/>
		</g>
		<g id="shape295-823" transform="translate(161.678,-35.9727)">
			<title>Sheet.295</title>
			<ellipse cx="7.04425" cy="128.318" rx="7.04425" ry="7.04425" class="st10"/>
		</g>
		<g id="shape296-825" transform="translate(156.686,-56.2871)">
			<title>Sheet.296</title>
			<desc>Button 3</desc>
			<rect x="0" y="129.693" width="24.2894" height="5.66929" class="st3"/>
			<text x="2.15" y="135.08" class="st11">Button 3</text>		</g>
		<g id="shape297-828" transform="translate(189.382,-31.6784)">
			<title>Sheet.297</title>
			<path d="M0 135.36 L22.68 135.36 L22.68 112.68 L0 112.68 L0 135.36 Z" class="st6"/>
		</g>
		<g id="shape298-830" transform="translate(193.676,-35.9727)">
			<title>Sheet.298</title>
			<ellipse cx="7.04425" cy="128.318" rx="7.04425" ry="7.04425" class="st10"/>
		</g>
		<g id="shape299-832" transform="translate(188.684,-56.2871)">
			<title>Sheet.299</title>
			<desc>Button 4</desc>
			<rect x="0" y="129.693" width="24.2894" height="5.66929" class="st3"/>
			<text x="2.15" y="135.08" class="st11">Button 4</text>		</g>
		<g id="shape533-835" transform="translate(812.417,-135.362)">
			<title>Sheet.533</title>
			<path d="M0 135.36 L151.71 135.36" class="st2"/>
		</g>
		<g id="shape534-838" transform="translate(809.696,-132.624)">
			<title>Sheet.534</title>
			<path d="M2.72 132.62 A2.72126 2.72126 -180 0 0 -0 135.36 L2.72 132.62 Z" class="st1"/>
			<path d="M2.72 132.62 A2.72126 2.72126 -180 0 0 -0 135.36" class="st2"/>
		</g>
		<g id="shape535-841" transform="translate(814.716,-128.507)">
			<title>Sheet.535</title>
			<path d="M0 135.36 L147.22 135.36" class="st2"/>
		</g>
		<g id="shape536-844" transform="translate(814.036,-127.823)">
			<title>Sheet.536</title>
			<path d="M0.68 134.68 a0.680315 0.680315 -180 0 0 -0.680308 0.6834 L0.68 134.68 Z" class="st1"/>
			<path d="M0.68 134.68 a0.680315 0.680315 -180 0 0 -0.680308 0.6834" class="st2"/>
		</g>
		<g id="shape537-847" transform="translate(814.409,-45.4194)">
			<title>Sheet.537</title>
			<path d="M0 135.36 L148.25 135.36" class="st2"/>
		</g>
		<g id="shape538-850" transform="translate(815.089,-44.871)">
			<title>Sheet.538</title>
			<path d="M0 135.36 L146.89 135.36" class="st2"/>
		</g>
		<g id="shape539-853" transform="translate(812.325,-37.8785)">
			<title>Sheet.539</title>
			<path d="M0 135.36 L152.25 135.36" class="st2"/>
		</g>
		<g id="shape540-856" transform="translate(810.284,-38.1869)">
			<title>Sheet.540</title>
			<path d="M0 133.64 A2.04094 2.04094 -180 0 0 0.96 135.36 L0 133.64 Z" class="st1"/>
			<path d="M0 133.64 A2.04094 2.04094 -180 0 0 0.96 135.36" class="st2"/>
		</g>
		<g id="shape541-859" transform="translate(811.246,-37.8785)">
			<title>Sheet.541</title>
			<path d="M0 135.05 A2.04094 2.04094 -180 0 0 1.08 135.36 L0 135.05 Z" class="st1"/>
			<path d="M0 135.05 A2.04094 2.04094 -180 0 0 1.08 135.36" class="st2"/>
		</g>
		<g id="shape542-862" transform="translate(795.795,-18.8547)">
			<title>Sheet.542</title>
			<path d="M0 135.36 L0.84 135.36" class="st2"/>
		</g>
		<g id="shape543-865" transform="translate(796.631,-18.8547)">
			<title>Sheet.543</title>
			<path d="M0 135.36 L183.1 135.36" class="st2"/>
		</g>
		<g id="shape544-868" transform="translate(979.729,-18.8547)">
			<title>Sheet.544</title>
			<path d="M0 135.36 L0.83 135.36" class="st2"/>
		</g>
		<g id="shape545-871" transform="translate(786.51,-6.25546)">
			<title>Sheet.545</title>
			<path d="M0 135.36 L202.61 135.36" class="st2"/>
		</g>
		<g id="shape546-874" transform="translate(785.83,-6.93577)">
			<title>Sheet.546</title>
			<path d="M0.16 134.92 a0.680315 0.680315 -180 0 0 -0.162995 0.441824 L0.16 134.92 Z" class="st1"/>
			<path d="M0.16 134.92 a0.680315 0.680315 -180 0 0 -0.162995 0.441824" class="st2"/>
		</g>
		<g id="shape547-877" transform="translate(785.83,-6.25546)">
			<title>Sheet.547</title>
			<path d="M0 134.68 a0.680315 0.680315 -180 0 0 0.680315 0.680315 L0 134.68 Z" class="st1"/>
			<path d="M0 134.68 a0.680315 0.680315 -180 0 0 0.680315 0.680315" class="st2"/>
		</g>
		<g id="shape548-880" transform="translate(798.297,0)">
			<title>Sheet.548</title>
			<path d="M0 135.36 L175.97 135.36" class="st2"/>
		</g>
		<g id="shape549-883" transform="translate(945.055,1.87972) rotate(89.6365)">
			<title>Sheet.549</title>
			<path d="M0 135.36 L92.72 135.36" class="st2"/>
		</g>
		<g id="shape550-886" transform="translate(949.396,6.92502) rotate(89.7402)">
			<title>Sheet.550</title>
			<path d="M0 135.36 L82.28 135.36" class="st2"/>
		</g>
		<g id="shape551-889" transform="translate(814.409,-44.871)">
			<title>Sheet.551</title>
			<path d="M0 134.68 a0.680315 0.680315 -180 0 0 0.680308 0.67723 L0 134.68 Z" class="st1"/>
			<path d="M0 134.68 a0.680315 0.680315 -180 0 0 0.680308 0.67723" class="st2"/>
		</g>
		<g id="shape552-892" transform="translate(1097.98,7.47044) rotate(89.9725)">
			<title>Sheet.552</title>
			<path d="M0 135.36 L82.28 135.36" class="st2"/>
		</g>
		<g id="shape553-895" transform="translate(961.977,-44.871)">
			<title>Sheet.553</title>
			<path d="M-0 135.36 a0.680315 0.680315 -180 0 0 0.680315 -0.680641 L0 135.36 Z" class="st1"/>
			<path d="M-0 135.36 a0.680315 0.680315 -180 0 0 0.680315 -0.680641" class="st2"/>
		</g>
		<g id="shape554-898" transform="translate(961.938,-127.827)">
			<title>Sheet.554</title>
			<path d="M0.68 135.36 a0.680315 0.680315 -180 0 0 -0.680315 -0.679989 L0.68 135.36 Z" class="st1"/>
			<path d="M0.68 135.36 a0.680315 0.680315 -180 0 0 -0.680315 -0.679989" class="st2"/>
		</g>
		<g id="shape555-901" transform="translate(831.257,95.1111) rotate(-89.8575)">
			<title>Sheet.555</title>
			<path d="M0 135.36 L92.72 135.36" class="st2"/>
		</g>
		<g id="shape556-904" transform="translate(964.578,-37.8785)">
			<title>Sheet.556</title>
			<path d="M-0 135.36 A2.04094 2.04094 -180 0 0 1.51 134.69 L0 135.36 Z" class="st1"/>
			<path d="M-0 135.36 A2.04094 2.04094 -180 0 0 1.51 134.69" class="st2"/>
		</g>
		<g id="shape557-907" transform="translate(966.092,-38.551)">
			<title>Sheet.557</title>
			<path d="M0 135.36 A2.04094 2.04094 -180 0 0 0.53 134 L0 135.36 Z" class="st1"/>
			<path d="M0 135.36 A2.04094 2.04094 -180 0 0 0.53 134" class="st2"/>
		</g>
		<g id="shape558-910" transform="translate(964.128,-132.634)">
			<title>Sheet.558</title>
			<path d="M2.72 135.36 A2.72126 2.72126 -180 0 0 0 132.63 L2.72 135.36 Z" class="st1"/>
			<path d="M2.72 135.36 A2.72126 2.72126 -180 0 0 0 132.63" class="st2"/>
		</g>
		<g id="shape559-913" transform="translate(912.675,188.084) rotate(130.499)">
			<title>Sheet.559</title>
			<path d="M0 135.36 L3.2 135.36" class="st2"/>
		</g>
		<g id="shape560-916" transform="translate(898.726,204.417) rotate(130.499)">
			<title>Sheet.560</title>
			<path d="M0 135.36 L15.09 135.36" class="st2"/>
		</g>
		<g id="shape561-919" transform="translate(1073.55,15.8799) rotate(51.6576)">
			<title>Sheet.561</title>
			<path d="M0 135.36 L3.51 135.36" class="st2"/>
		</g>
		<g id="shape562-922" transform="translate(1086.72,32.5342) rotate(51.6576)">
			<title>Sheet.562</title>
			<path d="M0 135.36 L14.66 135.36" class="st2"/>
		</g>
		<g id="shape563-925" transform="translate(989.117,-6.25546)">
			<title>Sheet.563</title>
			<path d="M0 135.36 a0.680315 0.680315 -180 0 0 0.680315 -0.680315 L0 135.36 Z" class="st1"/>
			<path d="M0 135.36 a0.680315 0.680315 -180 0 0 0.680315 -0.680315" class="st2"/>
		</g>
		<g id="shape564-928" transform="translate(989.651,-6.93577)">
			<title>Sheet.564</title>
			<path d="M0.15 135.36 a0.680315 0.680315 -180 0 0 -0.146732 -0.42204 L0.15 135.36 Z" class="st1"/>
			<path d="M0.15 135.36 a0.680315 0.680315 -180 0 0 -0.146732 -0.42204" class="st2"/>
		</g>
		<g id="shape565-931" transform="translate(1020.83,263.398) rotate(166.45)">
			<title>Sheet.565</title>
			<path d="M0 135.36 L15.11 135.36" class="st2"/>
		</g>
		<g id="shape566-934" transform="translate(974.27,0)">
			<title>Sheet.566</title>
		</g>
		<g id="shape567-935" transform="translate(844.454,-18.1109)">
			<title>Sheet.567</title>
			<path d="M0 135.36 L45.36 135.36" class="st2"/>
		</g>
		<g id="shape568-938" transform="translate(843.514,-17.4874)">
			<title>Sheet.568</title>
			<path d="M0.94 134.74 A1.02047 1.02047 -180 0 0 0 135.36 L0.94 134.74 Z" class="st1"/>
			<path d="M0.94 134.74 A1.02047 1.02047 -180 0 0 0 135.36" class="st2"/>
		</g>
		<g id="shape569-941" transform="translate(840.622,-8.81633)">
			<title>Sheet.569</title>
			<path d="M0 135.36 L49.15 135.36" class="st2"/>
		</g>
		<g id="shape570-944" transform="translate(890.798,260.242) rotate(180)">
			<title>Sheet.570</title>
			<path d="M0 135.36 L50.24 135.36" class="st2"/>
		</g>
		<g id="shape571-947" transform="translate(968.214,170.532) rotate(112.893)">
			<title>Sheet.571</title>
			<path d="M0 135.36 L8.64 135.36" class="st2"/>
		</g>
		<g id="shape572-950" transform="translate(840.152,-8.81633)">
			<title>Sheet.572</title>
			<path d="M0 134.65 a0.510236 0.510236 -180 0 0 0.470047 0.708723 L0 134.65 Z" class="st1"/>
			<path d="M0 134.65 a0.510236 0.510236 -180 0 0 0.470047 0.708723" class="st2"/>
		</g>
		<g id="shape573-953" transform="translate(998.863,150.853) rotate(101.062)">
			<title>Sheet.573</title>
			<path d="M0 135.36 L1.7 135.36" class="st2"/>
		</g>
		<g id="shape574-956" transform="translate(998.487,150.853) rotate(101.062)">
			<title>Sheet.574</title>
			<path d="M0 135.36 L1.7 135.36" class="st2"/>
		</g>
		<g id="shape575-959" transform="translate(1026.19,118.969) rotate(90.2929)">
			<title>Sheet.575</title>
			<path d="M0 135.36 L7.25 135.36" class="st2"/>
		</g>
		<g id="shape576-962" transform="translate(889.774,-8.81633)">
			<title>Sheet.576</title>
			<path d="M0 135.36 A1.02047 1.02047 -180 0 0 1.02 134.35 L0 135.36 Z" class="st1"/>
			<path d="M0 135.36 A1.02047 1.02047 -180 0 0 1.02 134.35" class="st2"/>
		</g>
		<g id="shape577-965" transform="translate(889.811,-17.0852)">
			<title>Sheet.577</title>
			<path d="M1.02 135.36 A1.02047 1.02047 -180 0 0 -0 134.34 L1.02 135.36 Z" class="st1"/>
			<path d="M1.02 135.36 A1.02047 1.02047 -180 0 0 -0 134.34" class="st2"/>
		</g>
		<g id="shape578-968" transform="translate(810.315,-37.1603)">
			<title>Sheet.578</title>
			<path d="M0 135.36 L156.58 135.36" class="st2"/>
		</g>
		<g id="shape579-971" transform="translate(966.893,-35.509)">
			<title>Sheet.579</title>
			<path d="M0 133.71 A3.46711 3.46711 -180 0 0 0.49 135.36 L0 133.71 Z" class="st1"/>
			<path d="M0 133.71 A3.46711 3.46711 -180 0 0 0.49 135.36" class="st2"/>
		</g>
		<g id="shape580-974" transform="translate(809.744,-35.188)">
			<title>Sheet.580</title>
			<path d="M0 135.36 A3.52318 3.52318 -180 0 0 0.57 133.39 L0 135.36 Z" class="st1"/>
			<path d="M0 135.36 A3.52318 3.52318 -180 0 0 0.57 133.39" class="st2"/>
		</g>
		<g id="shape581-977" transform="translate(710.059,7.25273) rotate(-47.7865)">
			<title>Sheet.581</title>
			<path d="M0 135.36 L1.39 135.36" class="st2"/>
		</g>
		<g id="shape582-980" transform="translate(849.597,165.764) rotate(-119.942)">
			<title>Sheet.582</title>
			<path d="M0 135.36 L1.6 135.36" class="st2"/>
		</g>
		<g id="shape583-983" transform="translate(758.667,264.824) rotate(-163.063)">
			<title>Sheet.583</title>
			<path d="M0 135.36 L12.12 135.36" class="st2"/>
		</g>
		<g id="shape584-986" transform="translate(798.101,0)">
			<title>Sheet.584</title>
			<path d="M-0 135.33 a0.680315 0.680315 -180 0 0 0.196626 0.0290343 L0 135.33 Z" class="st1"/>
			<path d="M-0 135.33 a0.680315 0.680315 -180 0 0 0.196626 0.0290343" class="st2"/>
		</g>
		<g id="shape585-989" transform="translate(786.51,-3.5587)">
			<title>Sheet.585</title>
			<path d="M0 135.36 L202.61 135.36" class="st2"/>
		</g>
		<g id="shape586-992" transform="translate(785.83,-3.5587)">
			<title>Sheet.586</title>
			<path d="M0 134.68 a0.680315 0.680315 -180 0 0 0.680315 0.680315 L0 134.68 Z" class="st1"/>
			<path d="M0 134.68 a0.680315 0.680315 -180 0 0 0.680315 0.680315" class="st2"/>
		</g>
		<g id="shape587-995" transform="translate(989.117,-3.5587)">
			<title>Sheet.587</title>
			<path d="M0 135.36 a0.680315 0.680315 -180 0 0 0.680315 -0.680315 L0 135.36 Z" class="st1"/>
			<path d="M0 135.36 a0.680315 0.680315 -180 0 0 0.680315 -0.680315" class="st2"/>
		</g>
		<g id="shape588-998" transform="translate(1125.16,128.426) rotate(90)">
			<title>Sheet.588</title>
			<path d="M0 135.36 L2.7 135.36" class="st2"/>
		</g>
		<g id="shape589-1001" transform="translate(921.192,128.426) rotate(90)">
			<title>Sheet.589</title>
			<path d="M0 135.36 L2.7 135.36" class="st2"/>
		</g>
		<g id="shape590-1004" transform="translate(910.06,192.048) rotate(130.319)">
			<title>Sheet.590</title>
			<path d="M0 135.36 L15.8 135.36" class="st2"/>
		</g>
		<g id="shape591-1007" transform="translate(806.853,-30.8999)">
			<title>Sheet.591</title>
			<path d="M0 135.36 A3.34859 3.34859 -180 0 0 0.81 133.51 L0 135.36 Z" class="st1"/>
			<path d="M0 135.36 A3.34859 3.34859 -180 0 0 0.81 133.51" class="st2"/>
		</g>
		<g id="shape592-1010" transform="translate(1076.3,20.3633) rotate(51.7331)">
			<title>Sheet.592</title>
			<path d="M0 135.36 L15.68 135.36" class="st2"/>
		</g>
		<g id="shape593-1013" transform="translate(807.664,-32.7563)">
			<title>Sheet.593</title>
			<path d="M0 135.36 L161.9 135.36" class="st2"/>
		</g>
		<g id="shape594-1016" transform="translate(969.562,-31.1656)">
			<title>Sheet.594</title>
			<path d="M0 133.77 A3.46711 3.46711 -180 0 0 0.46 135.36 L0 133.77 Z" class="st1"/>
			<path d="M0 133.77 A3.46711 3.46711 -180 0 0 0.46 135.36" class="st2"/>
		</g>
		<g id="shape595-1019" transform="translate(817.673,-31.7816)">
			<title>Sheet.595</title>
			<path d="M0 135.36 L110.07 135.36" class="st2"/>
		</g>
		<g id="shape596-1022" transform="translate(931.25,-31.7816)">
			<title>Sheet.596</title>
			<path d="M0 135.36 L27.86 135.36" class="st2"/>
		</g>
		<g id="shape597-1025" transform="translate(930.779,-31.0766)">
			<title>Sheet.597</title>
			<path d="M0.47 134.66 a0.510236 0.510236 -180 0 0 -0.471621 0.704953 L0.47 134.66 Z" class="st1"/>
			<path d="M0.47 134.66 a0.510236 0.510236 -180 0 0 -0.471621 0.704953" class="st2"/>
		</g>
		<g id="shape598-1028" transform="translate(816.845,-31.3581)">
			<title>Sheet.598</title>
			<path d="M0.83 134.94 A1.02047 1.02047 -180 0 0 -0 135.36 L0.83 134.94 Z" class="st1"/>
			<path d="M0.83 134.94 A1.02047 1.02047 -180 0 0 -0 135.36" class="st2"/>
		</g>
		<g id="shape599-1031" transform="translate(1072.07,28.186) rotate(55.9235)">
			<title>Sheet.599</title>
			<path d="M0 135.36 L12.64 135.36" class="st2"/>
		</g>
		<g id="shape600-1034" transform="translate(959.106,-31.3329)">
			<title>Sheet.600</title>
			<path d="M0.85 135.36 A1.02047 1.02047 -180 0 0 -0 134.91 L0.85 135.36 Z" class="st1"/>
			<path d="M0.85 135.36 A1.02047 1.02047 -180 0 0 -0 134.91" class="st2"/>
		</g>
		<g id="shape601-1037" transform="translate(966.751,-20.3334)">
			<title>Sheet.601</title>
			<path d="M-0 135.36 a0.340157 0.340157 -180 0 0 0.281749 -0.530747 L0 135.36 Z" class="st1"/>
			<path d="M-0 135.36 a0.340157 0.340157 -180 0 0 0.281749 -0.530747" class="st2"/>
		</g>
		<g id="shape602-1040" transform="translate(926.632,183.187) rotate(125.801)">
			<title>Sheet.602</title>
			<path d="M0 135.36 L12.93 135.36" class="st2"/>
		</g>
		<g id="shape603-1043" transform="translate(809.22,-20.3334)">
			<title>Sheet.603</title>
			<path d="M0.06 134.82 a0.340157 0.340157 -180 0 0 0.275887 0.539139 L0.06 134.82 Z" class="st1"/>
			<path d="M0.06 134.82 a0.340157 0.340157 -180 0 0 0.275887 0.539139" class="st2"/>
		</g>
		<g id="shape604-1046" transform="translate(809.559,-20.3334)">
			<title>Sheet.604</title>
			<path d="M0 135.36 L122.83 135.36" class="st2"/>
		</g>
		<g id="shape605-1049" transform="translate(935.897,-20.3334)">
			<title>Sheet.605</title>
			<path d="M0 135.36 L30.85 135.36" class="st2"/>
		</g>
		<g id="shape606-1052" transform="translate(966.751,-19.2889)">
			<title>Sheet.606</title>
			<path d="M0 135.36 a0.340157 0.340157 -180 0 0 0.340157 -0.340157 L0 135.36 Z" class="st1"/>
			<path d="M0 135.36 a0.340157 0.340157 -180 0 0 0.340157 -0.340157" class="st2"/>
		</g>
		<g id="shape607-1055" transform="translate(809.218,-19.2889)">
			<title>Sheet.607</title>
			<path d="M0 135.02 a0.340157 0.340157 -180 0 0 0.340157 0.340157 L0 135.02 Z" class="st1"/>
			<path d="M0 135.02 a0.340157 0.340157 -180 0 0 0.340157 0.340157" class="st2"/>
		</g>
		<g id="shape608-1058" transform="translate(809.559,-19.2889)">
			<title>Sheet.608</title>
			<path d="M0 135.36 L122.83 135.36" class="st2"/>
		</g>
		<g id="shape609-1061" transform="translate(935.897,-19.2889)">
			<title>Sheet.609</title>
			<path d="M0 135.36 L30.85 135.36" class="st2"/>
		</g>
		<g id="shape610-1064" transform="translate(1102.45,114.689) rotate(90)">
			<title>Sheet.610</title>
			<path d="M0 135.36 L1.04 135.36" class="st2"/>
		</g>
		<g id="shape611-1067" transform="translate(944.581,114.689) rotate(90)">
			<title>Sheet.611</title>
			<path d="M0 135.36 L1.04 135.36" class="st2"/>
		</g>
		<g id="shape612-1070" transform="translate(1055.9,52.6285) rotate(67.5659)">
			<title>Sheet.612</title>
			<path d="M0 135.36 L10.94 135.36" class="st2"/>
		</g>
		<g id="shape613-1073" transform="translate(934.954,-20.3334)">
			<title>Sheet.613</title>
			<path d="M-0 134.73 A1.02047 1.02047 -180 0 0 0.94 135.36 L0 134.73 Z" class="st1"/>
			<path d="M-0 134.73 A1.02047 1.02047 -180 0 0 0.94 135.36" class="st2"/>
		</g>
		<g id="shape614-1076" transform="translate(1055.9,53.673) rotate(67.5659)">
			<title>Sheet.614</title>
			<path d="M0 135.36 L10.94 135.36" class="st2"/>
		</g>
		<g id="shape615-1079" transform="translate(1053.8,52.5546) rotate(67.5659)">
			<title>Sheet.615</title>
			<path d="M0 135.36 L10.94 135.36" class="st2"/>
		</g>
		<g id="shape616-1082" transform="translate(932.387,-20.3334)">
			<title>Sheet.616</title>
			<path d="M-0 135.36 a0.510236 0.510236 -180 0 0 0.471621 -0.704953 L0 135.36 Z" class="st1"/>
			<path d="M-0 135.36 a0.510236 0.510236 -180 0 0 0.471621 -0.704953" class="st2"/>
		</g>
		<g id="shape617-1085" transform="translate(927.741,-31.1506)">
			<title>Sheet.617</title>
			<path d="M0.94 135.36 A1.02047 1.02047 -180 0 0 0 134.73 L0.94 135.36 Z" class="st1"/>
			<path d="M0.94 135.36 A1.02047 1.02047 -180 0 0 0 134.73" class="st2"/>
		</g>
		<g id="shape618-1088" transform="translate(1067.75,115.029) rotate(90)">
			<title>Sheet.618</title>
			<path d="M0 135.36 L1.04 135.36" class="st2"/>
		</g>
		<g id="shape619-1091" transform="translate(932.387,-19.2889)">
			<title>Sheet.619</title>
			<path d="M-0 135.36 a0.510236 0.510236 -180 0 0 0.510236 -0.510236 L0 135.36 Z" class="st1"/>
			<path d="M-0 135.36 a0.510236 0.510236 -180 0 0 0.510236 -0.510236" class="st2"/>
		</g>
		<g id="shape620-1094" transform="translate(797.535,115.563) rotate(-90)">
			<title>Sheet.620</title>
			<path d="M0 135.36 L1.04 135.36" class="st2"/>
		</g>
		<g id="shape621-1097" transform="translate(1071.26,115.029) rotate(90)">
			<title>Sheet.621</title>
			<path d="M0 135.36 L1.04 135.36" class="st2"/>
		</g>
		<g id="shape622-1100" transform="translate(934.954,-19.2889)">
			<title>Sheet.622</title>
			<path d="M0 134.73 A1.02047 1.02047 -180 0 0 0.94 135.36 L0 134.73 Z" class="st1"/>
			<path d="M0 134.73 A1.02047 1.02047 -180 0 0 0.94 135.36" class="st2"/>
		</g>
		<g id="shape623-1103" transform="translate(1070.32,114.398) rotate(90)">
			<title>Sheet.623</title>
			<path d="M0 135.36 L1.04 135.36" class="st2"/>
		</g>
		<g id="shape624-1106" transform="translate(1066.1,104.091) rotate(90)">
			<title>Sheet.624</title>
			<path d="M0 135.36 L1.04 135.36" class="st2"/>
		</g>
		<g id="shape625-1109" transform="translate(930.74,-30.0322)">
			<title>Sheet.625</title>
			<path d="M0 135.17 a0.510236 0.510236 -180 0 0 0.0386152 0.194717 L0 135.17 Z" class="st1"/>
			<path d="M0 135.17 a0.510236 0.510236 -180 0 0 0.0386152 0.194717" class="st2"/>
		</g>
		<g id="shape626-1112" transform="translate(1102.11,115.029) rotate(90)">
			<title>Sheet.626</title>
			<path d="M0 135.36 L1.04 135.36" class="st2"/>
		</g>
		<g id="shape627-1115" transform="translate(1124.48,129.107) rotate(90)">
			<title>Sheet.627</title>
			<path d="M0 135.36 L2.7 135.36" class="st2"/>
		</g>
		<g id="shape628-1118" transform="translate(921.872,129.107) rotate(90)">
			<title>Sheet.628</title>
			<path d="M0 135.36 L2.7 135.36" class="st2"/>
		</g>
		<g id="shape629-1121" transform="translate(944.921,115.029) rotate(90)">
			<title>Sheet.629</title>
			<path d="M0 135.36 L1.04 135.36" class="st2"/>
		</g>
		<g id="shape630-1124" transform="translate(826.645,-101.587)">
			<title>Sheet.630</title>
			<desc>Remote ICMPv6 server</desc>
			<rect x="0" y="120.244" width="197.596" height="15.1181" class="st3"/>
			<text x="0" y="130.07" class="st4">Remote ICMPv6 <tspan x="0" dy="1.2em" class="st5">server</tspan></text>		</g>
	</g>
</svg>
