<?xml version="1.0" encoding="UTF-8" standalone="no"?>
<!DOCTYPE svg PUBLIC "-//W3C//DTD SVG 1.1//EN" "http://www.w3.org/Graphics/SVG/1.1/DTD/svg11.dtd">
<!-- Generated by Microsoft Visio, SVG Export IoT Introduction figure.svg Page-1 -->
<svg xmlns="http://www.w3.org/2000/svg" xmlns:xlink="http://www.w3.org/1999/xlink" xmlns:ev="http://www.w3.org/2001/xml-events"
		width="10in" height="2.2in" viewBox="0 0 1180.5 255.685" xml:space="preserve" color-interpolation-filters="sRGB"
		class="st9">
	<style type="text/css">
	<![CDATA[
		.st1 {fill:none}
		.st2 {fill:none;stroke:none;stroke-linecap:round;stroke-linejoin:round;stroke-width:0.75}
		.st3 {fill:#000000;font-family:Calibri;font-size:1.25983em}
		.st4 {font-size:0.750014em}
		.st5 {stroke:#000000;stroke-linecap:round;stroke-linejoin:round;stroke-width:0.75}
		.st6 {font-size:1em}
		.st7 {fill:#000000;font-family:Calibri;font-size:1.88976em}
		.st8 {fill:#000000;font-family:Calibri;font-size:0.944893em}
		.st9 {fill:none;fill-rule:evenodd;font-size:12px;overflow:visible;stroke-linecap:square;stroke-miterlimit:3}
	]]>
	</style>

	<g>
		<title>Page-1</title>
		<g id="shape2-1">
			<title>DWG-7C6C86BA9D634563A052847DA6</title>
			<path d="M0 0 L1180.5 0 L1180.5 255.69 L0 255.69 L0 0 Z" class="st1"/>
		</g>
		<g id="group3-4" transform="translate(53.6937,-137.728)">
			<title>Sheet.3</title>
			<g id="shape4-5" transform="translate(0.849639,-50.2872)">
				<title>Sheet.4</title>
				<desc>IoT device with IPv6 address</desc>
				<rect x="0" y="244.346" width="149.39" height="11.3386" class="st2"/>
				<text x="43.57" y="247.75" class="st3">IoT device <tspan x="34.2" dy="1.3em" class="st4">with IPv</tspan><tspan
							class="st4">6 </tspan><tspan class="st4">address</tspan></text>			</g>
			<g id="shape5-11" transform="translate(7.99361E-014,-106.31)">
				<title>Sheet.5</title>
				<path d="M0 255.69 L149.39 255.69" class="st5"/>
			</g>
			<g id="shape6-14" transform="translate(405.075,149.375) rotate(90)">
				<title>Sheet.6</title>
				<path d="M0 255.69 L106.31 255.69" class="st5"/>
			</g>
			<g id="shape7-17" transform="translate(149.39,511.37) rotate(180)">
				<title>Sheet.7</title>
				<path d="M0 255.69 L149.39 255.69" class="st5"/>
			</g>
			<g id="shape8-20" transform="translate(-255.685,255.685) rotate(-90)">
				<title>Sheet.8</title>
				<path d="M0 255.69 L106.31 255.69" class="st5"/>
			</g>
			<g id="shape9-23" transform="translate(8.10764,-97.1135)">
				<title>Sheet.9</title>
				<path d="M0 255.69 L132.9 255.69" class="st5"/>
			</g>
			<g id="shape10-26" transform="translate(396.696,158.572) rotate(90)">
				<title>Sheet.10</title>
				<path d="M0 255.69 L89.16 255.69" class="st5"/>
			</g>
			<g id="shape11-29" transform="translate(141.011,503.421) rotate(180)">
				<title>Sheet.11</title>
				<path d="M0 255.69 L132.9 255.69" class="st5"/>
			</g>
			<g id="shape12-32" transform="translate(-247.577,247.736) rotate(-90)">
				<title>Sheet.12</title>
				<path d="M0 255.69 L89.16 255.69" class="st5"/>
			</g>
		</g>
		<g id="group13-35" transform="translate(53.6937,-11.5859)">
			<title>Sheet.13</title>
			<g id="shape14-36" transform="translate(0.849639,-50.2872)">
				<title>Sheet.14</title>
				<desc>IoT device with IPv6 address</desc>
				<rect x="0" y="244.346" width="149.39" height="11.3386" class="st2"/>
				<text x="43.57" y="247.75" class="st3">IoT device <tspan x="34.2" dy="1.3em" class="st4">with IPv</tspan><tspan
							class="st4">6 </tspan><tspan class="st4">address</tspan></text>			</g>
			<g id="shape15-42" transform="translate(7.99361E-014,-106.31)">
				<title>Sheet.15</title>
				<path d="M0 255.69 L149.39 255.69" class="st5"/>
			</g>
			<g id="shape16-45" transform="translate(405.075,149.375) rotate(90)">
				<title>Sheet.16</title>
				<path d="M0 255.69 L106.31 255.69" class="st5"/>
			</g>
			<g id="shape17-48" transform="translate(149.39,511.37) rotate(180)">
				<title>Sheet.17</title>
				<path d="M0 255.69 L149.39 255.69" class="st5"/>
			</g>
			<g id="shape18-51" transform="translate(-255.685,255.685) rotate(-90)">
				<title>Sheet.18</title>
				<path d="M0 255.69 L106.31 255.69" class="st5"/>
			</g>
			<g id="shape19-54" transform="translate(8.10764,-97.1135)">
				<title>Sheet.19</title>
				<path d="M0 255.69 L132.9 255.69" class="st5"/>
			</g>
			<g id="shape20-57" transform="translate(396.696,158.572) rotate(90)">
				<title>Sheet.20</title>
				<path d="M0 255.69 L89.16 255.69" class="st5"/>
			</g>
			<g id="shape21-60" transform="translate(141.011,503.421) rotate(180)">
				<title>Sheet.21</title>
				<path d="M0 255.69 L132.9 255.69" class="st5"/>
			</g>
			<g id="shape22-63" transform="translate(-247.577,247.736) rotate(-90)">
				<title>Sheet.22</title>
				<path d="M0 255.69 L89.16 255.69" class="st5"/>
			</g>
		</g>
		<g id="group23-66" transform="translate(977.492,-137.728)">
			<title>Sheet.23</title>
			<g id="shape24-67" transform="translate(0.849639,-50.2872)">
				<title>Sheet.24</title>
				<desc>IoT device with IPv6 address</desc>
				<rect x="0" y="244.346" width="149.39" height="11.3386" class="st2"/>
				<text x="43.57" y="247.75" class="st3">IoT device <tspan x="34.2" dy="1.3em" class="st4">with IPv</tspan><tspan
							class="st4">6 </tspan><tspan class="st4">address</tspan></text>			</g>
			<g id="shape25-73" transform="translate(-2.07834E-013,-106.31)">
				<title>Sheet.25</title>
				<path d="M0 255.69 L149.39 255.69" class="st5"/>
			</g>
			<g id="shape26-76" transform="translate(405.075,149.375) rotate(90)">
				<title>Sheet.26</title>
				<path d="M0 255.69 L106.31 255.69" class="st5"/>
			</g>
			<g id="shape27-79" transform="translate(149.39,511.37) rotate(180)">
				<title>Sheet.27</title>
				<path d="M0 255.69 L149.39 255.69" class="st5"/>
			</g>
			<g id="shape28-82" transform="translate(-255.685,255.685) rotate(-90)">
				<title>Sheet.28</title>
				<path d="M0 255.69 L106.31 255.69" class="st5"/>
			</g>
			<g id="shape29-85" transform="translate(8.10764,-97.1135)">
				<title>Sheet.29</title>
				<path d="M0 255.69 L132.9 255.69" class="st5"/>
			</g>
			<g id="shape30-88" transform="translate(396.696,158.572) rotate(90)">
				<title>Sheet.30</title>
				<path d="M0 255.69 L89.16 255.69" class="st5"/>
			</g>
			<g id="shape31-91" transform="translate(141.011,503.421) rotate(180)">
				<title>Sheet.31</title>
				<path d="M0 255.69 L132.9 255.69" class="st5"/>
			</g>
			<g id="shape32-94" transform="translate(-247.577,247.736) rotate(-90)">
				<title>Sheet.32</title>
				<path d="M0 255.69 L89.16 255.69" class="st5"/>
			</g>
		</g>
		<g id="group33-97" transform="translate(977.492,-11.5859)">
			<title>Sheet.33</title>
			<g id="shape34-98" transform="translate(0.849639,-50.2872)">
				<title>Sheet.34</title>
				<desc>IoT device with IPv6 address</desc>
				<rect x="0" y="244.346" width="149.39" height="11.3386" class="st2"/>
				<text x="43.57" y="247.75" class="st3">IoT device <tspan x="34.2" dy="1.3em" class="st4">with IPv</tspan><tspan
							class="st4">6 </tspan><tspan class="st4">address</tspan></text>			</g>
			<g id="shape35-104" transform="translate(-2.07834E-013,-106.31)">
				<title>Sheet.35</title>
				<path d="M0 255.69 L149.39 255.69" class="st5"/>
			</g>
			<g id="shape36-107" transform="translate(405.075,149.375) rotate(90)">
				<title>Sheet.36</title>
				<path d="M0 255.69 L106.31 255.69" class="st5"/>
			</g>
			<g id="shape37-110" transform="translate(149.39,511.37) rotate(180)">
				<title>Sheet.37</title>
				<path d="M0 255.69 L149.39 255.69" class="st5"/>
			</g>
			<g id="shape38-113" transform="translate(-255.685,255.685) rotate(-90)">
				<title>Sheet.38</title>
				<path d="M0 255.69 L106.31 255.69" class="st5"/>
			</g>
			<g id="shape39-116" transform="translate(8.10764,-97.1135)">
				<title>Sheet.39</title>
				<path d="M0 255.69 L132.9 255.69" class="st5"/>
			</g>
			<g id="shape40-119" transform="translate(396.696,158.572) rotate(90)">
				<title>Sheet.40</title>
				<path d="M0 255.69 L89.16 255.69" class="st5"/>
			</g>
			<g id="shape41-122" transform="translate(141.011,503.421) rotate(180)">
				<title>Sheet.41</title>
				<path d="M0 255.69 L132.9 255.69" class="st5"/>
			</g>
			<g id="shape42-125" transform="translate(-247.577,247.736) rotate(-90)">
				<title>Sheet.42</title>
				<path d="M0 255.69 L89.16 255.69" class="st5"/>
			</g>
		</g>
		<g id="shape43-128" transform="translate(233.551,-123.072)">
			<title>Sheet.43</title>
			<desc>BLE enabled router device</desc>
			<rect x="0" y="240.567" width="197.596" height="15.1181" class="st2"/>
			<text x="61.32" y="234.52" class="st3">BLE enabled <tspan x="79.28" dy="1.2em" class="st6">router </tspan><tspan
						x="78.96" dy="1.2em" class="st6">device</tspan></text>		</g>
		<g id="shape44-133" transform="translate(278.333,-180.967)">
			<title>Sheet.44</title>
			<path d="M0 255.69 L109.77 255.69" class="st5"/>
		</g>
		<g id="shape45-136" transform="translate(643.786,74.7185) rotate(90)">
			<title>Sheet.45</title>
			<path d="M0 255.69 L106.31 255.69" class="st5"/>
		</g>
		<g id="shape46-139" transform="translate(388.101,436.713) rotate(180)">
			<title>Sheet.46</title>
			<path d="M0 255.69 L109.77 255.69" class="st5"/>
		</g>
		<g id="shape47-142" transform="translate(22.648,181.028) rotate(-90)">
			<title>Sheet.47</title>
			<path d="M0 255.69 L106.31 255.69" class="st5"/>
		</g>
		<g id="shape48-145" transform="translate(492.129,-145.974)">
			<title>Sheet.48</title>
			<path d="M0.23 255.69 C0.03 252.47 -0.17 249.26 0.23 246.05 C0.87 241 2.99 235.97 6.29 232.15 C11.54 226.06 19.75 223.03
						 28.04 221.62 C35.75 220.31 43.52 220.39 50.47 222.96 C54.22 224.35 57.72 226.46 61.23 228.56 L0.23 255.69
						 Z" class="st1"/>
			<path d="M0.23 255.69 C0.03 252.47 -0.17 249.26 0.23 246.05 C0.87 241 2.99 235.97 6.29 232.15 C11.54 226.06 19.75 223.03
						 28.04 221.62 C35.75 220.31 43.52 220.39 50.47 222.96 C54.22 224.35 57.72 226.46 61.23 228.56" class="st5"/>
		</g>
		<g id="shape49-148" transform="translate(545.882,-177.289)">
			<title>Sheet.49</title>
			<path d="M0 255.69 C2.22 253.19 4.56 250.87 7.25 249.12 C13.05 245.37 20.52 244.27 27.88 244.41 C33.49 244.52 39.03 245.34
						 43.58 248 C44.7 248.65 45.75 249.41 46.77 250.24 L0 255.69 Z" class="st1"/>
			<path d="M0 255.69 C2.22 253.19 4.56 250.87 7.25 249.12 C13.05 245.37 20.52 244.27 27.88 244.41 C33.49 244.52 39.03 245.34
						 43.58 248 C44.7 248.65 45.75 249.41 46.77 250.24" class="st5"/>
		</g>
		<g id="shape50-151" transform="translate(589.867,-179.006)">
			<title>Sheet.50</title>
			<path d="M0 255.69 C2.53 252.06 5.23 248.65 8.79 246.35 C15.63 241.95 25.67 241.64 33.46 244.79 C36.91 246.18 39.93 248.25
						 42.82 250.49 L0 255.69 Z" class="st1"/>
			<path d="M0 255.69 C2.53 252.06 5.23 248.65 8.79 246.35 C15.63 241.95 25.67 241.64 33.46 244.79 C36.91 246.18 39.93 248.25
						 42.82 250.49" class="st5"/>
		</g>
		<g id="shape51-154" transform="translate(627.688,-173.162)">
			<title>Sheet.51</title>
			<path d="M0 248.27 C4.18 245.12 8.42 242.08 13.17 240.02 C18.62 237.65 24.74 236.55 30.8 237.39 C35.59 238.05 40.33 239.91
						 43.7 243 C47.23 246.24 49.25 250.83 51 255.66 C51 255.67 51 255.67 51 255.67 C51 255.68 51 255.68 51 255.69
						 L0 248.27 Z" class="st1"/>
			<path d="M0 248.27 C4.18 245.12 8.42 242.08 13.17 240.02 C18.62 237.65 24.74 236.55 30.8 237.39 C35.59 238.05 40.33 239.91
						 43.7 243 C47.23 246.24 49.25 250.83 51 255.66 C51 255.67 51 255.67 51 255.67 C51 255.68 51 255.68 51 255.69"
					class="st5"/>
		</g>
		<g id="shape52-157" transform="translate(677.232,-139.617)">
			<title>Sheet.52</title>
			<path d="M0 222.25 C2.67 222.03 3.89 222 5.12 222.08 C8.51 222.28 11.99 223.26 14.68 225.23 C17.77 227.5 19.83 231.08
						 21 234.88 C22.13 238.55 22.43 242.41 21.35 246.01 C20.5 248.82 18.82 251.46 16.61 253.29 C15.4 254.3 14.02
						 255.06 12.56 255.69 L0 222.25 Z" class="st1"/>
			<path d="M0 222.25 C2.67 222.03 3.89 222 5.12 222.08 C8.51 222.28 11.99 223.26 14.68 225.23 C17.77 227.5 19.83 231.08
						 21 234.88 C22.13 238.55 22.43 242.41 21.35 246.01 C20.5 248.82 18.82 251.46 16.61 253.29 C15.4 254.3 14.02
						 255.06 12.56 255.69" class="st5"/>
		</g>
		<g id="shape53-160" transform="translate(674.624,-105.504)">
			<title>Sheet.53</title>
			<path d="M22.59 215.09 C25.24 218.08 27.66 221.19 28.99 224.85 C30.24 228.28 30.53 232.2 29.7 235.81 C28.92 239.14 27.19
						 242.2 24.96 244.76 C22.09 248.04 18.41 250.5 14.43 252.38 C10.78 254.12 6.87 255.36 2.94 255.63 C1.96 255.7
						 0.98 255.7 -0 255.66 L22.59 215.09 Z" class="st1"/>
			<path d="M22.59 215.09 C25.24 218.08 27.66 221.19 28.99 224.85 C30.24 228.28 30.53 232.2 29.7 235.81 C28.92 239.14 27.19
						 242.2 24.96 244.76 C22.09 248.04 18.41 250.5 14.43 252.38 C10.78 254.12 6.87 255.36 2.94 255.63 C1.96 255.7
						 0.98 255.7 -0 255.66" class="st5"/>
		</g>
		<g id="shape54-163" transform="translate(626.164,-79.8318)">
			<title>Sheet.54</title>
			<path d="M30.98 211.06 C35.04 213.01 39.1 214.96 42.2 218.01 C44.45 220.22 46.21 223.01 47.36 226.08 C48.82 229.97 49.32
						 234.32 48.26 238.19 C46.7 243.86 41.78 248.53 36.37 251.42 C29.69 254.99 22.24 255.86 14.83 255.68 C11.25
						 255.59 7.67 255.26 4.29 254.33 C2.83 253.93 1.4 253.42 0 252.82 L30.98 211.06 Z" class="st1"/>
			<path d="M30.98 211.06 C35.04 213.01 39.1 214.96 42.2 218.01 C44.45 220.22 46.21 223.01 47.36 226.08 C48.82 229.97 49.32
						 234.32 48.26 238.19 C46.7 243.86 41.78 248.53 36.37 251.42 C29.69 254.99 22.24 255.86 14.83 255.68 C11.25
						 255.59 7.67 255.26 4.29 254.33 C2.83 253.93 1.4 253.42 0 252.82" class="st5"/>
		</g>
		<g id="shape55-166" transform="translate(556.833,-65.6208)">
			<title>Sheet.55</title>
			<path d="M71.96 231.41 C70.53 236.21 68.78 240.76 65.77 244.38 C60.74 250.44 52.22 253.89 44.01 255.14 C37.03 256.21
						 30.28 255.67 23.38 254.25 C17.16 252.96 10.82 250.95 6.33 246.85 C3.84 244.58 1.92 241.66 0 238.75 L71.96
						 231.41 Z" class="st1"/>
			<path d="M71.96 231.41 C70.53 236.21 68.78 240.76 65.77 244.38 C60.74 250.44 52.22 253.89 44.01 255.14 C37.03 256.21
						 30.28 255.67 23.38 254.25 C17.16 252.96 10.82 250.95 6.33 246.85 C3.84 244.58 1.92 241.66 0 238.75"
					class="st5"/>
		</g>
		<g id="shape56-169" transform="translate(504.317,-71.2017)">
			<title>Sheet.56</title>
			<path d="M57.25 250.81 C57.22 250.82 57.2 250.82 57.18 250.83 C57.18 250.83 57.17 250.83 57.17 250.83 C52.59 252.54 47.96
						 254.04 43.14 254.89 C34.54 256.42 25.37 255.9 17.12 252.65 C11.38 250.39 6.08 246.81 2.32 242.11 C1.47 241.06
						 0.71 239.96 0 238.81 L57.25 250.81 Z" class="st1"/>
			<path d="M57.25 250.81 C57.22 250.82 57.2 250.82 57.18 250.83 C57.18 250.83 57.17 250.83 57.17 250.83 C52.59 252.54 47.96
						 254.04 43.14 254.89 C34.54 256.42 25.37 255.9 17.12 252.65 C11.38 250.39 6.08 246.81 2.32 242.11 C1.47 241.06
						 0.71 239.96 0 238.81" class="st5"/>
		</g>
		<g id="shape57-172" transform="translate(476.689,-88.0454)">
			<title>Sheet.57</title>
			<path d="M32.28 255.37 C29.12 255.65 25.9 255.79 22.54 255.6 C15.35 255.18 7.54 253.28 3.47 247.97 C1.54 245.44 0.45
						 242.13 0.11 238.78 C-0.18 236 0.04 233.18 1.01 230.71 C1.78 228.72 3.04 226.95 4.47 225.26 L32.28 255.37
						 Z" class="st1"/>
			<path d="M32.28 255.37 C29.12 255.65 25.9 255.79 22.54 255.6 C15.35 255.18 7.54 253.28 3.47 247.97 C1.54 245.44 0.45
						 242.13 0.11 238.78 C-0.18 236 0.04 233.18 1.01 230.71 C1.78 228.72 3.04 226.95 4.47 225.26" class="st5"/>
		</g>
		<g id="shape58-175" transform="translate(470.14,-114.468)">
			<title>Sheet.58</title>
			<path d="M24.55 255.69 C21.39 255.08 18.25 254.35 15.18 253.32 C11.35 252.03 7.63 250.28 4.64 247.49 C2.56 245.54 0.83
						 243.09 0.24 240.33 C-0.45 237.16 0.35 233.6 2.08 230.86 C5.03 226.16 10.71 223.85 16.12 222.18 C18.11 221.56
						 20.08 221.03 22.03 220.53 L24.55 255.69 Z" class="st1"/>
			<path d="M24.55 255.69 C21.39 255.08 18.25 254.35 15.18 253.32 C11.35 252.03 7.63 250.28 4.64 247.49 C2.56 245.54 0.83
						 243.09 0.24 240.33 C-0.45 237.16 0.35 233.6 2.08 230.86 C5.03 226.16 10.71 223.85 16.12 222.18 C18.11 221.56
						 20.08 221.03 22.03 220.53" class="st5"/>
		</g>
		<g id="shape59-178" transform="translate(487.184,-120.172)">
			<title>Sheet.59</title>
			<desc>Internet</desc>
			<rect x="0" y="233.008" width="197.596" height="22.6772" class="st2"/>
			<text x="61.19" y="251.15" class="st7">Internet</text>		</g>
		<g id="shape60-181" transform="translate(707.562,118.746) rotate(90)">
			<title>Sheet.60</title>
			<path d="M0 255.69 L4.25 255.69" class="st5"/>
		</g>
		<g id="shape61-184" transform="translate(707.562,131.502) rotate(90)">
			<title>Sheet.61</title>
			<path d="M0 255.69 L4.25 255.69" class="st5"/>
		</g>
		<g id="shape62-187" transform="translate(566.223,-109.946) rotate(26.5651)">
			<title>Sheet.62</title>
			<path d="M0 255.69 L19.02 255.69" class="st5"/>
		</g>
		<g id="shape63-190" transform="translate(583.231,355.942) rotate(153.435)">
			<title>Sheet.63</title>
			<path d="M0 255.69 L19.02 255.69" class="st5"/>
		</g>
		<g id="shape64-193" transform="translate(662.547,118.746) rotate(90)">
			<title>Sheet.64</title>
			<path d="M0 255.69 L4.25 255.69" class="st5"/>
		</g>
		<g id="shape65-196" transform="translate(662.547,131.502) rotate(90)">
			<title>Sheet.65</title>
			<path d="M0 255.69 L4.25 255.69" class="st5"/>
		</g>
		<g id="shape66-199" transform="translate(521.208,347.438) rotate(153.435)">
			<title>Sheet.66</title>
			<path d="M0 255.69 L19.02 255.69" class="st5"/>
		</g>
		<g id="shape67-202" transform="translate(504.2,-101.442) rotate(26.5651)">
			<title>Sheet.67</title>
			<path d="M0 255.69 L19.02 255.69" class="st5"/>
		</g>
		<g id="shape68-205" transform="translate(406.862,-132.687)">
			<title>Sheet.68</title>
			<path d="M0 255.69 L45.02 255.69" class="st5"/>
		</g>
		<g id="shape69-208" transform="translate(451.877,387.187) rotate(180)">
			<title>Sheet.69</title>
			<path d="M0 255.69 L45.02 255.69" class="st5"/>
		</g>
		<g id="shape70-211" transform="translate(362.305,-134.885)">
			<title>Sheet.70</title>
			<desc>IPv6</desc>
			<rect x="0" y="244.346" width="135.084" height="11.3386" class="st2"/>
			<text x="57.75" y="255.12" class="st8">IPv6</text>		</g>
		<g id="shape71-214" transform="translate(499.668,188.195) rotate(114.107)">
			<title>Sheet.71</title>
			<path d="M0 255.69 L4.25 255.69" class="st5"/>
		</g>
		<g id="shape72-217" transform="translate(494.458,199.839) rotate(114.107)">
			<title>Sheet.72</title>
			<path d="M0 255.69 L4.25 255.69" class="st5"/>
		</g>
		<g id="shape73-220" transform="translate(464.061,-78.2793) rotate(50.6717)">
			<title>Sheet.73</title>
			<path d="M0 255.69 L19.02 255.69" class="st5"/>
		</g>
		<g id="shape74-223" transform="translate(289.3,353.923) rotate(177.542)">
			<title>Sheet.74</title>
			<path d="M0 255.69 L19.02 255.69" class="st5"/>
		</g>
		<g id="shape75-226" transform="translate(455.467,168.417) rotate(114.107)">
			<title>Sheet.75</title>
			<path d="M0 255.69 L4.25 255.69" class="st5"/>
		</g>
		<g id="shape76-229" transform="translate(450.257,180.061) rotate(114.107)">
			<title>Sheet.76</title>
			<path d="M0 255.69 L4.25 255.69" class="st5"/>
		</g>
		<g id="shape77-232" transform="translate(233.049,319.436) rotate(177.542)">
			<title>Sheet.77</title>
			<path d="M0 255.69 L19.02 255.69" class="st5"/>
		</g>
		<g id="shape78-235" transform="translate(400.863,-97.2417) rotate(50.6717)">
			<title>Sheet.78</title>
			<path d="M0 255.69 L19.02 255.69" class="st5"/>
		</g>
		<g id="shape79-238" transform="translate(324.775,-165.518) rotate(24.1066)">
			<title>Sheet.79</title>
			<path d="M0 255.69 L48.42 255.69" class="st5"/>
		</g>
		<g id="shape80-241" transform="translate(156.641,328.794) rotate(-155.893)">
			<title>Sheet.80</title>
			<path d="M0 255.69 L48.42 255.69" class="st5"/>
		</g>
		<g id="shape81-244" transform="translate(286.31,-185.07) rotate(24.1066)">
			<title>Sheet.81</title>
			<desc>BLE link</desc>
			<rect x="0" y="244.346" width="135.084" height="11.3386" class="st2"/>
			<text x="49.87" y="255.12" class="st8">BLE link</text>		</g>
		<g id="shape82-247" transform="translate(32.8958,276.413) rotate(-114.107)">
			<title>Sheet.82</title>
			<path d="M0 255.69 L4.25 255.69" class="st5"/>
		</g>
		<g id="shape83-250" transform="translate(27.6858,264.769) rotate(-114.107)">
			<title>Sheet.83</title>
			<path d="M0 255.69 L4.25 255.69" class="st5"/>
		</g>
		<g id="shape84-253" transform="translate(68.5025,9.93813) rotate(-50.6717)">
			<title>Sheet.84</title>
			<path d="M0 255.69 L19.02 255.69" class="st5"/>
		</g>
		<g id="shape85-256" transform="translate(267.366,412.723) rotate(-177.542)">
			<title>Sheet.85</title>
			<path d="M0 255.69 L19.02 255.69" class="st5"/>
		</g>
		<g id="shape86-259" transform="translate(-11.3048,296.191) rotate(-114.107)">
			<title>Sheet.86</title>
			<path d="M0 255.69 L4.25 255.69" class="st5"/>
		</g>
		<g id="shape87-262" transform="translate(-16.5148,284.547) rotate(-114.107)">
			<title>Sheet.87</title>
			<path d="M0 255.69 L4.25 255.69" class="st5"/>
		</g>
		<g id="shape88-265" transform="translate(211.114,447.21) rotate(-177.542)">
			<title>Sheet.88</title>
			<path d="M0 255.69 L19.02 255.69" class="st5"/>
		</g>
		<g id="shape89-268" transform="translate(5.30398,28.9005) rotate(-50.6717)">
			<title>Sheet.89</title>
			<path d="M0 255.69 L19.02 255.69" class="st5"/>
		</g>
		<g id="shape90-271" transform="translate(115.914,-45.5071) rotate(-24.1066)">
			<title>Sheet.90</title>
			<path d="M0 255.69 L48.42 255.69" class="st5"/>
		</g>
		<g id="shape91-274" transform="translate(365.503,393.724) rotate(155.893)">
			<title>Sheet.91</title>
			<path d="M0 255.69 L48.42 255.69" class="st5"/>
		</g>
		<g id="shape92-277" transform="translate(72.2303,-37.6167) rotate(-24.1066)">
			<title>Sheet.92</title>
			<desc>BLE link</desc>
			<rect x="0" y="244.346" width="135.084" height="11.3386" class="st2"/>
			<text x="49.87" y="255.12" class="st8">BLE link</text>		</g>
		<g id="shape93-280" transform="translate(747.692,-123.072)">
			<title>Sheet.93</title>
			<desc>BLE enabled router device</desc>
			<rect x="0" y="240.567" width="197.596" height="15.1181" class="st2"/>
			<text x="61.32" y="234.52" class="st3">BLE enabled <tspan x="79.28" dy="1.2em" class="st6">router </tspan><tspan
						x="78.96" dy="1.2em" class="st6">device</tspan></text>		</g>
		<g id="shape94-285" transform="translate(901.972,330.403) rotate(180)">
			<title>Sheet.94</title>
			<path d="M0 255.69 L109.77 255.69" class="st5"/>
		</g>
		<g id="shape95-288" transform="translate(1047.89,74.7185) rotate(90)">
			<title>Sheet.95</title>
			<path d="M0 255.69 L106.31 255.69" class="st5"/>
		</g>
		<g id="shape96-291" transform="translate(792.204,-74.657)">
			<title>Sheet.96</title>
			<path d="M0 255.69 L109.77 255.69" class="st5"/>
		</g>
		<g id="shape97-294" transform="translate(646.287,181.028) rotate(-90)">
			<title>Sheet.97</title>
			<path d="M0 255.69 L106.31 255.69" class="st5"/>
		</g>
		<g id="shape98-297" transform="translate(984.113,118.746) rotate(90)">
			<title>Sheet.98</title>
			<path d="M0 255.69 L4.25 255.69" class="st5"/>
		</g>
		<g id="shape99-300" transform="translate(984.113,131.502) rotate(90)">
			<title>Sheet.99</title>
			<path d="M0 255.69 L4.25 255.69" class="st5"/>
		</g>
		<g id="shape100-303" transform="translate(842.774,347.438) rotate(153.435)">
			<title>Sheet.100</title>
			<path d="M0 255.69 L19.02 255.69" class="st5"/>
		</g>
		<g id="shape101-306" transform="translate(825.766,-101.442) rotate(26.5651)">
			<title>Sheet.101</title>
			<path d="M0 255.69 L19.02 255.69" class="st5"/>
		</g>
		<g id="shape102-309" transform="translate(1029.13,118.746) rotate(90)">
			<title>Sheet.102</title>
			<path d="M0 255.69 L4.25 255.69" class="st5"/>
		</g>
		<g id="shape103-312" transform="translate(1029.13,131.502) rotate(90)">
			<title>Sheet.103</title>
			<path d="M0 255.69 L4.25 255.69" class="st5"/>
		</g>
		<g id="shape104-315" transform="translate(887.789,-109.946) rotate(26.5651)">
			<title>Sheet.104</title>
			<path d="M0 255.69 L19.02 255.69" class="st5"/>
		</g>
		<g id="shape105-318" transform="translate(904.797,355.942) rotate(153.435)">
			<title>Sheet.105</title>
			<path d="M0 255.69 L19.02 255.69" class="st5"/>
		</g>
		<g id="shape106-321" transform="translate(773.443,378.683) rotate(180)">
			<title>Sheet.106</title>
			<path d="M0 255.69 L45.02 255.69" class="st5"/>
		</g>
		<g id="shape107-324" transform="translate(728.428,-124.183)">
			<title>Sheet.107</title>
			<path d="M0 255.69 L45.02 255.69" class="st5"/>
		</g>
		<g id="shape108-327" transform="translate(683.871,-134.885)">
			<title>Sheet.108</title>
			<desc>IPv6</desc>
			<rect x="0" y="244.346" width="135.084" height="11.3386" class="st2"/>
			<text x="57.75" y="255.12" class="st8">IPv6</text>		</g>
		<g id="shape109-330" transform="translate(1147.41,-20.6664) rotate(65.8934)">
			<title>Sheet.109</title>
			<path d="M0 255.69 L4.25 255.69" class="st5"/>
		</g>
		<g id="shape110-333" transform="translate(1152.62,-9.02301) rotate(65.8934)">
			<title>Sheet.110</title>
			<path d="M0 255.69 L4.25 255.69" class="st5"/>
		</g>
		<g id="shape111-336" transform="translate(1111.8,245.808) rotate(129.328)">
			<title>Sheet.111</title>
			<path d="M0 255.69 L19.02 255.69" class="st5"/>
		</g>
		<g id="shape112-339" transform="translate(912.939,-156.976) rotate(2.45843)">
			<title>Sheet.112</title>
			<path d="M0 255.69 L19.02 255.69" class="st5"/>
		</g>
		<g id="shape113-342" transform="translate(1191.61,-40.4445) rotate(65.8934)">
			<title>Sheet.113</title>
			<path d="M0 255.69 L4.25 255.69" class="st5"/>
		</g>
		<g id="shape114-345" transform="translate(1196.82,-28.801) rotate(65.8934)">
			<title>Sheet.114</title>
			<path d="M0 255.69 L4.25 255.69" class="st5"/>
		</g>
		<g id="shape115-348" transform="translate(969.191,-191.463) rotate(2.45843)">
			<title>Sheet.115</title>
			<path d="M0 255.69 L19.02 255.69" class="st5"/>
		</g>
		<g id="shape116-351" transform="translate(1175,226.846) rotate(129.328)">
			<title>Sheet.116</title>
			<path d="M0 255.69 L19.02 255.69" class="st5"/>
		</g>
		<g id="shape117-354" transform="translate(1064.39,301.254) rotate(155.893)">
			<title>Sheet.117</title>
			<path d="M0 255.69 L48.42 255.69" class="st5"/>
		</g>
		<g id="shape118-357" transform="translate(814.802,-137.978) rotate(-24.1066)">
			<title>Sheet.118</title>
			<path d="M0 255.69 L48.42 255.69" class="st5"/>
		</g>
		<g id="shape119-360" transform="translate(984.931,-92.5424) rotate(24.1066)">
			<title>Sheet.119</title>
			<desc>BLE link</desc>
			<rect x="0" y="244.346" width="135.084" height="11.3386" class="st2"/>
			<text x="49.87" y="255.12" class="st8">BLE link</text>		</g>
		<g id="shape120-363" transform="translate(680.637,67.551) rotate(-65.8934)">
			<title>Sheet.120</title>
			<path d="M0 255.69 L4.25 255.69" class="st5"/>
		</g>
		<g id="shape121-366" transform="translate(685.847,55.9076) rotate(-65.8934)">
			<title>Sheet.121</title>
			<path d="M0 255.69 L4.25 255.69" class="st5"/>
		</g>
		<g id="shape122-369" transform="translate(716.244,334.026) rotate(-129.328)">
			<title>Sheet.122</title>
			<path d="M0 255.69 L19.02 255.69" class="st5"/>
		</g>
		<g id="shape123-372" transform="translate(891.004,-98.1767) rotate(-2.45843)">
			<title>Sheet.123</title>
			<path d="M0 255.69 L19.02 255.69" class="st5"/>
		</g>
		<g id="shape124-375" transform="translate(724.838,87.329) rotate(-65.8934)">
			<title>Sheet.124</title>
			<path d="M0 255.69 L4.25 255.69" class="st5"/>
		</g>
		<g id="shape125-378" transform="translate(730.048,75.6856) rotate(-65.8934)">
			<title>Sheet.125</title>
			<path d="M0 255.69 L4.25 255.69" class="st5"/>
		</g>
		<g id="shape126-381" transform="translate(947.256,-63.6897) rotate(-2.45843)">
			<title>Sheet.126</title>
			<path d="M0 255.69 L19.02 255.69" class="st5"/>
		</g>
		<g id="shape127-384" transform="translate(779.442,352.988) rotate(-129.328)">
			<title>Sheet.127</title>
			<path d="M0 255.69 L19.02 255.69" class="st5"/>
		</g>
		<g id="shape128-387" transform="translate(855.53,421.265) rotate(-155.893)">
			<title>Sheet.128</title>
			<path d="M0 255.69 L48.42 255.69" class="st5"/>
		</g>
		<g id="shape129-390" transform="translate(1023.66,-73.0474) rotate(24.1066)">
			<title>Sheet.129</title>
			<path d="M0 255.69 L48.42 255.69" class="st5"/>
		</g>
		<g id="shape130-393" transform="translate(771.266,-130.147) rotate(-24.1066)">
			<title>Sheet.130</title>
			<desc>BLE link</desc>
			<rect x="0" y="244.346" width="135.084" height="11.3386" class="st2"/>
			<text x="49.87" y="255.12" class="st8">BLE link</text>		</g>
	</g>
</svg>
