<?xml version="1.0" encoding="UTF-8" standalone="no"?>
<!DOCTYPE svg PUBLIC "-//W3C//DTD SVG 1.1//EN" "http://www.w3.org/Graphics/SVG/1.1/DTD/svg11.dtd">
<!-- Generated by Microsoft Visio, SVG Export IoT overview figures nodes-router-internet.svg Page-1 -->
<svg xmlns="http://www.w3.org/2000/svg" xmlns:xlink="http://www.w3.org/1999/xlink" xmlns:ev="http://www.w3.org/2001/xml-events"
		width="7.5in" height="3.95in" viewBox="0 0 810.421 402.571" xml:space="preserve" color-interpolation-filters="sRGB"
		class="st8">
	<style type="text/css">
	<![CDATA[
		.st1 {fill:none;stroke:none;stroke-linecap:round;stroke-linejoin:round;stroke-width:0.75}
		.st2 {fill:#000000;font-family:Calibri;font-size:1.25983em}
		.st3 {font-size:1em}
		.st4 {stroke:#000000;stroke-linecap:round;stroke-linejoin:round;stroke-width:0.75}
		.st5 {fill:none}
		.st6 {fill:#000000;font-family:Calibri;font-size:1.88976em}
		.st7 {fill:#000000;font-family:Calibri;font-size:0.944893em}
		.st8 {fill:none;fill-rule:evenodd;font-size:12px;overflow:visible;stroke-linecap:square;stroke-miterlimit:3}
	]]>
	</style>

	<g>
		<title>Page-1</title>
		<g id="shape72-1" transform="translate(0,-195.922)">
			<title>Sheet.72</title>
			<desc>6LoWPAN node</desc>
			<rect x="0" y="387.453" width="197.596" height="15.1181" class="st1"/>
			<text x="67.92" y="390.48" class="st2">6LoWPAN  <tspan x="83.11" dy="1.2em" class="st3">node</tspan></text>		</g>
		<g id="shape73-5" transform="translate(44.7825,-253.817)">
			<title>Sheet.73</title>
			<path d="M0 402.57 L109.77 402.57" class="st4"/>
		</g>
		<g id="shape74-8" transform="translate(557.121,148.754) rotate(90)">
			<title>Sheet.74</title>
			<path d="M0 402.57 L106.31 402.57" class="st4"/>
		</g>
		<g id="shape75-11" transform="translate(154.55,657.634) rotate(180)">
			<title>Sheet.75</title>
			<path d="M0 402.57 L109.77 402.57" class="st4"/>
		</g>
		<g id="shape76-14" transform="translate(-357.788,255.063) rotate(-90)">
			<title>Sheet.76</title>
			<path d="M0 402.57 L106.31 402.57" class="st4"/>
		</g>
		<g id="shape77-17" transform="translate(52.8901,-244.621)">
			<title>Sheet.77</title>
			<path d="M0 402.57 L93.28 402.57" class="st4"/>
		</g>
		<g id="shape78-20" transform="translate(548.743,157.95) rotate(90)">
			<title>Sheet.78</title>
			<path d="M0 402.57 L89.16 402.57" class="st4"/>
		</g>
		<g id="shape79-23" transform="translate(146.172,649.685) rotate(180)">
			<title>Sheet.79</title>
			<path d="M0 402.57 L93.28 402.57" class="st4"/>
		</g>
		<g id="shape80-26" transform="translate(-349.681,247.114) rotate(-90)">
			<title>Sheet.80</title>
			<path d="M0 402.57 L89.16 402.57" class="st4"/>
		</g>
		<g id="shape81-29" transform="translate(283.509,-196.528)">
			<title>Sheet.81</title>
			<desc>6LoWPAN border router</desc>
			<rect x="0" y="387.453" width="197.596" height="15.1181" class="st1"/>
			<text x="67.92" y="390.48" class="st2">6LoWPAN  <tspan x="56.61" dy="1.2em" class="st3">border router</tspan></text>		</g>
		<g id="shape82-33" transform="translate(306.763,-254.44)">
			<title>Sheet.82</title>
			<path d="M0 402.57 L149.39 402.57" class="st4"/>
		</g>
		<g id="shape83-36" transform="translate(858.723,148.131) rotate(90)">
			<title>Sheet.83</title>
			<path d="M0 402.57 L106.31 402.57" class="st4"/>
		</g>
		<g id="shape84-39" transform="translate(456.152,657.011) rotate(180)">
			<title>Sheet.84</title>
			<path d="M0 402.57 L149.39 402.57" class="st4"/>
		</g>
		<g id="shape85-42" transform="translate(-95.808,254.44) rotate(-90)">
			<title>Sheet.85</title>
			<path d="M0 402.57 L106.31 402.57" class="st4"/>
		</g>
		<g id="shape86-45" transform="translate(314.87,-245.244)">
			<title>Sheet.86</title>
			<path d="M0 402.57 L132.9 402.57" class="st4"/>
		</g>
		<g id="shape87-48" transform="translate(850.344,157.327) rotate(90)">
			<title>Sheet.87</title>
			<path d="M0 402.57 L89.16 402.57" class="st4"/>
		</g>
		<g id="shape88-51" transform="translate(447.774,649.061) rotate(180)">
			<title>Sheet.88</title>
			<path d="M0 402.57 L132.9 402.57" class="st4"/>
		</g>
		<g id="shape89-54" transform="translate(-87.7004,246.491) rotate(-90)">
			<title>Sheet.89</title>
			<path d="M0 402.57 L89.16 402.57" class="st4"/>
		</g>
		<g id="shape90-57" transform="translate(306.763,604.479) rotate(180)">
			<title>Sheet.90</title>
			<path d="M0 402.57 L152.21 402.57" class="st4"/>
		</g>
		<g id="shape91-60" transform="translate(57.3809,-344.676)">
			<title>Sheet.91</title>
			<desc>6LoWPAN node</desc>
			<rect x="0" y="387.453" width="197.596" height="15.1181" class="st1"/>
			<text x="67.92" y="390.48" class="st2">6LoWPAN  <tspan x="83.11" dy="1.2em" class="st3">node</tspan></text>		</g>
		<g id="shape92-64" transform="translate(102.163,-402.571)">
			<title>Sheet.92</title>
			<path d="M0 402.57 L109.77 402.57" class="st4"/>
		</g>
		<g id="shape93-67" transform="translate(614.502,2.30359E-006) rotate(90)">
			<title>Sheet.93</title>
			<path d="M0 402.57 L106.31 402.57" class="st4"/>
		</g>
		<g id="shape94-70" transform="translate(211.931,508.88) rotate(180)">
			<title>Sheet.94</title>
			<path d="M0 402.57 L109.77 402.57" class="st4"/>
		</g>
		<g id="shape95-73" transform="translate(-300.407,106.31) rotate(-90)">
			<title>Sheet.95</title>
			<path d="M0 402.57 L106.31 402.57" class="st4"/>
		</g>
		<g id="shape96-76" transform="translate(110.271,-393.375)">
			<title>Sheet.96</title>
			<path d="M0 402.57 L93.28 402.57" class="st4"/>
		</g>
		<g id="shape97-79" transform="translate(606.123,9.19604) rotate(90)">
			<title>Sheet.97</title>
			<path d="M0 402.57 L89.16 402.57" class="st4"/>
		</g>
		<g id="shape98-82" transform="translate(203.553,500.931) rotate(180)">
			<title>Sheet.98</title>
			<path d="M0 402.57 L93.28 402.57" class="st4"/>
		</g>
		<g id="shape99-85" transform="translate(-292.3,98.3601) rotate(-90)">
			<title>Sheet.99</title>
			<path d="M0 402.57 L89.16 402.57" class="st4"/>
		</g>
		<g id="shape100-88" transform="translate(84.9889,488.668) rotate(-146.572)">
			<title>Sheet.100</title>
			<path d="M0 402.57 L113.63 402.57" class="st4"/>
		</g>
		<g id="shape101-91" transform="translate(528.536,587.1) rotate(146.572)">
			<title>Sheet.101</title>
			<path d="M0 402.57 L113.63 402.57" class="st4"/>
		</g>
		<g id="shape102-94" transform="translate(57.3809,-48.4149)">
			<title>Sheet.102</title>
			<desc>6LoWPAN node</desc>
			<rect x="0" y="387.453" width="197.596" height="15.1181" class="st1"/>
			<text x="67.92" y="390.48" class="st2">6LoWPAN  <tspan x="83.11" dy="1.2em" class="st3">node</tspan></text>		</g>
		<g id="shape103-98" transform="translate(102.163,-106.31)">
			<title>Sheet.103</title>
			<path d="M0 402.57 L109.77 402.57" class="st4"/>
		</g>
		<g id="shape104-101" transform="translate(614.502,296.261) rotate(90)">
			<title>Sheet.104</title>
			<path d="M0 402.57 L106.31 402.57" class="st4"/>
		</g>
		<g id="shape105-104" transform="translate(211.931,805.141) rotate(180)">
			<title>Sheet.105</title>
			<path d="M0 402.57 L109.77 402.57" class="st4"/>
		</g>
		<g id="shape106-107" transform="translate(-300.407,402.571) rotate(-90)">
			<title>Sheet.106</title>
			<path d="M0 402.57 L106.31 402.57" class="st4"/>
		</g>
		<g id="shape107-110" transform="translate(110.271,-97.1135)">
			<title>Sheet.107</title>
			<path d="M0 402.57 L93.28 402.57" class="st4"/>
		</g>
		<g id="shape108-113" transform="translate(606.123,305.457) rotate(90)">
			<title>Sheet.108</title>
			<path d="M0 402.57 L89.16 402.57" class="st4"/>
		</g>
		<g id="shape109-116" transform="translate(203.553,797.192) rotate(180)">
			<title>Sheet.109</title>
			<path d="M0 402.57 L93.28 402.57" class="st4"/>
		</g>
		<g id="shape110-119" transform="translate(-292.3,394.621) rotate(-90)">
			<title>Sheet.110</title>
			<path d="M0 402.57 L89.16 402.57" class="st4"/>
		</g>
		<g id="shape111-122" transform="translate(597.755,-218.824)">
			<title>Sheet.111</title>
			<path d="M0.23 402.57 C0.03 399.36 -0.17 396.14 0.23 392.93 C0.87 387.89 2.99 382.86 6.29 379.04 C11.54 372.94 19.75
						 369.91 28.04 368.5 C35.75 367.19 43.52 367.28 50.47 369.85 C54.22 371.23 57.72 373.34 61.23 375.45 L0.23
						 402.57 Z" class="st5"/>
			<path d="M0.23 402.57 C0.03 399.36 -0.17 396.14 0.23 392.93 C0.87 387.89 2.99 382.86 6.29 379.04 C11.54 372.94 19.75
						 369.91 28.04 368.5 C35.75 367.19 43.52 367.28 50.47 369.85 C54.22 371.23 57.72 373.34 61.23 375.45"
					class="st4"/>
		</g>
		<g id="shape112-125" transform="translate(651.507,-250.139)">
			<title>Sheet.112</title>
			<path d="M0 402.57 C2.22 400.07 4.56 397.75 7.25 396.01 C13.05 392.26 20.52 391.16 27.88 391.3 C33.49 391.41 39.03 392.23
						 43.58 394.89 C44.7 395.54 45.75 396.3 46.77 397.12 L0 402.57 Z" class="st5"/>
			<path d="M0 402.57 C2.22 400.07 4.56 397.75 7.25 396.01 C13.05 392.26 20.52 391.16 27.88 391.3 C33.49 391.41 39.03 392.23
						 43.58 394.89 C44.7 395.54 45.75 396.3 46.77 397.12" class="st4"/>
		</g>
		<g id="shape113-128" transform="translate(695.492,-251.856)">
			<title>Sheet.113</title>
			<path d="M0 402.57 C2.53 398.95 5.23 395.54 8.79 393.24 C15.63 388.83 25.67 388.53 33.46 391.67 C36.91 393.06 39.93 395.13
						 42.82 397.38 L0 402.57 Z" class="st5"/>
			<path d="M0 402.57 C2.53 398.95 5.23 395.54 8.79 393.24 C15.63 388.83 25.67 388.53 33.46 391.67 C36.91 393.06 39.93 395.13
						 42.82 397.38" class="st4"/>
		</g>
		<g id="shape114-131" transform="translate(733.314,-246.012)">
			<title>Sheet.114</title>
			<path d="M0 395.16 C4.18 392 8.42 388.97 13.17 386.9 C18.62 384.54 24.74 383.44 30.8 384.27 C35.59 384.93 40.33 386.79
						 43.7 389.88 C47.23 393.12 49.25 397.71 51 402.55 C51 402.55 51 402.56 51 402.56 C51 402.56 51 402.57 51
						 402.57 L0 395.16 Z" class="st5"/>
			<path d="M0 395.16 C4.18 392 8.42 388.97 13.17 386.9 C18.62 384.54 24.74 383.44 30.8 384.27 C35.59 384.93 40.33 386.79
						 43.7 389.88 C47.23 393.12 49.25 397.71 51 402.55 C51 402.55 51 402.56 51 402.56 C51 402.56 51 402.57 51
						 402.57" class="st4"/>
		</g>
		<g id="shape115-134" transform="translate(782.858,-212.467)">
			<title>Sheet.115</title>
			<path d="M0 369.14 C2.67 368.91 3.89 368.89 5.12 368.96 C8.51 369.17 11.99 370.14 14.68 372.12 C17.77 374.38 19.83 377.97
						 21 381.76 C22.13 385.43 22.43 389.3 21.35 392.9 C20.5 395.7 18.82 398.34 16.61 400.18 C15.4 401.18 14.02
						 401.95 12.56 402.57 L0 369.14 Z" class="st5"/>
			<path d="M0 369.14 C2.67 368.91 3.89 368.89 5.12 368.96 C8.51 369.17 11.99 370.14 14.68 372.12 C17.77 374.38 19.83 377.97
						 21 381.76 C22.13 385.43 22.43 389.3 21.35 392.9 C20.5 395.7 18.82 398.34 16.61 400.18 C15.4 401.18 14.02
						 401.95 12.56 402.57" class="st4"/>
		</g>
		<g id="shape116-137" transform="translate(780.249,-178.354)">
			<title>Sheet.116</title>
			<path d="M22.59 361.97 C25.24 364.97 27.66 368.08 28.99 371.74 C30.24 375.17 30.53 379.09 29.7 382.7 C28.92 386.02 27.19
						 389.08 24.96 391.64 C22.09 394.93 18.41 397.39 14.43 399.27 C10.78 401 6.87 402.25 2.94 402.51 C1.96 402.58
						 0.98 402.59 -0 402.55 L22.59 361.97 Z" class="st5"/>
			<path d="M22.59 361.97 C25.24 364.97 27.66 368.08 28.99 371.74 C30.24 375.17 30.53 379.09 29.7 382.7 C28.92 386.02 27.19
						 389.08 24.96 391.64 C22.09 394.93 18.41 397.39 14.43 399.27 C10.78 401 6.87 402.25 2.94 402.51 C1.96 402.58
						 0.98 402.59 -0 402.55" class="st4"/>
		</g>
		<g id="shape117-140" transform="translate(731.79,-152.721)">
			<title>Sheet.117</title>
			<path d="M30.98 357.99 C35.04 359.94 39.1 361.89 42.2 364.94 C44.45 367.15 46.21 369.94 47.36 373.01 C48.82 376.9 49.32
						 381.24 48.26 385.11 C46.7 390.79 41.78 395.45 36.37 398.34 C29.69 401.91 22.24 402.78 14.83 402.6 C11.25
						 402.51 7.67 402.18 4.29 401.26 C2.83 400.86 1.4 400.34 0 399.75 L30.98 357.99 Z" class="st5"/>
			<path d="M30.98 357.99 C35.04 359.94 39.1 361.89 42.2 364.94 C44.45 367.15 46.21 369.94 47.36 373.01 C48.82 376.9 49.32
						 381.24 48.26 385.11 C46.7 390.79 41.78 395.45 36.37 398.34 C29.69 401.91 22.24 402.78 14.83 402.6 C11.25
						 402.51 7.67 402.18 4.29 401.26 C2.83 400.86 1.4 400.34 0 399.75" class="st4"/>
		</g>
		<g id="shape118-143" transform="translate(662.458,-138.505)">
			<title>Sheet.118</title>
			<path d="M71.96 378.33 C70.53 383.13 68.78 387.68 65.77 391.3 C60.74 397.35 52.22 400.81 44.01 402.06 C37.03 403.13 30.28
						 402.59 23.38 401.16 C17.16 399.88 10.82 397.87 6.33 393.77 C3.84 391.49 1.92 388.58 0 385.67 L71.96 378.33
						 Z" class="st5"/>
			<path d="M71.96 378.33 C70.53 383.13 68.78 387.68 65.77 391.3 C60.74 397.35 52.22 400.81 44.01 402.06 C37.03 403.13 30.28
						 402.59 23.38 401.16 C17.16 399.88 10.82 397.87 6.33 393.77 C3.84 391.49 1.92 388.58 0 385.67" class="st4"/>
		</g>
		<g id="shape119-146" transform="translate(609.943,-144.037)">
			<title>Sheet.119</title>
			<path d="M57.25 397.68 C57.22 397.69 57.2 397.69 57.18 397.7 C57.18 397.7 57.17 397.7 57.17 397.71 C52.59 399.41 47.96
						 400.91 43.14 401.76 C34.54 403.29 25.37 402.77 17.12 399.52 C11.38 397.26 6.08 393.68 2.32 388.99 C1.47
						 387.94 0.71 386.83 0 385.68 L57.25 397.68 Z" class="st5"/>
			<path d="M57.25 397.68 C57.22 397.69 57.2 397.69 57.18 397.7 C57.18 397.7 57.17 397.7 57.17 397.71 C52.59 399.41 47.96
						 400.91 43.14 401.76 C34.54 403.29 25.37 402.77 17.12 399.52 C11.38 397.26 6.08 393.68 2.32 388.99 C1.47
						 387.94 0.71 386.83 0 385.68" class="st4"/>
		</g>
		<g id="shape120-149" transform="translate(582.307,-160.9)">
			<title>Sheet.120</title>
			<path d="M32.28 402.26 C29.12 402.54 25.9 402.68 22.55 402.48 C15.36 402.07 7.54 400.17 3.48 394.86 C1.54 392.33 0.46
						 389.02 0.12 385.67 C-0.17 382.89 0.05 380.07 1.01 377.6 C1.79 375.61 3.04 373.84 4.48 372.15 L32.28 402.26
						 Z" class="st5"/>
			<path d="M32.28 402.26 C29.12 402.54 25.9 402.68 22.55 402.48 C15.36 402.07 7.54 400.17 3.48 394.86 C1.54 392.33 0.46
						 389.02 0.12 385.67 C-0.17 382.89 0.05 380.07 1.01 377.6 C1.79 375.61 3.04 373.84 4.48 372.15" class="st4"/>
		</g>
		<g id="shape121-152" transform="translate(575.764,-187.318)">
			<title>Sheet.121</title>
			<path d="M24.56 402.57 C21.39 401.97 18.25 401.24 15.18 400.21 C11.35 398.92 7.63 397.17 4.64 394.38 C2.56 392.43 0.83
						 389.97 0.24 387.21 C-0.45 384.05 0.35 380.49 2.08 377.74 C5.04 373.05 10.71 370.73 16.12 369.06 C18.11 368.45
						 20.08 367.92 22.03 367.42 L24.56 402.57 Z" class="st5"/>
			<path d="M24.56 402.57 C21.39 401.97 18.25 401.24 15.18 400.21 C11.35 398.92 7.63 397.17 4.64 394.38 C2.56 392.43 0.83
						 389.97 0.24 387.21 C-0.45 384.05 0.35 380.49 2.08 377.74 C5.04 373.05 10.71 370.73 16.12 369.06 C18.11 368.45
						 20.08 367.92 22.03 367.42" class="st4"/>
		</g>
		<g id="shape122-155" transform="translate(592.81,-193.022)">
			<title>Sheet.122</title>
			<desc>Internet</desc>
			<rect x="0" y="379.893" width="197.596" height="22.6772" class="st1"/>
			<text x="61.19" y="398.04" class="st6">Internet</text>		</g>
		<g id="shape123-158" transform="translate(954.724,192.781) rotate(90)">
			<title>Sheet.123</title>
			<path d="M0 402.57 L4.25 402.57" class="st4"/>
		</g>
		<g id="shape124-161" transform="translate(954.724,205.537) rotate(90)">
			<title>Sheet.124</title>
			<path d="M0 402.57 L4.25 402.57" class="st4"/>
		</g>
		<g id="shape125-164" transform="translate(732.189,-167.289) rotate(26.5651)">
			<title>Sheet.125</title>
			<path d="M0 402.57 L19.02 402.57" class="st4"/>
		</g>
		<g id="shape126-167" transform="translate(749.196,561.355) rotate(153.435)">
			<title>Sheet.126</title>
			<path d="M0 402.57 L19.02 402.57" class="st4"/>
		</g>
		<g id="shape127-170" transform="translate(882.552,192.781) rotate(90)">
			<title>Sheet.127</title>
			<path d="M0 402.57 L4.25 402.57" class="st4"/>
		</g>
		<g id="shape128-173" transform="translate(882.552,205.537) rotate(90)">
			<title>Sheet.128</title>
			<path d="M0 402.57 L4.25 402.57" class="st4"/>
		</g>
		<g id="shape129-176" transform="translate(660.017,552.852) rotate(153.435)">
			<title>Sheet.129</title>
			<path d="M0 402.57 L19.02 402.57" class="st4"/>
		</g>
		<g id="shape130-179" transform="translate(643.009,-158.785) rotate(26.5651)">
			<title>Sheet.130</title>
			<path d="M0 402.57 L19.02 402.57" class="st4"/>
		</g>
		<g id="shape131-182" transform="translate(479.982,-205.537)">
			<title>Sheet.131</title>
			<path d="M0 402.57 L72.17 402.57" class="st4"/>
		</g>
		<g id="shape132-185" transform="translate(552.153,608.108) rotate(180)">
			<title>Sheet.132</title>
			<path d="M0 402.57 L72.17 402.57" class="st4"/>
		</g>
		<g id="shape133-188" transform="translate(448.589,-207.735)">
			<title>Sheet.133</title>
			<desc>ICMPv6/IPv6</desc>
			<rect x="0" y="391.232" width="135.084" height="11.3386" class="st1"/>
			<text x="37.9" y="402" class="st7">ICMPv6/IPv6</text>		</g>
	</g>
</svg>
