<?xml version="1.0" encoding="UTF-8" standalone="no"?>
<!DOCTYPE svg PUBLIC "-//W3C//DTD SVG 1.1//EN" "http://www.w3.org/Graphics/SVG/1.1/DTD/svg11.dtd">
<!-- Generated by Microsoft Visio, SVG Export IoT overview figures nodes-router.svg Page-1 -->
<svg xmlns="http://www.w3.org/2000/svg" xmlns:xlink="http://www.w3.org/1999/xlink" xmlns:ev="http://www.w3.org/2001/xml-events"
		width="7in" height="3.8in" viewBox="0 0 760.907 402.571" xml:space="preserve" color-interpolation-filters="sRGB"
		class="st5">
	<style type="text/css">
	<![CDATA[
		.st1 {fill:none;stroke:none;stroke-linecap:round;stroke-linejoin:round;stroke-width:0.75}
		.st2 {fill:#000000;font-family:Calibri;font-size:1.25983em}
		.st3 {font-size:1em}
		.st4 {stroke:#000000;stroke-linecap:round;stroke-linejoin:round;stroke-width:0.75}
		.st5 {fill:none;fill-rule:evenodd;font-size:12px;overflow:visible;stroke-linecap:square;stroke-miterlimit:3}
	]]>
	</style>

	<g>
		<title>Page-1</title>
		<g id="shape3-1" transform="translate(0,-195.922)">
			<title>Sheet.3</title>
			<desc>6LoWPAN node</desc>
			<rect x="0" y="387.453" width="197.596" height="15.1181" class="st1"/>
			<text x="67.92" y="390.48" class="st2">6LoWPAN  <tspan x="83.11" dy="1.2em" class="st3">node</tspan></text>		</g>
		<g id="shape4-5" transform="translate(44.7825,-253.817)">
			<title>Sheet.4</title>
			<path d="M0 402.57 L109.77 402.57" class="st4"/>
		</g>
		<g id="shape5-8" transform="translate(557.121,148.754) rotate(90)">
			<title>Sheet.5</title>
			<path d="M0 402.57 L106.31 402.57" class="st4"/>
		</g>
		<g id="shape6-11" transform="translate(154.55,657.634) rotate(180)">
			<title>Sheet.6</title>
			<path d="M0 402.57 L109.77 402.57" class="st4"/>
		</g>
		<g id="shape7-14" transform="translate(-357.788,255.063) rotate(-90)">
			<title>Sheet.7</title>
			<path d="M0 402.57 L106.31 402.57" class="st4"/>
		</g>
		<g id="shape8-17" transform="translate(52.8901,-244.621)">
			<title>Sheet.8</title>
			<path d="M0 402.57 L93.28 402.57" class="st4"/>
		</g>
		<g id="shape9-20" transform="translate(548.743,157.95) rotate(90)">
			<title>Sheet.9</title>
			<path d="M0 402.57 L89.16 402.57" class="st4"/>
		</g>
		<g id="shape10-23" transform="translate(146.172,649.685) rotate(180)">
			<title>Sheet.10</title>
			<path d="M0 402.57 L93.28 402.57" class="st4"/>
		</g>
		<g id="shape11-26" transform="translate(-349.681,247.114) rotate(-90)">
			<title>Sheet.11</title>
			<path d="M0 402.57 L89.16 402.57" class="st4"/>
		</g>
		<g id="shape12-29" transform="translate(283.509,-196.528)">
			<title>Sheet.12</title>
			<desc>6LoWPAN border router</desc>
			<rect x="0" y="387.453" width="197.596" height="15.1181" class="st1"/>
			<text x="67.92" y="390.48" class="st2">6LoWPAN  <tspan x="56.61" dy="1.2em" class="st3">border router</tspan></text>		</g>
		<g id="shape13-33" transform="translate(306.763,-254.44)">
			<title>Sheet.13</title>
			<path d="M0 402.57 L149.39 402.57" class="st4"/>
		</g>
		<g id="shape14-36" transform="translate(858.723,148.131) rotate(90)">
			<title>Sheet.14</title>
			<path d="M0 402.57 L106.31 402.57" class="st4"/>
		</g>
		<g id="shape15-39" transform="translate(456.152,657.011) rotate(180)">
			<title>Sheet.15</title>
			<path d="M0 402.57 L149.39 402.57" class="st4"/>
		</g>
		<g id="shape16-42" transform="translate(-95.808,254.44) rotate(-90)">
			<title>Sheet.16</title>
			<path d="M0 402.57 L106.31 402.57" class="st4"/>
		</g>
		<g id="shape17-45" transform="translate(314.87,-245.244)">
			<title>Sheet.17</title>
			<path d="M0 402.57 L132.9 402.57" class="st4"/>
		</g>
		<g id="shape18-48" transform="translate(850.344,157.327) rotate(90)">
			<title>Sheet.18</title>
			<path d="M0 402.57 L89.16 402.57" class="st4"/>
		</g>
		<g id="shape19-51" transform="translate(447.774,649.061) rotate(180)">
			<title>Sheet.19</title>
			<path d="M0 402.57 L132.9 402.57" class="st4"/>
		</g>
		<g id="shape20-54" transform="translate(-87.7004,246.491) rotate(-90)">
			<title>Sheet.20</title>
			<path d="M0 402.57 L89.16 402.57" class="st4"/>
		</g>
		<g id="shape21-57" transform="translate(306.763,604.479) rotate(180)">
			<title>Sheet.21</title>
			<path d="M0 402.57 L152.21 402.57" class="st4"/>
		</g>
		<g id="shape22-60" transform="translate(57.3809,-344.676)">
			<title>Sheet.22</title>
			<desc>6LoWPAN node</desc>
			<rect x="0" y="387.453" width="197.596" height="15.1181" class="st1"/>
			<text x="67.92" y="390.48" class="st2">6LoWPAN  <tspan x="83.11" dy="1.2em" class="st3">node</tspan></text>		</g>
		<g id="shape23-64" transform="translate(102.163,-402.571)">
			<title>Sheet.23</title>
			<path d="M0 402.57 L109.77 402.57" class="st4"/>
		</g>
		<g id="shape24-67" transform="translate(614.502,2.30359E-006) rotate(90)">
			<title>Sheet.24</title>
			<path d="M0 402.57 L106.31 402.57" class="st4"/>
		</g>
		<g id="shape25-70" transform="translate(211.931,508.88) rotate(180)">
			<title>Sheet.25</title>
			<path d="M0 402.57 L109.77 402.57" class="st4"/>
		</g>
		<g id="shape26-73" transform="translate(-300.407,106.31) rotate(-90)">
			<title>Sheet.26</title>
			<path d="M0 402.57 L106.31 402.57" class="st4"/>
		</g>
		<g id="shape27-76" transform="translate(110.271,-393.375)">
			<title>Sheet.27</title>
			<path d="M0 402.57 L93.28 402.57" class="st4"/>
		</g>
		<g id="shape28-79" transform="translate(606.123,9.19604) rotate(90)">
			<title>Sheet.28</title>
			<path d="M0 402.57 L89.16 402.57" class="st4"/>
		</g>
		<g id="shape29-82" transform="translate(203.553,500.931) rotate(180)">
			<title>Sheet.29</title>
			<path d="M0 402.57 L93.28 402.57" class="st4"/>
		</g>
		<g id="shape30-85" transform="translate(-292.3,98.3601) rotate(-90)">
			<title>Sheet.30</title>
			<path d="M0 402.57 L89.16 402.57" class="st4"/>
		</g>
		<g id="shape31-88" transform="translate(84.9889,488.668) rotate(-146.572)">
			<title>Sheet.31</title>
			<path d="M0 402.57 L113.63 402.57" class="st4"/>
		</g>
		<g id="shape32-91" transform="translate(528.536,587.1) rotate(146.572)">
			<title>Sheet.32</title>
			<path d="M0 402.57 L113.63 402.57" class="st4"/>
		</g>
		<g id="shape33-94" transform="translate(456.152,-200.662)">
			<title>Sheet.33</title>
			<path d="M0 402.57 L151.94 402.57" class="st4"/>
		</g>
		<g id="shape34-97" transform="translate(234.379,-183.461) rotate(-33.4284)">
			<title>Sheet.34</title>
			<path d="M0 402.57 L113.63 402.57" class="st4"/>
		</g>
		<g id="shape35-100" transform="translate(677.926,-84.6723) rotate(33.4284)">
			<title>Sheet.35</title>
			<path d="M0 402.57 L113.63 402.57" class="st4"/>
		</g>
		<g id="shape36-103" transform="translate(57.3809,-48.4149)">
			<title>Sheet.36</title>
			<desc>6LoWPAN node</desc>
			<rect x="0" y="387.453" width="197.596" height="15.1181" class="st1"/>
			<text x="67.92" y="390.48" class="st2">6LoWPAN  <tspan x="83.11" dy="1.2em" class="st3">node</tspan></text>		</g>
		<g id="shape37-107" transform="translate(102.163,-106.31)">
			<title>Sheet.37</title>
			<path d="M0 402.57 L109.77 402.57" class="st4"/>
		</g>
		<g id="shape38-110" transform="translate(614.502,296.261) rotate(90)">
			<title>Sheet.38</title>
			<path d="M0 402.57 L106.31 402.57" class="st4"/>
		</g>
		<g id="shape39-113" transform="translate(211.931,805.141) rotate(180)">
			<title>Sheet.39</title>
			<path d="M0 402.57 L109.77 402.57" class="st4"/>
		</g>
		<g id="shape40-116" transform="translate(-300.407,402.571) rotate(-90)">
			<title>Sheet.40</title>
			<path d="M0 402.57 L106.31 402.57" class="st4"/>
		</g>
		<g id="shape41-119" transform="translate(110.271,-97.1135)">
			<title>Sheet.41</title>
			<path d="M0 402.57 L93.28 402.57" class="st4"/>
		</g>
		<g id="shape42-122" transform="translate(606.123,305.457) rotate(90)">
			<title>Sheet.42</title>
			<path d="M0 402.57 L89.16 402.57" class="st4"/>
		</g>
		<g id="shape43-125" transform="translate(203.553,797.192) rotate(180)">
			<title>Sheet.43</title>
			<path d="M0 402.57 L93.28 402.57" class="st4"/>
		</g>
		<g id="shape44-128" transform="translate(-292.3,394.621) rotate(-90)">
			<title>Sheet.44</title>
			<path d="M0 402.57 L89.16 402.57" class="st4"/>
		</g>
		<g id="shape45-131" transform="translate(506.201,-48.4149)">
			<title>Sheet.45</title>
			<desc>6LoWPAN node</desc>
			<rect x="0" y="387.453" width="197.596" height="15.1181" class="st1"/>
			<text x="67.92" y="390.48" class="st2">6LoWPAN  <tspan x="83.11" dy="1.2em" class="st3">node</tspan></text>		</g>
		<g id="shape46-135" transform="translate(550.984,-106.31)">
			<title>Sheet.46</title>
			<path d="M0 402.57 L109.77 402.57" class="st4"/>
		</g>
		<g id="shape47-138" transform="translate(1063.32,296.261) rotate(90)">
			<title>Sheet.47</title>
			<path d="M0 402.57 L106.31 402.57" class="st4"/>
		</g>
		<g id="shape48-141" transform="translate(660.751,805.141) rotate(180)">
			<title>Sheet.48</title>
			<path d="M0 402.57 L109.77 402.57" class="st4"/>
		</g>
		<g id="shape49-144" transform="translate(148.413,402.571) rotate(-90)">
			<title>Sheet.49</title>
			<path d="M0 402.57 L106.31 402.57" class="st4"/>
		</g>
		<g id="shape50-147" transform="translate(559.091,-97.1135)">
			<title>Sheet.50</title>
			<path d="M0 402.57 L93.28 402.57" class="st4"/>
		</g>
		<g id="shape51-150" transform="translate(1054.94,305.457) rotate(90)">
			<title>Sheet.51</title>
			<path d="M0 402.57 L89.16 402.57" class="st4"/>
		</g>
		<g id="shape52-153" transform="translate(652.373,797.192) rotate(180)">
			<title>Sheet.52</title>
			<path d="M0 402.57 L93.28 402.57" class="st4"/>
		</g>
		<g id="shape53-156" transform="translate(156.521,394.621) rotate(-90)">
			<title>Sheet.53</title>
			<path d="M0 402.57 L89.16 402.57" class="st4"/>
		</g>
		<g id="shape54-159" transform="translate(506.201,-344.676)">
			<title>Sheet.54</title>
			<desc>6LoWPAN node</desc>
			<rect x="0" y="387.453" width="197.596" height="15.1181" class="st1"/>
			<text x="67.92" y="390.48" class="st2">6LoWPAN  <tspan x="83.11" dy="1.2em" class="st3">node</tspan></text>		</g>
		<g id="shape55-163" transform="translate(550.984,-402.571)">
			<title>Sheet.55</title>
			<path d="M0 402.57 L109.77 402.57" class="st4"/>
		</g>
		<g id="shape56-166" transform="translate(1063.32,2.30359E-006) rotate(90)">
			<title>Sheet.56</title>
			<path d="M0 402.57 L106.31 402.57" class="st4"/>
		</g>
		<g id="shape57-169" transform="translate(660.751,508.88) rotate(180)">
			<title>Sheet.57</title>
			<path d="M0 402.57 L109.77 402.57" class="st4"/>
		</g>
		<g id="shape58-172" transform="translate(148.413,106.31) rotate(-90)">
			<title>Sheet.58</title>
			<path d="M0 402.57 L106.31 402.57" class="st4"/>
		</g>
		<g id="shape59-175" transform="translate(559.091,-393.375)">
			<title>Sheet.59</title>
			<path d="M0 402.57 L93.28 402.57" class="st4"/>
		</g>
		<g id="shape60-178" transform="translate(1054.94,9.19604) rotate(90)">
			<title>Sheet.60</title>
			<path d="M0 402.57 L89.16 402.57" class="st4"/>
		</g>
		<g id="shape61-181" transform="translate(652.373,500.931) rotate(180)">
			<title>Sheet.61</title>
			<path d="M0 402.57 L93.28 402.57" class="st4"/>
		</g>
		<g id="shape62-184" transform="translate(156.521,98.3601) rotate(-90)">
			<title>Sheet.62</title>
			<path d="M0 402.57 L89.16 402.57" class="st4"/>
		</g>
		<g id="shape63-187" transform="translate(563.311,-195.922)">
			<title>Sheet.63</title>
			<desc>6LoWPAN node</desc>
			<rect x="0" y="387.453" width="197.596" height="15.1181" class="st1"/>
			<text x="67.92" y="390.48" class="st2">6LoWPAN  <tspan x="83.11" dy="1.2em" class="st3">node</tspan></text>		</g>
		<g id="shape64-191" transform="translate(608.094,-253.817)">
			<title>Sheet.64</title>
			<path d="M0 402.57 L109.77 402.57" class="st4"/>
		</g>
		<g id="shape65-194" transform="translate(1120.43,148.754) rotate(90)">
			<title>Sheet.65</title>
			<path d="M0 402.57 L106.31 402.57" class="st4"/>
		</g>
		<g id="shape66-197" transform="translate(717.862,657.634) rotate(180)">
			<title>Sheet.66</title>
			<path d="M0 402.57 L109.77 402.57" class="st4"/>
		</g>
		<g id="shape67-200" transform="translate(205.523,255.063) rotate(-90)">
			<title>Sheet.67</title>
			<path d="M0 402.57 L106.31 402.57" class="st4"/>
		</g>
		<g id="shape68-203" transform="translate(616.201,-244.621)">
			<title>Sheet.68</title>
			<path d="M0 402.57 L93.28 402.57" class="st4"/>
		</g>
		<g id="shape69-206" transform="translate(1112.05,157.95) rotate(90)">
			<title>Sheet.69</title>
			<path d="M0 402.57 L89.16 402.57" class="st4"/>
		</g>
		<g id="shape70-209" transform="translate(709.483,649.685) rotate(180)">
			<title>Sheet.70</title>
			<path d="M0 402.57 L93.28 402.57" class="st4"/>
		</g>
		<g id="shape71-212" transform="translate(213.631,247.114) rotate(-90)">
			<title>Sheet.71</title>
			<path d="M0 402.57 L89.16 402.57" class="st4"/>
		</g>
	</g>
</svg>
