<?xml version="1.0" encoding="UTF-8" standalone="no"?>
<!DOCTYPE svg PUBLIC "-//W3C//DTD SVG 1.1//EN" "http://www.w3.org/Graphics/SVG/1.1/DTD/svg11.dtd">
<!-- Generated by Microsoft Visio, SVG Export lwm2m_resource_instance.svg Page-1 -->
<svg xmlns="http://www.w3.org/2000/svg" xmlns:xlink="http://www.w3.org/1999/xlink" xmlns:ev="http://www.w3.org/2001/xml-events"
		width="9.86893in" height="3.81265in" viewBox="0 0 710.563 274.511" xml:space="preserve" color-interpolation-filters="sRGB"
		class="st16">
	<style type="text/css">
	<![CDATA[
		.st1 {visibility:visible}
		.st2 {fill:#5b9bd5;fill-opacity:0.22;filter:url(#filter_2);stroke:#5b9bd5;stroke-opacity:0.22}
		.st3 {fill:#000000;stroke:#c7c8c8;stroke-width:0.25}
		.st4 {fill:#feffff;font-family:Calibri;font-size:0.833336em}
		.st5 {fill:#5b9bd5;stroke:#c7c8c8;stroke-width:0.25}
		.st6 {fill:#bfbfbf;stroke:#c7c8c8;stroke-width:0.25}
		.st7 {fill:#c00000;font-size:1em;font-weight:bold}
		.st8 {fill:#c00000;font-family:Calibri;font-size:0.833336em;font-weight:bold}
		.st9 {fill:none;stroke:#c7c8c8;stroke-width:0.25}
		.st10 {fill:#5b9bd5;font-family:Calibri;font-size:0.833336em}
		.st11 {fill:none;filter:url(#filter_2);stroke:#5b9bd5;stroke-opacity:0.22}
		.st12 {stroke:#c7c8c8;stroke-width:2}
		.st13 {fill:none;stroke:none;stroke-width:0.25}
		.st14 {fill:#5b9bd5;font-family:Calibri;font-size:0.666664em}
		.st15 {font-size:1em}
		.st16 {fill:none;fill-rule:evenodd;font-size:12px;overflow:visible;stroke-linecap:square;stroke-miterlimit:3}
	]]>
	</style>

	<defs id="Filters">
		<filter id="filter_2">
			<feGaussianBlur stdDeviation="2"/>
		</filter>
	</defs>
	<g>
		<title>Page-1</title>
		<g id="shape63-1" transform="translate(3.0294,-224.655)">
			<title>Rectangle.63</title>
			<desc>lwm2m_instance_prototype_t</desc>
			<g id="shadow63-2" transform="matrix(1,0,0,1,0.345598,1.97279)" class="st1">
				<rect x="0" y="254.669" width="132.035" height="19.8425" class="st2"/>
			</g>
			<rect x="0" y="254.669" width="132.035" height="19.8425" class="st3"/>
			<text x="4.23" y="267.59" class="st4">lwm2m_instance_prototype_t</text>		</g>
		<g id="shape64-7" transform="translate(3.0294,-204.812)">
			<title>Rectangle.64</title>
			<desc>object_id</desc>
			<g id="shadow64-8" transform="matrix(1,0,0,1,0.345598,1.97279)" class="st1">
				<rect x="0" y="254.669" width="132.035" height="19.8425" class="st2"/>
			</g>
			<rect x="0" y="254.669" width="132.035" height="19.8425" class="st5"/>
			<text x="47.02" y="267.59" class="st4">object_id</text>		</g>
		<g id="shape65-13" transform="translate(3.0294,-184.97)">
			<title>Rectangle.65</title>
			<desc>instance_id</desc>
			<g id="shadow65-14" transform="matrix(1,0,0,1,0.345598,1.97279)" class="st1">
				<rect x="0" y="254.669" width="132.035" height="19.8425" class="st2"/>
			</g>
			<rect x="0" y="254.669" width="132.035" height="19.8425" class="st5"/>
			<text x="42.72" y="267.59" class="st4">instance_id</text>		</g>
		<g id="shape66-19" transform="translate(3.0294,-165.127)">
			<title>Rectangle.66</title>
			<desc>num_resources</desc>
			<g id="shadow66-20" transform="matrix(1,0,0,1,0.345598,1.97279)" class="st1">
				<rect x="0" y="254.669" width="132.035" height="19.8425" class="st2"/>
			</g>
			<rect x="0" y="254.669" width="132.035" height="19.8425" class="st5"/>
			<text x="34.53" y="267.59" class="st4">num_resources</text>		</g>
		<g id="shape67-25" transform="translate(3.0294,-145.285)">
			<title>Rectangle.67</title>
			<desc>operations_offset</desc>
			<g id="shadow67-26" transform="matrix(1,0,0,1,0.345598,1.97279)" class="st1">
				<rect x="0" y="254.669" width="132.035" height="19.8425" class="st2"/>
			</g>
			<rect x="0" y="254.669" width="132.035" height="19.8425" class="st5"/>
			<text x="29.79" y="267.59" class="st4">operations_offset</text>		</g>
		<g id="shape68-31" transform="translate(3.0294,-125.442)">
			<title>Rectangle.68</title>
			<desc>operations_ids_offset</desc>
			<g id="shadow68-32" transform="matrix(1,0,0,1,0.345598,1.97279)" class="st1">
				<rect x="0" y="254.669" width="132.035" height="19.8425" class="st2"/>
			</g>
			<rect x="0" y="254.669" width="132.035" height="19.8425" class="st5"/>
			<text x="21.57" y="267.59" class="st4">operations_ids_offset</text>		</g>
		<g id="shape69-37" transform="translate(3.0294,-105.6)">
			<title>Rectangle.69</title>
			<desc>callback</desc>
			<g id="shadow69-38" transform="matrix(1,0,0,1,0.345598,1.97279)" class="st1">
				<rect x="0" y="254.669" width="132.035" height="19.8425" class="st2"/>
			</g>
			<rect x="0" y="254.669" width="132.035" height="19.8425" class="st5"/>
			<text x="49.8" y="267.59" class="st4">callback</text>		</g>
		<g id="shape71-43" transform="translate(158.935,-224.655)">
			<title>Rectangle.71</title>
			<desc>ipso_digital_output_t</desc>
			<g id="shadow71-44" transform="matrix(1,0,0,1,0.345598,1.97279)" class="st1">
				<rect x="0" y="254.669" width="132.035" height="19.8425" class="st2"/>
			</g>
			<rect x="0" y="254.669" width="132.035" height="19.8425" class="st3"/>
			<text x="22.14" y="267.59" class="st4">ipso_digital_output_t</text>		</g>
		<g id="shape72-49" transform="translate(158.935,-105.6)">
			<title>Rectangle.72</title>
			<desc>lwm2m_instance_prototype_t</desc>
			<g id="shadow72-50" transform="matrix(1,0,0,1,0.345598,1.97279)" class="st1">
				<rect x="0" y="155.456" width="132.035" height="119.055" class="st2"/>
			</g>
			<rect x="0" y="155.456" width="132.035" height="119.055" class="st6"/>
			<text x="4.23" y="217.98" class="st4">lwm2m_instance_prototype_t</text>		</g>
		<g id="shape81-55" transform="translate(158.935,-85.7571)">
			<title>Rectangle.81</title>
			<desc>operations[3]</desc>
			<g id="shadow81-56" transform="matrix(1,0,0,1,0.345598,1.97279)" class="st1">
				<rect x="0" y="254.669" width="132.035" height="19.8425" class="st2"/>
			</g>
			<rect x="0" y="254.669" width="132.035" height="19.8425" class="st5"/>
			<text x="38.49" y="267.59" class="st4">operations[3]</text>		</g>
		<g id="shape82-61" transform="translate(158.935,-65.9146)">
			<title>Rectangle.82</title>
			<desc>operations_ids[3]</desc>
			<g id="shadow82-62" transform="matrix(1,0,0,1,0.345598,1.97279)" class="st1">
				<rect x="0" y="254.669" width="132.035" height="19.8425" class="st2"/>
			</g>
			<rect x="0" y="254.669" width="132.035" height="19.8425" class="st5"/>
			<text x="30.27" y="267.59" class="st4">operations_ids[3]</text>		</g>
		<g id="shape83-67" transform="translate(158.935,-46.0721)">
			<title>Rectangle.83</title>
			<desc>digital_output_state</desc>
			<g id="shadow83-68" transform="matrix(1,0,0,1,0.345598,1.97279)" class="st1">
				<rect x="0" y="254.669" width="132.035" height="19.8425" class="st2"/>
			</g>
			<rect x="0" y="254.669" width="132.035" height="19.8425" class="st5"/>
			<text x="24.49" y="267.59" class="st4">digital_output_state</text>		</g>
		<g id="shape84-73" transform="translate(158.935,-26.2295)">
			<title>Rectangle.84</title>
			<desc>digital_output_polarity</desc>
			<g id="shadow84-74" transform="matrix(1,0,0,1,0.345598,1.97279)" class="st1">
				<rect x="0" y="254.669" width="132.035" height="19.8425" class="st2"/>
			</g>
			<rect x="0" y="254.669" width="132.035" height="19.8425" class="st5"/>
			<text x="19.04" y="267.59" class="st4">digital_output_polarity</text>		</g>
		<g id="shape85-79" transform="translate(158.935,-6.38701)">
			<title>Rectangle.85</title>
			<desc>application_type</desc>
			<g id="shadow85-80" transform="matrix(1,0,0,1,0.345598,1.97279)" class="st1">
				<rect x="0" y="254.669" width="132.035" height="19.8425" class="st2"/>
			</g>
			<rect x="0" y="254.669" width="132.035" height="19.8425" class="st5"/>
			<text x="31.94" y="267.59" class="st4">application_type</text>		</g>
		<g id="shape86-85" transform="translate(317.077,-204.812)">
			<title>Rectangle.86</title>
			<desc>3201</desc>
			<g id="shadow86-86" transform="matrix(1,0,0,1,0.345598,1.97279)" class="st1">
				<rect x="0" y="254.669" width="132.035" height="19.8425" class="st2"/>
			</g>
			<rect x="0" y="254.669" width="132.035" height="19.8425" class="st5"/>
			<text x="55.88" y="267.59" class="st4">3201</text>		</g>
		<g id="shape87-91" transform="translate(317.077,-184.97)">
			<title>Rectangle.87</title>
			<desc>0</desc>
			<g id="shadow87-92" transform="matrix(1,0,0,1,0.345598,1.97279)" class="st1">
				<rect x="0" y="254.669" width="132.035" height="19.8425" class="st2"/>
			</g>
			<rect x="0" y="254.669" width="132.035" height="19.8425" class="st5"/>
			<text x="63.48" y="267.59" class="st4">0</text>		</g>
		<g id="shape88-97" transform="translate(317.077,-165.127)">
			<title>Rectangle.88</title>
			<desc>INTERNAL</desc>
			<g id="shadow88-98" transform="matrix(1,0,0,1,0.345598,1.97279)" class="st1">
				<rect x="0" y="254.669" width="132.035" height="19.8425" class="st2"/>
			</g>
			<rect x="0" y="254.669" width="132.035" height="19.8425" class="st6"/>
			<text x="45.71" y="267.59" class="st4">INTERNAL</text>		</g>
		<g id="shape89-103" transform="translate(317.077,-145.285)">
			<title>Rectangle.89</title>
			<desc>INTERNAL</desc>
			<g id="shadow89-104" transform="matrix(1,0,0,1,0.345598,1.97279)" class="st1">
				<rect x="0" y="254.669" width="132.035" height="19.8425" class="st2"/>
			</g>
			<rect x="0" y="254.669" width="132.035" height="19.8425" class="st6"/>
			<text x="45.71" y="267.59" class="st4">INTERNAL</text>		</g>
		<g id="shape90-109" transform="translate(317.077,-125.442)">
			<title>Rectangle.90</title>
			<desc>INTERNAL</desc>
			<g id="shadow90-110" transform="matrix(1,0,0,1,0.345598,1.97279)" class="st1">
				<rect x="0" y="254.669" width="132.035" height="19.8425" class="st2"/>
			</g>
			<rect x="0" y="254.669" width="132.035" height="19.8425" class="st6"/>
			<text x="45.71" y="267.59" class="st4">INTERNAL</text>		</g>
		<g id="shape91-115" transform="translate(317.077,-105.6)">
			<title>Rectangle.91</title>
			<desc>Instance_0_handle_function()</desc>
			<g id="shadow91-116" transform="matrix(1,0,0,1,0.345598,1.97279)" class="st1">
				<rect x="0" y="254.669" width="132.035" height="19.8425" class="st2"/>
			</g>
			<rect x="0" y="254.669" width="132.035" height="19.8425" class="st5"/>
			<text x="4.95" y="267.59" class="st4">Instance_0_handle_function()</text>		</g>
		<g id="shape92-121" transform="translate(317.077,-85.7571)">
			<title>Rectangle.92</title>
			<desc>[RW, RW, RW]</desc>
			<g id="shadow92-122" transform="matrix(1,0,0,1,0.345598,1.97279)" class="st1">
				<rect x="0" y="254.669" width="132.035" height="19.8425" class="st2"/>
			</g>
			<rect x="0" y="254.669" width="132.035" height="19.8425" class="st5"/>
			<text x="36.71" y="267.59" class="st4">[RW, RW, RW]</text>		</g>
		<g id="shape93-127" transform="translate(317.077,-65.9146)">
			<title>Rectangle.93</title>
			<desc>[5550, 5551, 5750]</desc>
			<g id="shadow93-128" transform="matrix(1,0,0,1,0.345598,1.97279)" class="st1">
				<rect x="0" y="254.669" width="132.035" height="19.8425" class="st2"/>
			</g>
			<rect x="0" y="254.669" width="132.035" height="19.8425" class="st5"/>
			<text x="27.79" y="267.59" class="st4">[5550, 5551, 5750]</text>		</g>
		<g id="shape94-133" transform="translate(317.077,-46.0721)">
			<title>Rectangle.94</title>
			<desc>False</desc>
			<g id="shadow94-134" transform="matrix(1,0,0,1,0.345598,1.97279)" class="st1">
				<rect x="0" y="254.669" width="132.035" height="19.8425" class="st2"/>
			</g>
			<rect x="0" y="254.669" width="132.035" height="19.8425" class="st5"/>
			<text x="55.73" y="267.59" class="st4">False</text>		</g>
		<g id="shape95-139" transform="translate(317.077,-26.2295)">
			<title>Rectangle.95</title>
			<desc>False</desc>
			<g id="shadow95-140" transform="matrix(1,0,0,1,0.345598,1.97279)" class="st1">
				<rect x="0" y="254.669" width="132.035" height="19.8425" class="st2"/>
			</g>
			<rect x="0" y="254.669" width="132.035" height="19.8425" class="st5"/>
			<text x="55.73" y="267.59" class="st4">False</text>		</g>
		<g id="shape96-145" transform="translate(317.077,-6.38701)">
			<title>Rectangle.96</title>
			<desc>«Air Pressure»</desc>
			<g id="shadow96-146" transform="matrix(1,0,0,1,0.345598,1.97279)" class="st1">
				<rect x="0" y="254.669" width="132.035" height="19.8425" class="st2"/>
			</g>
			<rect x="0" y="254.669" width="132.035" height="19.8425" class="st5"/>
			<text x="36.4" y="267.59" class="st4">«Air Pressure»</text>		</g>
		<g id="shape97-151" transform="translate(317.077,-224.655)">
			<title>Rectangle.97</title>
			<desc>m_instance_digital_output0</desc>
			<g id="shadow97-152" transform="matrix(1,0,0,1,0.345598,1.97279)" class="st1">
				<rect x="0" y="254.669" width="132.035" height="19.8425" class="st2"/>
			</g>
			<rect x="0" y="254.669" width="132.035" height="19.8425" class="st3"/>
			<text x="8.63" y="267.59" class="st4">m_instance_digital_output0</text>		</g>
		<g id="shape99-157" transform="translate(449.111,-46.0721)">
			<title>Rectangle.99</title>
			<desc>5550</desc>
			<g id="shadow99-158" transform="matrix(1,0,0,1,0.345598,1.97279)" class="st1">
				<rect x="0" y="254.669" width="52.2172" height="19.8425" class="st2"/>
			</g>
			<rect x="0" y="254.669" width="52.2172" height="19.8425" class="st6"/>
			<text x="15.97" y="267.59" class="st4">5550</text>		</g>
		<g id="shape100-163" transform="translate(449.111,-26.2295)">
			<title>Rectangle.100</title>
			<desc>5551</desc>
			<g id="shadow100-164" transform="matrix(1,0,0,1,0.345598,1.97279)" class="st1">
				<rect x="0" y="254.669" width="52.2172" height="19.8425" class="st2"/>
			</g>
			<rect x="0" y="254.669" width="52.2172" height="19.8425" class="st6"/>
			<text x="15.97" y="267.59" class="st4">5551</text>		</g>
		<g id="shape101-169" transform="translate(449.111,-6.38701)">
			<title>Rectangle.101</title>
			<desc>5750</desc>
			<g id="shadow101-170" transform="matrix(1,0,0,1,0.345598,1.97279)" class="st1">
				<rect x="0" y="254.669" width="52.2172" height="19.8425" class="st2"/>
			</g>
			<rect x="0" y="254.669" width="52.2172" height="19.8425" class="st6"/>
			<text x="15.97" y="267.59" class="st4">5750</text>		</g>
		<g id="shape102-175" transform="translate(522.59,-204.812)">
			<title>Rectangle.102</title>
			<desc>3201</desc>
			<g id="shadow102-176" transform="matrix(1,0,0,1,0.345598,1.97279)" class="st1">
				<rect x="0" y="254.669" width="132.035" height="19.8425" class="st2"/>
			</g>
			<rect x="0" y="254.669" width="132.035" height="19.8425" class="st5"/>
			<text x="55.88" y="267.59" class="st4">3201</text>		</g>
		<g id="shape103-181" transform="translate(522.59,-184.97)">
			<title>Rectangle.103</title>
			<desc>1</desc>
			<g id="shadow103-182" transform="matrix(1,0,0,1,0.345598,1.97279)" class="st1">
				<rect x="0" y="254.669" width="132.035" height="19.8425" class="st2"/>
			</g>
			<rect x="0" y="254.669" width="132.035" height="19.8425" class="st5"/>
			<text x="63.48" y="267.59" class="st4">1</text>		</g>
		<g id="shape104-187" transform="translate(522.59,-165.127)">
			<title>Rectangle.104</title>
			<desc>INTERNAL</desc>
			<g id="shadow104-188" transform="matrix(1,0,0,1,0.345598,1.97279)" class="st1">
				<rect x="0" y="254.669" width="132.035" height="19.8425" class="st2"/>
			</g>
			<rect x="0" y="254.669" width="132.035" height="19.8425" class="st6"/>
			<text x="45.71" y="267.59" class="st4">INTERNAL</text>		</g>
		<g id="shape105-193" transform="translate(522.59,-145.285)">
			<title>Rectangle.105</title>
			<desc>INTERNAL</desc>
			<g id="shadow105-194" transform="matrix(1,0,0,1,0.345598,1.97279)" class="st1">
				<rect x="0" y="254.669" width="132.035" height="19.8425" class="st2"/>
			</g>
			<rect x="0" y="254.669" width="132.035" height="19.8425" class="st6"/>
			<text x="45.71" y="267.59" class="st4">INTERNAL</text>		</g>
		<g id="shape106-199" transform="translate(522.59,-125.442)">
			<title>Rectangle.106</title>
			<desc>INTERNAL</desc>
			<g id="shadow106-200" transform="matrix(1,0,0,1,0.345598,1.97279)" class="st1">
				<rect x="0" y="254.669" width="132.035" height="19.8425" class="st2"/>
			</g>
			<rect x="0" y="254.669" width="132.035" height="19.8425" class="st6"/>
			<text x="45.71" y="267.59" class="st4">INTERNAL</text>		</g>
		<g id="shape107-205" transform="translate(522.59,-105.6)">
			<title>Rectangle.107</title>
			<desc>Instance_1_handle_function()</desc>
			<g id="shadow107-206" transform="matrix(1,0,0,1,0.345598,1.97279)" class="st1">
				<rect x="0" y="254.669" width="132.035" height="19.8425" class="st2"/>
			</g>
			<rect x="0" y="254.669" width="132.035" height="19.8425" class="st5"/>
			<text x="4.95" y="267.59" class="st4">Instance_1_handle_function()</text>		</g>
		<g id="shape108-211" transform="translate(522.59,-85.7571)">
			<title>Rectangle.108</title>
			<desc>[RW, NONE, RW]</desc>
			<g id="shadow108-212" transform="matrix(1,0,0,1,0.345598,1.97279)" class="st1">
				<rect x="0" y="254.669" width="132.035" height="19.8425" class="st2"/>
			</g>
			<rect x="0" y="254.669" width="132.035" height="19.8425" class="st5"/>
			<text x="31.46" y="267.59" class="st4">[RW, <tspan class="st7">NONE</tspan>, RW]</text>		</g>
		<g id="shape109-218" transform="translate(522.59,-65.9146)">
			<title>Rectangle.109</title>
			<desc>[5550, 5551, 5750]</desc>
			<g id="shadow109-219" transform="matrix(1,0,0,1,0.345598,1.97279)" class="st1">
				<rect x="0" y="254.669" width="132.035" height="19.8425" class="st2"/>
			</g>
			<rect x="0" y="254.669" width="132.035" height="19.8425" class="st5"/>
			<text x="27.79" y="267.59" class="st4">[5550, 5551, 5750]</text>		</g>
		<g id="shape110-224" transform="translate(522.59,-46.0721)">
			<title>Rectangle.110</title>
			<desc>False</desc>
			<g id="shadow110-225" transform="matrix(1,0,0,1,0.345598,1.97279)" class="st1">
				<rect x="0" y="254.669" width="132.035" height="19.8425" class="st2"/>
			</g>
			<rect x="0" y="254.669" width="132.035" height="19.8425" class="st5"/>
			<text x="55.73" y="267.59" class="st4">False</text>		</g>
		<g id="shape111-230" transform="translate(522.59,-26.2295)">
			<title>Rectangle.111</title>
			<desc>False</desc>
			<g id="shadow111-231" transform="matrix(1,0,0,1,0.345598,1.97279)" class="st1">
				<rect x="0" y="254.669" width="132.035" height="19.8425" class="st2"/>
			</g>
			<rect x="0" y="254.669" width="132.035" height="19.8425" class="st5"/>
			<text x="55.73" y="267.59" class="st4">False</text>		</g>
		<g id="shape112-236" transform="translate(522.59,-6.38701)">
			<title>Rectangle.112</title>
			<desc>«Security»</desc>
			<g id="shadow112-237" transform="matrix(1,0,0,1,0.345598,1.97279)" class="st1">
				<rect x="0" y="254.669" width="132.035" height="19.8425" class="st2"/>
			</g>
			<rect x="0" y="254.669" width="132.035" height="19.8425" class="st5"/>
			<text x="44.54" y="267.59" class="st4">«Security»</text>		</g>
		<g id="shape113-242" transform="translate(522.59,-224.655)">
			<title>Rectangle.113</title>
			<desc>m_instance_digital_output1</desc>
			<g id="shadow113-243" transform="matrix(1,0,0,1,0.345598,1.97279)" class="st1">
				<rect x="0" y="254.669" width="132.035" height="19.8425" class="st2"/>
			</g>
			<rect x="0" y="254.669" width="132.035" height="19.8425" class="st3"/>
			<text x="8.63" y="267.59" class="st4">m_instance_digital_output1</text>		</g>
		<g id="shape114-248" transform="translate(654.625,-46.0721)">
			<title>Rectangle.114</title>
			<desc>5550</desc>
			<g id="shadow114-249" transform="matrix(1,0,0,1,0.345598,1.97279)" class="st1">
				<rect x="0" y="254.669" width="52.2172" height="19.8425" class="st2"/>
			</g>
			<rect x="0" y="254.669" width="52.2172" height="19.8425" class="st6"/>
			<text x="15.97" y="267.59" class="st4">5550</text>		</g>
		<g id="shape115-254" transform="translate(654.625,-26.2295)">
			<title>Rectangle.115</title>
			<desc>DISABLED</desc>
			<g id="shadow115-255" transform="matrix(1,0,0,1,0.345598,1.97279)" class="st1">
				<rect x="0" y="254.669" width="52.2172" height="19.8425" class="st2"/>
			</g>
			<rect x="0" y="254.669" width="52.2172" height="19.8425" class="st6"/>
			<text x="5.72" y="267.59" class="st8">DISABLED</text>		</g>
		<g id="shape116-260" transform="translate(654.625,-6.38701)">
			<title>Rectangle.116</title>
			<desc>5750</desc>
			<g id="shadow116-261" transform="matrix(1,0,0,1,0.345598,1.97279)" class="st1">
				<rect x="0" y="254.669" width="52.2172" height="19.8425" class="st2"/>
			</g>
			<rect x="0" y="254.669" width="52.2172" height="19.8425" class="st6"/>
			<text x="15.97" y="267.59" class="st4">5750</text>		</g>
		<g id="shape123-266" transform="translate(0.793144,-260.088)">
			<title>12pt. text</title>
			<desc>Instance prototype type</desc>
			<rect x="0" y="260.338" width="106.299" height="14.1732" class="st9"/>
			<text x="4.32" y="270.42" class="st10">Instance prototype type</text>		</g>
		<g id="shape124-269" transform="translate(158.935,-260.088)">
			<title>12pt. text.124</title>
			<desc>IPSO digital output instance type</desc>
			<rect x="0" y="260.338" width="141.732" height="14.1732" class="st9"/>
			<text x="4.45" y="270.42" class="st10">IPSO digital output instance type </text>		</g>
		<g id="shape125-272" transform="translate(317.077,-260.088)">
			<title>12pt. text.125</title>
			<desc>Instance 0</desc>
			<rect x="0" y="260.338" width="49.6063" height="14.1732" class="st9"/>
			<text x="4" y="270.42" class="st10">Instance 0</text>		</g>
		<g id="shape126-275" transform="translate(522.59,-260.088)">
			<title>12pt. text.126</title>
			<desc>Instance 1</desc>
			<rect x="0" y="260.338" width="49.6063" height="14.1732" class="st9"/>
			<text x="4" y="270.42" class="st10">Instance 1</text>		</g>
		<g id="shape130-278" transform="translate(142.748,-6.38701)">
			<title>Left Brace</title>
			<g id="shadow130-279" transform="matrix(1,0,0,1,0.345598,1.97279)" class="st1">
				<path d="M15.02 274.51 A20.1136 9.96194 0 0 1 7.51 268.56 L7.51 244.75 L0 244.75 L7.51 244.75 L7.51 220.94 A20.1136
							 9.96194 0 0 1 15.02 214.98" class="st11"/>
			</g>
			<path d="M15.02 274.51 A20.1136 9.96194 0 0 1 7.51 268.56 L7.51 244.75 L0 244.75 L7.51 244.75 L7.51 220.94 A20.1136 9.96194
						 0 0 1 15.02 214.98" class="st12"/>
		</g>
		<g id="shape134-286" transform="translate(77.8044,-25.5209)">
			<title>Text block 8pt</title>
			<desc>IPSO Digital Output Resources</desc>
			<rect x="0" y="253.251" width="63.7795" height="21.2598" class="st13"/>
			<text x="2" y="261.48" class="st14">IPSO Digital <tspan x="2" dy="1.2em" class="st15">Output Resources</tspan></text>		</g>
	</g>
</svg>
