<?xml version="1.0" encoding="UTF-8" standalone="no"?>
<!DOCTYPE svg PUBLIC "-//W3C//DTD SVG 1.1//EN" "http://www.w3.org/Graphics/SVG/1.1/DTD/svg11.dtd">
<!-- Generated by Microsoft Visio, SVG Export lwm2m_resource_object.svg Page-1 -->
<svg xmlns="http://www.w3.org/2000/svg" xmlns:xlink="http://www.w3.org/1999/xlink" xmlns:ev="http://www.w3.org/2001/xml-events"
		width="4.33999in" height="1.30029in" viewBox="0 0 312.48 93.621" xml:space="preserve" color-interpolation-filters="sRGB"
		class="st8">
	<style type="text/css">
	<![CDATA[
		.st1 {visibility:visible}
		.st2 {fill:#5b9bd5;fill-opacity:0.22;filter:url(#filter_2);stroke:#5b9bd5;stroke-opacity:0.22}
		.st3 {fill:#000000;stroke:#c7c8c8;stroke-width:0.25}
		.st4 {fill:#feffff;font-family:Calibri;font-size:0.833336em}
		.st5 {fill:#5b9bd5;stroke:#c7c8c8;stroke-width:0.25}
		.st6 {fill:none;stroke:#c7c8c8;stroke-width:0.25}
		.st7 {fill:#5b9bd5;font-family:Calibri;font-size:0.833336em}
		.st8 {fill:none;fill-rule:evenodd;font-size:12px;overflow:visible;stroke-linecap:square;stroke-miterlimit:3}
	]]>
	</style>

	<defs id="Filters">
		<filter id="filter_2">
			<feGaussianBlur stdDeviation="2"/>
		</filter>
	</defs>
	<g>
		<title>Page-1</title>
		<g id="shape57-1" transform="translate(3.0294,-45.0328)">
			<title>Rectangle.57</title>
			<desc>lwm2m_object_prototype_t</desc>
			<g id="shadow57-2" transform="matrix(1,0,0,1,0.345598,1.97279)" class="st1">
				<rect x="0" y="73.7785" width="132.035" height="19.8425" class="st2"/>
			</g>
			<rect x="0" y="73.7785" width="132.035" height="19.8425" class="st3"/>
			<text x="8.52" y="86.7" class="st4">lwm2m_object_prototype_t </text>		</g>
		<g id="shape59-7" transform="translate(3.0294,-25.1903)">
			<title>Rectangle.59</title>
			<desc>object_id</desc>
			<g id="shadow59-8" transform="matrix(1,0,0,1,0.345598,1.97279)" class="st1">
				<rect x="0" y="73.7785" width="132.035" height="19.8425" class="st2"/>
			</g>
			<rect x="0" y="73.7785" width="132.035" height="19.8425" class="st5"/>
			<text x="47.02" y="86.7" class="st4">object_id</text>		</g>
		<g id="shape60-13" transform="translate(3.0294,-5.34778)">
			<title>Rectangle.60</title>
			<desc>callback</desc>
			<g id="shadow60-14" transform="matrix(1,0,0,1,0.345598,1.97279)" class="st1">
				<rect x="0" y="73.7785" width="132.035" height="19.8425" class="st2"/>
			</g>
			<rect x="0" y="73.7785" width="132.035" height="19.8425" class="st5"/>
			<text x="49.8" y="86.7" class="st4">callback</text>		</g>
		<g id="shape78-19" transform="translate(163.411,-45.7788)">
			<title>Rectangle.78</title>
			<desc>m_object_digital_output</desc>
			<g id="shadow78-20" transform="matrix(1,0,0,1,0.345598,1.97279)" class="st1">
				<rect x="0" y="73.7785" width="132.035" height="19.8425" class="st2"/>
			</g>
			<rect x="0" y="73.7785" width="132.035" height="19.8425" class="st3"/>
			<text x="15.46" y="86.7" class="st4">m_object_digital_output</text>		</g>
		<g id="shape79-25" transform="translate(163.411,-25.9363)">
			<title>Rectangle.79</title>
			<desc>3201</desc>
			<g id="shadow79-26" transform="matrix(1,0,0,1,0.345598,1.97279)" class="st1">
				<rect x="0" y="73.7785" width="132.035" height="19.8425" class="st2"/>
			</g>
			<rect x="0" y="73.7785" width="132.035" height="19.8425" class="st5"/>
			<text x="55.88" y="86.7" class="st4">3201</text>		</g>
		<g id="shape80-31" transform="translate(163.411,-6.09374)">
			<title>Rectangle.80</title>
			<desc>object_handle_function()</desc>
			<g id="shadow80-32" transform="matrix(1,0,0,1,0.345598,1.97279)" class="st1">
				<rect x="0" y="73.7785" width="132.035" height="19.8425" class="st2"/>
			</g>
			<rect x="0" y="73.7785" width="132.035" height="19.8425" class="st5"/>
			<text x="14.38" y="86.7" class="st4">object_handle_function()</text>		</g>
		<g id="shape127-37" transform="translate(3.0294,-79.1978)">
			<title>12pt. text.127</title>
			<desc>Object prototype type</desc>
			<rect x="0" y="79.4478" width="99.2126" height="14.1732" class="st6"/>
			<text x="4.51" y="89.53" class="st7">Object prototype type</text>		</g>
		<g id="shape128-40" transform="translate(163.411,-79.1978)">
			<title>12pt. text.128</title>
			<desc>IPSO digital output object instance</desc>
			<rect x="0" y="79.4478" width="148.819" height="14.1732" class="st6"/>
			<text x="4.31" y="89.53" class="st7">IPSO digital output object instance</text>		</g>
	</g>
</svg>
