<svg xmlns="http://www.w3.org/2000/svg" width="639.82" height="101.45" viewBox="0 0 639.82123 101.455" xmlns:xlink="http://www.w3.org/1999/xlink"><defs><path id="1" d="m0 0l4.08-1.68.96-.42.12.12v.54l-.12.12-4.86 1.98" fill-rule="evenodd"/><path id="2" d="m0 0v-.42l.06-.06.06-.18.06-.06.18-.06h5.16l.12.12v.54l-.06.12h-4.92l-.18.66h-.06l-.12-.06-.18-.18-.06-.18v-.06" fill-rule="evenodd"/><path id="3" d="m0 0l.18-.66 4.86 1.86-.96.42" fill-rule="evenodd"/><path id="4" d="m0 0v-.18l.06-.06.06-.18v-.06l.06-.12.06-.18v-.18l.06-.12v-1.74h.06l.12.18.06.12.12.12.06.18.06.12.06.18v.72c.027.259-.084.713-.18.96l-.06.12-.06.18h-.06l-.06.06h-.3l-.06-.06h-.06" fill-rule="evenodd"/><path id="5" d="m0 0v-.06l.12-.24v-.18.6l-.06-.06h-.06" fill-rule="evenodd"/><path id="6" d="m0 0v-1.02l.06.18v.12l.06.12.06.06.06.12h.06l.36.18h.24v-1.62l.06-.54h.12c.431-.037.982.086 1.32.36v1.14-.06c-.043-.647-.389-.78-.96-.9h-.12v1.98l-.06.12h-.06l-.12.06h-.36l-.12-.06h-.12l-.36-.18" fill-rule="evenodd"/><path id="7" d="m0 0v-.06h.06v-.48h-.06v-.06h-4.08v.06h-.06v.48h.06v.06h4.08" fill-rule="evenodd"/><path id="8" d="m0 0l.06-1.26v.36l.06.12.06.12.06.06.06.12.12.06h.06l.12.06h.12l.12.06h.12l.12-.06h.12l.06-.06.24-.12v-.06l.12-.12.06-.12v-.12l.06-.12v-.66l.06 1.62-.18.18-.24.12h-.06l-.12.06h-.72l-.36-.18" fill-rule="evenodd"/><path id="9" d="m0 0v-.12l.06-.12.06-.06 2.4-.78.06-.06.42-.36.06.06.06.06v.54l-.06.06h-.06l-2.76 1.02h-.18v-.06l-.06-.06" fill-rule="evenodd"/><path id="A" d="m0 0h.12c.822-.019.868-.007 1.62.24l.12.06-.06 1.08v-.24l-.06-.12v-.06l-.12-.12-.12-.06-.06-.06-.12-.06h-.12l-.12-.06h-.3l-.12-.06h-.3l-.06.06-.12.24v.12l-.06.12v.12l-.06.12v.12" fill-rule="evenodd"/><path id="B" d="m0 0v-.36l.06-.18.06-.12v-.12l.06-.12.18-.18.06-.12v1.32l.06.12v.12l.06.12v.12l.06.12v.06h-.42l-.06-.06v-.06l-.06-.06v-.12l-.06-.12v-.24" fill-rule="evenodd"/><path id="C" d="m0 0v-.18l.06-.06h.18l2.76 1.02-.42.36h-.06l-2.4-.84h-.06v-.06l-.06-.06" fill-rule="evenodd"/><path id="D" d="m0 0v-.3l.06-.12v-.12l.12-.24.06-.06.06-.12v1.92l-.06-.12c-.343-.297-.06-.287-.24-.54v-.12" fill-rule="evenodd"/><path id="E" d="m0 0v-.6.18l.06.06v.06l.12.12h.06l.06.06h.12l.06-.06h.12l.06-.06v-.06l.06-.06v-.6 1.02h-.06l-.06.06h-.18l-.06.06-.06-.06h-.18l-.06-.06h-.06" fill-rule="evenodd"/><path id="F" d="m0 0v-.48l.06-.06h2.04v.9l-.06.06v.06l-.18.18v-.96h-.72v.96l-.12-.12v-.06l-.06-.06v.06l-.06-.78h-.66v.3l-.06.54-.06-.06v-.06l-.06-.06v-.06l-.06-.06v-.12" fill-rule="evenodd"/><path id="G" d="m0 0v-.06l.06-.06c.38 0 .76 0 1.14 0h.06l.06.06h.06l.06.06v.06l.12.12v.12l.06.12-.06.06v.12l-.12.12v.06l-.06.06v-.48l-.06-.06v-.06h-.06l-.06-.06h-.12l-.06-.06h-.96l-.06-.06" fill-rule="evenodd"/><path id="H" d="m0 0v-.06l.06-.06v-.06.24h-.06v-.06" fill-rule="evenodd"/><path id="I" d="m0 0v-.12h.36v-.18l.06-.06h.18v.24h1.02l.06.06h.12v.06h.06v.06l.06.06v.42h-.06v.06h-.12v-.3l-.12-.12h-1.02v.36l-.06.06h-.12v-.06h-.06v-.36h-.3l-.06-.06v-.06" fill-rule="evenodd"/><path id="J" d="m0 0v-.24l.06-.06v-.06l.06-.06v-.06l.06-.06h.06v-.06h.06l.06-.06h.06l.06-.06h.18l.06-.06h.18l.06.06h.18l.06.06h.06l.06.06h.06v.54-.06l-.06-.06v-.06l-.06-.06v-.06h-.06l-.06-.06h-.06l-.06-.06h-.48l-.06.06h-.06l-.18.18v.24l-.06.54v-.06l-.12-.12v-.12l-.06-.06v-.12" fill-rule="evenodd"/><path id="K" d="m0 0v-.12l.06-.06v-.12h.06l.06-.06v-.06l.06.36v.18l.06.06h.06l.06.06h1.08l.06.06v.24h-1.14l-.06-.06h-.12l-.18-.18v-.06h-.06v-.18" fill-rule="evenodd"/><path id="L" d="m0 0v-.12h2.1v1.02h-.06v.06h-.12l-.06-.06v-.78h-1.86v-.06" fill-rule="evenodd"/><path id="M" d="m0 0l.06-.06v-.06h.24l.06.06v.18h-.06v.06h-.18l-.06-.06h-.06" fill-rule="evenodd"/><path id="N" d="m0 0v-.66l.06.06c0 .16 0 .32 0 .48l-.06.06" fill-rule="evenodd"/><path id="O" d="m0 0v-.12l.06-.12v-.06l.06-.06v-.06h.06v.48l.06.06v.06l.06.06v.06h.36l.18-.18v-.54l.12-.12h.06l.06-.06h.06l.12.06h.06l.06.06v.06l.06-.06v.66l.06.06v.12l.06.06h.06l.06.06.12-.06c.195-.171.098-.12.12-.42v-.6l.18.18v.18l.06.06v.42l-.06.06v.06l-.06.06v.06l-.12.12v.06h-.06l-.06.06h-.24l-.06-.06h-.12v-.06l-.06-.06v-.06l-.06-.06v-.6l-.06-.06v-.06h-.06l-.06-.06-.06.06h-.06v.66l-.12.12h-.06l-.06.06h-.06l-.06.06h-.18l-.06-.06h-.06l-.06-.06v.24h-.18l-.06-.06v-.6" fill-rule="evenodd"/><path id="P" d="m0 0v-.18l.12-.12v-.06l.06-.06.06.36v.18l.06.06h.06l.06.06h1.08l.06.06v.24h-1.14l-.06-.06h-.12l-.18-.18v-.06h-.06v-.18" fill-rule="evenodd"/><path id="Q" d="m0 0v-.06h.06v-.06h1.5v.24l-.06.06h-1.44v-.06l-.06-.06" fill-rule="evenodd"/><path id="R" d="m0 0l.06-.06h.06l.06-.06h.36v.06h.06l.06.06v.42-.12l-.06-.06v-.06h-.06l-.06-.06h-.24l-.06.06h-.06l-.06.06v.06l-.06.06v.06" fill-rule="evenodd"/><path id="S" d="m0 0h.06v.36" fill-rule="evenodd"/><path id="T" d="m0 0v-1.38.06c-.051.299.148.542.36.72v.06l.18.06.12.06.18.06h.18l.18.06v-2.16l.06-.72h.18c.567-.023 1.331.042 1.74.48v1.5-.06l-.06-.18v-.18l-.06-.18-.06-.12-.36-.36-.12-.06-.18-.06h-.06l-.18-.06h-.36v2.64l-.06.12-.06.06-.18.06h-.18l-.18-.06h-.36l-.12-.06-.18-.06-.12-.06-.18-.06" fill-rule="evenodd"/><path id="U" d="m0 0v-.06l.06-.06c.711-.056.581.108.78.66l.06.18v.18c-.004.579.066.795-.3 1.32l-.24.24v-1.32c-.047-.279-.048-.614-.24-.84l-.06-.18" fill-rule="evenodd"/><path id="V" d="m0 0l.06-.6v.18l.12.24v.12l-.06.06" fill-rule="evenodd"/><path id="W" d="m0 0v-.12c.012-.493.323-.579.6-.84l.18-.12v.66l-.06.12v.06l-.06.18-.06.6h-.48v-.06l-.06-.06-.06-.18v-.12" fill-rule="evenodd"/><path id="X" d="m0 0v-.24l.06-.06h4.02l.06.06v.6l-.06.06h-2.64l-.12.06-.24.24-.18.12-.18.18v-.66h-.66l-.06-.06v-.12" fill-rule="evenodd"/><path id="Y" d="m0 0h2.16" stroke-linejoin="round" stroke="#000" stroke-width=".42" fill="none" stroke-linecap="round" stroke-miterlimit="10"/><path id="Z" d="m-17.58 0h17.58v11.34h-17.58v-11.34z" stroke-linejoin="round" stroke="#000" stroke-width=".24" fill="none" stroke-linecap="round" stroke-miterlimit="10"/><path id="a" d="m0 0h2.1" stroke-linejoin="round" stroke="#000" stroke-width=".42" fill="none" stroke-linecap="round" stroke-miterlimit="10"/><path id="b" d="m0 0v-2.64l-.24-.3" stroke-linejoin="round" stroke="#000" stroke-width=".24" fill="none" stroke-linecap="round" stroke-miterlimit="10"/><path id="c" d="m0 0h1.14" stroke-linejoin="round" stroke-width=".72" stroke="#000" fill="none" stroke-linecap="round" stroke-miterlimit="10"/><path id="d" d="m0 0l-.24.3" stroke-linejoin="round" stroke="#000" stroke-width=".24" fill="none" stroke-linecap="round" stroke-miterlimit="10"/><path id="e" d="m0 0h.48" stroke-linejoin="round" stroke="#000" stroke-width=".24" fill="none" stroke-linecap="round" stroke-miterlimit="10"/><path id="f" d="m0 0h-.36l-.18-.18" stroke-linejoin="round" stroke="#000" stroke-width=".24" fill="none" stroke-linecap="round" stroke-miterlimit="10"/><path id="g" d="M 0,0 4.26,8.46 8.52,0" stroke-linejoin="round" stroke="#000" stroke-width=".42" fill="none" stroke-linecap="round" stroke-miterlimit="10"/><path id="h" d="m0 0l.18-.18h.06" stroke-linejoin="round" stroke="#000" stroke-width=".24" fill="none" stroke-linecap="round" stroke-miterlimit="10"/><path id="i" d="m0 0l-.12.18" stroke-linejoin="round" stroke="#000" stroke-width=".24" fill="none" stroke-linecap="round" stroke-miterlimit="10"/><path id="j" d="m0 0l-.18-.12" stroke-linejoin="round" stroke="#000" stroke-width=".24" fill="none" stroke-linecap="round" stroke-miterlimit="10"/><path id="k" d="m0 0l-.18-.18" stroke-linejoin="round" stroke="#000" stroke-width=".24" fill="none" stroke-linecap="round" stroke-miterlimit="10"/><path id="l" d="m0 0h-.12" stroke-linejoin="round" stroke="#000" stroke-width=".24" fill="none" stroke-linecap="round" stroke-miterlimit="10"/><path id="m" d="m0 0h.54" stroke-linejoin="round" stroke="#000" stroke-width=".24" fill="none" stroke-linecap="round" stroke-miterlimit="10"/><path id="n" d="m0 0l-.18.12" stroke-linejoin="round" stroke="#000" stroke-width=".24" fill="none" stroke-linecap="round" stroke-miterlimit="10"/><path id="o" d="m0 0l-.18.18" stroke-linejoin="round" stroke="#000" stroke-width=".24" fill="none" stroke-linecap="round" stroke-miterlimit="10"/><path id="p" d="m0 0v.06l-.06-.06" stroke-linejoin="round" stroke="#000" stroke-width=".24" fill="none" stroke-linecap="round" stroke-miterlimit="10"/><path id="q" d="m0 0l.12-.18h.12" stroke-linejoin="round" stroke="#000" stroke-width=".24" fill="none" stroke-linecap="round" stroke-miterlimit="10"/><path id="r" d="m0 0h-.06" stroke-linejoin="round" stroke="#000" stroke-width=".24" fill="none" stroke-linecap="round" stroke-miterlimit="10"/><path id="s" d="m0 0l-.3 3.24" stroke-linejoin="round" stroke="#000" stroke-width=".24" fill="none" stroke-linecap="round" stroke-miterlimit="10"/><path id="t" d="m0 0l-.3 3.18" stroke-linejoin="round" stroke="#000" stroke-width=".24" fill="none" stroke-linecap="round" stroke-miterlimit="10"/><path id="u" d="m0 0h.12" stroke-linejoin="round" stroke="#000" stroke-width=".24" fill="none" stroke-linecap="round" stroke-miterlimit="10"/><path id="v" d="m0 0h.18" stroke-linejoin="round" stroke="#000" stroke-width=".24" fill="none" stroke-linecap="round" stroke-miterlimit="10"/><path id="w" d="m0 0h.66" stroke-linejoin="round" stroke="#000" stroke-width=".24" fill="none" stroke-linecap="round" stroke-miterlimit="10"/><path id="x" d="m0 0v-.66l-.18-.12" stroke-linejoin="round" stroke="#000" stroke-width=".24" fill="none" stroke-linecap="round" stroke-miterlimit="10"/><clipPath id="0"><path d="m253.31 162.33h81.16v511.86h-81.16v-511.86"/></clipPath></defs><g transform="matrix(0 1.25 1.25 0-202.91-316.64)" clip-path="url(#0)"><g transform="translate(284.4 409.25)" fill="none" stroke="#000" stroke-linejoin="round" stroke-linecap="round" stroke-width=".72" stroke-miterlimit="10"><path d="m0 0l-1.32-.06-1.26-.06"/><g transform="translate(-4.02-.06)"><path d="m0 0l-.6.06-.54.06c-4.875.805-8.32 3.65-10.26 8.16l-.24.54-.18.6c-2.074 6.318-2.554 13.251 1.08 19.08l.6 1.08.6 1.02"/><g transform="translate(-11.64 26.82)"><path d="m0 0l-2.22 2.28c-4.106 4.14-4.442 15.187-1.44 19.86l.96 1.26"/><g transform="translate(-.84 22.02)"><path d="m0 0l-2.46 1.86c-4.912 4.109-5.122 11.879-1.86 17.04l1.74 2.52"/><g transform="translate(-.78 18.9)"><path d="m0 0l-2.28 3.18c-4.834 6.981-5.064 18.08 4.08 21.6l1.92.72"/><g transform="translate(3.78 24.78)"><path d="m0 0l-.06.24c-.767 6.236 2.894 10.296 9.06 10.74h.48"/><g transform="translate(10.92 10.92)"><path d="m0 0l.48-.12c2.321-.62 4.04-1.896 5.1-4.08l.18-.42"/><g transform="translate(2.52-.9)"><path d="m0 0l1.5 1.2c8.958 6.968 17.536-1.353 18.72-10.62l.06-1.92"/><g transform="translate(10.8-20.04)"><path d="m0 0l1.32 2.52.72 1.2c2.202 3.648 6.793 5.722 10.98 5.04l1.32-.42 1.26-.6c5.889-3.73 7.246-11.421 6.6-17.88l-.42-2.76-.9-2.64"/><g transform="translate(17.28-14.22)"><path d="m0 0l2.7-.9 2.46-1.2c4.01-2.425 6.04-7.321 6.72-11.76l.3-2.82-.06-2.7c-.374-4.329-1.515-11.153-5.1-14.1l-1.02-.9-2.28-1.56"/><g transform="translate(6.96-33.6)"><path d="m0 0l1.26-3.72c2.41-8.092 1.25-18.2-5.7-23.76l-1.56-1.14"/><g transform="translate(-6.18-26.28)"><path d="m0 0l.18-3.42-.06-1.8-.18-1.8-.36-1.8-.54-1.74-.72-1.56-1.02-1.38-1.2-1.08c-1.978-1.538-5.938-1.996-8.28-1.14l-1.5.78-1.38 1.02"/><path d="m0 0l-.9-3.78c-2.627-10.254-12.218-11.956-15.6-1.26l-1.08 3.78" transform="translate(-13.02-7.14)"/></g></g></g></g></g></g></g></g></g></g></g></g><path d="m0 0v-.18l.06-.12v-.06l.06-.06h5.22l.24.12.06.18v2.58h-.06l-.12.06h-.3l-.12-.06-.06-.12v-1.98h-4.92v-.06l-.06-.12" fill-rule="evenodd" transform="translate(277.32 177.41)" id="y"/><path d="m0 0l4.68-1.2.6-.54h.12l.06.12v.78l-.06.06-.12.06-4.2 1.08" fill-rule="evenodd" transform="translate(277.5 183.59)" id="z"/><path d="m0 0v-.24l.06-.12v-.06h.12l1.08.36 4.2 1.2-.6.54-4.68-1.32h-.12v-.06l-.06-.12" fill-rule="evenodd" transform="translate(277.32 184.01)" id="10"/><path d="m0 0v-.18l.06-.12v-.06h.12l4.68-1.26.6-.54h.12l.06.12v.78l-.06.06-.12.06-5.16 1.5h-.24l-.06-.12v-.06" fill-rule="evenodd" transform="translate(277.32 187.31)" id="11"/><path d="m0 0v-.24l.06-.12.06-.06.18.06 5.16 1.5-.6.54-4.68-1.26-.12-.06v-.06l-.06-.12" fill-rule="evenodd" transform="translate(277.32 180.71)" id="12"/><use transform="translate(277.8 193.37)" xlink:href="#1"/><path d="m0 0l.18-.66 4.86 1.86-.96.42" fill-rule="evenodd" transform="translate(277.8 190.07)"/><use transform="translate(277.32 189.41)" xlink:href="#2"/><path d="m0 0v-.54l.06-.18.06-.12.18-.12v-.06l.18-.06.18.66h4.92l.06.06v.6l-.06.06h-5.34l-.12-.06-.06-.12" fill-rule="evenodd" transform="translate(277.32 194.45)"/><path d="m0 0h.36l.12.06h.06v.06c-.18.575-.325.296-.48 1.14v.18" fill-rule="evenodd" transform="translate(277.86 196.07)" id="13"/><path d="m0 0v-.12c.037-.477.185-.999.54-1.32l.06-.06.06 1.44v.06l.06.18v.18l.12.18.12.12.12.06.12.12h.06l.12.06h.42l.18-.06h.12l.18-.06.18-.12.12-.06c.27-.135.52-.312.72-.54l.18-.12.12-.12c.521-.501.961-1.132 1.62-1.44h.18l.12.06h.12l.06.12v3.24l-.06.06-.12.06h-.3l-.18-.18v-2.46l-.9.9c-.703.649-1.496 1.465-2.52 1.44l-.18.06v-.06h-.18c-.63.002-1.189-.574-1.2-1.2l-.06-.18" fill-rule="evenodd" transform="translate(277.26 197.57)"/><use transform="translate(277.8 205.43)" xlink:href="#1"/><use transform="translate(277.8 202.13)" xlink:href="#3"/><use transform="translate(277.32 201.47)" xlink:href="#2"/><g fill-rule="evenodd"><path d="m0 0v-.54l.06-.18.06-.12.18-.12v-.06l.18-.06.18.66h4.92l.06.06v.6l-.06.06h-5.34l-.12-.06-.06-.12" transform="translate(277.32 206.51)"/><path d="m0 0l.06-.18.18-.18v-.06l.06-.12.12-.18v-.06l.06-.18v-.18l.06 1.26h-.36l-.12-.06h-.06" transform="translate(291.78 179.99)"/><path d="m0 0l.24-.24.18-.06c.309-.122.621-.21.96-.18h.24c.382-.023.75.008 1.08.18l.18.06.12.06.48.48.06.18v.06l.06.18.06.12v.78l-.12.36-.06.12-.06.18-.3.3-.06-1.26v-.12l-.12-.36v-.06l-.36-.36-.36-.12h-.12l-.18-.06h-.36c-.574-.039-1.29.135-1.5.72l-.06.18v.18" transform="translate(289.2 177.53)"/><path d="m0 0v-.06c.057-.607.103-.814.54-1.26h.06v1.32c-.023.59.203.577.36.96l.12.12-.06.12h-.06l-.18.06-.18-.06h-.12l-.24-.24-.06-.12-.06-.18-.06-.12v-.18l-.06-.18" transform="translate(288.6 178.85)"/><path d="m0 0h.06l.06-.06v-.6l-.06-.06h-5.88l-.06.06-.06.12v.36l.06.12.06.06h5.82" transform="translate(292.68 181.79)"/><path d="m0 0v-.3l.06-.06h4.02l.06.06v.6l-.06.06h-4.02l-.06-.06v-.12" transform="translate(288.66 183.47)"/><path d="m0 0l.06-.24.06-.12.12-.06h.42l.12.06.06.18v.18c.062.547-.237.403-.6.42l-.12-.06h-.06l-.06-.18" transform="translate(287.04 183.47)"/></g><use transform="translate(292.02 188.21)" xlink:href="#4"/><g fill-rule="evenodd"><path d="m0 0v-1.38.06c-.051.299.148.542.36.72v.06l.18.06.12.06.18.06h.18l.18.06v-2.16l.06-.72h.18c.567-.023 1.331.042 1.74.48v1.5-.06l-.06-.18v-.18l-.06-.18-.06-.12-.36-.36-.12-.06-.18-.06h-.06l-.18-.06h-.36v2.64l-.06.12-.06.06-.18.06h-.18l-.18-.06h-.36l-.12-.06-.18-.06-.12-.06-.18-.06" transform="translate(289.14 188.09)"/><path d="m0 0v-.3l.06-.18v-.12l.06-.18h.06l.06-.18.12-.18.06-.12.18-.12v-.06l.18-.06.12-.12.72-.24h.18l-.06.72h-.12l-.18.06h-.12l-.24.12-.18.12-.18.18-.06.18-.06.06-.06.18v1.56l-.12-.12c-.28-.272-.309-.5-.42-.84v-.18" transform="translate(288.6 186.77)"/></g><path d="m0 0l.18-.12.06.66-.12.18v.18l-.06.12" fill-rule="evenodd" transform="translate(289.14 190.37)" id="14"/><path d="m0 0v-.24l.06-.06h4.02l.06.06v.6l-.06.06h-2.76l-.12.06-.48.48v.06l-.06-.66h-.6l-.06-.06v-.12" fill-rule="evenodd" transform="translate(288.66 189.89)" id="15"/><path d="m0 0v-.18c.052-.335.241-.611.42-.9l.12-.12.06 1.02v.06l.06.18c.195.36.001.331.42.48l.36.12h2.7l.06.06v.6l-.06.06h-2.82l-.18-.06h-.18l-.18-.06-.18-.12-.12-.06-.18-.12-.06-.18-.12-.12-.06-.12-.06-.18v-.18" fill-rule="evenodd" transform="translate(288.6 191.57)"/><use transform="translate(292.14 196.13)" xlink:href="#5"/><path d="m0 0l.06-.18v-.12l.06-.06h.96v-.6l.06-.06h.12l.12-.06h.06l.18.06.06.12v.54h2.7l.18.06.12.06.18.06.12.06.06.06.12.18.06.12.06.18v.54l-.06.18v.18l-.06.12-.12.06h-.36v-.78l-.06-.12-.12-.12-.24-.12h-2.58v.96l-.06.12h-.06l-.18.06h-.12l-.12-.06h-.06v-1.08h-.96l-.06-.06v-.12" fill-rule="evenodd" transform="translate(287.58 194.75)"/><path d="m0 0h37.92v-112.92h-53.16v112.92h13.8" fill="none" stroke="#000" stroke-linejoin="round" stroke-linecap="round" stroke-width=".72" stroke-miterlimit="10" transform="translate(281.82 282.71)"/><path d="m0 0h.12l.06-.12v-.12l.06-.3-.06-.24v-.18l-.06-.12h-8.34l-.06.12v.18l-.06.24.06.3v.12l.06.12h8.22" fill-rule="evenodd" transform="translate(295.68 435.71)"/><path d="m0 0l.18-.18.12 1.02-.24.48v.24" fill-rule="evenodd" transform="translate(290.4 439.07)" id="16"/><path d="m0 0v-.24l.06-.18.06-.06h6.06l.06.12v.12l.06.3-.06.24v.18l-.06.06-.12.06h-4.08l-.12.06-.24.18-.18.24-.18.18-.12.18-.06.06-.12-1.02h-.84l-.06-.12-.06-.12" fill-rule="evenodd" transform="translate(289.62 438.41)" id="17"/><path d="m0 0l.06-.24c-.008-.488.33-.933.6-1.32l.24-.24.06 1.56v.06l.06.3.06.24.12.18.24.18.48.24h.06l.18.06h4.02l.12.06.06.06v.18l.06.24-.06.24v.18l-.06.12h-3.72c-.623.039-.646-.051-1.14-.12l-.24-.06-.24-.12c-.425-.355-.571-.459-.84-1.02l-.06-.24v-.24" fill-rule="evenodd" transform="translate(289.5 440.87)"/><path d="m0 0l.06-.12.06-.12.06-.24v-.24l.06.84h-.12l-.06-.06" fill-rule="evenodd" transform="translate(294.84 447.89)" id="18"/><path d="m0 0v-.3l.06-.12.06-.12h1.44v-.84l.06-.06.06-.06.12-.06h.36l.24.06.06.12v.84h3.48c1.185.014 2.024.394 1.98 1.74v.3h-.06v.24l-.12.24-.06.18-.18.06-.3.06-.18-.06-.06-.84v-.3l-.12-.24-.18-.12-.06-.06-.24-.06-.3-.06h-3.6v1.5l-.06.18h-.06l-.3.06-.24-.06h-.12l-.06-.06-.06-.12v-1.5h-1.38l-.06-.06-.06-.06-.06-.18" fill-rule="evenodd" transform="translate(288.06 445.79)" id="19"/><g fill-rule="evenodd"><path d="m0 0l.06-.24c.27-.506.382-1.107.36-1.68l.12-2.28.18.18.18.24c.448.68.419 1.5.42 2.28l-.06.24v.18l-.12.48-.12.24-.06.24-.12.18-.06.06-.12.06h-.42l-.12-.06h-.12" transform="translate(294.66 454.07)"/><path d="m0 0v-2.04.06c.104 1.017.579 1.385 1.56 1.5h.3v-4.26l.3-.06c.862-.023 1.747.063 2.46.6l.24.18-.12 2.28v-.12c.063-1.096-.748-1.815-1.8-1.8h-.3v3.9l-.12.24-.06.06-.3.06h-.78l-.72-.18-.48-.24" transform="translate(290.34 453.89)"/><path d="m0 0v-.12l.06-.3c.159-.503.104-.865.48-1.26l.36-.36c.37-.317.84-.569 1.32-.66l.24-.06h.24v1.08h-.18c-1.048.196-1.515.54-1.68 1.62v2.04l-.12-.12c-.38-.317-.576-.784-.66-1.26v-.3" transform="translate(289.5 451.91)"/><path d="m0 0l.06-.96.06.3.12.36v.24h-.12" transform="translate(290.46 459.59)"/><path d="m0 0v-.24l.06-.18.06-.06h6.06l.06.12v.12l.06.3-.06.24v.18l-.06.06-.12.06h-3.84l-.18.12-.24.12-.18.18-.24.18-.18.18-.06.12-.06-1.02h-.96l-.06-.12-.06-.12" transform="translate(289.62 456.65)"/><path d="m0 0v-.12c.045-.597.518-.976.96-1.32l.24-.18.06 1.02-.18.18v.06l-.06.24-.06.96h-.24c-.442-.012-.483.115-.66-.42l-.06-.24" transform="translate(289.5 458.75)"/></g><use transform="translate(0 22.86)" xlink:href="#16"/><use transform="translate(0 22.86)" xlink:href="#17"/><g fill-rule="evenodd"><path d="m0 0l.06-.24c-.008-.488.33-.933.6-1.32l.24-.24.06 1.56v.06l.06.3.06.24.12.18.24.18.48.24h.06l.18.06h4.02l.12.06.06.06v.18l.06.24-.06.24v.18l-.06.12h-3.72c-.623.039-.646-.051-1.14-.12l-.24-.06-.24-.12c-.425-.355-.571-.458-.84-1.02l-.06-.24v-.24" transform="translate(289.5 463.73)"/><path d="m0 0l.06-.24c.27-.506.382-1.107.36-1.68l.12-2.28.18.18.18.24c.448.68.419 1.5.42 2.28l-.06.24v.18l-.06.24-.06.24-.12.24-.06.24-.12.18-.06.06-.12.06h-.42l-.12-.06h-.12" transform="translate(294.66 472.37)"/><path d="m0 0v-2.04.06c.104 1.017.579 1.385 1.56 1.5h.3v-4.26l.3-.06c.862-.023 1.747.063 2.46.6l.24.18-.12 2.28v-.12c.063-1.096-.749-1.815-1.8-1.8h-.3v3.9l-.12.24-.06.06-.3.06h-.78l-.72-.18-.48-.24" transform="translate(290.34 472.19)"/><path d="m0 0v-.12l.06-.3c.159-.503.104-.865.48-1.26l.36-.36c.371-.317.84-.569 1.32-.66l.24-.06h.24v1.08h-.18c-1.048.196-1.515.54-1.68 1.62v2.04l-.12-.12c-.38-.317-.576-.784-.66-1.26v-.3" transform="translate(289.5 470.21)"/></g><use transform="translate(0 29.4)" xlink:href="#18"/><use transform="translate(0 29.4)" xlink:href="#19"/><g transform="translate(281.82 344.87)" fill="none" stroke="#000" stroke-linejoin="round" stroke-linecap="round" stroke-width=".72" stroke-miterlimit="10"><path d="m0 0h37.92v-34.62h-37.92"/><path d="m0 0h-13.8v34.62h13.8" transform="translate(-1.44-34.62)"/></g><g fill-rule="evenodd"><path d="m0 0l.06-1.26v.18c-.042.253.135.482.3.66l.12.06h.06l.12.06h.18l.18-.06h.12l.12-.12.06-.06h.06l.06-.12.06-.12v-1.14l.06 1.92-.12.06c-.139.146-.342.209-.54.18l-.12.06-.12-.06h-.18l-.12-.06h-.06l-.24-.12" transform="translate(285.42 325.43)"/><path d="m0 0l.06-1.14.06.18v.12c-.031.263.217.511.48.48l.18.06.12-.06h.12l.24-.12.12-.24.06-.06v-.9l.06 1.5-.06.12-.12.06-.06.12h-.06c-.286.211-.652.106-.96.06l-.12-.06" transform="translate(283.56 325.19)"/><path d="m0 0v-1.02l.06-.12.18-.06h3.84l.06.06v.06l.06.12v1.38l-.06.12v.12l-.06.12v.12l-.06.06-.12.24h-.06l-.06.12-.06-1.92h-1.44v.66l-.06 1.26-.06-.12-.12-.12v-.06l-.06-.12-.06-.12-.06.12-.06-1.5h-1.38v.54l-.06 1.14-.06-.06c-.139-.158-.299-.509-.3-.72v-.18" transform="translate(283.2 324.11)"/><path d="m0 0v-.24h.06v-.06h4.02l.06.06v.06l.06.12v1.92h-.06l-.06.06h-.24l-.06-.06h-.06v-1.56h-3.66v-.06h-.06v-.12" transform="translate(283.2 326.87)"/><path d="m0 0v-2.04l.06-.12.18-.06h3.84l.06.06v.06l.06.12v2.04l-.06.06h-.36l-.06-.06v-1.68h-1.5v1.44l-.06.06h-.3l-.06-.06v-1.44h-1.32v1.62l-.12.12h-.24l-.06-.06h-.06" transform="translate(283.2 331.55)"/><path d="m0 0l.06-.12v-.06l.06-.12.06-.12v-.24l.06-.12v-1.32l.12.12c.192.371.184.346.3.72v.54l-.06.12v.18l-.06.12v.12l-.12.24h-.06v.06h-.3l-.06-.06" transform="translate(294.18 319.25)"/></g><use transform="translate(292.02 319.19)" xlink:href="#6"/><g fill-rule="evenodd"><path d="m0 0v-.06l.06-.12v-.12l.06-.12v-.18l.06-.12.12-.06.06-.12.12-.12.12-.06.12-.12.12-.06h.18l.12-.06h.12l.12-.06-.06.54h-.06l-.12.06h-.12l-.06.06-.24.12-.12.12-.06.12-.06.12v.12l-.06.12v1.02l-.06-.06c-.123-.211-.321-.393-.3-.66v-.12" transform="translate(291.6 318.17)"/><path d="m0 0l.06-.12.06.54-.12.24v.12" transform="translate(292.08 320.93)"/><path d="m0 0v-.12l.06-.06v-.06h3v.06h.06v.42l-.06.06h-2.04l-.06.06-.12.12-.12.06-.06.12-.12.12-.06-.54h-.42l-.06-.12" transform="translate(291.66 320.57)"/><path d="m0 0l.06-.12c.027-.211.122-.534.3-.66l.12-.12v.96l.06.12.18.18.24.12h2.16v.06h.06v.42l-.06.06h-2.22l-.12-.06h-.06c-.313.028-.484-.347-.66-.54v-.3" transform="translate(291.6 321.83)"/><path d="m0 0l.06-.12v-.18l.06.78-.06.06" transform="translate(294.36 325.01)"/><path d="m0 0l.06-.06c1.061-.643 1.883.574 1.2 1.56l-.12.12-.06-.78v-.18l-.06-.12-.06-.06v-.06l-.12-.06c-.608-.285-.819.38-.84.84v.42" transform="translate(293.34 323.87)"/><path d="m0 0l.12-.06h.12l.06.06h.06v.06l-.06.12-.06.06-.06.12v.06l-.12.24v.36" transform="translate(292.02 323.81)"/><path d="m0 0v-.06c.091-.284.069-.581.24-.84v-.06l.12-.06.06-.06.06 1.02v.3l.06.12.12.12.06.06.12.06h.54v-.78l.06-.12v-.24l.18-.36.12-.12v1.62h.66l.18-.18.06-.12.06-.06.06-.12.06.54h.3l.06.06v.42h-2.28l-.12-.06h-.12l-.36-.18v-.06l-.18-.18v-.12l-.06-.12v-.12l-.06-.18" transform="translate(291.6 324.89)"/><path d="m0 0l.06-.6.06.06-.06.84v-.18" transform="translate(294.3 328.07)"/><path d="m0 0l.06-.12.06.66-.06.12v.12" transform="translate(292.02 327.65)"/><path d="m0 0l.06-.12c-.024-.219.061-.466.24-.6l.12-.12.06.78v.12l.12.24.12.12.36.18h.18l.12.06h.54l.12-.06h.12l.36-.18.18-.18v-.06l.06-.12v-.18l.06-.84.06.12.06.06h.06l.06.12.06.12.12.24v.54l-.24.48-.12.06-.06.12h-.06l-.12.06c-.457.291-.863.24-1.38.24h-.12l-.12-.06h-.06l-.12-.06h-.12l-.24-.12-.18-.18-.06-.12-.12-.12-.06-.12v-.24" transform="translate(291.6 328.49)"/><path d="m0 0v-.24l.06-.06h4.38l.06.06v.36l-.06.06h-.36l-.06.6-.06-.12h-.06l-.06-.12-.06-.12-.12-.06-.12-.12h-1.14l-.12.06-.06.12-.12.06-.12.12-.06.12-.06.06v.12l-.06-.66h-1.8v-.12" transform="translate(290.28 327.29)"/><path d="m0 0l.06-.06v-.42h-.06v-.06h-4.38l-.06.06v.48h4.44" transform="translate(294.72 331.07)"/><path d="m0 0l.06-.12v-.06l.12-.24v-.24l.06-.12v-1.32l.12.12c.192.371.184.346.3.72v.54l-.06.12v.18l-.06.12v.12l-.12.24h-.06v.06h-.3l-.06-.06" transform="translate(294.18 334.31)"/></g><use transform="translate(292.02 334.25)" xlink:href="#6"/><path d="m0 0v-.06l.06-.12v-.12l.06-.12v-.18l.06-.12.12-.06.06-.12.12-.12.12-.06.12-.12.12-.06h.18l.12-.06h.12l.12-.06-.06.54h-.06l-.12.06h-.12l-.06.06-.24.12-.12.12-.06.12-.06.12v.12l-.06.12v1.02l-.06-.06c-.123-.211-.321-.393-.3-.66v-.12" fill-rule="evenodd" transform="translate(291.6 333.23)" id="1A"/><g fill-rule="evenodd"><path d="m0 0l.06-.12v-.18l.06.78-.12.12" transform="translate(294.3 336.77)"/><path d="m0 0v-.06l.36-.18h.12l.06-.06h.24l.12-.06h.48l.18.06h.24l.12.06.18.06.06.06.24.12c.271.244.188.23.36.54v.48l-.06.12v.12l-.06.12-.06.06-.06.12-.18.18-.06-.78v-.12c.001-.438-.558-.593-.9-.6h-.12l-.12-.06c-.457.129-.829.013-1.08.54l-.06.12v.12" transform="translate(292.08 335.51)"/><path d="m0 0l.06-.18c.095-.655.081-.311.3-.66l.12-.06v1.8l-.12-.12c-.343-.314-.155-.205-.3-.48v-.12" transform="translate(291.6 336.41)"/><path d="m0 0v-.24l.06-.06h1.74v-1.8 1.02l.06.12v.12l.06.12.42.42h1.2l.06-.06.12-.06.06-.12.12-.12.06-.12.06-.06v.6h.42l.06.06v.36l-.06.06h-4.38l-.06-.06v-.06" transform="translate(290.28 337.61)"/></g><path d="m0 0l.06-.48v.12l.06.12v.18l-.06.06" fill-rule="evenodd" transform="translate(299.16 320.75)" id="1B"/><path d="m0 0v-.12l.06-.06v-.06h3v.06h.06v.42l-.06.06h-1.92l-.12.06-.18.18h-.06l-.24.24v-.54h-.48l-.06-.12" fill-rule="evenodd" transform="translate(298.74 319.25)" id="1C"/><path d="m0 0v-.06l.06-.12v-.12l.06-.12.12-.06.06-.12.06-.06.12-.06.12-.12v.54l-.06.06v.18l-.06.48h-.3l-.12-.12v-.12l-.06-.12" fill-rule="evenodd" transform="translate(298.68 320.33)" id="1D"/><g fill-rule="evenodd"><path d="m0 0l.06-1.14v.24l.06.12v.12l.18.18.48.24h.54c.448.057 1.022-.209 1.02-.72v-.18l.06-1.08.18.18c.128.228.225.466.24.72v.3c-.03.271-.063.598-.3.78l-.06.12-.12.06v.06l-.24.12c-.562.344-.424.053-.78.24h-.3c-.184-.108-.415-.023-.66-.18l-.24-.12" transform="translate(299.1 323.75)"/><path d="m0 0l.06-.18v-.12c.02-.345.206-.669.48-.9l.12-.06.06-.06c.473-.223.867-.183 1.38-.18l.12.06h.12v.06h.18l.12.06.18.18-.06 1.08v-.3l-.12-.24-.12-.06-.06-.12-.24-.12h-.18l-.12-.06h-.36c-.439.02-1.073.247-1.08.78v.12l-.06 1.14v-.06c-.228-.182-.367-.496-.36-.78v-.12" transform="translate(298.68 322.67)"/><path d="m0 0l.12-.24v-.12l.06.78-.12.12" transform="translate(301.32 326.33)"/><path d="m0 0v-.18l.06-.06v-.06h2.1l.18.06h.12l.36.18.12.12.06.06.06.12.06.12.06.12v.54l-.06.12-.06.12-.06.06-.06.12-.06.12-.12.06-.06-.78v-.12l-.12-.24-.12-.06v-.06l-.12-.06h-.12l-.12-.06h-2.04v-.06l-.06-.06" transform="translate(298.74 325.13)"/><path d="m0 0v-.18l.06-.06v-.06h2.1l.06-.06.12-.06.06-.12.12-.06.06-.12v-.06l.06.54h.42l.06.06v.36l-.06.06h-3v-.06l-.06-.06" transform="translate(298.74 327.11)"/><path d="m0 0v-.06l.06-.06v-.24.48l-.06-.06" transform="translate(301.38 329.81)"/><path d="m0 0v-.12l.06-.12.06-.06h.66v-.36l.06-.06v-.06h.36l.06.12v.36h1.74l.18.06h.24l.06.06.24.12h.06l.12.24v.12l.06.12v.3l-.06.18v.06l-.06.12h-.12l-.12.06h-.12v-.48c.051-.352-.349-.421-.6-.42h-1.62v.78l-.06.06-.18.06h-.12l-.06-.06-.06-.06v-.78h-.72v-.06l-.06-.06" transform="translate(297.96 328.79)"/><path d="m0 0l.06-.12v-.06l.12-.24v-.24l.06-.12v-1.32l.06.06.06.06c.192.371.184.346.3.72v.54l-.06.12v.18l-.06.12v.12l-.06.12-.06.12h-.06v.06h-.3l-.06-.06" transform="translate(301.26 332.87)"/></g><use transform="translate(299.1 332.81)" xlink:href="#6"/><use transform="translate(7.08-1.44)" xlink:href="#1A"/><use transform="translate(0 14.88)" xlink:href="#1B"/><use transform="translate(0 14.88)" xlink:href="#1C"/><use transform="translate(0 14.88)" xlink:href="#1D"/><g transform="translate(288.9 291.17)"><use xlink:href="#Y"/><g transform="translate(6.42)"><use xlink:href="#a"/><g transform="translate(-6.42)"><path d="M 0,0 4.26,-8.46 8.52,0" fill="none" stroke="#000" stroke-linejoin="round" stroke-linecap="round" stroke-width=".42" stroke-miterlimit="10"/><g transform="translate(2.16)"><path d="m0 0v10.62" fill="none" stroke="#000" stroke-linejoin="round" stroke-linecap="round" stroke-width=".42" stroke-miterlimit="10"/><g transform="translate(4.26 10.62)"><path d="m0 0v-10.62" fill="none" stroke="#000" stroke-linejoin="round" stroke-linecap="round" stroke-width=".42" stroke-miterlimit="10"/><g transform="translate(-6.42)"><use xlink:href="#Y"/><g transform="translate(6.42)"><use xlink:href="#a"/><g transform="translate(-6.42)"><use xlink:href="#g"/><g transform="translate(0 87.72)"><use xlink:href="#Y"/><g transform="translate(6.42)"><use xlink:href="#a"/><g transform="translate(-6.42)"><use xlink:href="#g"/><g transform="translate(0-36.12)"><use xlink:href="#Y"/><g transform="translate(6.42)"><use xlink:href="#a"/><g transform="translate(-6.42)"><path d="M 0,0 4.26,-8.52 8.52,0" fill="none" stroke="#000" stroke-linejoin="round" stroke-linecap="round" stroke-width=".42" stroke-miterlimit="10" id="1m"/><g transform="translate(2.16)"><path d="m0 0v36.12" fill="none" stroke="#000" stroke-linejoin="round" stroke-linecap="round" stroke-width=".42" stroke-miterlimit="10" id="1n"/><g transform="translate(4.26 36.12)"><path d="m0 0v-36.12" fill="none" stroke="#000" stroke-linejoin="round" stroke-linecap="round" stroke-width=".42" stroke-miterlimit="10" id="1o"/><g transform="translate(-6.42 135.06)"><use xlink:href="#Y"/><g transform="translate(6.42)"><use xlink:href="#a"/><g transform="translate(-6.42)"><use xlink:href="#1m"/><g transform="translate(0 36.12)"><use xlink:href="#Y"/><g transform="translate(6.42)"><use xlink:href="#a"/><g transform="translate(-6.42)"><use xlink:href="#g"/><g transform="translate(2.16)"><use xlink:href="#1o"/><use transform="translate(4.26-36.12)" xlink:href="#1n"/></g></g></g></g></g></g></g></g></g></g></g></g></g></g></g></g></g></g></g></g></g></g></g><use transform="translate(288.96 354.95)" xlink:href="#7"/><g fill-rule="evenodd"><path d="m0 0l.06-.12.12-.24.06-.06.12-.24v-.18l.06-.12v-.18 1.2h-.36l-.06-.06" transform="translate(288.18 358.79)"/><path d="m0 0l.12-.06.06-.06.12-.12.36-.18h.12l.06-.06h.06l.18-.06h.24l.12-.06h.3c.462.032.946.071 1.32.36l.24.12v.06l.12.06.06.12.12.12.12.24v.06l.06.12v.12l.06.12v.48l-.06.12v.24l-.06.12-.06.12v.06l-.18.36-.06.06h-.06v-1.2l-.06-.12v-.3l-.06-.12-.06-.06-.06-.12-.12-.12-.06-.06-.06-.06-.36-.18h-.12l-.06-.06h-.24l-.12-.06h-.3c-.561-.027-1.569.295-1.62.96l-.06.18v.12" transform="translate(285.24 356.39)"/><path d="m0 0v-.24l.06-.12v-.12l.06-.12v-.12l.06-.12.06-.06.06-.12.12-.12.06-.12v1.44l.06.12v.12l.12.24v.12l.12.06.12.24v.06h-.06l-.06.06h-.3l-.06-.06-.06-.06h-.06l-.06-.12v-.06l-.06-.12-.06-.12v-.06l-.06-.12v-.12l-.06-.06v-.18" transform="translate(284.76 357.65)"/></g><path d="m0 0l3-1.26.78-.3v.06l.06.06v.42h-.06l-3.66 1.5" fill-rule="evenodd" transform="translate(285.18 363.11)" id="1E"/><path d="m0 0l.12-.48 3.66 1.38-.78.3" fill-rule="evenodd" transform="translate(285.18 360.65)" id="1F"/><path d="m0 0v-.42l.12-.12.12-.06h3.9v.06h.06v.48h-.06v.06h-3.66l-.12.48h-.06l-.12-.06-.12-.12-.06-.12v-.06" fill-rule="evenodd" transform="translate(284.82 360.17)" id="1G"/><path d="m0 0v-.36c-.026-.326.041-.249.24-.42l.12-.06.12.48h3.66l.06.06v.48h-.06v.06h-3.9l-.12-.06-.12-.12" fill-rule="evenodd" transform="translate(284.82 363.95)" id="1H"/><use transform="translate(285.24 367.61)" xlink:href="#8"/><path d="m0 0v-.96l.06-.12h.06l.12-.06h3.9v.06h.06v.48h-.06v.06h-1.56v.9l-.06.12v.12l-.12.24-.12.12-.06.12-.06-1.62h-1.68v.48l-.06 1.26-.06-.06c-.25-.224-.336-.583-.36-.9v-.12" fill-rule="evenodd" transform="translate(284.82 366.41)"/><use transform="translate(285.9 370.79)" xlink:href="#9"/><path d="m0 0v-.18l.06-.06h.18l2.76 1.02-.42.36h-.06l-2.4-.84h-.06v-.06l-.06-.06" fill-rule="evenodd" transform="translate(285.9 368.51)"/><use transform="translate(286.8 371.57)" xlink:href="#A"/><g fill-rule="evenodd"><path d="m0 0v-.3l.06-.12v-.12l.12-.24.06-.06.06-.12v1.92l-.06-.12c-.343-.297-.06-.287-.24-.54v-.12" transform="translate(286.44 373.07)"/><path d="m0 0l.24-.12.06-.12.12-.06h.12l.12-.06.18-.06.12-.06h.24l.12-.06h.3l.06 1.44v.12l.06.12v.12l.12.12.06.12.24.12h.72l.06-.06.24-.12.12-.12.06-.12.06-.12v-.24l.06-1.08.06.12.12.06c.201.397.267.498.24.96v.18l-.06.12c-.041.453-.316.605-.6.84l-.12.06h-.12v.06h-.12l-.12.06h-.54l-.12-.06h-.18l-.12-.06-.18-.18h-.06v-1.92h-.24l-.12.06h-.24l-.48.24c-.174.146-.442.336-.42.6l-.06.12v.12" transform="translate(285.18 372.11)"/></g><use transform="translate(284.76 373.31)" xlink:href="#B"/><path d="m0 0h.06l.06-.06v-.36l-.06-.06v-.06h-.12l-5.4 1.98-.06.06v.06l-.06.06v.24l.12.12h.06l5.4-1.98" fill-rule="evenodd" transform="translate(289.8 375.11)"/><use transform="translate(288.96 378.29)" xlink:href="#7"/><use transform="translate(285.24 381.65)" xlink:href="#8"/><path d="m0 0v-.96l.06-.12h.06l.12-.06h3.9v.06h.06v.48h-.06v.06h-1.56v.9l-.06.12v.12l-.12.24-.12.12-.06.12-.06-1.62h-1.68v.48l-.06 1.26-.06-.06c-.25-.224-.336-.583-.36-.9v-.12" fill-rule="evenodd" transform="translate(284.82 380.45)" id="1I"/><use transform="translate(285.9 384.89)" xlink:href="#9"/><use transform="translate(285.9 382.61)" xlink:href="#C"/><path d="m0 0h.12c.822-.019.868-.007 1.62.24l.12.06-.06 1.08v-.24l-.06-.12v-.06l-.12-.12-.12-.06-.06-.06-.12-.06h-.12l-.12-.06h-.3l-.12-.06h-.3l-.06.06-.06.12-.06.12v.12l-.06.12v.12l-.06.12v.12" fill-rule="evenodd" transform="translate(286.8 385.61)"/><use transform="translate(286.44 387.11)" xlink:href="#D"/><path d="m0 0l.24-.12.06-.12.12-.06h.12l.12-.06.18-.06.12-.06h.24l.12-.06h.3l.06 1.44v.12l.06.12v.12l.12.12.06.12.24.12h.72l.06-.06.24-.12.12-.12.12-.24v-.24l.06-1.08.06.12.12.06c.201.397.267.498.24.96v.18l-.06.12c-.041.453-.316.605-.6.84l-.12.06h-.12v.06h-.12l-.12.06h-.54l-.12-.06h-.18l-.12-.06-.18-.18h-.06v-1.92h-.24l-.12.06h-.24l-.48.24c-.174.146-.442.336-.42.6l-.06.12v.12" fill-rule="evenodd" transform="translate(285.18 386.15)"/><use transform="translate(284.76 387.35)" xlink:href="#B"/><use transform="translate(288.96 526.13)" xlink:href="#7"/><g fill-rule="evenodd"><path d="m0 0l.06-.12.06-.12.06-.12.06-.06.12-.24v-.18l.06-.12v-.18 1.2h-.36l-.06-.06" transform="translate(288.18 529.97)"/><path d="m0 0l.12-.06.18-.18.36-.18h.12l.06-.06h.06l.18-.06h.24l.12-.06h.3c.462.032.946.071 1.32.36l.24.12v.06l.12.06.06.12.12.12.12.24v.06l.06.12v.12l.06.12v.48l-.06.12v.24l-.06.12-.06.12v.06l-.06.12-.06.12-.06.12-.06.06h-.06v-1.2l-.06-.12v-.3l-.06-.12-.06-.06-.06-.12-.12-.12-.06-.06-.06-.06-.36-.18h-.12l-.06-.06h-.24l-.12-.06h-.3c-.561-.027-1.569.295-1.62.96l-.06.18v.12" transform="translate(285.24 527.57)"/><path d="m0 0v-.24l.06-.12v-.12l.06-.12v-.12l.06-.12.06-.06.06-.12.12-.12.06-.12v1.44l.06.12v.12l.12.24v.12l.12.06.12.24v.06h-.06l-.06.06h-.3l-.06-.06-.06-.06h-.06l-.06-.12v-.06l-.12-.24v-.06l-.06-.12v-.12l-.06-.06v-.18" transform="translate(284.76 528.83)"/></g><use transform="translate(0 171.18)" xlink:href="#1E"/><use transform="translate(0 171.18)" xlink:href="#1F"/><use transform="translate(0 171.18)" xlink:href="#1G"/><use transform="translate(0 171.18)" xlink:href="#1H"/><path d="m0 0l.06-1.26v.36l.12.24.06.06.06.12.12.06h.06l.12.06h.12l.12.06h.12l.12-.06h.12l.06-.06.24-.12v-.06l.12-.12.06-.12v-.12l.06-.12v-.66l.06 1.62-.06.06-.12.12-.24.12h-.06l-.12.06h-.72l-.36-.18" fill-rule="evenodd" transform="translate(285.24 538.79)"/><use transform="translate(0 157.14)" xlink:href="#1I"/><use transform="translate(285.9 541.97)" xlink:href="#9"/><use transform="translate(285.9 539.69)" xlink:href="#C"/><use transform="translate(286.8 542.75)" xlink:href="#A"/><use transform="translate(286.44 544.25)" xlink:href="#D"/><path d="m0 0l.12-.06.12-.06.06-.12.12-.06h.12l.12-.06.18-.06.12-.06h.24l.12-.06h.3l.06 1.44v.12l.06.12v.12l.12.12.06.12.24.12h.72l.06-.06.12-.06.12-.06.06-.06.06-.06.12-.24v-.24l.06-1.08.06.12.12.06c.201.397.267.498.24.96v.18l-.06.12c-.041.453-.316.604-.6.84l-.12.06h-.12v.06h-.12l-.12.06h-.54l-.12-.06h-.18l-.12-.06-.18-.18h-.06v-1.92h-.24l-.12.06h-.24l-.48.24c-.174.146-.442.336-.42.6l-.06.12v.12" fill-rule="evenodd" transform="translate(285.18 543.29)"/><use transform="translate(284.76 544.49)" xlink:href="#B"/><path d="m0 0h.06l.06-.06v-.36l-.06-.06v-.06h-.12l-5.4 1.98-.06.06v.06l-.06.06v.24l.12.12h.06l5.4-1.98" fill-rule="evenodd" transform="translate(289.8 546.29)"/><use transform="translate(288.96 549.47)" xlink:href="#7"/><use transform="translate(285.24 552.83)" xlink:href="#8"/><path d="m0 0v-.96l.06-.12h.06l.12-.06h3.9v.06h.06v.48h-.06v.06h-1.56v.9l-.06.12v.12l-.06.12-.06.12-.12.12-.06.12-.06-1.62h-1.68v.48l-.06 1.26-.06-.06c-.25-.224-.336-.583-.36-.9v-.12" fill-rule="evenodd" transform="translate(284.82 551.63)"/><use transform="translate(285.9 556.07)" xlink:href="#9"/><use transform="translate(285.9 553.79)" xlink:href="#C"/><use transform="translate(286.8 556.79)" xlink:href="#A"/><use transform="translate(286.44 558.29)" xlink:href="#D"/><path d="m0 0l.24-.12.06-.12.12-.06h.12l.12-.06.18-.06.12-.06h.24l.12-.06h.3l.06 1.44v.12l.06.12v.12l.12.12.06.12.24.12h.72l.06-.06.24-.12.12-.12.12-.24v-.24l.06-1.08.06.12.12.06c.201.397.267.498.24.96v.18l-.06.12c-.041.453-.316.605-.6.84l-.12.06h-.12v.06h-.12l-.12.06h-.54l-.12-.06h-.18l-.12-.06-.18-.18h-.06v-1.92h-.24l-.12.06h-.24l-.48.24c-.174.146-.442.336-.42.6l-.06.12v.12" fill-rule="evenodd" transform="translate(285.18 557.33)"/><use transform="translate(284.76 558.53)" xlink:href="#B"/><path d="m0 0h33.9v-104.7h-44.58v104.7h9.12" fill="none" stroke="#000" stroke-linejoin="round" stroke-linecap="round" stroke-width=".24" stroke-miterlimit="10" transform="translate(281.88 278.51)"/><g fill-rule="evenodd"><path d="m0 0v-.84.12l.06.06v.12l.06.12.18.18h.48l.12-.12.06-.12v-.06l.06-.06v-.72 1.32c-.231.193-.635.276-.9.06l-.06-.06" transform="translate(286.38 286.97)"/><path d="m0 0l.06-.78v.06l.06.12v.18l.12.12h.12l.06.06h.18l.12-.06h.06l.06-.06.06-.06.06-.12v-.66l.06 1.02-.06.12-.06.06-.06.06h-.06l-.12.06h-.42l-.12-.12" transform="translate(285.12 286.85)"/><path d="m0 0v-.66l.06-.06.12-.06h2.52l.06.06h.06v1.08l-.06.06v.12l-.06.06v.06l-.06.06v.06l-.06.06-.06.06v-1.32h-1.02v1.32l-.06-.06-.12-.24v-.06l-.06.06-.06-1.02h-.9v.42l-.06.78-.06-.12-.06-.06v-.12l-.06-.06v-.12l-.06-.12v-.06" transform="translate(284.88 286.07)"/><path d="m0 0v-.12l.06-.06h2.64l.06.06h.06v1.38h-.3v-1.08h-2.52v-.06" transform="translate(284.88 287.93)"/><path d="m0 0v-1.38l.06-.06.12-.06h2.52l.06.06h.06v1.5h-.3v-1.2h-1.02v1.02h-.3v-1.02h-.9v1.2h-.24l-.06-.06" transform="translate(284.88 291.11)"/><path d="m0 0h.18c.14 0 .28 0 .42 0h.06l.06.06c.406-.003.091-.015.48.12l.06.06v.66-.06l-.06-.06v-.12l-.12-.12h-.06l-.06-.06h-.06l-.06-.06h-.24l-.06-.06h-.3v.06l-.06.06v.06l-.06.12v.06l-.06.06v.18" transform="translate(286.2 292.67)"/><path d="m0 0v-.12l.06-.06v-.18l.06-.06v-.12l.06-.06v-.06l.06 1.26-.12-.12-.06-.12v-.18l-.06-.06" transform="translate(285.96 293.69)"/><path d="m0 0l.12-.06.06-.06h.06l.06-.06.12-.06h.06l.06-.06h.18l.12-.06h.24l.06.96c-.016.285.006.154.18.36v.06h.06l.12.06c.14 0 .28 0 .42 0h.06l.12-.12h.06l.06-.06.06-.12v-.06l.06-.06v-.78l.06.06.12.12v.06l.06.12v.12l.06.06v.18l-.06.12v.18l-.06.06v.06l-.06.12-.06.06-.06.06-.06.06h-.06l-.12.06-.06.06h-.18l-.12.06c-.277.019-.079-.085-.42-.06l-.06-.06-.12-.06h-.06v-.06l-.06-1.26h-.18l-.12.06h-.12l-.12.06h-.06l-.18.18-.06.06-.06.06-.06.06v.3" transform="translate(285.12 293.03)"/><path d="m0 0v-.06c-.035-.255.078-.477.24-.66v-.06l.06.78v.36l.06.06v.12h-.3v-.12l-.06-.06v-.24" transform="translate(284.88 293.81)"/><path d="m0 0h.06v-.3h-3v.3h2.94" transform="translate(287.64 295.37)"/><path d="m0 0v-.72.18l.06.06.06.06.06.12h.06l.12.12h.24l.06.06h.18l.06-.06h.3l.3-.3v-.12l.06-.06v-.84l.06.06.06.12.06.06v.06l.06.06v.18l.06.12v.18l-.06.06v.18l-.06.06v.06l-.06.06v.06l-.06.12-.06.06h-.06l-.12.12h-.12l-.06.06h-.18l-.06.06h-.12c-.621.025-.092-.082-.54-.06l-.12-.06-.06-.06h-.06" transform="translate(285.9 297.59)"/><path d="m0 0v-.3l.06-.06v-.06l.06-.06v-.06l.06-.06.06-.12.06-.06h.06l.06-.06.06-.06h.06l.12-.06h.18l.06-.06h.36l.12.06h.18l.06.06.12.06h.06l.06.06v.72l-.06-.12v-.12l-.06-.06-.06-.12h-.06l-.06-.06-.12-.06h-.18l-.12-.06h-.12l-.12.06h-.12c-.208.064-.453.244-.48.48v.84h-.06l-.06-.06v-.12l-.12-.12v-.06l-.06-.12v-.18" transform="translate(285.6 296.87)"/><path d="m0 0l1.56-.42h.06l.3-.24h.06v.42l-.06.06-1.44.36" transform="translate(285.72 299.45)"/><path d="m0 0v-.06l.12-.12.48.18 1.44.42-.3.24h-.06l-1.56-.48h-.06l-.06-.06" transform="translate(285.6 299.63)"/><path d="m0 0v-.06l.06-.06v-.06h.06l1.56-.48h.06l.3-.24h.06v.06c0 .12 0 .24 0 .36v.06h-.06l-1.86.6h-.12v-.06h-.06" transform="translate(285.6 300.95)"/><path d="m0 0v-.12h.06v-.06h.12l1.86.6-.3.24h-.06l-1.56-.48h-.06v-.06h-.06v-.06" transform="translate(285.6 298.37)"/><path d="m0 0v-1.26.06l.06.06.12.12v.06l.06.06v.12l.06.06v.18l-.06.12v.06l-.06.06v.12l-.06.06-.06.06" transform="translate(287.46 303.11)"/><path d="m0 0v-.66.06l.06.12c.006.167.274.296.42.3h.6l.06-.06h.06l.24-.12v-.06l.06-.06v-.12l.06-.06v.66h-.06l-.06.06h-.06l-.06.06-.12.06h-.84l-.12-.06h-.06l-.12-.06" transform="translate(285.9 303.11)"/><path d="m0 0v-.06l.06-.06h2.82v.3h-1.02v1.26-.72l-.06-.06v-.12l-.36-.36h-.78v.06l-.12.06-.12.12-.06.12v.06-.42h-.3v-.06l-.06-.06" transform="translate(285.6 301.67)"/><path d="m0 0v-.18l.06-.06v-.12h.06v-.06l.24-.24v.42l-.06.06v.78h-.06c-.258-.226-.112-.204-.24-.42v-.06" transform="translate(285.6 302.51)"/><path d="m0 0v-.12l.06.48-.06.06" transform="translate(287.46 304.61)"/><path d="m0 0l.06-.06.06-.06h.12l.06-.06h.18l.12.06h.06l.06.06h.06l.06.06.06.06v.12l.06.06v.12l.06.06v.18l-.06.06v.12l-.06.06v.06l-.06.12-.06.06-.06-.48v-.18l-.06-.06v-.06h-.06l-.06-.06h-.06l-.12-.06-.06.06h-.06l-.18.18v.12l-.06.06v.48" transform="translate(286.74 303.89)"/><path d="m0 0h.24v.12l-.06.06-.06.12v.06l-.06.12v.24" transform="translate(285.84 303.83)"/><path d="m0 0v-.24l.06-.12v-.06l.06-.06v-.12h.06v-.06l.06-.06.06.72v.18l.06.06.06.06.12.12h.36v-.6l.06-.06v-.18l.12-.12v-.06l.06-.06v1.08h.42l.24-.24.06-.12v.42h.24v.3h-1.62l-.06-.06h-.12l-.24-.24v-.12l-.06-.06v-.18" transform="translate(285.6 304.55)"/><path d="m0 0l.06-.06v.42l-.06.06v.12" transform="translate(285.9 306.35)"/><path d="m0 0v-.06l.06-.06h2.04v.3h-1.44v.06l-.12.06-.12.12v.06l-.06.06v-.36h-.3v-.06h-.06" transform="translate(285.6 306.11)"/><path d="m0 0v-.18l.06-.06v-.12l.24-.24v.6l.06.12.06.06.12.12h.18l.06.06h1.32v.3l-.06.06h-1.2l-.06-.06h-.3l-.06-.06h-.12l-.06-.06-.06-.06-.06-.06-.06-.12v-.06l-.06-.06v-.06" transform="translate(285.6 306.95)"/></g><g transform="translate(312.18 232.49)"><path d="m-11.34 0h11.34v11.34h-11.34v-11.34z" fill="none" stroke="#000" stroke-linejoin="round" stroke-linecap="round" stroke-width=".24" stroke-miterlimit="10"/><g><g transform="translate(-5.7 9.18)"><path d="m0 0l-.9-.12-.84-.36c-2.798-1.566-2.191-5.622.84-6.42l.9-.12.9.12c3.01.612 3.591 4.959.9 6.42l-.9.36-.9.12" fill="none" stroke="#000" stroke-linejoin="round" stroke-linecap="round" stroke-width=".24" stroke-miterlimit="10"/><g transform="translate(5.7-25.2)"><path d="m-11.34 0h11.34v11.34h-11.34v-11.34z" fill="none" stroke="#000" stroke-linejoin="round" stroke-linecap="round" stroke-width=".24" stroke-miterlimit="10" id="1i"/><g><path d="m0 0l-.9-.12-.84-.36c-2.778-1.628-2.247-5.485.84-6.42l.9-.12.9.12c3.052.775 3.596 4.836.9 6.42l-.9.36-.9.12" fill="none" stroke="#000" stroke-linejoin="round" stroke-linecap="round" stroke-width=".24" stroke-miterlimit="10" transform="translate(-5.7 9.18)"/></g></g></g></g></g><use transform="translate(298.86 217.73)" xlink:href="#E"/><path d="m0 0l.06-.54v.18l.06.06v.06l.06.06h.12l.06.06.12-.06h.12l.06-.06v-.06l.06-.06v-.48l.06.78-.12.12h-.06l-.06.06h-.42l-.06-.06" fill-rule="evenodd" transform="translate(297.9 217.61)"/><use transform="translate(297.72 217.07)" xlink:href="#F"/><path d="m0 0v-.06l.06-.06v-.06.36l-.06.06" fill-rule="evenodd" transform="translate(299.58 219.05)"/><use transform="translate(298.26 218.39)" xlink:href="#G"/><path d="m0 0v-.06l.06-.06v-.06h1.08v-.06l.06-.06h.06l.06-.06v.24h.24v.24h-1.5v-.06h-.06" fill-rule="evenodd" transform="translate(298.26 219.41)"/><use transform="translate(299.58 220.73)" xlink:href="#H"/><path d="m0 0v-.12h.36v-.18l.06-.06h.18v.24h1.02l.06.06h.12v.06h.06v.06l.06.06v.42h-.06v.06h-.12v-.3l-.12-.12h-1.02v.36l-.06.06h-.12v-.06h-.06v-.36h-.3l-.06-.06v-.06" fill-rule="evenodd" transform="translate(297.9 220.19)"/><use transform="translate(299.58 221.87)" xlink:href="#H"/><use transform="translate(297.9 221.33)" xlink:href="#I"/><path d="m0 0l.06-.54v.18l.12.12h.06v.06h.06l.12.06c.12 0 .24 0 .36 0h.06l.06-.06h.06l.06-.06h.06l.06-.06v-.06l.06-.06v-.72l.12.12v.06l.06.06v.24l.06.06-.06.06v.24l-.06.06v.06l-.18.18h-.06l-.06.06h-.06l-.06.06h-.18l-.06.06h-.12l-.06-.06h-.24l-.06-.06h-.06l-.06-.06" fill-rule="evenodd" transform="translate(298.44 223.49)"/><use transform="translate(298.26 222.95)" xlink:href="#J"/><path d="m0 0l.06-.06.06.24-.06.06v.12" fill-rule="evenodd" transform="translate(298.44 224.33)"/><path d="m0 0v-.06h.06v-.06h1.5v.24l-.06.06h-1.02l-.06.06-.12.12-.06-.24h-.18l-.06-.06" fill-rule="evenodd" transform="translate(298.26 224.15)" id="1J"/><use transform="translate(298.26 224.75)" xlink:href="#K"/><path d="m0 0l.24-.3h1.56v-.48h.24v1.2h-.18l-.06-.06v-.36" fill-rule="evenodd" transform="translate(297.78 227.27)"/><path d="m0 0v-.12l.3-.48h.24v.06l-.24.42-.24.3h-.06v-.06" fill-rule="evenodd" transform="translate(297.72 227.09)" id="1K"/><use transform="translate(298.86 233.75)" xlink:href="#E"/><path d="m0 0l.06-.54v.18l.06.06v.06l.06.06h.12l.06.06.12-.06h.12l.06-.06v-.06l.06-.06v-.48l.06.78-.12.12h-.06l-.06.06h-.42l-.06-.06" fill-rule="evenodd" transform="translate(297.9 233.63)" id="1L"/><use transform="translate(297.72 233.09)" xlink:href="#F"/><path d="m0 0v-.06l.06-.06v-.06.36l-.06.06" fill-rule="evenodd" transform="translate(299.58 235.07)" id="1M"/><use transform="translate(298.26 234.41)" xlink:href="#G"/><path d="m0 0v-.06l.06-.06v-.06h1.08v-.06l.06-.06h.06l.06-.06v.24h.24v.24h-1.5v-.06h-.06" fill-rule="evenodd" transform="translate(298.26 235.43)" id="1N"/><use transform="translate(299.58 236.75)" xlink:href="#H"/><use transform="translate(297.9 236.21)" xlink:href="#I"/><use transform="translate(299.58 237.89)" xlink:href="#H"/><use transform="translate(297.9 237.35)" xlink:href="#I"/><path d="m0 0l.06-.54v.18l.12.12h.06v.06h.06l.12.06c.12 0 .24 0 .36 0h.06l.06-.06h.06l.06-.06h.06l.06-.06v-.06l.06-.06v-.72l.12.12v.06l.06.06v.24l.06.06-.06.06v.24l-.06.06v.06l-.18.18h-.06l-.06.06h-.06l-.06.06h-.18l-.06.06h-.12l-.06-.06h-.24l-.06-.06h-.06l-.06-.06" fill-rule="evenodd" transform="translate(298.44 239.51)" id="1O"/><use transform="translate(298.26 238.97)" xlink:href="#J"/><path d="m0 0l.06-.06.06.24-.06.06v.12" fill-rule="evenodd" transform="translate(298.44 240.35)" id="1P"/><use transform="translate(0 16.02)" xlink:href="#1J"/><use transform="translate(298.26 240.77)" xlink:href="#K"/><path d="m0 0h.24v.06l-.12.12v.06l-.06.12v.18" fill-rule="evenodd" transform="translate(297.9 242.45)" id="1Q"/><path d="m0 0v-.24l.06-.06v-.12h.06v-.06l.06-.06.06.54v.12l.12.12v.06h.12l.12.06.06-.06h.18l.06-.06h.06l.06-.06.06-.06h.06l.66-.66h.06v-.06h.24v1.26l-.06.06h-.12l-.06-.06v-.9l-.36.3v.06l-.06.06h-.06l-.18.18h-.06l-.12.12h-.06v.06h-.12l-.06.06h-.48l-.06-.06-.06-.06h-.06v-.06h-.06v-.06l-.06-.06v-.24" fill-rule="evenodd" transform="translate(297.72 242.99)"/><g transform="translate(295.14 248.45)"><use xlink:href="#Z"/><g><path d="m0 0l-.78.48c-6.604 2.177-6.604-8.537 0-6.36l.78.48" fill="none" stroke="#000" stroke-linejoin="round" stroke-linecap="round" stroke-width=".24" stroke-miterlimit="10" transform="translate(-9.66 8.4)"/></g></g><use transform="translate(273.9 250.01)" xlink:href="#L"/><path d="m0 0v-.06h.06v-.06h1.5v.24l-.06.06h-1.44v-.06l-.06-.06" fill-rule="evenodd" transform="translate(274.44 251.39)"/><use transform="translate(273.84 251.39)" xlink:href="#M"/><path d="m0 0l.12-.12h.12l.06-.06h.06l.06.06h.06v.6-.24l-.06-.06v-.06h-.06c-.237.012-.119-.059-.3.12l-.06.06" fill-rule="evenodd" transform="translate(275.88 252.05)"/><use transform="translate(275.4 252.89)" xlink:href="#N"/><path d="m0 0l.06-.06h.06l.06-.06h.36v.06h.06l.06.06v.42-.12l-.06-.06v-.06h-.06l-.06-.06h-.24l-.06.06h-.06l-.06.06v.06l-.06.06v.06" fill-rule="evenodd" transform="translate(274.62 252.11)"/><use transform="translate(274.44 252.53)" xlink:href="#O"/><path d="m0 0h.06v.36" fill-rule="evenodd" transform="translate(274.62 253.91)"/><use transform="translate(274.44 254.33)" xlink:href="#P"/><path d="m0 0v-.12h2.22v.24l-.06.06h-1.02l-.24.24v-.24h-.9v-.12" fill-rule="evenodd" transform="translate(273.78 253.73)"/><use transform="translate(275.76 256.07)" xlink:href="#H"/><use transform="translate(274.08 255.53)" xlink:href="#I"/><path d="m0 0v-.06h.24l.06.06v.06l.06.06v.3l.06.06-.06.06c.001.179.0001.342-.12.48l-.06.06v-.66l-.06-.06v-.18l-.06-.06v-.06l-.06-.06" fill-rule="evenodd" transform="translate(275.64 257.15)" id="1R"/><path d="m0 0h.24l-.06.06v.06l-.12.12v.24" fill-rule="evenodd" transform="translate(274.08 257.15)" id="1S"/><path d="m0 0v-.3l.06-.06v-.06l.06-.06.06-.06.06.48v.24l.06.06h.06l.06.06h.24l.06-.06h.06l.06-.06v-.06l.06-.06v-.42h.06v-.06h.12l.06.06v.48l.06.06v.06h.06v.06l.06.06h.06l.06.06h.18l.06-.06h.06l.12-.12v-.12l.06-.06v-.12.6l-.06.06h-.06l-.06.06h-.18l-.06.06-.06-.06h-.18l-.18-.18v-.06l-.06-.06v-.18.06l-.06.06v.06l-.06.06v.06h-.06c-.177.169-.484.169-.66 0h-.06v-.06l-.06-.06-.06-.12v-.18" fill-rule="evenodd" transform="translate(273.9 257.69)"/><use transform="translate(273.9 265.97)" xlink:href="#L"/><use transform="translate(274.44 267.35)" xlink:href="#Q"/><use transform="translate(273.84 267.35)" xlink:href="#M"/><path d="m0 0l.06-.06.06-.06h.12l.06-.06h.06l.06.06h.06v.6-.24l-.06-.06v-.06h-.06c-.237.012-.119-.059-.3.12l-.06.06" fill-rule="evenodd" transform="translate(275.88 268.01)"/><use transform="translate(275.4 268.85)" xlink:href="#N"/><use transform="translate(274.62 268.07)" xlink:href="#R"/><path d="m0 0v-.12l.06-.12v-.06l.06-.06v-.06h.06v.48l.06.06v.06l.06.06v.06h.36l.18-.18v-.54l.06-.06.06-.06h.06l.06-.06h.06l.12.06h.06l.06.06v.06l.06-.06v.66l.06.06v.12l.06.06h.06l.06.06.12-.06c.195-.171.098-.12.12-.42v-.6l.06.06.06.06.06.06v.18l.06.06v.42l-.06.06v.06l-.06.06v.06l-.12.12v.06h-.06l-.06.06h-.24l-.06-.06h-.12v-.06l-.06-.06v-.06l-.06-.06v-.6l-.06-.06v-.06h-.06l-.06-.06-.06.06h-.06v.66l-.12.12h-.06l-.06.06h-.06l-.06.06h-.18l-.06-.06h-.06l-.06-.06v.24h-.18l-.06-.06v-.6" fill-rule="evenodd" transform="translate(274.44 268.49)"/><use transform="translate(274.62 269.87)" xlink:href="#S"/><use transform="translate(274.44 270.29)" xlink:href="#P"/><path d="m0 0v-.12h2.22v.24l-.06.06h-1.02l-.06.06-.12.12-.06.06v-.24h-.9v-.12" fill-rule="evenodd" transform="translate(273.78 269.69)"/><use transform="translate(275.76 272.03)" xlink:href="#H"/><use transform="translate(274.08 271.49)" xlink:href="#I"/><g fill-rule="evenodd"><path d="m0 0l.18-.24h1.14v-.66.9" transform="translate(273.96 274.13)"/><path d="m0 0v-.18h.06v-.06l1.26-.72h.06v-.06h.18l.06.06v.9h.48v.24h-.48v.3h-.18l-.06-.06v-1.14l-1.14.66-.18.24-.06-.06v-.06" transform="translate(273.9 273.95)"/></g><g transform="translate(289.98 255.77)"><path d="m0 0v-3.24h-1.2l-1.14-.24-1.14-.36-1.02-.48" fill="none" stroke="#000" stroke-linejoin="round" stroke-linecap="round" stroke-width=".24" stroke-miterlimit="10"/><g transform="translate(-4.5 1.08)"><path d="m0 0l1.02-.48 1.14-.36 1.14-.24h1.2" fill="none" stroke="#000" stroke-linejoin="round" stroke-linecap="round" stroke-width=".24" stroke-miterlimit="10"/><g transform="translate(7.38-4.32)"><path d="m0 0v3.24" fill="none" stroke="#000" stroke-linejoin="round" stroke-linecap="round" stroke-width=".24" stroke-miterlimit="10" id="1g"/><g transform="translate(.24 2.94)"><use xlink:href="#b"/><g><use xlink:href="#d"/><g transform="translate(-3.12-2.94)"><use xlink:href="#e"/><g transform="translate(2.88)"><use xlink:href="#f"/><g transform="translate(-.78)"><path d="m0 0l.18-.18h.06" fill="none" stroke="#000" stroke-linejoin="round" stroke-linecap="round" stroke-width=".24" stroke-miterlimit="10"/><g transform="translate(.12 3.24)"><path d="m0 0l-.12.12" fill="none" stroke="#000" stroke-linejoin="round" stroke-linecap="round" stroke-width=".24" stroke-miterlimit="10"/><g transform="translate(-.24.12)"><use xlink:href="#j"/><g transform="translate(.12)"><path d="m0 0l-.06.06-.06-.06" fill="none" stroke="#000" stroke-linejoin="round" stroke-linecap="round" stroke-width=".24" stroke-miterlimit="10" id="1l"/><g transform="translate(-.12-3.36)"><use xlink:href="#k"/><g transform="translate(-.42)"><use xlink:href="#h"/><g transform="translate(.12 3.24)"><use xlink:href="#n"/><g transform="translate(-.24.12)"><use xlink:href="#j"/><g transform="translate(.06)"><use xlink:href="#p"/><g transform="translate(-.06-3.36)"><use xlink:href="#k"/><g transform="translate(-.42)"><use xlink:href="#q"/><g transform="translate(.12 3.24)"><use xlink:href="#n"/><g transform="translate(-.24.12)"><use xlink:href="#j"/><g transform="translate(.06)"><use xlink:href="#p"/><g transform="translate(-.06-3.36)"><use xlink:href="#k"/><g transform="translate(-.42)"><use xlink:href="#q"/><g transform="translate(.12 3.24)"><use xlink:href="#n"/><g transform="translate(-.24.12)"><use xlink:href="#j"/><g transform="translate(.06)"><path d="m0 0l-.06.06v-.06" fill="none" stroke="#000" stroke-linejoin="round" stroke-linecap="round" stroke-width=".24" stroke-miterlimit="10" id="1r"/><g transform="translate(.06-3.36)"><use xlink:href="#s"/><g transform="translate(.42)"><use xlink:href="#s"/><g transform="translate(.12)"><use xlink:href="#s"/><g transform="translate(.42)"><use xlink:href="#s"/><g transform="translate(.12)"><use xlink:href="#s"/><g transform="translate(.42)"><use xlink:href="#s"/><g transform="translate(.12)"><use xlink:href="#s"/><g transform="translate(.42)"><use xlink:href="#s"/><g transform="translate(-1.62)"><path d="m0 0h.12" fill="none" stroke="#000" stroke-linejoin="round" stroke-linecap="round" stroke-width=".24" stroke-miterlimit="10"/><g transform="translate(.54)"><use xlink:href="#u"/><g transform="translate(.54)"><use xlink:href="#u"/><g transform="translate(-.18 3.24)"><use xlink:href="#l"/><g transform="translate(-.54)"><use xlink:href="#l"/><g transform="translate(-.54)"><use xlink:href="#l"/><g transform="translate(-.72)"><path d="m0 0h.18" fill="none" stroke="#000" stroke-linejoin="round" stroke-linecap="round" stroke-width=".24" stroke-miterlimit="10"/><g transform="translate(2.22)"><path d="m0 0h.66" fill="none" stroke="#000" stroke-linejoin="round" stroke-linecap="round" stroke-width=".24" stroke-miterlimit="10"/><g transform="translate(1.08-1.32)"><path d="m0 0v-.6l-.18-.18" fill="none" stroke="#000" stroke-linejoin="round" stroke-linecap="round" stroke-width=".24" stroke-miterlimit="10"/><g><use xlink:href="#n"/><g transform="translate(1.86 10.02)"><use xlink:href="#Z"/><g><g transform="translate(-9.66 8.4)"><path d="m0 0l-.78.48c-6.57 2.114-6.647-8.501 0-6.42l.78.54" fill="none" stroke="#000" stroke-linejoin="round" stroke-linecap="round" stroke-width=".24" stroke-miterlimit="10"/><g transform="translate(4.5-1.14)"><use xlink:href="#1d"/><g transform="translate(-4.5 1.14)"><use xlink:href="#1f"/><g transform="translate(7.38-4.32)"><use xlink:href="#1h"/><g transform="translate(.24 2.88)"><path d="m0 0v-2.58l-.24-.3" fill="none" stroke="#000" stroke-linejoin="round" stroke-linecap="round" stroke-width=".24" stroke-miterlimit="10"/><g><use xlink:href="#d"/><g transform="translate(-3.12-2.88)"><use xlink:href="#e"/><g transform="translate(2.88)"><use xlink:href="#f"/><g transform="translate(-.78)"><use xlink:href="#h"/><g transform="translate(.12 3.18)"><use xlink:href="#i"/><g transform="translate(-.24.18)"><use xlink:href="#k"/><g transform="translate(.12)"><use xlink:href="#l"/><g transform="translate(-.12-3.36)"><use xlink:href="#k"/><g transform="translate(-.42)"><use xlink:href="#h"/><g transform="translate(.12 3.18)"><use xlink:href="#o"/><g transform="translate(-.24.18)"><use xlink:href="#k"/><g transform="translate(.06)"><use xlink:href="#r"/><g transform="translate(-.06-3.36)"><use xlink:href="#k"/><g transform="translate(-.42)"><use xlink:href="#q"/><g transform="translate(.12 3.18)"><use xlink:href="#o"/><g transform="translate(-.24.18)"><use xlink:href="#k"/><g transform="translate(.06)"><use xlink:href="#r"/><g transform="translate(-.06-3.36)"><use xlink:href="#k"/><g transform="translate(-.42)"><use xlink:href="#q"/><g transform="translate(.12 3.18)"><use xlink:href="#o"/><g transform="translate(-.42)"><use xlink:href="#1q"/><g transform="translate(.18.18)"><use xlink:href="#1s"/><g transform="translate(.12-3.36)"><use xlink:href="#t"/><g transform="translate(.42)"><use xlink:href="#t"/><g transform="translate(.12)"><use xlink:href="#t"/><g transform="translate(.42)"><use xlink:href="#t"/><g transform="translate(.12)"><use xlink:href="#t"/><g transform="translate(.42)"><use xlink:href="#t"/><g transform="translate(.12)"><use xlink:href="#t"/><g transform="translate(.42)"><use xlink:href="#t"/><g transform="translate(-1.62)"><use xlink:href="#u"/><g transform="translate(.54)"><use xlink:href="#u"/><g transform="translate(.54)"><use xlink:href="#u"/><g transform="translate(-.18 3.18)"><use xlink:href="#l"/><g transform="translate(-.54)"><use xlink:href="#l"/><g transform="translate(-.54)"><use xlink:href="#l"/><g transform="translate(-.72)"><use xlink:href="#v"/><g transform="translate(2.22)"><use xlink:href="#w"/><g transform="translate(1.08-1.26)"><use xlink:href="#x"/><g><use xlink:href="#n"/><g transform="translate(1.86-37.98)"><use xlink:href="#Z"/><g><path d="m0 0l-.78.54c-6.626 2.044-6.596-8.523 0-6.42l.78.48" fill="none" stroke="#000" stroke-linejoin="round" stroke-linecap="round" stroke-width=".24" stroke-miterlimit="10" transform="translate(-9.66 8.34)"/></g></g></g></g></g></g></g></g></g></g></g></g></g></g></g></g></g></g></g></g></g></g></g></g></g></g></g></g></g></g></g></g></g></g></g></g></g></g></g></g></g></g></g></g></g></g></g></g></g></g></g></g></g></g></g></g></g></g></g></g></g></g></g></g></g></g></g></g></g></g></g></g></g></g></g></g></g></g></g></g></g></g></g></g></g></g></g></g></g></g></g></g></g><use transform="translate(273.9 234.05)" xlink:href="#L"/><use transform="translate(274.44 235.43)" xlink:href="#Q"/><use transform="translate(273.84 235.43)" xlink:href="#M"/><path d="m0 0l.12-.12h.12l.06-.06h.06l.06.06h.06v.6-.24l-.06-.06v-.06h-.06c-.237.012-.119-.059-.3.12l-.06.06" fill-rule="evenodd" transform="translate(275.88 236.09)" id="1T"/><use transform="translate(275.4 236.93)" xlink:href="#N"/><use transform="translate(274.62 236.15)" xlink:href="#R"/><use transform="translate(274.44 236.57)" xlink:href="#O"/><use transform="translate(274.62 237.95)" xlink:href="#S"/><use transform="translate(274.44 238.37)" xlink:href="#P"/><path d="m0 0v-.12h2.22v.24l-.06.06h-1.02l-.18.18-.06.06v-.24h-.9v-.12" fill-rule="evenodd" transform="translate(273.78 237.77)" id="1U"/><use transform="translate(275.76 240.11)" xlink:href="#H"/><use transform="translate(274.08 239.57)" xlink:href="#I"/><use transform="translate(-23.82-1.26)" xlink:href="#1Q"/><path d="m0 0v-.24l.06-.06v-.12h.06v-.06l.06-.06.06.54v.12l.12.12v.06h.12l.12.06.06-.06h.18l.06-.06h.06l.12-.12h.06l.66-.66h.06v-.06h.24v1.26l-.06.06h-.12l-.06-.06v-.9l-.36.3v.06l-.06.06h-.06l-.18.18h-.06l-.12.12h-.06v.06h-.12l-.06.06h-.48l-.12-.12h-.06v-.06h-.06v-.06l-.06-.06v-.24" fill-rule="evenodd" transform="translate(273.9 241.73)"/><g transform="translate(289.98 239.75)"><path d="m0 0v-3.24h-1.2l-1.14-.18-1.14-.36-1.02-.54" fill="none" stroke="#000" stroke-linejoin="round" stroke-linecap="round" stroke-width=".24" stroke-miterlimit="10"/><g transform="translate(-4.5 1.08)"><path d="m0 0l1.02-.48 1.14-.36 1.14-.18 1.2-.06" fill="none" stroke="#000" stroke-linejoin="round" stroke-linecap="round" stroke-width=".24" stroke-miterlimit="10"/><g transform="translate(7.38-4.32)"><use xlink:href="#1g"/><g transform="translate(.24 2.94)"><use xlink:href="#b"/><g><use xlink:href="#d"/><g transform="translate(-3.12-2.94)"><use xlink:href="#e"/><g transform="translate(2.88)"><path d="m0 0h-.36l-.18-.12" fill="none" stroke="#000" stroke-linejoin="round" stroke-linecap="round" stroke-width=".24" stroke-miterlimit="10"/><g transform="translate(-.78)"><path d="m0 0l.18-.12.06-.06v.06" fill="none" stroke="#000" stroke-linejoin="round" stroke-linecap="round" stroke-width=".24" stroke-miterlimit="10"/><g transform="translate(.12 3.24)"><use xlink:href="#i"/><g transform="translate(-.24.18)"><path d="m0 0l-.18-.18" fill="none" stroke="#000" stroke-linejoin="round" stroke-linecap="round" stroke-width=".24" stroke-miterlimit="10"/><g transform="translate(.12)"><use xlink:href="#l"/><g transform="translate(-.12-3.42)"><use xlink:href="#j"/><g transform="translate(-.42)"><path d="m0 0l.18-.12v-.06l.06.06" fill="none" stroke="#000" stroke-linejoin="round" stroke-linecap="round" stroke-width=".24" stroke-miterlimit="10"/><g transform="translate(.12 3.24)"><path d="m0 0l-.18.18" fill="none" stroke="#000" stroke-linejoin="round" stroke-linecap="round" stroke-width=".24" stroke-miterlimit="10"/><g transform="translate(-.24.18)"><use xlink:href="#k"/><g transform="translate(.06)"><path d="m0 0h-.06" fill="none" stroke="#000" stroke-linejoin="round" stroke-linecap="round" stroke-width=".24" stroke-miterlimit="10"/><g transform="translate(-.06-3.42)"><use xlink:href="#j"/><g transform="translate(-.42)"><path d="m0 0l.18-.18.06.06" fill="none" stroke="#000" stroke-linejoin="round" stroke-linecap="round" stroke-width=".24" stroke-miterlimit="10"/><g transform="translate(.12 3.24)"><use xlink:href="#o"/><g transform="translate(-.24.18)"><use xlink:href="#k"/><g transform="translate(.06)"><use xlink:href="#r"/><g transform="translate(-.06-3.42)"><use xlink:href="#j"/><g transform="translate(-.42)"><path d="m0 0l.18-.18.06.06" fill="none" stroke="#000" stroke-linejoin="round" stroke-linecap="round" stroke-width=".24" stroke-miterlimit="10"/><g transform="translate(.12 3.24)"><use xlink:href="#o"/><g transform="translate(-.42)"><path d="m0 0l.18.18h.06" fill="none" stroke="#000" stroke-linejoin="round" stroke-linecap="round" stroke-width=".24" stroke-miterlimit="10" id="1q"/><g transform="translate(.18.18)"><path d="m0 0v.06" fill="none" stroke="#000" stroke-linejoin="round" stroke-linecap="round" stroke-width=".24" stroke-miterlimit="10" id="1s"/><g transform="translate(.12-3.42)"><use xlink:href="#s"/><g transform="translate(.42)"><use xlink:href="#s"/><g transform="translate(.12)"><use xlink:href="#s"/><g transform="translate(.42)"><use xlink:href="#s"/><g transform="translate(.12)"><use xlink:href="#s"/><g transform="translate(.42)"><use xlink:href="#s"/><g transform="translate(.12)"><use xlink:href="#s"/><g transform="translate(.42)"><use xlink:href="#s"/><g transform="translate(-1.62)"><use xlink:href="#u"/><g transform="translate(.54)"><use xlink:href="#u"/><g transform="translate(.54)"><use xlink:href="#u"/><g transform="translate(-.18 3.24)"><use xlink:href="#l"/><g transform="translate(-.54)"><use xlink:href="#l"/><g transform="translate(-.54)"><use xlink:href="#l"/><g transform="translate(-.72)"><use xlink:href="#v"/><g transform="translate(2.22)"><use xlink:href="#w"/><g transform="translate(1.08-1.26)"><use xlink:href="#x"/><g><use xlink:href="#n"/><g transform="translate(1.86-22.02)"><use xlink:href="#Z"/><g><path d="m0 0l-.78.48c-6.57 2.151-6.628-8.535 0-6.42l.78.54" fill="none" stroke="#000" stroke-linejoin="round" stroke-linecap="round" stroke-width=".24" stroke-miterlimit="10" transform="translate(-9.66 8.4)"/></g></g></g></g></g></g></g></g></g></g></g></g></g></g></g></g></g></g></g></g></g></g></g></g></g></g></g></g></g></g></g></g></g></g></g></g></g></g></g></g></g></g></g></g></g></g><use transform="translate(273.9 218.03)" xlink:href="#L"/><use transform="translate(274.44 219.41)" xlink:href="#Q"/><use transform="translate(273.84 219.41)" xlink:href="#M"/><use transform="translate(0-16.02)" xlink:href="#1T"/><use transform="translate(275.4 220.91)" xlink:href="#N"/><use transform="translate(274.62 220.13)" xlink:href="#R"/><use transform="translate(274.44 220.55)" xlink:href="#O"/><use transform="translate(274.62 221.93)" xlink:href="#S"/><use transform="translate(274.44 222.35)" xlink:href="#P"/><use transform="translate(0-16.02)" xlink:href="#1U"/><use transform="translate(275.76 224.09)" xlink:href="#H"/><use transform="translate(274.08 223.55)" xlink:href="#I"/><path d="m0 0l.24-.3h1.56v-.48h.24v1.2h-.18l-.06-.06v-.36" fill-rule="evenodd" transform="translate(273.96 226.01)"/><use transform="translate(-23.82-1.26)" xlink:href="#1K"/><g transform="translate(289.98 223.73)"><path d="m0 0v-3.18l-1.2-.06-1.14-.18-1.14-.36-1.02-.48" fill="none" stroke="#000" stroke-linejoin="round" stroke-linecap="round" stroke-width=".24" stroke-miterlimit="10" id="1d"/><g transform="translate(-4.5 1.14)"><path d="m0 0l1.02-.54 1.14-.36 1.14-.18 1.2-.06" fill="none" stroke="#000" stroke-linejoin="round" stroke-linecap="round" stroke-width=".24" stroke-miterlimit="10" id="1f"/><g transform="translate(7.38-4.32)"><path d="m0 0v3.18" fill="none" stroke="#000" stroke-linejoin="round" stroke-linecap="round" stroke-width=".24" stroke-miterlimit="10" id="1h"/><g transform="translate(.24 2.94)"><use xlink:href="#b"/><g><path d="m0 0l-.24.24" fill="none" stroke="#000" stroke-linejoin="round" stroke-linecap="round" stroke-width=".24" stroke-miterlimit="10"/><g transform="translate(-3.12-2.94)"><use xlink:href="#e"/><g transform="translate(2.88)"><use xlink:href="#f"/><g transform="translate(-.78)"><use xlink:href="#h"/><g transform="translate(.12 3.18)"><use xlink:href="#i"/><g transform="translate(-.24.18)"><use xlink:href="#k"/><g transform="translate(.12)"><use xlink:href="#1l"/><g transform="translate(-.12-3.36)"><use xlink:href="#k"/><g transform="translate(-.42)"><use xlink:href="#h"/><g transform="translate(.12 3.18)"><use xlink:href="#o"/><g transform="translate(-.24.18)"><use xlink:href="#k"/><g transform="translate(.06)"><use xlink:href="#p"/><g transform="translate(-.06-3.36)"><use xlink:href="#k"/><g transform="translate(-.42)"><use xlink:href="#q"/><g transform="translate(.12 3.18)"><use xlink:href="#o"/><g transform="translate(-.24.18)"><use xlink:href="#k"/><g transform="translate(.06)"><use xlink:href="#p"/><g transform="translate(-.06-3.36)"><use xlink:href="#k"/><g transform="translate(-.42)"><use xlink:href="#q"/><g transform="translate(.12 3.18)"><use xlink:href="#o"/><g transform="translate(-.24.18)"><use xlink:href="#k"/><g transform="translate(.06)"><use xlink:href="#1r"/><g transform="translate(.06-3.36)"><path d="m0 0l-.3 3.18" fill="none" stroke="#000" stroke-linejoin="round" stroke-linecap="round" stroke-width=".24" stroke-miterlimit="10"/><g transform="translate(.42)"><use xlink:href="#t"/><g transform="translate(.12)"><use xlink:href="#t"/><g transform="translate(.42)"><use xlink:href="#t"/><g transform="translate(.12)"><use xlink:href="#t"/><g transform="translate(.42)"><use xlink:href="#t"/><g transform="translate(.12)"><use xlink:href="#t"/><g transform="translate(.42)"><use xlink:href="#t"/><g transform="translate(-1.62)"><use xlink:href="#u"/><g transform="translate(.54)"><use xlink:href="#u"/><g transform="translate(.54)"><use xlink:href="#u"/><g transform="translate(-.18 3.18)"><use xlink:href="#l"/><g transform="translate(-.54)"><use xlink:href="#l"/><g transform="translate(-.54)"><use xlink:href="#l"/><g transform="translate(-.72)"><use xlink:href="#v"/><g transform="translate(2.22)"><use xlink:href="#w"/><g transform="translate(1.08-1.26)"><use xlink:href="#x"/><g><use xlink:href="#n"/><g transform="translate(18.9 25.98)"><use xlink:href="#1i"/><g><path d="m0 0l-.9-.12-.84-.36c-2.813-1.798-2.175-5.532.84-6.48l.9-.12.9.12c3.046.769 3.557 4.864.9 6.48l-.9.36-.9.12" fill="none" stroke="#000" stroke-linejoin="round" stroke-linecap="round" stroke-width=".24" stroke-miterlimit="10" transform="translate(-5.7 9.24)"/></g></g></g></g></g></g></g></g></g></g></g></g></g></g></g></g></g></g></g></g></g></g></g></g></g></g></g></g></g></g></g></g></g></g></g></g></g></g></g></g></g></g></g></g></g></g><use transform="translate(298.86 249.77)" xlink:href="#E"/><use transform="translate(0 16.02)" xlink:href="#1L"/><use transform="translate(297.72 249.11)" xlink:href="#F"/><use transform="translate(0 16.02)" xlink:href="#1M"/><use transform="translate(298.26 250.43)" xlink:href="#G"/><use transform="translate(0 16.02)" xlink:href="#1N"/><use transform="translate(299.58 252.77)" xlink:href="#H"/><use transform="translate(297.9 252.23)" xlink:href="#I"/><use transform="translate(299.58 253.91)" xlink:href="#H"/><use transform="translate(297.9 253.37)" xlink:href="#I"/><use transform="translate(0 16.02)" xlink:href="#1O"/><use transform="translate(298.26 254.99)" xlink:href="#J"/><use transform="translate(0 16.02)" xlink:href="#1P"/><path d="m0 0v-.06h.06v-.06h1.5v.24l-.06.06h-1.02l-.18.18-.06-.24h-.18l-.06-.06" fill-rule="evenodd" transform="translate(298.26 256.19)"/><use transform="translate(298.26 256.79)" xlink:href="#K"/><use transform="translate(23.82 1.32)" xlink:href="#1R"/><use transform="translate(23.82 1.32)" xlink:href="#1S"/><path d="m0 0v-.3l.06-.06v-.06l.12-.12.06.48v.24l.06.06h.06l.06.06h.24l.06-.06h.06l.06-.06v-.06l.06-.06v-.42h.06v-.06h.12l.06.06v.48l.06.06v.06h.06v.06l.06.06h.06l.06.06h.18l.06-.06h.06l.12-.12v-.12l.06-.06v-.12.6l-.06.06h-.06l-.06.06h-.18l-.06.06-.06-.06h-.18l-.18-.18v-.06l-.06-.06v-.18.06l-.06.06v.06l-.06.06v.06h-.06c-.177.169-.484.169-.66 0h-.06v-.06l-.06-.06-.06-.12v-.18" fill-rule="evenodd" transform="translate(297.72 259.01)"/><g fill="none" stroke="#000" stroke-linejoin="round" stroke-linecap="round" stroke-miterlimit="10"><path d="m0 0v-75.84l.06-.54.3-.42.48-.3.54-.12" stroke-width=".72" transform="translate(260.34 651.83)"/><g transform="translate(263.76 650.75)" stroke-width=".24"><path d="m0 0v-73.62l.12-.24.24-.06"/><g transform="translate(41.52-73.74)"><path d="m0 0v74.1"/><g transform="translate(.3.3)"><path d="m0 0v73.44"/><path d="m0 0v76.14" transform="translate(3.48-1.38)"/></g></g></g><path d="m0 0l.48.12.36.36" stroke-width=".72" transform="translate(308.04 574.91)"/><path d="m0 0l.18.54" stroke-width=".24" transform="translate(308.88 575.39)"/></g><path d="m0 0v.42" fill="none" stroke="#000" stroke-linejoin="round" stroke-linecap="round" stroke-width=".72" stroke-miterlimit="10" transform="translate(318.6 567.71)" id="1V"/><path d="m0 0v91.5" fill="none" stroke="#000" stroke-linejoin="round" stroke-linecap="round" stroke-width=".24" stroke-miterlimit="10" transform="translate(318.6 568.13)"/><use transform="translate(0 91.92)" xlink:href="#1V"/><path d="m0 0v101.34" fill="none" stroke="#000" stroke-linejoin="round" stroke-linecap="round" stroke-width=".24" stroke-miterlimit="10" transform="translate(324.84 563.03)" id="1W"/><g fill="none" stroke="#000" stroke-linejoin="round" stroke-linecap="round" stroke-miterlimit="10"><path d="m0 0l.24-.06" stroke-width=".72" transform="translate(324.3 562.79)"/><path d="m0 0l.24.06.06.24" stroke-width=".24" transform="translate(324.54 562.73)"/><g transform="translate(328.02 568.91)" stroke-width=".72"><path d="m0 0v88.02"/><g transform="translate(-66.3 5.7)"><path d="m0 0l18.66.12"/><path d="m0 0l26.22.12" transform="translate(20.1.18)"/></g></g><g transform="translate(264.12 576.83)" stroke-width=".24"><path d="m0 0l15.66.06"/><g transform="translate(18.3.06)"><path d="m0 0l22.8.12.24.06.12.24"/><g transform="translate(-18.3 74.22)"><path d="m0 0h41.1"/><g transform="translate(41.46-.36)"><path d="m0 0l-.12.24-.24.12"/><path d="m0 0l-.24-.12-.12-.24" transform="translate(-41.46.36)"/></g></g></g></g><path d="m0 0l-46.38.12" stroke-width=".72" transform="translate(308.04 653.09)"/><path d="m0 0l-.06.42-.3.36" stroke-width=".24" transform="translate(309.06 652.07)"/><g transform="translate(308.7 652.85)" stroke-width=".72"><path d="m0 0l-.66.24"/><g transform="translate(-47.04.36)"><path d="m0 0l-.48-.12-.48-.3-.3-.42-.06-.54"/><g transform="translate(48.72-78.54)"><path d="m0 0l1.26-1.08"/><g transform="translate(8.22-6.96)"><path d="m0 0l5.7-4.92"/><g transform="translate(-8.34 85.74)"><path d="m0 0l1.38 1.14"/><path d="m0 0l5.7 4.56" transform="translate(8.34 6.6)"/></g></g></g></g></g><path d="m0 0l-.06.24-.24.06" stroke-width=".24" transform="translate(324.84 664.37)"/><g transform="translate(324.54 664.67)" stroke-width=".72"><path d="m0 0l-.24-.06"/><path d="m0 0l1.74-7.38.06-.06" transform="translate(1.68-.3)"/></g></g><g transform="translate(318.96 614.69)"><path d="m0 0v-22.68l.06-.3.24-.18" fill="none" stroke="#000" stroke-linejoin="round" stroke-linecap="round" stroke-width=".24" stroke-miterlimit="10"/><g transform="translate(4.62-24.6)"><path d="m0 0v24.6" fill="none" stroke="#000" stroke-linejoin="round" stroke-linecap="round" stroke-width=".24" stroke-miterlimit="10"/><g transform="translate(-.84 25.08)"><path d="m0 0v-25.08" fill="none" stroke="#000" stroke-linejoin="round" stroke-linecap="round" stroke-width=".24" stroke-miterlimit="10"/><g transform="translate(-3.48-23.64)"><path d="m0 0l3.96-1.68h.18l.12.12.06.12" fill="none" stroke="#000" stroke-linejoin="round" stroke-linecap="round" stroke-width=".24" stroke-miterlimit="10"/><g transform="translate(3.48 11.28)"><path d="m0 0l.84-.18" fill="none" stroke="#000" stroke-linejoin="round" stroke-linecap="round" stroke-width=".24" stroke-miterlimit="10" id="1j"/><g transform="translate(0-.18)"><use xlink:href="#1j"/><g transform="translate(-3.3 12.6)" fill="none" stroke="#000" stroke-linejoin="round" stroke-linecap="round" stroke-width=".24" stroke-miterlimit="10"><path d="m0 0l3.66-.06"/><g transform="translate(4.14-.54)"><path d="m0 0l-.06.24-.18.18-.24.06"/><g transform="translate(-4.14.54)"><path d="m0 0l-.24-.12-.18-.18-.06-.24"/><path d="m0 0v78.24" transform="translate(-10.02-40.26)"/></g></g></g></g></g></g></g></g></g><g transform="translate(309.42 653.21)" fill="none" stroke="#000" stroke-linejoin="round" stroke-linecap="round" stroke-width=".72" stroke-miterlimit="10"><path d="m0 0l.84.24"/><g transform="translate(.96-78.54)"><path d="m0 0l-.42.18-.54.12-.54.42"/><g transform="translate(-.96 78.54)"><path d="m0 0l-.72-.36"/><path d="m0 0l1.74 5.82.06.06" transform="translate(16.8-90.18)"/></g></g></g><use transform="translate(1.38)" xlink:href="#1W"/><g fill="none" stroke="#000" stroke-linejoin="round" stroke-linecap="round" stroke-miterlimit="10"><g transform="translate(325.86 562.73)" stroke-width=".72"><path d="m0 0l.24.06.12.24"/><g transform="translate(.36 101.64)"><path d="m0 0l-.12.24-.24.06h-1.32"/><g transform="translate(-1.68-101.64)"><path d="m0 0h1.32"/><g transform="translate(-5.94 5.4)"><path d="m0 0l-6.06 5.1-.42.24-.48.12"/><path d="m0 0l6.18 4.86" transform="translate(-6.18 86.64)"/></g></g></g></g><path d="m0 0v81" stroke-width=".24" transform="translate(311.64 573.59)"/><path d="m0 0l.78.18" stroke-width=".72" transform="translate(311.64 654.59)"/></g><g transform="translate(312.12 578.63)"><path d="m0 0v55.02" fill="none" stroke="#000" stroke-linejoin="round" stroke-linecap="round" stroke-width=".24" stroke-miterlimit="10"/><g transform="translate(0 70.68)"><path d="m0 0v-13.92l.12-.18.24-.06" fill="none" stroke="#000" stroke-linejoin="round" stroke-linecap="round" stroke-width=".24" stroke-miterlimit="10"/><g transform="translate(0-70.68)"><path d="m0 0l.06-.24.12-.18" fill="none" stroke="#000" stroke-linejoin="round" stroke-linecap="round" stroke-width=".24" stroke-miterlimit="10"/><g transform="translate(5.46 74.7)"><path d="m0 0l-5.22-3.54-.18-.24-.06-.24" fill="none" stroke="#000" stroke-linejoin="round" stroke-linecap="round" stroke-width=".24" stroke-miterlimit="10"/><g transform="translate(.24-.18)"><path d="m0 0l-.06.12-.06.06h-.12" fill="none" stroke="#000" stroke-linejoin="round" stroke-linecap="round" stroke-width=".24" stroke-miterlimit="10"/><g transform="translate(-5.52-74.94)"><path d="m0 0l5.28-3.78.12-.06.06.06.06.12v61.44" fill="none" stroke="#000" stroke-linejoin="round" stroke-linecap="round" stroke-width=".24" stroke-miterlimit="10"/><g transform="translate(5.52 59.52)"><path d="m0 0v15.42" fill="none" stroke="#000" stroke-linejoin="round" stroke-linecap="round" stroke-width=".24" stroke-miterlimit="10" id="1k"/><g transform="translate(.54 15.42)"><path d="m0 0l-.06.12-.12.06" fill="none" stroke="#000" stroke-linejoin="round" stroke-linecap="round" stroke-width=".24" stroke-miterlimit="10"/><g transform="translate(-.18-78.78)"><path d="m0 0l.12.06.06.12v61.44" fill="none" stroke="#000" stroke-linejoin="round" stroke-linecap="round" stroke-width=".24" stroke-miterlimit="10"/><g transform="translate(.18 63.36)"><use xlink:href="#1k"/><g transform="translate(-.72 15.6)"><path d="m0 0h.54" fill="none" stroke="#000" stroke-linejoin="round" stroke-linecap="round" stroke-width=".24" stroke-miterlimit="10"/><g transform="translate(0-78.96)"><use xlink:href="#m"/><g transform="translate(-5.16 60.78)"><path d="m0 0l5.04 2.1.24.18.06.3" fill="none" stroke="#000" stroke-linejoin="round" stroke-linecap="round" stroke-width=".24" stroke-miterlimit="10"/><g transform="translate(.48)"><path d="m0 0l5.1 2.1" fill="none" stroke="#000" stroke-linejoin="round" stroke-linecap="round" stroke-width=".24" stroke-miterlimit="10"/><g transform="translate(-.54-1.02)"><path d="m0 0l5.04 2.1" fill="none" stroke="#000" stroke-linejoin="round" stroke-linecap="round" stroke-width=".24" stroke-miterlimit="10"/><g transform="translate(5.4 1.86)"><path d="m0 0l-.12.18-.24.06" fill="none" stroke="#000" stroke-linejoin="round" stroke-linecap="round" stroke-width=".24" stroke-miterlimit="10"/><g transform="translate(-5.4-1.86)"><path d="m0 0l-.24-.18-.06-.3" fill="none" stroke="#000" stroke-linejoin="round" stroke-linecap="round" stroke-width=".24" stroke-miterlimit="10"/><g transform="translate(5.4 1.86)"><path d="m0 0h.54l-.06.18-.18.06h-.54" fill="none" stroke="#000" stroke-linejoin="round" stroke-linecap="round" stroke-width=".24" stroke-miterlimit="10"/><g transform="translate(0 1.74)"><use xlink:href="#m"/><g transform="translate(.24-.48)"><path d="m0 0l.18.18.12.3" fill="none" stroke="#000" stroke-linejoin="round" stroke-linecap="round" stroke-width=".24" stroke-miterlimit="10"/><g transform="translate(-.54)"><use xlink:href="#m"/><g transform="translate(-5.16-2.1)"><path d="m0 0h.6" fill="none" stroke="#000" stroke-linejoin="round" stroke-linecap="round" stroke-width=".24" stroke-miterlimit="10"/><g transform="translate(5.46 18)"><use xlink:href="#m"/><g transform="translate(7.02 11.22)"><path d="m0 0h1.38" fill="none" stroke="#000" stroke-linejoin="round" stroke-linecap="round" stroke-width=".24" stroke-miterlimit="10" id="1p"/><g transform="translate(0-101.34)"><use xlink:href="#1p"/><use transform="translate(-7.02 11.52)" xlink:href="#m"/></g></g></g></g></g></g></g></g></g></g></g></g></g></g></g></g></g></g></g></g></g></g></g></g></g><use transform="translate(-7.26 406.08)" xlink:href="#y"/><use transform="translate(274.92 589.85)" xlink:href="#4"/><use transform="translate(272.04 589.73)" xlink:href="#T"/><path d="m0 0v-.3l.06-.18v-.12l.06-.18h.06l.06-.18.12-.18.06-.12.18-.12v-.06l.18-.06.12-.12.18-.06.18-.06.18-.06.18-.06h.18l-.06.72h-.12l-.18.06h-.12l-.24.12-.18.12-.18.18-.06.18-.06.06-.06.18v1.56l-.12-.12c-.28-.273-.309-.5-.42-.84v-.18" fill-rule="evenodd" transform="translate(271.5 588.41)"/><use transform="translate(274.86 591.05)" xlink:href="#U"/><g fill-rule="evenodd"><path d="m0 0l.12-1.02v.18l.06.18.06.12.12.36.06.12-.06.06h-.06l-.18.06" transform="translate(271.92 593.45)"/><path d="m0 0v-.3l.06-.18v-.12l.12-.18.06-.12.12-.18.18-.18.18-.06.06-.06c.345-.036.723-.076 1.02.18l.12.12.12.12.12.18.06.18.12.18.12.36.06.12.06.18.3.3c.407.018.453-.002.72-.3l.06-.18.06-.12v-.18 1.32l-.18.06c-.319.123-.437.193-.78.06h-.18v-.06l-.18-.06-.12-.12v-.06l-.12-.12-.12-.18-.12-.36h-.06l-.06-.18-.06-.18c-.22-.492-.018-.188-.42-.6h-.24c-.403.079-.387.199-.54.54v.18l-.12 1.02h-.12l-.06-.06-.06-.12-.06-.06-.06-.18v-.12l-.06-.18v-.12" transform="translate(271.5 592.43)"/><path d="m0 0l.18-.12v.96l-.06.12" transform="translate(271.98 595.55)"/><path d="m0 0v-.12c-.056-.343.221-.576.36-.84l.12-.18.12.96v.06l.06.18c.195.36.009.331.42.48l.36.12h2.7l.06.06v.6l-.06.06h-2.82l-.18-.06h-.18l-.18-.06-.18-.12-.12-.06-.18-.12-.06-.18-.12-.12-.06-.12-.06-.18v-.18" transform="translate(271.5 596.69)"/><path d="m0 0v-.18l.06-.12.06-.06h5.88l.06.06v.6l-.06.06h-2.76l-.12.06-.48.48v.06l-.12.18v-.78h-2.4l-.06-.06-.06-.12" transform="translate(269.64 595.07)"/></g><path d="m0 0l.06-.18v-.18l.12 1.02-.12.12" fill-rule="evenodd" transform="translate(275.16 600.95)" id="1X"/><path d="m0 0l.12-.12.12-.06.06-.06.18-.06h.66l.18.06.12.06.24.24.06.12.12.12.06.18.06.18v.72l-.06.18-.06.12-.12.18-.06.12-.12.18-.12-1.02v-.24l-.06-.18-.24-.24-.18-.06h-.36l-.12.06c-.32.165-.483.531-.42.9v.78" fill-rule="evenodd" transform="translate(273.78 599.45)" id="1Y"/><path d="m0 0h.36l.06.06v.06l-.06.18-.06.06-.06.18v.06l-.06.12-.06.18-.06.12v.36" fill-rule="evenodd" transform="translate(272.04 599.33)" id="1Z"/><path d="m0 0v-.06c.114-.787-.014-.639.42-1.32l.12-.06.06 1.38v.3l.06.12.06.18.06.12.12.06.18.06.06.06h.66v-.54c-.029-.405.055-.899.24-1.26l.06-.18h.06l.12-.18.06 2.16h.78l.48-.48v-.06l.06-.12.06.78h.48v.54l-.12.06h-2.94l-.18-.06h-.12l-.18-.06-.18-.12-.24-.24-.06-.18-.12-.18v-.12l-.06-.18v-.18" fill-rule="evenodd" transform="translate(271.5 600.77)"/><use transform="translate(-17.1 414.06)" xlink:href="#14"/><use transform="translate(-17.1 414.06)" xlink:href="#15"/><g fill-rule="evenodd"><path d="m0 0v-.18c.052-.335.241-.611.42-.9l.12-.12.06 1.02v.06l.06.18c.195.36.001.331.42.48l.18.06.18.06h2.7l.06.06v.6l-.06.06h-2.82l-.18-.06h-.18l-.18-.06-.18-.12-.12-.06-.18-.12-.06-.18-.12-.12-.06-.12-.06-.18v-.18" transform="translate(271.5 605.63)"/><path d="m0 0v-.18l.06-.12v-.06l.06-.06h5.22l.12.06.12.06.06.18v2.58h-.06l-.12.06h-.3l-.12-.06-.06-.12v-1.98h-4.92v-.06l-.06-.12" transform="translate(270.06 610.79)"/></g><use transform="translate(-7.26 433.32)" xlink:href="#z"/><use transform="translate(-7.26 433.32)" xlink:href="#10"/><use transform="translate(-7.26 433.32)" xlink:href="#11"/><use transform="translate(-7.26 433.32)" xlink:href="#12"/><use transform="translate(270.54 626.69)" xlink:href="#1"/><use transform="translate(270.54 623.39)" xlink:href="#3"/><use transform="translate(270.06 622.73)" xlink:href="#2"/><path d="m0 0v-.54l.06-.18.06-.12.18-.12v-.06l.18-.06.18.66h4.92l.06.06v.6l-.06.06h-5.34l-.12-.06-.06-.12" fill-rule="evenodd" transform="translate(270.06 627.77)" id="1a"/><use transform="translate(-7.26 433.32)" xlink:href="#13"/><g fill-rule="evenodd"><path d="m0 0v-.12c.037-.477.186-.999.54-1.32l.06-.06.06 1.44v.06l.06.18v.18l.12.18.12.12.12.06.12.12h.06l.12.06h.42l.18-.06h.12l.18-.06.18-.12.12-.06c.271-.135.52-.312.72-.54l.18-.12.12-.12c.521-.501.961-1.132 1.62-1.44h.18l.12.06h.12l.06.12v3.24l-.06.06-.12.06h-.3l-.18-.18v-2.46l-.96.96c-.446.45-1.158 1.042-1.74 1.26l-.36.12h-.18c-.31.042-.596.052-.9-.06l-.18-.12-.18-.06-.18-.18-.06-.12-.12-.18-.06-.18-.06-.12v-.18l-.06-.18" transform="translate(270 630.89)"/><path d="m0 0l4.08-1.68.96-.42.12.12v.54l-.06.06-.06.06-4.86 1.98" transform="translate(270.54 638.75)"/></g><use transform="translate(270.54 635.45)" xlink:href="#3"/><use transform="translate(270.06 634.79)" xlink:href="#2"/><use transform="translate(0 12.06)" xlink:href="#1a"/><use transform="translate(284.58 583.25)" xlink:href="#U"/><path d="m0 0l.12-1.02v.18l.06.18.06.12.06.18.06.18.06.12-.06.06h-.06l-.18.06" fill-rule="evenodd" transform="translate(281.64 585.65)" id="1b"/><path d="m0 0v-.3l.06-.18v-.12l.12-.18.06-.12.12-.18.06-.06.12-.12.18-.06.06-.06c.345-.036.723-.076 1.02.18l.24.24.12.18.06.18.12.18.12.36.06.12.06.18.24.24.06.06c.406.018.453-.002.72-.3l.06-.18.06-.12v-.18 1.32l-.18.06c-.319.123-.437.194-.78.06h-.18v-.06l-.18-.06-.12-.12v-.06l-.12-.12-.12-.18-.06-.18-.06-.18h-.06l-.06-.18-.06-.18c-.22-.492-.018-.188-.42-.6h-.24c-.403.079-.387.199-.54.54v.18l-.12 1.02h-.12l-.06-.06-.06-.12-.06-.06-.06-.18v-.12l-.06-.18v-.12" fill-rule="evenodd" transform="translate(281.22 584.63)"/><use transform="translate(284.64 589.97)" xlink:href="#4"/><g fill-rule="evenodd"><path d="m0 0v-1.38.06c-.051.299.148.542.36.72v.06l.18.06.12.06.18.06h.18l.18.06v-2.16l.06-.72h.18c.567-.023 1.331.042 1.74.48v1.5-.06l-.06-.18v-.18l-.06-.18-.06-.12-.12-.12-.24-.24-.12-.06-.18-.06h-.06l-.18-.06h-.36v2.64l-.06.12-.06.06-.18.06h-.18l-.18-.06h-.36l-.12-.06-.18-.06-.12-.06-.18-.06" transform="translate(281.76 589.85)"/><path d="m0 0v-.3l.06-.18v-.12l.06-.18h.06l.06-.18.12-.18.06-.12.18-.12v-.06l.18-.06.12-.12.72-.24h.18l-.06.72h-.12l-.18.06h-.12l-.24.12-.18.12-.18.18-.06.18-.06.06-.06.18v1.56l-.12-.12c-.28-.273-.309-.5-.42-.84v-.18" transform="translate(281.22 588.53)"/></g><use transform="translate(281.82 593.63)" xlink:href="#V"/><path d="m0 0v-.24l.06-.06h4.02l.06.06v.6l-.06.06h-2.64l-.12.06-.24.24-.18.12-.12.12-.06.06v-.66h-.66l-.06-.06v-.12" fill-rule="evenodd" transform="translate(281.28 591.65)"/><use transform="translate(281.22 593.09)" xlink:href="#W"/><path d="m0 0v-.3l.06-.06.06-.06 3.24-1.08h.06l.6-.54.06.06.06.12c0 .22 0 .44 0 .66l-.06.12-.06.06-3.72 1.32h-.24l-.06-.06v-.06" fill-rule="evenodd" transform="translate(281.28 597.35)"/><path d="m0 0v-.24l.06-.06.06-.06.06.06h.12l3.72 1.32-.6.54h-.06l-3.24-1.14h-.06l-.06-.06v-.18" fill-rule="evenodd" transform="translate(281.28 594.29)" id="1c"/><use transform="translate(284.64 601.55)" xlink:href="#4"/><use transform="translate(281.76 601.43)" xlink:href="#T"/><path d="m0 0v-.3l.06-.18v-.12l.06-.18h.06l.06-.18.12-.18.06-.12.18-.12v-.06l.18-.06.12-.12.18-.06.54-.18h.18l-.06.72h-.12l-.18.06h-.12l-.24.12-.18.12-.18.18-.06.18-.06.06-.06.18v1.56l-.12-.12c-.28-.273-.309-.5-.42-.84v-.18" fill-rule="evenodd" transform="translate(281.22 600.11)"/><use transform="translate(281.82 605.21)" xlink:href="#V"/><use transform="translate(281.28 603.23)" xlink:href="#X"/><use transform="translate(281.22 604.67)" xlink:href="#W"/><g fill-rule="evenodd"><path d="m0 0v-.12.18" transform="translate(284.88 612.89)"/><path d="m0 0l.06-.18v-.36l.06 1.62-.12.12" transform="translate(284.82 610.25)"/><path d="m0 0l.12-.12.18-.12.18-.18.36-.12.06-.06h.66l.18.06h.06l.18.06.12.12h.06l.12.12.18.12v.12c.636.738.366 2.02-.06 2.82l-.12.12-.06-1.62v-.3l-.06-.18-.06-.06-.06-.18-.12-.12v-.06l-.12-.12-.18-.06h-.06l-.18-.06h-.48l-.12.06-.12.12-.18.06-.12.12-.06.12-.12.12-.06.12" transform="translate(282.66 608.39)"/><path d="m0 0v-.18l.06-.12.06-.06h.36l.18-.06h.18l.36-.12.24-.12.18-.06.06.72-.12.06c-.601.254-.755.206-1.38.3l-.12-.06v-.06l-.06-.12" transform="translate(282.3 612.17)"/><path d="m0 0v-1.44.24c.216.419.164.476.66.6l.12-.06h.18l.12-.12.12-.06.06-.06.12-.18.18-.18.06-.18.12-.12.06-.18.06 1.08c-.575.642-.717.821-1.62.78l-.18-.06" transform="translate(280.14 611.33)"/><path d="m0 0v-.24c.133-.598.118-.86.72-1.26l.12-.06.18-.06h.18l.18-.06.12.06h.18l.12.06.18.06h.06l.12.12.18.06.12.12.12.06.18.12.06-.12.12-.12.12-.18.06-.12.12.9v.06l.12.06c.46.46.92.92 1.38 1.38l.12.18.12-.12.06-.18.12-.12.06-.12.06-.18v1.26l.24.24.12.18.12.18.06.12.06.06.06.18v.36l-.06.12h-.06l-.06.06h-.36l-.06-.06v-.18l-.06-.06-.06-.18-.06-.12-.12-.12-.06-.06-.06-.12-.12-.18-.06.06-.18.12-.12.06-.06-.72c-.307-.469-.957-.877-1.38-1.38l-.12-.12-.06.12-.12.18-.06.12-.12.18-.06.12-.06-1.08v-.06l-.18-.06-.12-.12-.18-.06-.12-.12h-.06l-.18-.06-.06-.06h-.3c-.405.163-.487.211-.6.66v1.62l-.12-.12-.18-.12-.06-.12-.06-.18-.06-.18-.06-.12v-.12l-.06-.18" transform="translate(279.54 609.95)"/><path d="m0 0v-.78l.06.06v1.14-.24" transform="translate(294.66 584.57)"/><path d="m0 0l.18-.12v.9l-.06.06v.18" transform="translate(291.54 583.97)"/><path d="m0 0v-.18c-.033-.371.253-.628.42-.9l.06-.12.12 1.02v.18l.06.18.06.12.24.24.12.06.18.06.12.06.18.06h.42l.18.06c.561-.107 1.291-.072 1.5-.84v-1.32l.24.24.12.18c.372.286.201.803.24 1.2l-.06.12-.06.18c-.19.412-.405.531-.78.72l-.18.06-.18.06-.18.06c-1.015.141-2.252.085-2.76-.96v-.18l-.06-.18" transform="translate(291.06 585.17)"/><path d="m0 0v-.18l.06-.12.06-.06h5.88l.06.06v.48l-.06.06-.06.06h-.48v.78l-.12-.18h-.06l-.06-.18-.12-.12-.18-.12-.12-.12h-1.56l-.12.06-.24.24v.06l-.24.24-.06.12-.06.18v-.9h-2.4l-.06-.06-.06-.12" transform="translate(289.2 583.49)"/><path d="m0 0l.06-1.5v.06c-.108 1.328 2.249 1.451 2.88.66l.06-.18h.06l.06-.18v-.36l.06-1.5v.06l.24.24c.246.299.271.58.3.96v.42c.011.315-.115.628-.24.9l-.24.24-.12.12-.06.06-.12.12-.18.06-.18.06-.12.06-.36.12h-.36l-.18.06-.18-.06h-.36l-.18-.06h-.18l-.06-.06-.12-.06-.18-.06-.18-.12" transform="translate(291.6 590.99)"/><path d="m0 0v-.42l.06-.18.06-.12.06-.18v-.06l.06-.18.36-.36.06-.06.12-.12.54-.18.12-.06c.469-.119 1.567-.116 1.98.18l.18.12.12.06-.06 1.5v-.06c.071-1.582-3.18-1.553-3.06.06l-.06 1.5v-.06c-.33-.267-.428-.63-.54-1.02v-.18" transform="translate(291.06 589.55)"/><path d="m0 0l.06-1.5v.06c-.108 1.328 2.249 1.451 2.88.66l.06-.18h.06l.06-.18v-.36l.06-1.5v.06l.24.24c.246.299.271.58.3.96v.42c.011.315-.115.628-.24.9l-.12.12-.24.24-.06.06-.12.12-.36.12-.12.06-.36.12h-.36l-.18.06-.18-.06h-.36l-.18-.06h-.18l-.06-.06-.12-.06-.18-.06-.18-.12" transform="translate(291.6 595.73)"/><path d="m0 0v-.42l.06-.18.06-.12.06-.18v-.06l.06-.18.36-.36.06-.06.12-.12.18-.06.18-.06.18-.06.12-.06c.47-.119 1.567-.117 1.98.18l.18.12.12.06-.06 1.5v-.06c.071-1.582-3.18-1.553-3.06.06l-.06 1.5v-.06c-.33-.267-.428-.63-.54-1.02v-.18" transform="translate(291.06 594.29)"/></g><use transform="translate(294.6 599.21)" xlink:href="#5"/><path d="m0 0l.06-.18v-.12l.06-.06h.96v-.6l.06-.06h.12l.12-.06h.06l.18.06.06.12v.54h2.7l.18.06.12.06.18.06.12.06.06.06.12.18.06.12.06.18v.54l-.06.18v.18l-.06.12-.12.06h-.36v-.78l-.06-.12-.12-.12-.24-.12h-2.58v.96l-.06.12h-.06l-.18.06h-.12l-.12-.06h-.06v-1.08h-.96l-.06-.06v-.12" fill-rule="evenodd" transform="translate(290.04 597.83)"/><use transform="translate(294.42 600.11)" xlink:href="#U"/><g fill-rule="evenodd"><path d="m0 0l.12-1.02v.18l.06.18.06.12.12.36.06.12-.06.06h-.06l-.18.06" transform="translate(291.48 602.51)"/><path d="m0 0v-.3l.06-.18v-.12l.12-.18.06-.12.12-.18.06-.06.12-.12.18-.06.06-.06c.345-.036.723-.076 1.02.18l.24.24.12.18.06.18.12.18.06.18.06.18.06.12.06.18.12.12.18.18c.406.018.453-.0001.72-.3l.06-.18.06-.12v-.18 1.32l-.18.06c-.319.123-.437.194-.78.06h-.18v-.06l-.18-.06-.12-.12v-.06l-.12-.12-.12-.18-.06-.18-.06-.18h-.06l-.06-.18-.06-.18c-.22-.492-.018-.188-.42-.6h-.24c-.403.079-.387.199-.54.54v.18l-.12 1.02h-.12l-.06-.06-.06-.12-.06-.06-.06-.18v-.12l-.06-.18v-.12" transform="translate(291.06 601.49)"/></g><use transform="translate(294.6 605.69)" xlink:href="#5"/><path d="m0 0l.06-.18v-.12l.06-.06h.96v-.6l.06-.06h.12l.12-.06h.06l.18.06.06.12v.54h2.7l.18.06.12.06.18.06.12.06.06.06.12.18.06.12.06.18v.54l-.06.18v.18l-.06.12-.12.06h-.36v-.78l-.06-.12-.12-.12-.12-.06-.12-.06h-2.58v.96l-.06.12h-.06l-.18.06h-.12l-.12-.06h-.06v-1.08h-.96l-.06-.06v-.12" fill-rule="evenodd" transform="translate(290.04 604.31)"/><use transform="translate(291.66 609.05)" xlink:href="#V"/><use transform="translate(291.12 607.07)" xlink:href="#X"/><use transform="translate(291.06 608.51)" xlink:href="#W"/><use transform="translate(19.56 10.5)" xlink:href="#1X"/><use transform="translate(19.56 10.5)" xlink:href="#1Y"/><use transform="translate(19.56 10.5)" xlink:href="#1Z"/><g fill-rule="evenodd"><path d="m0 0v-.06c.114-.787-.013-.639.42-1.32l.12-.06.06 1.38v.3l.06.12.06.18.06.12.12.06.18.06.06.06h.66v-.54c-.029-.405.055-.899.24-1.26l.06-.18h.06l.12-.18.06 2.16h.78l.48-.48v-.06l.06-.12.06.78h.48v.54l-.12.06h-2.94l-.18-.06h-.12l-.18-.06-.18-.12-.24-.24-.06-.18-.12-.18v-.12l-.06-.18v-.18" transform="translate(291.06 611.27)"/><path d="m0 0v-2.46h.06l.12.18.24.24.06.18.12.24v.72l-.06.18-.06.18-.12.12-.06.18-.12.12" transform="translate(294.72 617.33)"/><path d="m0 0v-1.38.18l.06.18.12.24.18.12.12.06.18.06.12.06.18.06h.42l.18.06.18-.06h.36l.36-.12.12-.06.12-.06.12-.12.12-.18.06-.06.06-.18v-.18 1.32l-.18.12c-.94.416-1.606.348-2.58.12l-.12-.12" transform="translate(291.66 617.39)"/><path d="m0 0v-.24l.06-.06h5.58l.06.06v.6l-.06.06h-2.04v2.46-1.56l-.06-.18-.12-.18-.06-.06-.06-.12-.12-.12-.18-.12-.12-.12h-1.56l-.12.06-.24.24v.06l-.12.12-.12.12-.06.12v-.78h-.54l-.06-.06-.06-.06v-.06" transform="translate(291.12 614.45)"/><path d="m0 0v-.24l.06-.12v-.06l.06-.12.06-.18v-.06l.12-.12.12-.18.06-.06.12-.12.12-.12v.78l-.06.18-.06.06v1.56l-.36-.36-.06-.12-.06-.06-.06-.12v-.18l-.06-.18" transform="translate(291.06 616.19)"/></g><use transform="translate(294.42 620.63)" xlink:href="#U"/><use transform="translate(9.84 37.38)" xlink:href="#1b"/><path d="m0 0v-.3l.06-.18v-.12l.12-.18.06-.12.12-.18.06-.06.12-.12.18-.06.06-.06c.345-.036.723-.076 1.02.18l.12.12.12.12.12.18.06.18.12.18.06.18.06.18.06.12.06.18.24.24.06.06c.406.018.453-.002.72-.3l.06-.18.06-.12v-.18 1.32l-.18.06c-.319.123-.437.194-.78.06h-.18v-.06l-.18-.06-.12-.12v-.06l-.12-.12-.12-.18-.06-.18-.06-.18h-.06l-.12-.36c-.22-.492-.018-.188-.42-.6h-.24c-.403.079-.387.199-.54.54v.18l-.12 1.02h-.12l-.06-.06-.06-.12-.06-.06-.06-.18v-.12l-.06-.18v-.12" fill-rule="evenodd" transform="translate(291.06 622.01)"/><use transform="translate(294.48 627.29)" xlink:href="#4"/><use transform="translate(291.6 627.17)" xlink:href="#T"/><path d="m0 0v-.3l.06-.18v-.12l.06-.18h.06l.06-.18.12-.18.06-.12.18-.12v-.06l.18-.06.12-.12.18-.06.18-.06.18-.06.18-.06h.18l-.06.72h-.12l-.18.06h-.12l-.24.12-.18.12-.06.06-.12.12-.06.18-.06.06-.06.18v1.56l-.12-.12c-.28-.272-.309-.5-.42-.84v-.18" fill-rule="evenodd" transform="translate(291.06 625.85)"/><use transform="translate(291.66 630.89)" xlink:href="#V"/><path d="m0 0v-.24l.06-.06h4.02l.06.06v.6l-.06.06h-2.64l-.12.06-.24.24-.18.12-.12.12-.06.06v-.66h-.66l-.06-.06v-.12" fill-rule="evenodd" transform="translate(291.12 628.91)"/><use transform="translate(291.06 630.35)" xlink:href="#W"/><path d="m0 0v-.3l.06-.06.06-.06 3.24-1.08h.06l.6-.54.06.06.06.12c0 .22 0 .44 0 .66l-.06.12-.06.06-3.72 1.32h-.24l-.06-.06v-.06" fill-rule="evenodd" transform="translate(291.12 634.55)"/><use transform="translate(9.84 37.2)" xlink:href="#1c"/><use transform="translate(294.48 638.69)" xlink:href="#4"/><use transform="translate(291.6 638.57)" xlink:href="#T"/><path d="m0 0v-.3l.06-.18v-.12l.06-.18h.06l.06-.18.12-.18.06-.12.18-.12v-.06l.18-.06.12-.12.72-.24h.18l-.06.72h-.12l-.18.06h-.12l-.12.06-.12.06-.18.12-.06.06-.12.12-.06.18-.06.06-.06.18v1.56l-.12-.12c-.28-.273-.309-.5-.42-.84v-.18" fill-rule="evenodd" transform="translate(291.06 637.25)"/><use transform="translate(291.66 642.29)" xlink:href="#V"/><use transform="translate(291.12 640.31)" xlink:href="#X"/><use transform="translate(291.06 641.75)" xlink:href="#W"/><g transform="translate(281.82 280.61)"><path d="m0 0v295.26" fill="none" stroke="#000" stroke-linejoin="round" stroke-linecap="round" stroke-width=".72" stroke-miterlimit="10" id="1e"/><g transform="translate(-1.44)"><use xlink:href="#1e"/><g transform="translate(-1.14)"><path d="M 0,0 1.86,-3.66 3.72,0" fill="none" stroke="#000" stroke-linejoin="round" stroke-linecap="round" stroke-width=".72" stroke-miterlimit="10"/><g><use xlink:href="#c"/><g transform="translate(2.58)"><use xlink:href="#c"/><g transform="translate(-2.58 295.26)"><path d="M 0,0 1.86,3.66 3.72,0" fill="none" stroke="#000" stroke-linejoin="round" stroke-linecap="round" stroke-width=".72" stroke-miterlimit="10"/><g><use xlink:href="#c"/><use transform="translate(2.58)" xlink:href="#c"/></g></g></g></g></g></g></g></g></svg>