<?xml version="1.0" encoding="UTF-8" standalone="no"?>
<!DOCTYPE svg PUBLIC "-//W3C//DTD SVG 1.1//EN" "http://www.w3.org/Graphics/SVG/1.1/DTD/svg11.dtd">
<!-- Generated by Microsoft Visio, SVG Export lwm2m_resource_callback.svg lwm2m_resource_callback -->
<svg xmlns="http://www.w3.org/2000/svg" xmlns:xlink="http://www.w3.org/1999/xlink" xmlns:ev="http://www.w3.org/2001/xml-events"
		xmlns:v="http://schemas.microsoft.com/visio/2003/SVGExtensions/" width="8.93544in" height="4.65261in"
		viewBox="0 0 643.352 334.988" xml:space="preserve" color-interpolation-filters="sRGB" class="st13">
	<v:documentProperties v:langID="1044"/>

	<style type="text/css">
	<![CDATA[
		.st1 {fill:#5b9bd5;fill-opacity:0.22;stroke:#5b9bd5;stroke-opacity:0.22;stroke-width:1}
		.st2 {fill:#000000;stroke:#c7c8c8;stroke-width:0.25}
		.st3 {fill:none;stroke:none;stroke-linecap:butt;stroke-width:0.75}
		.st4 {fill:#feffff;font-family:Calibri;font-size:0.833336em}
		.st5 {fill:#5b9bd5;stroke:#c7c8c8;stroke-width:0.25}
		.st6 {fill:#bfbfbf;stroke:#c7c8c8;stroke-width:0.25}
		.st7 {fill:none;stroke:#c7c8c8;stroke-width:0.25}
		.st8 {fill:#5b9bd5;font-family:Calibri;font-size:1.00001em}
		.st9 {font-size:1em}
		.st10 {fill:#5b9bd5;fill-opacity:0.25;stroke:#5b9bd5;stroke-opacity:0.25;stroke-width:1}
		.st11 {fill:#4f87bb;stroke:#40709c;stroke-width:0.75}
		.st12 {fill:#5b9bd5;font-family:Calibri;font-size:0.75em}
		.st13 {fill:none;fill-rule:evenodd;font-size:12px;overflow:visible;stroke-linecap:square;stroke-miterlimit:3}
	]]>
	</style>

	<g v:mID="0" v:index="1" v:groupContext="foregroundPage">
		<title>lwm2m_resource_callback</title>
		<v:pageProperties v:drawingScale="1" v:pageScale="1" v:drawingUnits="19" v:shadowOffsetX="9" v:shadowOffsetY="-9"/>
		<v:layer v:name="Connector" v:index="0"/>
		<g id="group1-1" transform="translate(3.0294,-0.249286)" v:mID="1" v:groupContext="group">
			<title>Page-1</title>
			<g id="group2-2" transform="translate(2.95763E-012,-227.634)" v:mID="2" v:groupContext="group">
				<v:userDefs/>
				<title>Rectangle.135</title>
				<desc>Object «/3201/»</desc>
				<g id="shape3-3" v:mID="3" v:groupContext="shape" transform="translate(0.345598,-5.68434E-014)">
					<title>Sheet.3</title>
					<rect x="0" y="315.145" width="132.035" height="19.8425" class="st1"/>
				</g>
				<g id="shape4-5" v:mID="4" v:groupContext="shape" transform="translate(2.55795E-013,-1.97279)">
					<title>Sheet.4</title>
					<rect x="0" y="315.145" width="132.035" height="19.8425" class="st2"/>
				</g>
				<g id="shape5-7" v:mID="5" v:groupContext="shape" transform="translate(32.36,-5.89078)">
					<title>Sheet.5</title>
					<desc>Object «/3201/»</desc>
					<v:userDefs/>
					<v:textBlock v:margins="rect(0,0,0,0)"/>
					<v:textRect cx="75.0002" cy="328.988" width="150.01" height="12"/>
					<rect x="0" y="322.988" width="150" height="12" class="st3"/>
					<text x="-0" y="331.99" class="st4" v:langID="1044"><v:paragraph/><v:tabList/>Object «/3201/»</text>				</g>
			</g>
			<g id="group6-10" transform="translate(1.16707E-012,-207.792)" v:mID="6" v:groupContext="group">
				<v:userDefs/>
				<title>Rectangle.136</title>
				<desc>3201</desc>
				<g id="shape7-11" v:mID="7" v:groupContext="shape" transform="translate(0.345598,-5.68434E-014)">
					<title>Sheet.7</title>
					<rect x="0" y="315.145" width="132.035" height="19.8425" class="st1"/>
				</g>
				<g id="shape8-13" v:mID="8" v:groupContext="shape" transform="translate(-2.07834E-012,-1.97279)">
					<title>Sheet.8</title>
					<rect x="0" y="315.145" width="132.035" height="19.8425" class="st5"/>
				</g>
				<g id="shape9-15" v:mID="9" v:groupContext="shape" transform="translate(55.88,-5.89078)">
					<title>Sheet.9</title>
					<desc>3201</desc>
					<v:userDefs/>
					<v:textBlock v:margins="rect(0,0,0,0)"/>
					<v:textRect cx="20.0001" cy="328.988" width="40.01" height="12"/>
					<rect x="0" y="322.988" width="40.0001" height="12" class="st3"/>
					<text x="-0" y="331.99" class="st4" v:langID="1044"><v:paragraph/><v:tabList/>3201</text>				</g>
			</g>
			<g id="group10-18" transform="translate(3.46922E-012,-187.949)" v:mID="10" v:groupContext="group">
				<v:userDefs/>
				<title>Rectangle.137</title>
				<desc>object_handle_function()</desc>
				<g id="shape11-19" v:mID="11" v:groupContext="shape" transform="translate(0.345598,-5.68434E-014)">
					<title>Sheet.11</title>
					<rect x="0" y="315.145" width="132.035" height="19.8425" class="st1"/>
				</g>
				<g id="shape12-21" v:mID="12" v:groupContext="shape" transform="translate(-1.30296E-012,-1.97279)">
					<title>Sheet.12</title>
					<rect x="0" y="315.145" width="132.035" height="19.8425" class="st5"/>
				</g>
				<g id="shape13-23" v:mID="13" v:groupContext="shape" transform="translate(14.38,-5.89078)">
					<title>Sheet.13</title>
					<desc>object_handle_function()</desc>
					<v:userDefs/>
					<v:textBlock v:margins="rect(0,0,0,0)"/>
					<v:textRect cx="120" cy="328.988" width="240.01" height="12"/>
					<rect x="0" y="322.988" width="240.001" height="12" class="st3"/>
					<text x="-0" y="331.99" class="st4" v:langID="1044"><v:paragraph/><v:tabList/>object_handle_function()</text>				</g>
			</g>
			<g id="group14-26" transform="translate(334.488,-207.792)" v:mID="14" v:groupContext="group">
				<v:userDefs/>
				<title>Rectangle.153</title>
				<desc>3201</desc>
				<g id="shape15-27" v:mID="15" v:groupContext="shape" transform="translate(0.345598,-5.68434E-014)">
					<title>Sheet.15</title>
					<rect x="0" y="315.145" width="132.035" height="19.8425" class="st1"/>
				</g>
				<g id="shape16-29" v:mID="16" v:groupContext="shape" transform="translate(-2.07834E-012,-1.97279)">
					<title>Sheet.16</title>
					<rect x="0" y="315.145" width="132.035" height="19.8425" class="st5"/>
				</g>
				<g id="shape17-31" v:mID="17" v:groupContext="shape" transform="translate(55.88,-5.89078)">
					<title>Sheet.17</title>
					<desc>3201</desc>
					<v:userDefs/>
					<v:textBlock v:margins="rect(0,0,0,0)"/>
					<v:textRect cx="20.0001" cy="328.988" width="40.01" height="12"/>
					<rect x="0" y="322.988" width="40.0001" height="12" class="st3"/>
					<text x="-0" y="331.99" class="st4" v:langID="1044"><v:paragraph/><v:tabList/>3201</text>				</g>
			</g>
			<g id="group18-34" transform="translate(334.488,-187.949)" v:mID="18" v:groupContext="group">
				<v:userDefs/>
				<title>Rectangle.154</title>
				<desc>0</desc>
				<g id="shape19-35" v:mID="19" v:groupContext="shape" transform="translate(0.345598,-5.68434E-014)">
					<title>Sheet.19</title>
					<rect x="0" y="315.145" width="132.035" height="19.8425" class="st1"/>
				</g>
				<g id="shape20-37" v:mID="20" v:groupContext="shape" transform="translate(-2.07834E-012,-1.97279)">
					<title>Sheet.20</title>
					<rect x="0" y="315.145" width="132.035" height="19.8425" class="st5"/>
				</g>
				<g id="shape21-39" v:mID="21" v:groupContext="shape" transform="translate(63.48,-5.89078)">
					<title>Sheet.21</title>
					<desc>0</desc>
					<v:userDefs/>
					<v:textBlock v:margins="rect(0,0,0,0)"/>
					<v:textRect cx="5.00001" cy="328.988" width="10.01" height="12"/>
					<rect x="0" y="322.988" width="10" height="12" class="st3"/>
					<text x="-0" y="331.99" class="st4" v:langID="1044"><v:paragraph/><v:tabList/>0</text>				</g>
			</g>
			<g id="group22-42" transform="translate(334.488,-227.634)" v:mID="22" v:groupContext="group">
				<v:userDefs/>
				<title>Rectangle.155</title>
				<desc>Instance «/3201/0/»</desc>
				<g id="shape23-43" v:mID="23" v:groupContext="shape" transform="translate(0.345598,-5.68434E-014)">
					<title>Sheet.23</title>
					<rect x="0" y="315.145" width="132.035" height="19.8425" class="st1"/>
				</g>
				<g id="shape24-45" v:mID="24" v:groupContext="shape" transform="translate(1.47082E-012,-1.97279)">
					<title>Sheet.24</title>
					<rect x="0" y="315.145" width="132.035" height="19.8425" class="st2"/>
				</g>
				<g id="shape25-47" v:mID="25" v:groupContext="shape" transform="translate(24.16,-5.89078)">
					<title>Sheet.25</title>
					<desc>Instance «/3201/0/»</desc>
					<v:userDefs/>
					<v:textBlock v:margins="rect(0,0,0,0)"/>
					<v:textRect cx="95.0003" cy="328.988" width="190.01" height="12"/>
					<rect x="0" y="322.988" width="190.001" height="12" class="st3"/>
					<text x="-0" y="331.99" class="st4" v:langID="1044"><v:paragraph/><v:tabList/>Instance «/3201/0/»</text>				</g>
			</g>
			<g id="group26-50" transform="translate(334.488,-148.264)" v:mID="26" v:groupContext="group">
				<v:userDefs/>
				<title>Rectangle.152</title>
				<desc>instance_handle_function()</desc>
				<g id="shape27-51" v:mID="27" v:groupContext="shape" transform="translate(0.345598,-5.68434E-014)">
					<title>Sheet.27</title>
					<rect x="0" y="315.145" width="132.035" height="19.8425" class="st1"/>
				</g>
				<g id="shape28-53" v:mID="28" v:groupContext="shape" transform="translate(-2.02238E-012,-1.97279)">
					<title>Sheet.28</title>
					<rect x="0" y="315.145" width="132.035" height="19.8425" class="st5"/>
				</g>
				<g id="shape29-55" v:mID="29" v:groupContext="shape" transform="translate(10.08,-5.89078)">
					<title>Sheet.29</title>
					<desc>instance_handle_function()</desc>
					<v:userDefs/>
					<v:textBlock v:margins="rect(0,0,0,0)"/>
					<v:textRect cx="130" cy="328.988" width="260.01" height="12"/>
					<rect x="0" y="322.988" width="260.001" height="12" class="st3"/>
					<text x="-0" y="331.99" class="st4" v:langID="1044"><v:paragraph/><v:tabList/>instance_handle_function()</text>				</g>
			</g>
			<g id="group30-58" transform="translate(334.488,-168.107)" v:mID="30" v:groupContext="group">
				<v:userDefs/>
				<title>Rectangle.157</title>
				<desc>...</desc>
				<g id="shape31-59" v:mID="31" v:groupContext="shape" transform="translate(0.345598,-5.68434E-014)">
					<title>Sheet.31</title>
					<rect x="0" y="315.145" width="132.035" height="19.8425" class="st1"/>
				</g>
				<g id="shape32-61" v:mID="32" v:groupContext="shape" transform="translate(-2.07834E-012,-1.97279)">
					<title>Sheet.32</title>
					<rect x="0" y="315.145" width="132.035" height="19.8425" class="st6"/>
				</g>
				<g id="shape33-63" v:mID="33" v:groupContext="shape" transform="translate(62.23,-5.89078)">
					<title>Sheet.33</title>
					<desc>...</desc>
					<v:userDefs/>
					<v:textBlock v:margins="rect(0,0,0,0)"/>
					<v:textRect cx="15" cy="328.988" width="30.01" height="12"/>
					<rect x="0" y="322.988" width="30.0001" height="12" class="st3"/>
					<text x="-0" y="331.99" class="st4" v:langID="1044"><v:paragraph/><v:tabList/>...</text>				</g>
			</g>
			<g id="group34-66" transform="translate(334.488,-128.422)" v:mID="34" v:groupContext="group">
				<v:userDefs/>
				<title>Rectangle.158</title>
				<desc>...</desc>
				<g id="shape35-67" v:mID="35" v:groupContext="shape" transform="translate(0.345598,-5.68434E-014)">
					<title>Sheet.35</title>
					<rect x="0" y="315.145" width="132.035" height="19.8425" class="st1"/>
				</g>
				<g id="shape36-69" v:mID="36" v:groupContext="shape" transform="translate(-2.07834E-012,-1.97279)">
					<title>Sheet.36</title>
					<rect x="0" y="315.145" width="132.035" height="19.8425" class="st6"/>
				</g>
				<g id="shape37-71" v:mID="37" v:groupContext="shape" transform="translate(62.23,-5.89078)">
					<title>Sheet.37</title>
					<desc>...</desc>
					<v:userDefs/>
					<v:textBlock v:margins="rect(0,0,0,0)"/>
					<v:textRect cx="15" cy="328.988" width="30.01" height="12"/>
					<rect x="0" y="322.988" width="30.0001" height="12" class="st3"/>
					<text x="-0" y="331.99" class="st4" v:langID="1044"><v:paragraph/><v:tabList/>...</text>				</g>
			</g>
			<g id="group38-74" transform="translate(504.566,-207.792)" v:mID="38" v:groupContext="group">
				<v:userDefs/>
				<title>Rectangle.159</title>
				<desc>3201</desc>
				<g id="shape39-75" v:mID="39" v:groupContext="shape" transform="translate(0.345598,-5.68434E-014)">
					<title>Sheet.39</title>
					<rect x="0" y="315.145" width="132.035" height="19.8425" class="st1"/>
				</g>
				<g id="shape40-77" v:mID="40" v:groupContext="shape" transform="translate(-2.07834E-012,-1.97279)">
					<title>Sheet.40</title>
					<rect x="0" y="315.145" width="132.035" height="19.8425" class="st5"/>
				</g>
				<g id="shape41-79" v:mID="41" v:groupContext="shape" transform="translate(55.88,-5.89078)">
					<title>Sheet.41</title>
					<desc>3201</desc>
					<v:userDefs/>
					<v:textBlock v:margins="rect(0,0,0,0)"/>
					<v:textRect cx="20.0001" cy="328.988" width="40.01" height="12"/>
					<rect x="0" y="322.988" width="40.0001" height="12" class="st3"/>
					<text x="-0" y="331.99" class="st4" v:langID="1044"><v:paragraph/><v:tabList/>3201</text>				</g>
			</g>
			<g id="group42-82" transform="translate(504.566,-187.949)" v:mID="42" v:groupContext="group">
				<v:userDefs/>
				<title>Rectangle.160</title>
				<desc>0</desc>
				<g id="shape43-83" v:mID="43" v:groupContext="shape" transform="translate(0.345598,-5.68434E-014)">
					<title>Sheet.43</title>
					<rect x="0" y="315.145" width="132.035" height="19.8425" class="st1"/>
				</g>
				<g id="shape44-85" v:mID="44" v:groupContext="shape" transform="translate(-2.07834E-012,-1.97279)">
					<title>Sheet.44</title>
					<rect x="0" y="315.145" width="132.035" height="19.8425" class="st5"/>
				</g>
				<g id="shape45-87" v:mID="45" v:groupContext="shape" transform="translate(63.48,-5.89078)">
					<title>Sheet.45</title>
					<desc>0</desc>
					<v:userDefs/>
					<v:textBlock v:margins="rect(0,0,0,0)"/>
					<v:textRect cx="5.00001" cy="328.988" width="10.01" height="12"/>
					<rect x="0" y="322.988" width="10" height="12" class="st3"/>
					<text x="-0" y="331.99" class="st4" v:langID="1044"><v:paragraph/><v:tabList/>0</text>				</g>
			</g>
			<g id="group46-90" transform="translate(504.566,-227.634)" v:mID="46" v:groupContext="group">
				<v:userDefs/>
				<title>Rectangle.161</title>
				<desc>Instance «/3201/0/»</desc>
				<g id="shape47-91" v:mID="47" v:groupContext="shape" transform="translate(0.345598,-5.68434E-014)">
					<title>Sheet.47</title>
					<rect x="0" y="315.145" width="132.035" height="19.8425" class="st1"/>
				</g>
				<g id="shape48-93" v:mID="48" v:groupContext="shape" transform="translate(1.47082E-012,-1.97279)">
					<title>Sheet.48</title>
					<rect x="0" y="315.145" width="132.035" height="19.8425" class="st2"/>
				</g>
				<g id="shape49-95" v:mID="49" v:groupContext="shape" transform="translate(24.16,-5.89078)">
					<title>Sheet.49</title>
					<desc>Instance «/3201/0/»</desc>
					<v:userDefs/>
					<v:textBlock v:margins="rect(0,0,0,0)"/>
					<v:textRect cx="95.0003" cy="328.988" width="190.01" height="12"/>
					<rect x="0" y="322.988" width="190.001" height="12" class="st3"/>
					<text x="-0" y="331.99" class="st4" v:langID="1044"><v:paragraph/><v:tabList/>Instance «/3201/0/»</text>				</g>
			</g>
			<g id="group50-98" transform="translate(504.566,-148.264)" v:mID="50" v:groupContext="group">
				<v:userDefs/>
				<title>Rectangle.162</title>
				<desc>instance_handle_function()</desc>
				<g id="shape51-99" v:mID="51" v:groupContext="shape" transform="translate(0.345598,-5.68434E-014)">
					<title>Sheet.51</title>
					<rect x="0" y="315.145" width="132.035" height="19.8425" class="st1"/>
				</g>
				<g id="shape52-101" v:mID="52" v:groupContext="shape" transform="translate(-2.02238E-012,-1.97279)">
					<title>Sheet.52</title>
					<rect x="0" y="315.145" width="132.035" height="19.8425" class="st5"/>
				</g>
				<g id="shape53-103" v:mID="53" v:groupContext="shape" transform="translate(10.08,-5.89078)">
					<title>Sheet.53</title>
					<desc>instance_handle_function()</desc>
					<v:userDefs/>
					<v:textBlock v:margins="rect(0,0,0,0)"/>
					<v:textRect cx="130" cy="328.988" width="260.01" height="12"/>
					<rect x="0" y="322.988" width="260.001" height="12" class="st3"/>
					<text x="-0" y="331.99" class="st4" v:langID="1044"><v:paragraph/><v:tabList/>instance_handle_function()</text>				</g>
			</g>
			<g id="group54-106" transform="translate(504.566,-168.107)" v:mID="54" v:groupContext="group">
				<v:userDefs/>
				<title>Rectangle.163</title>
				<desc>...</desc>
				<g id="shape55-107" v:mID="55" v:groupContext="shape" transform="translate(0.345598,-5.68434E-014)">
					<title>Sheet.55</title>
					<rect x="0" y="315.145" width="132.035" height="19.8425" class="st1"/>
				</g>
				<g id="shape56-109" v:mID="56" v:groupContext="shape" transform="translate(-2.07834E-012,-1.97279)">
					<title>Sheet.56</title>
					<rect x="0" y="315.145" width="132.035" height="19.8425" class="st6"/>
				</g>
				<g id="shape57-111" v:mID="57" v:groupContext="shape" transform="translate(62.23,-5.89078)">
					<title>Sheet.57</title>
					<desc>...</desc>
					<v:userDefs/>
					<v:textBlock v:margins="rect(0,0,0,0)"/>
					<v:textRect cx="15" cy="328.988" width="30.01" height="12"/>
					<rect x="0" y="322.988" width="30.0001" height="12" class="st3"/>
					<text x="-0" y="331.99" class="st4" v:langID="1044"><v:paragraph/><v:tabList/>...</text>				</g>
			</g>
			<g id="group58-114" transform="translate(504.566,-128.422)" v:mID="58" v:groupContext="group">
				<v:userDefs/>
				<title>Rectangle.164</title>
				<desc>...</desc>
				<g id="shape59-115" v:mID="59" v:groupContext="shape" transform="translate(0.345598,-5.68434E-014)">
					<title>Sheet.59</title>
					<rect x="0" y="315.145" width="132.035" height="19.8425" class="st1"/>
				</g>
				<g id="shape60-117" v:mID="60" v:groupContext="shape" transform="translate(-2.07834E-012,-1.97279)">
					<title>Sheet.60</title>
					<rect x="0" y="315.145" width="132.035" height="19.8425" class="st6"/>
				</g>
				<g id="shape61-119" v:mID="61" v:groupContext="shape" transform="translate(62.23,-5.89078)">
					<title>Sheet.61</title>
					<desc>...</desc>
					<v:userDefs/>
					<v:textBlock v:margins="rect(0,0,0,0)"/>
					<v:textRect cx="15" cy="328.988" width="30.01" height="12"/>
					<rect x="0" y="322.988" width="30.0001" height="12" class="st3"/>
					<text x="-0" y="331.99" class="st4" v:langID="1044"><v:paragraph/><v:tabList/>...</text>				</g>
			</g>
			<g id="group62-122" transform="translate(3.16547E-012,-302.173)" v:mID="62" v:groupContext="group">
				<v:userDefs/>
				<title>12pt. text.165</title>
				<desc>CoAP URI: /3201/ CoAP code: DELETE</desc>
				<g id="shape63-123" v:mID="63" v:groupContext="shape">
					<title>Sheet.63</title>
					<rect x="0" y="302.673" width="132.035" height="32.315" class="st7"/>
				</g>
				<g id="shape64-125" v:mID="64" v:groupContext="shape" transform="translate(-2.58993E-012,-16.1579)">
					<title>Sheet.64</title>
					<desc>CoAP URI: /3201/ CoAP code: DELETE</desc>
					<v:userDefs/>
					<v:textBlock v:margins="rect(0,0,0,0)"/>
					<v:textRect cx="210.002" cy="327.788" width="420.01" height="14.4001"/>
					<rect x="0" y="320.588" width="420.004" height="14.4001" class="st3"/>
					<text x="-0" y="331.39" class="st8" v:langID="1044"><v:paragraph/><v:tabList/><v:newlineChar/>CoAP URI:   /3201/<v:newlineChar/><tspan
								x="-0" dy="1.2em" class="st9">CoAP code</tspan>: DELETE</text>				</g>
			</g>
			<g id="group65-129" transform="translate(334.488,-302.173)" v:mID="65" v:groupContext="group">
				<v:userDefs/>
				<title>12pt. text.166</title>
				<desc>CoAP URI: /3201/0/ CoAP code: PUT</desc>
				<g id="shape66-130" v:mID="66" v:groupContext="shape">
					<title>Sheet.66</title>
					<rect x="0" y="302.673" width="132.035" height="32.315" class="st7"/>
				</g>
				<g id="shape67-132" v:mID="67" v:groupContext="shape" transform="translate(2.39808E-012,-16.1579)">
					<title>Sheet.67</title>
					<desc>CoAP URI: /3201/0/ CoAP code: PUT</desc>
					<v:userDefs/>
					<v:textBlock v:margins="rect(0,0,0,0)"/>
					<v:textRect cx="204.002" cy="327.788" width="408.01" height="14.4001"/>
					<rect x="0" y="320.588" width="408.004" height="14.4001" class="st3"/>
					<text x="-0" y="331.39" class="st8" v:langID="1044"><v:paragraph/><v:tabList/><v:newlineChar/>CoAP URI:   /3201/0/<v:newlineChar/><tspan
								x="-0" dy="1.2em" class="st9">CoAP code</tspan>: PUT</text>				</g>
			</g>
			<g id="group68-136" transform="translate(504.566,-302.173)" v:mID="68" v:groupContext="group">
				<v:userDefs/>
				<title>12pt. text.167</title>
				<desc>CoAP URI: /3201/0/5550/ CoAP code: PUT</desc>
				<g id="shape69-137" v:mID="69" v:groupContext="shape">
					<title>Sheet.69</title>
					<rect x="0" y="302.673" width="132.035" height="32.315" class="st7"/>
				</g>
				<g id="shape70-139" v:mID="70" v:groupContext="shape" transform="translate(7.03437E-013,-16.1579)">
					<title>Sheet.70</title>
					<desc>CoAP URI: /3201/0/5550/ CoAP code: PUT</desc>
					<v:userDefs/>
					<v:textBlock v:margins="rect(0,0,0,0)"/>
					<v:textRect cx="234.002" cy="327.788" width="468.01" height="14.4001"/>
					<rect x="0" y="320.588" width="468.004" height="14.4001" class="st3"/>
					<text x="-0" y="331.39" class="st8" v:langID="1044"><v:paragraph/><v:tabList/><v:newlineChar/>CoAP URI:   /3201/0/5550/<v:newlineChar/><tspan
								x="-0" dy="1.2em" class="st9">CoAP code</tspan>: PUT</text>				</g>
			</g>
			<g id="group71-143" transform="translate(-264.651,87.5114) rotate(-90)" v:mID="71" v:groupContext="group">
				<title>Simple Arrow</title>
				<g id="shape72-144" v:mID="72" v:groupContext="shape">
					<title>Sheet.72</title>
					<path d="M0 331.02 L11.34 327.05 L11.34 329.03 L52.72 329.03 L52.72 331.02 L52.72 333 L11.34 333 L11.34 334.99
								 L0 331.02 Z" class="st10"/>
				</g>
				<g id="shape73-146" v:mID="73" v:groupContext="shape" transform="translate(1.97279,-0.345598)">
					<title>Sheet.73</title>
					<path d="M0 331.02 L11.34 327.05 L11.34 329.03 L52.72 329.03 L52.72 331.02 L52.72 333 L11.34 333 L11.34 334.99
								 L0 331.02 Z" class="st11"/>
				</g>
			</g>
			<g id="group74-148" transform="translate(69.8368,87.5114) rotate(-90)" v:mID="74" v:groupContext="group">
				<title>Simple Arrow.173</title>
				<g id="shape75-149" v:mID="75" v:groupContext="shape">
					<title>Sheet.75</title>
					<path d="M0 331.02 L11.34 327.05 L11.34 329.03 L52.72 329.03 L52.72 331.02 L52.72 333 L11.34 333 L11.34 334.99
								 L0 331.02 Z" class="st10"/>
				</g>
				<g id="shape76-151" v:mID="76" v:groupContext="shape" transform="translate(1.97279,-0.345598)">
					<title>Sheet.76</title>
					<path d="M0 331.02 L11.34 327.05 L11.34 329.03 L52.72 329.03 L52.72 331.02 L52.72 333 L11.34 333 L11.34 334.99
								 L0 331.02 Z" class="st11"/>
				</g>
			</g>
			<g id="group77-153" transform="translate(239.916,87.5114) rotate(-90)" v:mID="77" v:groupContext="group">
				<title>Simple Arrow.174</title>
				<g id="shape78-154" v:mID="78" v:groupContext="shape">
					<title>Sheet.78</title>
					<path d="M0 331.02 L11.34 327.05 L11.34 329.03 L52.72 329.03 L52.72 331.02 L52.72 333 L11.34 333 L11.34 334.99
								 L0 331.02 Z" class="st10"/>
				</g>
				<g id="shape79-156" v:mID="79" v:groupContext="shape" transform="translate(1.97279,-0.345598)">
					<title>Sheet.79</title>
					<path d="M0 331.02 L11.34 327.05 L11.34 329.03 L52.72 329.03 L52.72 331.02 L52.72 333 L11.34 333 L11.34 334.99
								 L0 331.02 Z" class="st11"/>
				</g>
			</g>
			<g id="group80-158" transform="translate(-264.651,267.795) rotate(-90)" v:mID="80" v:groupContext="group">
				<title>Simple Arrow.175</title>
				<g id="shape81-159" v:mID="81" v:groupContext="shape">
					<title>Sheet.81</title>
					<path d="M0 331.02 L11.34 327.05 L11.34 329.03 L120.76 329.03 L120.76 331.02 L120.76 333 L11.34 333 L11.34 334.99
								 L0 331.02 Z" class="st10"/>
				</g>
				<g id="shape82-161" v:mID="82" v:groupContext="shape" transform="translate(1.97279,-0.345598)">
					<title>Sheet.82</title>
					<path d="M0 331.02 L11.34 327.05 L11.34 329.03 L120.76 329.03 L120.76 331.02 L120.76 333 L11.34 333 L11.34 334.99
								 L0 331.02 Z" class="st11"/>
				</g>
			</g>
			<g id="group83-163" v:mID="83" v:groupContext="group">
				<v:userDefs/>
				<title>12pt. text.176</title>
				<desc>callback(*object, INVALID_INSTANCE_ID, DELETE, coap_request)</desc>
				<g id="shape84-164" v:mID="84" v:groupContext="shape">
					<title>Sheet.84</title>
					<rect x="0" y="265.823" width="132.035" height="69.1654" class="st7"/>
				</g>
				<g id="shape85-166" v:mID="85" v:groupContext="shape" transform="translate(0,-44.7507)">
					<title>Sheet.85</title>
					<desc>callback(*object, INVALID_INSTANCE_ID, DELETE, coap_request)</desc>
					<v:userDefs/>
					<v:textBlock v:margins="rect(0,0,0,0)" v:verticalAlign="0"/>
					<v:textRect cx="65.9853" cy="329.925" width="131.98" height="10.125"/>
					<rect x="0" y="324.863" width="131.971" height="10.125" class="st3"/>
					<text x="2.03" y="332.96" class="st12" v:langID="1044"><v:paragraph/><v:tabList/>callback(*object,</text>				</g>
			</g>
			<g id="group86-169" transform="translate(334.488,-1.08002E-012)" v:mID="86" v:groupContext="group">
				<v:userDefs/>
				<title>12pt. text.177</title>
				<desc>callback(*instance, INVALID_RESOURCE_ID, WRITE, coap_request)</desc>
				<g id="shape87-170" v:mID="87" v:groupContext="shape">
					<title>Sheet.87</title>
					<rect x="0" y="265.823" width="132.035" height="69.1654" class="st7"/>
				</g>
			</g>
			<g id="group89-172" transform="translate(504.566,-1.08002E-012)" v:mID="89" v:groupContext="group">
				<v:userDefs/>
				<title>12pt. text.178</title>
				<desc>callback(*instance, 5550, WRITE, coap_request)</desc>
				<g id="shape90-173" v:mID="90" v:groupContext="shape">
					<title>Sheet.90</title>
					<rect x="0" y="265.823" width="132.035" height="69.1654" class="st7"/>
				</g>
			</g>
			<g id="group92-175" transform="translate(69.8368,267.795) rotate(-90)" v:mID="92" v:groupContext="group">
				<title>Simple Arrow.179</title>
				<g id="shape93-176" v:mID="93" v:groupContext="shape">
					<title>Sheet.93</title>
					<path d="M0 331.02 L11.34 327.05 L11.34 329.03 L61.23 329.03 L61.23 331.02 L61.23 333 L11.34 333 L11.34 334.99
								 L0 331.02 Z" class="st10"/>
				</g>
				<g id="shape94-178" v:mID="94" v:groupContext="shape" transform="translate(1.97279,-0.345598)">
					<title>Sheet.94</title>
					<path d="M0 331.02 L11.34 327.05 L11.34 329.03 L61.23 329.03 L61.23 331.02 L61.23 333 L11.34 333 L11.34 334.99
								 L0 331.02 Z" class="st11"/>
				</g>
			</g>
			<g id="group95-180" transform="translate(239.916,267.795) rotate(-90)" v:mID="95" v:groupContext="group">
				<title>Simple Arrow.180</title>
				<g id="shape96-181" v:mID="96" v:groupContext="shape">
					<title>Sheet.96</title>
					<path d="M0 331.02 L11.34 327.05 L11.34 329.03 L61.23 329.03 L61.23 331.02 L61.23 333 L11.34 333 L11.34 334.99
								 L0 331.02 Z" class="st10"/>
				</g>
				<g id="shape97-183" v:mID="97" v:groupContext="shape" transform="translate(1.97279,-0.345598)">
					<title>Sheet.97</title>
					<path d="M0 331.02 L11.34 327.05 L11.34 329.03 L61.23 329.03 L61.23 331.02 L61.23 333 L11.34 333 L11.34 334.99
								 L0 331.02 Z" class="st11"/>
				</g>
			</g>
			<g id="group98-185" transform="translate(170.079,-227.634)" v:mID="98" v:groupContext="group">
				<v:userDefs/>
				<title>Rectangle.181</title>
				<desc>Object «/3201/»</desc>
				<g id="shape99-186" v:mID="99" v:groupContext="shape" transform="translate(0.345598,-5.68434E-014)">
					<title>Sheet.99</title>
					<rect x="0" y="315.145" width="132.035" height="19.8425" class="st1"/>
				</g>
				<g id="shape100-188" v:mID="100" v:groupContext="shape" transform="translate(2.55795E-013,-1.97279)">
					<title>Sheet.100</title>
					<rect x="0" y="315.145" width="132.035" height="19.8425" class="st2"/>
				</g>
				<g id="shape101-190" v:mID="101" v:groupContext="shape" transform="translate(32.36,-5.89078)">
					<title>Sheet.101</title>
					<desc>Object «/3201/»</desc>
					<v:userDefs/>
					<v:textBlock v:margins="rect(0,0,0,0)"/>
					<v:textRect cx="75.0002" cy="328.988" width="150.01" height="12"/>
					<rect x="0" y="322.988" width="150" height="12" class="st3"/>
					<text x="-0" y="331.99" class="st4" v:langID="1044"><v:paragraph/><v:tabList/>Object «/3201/»</text>				</g>
			</g>
			<g id="group102-193" transform="translate(170.079,-207.792)" v:mID="102" v:groupContext="group">
				<v:userDefs/>
				<title>Rectangle.182</title>
				<desc>3201</desc>
				<g id="shape103-194" v:mID="103" v:groupContext="shape" transform="translate(0.345598,-5.68434E-014)">
					<title>Sheet.103</title>
					<rect x="0" y="315.145" width="132.035" height="19.8425" class="st1"/>
				</g>
				<g id="shape104-196" v:mID="104" v:groupContext="shape" transform="translate(-2.07834E-012,-1.97279)">
					<title>Sheet.104</title>
					<rect x="0" y="315.145" width="132.035" height="19.8425" class="st5"/>
				</g>
				<g id="shape105-198" v:mID="105" v:groupContext="shape" transform="translate(55.88,-5.89078)">
					<title>Sheet.105</title>
					<desc>3201</desc>
					<v:userDefs/>
					<v:textBlock v:margins="rect(0,0,0,0)"/>
					<v:textRect cx="20.0001" cy="328.988" width="40.01" height="12"/>
					<rect x="0" y="322.988" width="40.0001" height="12" class="st3"/>
					<text x="-0" y="331.99" class="st4" v:langID="1044"><v:paragraph/><v:tabList/>3201</text>				</g>
			</g>
			<g id="group106-201" transform="translate(170.079,-187.949)" v:mID="106" v:groupContext="group">
				<v:userDefs/>
				<title>Rectangle.183</title>
				<desc>object_handle_function()</desc>
				<g id="shape107-202" v:mID="107" v:groupContext="shape" transform="translate(0.345598,-5.68434E-014)">
					<title>Sheet.107</title>
					<rect x="0" y="315.145" width="132.035" height="19.8425" class="st1"/>
				</g>
				<g id="shape108-204" v:mID="108" v:groupContext="shape" transform="translate(-1.30296E-012,-1.97279)">
					<title>Sheet.108</title>
					<rect x="0" y="315.145" width="132.035" height="19.8425" class="st5"/>
				</g>
				<g id="shape109-206" v:mID="109" v:groupContext="shape" transform="translate(14.38,-5.89078)">
					<title>Sheet.109</title>
					<desc>object_handle_function()</desc>
					<v:userDefs/>
					<v:textBlock v:margins="rect(0,0,0,0)"/>
					<v:textRect cx="120" cy="328.988" width="240.01" height="12"/>
					<rect x="0" y="322.988" width="240.001" height="12" class="st3"/>
					<text x="-0" y="331.99" class="st4" v:langID="1044"><v:paragraph/><v:tabList/>object_handle_function()</text>				</g>
			</g>
			<g id="group110-209" transform="translate(170.079,-302.173)" v:mID="110" v:groupContext="group">
				<v:userDefs/>
				<title>12pt. text.184</title>
				<desc>CoAP URI: /3201/0/ CoAP code: DELETE</desc>
				<g id="shape111-210" v:mID="111" v:groupContext="shape">
					<title>Sheet.111</title>
					<rect x="0" y="302.673" width="132.035" height="32.315" class="st7"/>
				</g>
				<g id="shape112-212" v:mID="112" v:groupContext="shape" transform="translate(-9.27258E-013,-16.1579)">
					<title>Sheet.112</title>
					<desc>CoAP URI: /3201/0/ CoAP code: DELETE</desc>
					<v:userDefs/>
					<v:textBlock v:margins="rect(0,0,0,0)"/>
					<v:textRect cx="222.002" cy="327.788" width="444.01" height="14.4001"/>
					<rect x="0" y="320.588" width="444.004" height="14.4001" class="st3"/>
					<text x="-0" y="331.39" class="st8" v:langID="1044"><v:paragraph/><v:tabList/><v:newlineChar/>CoAP URI:   /3201/0/<v:newlineChar/><tspan
								x="-0" dy="1.2em" class="st9">CoAP code</tspan>: DELETE</text>				</g>
			</g>
			<g id="group113-216" transform="translate(-94.5724,87.5114) rotate(-90)" v:mID="113" v:groupContext="group">
				<title>Simple Arrow.185</title>
				<g id="shape114-217" v:mID="114" v:groupContext="shape">
					<title>Sheet.114</title>
					<path d="M0 331.02 L11.34 327.05 L11.34 329.03 L52.72 329.03 L52.72 331.02 L52.72 333 L11.34 333 L11.34 334.99
								 L0 331.02 Z" class="st10"/>
				</g>
				<g id="shape115-219" v:mID="115" v:groupContext="shape" transform="translate(1.97279,-0.345598)">
					<title>Sheet.115</title>
					<path d="M0 331.02 L11.34 327.05 L11.34 329.03 L52.72 329.03 L52.72 331.02 L52.72 333 L11.34 333 L11.34 334.99
								 L0 331.02 Z" class="st11"/>
				</g>
			</g>
			<g id="group116-221" transform="translate(-94.5724,267.795) rotate(-90)" v:mID="116" v:groupContext="group">
				<title>Simple Arrow.186</title>
				<g id="shape117-222" v:mID="117" v:groupContext="shape">
					<title>Sheet.117</title>
					<path d="M0 331.02 L11.34 327.05 L11.34 329.03 L120.76 329.03 L120.76 331.02 L120.76 333 L11.34 333 L11.34 334.99
								 L0 331.02 Z" class="st10"/>
				</g>
				<g id="shape118-224" v:mID="118" v:groupContext="shape" transform="translate(1.97279,-0.345598)">
					<title>Sheet.118</title>
					<path d="M0 331.02 L11.34 327.05 L11.34 329.03 L120.76 329.03 L120.76 331.02 L120.76 333 L11.34 333 L11.34 334.99
								 L0 331.02 Z" class="st11"/>
				</g>
			</g>
			<g id="group119-226" transform="translate(170.079,-1.08002E-012)" v:mID="119" v:groupContext="group">
				<v:userDefs/>
				<title>12pt. text.187</title>
				<desc>callback(*object, 0, DELETE, coap_request)</desc>
				<g id="shape120-227" v:mID="120" v:groupContext="shape">
					<title>Sheet.120</title>
					<rect x="0" y="265.823" width="132.035" height="69.1654" class="st7"/>
				</g>
			</g>
		</g>
		<g id="shape122-229" v:mID="122" v:groupContext="shape" transform="translate(3.0294,-36)">
			<title>Sheet.122</title>
			<desc>callback(*object, INVALID_INSTANCE_ID, DELETE, coap_request)</desc>
			<v:userDefs/>
			<v:textBlock v:margins="rect(0,0,0,0)" v:verticalAlign="0"/>
			<v:textRect cx="65.9853" cy="330.488" width="131.98" height="9"/>
			<rect x="0" y="325.988" width="131.971" height="9" class="st3"/>
			<text x="34.59" y="334.09" class="st12" v:langID="1044"><v:paragraph/><v:tabList/>INVALID_INSTANCE_ID,</text>		</g>
		<g id="shape124-232" v:mID="124" v:groupContext="shape" transform="translate(3.0294,-27)">
			<title>Sheet.124</title>
			<desc>callback(*object, INVALID_INSTANCE_ID, DELETE, coap_request)</desc>
			<v:userDefs/>
			<v:textBlock v:margins="rect(0,0,0,0)" v:verticalAlign="0"/>
			<v:textRect cx="65.9853" cy="330.488" width="131.98" height="9"/>
			<rect x="0" y="325.988" width="131.971" height="9" class="st3"/>
			<text x="34.59" y="334.09" class="st12" v:langID="1044"><v:paragraph/><v:tabList/>DELETE,</text>		</g>
		<g id="shape125-235" v:mID="125" v:groupContext="shape" transform="translate(3.0294,-15.75)">
			<title>Sheet.125</title>
			<desc>callback(*object, INVALID_INSTANCE_ID, DELETE, coap_request)</desc>
			<v:userDefs/>
			<v:textBlock v:margins="rect(0,0,0,0)" v:verticalAlign="0"/>
			<v:textRect cx="65.9853" cy="329.363" width="131.98" height="11.25"/>
			<rect x="0" y="323.738" width="131.971" height="11.25" class="st3"/>
			<text x="34.59" y="331.84" class="st12" v:langID="1044"><v:paragraph/><v:tabList/>*coap_request)</text>		</g>
		<g id="shape127-238" v:mID="127" v:groupContext="shape" transform="translate(173.092,-45)">
			<title>Sheet.127</title>
			<desc>callback(*object, INVALID_INSTANCE_ID, DELETE, coap_request)</desc>
			<v:userDefs/>
			<v:textBlock v:margins="rect(0,0,0,0)" v:verticalAlign="0"/>
			<v:textRect cx="65.9853" cy="329.925" width="131.98" height="10.125"/>
			<rect x="0" y="324.863" width="131.971" height="10.125" class="st3"/>
			<text x="2.03" y="332.96" class="st12" v:langID="1044"><v:paragraph/><v:tabList/>callback(*object,</text>		</g>
		<g id="shape128-241" v:mID="128" v:groupContext="shape" transform="translate(173.092,-36)">
			<title>Sheet.128</title>
			<desc>callback(*object, INVALID_INSTANCE_ID, DELETE, coap_request)</desc>
			<v:userDefs/>
			<v:textBlock v:margins="rect(0,0,0,0)" v:verticalAlign="0"/>
			<v:textRect cx="65.9853" cy="330.488" width="131.98" height="9"/>
			<rect x="0" y="325.988" width="131.971" height="9" class="st3"/>
			<text x="34.59" y="334.09" class="st12" v:langID="1044"><v:paragraph/><v:tabList/>0,</text>		</g>
		<g id="shape129-244" v:mID="129" v:groupContext="shape" transform="translate(173.092,-27)">
			<title>Sheet.129</title>
			<desc>callback(*object, INVALID_INSTANCE_ID, DELETE, coap_request)</desc>
			<v:userDefs/>
			<v:textBlock v:margins="rect(0,0,0,0)" v:verticalAlign="0"/>
			<v:textRect cx="65.9853" cy="330.488" width="131.98" height="9"/>
			<rect x="0" y="325.988" width="131.971" height="9" class="st3"/>
			<text x="34.59" y="334.09" class="st12" v:langID="1044"><v:paragraph/><v:tabList/>DELETE,</text>		</g>
		<g id="shape130-247" v:mID="130" v:groupContext="shape" transform="translate(173.092,-15.75)">
			<title>Sheet.130</title>
			<desc>callback(*object, INVALID_INSTANCE_ID, DELETE, coap_request)</desc>
			<v:userDefs/>
			<v:textBlock v:margins="rect(0,0,0,0)" v:verticalAlign="0"/>
			<v:textRect cx="65.9853" cy="329.363" width="131.98" height="11.25"/>
			<rect x="0" y="323.738" width="131.971" height="11.25" class="st3"/>
			<text x="34.59" y="331.84" class="st12" v:langID="1044"><v:paragraph/><v:tabList/>*coap_request)</text>		</g>
		<g id="shape133-250" v:mID="133" v:groupContext="shape" transform="translate(337.441,-44.9704)">
			<title>Sheet.133</title>
			<desc>callback(*object, INVALID_INSTANCE_ID, DELETE, coap_request)</desc>
			<v:userDefs/>
			<v:textBlock v:margins="rect(0,0,0,0)" v:verticalAlign="0"/>
			<v:textRect cx="65.9853" cy="329.925" width="131.98" height="10.125"/>
			<rect x="0" y="324.863" width="131.971" height="10.125" class="st3"/>
			<text x="2.03" y="332.96" class="st12" v:langID="1044"><v:paragraph/><v:tabList/>callback(*instance,</text>		</g>
		<g id="shape134-253" v:mID="134" v:groupContext="shape" transform="translate(337.441,-35.9704)">
			<title>Sheet.134</title>
			<desc>callback(*object, INVALID_INSTANCE_ID, DELETE, coap_request)</desc>
			<v:userDefs/>
			<v:textBlock v:margins="rect(0,0,0,0)" v:verticalAlign="0"/>
			<v:textRect cx="65.9853" cy="330.488" width="131.98" height="9"/>
			<rect x="0" y="325.988" width="131.971" height="9" class="st3"/>
			<text x="34.59" y="334.09" class="st12" v:langID="1044"><v:paragraph/><v:tabList/>INVALID_RESOURCE_ID,</text>		</g>
		<g id="shape135-256" v:mID="135" v:groupContext="shape" transform="translate(337.441,-26.9704)">
			<title>Sheet.135</title>
			<desc>callback(*object, INVALID_INSTANCE_ID, DELETE, coap_request)</desc>
			<v:userDefs/>
			<v:textBlock v:margins="rect(0,0,0,0)" v:verticalAlign="0"/>
			<v:textRect cx="65.9853" cy="330.488" width="131.98" height="9"/>
			<rect x="0" y="325.988" width="131.971" height="9" class="st3"/>
			<text x="34.59" y="334.09" class="st12" v:langID="1044"><v:paragraph/><v:tabList/>WRITE,</text>		</g>
		<g id="shape136-259" v:mID="136" v:groupContext="shape" transform="translate(337.441,-15.7204)">
			<title>Sheet.136</title>
			<desc>callback(*object, INVALID_INSTANCE_ID, DELETE, coap_request)</desc>
			<v:userDefs/>
			<v:textBlock v:margins="rect(0,0,0,0)" v:verticalAlign="0"/>
			<v:textRect cx="65.9853" cy="329.363" width="131.98" height="11.25"/>
			<rect x="0" y="323.738" width="131.971" height="11.25" class="st3"/>
			<text x="34.59" y="331.84" class="st12" v:langID="1044"><v:paragraph/><v:tabList/>*coap_request)</text>		</g>
		<g id="shape137-262" v:mID="137" v:groupContext="shape" transform="translate(507.528,-44.9704)">
			<title>Sheet.137</title>
			<desc>callback(*object, INVALID_INSTANCE_ID, DELETE, coap_request)</desc>
			<v:userDefs/>
			<v:textBlock v:margins="rect(0,0,0,0)" v:verticalAlign="0"/>
			<v:textRect cx="65.9853" cy="329.925" width="131.98" height="10.125"/>
			<rect x="0" y="324.863" width="131.971" height="10.125" class="st3"/>
			<text x="2.03" y="332.96" class="st12" v:langID="1044"><v:paragraph/><v:tabList/>callback(*instance,</text>		</g>
		<g id="shape138-265" v:mID="138" v:groupContext="shape" transform="translate(507.528,-35.9704)">
			<title>Sheet.138</title>
			<desc>callback(*object, INVALID_INSTANCE_ID, DELETE, coap_request)</desc>
			<v:userDefs/>
			<v:textBlock v:margins="rect(0,0,0,0)" v:verticalAlign="0"/>
			<v:textRect cx="65.9853" cy="330.488" width="131.98" height="9"/>
			<rect x="0" y="325.988" width="131.971" height="9" class="st3"/>
			<text x="34.59" y="334.09" class="st12" v:langID="1044"><v:paragraph/><v:tabList/>5550,</text>		</g>
		<g id="shape139-268" v:mID="139" v:groupContext="shape" transform="translate(507.528,-26.9704)">
			<title>Sheet.139</title>
			<desc>callback(*object, INVALID_INSTANCE_ID, DELETE, coap_request)</desc>
			<v:userDefs/>
			<v:textBlock v:margins="rect(0,0,0,0)" v:verticalAlign="0"/>
			<v:textRect cx="65.9853" cy="330.488" width="131.98" height="9"/>
			<rect x="0" y="325.988" width="131.971" height="9" class="st3"/>
			<text x="34.59" y="334.09" class="st12" v:langID="1044"><v:paragraph/><v:tabList/>WRITE,</text>		</g>
		<g id="shape140-271" v:mID="140" v:groupContext="shape" transform="translate(507.528,-15.7204)">
			<title>Sheet.140</title>
			<desc>callback(*object, INVALID_INSTANCE_ID, DELETE, coap_request)</desc>
			<v:userDefs/>
			<v:textBlock v:margins="rect(0,0,0,0)" v:verticalAlign="0"/>
			<v:textRect cx="65.9853" cy="329.363" width="131.98" height="11.25"/>
			<rect x="0" y="323.738" width="131.971" height="11.25" class="st3"/>
			<text x="34.59" y="331.84" class="st12" v:langID="1044"><v:paragraph/><v:tabList/>*coap_request)</text>		</g>
	</g>
</svg>
