<?xml version="1.0" encoding="UTF-8" standalone="no"?>
<!DOCTYPE svg PUBLIC "-//W3C//DTD SVG 1.1//EN" "http://www.w3.org/Graphics/SVG/1.1/DTD/svg11.dtd">
<!-- Generated by Microsoft Visio, SVG Export nRF_UDP_Server.svg Page-1 -->
<svg xmlns="http://www.w3.org/2000/svg" xmlns:xlink="http://www.w3.org/1999/xlink" xmlns:ev="http://www.w3.org/2001/xml-events"
		width="8in" height="2.5in" viewBox="0 0 1148.98 354.938" xml:space="preserve" color-interpolation-filters="sRGB"
		class="st18">
	<style type="text/css">
	<![CDATA[
		.st1 {fill:none}
		.st2 {stroke:#000000;stroke-linecap:round;stroke-linejoin:round;stroke-width:0.75}
		.st3 {fill:none;stroke:#dfdfdf;stroke-linecap:butt;stroke-width:0.75}
		.st4 {stroke:#000000;stroke-linecap:butt;stroke-width:0.75}
		.st5 {fill:none;stroke:none;stroke-linecap:round;stroke-linejoin:round;stroke-width:0.75}
		.st6 {fill:#000000;font-family:Calibri;font-size:1.88976em}
		.st7 {fill:#dfdfdf;font-family:Calibri;font-size:0.944893em}
		.st8 {font-size:1em}
		.st9 {stroke:#dfdfdf;stroke-linecap:round;stroke-linejoin:round;stroke-width:0.75}
		.st10 {fill:#000000;font-family:Calibri;font-size:0.944893em}
		.st11 {fill:#000000;font-family:Calibri;font-size:1.25983em}
		.st12 {fill:#dfdfdf;font-family:Calibri;font-size:1.25983em}
		.st13 {fill:#dfdfdf;font-family:Calibri;font-size:0.629929em}
		.st14 {fill:#000000;font-family:Calibri;font-size:0.629929em}
		.st15 {fill:none;stroke:#000000;stroke-linecap:butt;stroke-width:0.75}
		.st16 {fill:#000000;font-family:Calibri;font-size:0.472435em}
		.st17 {fill:#dfdfdf;font-family:Calibri;font-size:0.472435em}
		.st18 {fill:none;fill-rule:evenodd;font-size:12px;overflow:visible;stroke-linecap:square;stroke-miterlimit:3}
	]]>
	</style>

	<g>
		<title>Page-1</title>
		<g id="shape24472-1" transform="translate(478.745,-80.3194)">
			<title>Sheet.24472</title>
			<path d="M0.23 354.94 C0.03 351.72 -0.18 348.51 0.23 345.3 C0.86 340.25 2.99 335.23 6.28 331.4 C11.53 325.31 19.74 322.28
						 28.03 320.87 C35.74 319.56 43.52 319.65 50.46 322.21 C54.21 323.6 57.72 325.71 61.22 327.82 L0.23 354.94
						 Z" class="st1"/>
			<path d="M0.23 354.94 C0.03 351.72 -0.18 348.51 0.23 345.3 C0.86 340.25 2.99 335.23 6.28 331.4 C11.53 325.31 19.74 322.28
						 28.03 320.87 C35.74 319.56 43.52 319.65 50.46 322.21 C54.21 323.6 57.72 325.71 61.22 327.82" class="st2"/>
		</g>
		<g id="shape24473-4" transform="translate(532.492,-111.635)">
			<title>Sheet.24473</title>
			<path d="M0 354.94 C2.22 352.44 4.56 350.12 7.25 348.37 C13.05 344.62 20.52 343.53 27.88 343.67 C33.49 343.77 39.03 344.59
						 43.58 347.25 C44.7 347.9 45.75 348.66 46.77 349.49 L0 354.94 Z" class="st1"/>
			<path d="M0 354.94 C2.22 352.44 4.56 350.12 7.25 348.37 C13.05 344.62 20.52 343.53 27.88 343.67 C33.49 343.77 39.03 344.59
						 43.58 347.25 C44.7 347.9 45.75 348.66 46.77 349.49" class="st2"/>
		</g>
		<g id="shape24474-7" transform="translate(576.477,-113.351)">
			<title>Sheet.24474</title>
			<path d="M0 354.94 C2.53 351.32 5.23 347.9 8.79 345.61 C15.12 341.53 24.19 340.97 31.68 343.39 L0 354.94 Z" class="st1"/>
			<path d="M0 354.94 C2.53 351.32 5.23 347.9 8.79 345.61 C15.12 341.53 24.19 340.97 31.68 343.39" class="st2"/>
		</g>
		<g id="shape24475-10" transform="translate(611.154,-118.545)">
			<title>Sheet.24475</title>
			<path d="M0 349.76 C2.95 351.12 5.59 352.96 8.15 354.94 L0 349.76 Z" class="st1"/>
			<path d="M0 349.76 C2.95 351.12 5.59 352.96 8.15 354.94" class="st2"/>
		</g>
		<g id="shape24476-13" transform="translate(614.299,-107.507)">
			<title>Sheet.24476</title>
			<path d="M0 347.53 C4.18 344.37 8.42 341.34 13.17 339.27 C18.62 336.9 24.74 335.81 30.8 336.64 C35.59 337.3 40.33 339.16
						 43.7 342.25 C47.23 345.49 49.25 350.08 51 354.91 C51 354.92 51 354.92 51 354.93 C51 354.93 51 354.93 51
						 354.94 L0 347.53 Z" class="st1"/>
			<path d="M0 347.53 C4.18 344.37 8.42 341.34 13.17 339.27 C18.62 336.9 24.74 335.81 30.8 336.64 C35.59 337.3 40.33 339.16
						 43.7 342.25 C47.23 345.49 49.25 350.08 51 354.91 C51 354.92 51 354.92 51 354.93 C51 354.93 51 354.93 51
						 354.94" class="st2"/>
		</g>
		<g id="shape24477-16" transform="translate(663.843,-88.3562)">
			<title>Sheet.24477</title>
			<path d="M0 335.9 C2.67 335.68 3.89 335.65 5.12 335.73 C8.51 335.93 11.99 336.9 14.68 338.88 C17.77 341.15 19.83 344.73
						 21 348.53 C21.65 350.63 22.02 352.79 22.02 354.94 L0 335.9 Z" class="st1"/>
			<path d="M0 335.9 C2.67 335.68 3.89 335.65 5.12 335.73 C8.51 335.93 11.99 336.9 14.68 338.88 C17.77 341.15 19.83 344.73
						 21 348.53 C21.65 350.63 22.02 352.79 22.02 354.94" class="st2"/>
		</g>
		<g id="shape24478-19" transform="translate(676.398,-73.9621)">
			<title>Sheet.24478</title>
			<path d="M9.23 343.38 C9.13 344.01 8.98 344.64 8.79 345.27 C7.95 348.07 6.27 350.71 4.06 352.54 C2.84 353.55 1.47 354.31
						 0 354.94 L9.23 343.38 Z" class="st1"/>
			<path d="M9.23 343.38 C9.13 344.01 8.98 344.64 8.79 345.27 C7.95 348.07 6.27 350.71 4.06 352.54 C2.84 353.55 1.47 354.31
						 0 354.94" class="st2"/>
		</g>
		<g id="shape24479-22" transform="translate(661.234,-39.8496)">
			<title>Sheet.24479</title>
			<path d="M22.59 314.34 C25.24 317.33 27.66 320.44 28.99 324.11 C30.24 327.54 30.53 331.46 29.7 335.07 C28.92 338.39 27.19
						 341.45 24.96 344.01 C22.09 347.3 18.41 349.75 14.43 351.64 C10.78 353.37 6.87 354.62 2.94 354.88 C1.96 354.95
						 0.98 354.95 -0 354.91 L22.59 314.34 Z" class="st1"/>
			<path d="M22.59 314.34 C25.24 317.33 27.66 320.44 28.99 324.11 C30.24 327.54 30.53 331.46 29.7 335.07 C28.92 338.39 27.19
						 341.45 24.96 344.01 C22.09 347.3 18.41 349.75 14.43 351.64 C10.78 353.37 6.87 354.62 2.94 354.88 C1.96 354.95
						 0.98 354.95 -0 354.91" class="st2"/>
		</g>
		<g id="shape24480-25" transform="translate(612.775,-14.273)">
			<title>Sheet.24480</title>
			<path d="M30.98 310.41 C35.04 312.36 39.1 314.31 42.2 317.36 C44.45 319.57 46.21 322.36 47.36 325.43 C48.82 329.32 49.32
						 333.67 48.26 337.54 C46.7 343.21 41.78 347.87 36.37 350.77 C29.69 354.33 22.24 355.21 14.83 355.03 C11.25
						 354.94 7.67 354.6 4.29 353.68 C2.83 353.28 1.4 352.77 0 352.17 L30.98 310.41 Z" class="st1"/>
			<path d="M30.98 310.41 C35.04 312.36 39.1 314.31 42.2 317.36 C44.45 319.57 46.21 322.36 47.36 325.43 C48.82 329.32 49.32
						 333.67 48.26 337.54 C46.7 343.21 41.78 347.87 36.37 350.77 C29.69 354.33 22.24 355.21 14.83 355.03 C11.25
						 354.94 7.67 354.6 4.29 353.68 C2.83 353.28 1.4 352.77 0 352.17" class="st2"/>
		</g>
		<g id="shape24481-28" transform="translate(543.443,-1.13687E-013)">
			<title>Sheet.24481</title>
			<path d="M71.96 330.7 C70.53 335.49 68.78 340.04 65.77 343.67 C60.74 349.72 52.22 353.18 44.01 354.43 C37.03 355.49 30.28
						 354.96 23.38 353.53 C17.16 352.25 10.82 350.24 6.33 346.13 C3.84 343.86 1.92 340.95 0 338.03 L71.96 330.7
						 Z" class="st1"/>
			<path d="M71.96 330.7 C70.53 335.49 68.78 340.04 65.77 343.67 C60.74 349.72 52.22 353.18 44.01 354.43 C37.03 355.49 30.28
						 354.96 23.38 353.53 C17.16 352.25 10.82 350.24 6.33 346.13 C3.84 343.86 1.92 340.95 0 338.03" class="st2"/>
		</g>
		<g id="shape24482-31" transform="translate(490.928,-5.58812)">
			<title>Sheet.24482</title>
			<path d="M57.25 350.1 C57.22 350.11 57.2 350.12 57.18 350.13 C57.18 350.13 57.17 350.13 57.17 350.13 C52.59 351.84 47.96
						 353.33 43.14 354.19 C34.54 355.71 25.37 355.19 17.12 351.95 C11.38 349.68 6.08 346.1 2.32 341.41 C1.47 340.36
						 0.71 339.25 0 338.11 L57.25 350.1 Z" class="st1"/>
			<path d="M57.25 350.1 C57.22 350.11 57.2 350.12 57.18 350.13 C57.18 350.13 57.17 350.13 57.17 350.13 C52.59 351.84 47.96
						 353.33 43.14 354.19 C34.54 355.71 25.37 355.19 17.12 351.95 C11.38 349.68 6.08 346.1 2.32 341.41 C1.47 340.36
						 0.71 339.25 0 338.11" class="st2"/>
		</g>
		<g id="shape24483-34" transform="translate(463.293,-22.3953)">
			<title>Sheet.24483</title>
			<path d="M32.28 354.63 C29.12 354.91 25.9 355.04 22.55 354.85 C15.36 354.44 7.54 352.54 3.48 347.23 C1.54 344.7 0.46
						 341.39 0.12 338.04 C-0.17 335.25 0.05 332.44 1.01 329.97 C1.79 327.97 3.04 326.2 4.48 324.52 L32.28 354.63
						 Z" class="st1"/>
			<path d="M32.28 354.63 C29.12 354.91 25.9 355.04 22.55 354.85 C15.36 354.44 7.54 352.54 3.48 347.23 C1.54 344.7 0.46
						 341.39 0.12 338.04 C-0.17 335.25 0.05 332.44 1.01 329.97 C1.79 327.97 3.04 326.2 4.48 324.52" class="st2"/>
		</g>
		<g id="shape24484-37" transform="translate(456.743,-48.8131)">
			<title>Sheet.24484</title>
			<path d="M24.56 354.94 C21.4 354.34 18.26 353.6 15.19 352.57 C11.36 351.29 7.63 349.54 4.65 346.74 C2.56 344.79 0.84
						 342.34 0.24 339.58 C-0.44 336.42 0.36 332.86 2.09 330.11 C5.04 325.41 10.72 323.1 16.12 321.43 C18.12 320.81
						 20.08 320.28 22.03 319.78 L24.56 354.94 Z" class="st1"/>
			<path d="M24.56 354.94 C21.4 354.34 18.26 353.6 15.19 352.57 C11.36 351.29 7.63 349.54 4.65 346.74 C2.56 344.79 0.84
						 342.34 0.24 339.58 C-0.44 336.42 0.36 332.86 2.09 330.11 C5.04 325.41 10.72 323.1 16.12 321.43 C18.12 320.81
						 20.08 320.28 22.03 319.78" class="st2"/>
		</g>
		<g id="shape24485-40" transform="translate(0,-9.62588)">
			<title>Sheet.24485</title>
			<path d="M0 248.63 L225.81 248.63 L225.81 354.94 L0 354.94 L0 248.63 Z" class="st3"/>
		</g>
		<g id="shape24486-42" transform="translate(931.272,-17.5753)">
			<title>Sheet.24486</title>
			<path d="M0 284.16 L0 265.77 L209.33 265.77 L209.33 354.94 L0 354.94 L0 286.99 L0 286.99 L0 284.16 Z" class="st1"/>
			<path d="M0 284.16 L0 265.77 L209.33 265.77 L209.33 354.94 L0 354.94 L0 286.99 L0 286.99" class="st4"/>
		</g>
		<g id="shape24487-45" transform="translate(923.164,-9.62588)">
			<title>Sheet.24487</title>
			<path d="M0 276.21 L0 248.63 L225.81 248.63 L225.81 354.94 L0 354.94 L0 279.04 L0 279.04 L0 276.21 Z" class="st1"/>
			<path d="M0 276.21 L0 248.63 L225.81 248.63 L225.81 354.94 L0 354.94 L0 279.04 L0 279.04" class="st4"/>
		</g>
		<g id="shape24488-48" transform="translate(473.795,-54.5177)">
			<title>Sheet.24488</title>
			<desc>Internet</desc>
			<rect x="0" y="332.261" width="197.596" height="22.6772" class="st5"/>
			<text x="61.19" y="350.4" class="st6">Internet</text>		</g>
		<g id="shape24489-51" transform="translate(565.986,-199.88)">
			<title>Sheet.24489</title>
			<path d="M0 354.94 L4.25 354.94" class="st2"/>
		</g>
		<g id="shape24490-54" transform="translate(578.742,-199.88)">
			<title>Sheet.24490</title>
			<path d="M0 354.94 L4.25 354.94" class="st2"/>
		</g>
		<g id="shape24491-57" transform="translate(248.52,-3.67514) rotate(-63.4349)">
			<title>Sheet.24491</title>
			<path d="M0 354.94 L19.02 354.94" class="st2"/>
		</g>
		<g id="shape24492-60" transform="translate(891.956,-20.683) rotate(63.4349)">
			<title>Sheet.24492</title>
			<path d="M0 354.94 L19.02 354.94" class="st2"/>
		</g>
		<g id="shape24493-63" transform="translate(565.986,-139.843)">
			<title>Sheet.24493</title>
			<path d="M0 354.94 L4.25 354.94" class="st2"/>
		</g>
		<g id="shape24494-66" transform="translate(578.742,-139.843)">
			<title>Sheet.24494</title>
			<path d="M0 354.94 L4.25 354.94" class="st2"/>
		</g>
		<g id="shape24495-69" transform="translate(883.452,56.362) rotate(63.4349)">
			<title>Sheet.24495</title>
			<path d="M0 354.94 L19.02 354.94" class="st2"/>
		</g>
		<g id="shape24496-72" transform="translate(257.024,73.3699) rotate(-63.4349)">
			<title>Sheet.24496</title>
			<path d="M0 354.94 L19.02 354.94" class="st2"/>
		</g>
		<g id="shape24497-75" transform="translate(215.3,215.095) rotate(-90)">
			<title>Sheet.24497</title>
			<path d="M0 354.94 L60.04 354.94" class="st2"/>
		</g>
		<g id="shape24498-78" transform="translate(933.679,155.058) rotate(90)">
			<title>Sheet.24498</title>
			<path d="M0 354.94 L60.04 354.94" class="st2"/>
		</g>
		<g id="shape24499-81" transform="translate(280.957,-9.62588)">
			<title>Sheet.24499</title>
			<path d="M0 248.63 L69.26 248.63 L69.26 354.94 L0 354.94 L0 248.63 Z" class="st3"/>
		</g>
		<g id="shape24500-83" transform="translate(216.367,-59.6827)">
			<title>Sheet.24500</title>
			<desc>BLE enabled router</desc>
			<rect x="0" y="343.599" width="197.596" height="11.3386" class="st5"/>
			<text x="90.56" y="339.06" class="st7">BLE <tspan x="80.2" dy="1.2em" class="st8">enabled </tspan><tspan x="84.16"
						dy="1.2em" class="st8">router</tspan></text>		</g>
		<g id="shape24501-88" transform="translate(597.761,283.653) rotate(90)">
			<title>Sheet.24501</title>
			<path d="M0 354.94 L4.25 354.94" class="st9"/>
		</g>
		<g id="shape24502-91" transform="translate(597.761,296.409) rotate(90)">
			<title>Sheet.24502</title>
			<path d="M0 354.94 L4.25 354.94" class="st9"/>
		</g>
		<g id="shape24503-94" transform="translate(401.556,601.119) rotate(153.435)">
			<title>Sheet.24503</title>
			<path d="M0 354.94 L19.02 354.94" class="st9"/>
		</g>
		<g id="shape24504-97" transform="translate(384.548,-25.3089) rotate(26.5651)">
			<title>Sheet.24504</title>
			<path d="M0 354.94 L19.02 354.94" class="st9"/>
		</g>
		<g id="shape24505-100" transform="translate(242.823,-67.0326)">
			<title>Sheet.24505</title>
			<path d="M0 354.94 L21.13 354.94" class="st9"/>
		</g>
		<g id="shape24506-103" transform="translate(263.949,651.347) rotate(180)">
			<title>Sheet.24506</title>
			<path d="M0 354.94 L21.13 354.94" class="st9"/>
		</g>
		<g id="shape24507-106" transform="translate(618.887,283.653) rotate(90)">
			<title>Sheet.24507</title>
			<path d="M0 354.94 L4.25 354.94" class="st9"/>
		</g>
		<g id="shape24508-109" transform="translate(618.887,296.409) rotate(90)">
			<title>Sheet.24508</title>
			<path d="M0 354.94 L4.25 354.94" class="st9"/>
		</g>
		<g id="shape24509-112" transform="translate(422.682,-33.8128) rotate(26.5651)">
			<title>Sheet.24509</title>
			<path d="M0 354.94 L19.02 354.94" class="st9"/>
		</g>
		<g id="shape24510-115" transform="translate(439.69,609.623) rotate(153.435)">
			<title>Sheet.24510</title>
			<path d="M0 354.94 L19.02 354.94" class="st9"/>
		</g>
		<g id="shape24511-118" transform="translate(794.335,283.653) rotate(90)">
			<title>Sheet.24511</title>
			<path d="M0 354.94 L4.25 354.94" class="st9"/>
		</g>
		<g id="shape24512-121" transform="translate(794.335,296.409) rotate(90)">
			<title>Sheet.24512</title>
			<path d="M0 354.94 L4.25 354.94" class="st9"/>
		</g>
		<g id="shape24513-124" transform="translate(598.131,-33.8128) rotate(26.5651)">
			<title>Sheet.24513</title>
			<path d="M0 354.94 L19.02 354.94" class="st9"/>
		</g>
		<g id="shape24514-127" transform="translate(615.139,609.623) rotate(153.435)">
			<title>Sheet.24514</title>
			<path d="M0 354.94 L19.02 354.94" class="st9"/>
		</g>
		<g id="shape24515-130" transform="translate(722.164,283.653) rotate(90)">
			<title>Sheet.24515</title>
			<path d="M0 354.94 L4.25 354.94" class="st9"/>
		</g>
		<g id="shape24516-133" transform="translate(722.164,296.409) rotate(90)">
			<title>Sheet.24516</title>
			<path d="M0 354.94 L4.25 354.94" class="st9"/>
		</g>
		<g id="shape24517-136" transform="translate(525.959,601.119) rotate(153.435)">
			<title>Sheet.24517</title>
			<path d="M0 354.94 L19.02 354.94" class="st9"/>
		</g>
		<g id="shape24518-139" transform="translate(508.951,-25.3089) rotate(26.5651)">
			<title>Sheet.24518</title>
			<path d="M0 354.94 L19.02 354.94" class="st9"/>
		</g>
		<g id="shape24519-142" transform="translate(367.226,-67.0326)">
			<title>Sheet.24519</title>
			<path d="M0 354.94 L72.17 354.94" class="st9"/>
		</g>
		<g id="shape24520-145" transform="translate(439.398,651.347) rotate(180)">
			<title>Sheet.24520</title>
			<path d="M0 354.94 L72.17 354.94" class="st9"/>
		</g>
		<g id="shape24521-148" transform="translate(798.761,-9.62588)">
			<title>Sheet.24521</title>
			<path d="M0 279.04 L0 354.94 L69.26 354.94 L69.26 279.04 L69.26 279.04 L0 279.04 Z" class="st1"/>
			<path d="M0 279.04 L0 354.94 L69.26 354.94 L69.26 279.04 L69.26 279.04" class="st4"/>
		</g>
		<g id="shape24522-151" transform="translate(798.761,-88.3562)">
			<title>Sheet.24522</title>
			<path d="M69.26 354.94 L69.26 327.36 L0 327.36 L0 354.94 L0 354.94 L69.26 354.94 Z" class="st1"/>
			<path d="M69.26 354.94 L69.26 327.36 L0 327.36 L0 354.94 L0 354.94" class="st4"/>
		</g>
		<g id="shape24523-154" transform="translate(1261.09,283.653) rotate(90)">
			<title>Sheet.24523</title>
			<path d="M0 354.94 L4.25 354.94" class="st2"/>
		</g>
		<g id="shape24524-157" transform="translate(1261.09,296.409) rotate(90)">
			<title>Sheet.24524</title>
			<path d="M0 354.94 L4.25 354.94" class="st2"/>
		</g>
		<g id="shape24525-160" transform="translate(1064.89,-33.8128) rotate(26.5651)">
			<title>Sheet.24525</title>
			<path d="M0 354.94 L19.02 354.94" class="st2"/>
		</g>
		<g id="shape24526-163" transform="translate(1081.9,609.623) rotate(153.435)">
			<title>Sheet.24526</title>
			<path d="M0 354.94 L19.02 354.94" class="st2"/>
		</g>
		<g id="shape24527-166" transform="translate(906.156,642.843) rotate(180)">
			<title>Sheet.24527</title>
			<path d="M0 354.94 L21.13 354.94" class="st2"/>
		</g>
		<g id="shape24528-169" transform="translate(885.03,-58.5287)">
			<title>Sheet.24528</title>
			<path d="M0 354.94 L21.13 354.94" class="st2"/>
		</g>
		<g id="shape24529-172" transform="translate(1239.97,283.653) rotate(90)">
			<title>Sheet.24529</title>
			<path d="M0 354.94 L4.25 354.94" class="st2"/>
		</g>
		<g id="shape24530-175" transform="translate(1239.97,296.409) rotate(90)">
			<title>Sheet.24530</title>
			<path d="M0 354.94 L4.25 354.94" class="st2"/>
		</g>
		<g id="shape24531-178" transform="translate(1043.76,601.119) rotate(153.435)">
			<title>Sheet.24531</title>
			<path d="M0 354.94 L19.02 354.94" class="st2"/>
		</g>
		<g id="shape24532-181" transform="translate(1026.76,-25.3089) rotate(26.5651)">
			<title>Sheet.24532</title>
			<path d="M0 354.94 L19.02 354.94" class="st2"/>
		</g>
		<g id="shape24533-184" transform="translate(1064.52,283.653) rotate(90)">
			<title>Sheet.24533</title>
			<path d="M0 354.94 L4.25 354.94" class="st2"/>
		</g>
		<g id="shape24534-187" transform="translate(1064.52,296.409) rotate(90)">
			<title>Sheet.24534</title>
			<path d="M0 354.94 L4.25 354.94" class="st2"/>
		</g>
		<g id="shape24535-190" transform="translate(868.314,601.119) rotate(153.435)">
			<title>Sheet.24535</title>
			<path d="M0 354.94 L19.02 354.94" class="st2"/>
		</g>
		<g id="shape24536-193" transform="translate(851.307,-25.3089) rotate(26.5651)">
			<title>Sheet.24536</title>
			<path d="M0 354.94 L19.02 354.94" class="st2"/>
		</g>
		<g id="shape24537-196" transform="translate(1136.69,283.653) rotate(90)">
			<title>Sheet.24537</title>
			<path d="M0 354.94 L4.25 354.94" class="st2"/>
		</g>
		<g id="shape24538-199" transform="translate(1136.69,296.409) rotate(90)">
			<title>Sheet.24538</title>
			<path d="M0 354.94 L4.25 354.94" class="st2"/>
		</g>
		<g id="shape24539-202" transform="translate(940.486,-33.8128) rotate(26.5651)">
			<title>Sheet.24539</title>
			<path d="M0 354.94 L19.02 354.94" class="st2"/>
		</g>
		<g id="shape24540-205" transform="translate(957.494,609.623) rotate(153.435)">
			<title>Sheet.24540</title>
			<path d="M0 354.94 L19.02 354.94" class="st2"/>
		</g>
		<g id="shape24541-208" transform="translate(781.753,642.843) rotate(180)">
			<title>Sheet.24541</title>
			<path d="M0 354.94 L72.17 354.94" class="st2"/>
		</g>
		<g id="shape24542-211" transform="translate(709.582,-58.5287)">
			<title>Sheet.24542</title>
			<path d="M0 354.94 L72.17 354.94" class="st2"/>
		</g>
		<g id="shape24543-214" transform="translate(734.171,-59.6827)">
			<title>Sheet.24543</title>
			<desc>BLE enabled router</desc>
			<rect x="0" y="343.599" width="197.596" height="11.3386" class="st5"/>
			<text x="90.56" y="339.06" class="st10">BLE <tspan x="80.2" dy="1.2em" class="st8">enabled </tspan><tspan x="84.16"
						dy="1.2em" class="st8">router</tspan></text>		</g>
		<g id="shape24617-219" transform="translate(965.69,148.386) rotate(90)">
			<title>Sheet.24617</title>
			<path d="M0 354.94 L77.09 354.94" class="st2"/>
		</g>
		<g id="shape24618-222" transform="translate(962.855,148.386) rotate(90)">
			<title>Sheet.24618</title>
			<path d="M0 354.94 L77.09 354.94" class="st2"/>
		</g>
		<g id="shape24619-225" transform="translate(607.917,-85.5216)">
			<title>Sheet.24619</title>
			<path d="M0 311 A43.937 43.937 -180 0 0 43.94 354.94 L0 311 Z" class="st1"/>
			<path d="M0 311 A43.937 43.937 -180 0 0 43.94 354.94" class="st2"/>
		</g>
		<g id="shape24620-228" transform="translate(610.752,-88.3562)">
			<title>Sheet.24620</title>
			<path d="M0 313.84 A41.1024 41.1024 -180 0 0 41.1 354.94 L0 313.84 Z" class="st1"/>
			<path d="M0 313.84 A41.1024 41.1024 -180 0 0 41.1 354.94" class="st2"/>
		</g>
		<g id="shape24621-231" transform="translate(933.316,624.354) rotate(180)">
			<title>Sheet.24621</title>
			<path d="M0 354.94 L281.46 354.94" class="st2"/>
		</g>
		<g id="shape24622-234" transform="translate(933.316,621.519) rotate(180)">
			<title>Sheet.24622</title>
			<path d="M0 354.94 L281.46 354.94" class="st2"/>
		</g>
		<g id="shape24623-237" transform="translate(1092.05,-53.1374) rotate(26.5651)">
			<title>Sheet.24623</title>
			<path d="M0 354.94 L8.21 354.94" class="st2"/>
		</g>
		<g id="shape24624-240" transform="translate(1099.39,585.465) rotate(153.435)">
			<title>Sheet.24624</title>
			<path d="M0 354.94 L8.21 354.94" class="st2"/>
		</g>
		<g id="shape24625-243" transform="translate(1288.25,264.329) rotate(90)">
			<title>Sheet.24625</title>
			<path d="M0 354.94 L2.25 354.94" class="st2"/>
		</g>
		<g id="shape24626-246" transform="translate(1288.25,269.416) rotate(90)">
			<title>Sheet.24626</title>
			<path d="M0 354.94 L2.25 354.94" class="st2"/>
		</g>
		<g id="shape24627-249" transform="translate(288.198,-10.3473) rotate(-63.4349)">
			<title>Sheet.24627</title>
			<path d="M0 354.94 L8.21 354.94" class="st2"/>
		</g>
		<g id="shape24628-252" transform="translate(926.8,-17.6878) rotate(63.4349)">
			<title>Sheet.24628</title>
			<path d="M0 354.94 L8.21 354.94" class="st2"/>
		</g>
		<g id="shape24629-255" transform="translate(605.664,-206.552)">
			<title>Sheet.24629</title>
			<path d="M0 354.94 L2.25 354.94" class="st2"/>
		</g>
		<g id="shape24630-258" transform="translate(610.752,-206.552)">
			<title>Sheet.24630</title>
			<path d="M0 354.94 L2.25 354.94" class="st2"/>
		</g>
		<g id="shape24836-261" transform="translate(499.906,-354.938)">
			<title>Sheet.24836</title>
			<path d="M0 354.94 L151.71 354.94" class="st2"/>
		</g>
		<g id="shape24837-264" transform="translate(497.185,-352.199)">
			<title>Sheet.24837</title>
			<path d="M2.72 352.2 A2.72126 2.72126 -180 0 0 -0 354.94 L2.72 352.2 Z" class="st1"/>
			<path d="M2.72 352.2 A2.72126 2.72126 -180 0 0 -0 354.94" class="st2"/>
		</g>
		<g id="shape24838-267" transform="translate(502.205,-348.082)">
			<title>Sheet.24838</title>
			<path d="M0 354.94 L147.22 354.94" class="st2"/>
		</g>
		<g id="shape24839-270" transform="translate(501.525,-347.399)">
			<title>Sheet.24839</title>
			<path d="M0.68 354.25 a0.680315 0.680315 -180 0 0 -0.680308 0.6834 L0.68 354.25 Z" class="st1"/>
			<path d="M0.68 354.25 a0.680315 0.680315 -180 0 0 -0.680308 0.6834" class="st2"/>
		</g>
		<g id="shape24840-273" transform="translate(501.899,-264.995)">
			<title>Sheet.24840</title>
			<path d="M0 354.94 L148.25 354.94" class="st2"/>
		</g>
		<g id="shape24841-276" transform="translate(502.578,-264.447)">
			<title>Sheet.24841</title>
			<path d="M0 354.94 L146.89 354.94" class="st2"/>
		</g>
		<g id="shape24842-279" transform="translate(499.814,-257.454)">
			<title>Sheet.24842</title>
			<path d="M0 354.94 L152.25 354.94" class="st2"/>
		</g>
		<g id="shape24843-282" transform="translate(497.773,-257.763)">
			<title>Sheet.24843</title>
			<path d="M0 353.22 A2.04094 2.04094 -180 0 0 0.96 354.94 L0 353.22 Z" class="st1"/>
			<path d="M0 353.22 A2.04094 2.04094 -180 0 0 0.96 354.94" class="st2"/>
		</g>
		<g id="shape24844-285" transform="translate(498.735,-257.454)">
			<title>Sheet.24844</title>
			<path d="M0 354.63 A2.04094 2.04094 -180 0 0 1.08 354.94 L0 354.63 Z" class="st1"/>
			<path d="M0 354.63 A2.04094 2.04094 -180 0 0 1.08 354.94" class="st2"/>
		</g>
		<g id="shape24845-288" transform="translate(483.284,-238.43)">
			<title>Sheet.24845</title>
			<path d="M0 354.94 L0.84 354.94" class="st2"/>
		</g>
		<g id="shape24846-291" transform="translate(484.12,-238.43)">
			<title>Sheet.24846</title>
			<path d="M0 354.94 L183.1 354.94" class="st2"/>
		</g>
		<g id="shape24847-294" transform="translate(667.218,-238.43)">
			<title>Sheet.24847</title>
			<path d="M0 354.94 L0.83 354.94" class="st2"/>
		</g>
		<g id="shape24848-297" transform="translate(473.999,-225.831)">
			<title>Sheet.24848</title>
			<path d="M0 354.94 L202.61 354.94" class="st2"/>
		</g>
		<g id="shape24849-300" transform="translate(473.482,-226.953)">
			<title>Sheet.24849</title>
		</g>
		<g id="shape24850-301" transform="translate(473.319,-225.831)">
			<title>Sheet.24850</title>
			<path d="M0 354.26 a0.680315 0.680315 -180 0 0 0.680315 0.680315 L0 354.26 Z" class="st1"/>
			<path d="M0 354.26 a0.680315 0.680315 -180 0 0 0.680315 0.680315" class="st2"/>
		</g>
		<g id="shape24851-304" transform="translate(485.787,-219.576)">
			<title>Sheet.24851</title>
			<path d="M0 354.94 L175.97 354.94" class="st2"/>
		</g>
		<g id="shape24852-307" transform="translate(852.115,0.486632) rotate(89.6365)">
			<title>Sheet.24852</title>
			<path d="M0 354.94 L92.72 354.94" class="st2"/>
		</g>
		<g id="shape24853-310" transform="translate(856.459,5.9294) rotate(89.7402)">
			<title>Sheet.24853</title>
			<path d="M0 354.94 L82.28 354.94" class="st2"/>
		</g>
		<g id="shape24854-313" transform="translate(501.898,-264.447)">
			<title>Sheet.24854</title>
			<path d="M0 354.26 a0.680315 0.680315 -180 0 0 0.680308 0.67723 L0 354.26 Z" class="st1"/>
			<path d="M0 354.26 a0.680315 0.680315 -180 0 0 0.680308 0.67723" class="st2"/>
		</g>
		<g id="shape24855-316" transform="translate(1005.05,7.36509) rotate(89.9725)">
			<title>Sheet.24855</title>
			<path d="M0 354.94 L82.28 354.94" class="st2"/>
		</g>
		<g id="shape24856-319" transform="translate(649.467,-264.447)">
			<title>Sheet.24856</title>
			<path d="M-0 354.94 a0.680315 0.680315 -180 0 0 0.680315 -0.680641 L0 354.94 Z" class="st1"/>
			<path d="M-0 354.94 a0.680315 0.680315 -180 0 0 0.680315 -0.680641" class="st2"/>
		</g>
		<g id="shape24857-322" transform="translate(649.427,-347.402)">
			<title>Sheet.24857</title>
			<path d="M0.68 354.94 a0.680315 0.680315 -180 0 0 -0.680315 -0.679989 L0.68 354.94 Z" class="st1"/>
			<path d="M0.68 354.94 a0.680315 0.680315 -180 0 0 -0.680315 -0.679989" class="st2"/>
		</g>
		<g id="shape24858-325" transform="translate(299.171,94.5649) rotate(-89.8575)">
			<title>Sheet.24858</title>
			<path d="M0 354.94 L92.72 354.94" class="st2"/>
		</g>
		<g id="shape24859-328" transform="translate(652.067,-257.454)">
			<title>Sheet.24859</title>
			<path d="M0 354.94 A2.04094 2.04094 -180 0 0 1.51 354.27 L0 354.94 Z" class="st1"/>
			<path d="M0 354.94 A2.04094 2.04094 -180 0 0 1.51 354.27" class="st2"/>
		</g>
		<g id="shape24860-331" transform="translate(653.581,-258.127)">
			<title>Sheet.24860</title>
			<path d="M0 354.94 A2.04094 2.04094 -180 0 0 0.53 353.57 L0 354.94 Z" class="st1"/>
			<path d="M0 354.94 A2.04094 2.04094 -180 0 0 0.53 353.57" class="st2"/>
		</g>
		<g id="shape24861-334" transform="translate(651.617,-352.21)">
			<title>Sheet.24861</title>
			<path d="M2.72 354.94 A2.72126 2.72126 -180 0 0 -0 352.21 L2.72 354.94 Z" class="st1"/>
			<path d="M2.72 354.94 A2.72126 2.72126 -180 0 0 -0 352.21" class="st2"/>
		</g>
		<g id="shape24862-337" transform="translate(767.133,330.685) rotate(130.499)">
			<title>Sheet.24862</title>
			<path d="M0 354.94 L3.2 354.94" class="st2"/>
		</g>
		<g id="shape24863-340" transform="translate(753.183,347.018) rotate(130.499)">
			<title>Sheet.24863</title>
			<path d="M0 354.94 L15.09 354.94" class="st2"/>
		</g>
		<g id="shape24864-343" transform="translate(933.258,-120.336) rotate(51.6576)">
			<title>Sheet.24864</title>
			<path d="M0 354.94 L3.51 354.94" class="st2"/>
		</g>
		<g id="shape24865-346" transform="translate(946.43,-103.682) rotate(51.6576)">
			<title>Sheet.24865</title>
			<path d="M0 354.94 L14.66 354.94" class="st2"/>
		</g>
		<g id="shape24866-349" transform="translate(676.607,-225.831)">
			<title>Sheet.24866</title>
			<path d="M0 354.94 a0.680315 0.680315 -180 0 0 0.680315 -0.680315 L0 354.94 Z" class="st1"/>
			<path d="M0 354.94 a0.680315 0.680315 -180 0 0 0.680315 -0.680315" class="st2"/>
		</g>
		<g id="shape24867-352" transform="translate(677.287,-226.511)">
			<title>Sheet.24867</title>
		</g>
		<g id="shape24868-353" transform="translate(759.767,476.862) rotate(166.45)">
			<title>Sheet.24868</title>
			<path d="M0 354.94 L15.11 354.94" class="st2"/>
		</g>
		<g id="shape24869-356" transform="translate(661.76,-219.576)">
			<title>Sheet.24869</title>
		</g>
		<g id="shape24870-357" transform="translate(531.943,-237.686)">
			<title>Sheet.24870</title>
			<path d="M0 354.94 L45.36 354.94" class="st2"/>
		</g>
		<g id="shape24871-360" transform="translate(531.003,-237.063)">
			<title>Sheet.24871</title>
			<path d="M0.94 354.31 A1.02047 1.02047 -180 0 0 -0 354.94 L0.94 354.31 Z" class="st1"/>
			<path d="M0.94 354.31 A1.02047 1.02047 -180 0 0 -0 354.94" class="st2"/>
		</g>
		<g id="shape24872-363" transform="translate(528.111,-228.392)">
			<title>Sheet.24872</title>
			<path d="M0 354.94 L49.15 354.94" class="st2"/>
		</g>
		<g id="shape24873-366" transform="translate(578.287,479.818) rotate(180)">
			<title>Sheet.24873</title>
			<path d="M0 354.94 L50.24 354.94" class="st2"/>
		</g>
		<g id="shape24874-369" transform="translate(857.984,255.949) rotate(112.893)">
			<title>Sheet.24874</title>
			<path d="M0 354.94 L8.64 354.94" class="st2"/>
		</g>
		<g id="shape24875-372" transform="translate(527.641,-228.392)">
			<title>Sheet.24875</title>
			<path d="M0 354.23 a0.510236 0.510236 -180 0 0 0.470047 0.708723 L0 354.23 Z" class="st1"/>
			<path d="M0 354.23 a0.510236 0.510236 -180 0 0 0.470047 0.708723" class="st2"/>
		</g>
		<g id="shape24876-375" transform="translate(901.848,192.983) rotate(101.062)">
			<title>Sheet.24876</title>
			<path d="M0 354.94 L1.7 354.94" class="st2"/>
		</g>
		<g id="shape24877-378" transform="translate(901.472,192.983) rotate(101.062)">
			<title>Sheet.24877</title>
			<path d="M0 354.94 L1.7 354.94" class="st2"/>
		</g>
		<g id="shape24878-381" transform="translate(933.254,120.091) rotate(90.2929)">
			<title>Sheet.24878</title>
			<path d="M0 354.94 L7.25 354.94" class="st2"/>
		</g>
		<g id="shape24879-384" transform="translate(577.263,-228.392)">
			<title>Sheet.24879</title>
			<path d="M0 354.94 A1.02047 1.02047 -180 0 0 1.02 353.92 L0 354.94 Z" class="st1"/>
			<path d="M0 354.94 A1.02047 1.02047 -180 0 0 1.02 353.92" class="st2"/>
		</g>
		<g id="shape24880-387" transform="translate(577.3,-236.661)">
			<title>Sheet.24880</title>
			<path d="M1.02 354.94 A1.02047 1.02047 -180 0 0 0 353.91 L1.02 354.94 Z" class="st1"/>
			<path d="M1.02 354.94 A1.02047 1.02047 -180 0 0 0 353.91" class="st2"/>
		</g>
		<g id="shape24881-390" transform="translate(497.804,-256.736)">
			<title>Sheet.24881</title>
			<path d="M0 354.94 L156.58 354.94" class="st2"/>
		</g>
		<g id="shape24882-393" transform="translate(654.382,-255.085)">
			<title>Sheet.24882</title>
			<path d="M0 353.29 A3.46711 3.46711 -180 0 0 0.49 354.94 L0 353.29 Z" class="st1"/>
			<path d="M0 353.29 A3.46711 3.46711 -180 0 0 0.49 354.94" class="st2"/>
		</g>
		<g id="shape24883-396" transform="translate(497.234,-254.764)">
			<title>Sheet.24883</title>
			<path d="M0 354.94 A3.52318 3.52318 -180 0 0 0.57 352.97 L0 354.94 Z" class="st1"/>
			<path d="M0 354.94 A3.52318 3.52318 -180 0 0 0.57 352.97" class="st2"/>
		</g>
		<g id="shape24884-399" transform="translate(234.92,-140.279) rotate(-47.7865)">
			<title>Sheet.24884</title>
			<path d="M0 354.94 L1.39 354.94" class="st2"/>
		</g>
		<g id="shape24885-402" transform="translate(346.817,275.359) rotate(-119.942)">
			<title>Sheet.24885</title>
			<path d="M0 354.94 L1.6 354.94" class="st2"/>
		</g>
		<g id="shape24886-405" transform="translate(382.191,474.876) rotate(-163.063)">
			<title>Sheet.24886</title>
			<path d="M0 354.94 L12.12 354.94" class="st2"/>
		</g>
		<g id="shape24887-408" transform="translate(485.59,-219.605)">
			<title>Sheet.24887</title>
		</g>
		<g id="shape24888-409" transform="translate(473.999,-223.134)">
			<title>Sheet.24888</title>
			<path d="M0 354.94 L202.61 354.94" class="st2"/>
		</g>
		<g id="shape24889-412" transform="translate(473.319,-223.134)">
			<title>Sheet.24889</title>
			<path d="M0 354.26 a0.680315 0.680315 -180 0 0 0.680315 0.680315 L0 354.26 Z" class="st1"/>
			<path d="M0 354.26 a0.680315 0.680315 -180 0 0 0.680315 0.680315" class="st2"/>
		</g>
		<g id="shape24890-415" transform="translate(676.607,-223.134)">
			<title>Sheet.24890</title>
			<path d="M0 354.94 a0.680315 0.680315 -180 0 0 0.680315 -0.680315 L0 354.94 Z" class="st1"/>
			<path d="M0 354.94 a0.680315 0.680315 -180 0 0 0.680315 -0.680315" class="st2"/>
		</g>
		<g id="shape24891-418" transform="translate(1032.22,128.426) rotate(90)">
			<title>Sheet.24891</title>
			<path d="M0 354.94 L2.7 354.94" class="st2"/>
		</g>
		<g id="shape24892-421" transform="translate(828.257,128.426) rotate(90)">
			<title>Sheet.24892</title>
			<path d="M0 354.94 L2.7 354.94" class="st2"/>
		</g>
		<g id="shape24893-424" transform="translate(764.965,334.123) rotate(130.319)">
			<title>Sheet.24893</title>
			<path d="M0 354.94 L15.8 354.94" class="st2"/>
		</g>
		<g id="shape24894-427" transform="translate(494.342,-250.476)">
			<title>Sheet.24894</title>
			<path d="M0 354.94 A3.34859 3.34859 -180 0 0 0.81 353.08 L0 354.94 Z" class="st1"/>
			<path d="M0 354.94 A3.34859 3.34859 -180 0 0 0.81 353.08" class="st2"/>
		</g>
		<g id="shape24895-430" transform="translate(936.181,-115.626) rotate(51.7331)">
			<title>Sheet.24895</title>
			<path d="M0 354.94 L15.68 354.94" class="st2"/>
		</g>
		<g id="shape24896-433" transform="translate(495.153,-252.332)">
			<title>Sheet.24896</title>
			<path d="M0 354.94 L161.9 354.94" class="st2"/>
		</g>
		<g id="shape24897-436" transform="translate(657.051,-250.741)">
			<title>Sheet.24897</title>
			<path d="M0 353.35 A3.46711 3.46711 -180 0 0 0.46 354.94 L0 353.35 Z" class="st1"/>
			<path d="M0 353.35 A3.46711 3.46711 -180 0 0 0.46 354.94" class="st2"/>
		</g>
		<g id="shape24898-439" transform="translate(505.162,-251.357)">
			<title>Sheet.24898</title>
			<path d="M0 354.94 L110.07 354.94" class="st2"/>
		</g>
		<g id="shape24899-442" transform="translate(618.74,-251.357)">
			<title>Sheet.24899</title>
			<path d="M0 354.94 L27.86 354.94" class="st2"/>
		</g>
		<g id="shape24900-445" transform="translate(618.268,-250.652)">
			<title>Sheet.24900</title>
			<path d="M0.47 354.23 a0.510236 0.510236 -180 0 0 -0.471621 0.704953 L0.47 354.23 Z" class="st1"/>
			<path d="M0.47 354.23 a0.510236 0.510236 -180 0 0 -0.471621 0.704953" class="st2"/>
		</g>
		<g id="shape24901-448" transform="translate(504.335,-250.934)">
			<title>Sheet.24901</title>
			<path d="M0.83 354.51 A1.02047 1.02047 -180 0 0 -0 354.94 L0.83 354.51 Z" class="st1"/>
			<path d="M0.83 354.51 A1.02047 1.02047 -180 0 0 -0 354.94" class="st2"/>
		</g>
		<g id="shape24902-451" transform="translate(941.432,-94.842) rotate(55.9235)">
			<title>Sheet.24902</title>
			<path d="M0 354.94 L12.64 354.94" class="st2"/>
		</g>
		<g id="shape24903-454" transform="translate(646.595,-250.908)">
			<title>Sheet.24903</title>
			<path d="M0.85 354.94 A1.02047 1.02047 -180 0 0 -0 354.49 L0.85 354.94 Z" class="st1"/>
			<path d="M0.85 354.94 A1.02047 1.02047 -180 0 0 -0 354.49" class="st2"/>
		</g>
		<g id="shape24904-457" transform="translate(654.24,-239.909)">
			<title>Sheet.24904</title>
			<path d="M0 354.94 a0.340157 0.340157 -180 0 0 0.281749 -0.530747 L0 354.94 Z" class="st1"/>
			<path d="M0 354.94 a0.340157 0.340157 -180 0 0 0.281749 -0.530747" class="st2"/>
		</g>
		<g id="shape24905-460" transform="translate(792.209,311.632) rotate(125.801)">
			<title>Sheet.24905</title>
			<path d="M0 354.94 L12.93 354.94" class="st2"/>
		</g>
		<g id="shape24906-463" transform="translate(496.71,-239.909)">
			<title>Sheet.24906</title>
			<path d="M0.06 354.4 a0.340157 0.340157 -180 0 0 0.275887 0.539139 L0.06 354.4 Z" class="st1"/>
			<path d="M0.06 354.4 a0.340157 0.340157 -180 0 0 0.275887 0.539139" class="st2"/>
		</g>
		<g id="shape24907-466" transform="translate(497.048,-239.909)">
			<title>Sheet.24907</title>
			<path d="M0 354.94 L122.83 354.94" class="st2"/>
		</g>
		<g id="shape24908-469" transform="translate(623.386,-239.909)">
			<title>Sheet.24908</title>
			<path d="M0 354.94 L30.85 354.94" class="st2"/>
		</g>
		<g id="shape24909-472" transform="translate(654.24,-239.205)">
			<title>Sheet.24909</title>
		</g>
		<g id="shape24910-473" transform="translate(497.048,-239.205)">
			<title>Sheet.24910</title>
		</g>
		<g id="shape24911-474" transform="translate(497.048,-238.865)">
			<title>Sheet.24911</title>
			<path d="M0 354.94 L122.83 354.94" class="st2"/>
		</g>
		<g id="shape24912-477" transform="translate(623.386,-238.865)">
			<title>Sheet.24912</title>
			<path d="M0 354.94 L30.85 354.94" class="st2"/>
		</g>
		<g id="shape24913-480" transform="translate(1009.52,114.689) rotate(90)">
			<title>Sheet.24913</title>
			<path d="M0 354.94 L1.04 354.94" class="st2"/>
		</g>
		<g id="shape24914-483" transform="translate(851.645,114.689) rotate(90)">
			<title>Sheet.24914</title>
			<path d="M0 354.94 L1.04 354.94" class="st2"/>
		</g>
		<g id="shape24915-486" transform="translate(946.344,-31.1661) rotate(67.5659)">
			<title>Sheet.24915</title>
			<path d="M0 354.94 L10.94 354.94" class="st2"/>
		</g>
		<g id="shape24916-489" transform="translate(622.443,-239.909)">
			<title>Sheet.24916</title>
			<path d="M-0 354.31 A1.02047 1.02047 -180 0 0 0.94 354.94 L0 354.31 Z" class="st1"/>
			<path d="M-0 354.31 A1.02047 1.02047 -180 0 0 0.94 354.94" class="st2"/>
		</g>
		<g id="shape24917-492" transform="translate(946.344,-30.1216) rotate(67.5659)">
			<title>Sheet.24917</title>
			<path d="M0 354.94 L10.94 354.94" class="st2"/>
		</g>
		<g id="shape24918-495" transform="translate(944.249,-31.24) rotate(67.5659)">
			<title>Sheet.24918</title>
			<path d="M0 354.94 L10.94 354.94" class="st2"/>
		</g>
		<g id="shape24919-498" transform="translate(619.877,-239.909)">
			<title>Sheet.24919</title>
			<path d="M-0 354.94 a0.510236 0.510236 -180 0 0 0.471621 -0.704953 L0 354.94 Z" class="st1"/>
			<path d="M-0 354.94 a0.510236 0.510236 -180 0 0 0.471621 -0.704953" class="st2"/>
		</g>
		<g id="shape24920-501" transform="translate(615.23,-250.726)">
			<title>Sheet.24920</title>
			<path d="M0.94 354.94 A1.02047 1.02047 -180 0 0 -0 354.31 L0.94 354.94 Z" class="st1"/>
			<path d="M0.94 354.94 A1.02047 1.02047 -180 0 0 -0 354.31" class="st2"/>
		</g>
		<g id="shape24921-504" transform="translate(974.814,115.029) rotate(90)">
			<title>Sheet.24921</title>
			<path d="M0 354.94 L1.04 354.94" class="st2"/>
		</g>
		<g id="shape24922-507" transform="translate(619.877,-238.865)">
			<title>Sheet.24922</title>
			<path d="M-0 354.94 a0.510236 0.510236 -180 0 0 0.510236 -0.510236 L0 354.94 Z" class="st1"/>
			<path d="M-0 354.94 a0.510236 0.510236 -180 0 0 0.510236 -0.510236" class="st2"/>
		</g>
		<g id="shape24923-510" transform="translate(265.449,115.563) rotate(-90)">
			<title>Sheet.24923</title>
			<path d="M0 354.94 L1.04 354.94" class="st2"/>
		</g>
		<g id="shape24924-513" transform="translate(978.324,115.029) rotate(90)">
			<title>Sheet.24924</title>
			<path d="M0 354.94 L1.04 354.94" class="st2"/>
		</g>
		<g id="shape24925-516" transform="translate(622.443,-238.865)">
			<title>Sheet.24925</title>
			<path d="M0 354.31 A1.02047 1.02047 -180 0 0 0.94 354.94 L0 354.31 Z" class="st1"/>
			<path d="M0 354.31 A1.02047 1.02047 -180 0 0 0.94 354.94" class="st2"/>
		</g>
		<g id="shape24926-519" transform="translate(977.381,114.398) rotate(90)">
			<title>Sheet.24926</title>
			<path d="M0 354.94 L1.04 354.94" class="st2"/>
		</g>
		<g id="shape24927-522" transform="translate(973.167,104.091) rotate(90)">
			<title>Sheet.24927</title>
			<path d="M0 354.94 L1.04 354.94" class="st2"/>
		</g>
		<g id="shape24928-525" transform="translate(618.74,-249.803)">
			<title>Sheet.24928</title>
		</g>
		<g id="shape24929-526" transform="translate(1009.18,115.029) rotate(90)">
			<title>Sheet.24929</title>
			<path d="M0 354.94 L1.04 354.94" class="st2"/>
		</g>
		<g id="shape24930-529" transform="translate(1031.54,129.107) rotate(90)">
			<title>Sheet.24930</title>
			<path d="M0 354.94 L2.7 354.94" class="st2"/>
		</g>
		<g id="shape24931-532" transform="translate(828.937,129.107) rotate(90)">
			<title>Sheet.24931</title>
			<path d="M0 354.94 L2.7 354.94" class="st2"/>
		</g>
		<g id="shape24932-535" transform="translate(851.986,115.029) rotate(90)">
			<title>Sheet.24932</title>
			<path d="M0 354.94 L1.04 354.94" class="st2"/>
		</g>
		<g id="shape25032-538" transform="translate(514.135,-321.163)">
			<title>Sheet.25032</title>
			<desc>UDP client/server</desc>
			<rect x="0" y="339.82" width="197.596" height="15.1181" class="st5"/>
			<text x="0" y="349.65" class="st11">UDP client/server</text>		</g>
		<g id="shape25146-541" transform="translate(8.10764,-17.5753)">
			<title>Sheet.25146</title>
			<path d="M0 265.77 L209.33 265.77 L209.33 354.94 L0 354.94 L0 265.77 Z" class="st3"/>
		</g>
		<g id="shape25153-543" transform="translate(14.4218,-79.5716)">
			<title>Sheet.25153</title>
			<desc>UDP client</desc>
			<rect x="0" y="339.82" width="197.596" height="15.1181" class="st5"/>
			<text x="0" y="349.65" class="st12">UDP client</text>		</g>
		<g id="shape25154-546" transform="translate(939.865,-78.4329)">
			<title>Sheet.25154</title>
			<desc>UDP server</desc>
			<rect x="0" y="339.82" width="197.596" height="15.1181" class="st5"/>
			<text x="0" y="349.65" class="st11">UDP server</text>		</g>
		<g id="shape25155-549" transform="translate(335.833,-69.2306)">
			<title>Sheet.25155</title>
			<desc>UDP/IPv6</desc>
			<rect x="0" y="343.599" width="135.084" height="11.3386" class="st5"/>
			<text x="45.51" y="354.37" class="st7">UDP/IPv6</text>		</g>
		<g id="shape25156-552" transform="translate(938.972,117.534) rotate(90)">
			<title>Sheet.25156</title>
			<desc>UDP/IPv6</desc>
			<rect x="0" y="343.599" width="135.084" height="11.3386" class="st5"/>
			<text x="45.51" y="354.37" class="st10">UDP/IPv6</text>		</g>
		<g id="shape25157-555" transform="translate(678.189,-69.2306)">
			<title>Sheet.25157</title>
			<desc>UDP/IPv6</desc>
			<rect x="0" y="343.599" width="135.084" height="11.3386" class="st5"/>
			<text x="45.51" y="354.37" class="st10">UDP/IPv6</text>		</g>
		<g id="shape25167-558" transform="translate(185.907,-72.2014)">
			<title>Sheet.25167</title>
			<desc>BLE 6lowpan</desc>
			<rect x="0" y="347.379" width="135.084" height="7.55906" class="st5"/>
			<text x="47.94" y="354.56" class="st13">BLE 6lowpan</text>		</g>
		<g id="shape25168-561" transform="translate(828.114,-72.2014)">
			<title>Sheet.25168</title>
			<desc>BLE 6lowpan</desc>
			<rect x="0" y="347.379" width="135.084" height="7.55906" class="st5"/>
			<text x="47.94" y="354.56" class="st14">BLE 6lowpan</text>		</g>
		<g id="shape25501-564" transform="translate(1108.88,-25.693)">
			<title>Sheet.25501</title>
			<path d="M0 354.94 L22.68 354.94 L22.68 319.72 L0 319.72 L0 354.94 Z" class="st15"/>
		</g>
		<g id="shape25502-566" transform="translate(1113.19,-45.0639)">
			<title>Sheet.25502</title>
			<path d="M12.44 354.94 A7.04425 7.04425 -180 1 0 1.62 354.94 L12.44 354.94 Z" class="st1"/>
			<path d="M12.44 354.94 A7.04425 7.04425 -180 1 0 1.62 354.94" class="st2"/>
		</g>
		<g id="shape25503-569" transform="translate(1108.19,-62.845)">
			<title>Sheet.25503</title>
			<desc>Light 2</desc>
			<rect x="0" y="349.268" width="24.2894" height="5.66929" class="st5"/>
			<text x="4.45" y="354.65" class="st16">Light 2</text>		</g>
		<g id="shape25504-572" transform="translate(1117,-36.0443)">
			<title>Sheet.25504</title>
			<path d="M0 354.94 L6.44 354.94" class="st2"/>
		</g>
		<g id="shape25505-575" transform="translate(1114.81,-36.0443)">
			<title>Sheet.25505</title>
			<path d="M2.19 354.94 A17.0418 17.0418 -180 0 0 -0 345.92 L2.19 354.94 Z" class="st1"/>
			<path d="M2.19 354.94 A17.0418 17.0418 -180 0 0 -0 345.92" class="st2"/>
		</g>
		<g id="shape25506-578" transform="translate(1123.44,-36.0443)">
			<title>Sheet.25506</title>
			<path d="M2.19 345.92 A17.0418 17.0418 -180 0 0 0 354.94 L2.19 345.92 Z" class="st1"/>
			<path d="M2.19 345.92 A17.0418 17.0418 -180 0 0 0 354.94" class="st2"/>
		</g>
		<g id="shape25507-581" transform="translate(1117,-30.305)">
			<title>Sheet.25507</title>
			<path d="M0 354.94 L6.44 354.94" class="st2"/>
		</g>
		<g id="shape25508-584" transform="translate(1117.6,-29.7424)">
			<title>Sheet.25508</title>
			<path d="M0 354.94 L5.25 354.94" class="st2"/>
		</g>
		<g id="shape25509-587" transform="translate(873.449,582.825) rotate(-136.539)">
			<title>Sheet.25509</title>
			<path d="M0 354.94 L0.82 354.94" class="st2"/>
		</g>
		<g id="shape25510-590" transform="translate(878.702,67.566) rotate(-43.4609)">
			<title>Sheet.25510</title>
			<path d="M0 354.94 L0.82 354.94" class="st2"/>
		</g>
		<g id="shape25511-593" transform="translate(1471.94,318.893) rotate(90)">
			<title>Sheet.25511</title>
			<path d="M0 354.94 L0.93 354.94" class="st2"/>
		</g>
		<g id="shape25512-596" transform="translate(762.065,324.633) rotate(-90)">
			<title>Sheet.25512</title>
			<path d="M0 354.94 L0.69 354.94" class="st2"/>
		</g>
		<g id="shape25513-599" transform="translate(867.498,576.382) rotate(-135.336)">
			<title>Sheet.25513</title>
			<path d="M0 354.94 L0.45 354.94" class="st2"/>
		</g>
		<g id="shape25514-602" transform="translate(867.175,70.973) rotate(-44.6645)">
			<title>Sheet.25514</title>
			<path d="M0 354.94 L0.45 354.94" class="st2"/>
		</g>
		<g id="shape25515-605" transform="translate(1116.78,-31.4197)">
			<title>Sheet.25515</title>
		</g>
		<g id="shape25516-606" transform="translate(873.938,70.9158) rotate(-44.6645)">
			<title>Sheet.25516</title>
			<path d="M0 354.94 L0.45 354.94" class="st2"/>
		</g>
		<g id="shape25517-609" transform="translate(874.262,575.283) rotate(-135.336)">
			<title>Sheet.25517</title>
			<path d="M0 354.94 L0.45 354.94" class="st2"/>
		</g>
		<g id="shape25518-612" transform="translate(1123.67,-31.998)">
			<title>Sheet.25518</title>
		</g>
		<g id="shape25519-613" transform="translate(867.498,575.292) rotate(-135.336)">
			<title>Sheet.25519</title>
			<path d="M0 354.94 L0.45 354.94" class="st2"/>
		</g>
		<g id="shape25520-616" transform="translate(867.175,69.8821) rotate(-44.6645)">
			<title>Sheet.25520</title>
			<path d="M0 354.94 L0.45 354.94" class="st2"/>
		</g>
		<g id="shape25521-619" transform="translate(1116.78,-32.5106)">
			<title>Sheet.25521</title>
		</g>
		<g id="shape25522-620" transform="translate(873.938,69.8249) rotate(-44.6645)">
			<title>Sheet.25522</title>
			<path d="M0 354.94 L0.45 354.94" class="st2"/>
		</g>
		<g id="shape25523-623" transform="translate(874.262,574.192) rotate(-135.336)">
			<title>Sheet.25523</title>
			<path d="M0 354.94 L0.45 354.94" class="st2"/>
		</g>
		<g id="shape25524-626" transform="translate(1123.67,-33.0889)">
			<title>Sheet.25524</title>
		</g>
		<g id="shape25525-627" transform="translate(867.498,574.201) rotate(-135.336)">
			<title>Sheet.25525</title>
			<path d="M0 354.94 L0.45 354.94" class="st2"/>
		</g>
		<g id="shape25526-630" transform="translate(867.175,68.7912) rotate(-44.6645)">
			<title>Sheet.25526</title>
			<path d="M0 354.94 L0.45 354.94" class="st2"/>
		</g>
		<g id="shape25527-633" transform="translate(1116.78,-33.6015)">
			<title>Sheet.25527</title>
		</g>
		<g id="shape25528-634" transform="translate(873.938,68.734) rotate(-44.6645)">
			<title>Sheet.25528</title>
			<path d="M0 354.94 L0.45 354.94" class="st2"/>
		</g>
		<g id="shape25529-637" transform="translate(874.262,573.101) rotate(-135.336)">
			<title>Sheet.25529</title>
			<path d="M0 354.94 L0.45 354.94" class="st2"/>
		</g>
		<g id="shape25530-640" transform="translate(1123.67,-34.1798)">
			<title>Sheet.25530</title>
		</g>
		<g id="shape25531-641" transform="translate(867.498,573.11) rotate(-135.336)">
			<title>Sheet.25531</title>
			<path d="M0 354.94 L0.45 354.94" class="st2"/>
		</g>
		<g id="shape25532-644" transform="translate(867.175,67.7003) rotate(-44.6645)">
			<title>Sheet.25532</title>
			<path d="M0 354.94 L0.45 354.94" class="st2"/>
		</g>
		<g id="shape25533-647" transform="translate(1116.78,-34.6924)">
			<title>Sheet.25533</title>
		</g>
		<g id="shape25534-648" transform="translate(873.938,67.6431) rotate(-44.6645)">
			<title>Sheet.25534</title>
			<path d="M0 354.94 L0.45 354.94" class="st2"/>
		</g>
		<g id="shape25535-651" transform="translate(874.262,572.01) rotate(-135.336)">
			<title>Sheet.25535</title>
			<path d="M0 354.94 L0.45 354.94" class="st2"/>
		</g>
		<g id="shape25536-654" transform="translate(1123.67,-35.2707)">
			<title>Sheet.25536</title>
		</g>
		<g id="shape25537-655" transform="translate(1085.26,-33.6903) rotate(-5.131)">
			<title>Sheet.25537</title>
			<path d="M0 354.94 L6.47 354.94" class="st2"/>
		</g>
		<g id="shape25538-658" transform="translate(1085.26,-32.8498) rotate(-5.131)">
			<title>Sheet.25538</title>
			<path d="M0 354.94 L6.47 354.94" class="st2"/>
		</g>
		<g id="shape25539-661" transform="translate(1085.26,-32.5994) rotate(-5.131)">
			<title>Sheet.25539</title>
			<path d="M0 354.94 L6.47 354.94" class="st2"/>
		</g>
		<g id="shape25540-664" transform="translate(1085.26,-31.7589) rotate(-5.131)">
			<title>Sheet.25540</title>
			<path d="M0 354.94 L6.47 354.94" class="st2"/>
		</g>
		<g id="shape25541-667" transform="translate(1085.26,-31.5085) rotate(-5.131)">
			<title>Sheet.25541</title>
			<path d="M0 354.94 L6.47 354.94" class="st2"/>
		</g>
		<g id="shape25542-670" transform="translate(1085.26,-30.668) rotate(-5.131)">
			<title>Sheet.25542</title>
			<path d="M0 354.94 L6.47 354.94" class="st2"/>
		</g>
		<g id="shape25543-673" transform="translate(1085.26,-30.4176) rotate(-5.131)">
			<title>Sheet.25543</title>
			<path d="M0 354.94 L6.47 354.94" class="st2"/>
		</g>
		<g id="shape25544-676" transform="translate(1085.26,-29.5771) rotate(-5.131)">
			<title>Sheet.25544</title>
			<path d="M0 354.94 L6.47 354.94" class="st2"/>
		</g>
		<g id="shape25545-679" transform="translate(1471.94,320.666) rotate(90)">
			<title>Sheet.25545</title>
			<path d="M0 354.94 L0.25 354.94" class="st2"/>
		</g>
		<g id="shape25546-682" transform="translate(1471.94,321.756) rotate(90)">
			<title>Sheet.25546</title>
			<path d="M0 354.94 L0.25 354.94" class="st2"/>
		</g>
		<g id="shape25547-685" transform="translate(1471.94,322.847) rotate(90)">
			<title>Sheet.25547</title>
			<path d="M0 354.94 L0.25 354.94" class="st2"/>
		</g>
		<g id="shape25548-688" transform="translate(768.506,322.519) rotate(-90)">
			<title>Sheet.25548</title>
			<path d="M0 354.94 L0.25 354.94" class="st2"/>
		</g>
		<g id="shape25549-691" transform="translate(768.506,321.429) rotate(-90)">
			<title>Sheet.25549</title>
			<path d="M0 354.94 L0.25 354.94" class="st2"/>
		</g>
		<g id="shape25550-694" transform="translate(768.506,320.338) rotate(-90)">
			<title>Sheet.25550</title>
			<path d="M0 354.94 L0.25 354.94" class="st2"/>
		</g>
		<g id="shape25551-697" transform="translate(1478.38,318.893) rotate(90)">
			<title>Sheet.25551</title>
			<path d="M0 354.94 L0.35 354.94" class="st2"/>
		</g>
		<g id="shape25552-700" transform="translate(1478.38,323.36) rotate(90)">
			<title>Sheet.25552</title>
			<path d="M0 354.94 L1.27 354.94" class="st2"/>
		</g>
		<g id="shape25553-703" transform="translate(1119.59,-29.4897)">
			<title>Sheet.25553</title>
			<path d="M0 354.94 L1.27 354.94" class="st2"/>
		</g>
		<g id="shape25554-706" transform="translate(875.91,583.52) rotate(-136.643)">
			<title>Sheet.25554</title>
			<path d="M0 354.94 L0.37 354.94" class="st2"/>
		</g>
		<g id="shape25555-709" transform="translate(877.177,67.3763) rotate(-43.357)">
			<title>Sheet.25555</title>
			<path d="M0 354.94 L0.37 354.94" class="st2"/>
		</g>
		<g id="shape25556-712" transform="translate(1076.89,-25.693)">
			<title>Sheet.25556</title>
			<path d="M0 354.94 L22.68 354.94 L22.68 319.72 L0 319.72 L0 354.94 Z" class="st15"/>
		</g>
		<g id="shape25557-714" transform="translate(1081.19,-45.0639)">
			<title>Sheet.25557</title>
			<path d="M12.44 354.94 A7.04425 7.04425 -180 1 0 1.62 354.94 L12.44 354.94 Z" class="st1"/>
			<path d="M12.44 354.94 A7.04425 7.04425 -180 1 0 1.62 354.94" class="st2"/>
		</g>
		<g id="shape25558-717" transform="translate(1076.19,-62.845)">
			<title>Sheet.25558</title>
			<desc>Light 1</desc>
			<rect x="0" y="349.268" width="24.2894" height="5.66929" class="st5"/>
			<text x="4.45" y="354.65" class="st16">Light 1</text>		</g>
		<g id="shape25559-720" transform="translate(1085.01,-36.0443)">
			<title>Sheet.25559</title>
			<path d="M0 354.94 L6.44 354.94" class="st2"/>
		</g>
		<g id="shape25560-723" transform="translate(1082.81,-36.0443)">
			<title>Sheet.25560</title>
			<path d="M2.19 354.94 A17.0418 17.0418 -180 0 0 -0 345.92 L2.19 354.94 Z" class="st1"/>
			<path d="M2.19 354.94 A17.0418 17.0418 -180 0 0 -0 345.92" class="st2"/>
		</g>
		<g id="shape25561-726" transform="translate(1091.45,-36.0443)">
			<title>Sheet.25561</title>
			<path d="M2.19 345.92 A17.0418 17.0418 -180 0 0 0 354.94 L2.19 345.92 Z" class="st1"/>
			<path d="M2.19 345.92 A17.0418 17.0418 -180 0 0 0 354.94" class="st2"/>
		</g>
		<g id="shape25562-729" transform="translate(1085.01,-30.305)">
			<title>Sheet.25562</title>
			<path d="M0 354.94 L6.44 354.94" class="st2"/>
		</g>
		<g id="shape25563-732" transform="translate(1085.6,-29.7424)">
			<title>Sheet.25563</title>
			<path d="M0 354.94 L5.25 354.94" class="st2"/>
		</g>
		<g id="shape25564-735" transform="translate(841.452,582.825) rotate(-136.539)">
			<title>Sheet.25564</title>
			<path d="M0 354.94 L0.82 354.94" class="st2"/>
		</g>
		<g id="shape25565-738" transform="translate(846.705,67.566) rotate(-43.4609)">
			<title>Sheet.25565</title>
			<path d="M0 354.94 L0.82 354.94" class="st2"/>
		</g>
		<g id="shape25566-741" transform="translate(1439.94,318.893) rotate(90)">
			<title>Sheet.25566</title>
			<path d="M0 354.94 L0.93 354.94" class="st2"/>
		</g>
		<g id="shape25567-744" transform="translate(730.067,324.633) rotate(-90)">
			<title>Sheet.25567</title>
			<path d="M0 354.94 L0.69 354.94" class="st2"/>
		</g>
		<g id="shape25568-747" transform="translate(835.5,576.382) rotate(-135.336)">
			<title>Sheet.25568</title>
			<path d="M0 354.94 L0.45 354.94" class="st2"/>
		</g>
		<g id="shape25569-750" transform="translate(835.177,70.973) rotate(-44.6645)">
			<title>Sheet.25569</title>
			<path d="M0 354.94 L0.45 354.94" class="st2"/>
		</g>
		<g id="shape25570-753" transform="translate(1084.78,-31.4197)">
			<title>Sheet.25570</title>
		</g>
		<g id="shape25571-754" transform="translate(841.941,70.9158) rotate(-44.6645)">
			<title>Sheet.25571</title>
			<path d="M0 354.94 L0.45 354.94" class="st2"/>
		</g>
		<g id="shape25572-757" transform="translate(842.264,575.283) rotate(-135.336)">
			<title>Sheet.25572</title>
			<path d="M0 354.94 L0.45 354.94" class="st2"/>
		</g>
		<g id="shape25573-760" transform="translate(1091.67,-31.998)">
			<title>Sheet.25573</title>
		</g>
		<g id="shape25574-761" transform="translate(835.5,575.292) rotate(-135.336)">
			<title>Sheet.25574</title>
			<path d="M0 354.94 L0.45 354.94" class="st2"/>
		</g>
		<g id="shape25575-764" transform="translate(835.177,69.8821) rotate(-44.6645)">
			<title>Sheet.25575</title>
			<path d="M0 354.94 L0.45 354.94" class="st2"/>
		</g>
		<g id="shape25576-767" transform="translate(1084.78,-32.5106)">
			<title>Sheet.25576</title>
		</g>
		<g id="shape25577-768" transform="translate(841.941,69.8249) rotate(-44.6645)">
			<title>Sheet.25577</title>
			<path d="M0 354.94 L0.45 354.94" class="st2"/>
		</g>
		<g id="shape25578-771" transform="translate(842.264,574.192) rotate(-135.336)">
			<title>Sheet.25578</title>
			<path d="M0 354.94 L0.45 354.94" class="st2"/>
		</g>
		<g id="shape25579-774" transform="translate(1091.67,-33.0889)">
			<title>Sheet.25579</title>
		</g>
		<g id="shape25580-775" transform="translate(835.5,574.201) rotate(-135.336)">
			<title>Sheet.25580</title>
			<path d="M0 354.94 L0.45 354.94" class="st2"/>
		</g>
		<g id="shape25581-778" transform="translate(835.177,68.7912) rotate(-44.6645)">
			<title>Sheet.25581</title>
			<path d="M0 354.94 L0.45 354.94" class="st2"/>
		</g>
		<g id="shape25582-781" transform="translate(1084.78,-33.6015)">
			<title>Sheet.25582</title>
		</g>
		<g id="shape25583-782" transform="translate(841.941,68.734) rotate(-44.6645)">
			<title>Sheet.25583</title>
			<path d="M0 354.94 L0.45 354.94" class="st2"/>
		</g>
		<g id="shape25584-785" transform="translate(842.264,573.101) rotate(-135.336)">
			<title>Sheet.25584</title>
			<path d="M0 354.94 L0.45 354.94" class="st2"/>
		</g>
		<g id="shape25585-788" transform="translate(1091.67,-34.1798)">
			<title>Sheet.25585</title>
		</g>
		<g id="shape25586-789" transform="translate(835.5,573.11) rotate(-135.336)">
			<title>Sheet.25586</title>
			<path d="M0 354.94 L0.45 354.94" class="st2"/>
		</g>
		<g id="shape25587-792" transform="translate(835.177,67.7003) rotate(-44.6645)">
			<title>Sheet.25587</title>
			<path d="M0 354.94 L0.45 354.94" class="st2"/>
		</g>
		<g id="shape25588-795" transform="translate(1084.78,-34.6924)">
			<title>Sheet.25588</title>
		</g>
		<g id="shape25589-796" transform="translate(841.941,67.6431) rotate(-44.6645)">
			<title>Sheet.25589</title>
			<path d="M0 354.94 L0.45 354.94" class="st2"/>
		</g>
		<g id="shape25590-799" transform="translate(842.264,572.01) rotate(-135.336)">
			<title>Sheet.25590</title>
			<path d="M0 354.94 L0.45 354.94" class="st2"/>
		</g>
		<g id="shape25591-802" transform="translate(1091.67,-35.2707)">
			<title>Sheet.25591</title>
		</g>
		<g id="shape25592-803" transform="translate(1053.26,-33.6903) rotate(-5.131)">
			<title>Sheet.25592</title>
			<path d="M0 354.94 L6.47 354.94" class="st2"/>
		</g>
		<g id="shape25593-806" transform="translate(1053.26,-32.8498) rotate(-5.131)">
			<title>Sheet.25593</title>
			<path d="M0 354.94 L6.47 354.94" class="st2"/>
		</g>
		<g id="shape25594-809" transform="translate(1053.26,-32.5994) rotate(-5.131)">
			<title>Sheet.25594</title>
			<path d="M0 354.94 L6.47 354.94" class="st2"/>
		</g>
		<g id="shape25595-812" transform="translate(1053.26,-31.7589) rotate(-5.131)">
			<title>Sheet.25595</title>
			<path d="M0 354.94 L6.47 354.94" class="st2"/>
		</g>
		<g id="shape25596-815" transform="translate(1053.26,-31.5085) rotate(-5.131)">
			<title>Sheet.25596</title>
			<path d="M0 354.94 L6.47 354.94" class="st2"/>
		</g>
		<g id="shape25597-818" transform="translate(1053.26,-30.668) rotate(-5.131)">
			<title>Sheet.25597</title>
			<path d="M0 354.94 L6.47 354.94" class="st2"/>
		</g>
		<g id="shape25598-821" transform="translate(1053.26,-30.4176) rotate(-5.131)">
			<title>Sheet.25598</title>
			<path d="M0 354.94 L6.47 354.94" class="st2"/>
		</g>
		<g id="shape25599-824" transform="translate(1053.26,-29.5771) rotate(-5.131)">
			<title>Sheet.25599</title>
			<path d="M0 354.94 L6.47 354.94" class="st2"/>
		</g>
		<g id="shape25600-827" transform="translate(1439.94,320.666) rotate(90)">
			<title>Sheet.25600</title>
			<path d="M0 354.94 L0.25 354.94" class="st2"/>
		</g>
		<g id="shape25601-830" transform="translate(1439.94,321.756) rotate(90)">
			<title>Sheet.25601</title>
			<path d="M0 354.94 L0.25 354.94" class="st2"/>
		</g>
		<g id="shape25602-833" transform="translate(1439.94,322.847) rotate(90)">
			<title>Sheet.25602</title>
			<path d="M0 354.94 L0.25 354.94" class="st2"/>
		</g>
		<g id="shape25603-836" transform="translate(736.508,322.519) rotate(-90)">
			<title>Sheet.25603</title>
			<path d="M0 354.94 L0.25 354.94" class="st2"/>
		</g>
		<g id="shape25604-839" transform="translate(736.508,321.429) rotate(-90)">
			<title>Sheet.25604</title>
			<path d="M0 354.94 L0.25 354.94" class="st2"/>
		</g>
		<g id="shape25605-842" transform="translate(736.508,320.338) rotate(-90)">
			<title>Sheet.25605</title>
			<path d="M0 354.94 L0.25 354.94" class="st2"/>
		</g>
		<g id="shape25606-845" transform="translate(1446.38,318.893) rotate(90)">
			<title>Sheet.25606</title>
			<path d="M0 354.94 L0.35 354.94" class="st2"/>
		</g>
		<g id="shape25607-848" transform="translate(1446.38,323.36) rotate(90)">
			<title>Sheet.25607</title>
			<path d="M0 354.94 L1.27 354.94" class="st2"/>
		</g>
		<g id="shape25608-851" transform="translate(1087.59,-29.4897)">
			<title>Sheet.25608</title>
			<path d="M0 354.94 L1.27 354.94" class="st2"/>
		</g>
		<g id="shape25609-854" transform="translate(843.912,583.52) rotate(-136.643)">
			<title>Sheet.25609</title>
			<path d="M0 354.94 L0.37 354.94" class="st2"/>
		</g>
		<g id="shape25610-857" transform="translate(845.179,67.3763) rotate(-43.357)">
			<title>Sheet.25610</title>
			<path d="M0 354.94 L0.37 354.94" class="st2"/>
		</g>
		<g id="shape25611-860" transform="translate(185.72,-25.693)">
			<title>Sheet.25611</title>
			<path d="M0 354.94 L22.68 354.94 L22.68 319.72 L0 319.72 L0 354.94 Z" class="st3"/>
		</g>
		<g id="shape25612-862" transform="translate(190.027,-45.0639)">
			<title>Sheet.25612</title>
			<path d="M12.44 354.94 A7.04425 7.04425 -180 1 0 1.62 354.94 L12.44 354.94 Z" class="st1"/>
			<path d="M12.44 354.94 A7.04425 7.04425 -180 1 0 1.62 354.94" class="st9"/>
		</g>
		<g id="shape25613-865" transform="translate(185.022,-62.845)">
			<title>Sheet.25613</title>
			<desc>Light 2</desc>
			<rect x="0" y="349.268" width="24.2894" height="5.66929" class="st5"/>
			<text x="4.45" y="354.65" class="st17">Light 2</text>		</g>
		<g id="shape25614-868" transform="translate(193.839,-36.0443)">
			<title>Sheet.25614</title>
			<path d="M0 354.94 L6.44 354.94" class="st9"/>
		</g>
		<g id="shape25615-871" transform="translate(191.648,-36.0443)">
			<title>Sheet.25615</title>
			<path d="M2.19 354.94 A17.0418 17.0418 -180 0 0 -0 345.92 L2.19 354.94 Z" class="st1"/>
			<path d="M2.19 354.94 A17.0418 17.0418 -180 0 0 -0 345.92" class="st9"/>
		</g>
		<g id="shape25616-874" transform="translate(200.279,-36.0443)">
			<title>Sheet.25616</title>
			<path d="M2.19 345.92 A17.0418 17.0418 -180 0 0 0 354.94 L2.19 345.92 Z" class="st1"/>
			<path d="M2.19 345.92 A17.0418 17.0418 -180 0 0 0 354.94" class="st9"/>
		</g>
		<g id="shape25617-877" transform="translate(193.839,-30.305)">
			<title>Sheet.25617</title>
			<path d="M0 354.94 L6.44 354.94" class="st9"/>
		</g>
		<g id="shape25618-880" transform="translate(194.432,-29.7424)">
			<title>Sheet.25618</title>
			<path d="M0 354.94 L5.25 354.94" class="st9"/>
		</g>
		<g id="shape25619-883" transform="translate(-49.715,582.825) rotate(-136.539)">
			<title>Sheet.25619</title>
			<path d="M0 354.94 L0.82 354.94" class="st9"/>
		</g>
		<g id="shape25620-886" transform="translate(-44.462,67.566) rotate(-43.4609)">
			<title>Sheet.25620</title>
			<path d="M0 354.94 L0.82 354.94" class="st9"/>
		</g>
		<g id="shape25621-889" transform="translate(548.776,318.893) rotate(90)">
			<title>Sheet.25621</title>
			<path d="M0 354.94 L0.93 354.94" class="st9"/>
		</g>
		<g id="shape25622-892" transform="translate(-161.099,324.633) rotate(-90)">
			<title>Sheet.25622</title>
			<path d="M0 354.94 L0.69 354.94" class="st9"/>
		</g>
		<g id="shape25623-895" transform="translate(-55.6663,576.382) rotate(-135.336)">
			<title>Sheet.25623</title>
			<path d="M0 354.94 L0.45 354.94" class="st9"/>
		</g>
		<g id="shape25624-898" transform="translate(-55.9895,70.973) rotate(-44.6645)">
			<title>Sheet.25624</title>
			<path d="M0 354.94 L0.45 354.94" class="st9"/>
		</g>
		<g id="shape25625-901" transform="translate(193.615,-31.4197)">
			<title>Sheet.25625</title>
		</g>
		<g id="shape25626-902" transform="translate(-49.2259,70.9158) rotate(-44.6645)">
			<title>Sheet.25626</title>
			<path d="M0 354.94 L0.45 354.94" class="st9"/>
		</g>
		<g id="shape25627-905" transform="translate(-48.9027,575.283) rotate(-135.336)">
			<title>Sheet.25627</title>
			<path d="M0 354.94 L0.45 354.94" class="st9"/>
		</g>
		<g id="shape25628-908" transform="translate(200.503,-31.998)">
			<title>Sheet.25628</title>
		</g>
		<g id="shape25629-909" transform="translate(-55.6663,575.292) rotate(-135.336)">
			<title>Sheet.25629</title>
			<path d="M0 354.94 L0.45 354.94" class="st9"/>
		</g>
		<g id="shape25630-912" transform="translate(-55.9895,69.8821) rotate(-44.6645)">
			<title>Sheet.25630</title>
			<path d="M0 354.94 L0.45 354.94" class="st9"/>
		</g>
		<g id="shape25631-915" transform="translate(193.615,-32.5106)">
			<title>Sheet.25631</title>
		</g>
		<g id="shape25632-916" transform="translate(-49.2259,69.8249) rotate(-44.6645)">
			<title>Sheet.25632</title>
			<path d="M0 354.94 L0.45 354.94" class="st9"/>
		</g>
		<g id="shape25633-919" transform="translate(-48.9027,574.192) rotate(-135.336)">
			<title>Sheet.25633</title>
			<path d="M0 354.94 L0.45 354.94" class="st9"/>
		</g>
		<g id="shape25634-922" transform="translate(200.503,-33.0889)">
			<title>Sheet.25634</title>
		</g>
		<g id="shape25635-923" transform="translate(-55.6663,574.201) rotate(-135.336)">
			<title>Sheet.25635</title>
			<path d="M0 354.94 L0.45 354.94" class="st9"/>
		</g>
		<g id="shape25636-926" transform="translate(-55.9895,68.7912) rotate(-44.6645)">
			<title>Sheet.25636</title>
			<path d="M0 354.94 L0.45 354.94" class="st9"/>
		</g>
		<g id="shape25637-929" transform="translate(193.615,-33.6015)">
			<title>Sheet.25637</title>
		</g>
		<g id="shape25638-930" transform="translate(-49.2259,68.734) rotate(-44.6645)">
			<title>Sheet.25638</title>
			<path d="M0 354.94 L0.45 354.94" class="st9"/>
		</g>
		<g id="shape25639-933" transform="translate(-48.9027,573.101) rotate(-135.336)">
			<title>Sheet.25639</title>
			<path d="M0 354.94 L0.45 354.94" class="st9"/>
		</g>
		<g id="shape25640-936" transform="translate(200.503,-34.1798)">
			<title>Sheet.25640</title>
		</g>
		<g id="shape25641-937" transform="translate(-55.6663,573.11) rotate(-135.336)">
			<title>Sheet.25641</title>
			<path d="M0 354.94 L0.45 354.94" class="st9"/>
		</g>
		<g id="shape25642-940" transform="translate(-55.9895,67.7003) rotate(-44.6645)">
			<title>Sheet.25642</title>
			<path d="M0 354.94 L0.45 354.94" class="st9"/>
		</g>
		<g id="shape25643-943" transform="translate(193.615,-34.6924)">
			<title>Sheet.25643</title>
		</g>
		<g id="shape25644-944" transform="translate(-49.2259,67.6431) rotate(-44.6645)">
			<title>Sheet.25644</title>
			<path d="M0 354.94 L0.45 354.94" class="st9"/>
		</g>
		<g id="shape25645-947" transform="translate(-48.9027,572.01) rotate(-135.336)">
			<title>Sheet.25645</title>
			<path d="M0 354.94 L0.45 354.94" class="st9"/>
		</g>
		<g id="shape25646-950" transform="translate(200.503,-35.2707)">
			<title>Sheet.25646</title>
		</g>
		<g id="shape25647-951" transform="translate(162.095,-33.6903) rotate(-5.131)">
			<title>Sheet.25647</title>
			<path d="M0 354.94 L6.47 354.94" class="st9"/>
		</g>
		<g id="shape25648-954" transform="translate(162.095,-32.8498) rotate(-5.131)">
			<title>Sheet.25648</title>
			<path d="M0 354.94 L6.47 354.94" class="st9"/>
		</g>
		<g id="shape25649-957" transform="translate(162.095,-32.5994) rotate(-5.131)">
			<title>Sheet.25649</title>
			<path d="M0 354.94 L6.47 354.94" class="st9"/>
		</g>
		<g id="shape25650-960" transform="translate(162.095,-31.7589) rotate(-5.131)">
			<title>Sheet.25650</title>
			<path d="M0 354.94 L6.47 354.94" class="st9"/>
		</g>
		<g id="shape25651-963" transform="translate(162.095,-31.5085) rotate(-5.131)">
			<title>Sheet.25651</title>
			<path d="M0 354.94 L6.47 354.94" class="st9"/>
		</g>
		<g id="shape25652-966" transform="translate(162.095,-30.668) rotate(-5.131)">
			<title>Sheet.25652</title>
			<path d="M0 354.94 L6.47 354.94" class="st9"/>
		</g>
		<g id="shape25653-969" transform="translate(162.095,-30.4176) rotate(-5.131)">
			<title>Sheet.25653</title>
			<path d="M0 354.94 L6.47 354.94" class="st9"/>
		</g>
		<g id="shape25654-972" transform="translate(162.095,-29.5771) rotate(-5.131)">
			<title>Sheet.25654</title>
			<path d="M0 354.94 L6.47 354.94" class="st9"/>
		</g>
		<g id="shape25655-975" transform="translate(548.776,320.666) rotate(90)">
			<title>Sheet.25655</title>
			<path d="M0 354.94 L0.25 354.94" class="st9"/>
		</g>
		<g id="shape25656-978" transform="translate(548.776,321.756) rotate(90)">
			<title>Sheet.25656</title>
			<path d="M0 354.94 L0.25 354.94" class="st9"/>
		</g>
		<g id="shape25657-981" transform="translate(548.776,322.847) rotate(90)">
			<title>Sheet.25657</title>
			<path d="M0 354.94 L0.25 354.94" class="st9"/>
		</g>
		<g id="shape25658-984" transform="translate(-154.659,322.519) rotate(-90)">
			<title>Sheet.25658</title>
			<path d="M0 354.94 L0.25 354.94" class="st9"/>
		</g>
		<g id="shape25659-987" transform="translate(-154.659,321.429) rotate(-90)">
			<title>Sheet.25659</title>
			<path d="M0 354.94 L0.25 354.94" class="st9"/>
		</g>
		<g id="shape25660-990" transform="translate(-154.659,320.338) rotate(-90)">
			<title>Sheet.25660</title>
			<path d="M0 354.94 L0.25 354.94" class="st9"/>
		</g>
		<g id="shape25661-993" transform="translate(555.217,318.893) rotate(90)">
			<title>Sheet.25661</title>
			<path d="M0 354.94 L0.35 354.94" class="st9"/>
		</g>
		<g id="shape25662-996" transform="translate(555.217,323.36) rotate(90)">
			<title>Sheet.25662</title>
			<path d="M0 354.94 L1.27 354.94" class="st9"/>
		</g>
		<g id="shape25663-999" transform="translate(196.425,-29.4897)">
			<title>Sheet.25663</title>
			<path d="M0 354.94 L1.27 354.94" class="st9"/>
		</g>
		<g id="shape25664-1002" transform="translate(-47.2546,583.52) rotate(-136.643)">
			<title>Sheet.25664</title>
			<path d="M0 354.94 L0.37 354.94" class="st9"/>
		</g>
		<g id="shape25665-1005" transform="translate(-45.9873,67.3763) rotate(-43.357)">
			<title>Sheet.25665</title>
			<path d="M0 354.94 L0.37 354.94" class="st9"/>
		</g>
		<g id="shape25666-1008" transform="translate(153.722,-25.693)">
			<title>Sheet.25666</title>
			<path d="M0 354.94 L22.68 354.94 L22.68 319.72 L0 319.72 L0 354.94 Z" class="st3"/>
		</g>
		<g id="shape25667-1010" transform="translate(158.03,-45.0639)">
			<title>Sheet.25667</title>
			<path d="M12.44 354.94 A7.04425 7.04425 -180 1 0 1.62 354.94 L12.44 354.94 Z" class="st1"/>
			<path d="M12.44 354.94 A7.04425 7.04425 -180 1 0 1.62 354.94" class="st9"/>
		</g>
		<g id="shape25668-1013" transform="translate(153.024,-62.845)">
			<title>Sheet.25668</title>
			<desc>Light 1</desc>
			<rect x="0" y="349.268" width="24.2894" height="5.66929" class="st5"/>
			<text x="4.45" y="354.65" class="st17">Light 1</text>		</g>
		<g id="shape25669-1016" transform="translate(161.841,-36.0443)">
			<title>Sheet.25669</title>
			<path d="M0 354.94 L6.44 354.94" class="st9"/>
		</g>
		<g id="shape25670-1019" transform="translate(159.651,-36.0443)">
			<title>Sheet.25670</title>
			<path d="M2.19 354.94 A17.0418 17.0418 -180 0 0 -0 345.92 L2.19 354.94 Z" class="st1"/>
			<path d="M2.19 354.94 A17.0418 17.0418 -180 0 0 -0 345.92" class="st9"/>
		</g>
		<g id="shape25671-1022" transform="translate(168.281,-36.0443)">
			<title>Sheet.25671</title>
			<path d="M2.19 345.92 A17.0418 17.0418 -180 0 0 0 354.94 L2.19 345.92 Z" class="st1"/>
			<path d="M2.19 345.92 A17.0418 17.0418 -180 0 0 0 354.94" class="st9"/>
		</g>
		<g id="shape25672-1025" transform="translate(161.841,-30.305)">
			<title>Sheet.25672</title>
			<path d="M0 354.94 L6.44 354.94" class="st9"/>
		</g>
		<g id="shape25673-1028" transform="translate(162.435,-29.7424)">
			<title>Sheet.25673</title>
			<path d="M0 354.94 L5.25 354.94" class="st9"/>
		</g>
		<g id="shape25674-1031" transform="translate(-81.7127,582.825) rotate(-136.539)">
			<title>Sheet.25674</title>
			<path d="M0 354.94 L0.82 354.94" class="st9"/>
		</g>
		<g id="shape25675-1034" transform="translate(-76.4598,67.566) rotate(-43.4609)">
			<title>Sheet.25675</title>
			<path d="M0 354.94 L0.82 354.94" class="st9"/>
		</g>
		<g id="shape25676-1037" transform="translate(516.779,318.893) rotate(90)">
			<title>Sheet.25676</title>
			<path d="M0 354.94 L0.93 354.94" class="st9"/>
		</g>
		<g id="shape25677-1040" transform="translate(-193.097,324.633) rotate(-90)">
			<title>Sheet.25677</title>
			<path d="M0 354.94 L0.69 354.94" class="st9"/>
		</g>
		<g id="shape25678-1043" transform="translate(-87.664,576.382) rotate(-135.336)">
			<title>Sheet.25678</title>
			<path d="M0 354.94 L0.45 354.94" class="st9"/>
		</g>
		<g id="shape25679-1046" transform="translate(-87.9872,70.973) rotate(-44.6645)">
			<title>Sheet.25679</title>
			<path d="M0 354.94 L0.45 354.94" class="st9"/>
		</g>
		<g id="shape25680-1049" transform="translate(161.617,-31.4197)">
			<title>Sheet.25680</title>
		</g>
		<g id="shape25681-1050" transform="translate(-81.2236,70.9158) rotate(-44.6645)">
			<title>Sheet.25681</title>
			<path d="M0 354.94 L0.45 354.94" class="st9"/>
		</g>
		<g id="shape25682-1053" transform="translate(-80.9004,575.283) rotate(-135.336)">
			<title>Sheet.25682</title>
			<path d="M0 354.94 L0.45 354.94" class="st9"/>
		</g>
		<g id="shape25683-1056" transform="translate(168.505,-31.998)">
			<title>Sheet.25683</title>
		</g>
		<g id="shape25684-1057" transform="translate(-87.664,575.292) rotate(-135.336)">
			<title>Sheet.25684</title>
			<path d="M0 354.94 L0.45 354.94" class="st9"/>
		</g>
		<g id="shape25685-1060" transform="translate(-87.9872,69.8821) rotate(-44.6645)">
			<title>Sheet.25685</title>
			<path d="M0 354.94 L0.45 354.94" class="st9"/>
		</g>
		<g id="shape25686-1063" transform="translate(161.617,-32.5106)">
			<title>Sheet.25686</title>
		</g>
		<g id="shape25687-1064" transform="translate(-81.2236,69.8249) rotate(-44.6645)">
			<title>Sheet.25687</title>
			<path d="M0 354.94 L0.45 354.94" class="st9"/>
		</g>
		<g id="shape25688-1067" transform="translate(-80.9004,574.192) rotate(-135.336)">
			<title>Sheet.25688</title>
			<path d="M0 354.94 L0.45 354.94" class="st9"/>
		</g>
		<g id="shape25689-1070" transform="translate(168.505,-33.0889)">
			<title>Sheet.25689</title>
		</g>
		<g id="shape25690-1071" transform="translate(-87.664,574.201) rotate(-135.336)">
			<title>Sheet.25690</title>
			<path d="M0 354.94 L0.45 354.94" class="st9"/>
		</g>
		<g id="shape25691-1074" transform="translate(-87.9872,68.7912) rotate(-44.6645)">
			<title>Sheet.25691</title>
			<path d="M0 354.94 L0.45 354.94" class="st9"/>
		</g>
		<g id="shape25692-1077" transform="translate(161.617,-33.6015)">
			<title>Sheet.25692</title>
		</g>
		<g id="shape25693-1078" transform="translate(-81.2236,68.734) rotate(-44.6645)">
			<title>Sheet.25693</title>
			<path d="M0 354.94 L0.45 354.94" class="st9"/>
		</g>
		<g id="shape25694-1081" transform="translate(-80.9004,573.101) rotate(-135.336)">
			<title>Sheet.25694</title>
			<path d="M0 354.94 L0.45 354.94" class="st9"/>
		</g>
		<g id="shape25695-1084" transform="translate(168.505,-34.1798)">
			<title>Sheet.25695</title>
		</g>
		<g id="shape25696-1085" transform="translate(-87.664,573.11) rotate(-135.336)">
			<title>Sheet.25696</title>
			<path d="M0 354.94 L0.45 354.94" class="st9"/>
		</g>
		<g id="shape25697-1088" transform="translate(-87.9872,67.7003) rotate(-44.6645)">
			<title>Sheet.25697</title>
			<path d="M0 354.94 L0.45 354.94" class="st9"/>
		</g>
		<g id="shape25698-1091" transform="translate(161.617,-34.6924)">
			<title>Sheet.25698</title>
		</g>
		<g id="shape25699-1092" transform="translate(-81.2236,67.6431) rotate(-44.6645)">
			<title>Sheet.25699</title>
			<path d="M0 354.94 L0.45 354.94" class="st9"/>
		</g>
		<g id="shape25700-1095" transform="translate(-80.9004,572.01) rotate(-135.336)">
			<title>Sheet.25700</title>
			<path d="M0 354.94 L0.45 354.94" class="st9"/>
		</g>
		<g id="shape25701-1098" transform="translate(168.505,-35.2707)">
			<title>Sheet.25701</title>
		</g>
		<g id="shape25702-1099" transform="translate(130.098,-33.6903) rotate(-5.131)">
			<title>Sheet.25702</title>
			<path d="M0 354.94 L6.47 354.94" class="st9"/>
		</g>
		<g id="shape25703-1102" transform="translate(130.098,-32.8498) rotate(-5.131)">
			<title>Sheet.25703</title>
			<path d="M0 354.94 L6.47 354.94" class="st9"/>
		</g>
		<g id="shape25704-1105" transform="translate(130.098,-32.5994) rotate(-5.131)">
			<title>Sheet.25704</title>
			<path d="M0 354.94 L6.47 354.94" class="st9"/>
		</g>
		<g id="shape25705-1108" transform="translate(130.098,-31.7589) rotate(-5.131)">
			<title>Sheet.25705</title>
			<path d="M0 354.94 L6.47 354.94" class="st9"/>
		</g>
		<g id="shape25706-1111" transform="translate(130.098,-31.5085) rotate(-5.131)">
			<title>Sheet.25706</title>
			<path d="M0 354.94 L6.47 354.94" class="st9"/>
		</g>
		<g id="shape25707-1114" transform="translate(130.098,-30.668) rotate(-5.131)">
			<title>Sheet.25707</title>
			<path d="M0 354.94 L6.47 354.94" class="st9"/>
		</g>
		<g id="shape25708-1117" transform="translate(130.098,-30.4176) rotate(-5.131)">
			<title>Sheet.25708</title>
			<path d="M0 354.94 L6.47 354.94" class="st9"/>
		</g>
		<g id="shape25709-1120" transform="translate(130.098,-29.5771) rotate(-5.131)">
			<title>Sheet.25709</title>
			<path d="M0 354.94 L6.47 354.94" class="st9"/>
		</g>
		<g id="shape25710-1123" transform="translate(516.779,320.666) rotate(90)">
			<title>Sheet.25710</title>
			<path d="M0 354.94 L0.25 354.94" class="st9"/>
		</g>
		<g id="shape25711-1126" transform="translate(516.779,321.756) rotate(90)">
			<title>Sheet.25711</title>
			<path d="M0 354.94 L0.25 354.94" class="st9"/>
		</g>
		<g id="shape25712-1129" transform="translate(516.779,322.847) rotate(90)">
			<title>Sheet.25712</title>
			<path d="M0 354.94 L0.25 354.94" class="st9"/>
		</g>
		<g id="shape25713-1132" transform="translate(-186.656,322.519) rotate(-90)">
			<title>Sheet.25713</title>
			<path d="M0 354.94 L0.25 354.94" class="st9"/>
		</g>
		<g id="shape25714-1135" transform="translate(-186.656,321.429) rotate(-90)">
			<title>Sheet.25714</title>
			<path d="M0 354.94 L0.25 354.94" class="st9"/>
		</g>
		<g id="shape25715-1138" transform="translate(-186.656,320.338) rotate(-90)">
			<title>Sheet.25715</title>
			<path d="M0 354.94 L0.25 354.94" class="st9"/>
		</g>
		<g id="shape25716-1141" transform="translate(523.219,318.893) rotate(90)">
			<title>Sheet.25716</title>
			<path d="M0 354.94 L0.35 354.94" class="st9"/>
		</g>
		<g id="shape25717-1144" transform="translate(523.219,323.36) rotate(90)">
			<title>Sheet.25717</title>
			<path d="M0 354.94 L1.27 354.94" class="st9"/>
		</g>
		<g id="shape25718-1147" transform="translate(164.427,-29.4897)">
			<title>Sheet.25718</title>
			<path d="M0 354.94 L1.27 354.94" class="st9"/>
		</g>
		<g id="shape25719-1150" transform="translate(-79.2523,583.52) rotate(-136.643)">
			<title>Sheet.25719</title>
			<path d="M0 354.94 L0.37 354.94" class="st9"/>
		</g>
		<g id="shape25720-1153" transform="translate(-77.985,67.3763) rotate(-43.357)">
			<title>Sheet.25720</title>
			<path d="M0 354.94 L0.37 354.94" class="st9"/>
		</g>
	</g>
</svg>
