<?xml version="1.0" encoding="UTF-8" standalone="no"?>
<!DOCTYPE svg PUBLIC "-//W3C//DTD SVG 1.1//EN" "http://www.w3.org/Graphics/SVG/1.1/DTD/svg11.dtd">
<!-- Generated by Microsoft Visio, SVG Export nRF_UDP_Overall.svg Page-1 -->
<svg xmlns="http://www.w3.org/2000/svg" xmlns:xlink="http://www.w3.org/1999/xlink" xmlns:ev="http://www.w3.org/2001/xml-events"
		width="8in" height="2.5in" viewBox="0 0 1148.98 354.938" xml:space="preserve" color-interpolation-filters="sRGB"
		class="st11">
	<style type="text/css">
	<![CDATA[
		.st1 {fill:none}
		.st2 {stroke:#000000;stroke-linecap:round;stroke-linejoin:round;stroke-width:0.75}
		.st3 {fill:none;stroke:none;stroke-linecap:round;stroke-linejoin:round;stroke-width:0.75}
		.st4 {fill:#000000;font-family:Calibri;font-size:1.25983em}
		.st5 {fill:none;stroke:#000000;stroke-linecap:butt;stroke-width:0.75}
		.st6 {fill:#000000;font-family:Calibri;font-size:1.88976em}
		.st7 {fill:#000000;font-family:Calibri;font-size:0.944893em}
		.st8 {font-size:1em}
		.st9 {fill:#000000;font-family:Calibri;font-size:0.472435em}
		.st10 {fill:#000000;font-family:Calibri;font-size:0.629929em}
		.st11 {fill:none;fill-rule:evenodd;font-size:12px;overflow:visible;stroke-linecap:square;stroke-miterlimit:3}
	]]>
	</style>

	<g>
		<title>Page-1</title>
		<g id="shape24311-1" transform="translate(478.745,-80.3194)">
			<title>Sheet.24311</title>
			<path d="M0.23 354.94 C0.03 351.72 -0.18 348.51 0.23 345.3 C0.86 340.25 2.99 335.23 6.28 331.4 C11.53 325.31 19.74 322.28
						 28.03 320.87 C35.74 319.56 43.52 319.65 50.46 322.21 C54.21 323.6 57.72 325.71 61.22 327.82 L0.23 354.94
						 Z" class="st1"/>
			<path d="M0.23 354.94 C0.03 351.72 -0.18 348.51 0.23 345.3 C0.86 340.25 2.99 335.23 6.28 331.4 C11.53 325.31 19.74 322.28
						 28.03 320.87 C35.74 319.56 43.52 319.65 50.46 322.21 C54.21 323.6 57.72 325.71 61.22 327.82" class="st2"/>
		</g>
		<g id="shape24312-4" transform="translate(532.492,-111.635)">
			<title>Sheet.24312</title>
			<path d="M0 354.94 C2.22 352.44 4.56 350.12 7.25 348.37 C13.05 344.62 20.52 343.53 27.88 343.67 C33.49 343.77 39.03 344.59
						 43.58 347.25 C44.7 347.9 45.75 348.66 46.77 349.49 L0 354.94 Z" class="st1"/>
			<path d="M0 354.94 C2.22 352.44 4.56 350.12 7.25 348.37 C13.05 344.62 20.52 343.53 27.88 343.67 C33.49 343.77 39.03 344.59
						 43.58 347.25 C44.7 347.9 45.75 348.66 46.77 349.49" class="st2"/>
		</g>
		<g id="shape24313-7" transform="translate(576.477,-113.351)">
			<title>Sheet.24313</title>
			<path d="M0 354.94 C2.53 351.32 5.23 347.9 8.79 345.61 C15.63 341.2 25.67 340.9 33.46 344.04 C36.91 345.43 39.93 347.5
						 42.82 349.74 L0 354.94 Z" class="st1"/>
			<path d="M0 354.94 C2.53 351.32 5.23 347.9 8.79 345.61 C15.63 341.2 25.67 340.9 33.46 344.04 C36.91 345.43 39.93 347.5
						 42.82 349.74" class="st2"/>
		</g>
		<g id="shape24314-10" transform="translate(614.299,-107.507)">
			<title>Sheet.24314</title>
			<path d="M0 347.53 C4.18 344.37 8.42 341.34 13.17 339.27 C18.62 336.9 24.74 335.81 30.8 336.64 C35.59 337.3 40.33 339.16
						 43.7 342.25 C47.23 345.49 49.25 350.08 51 354.91 C51 354.92 51 354.92 51 354.93 C51 354.93 51 354.93 51
						 354.94 L0 347.53 Z" class="st1"/>
			<path d="M0 347.53 C4.18 344.37 8.42 341.34 13.17 339.27 C18.62 336.9 24.74 335.81 30.8 336.64 C35.59 337.3 40.33 339.16
						 43.7 342.25 C47.23 345.49 49.25 350.08 51 354.91 C51 354.92 51 354.92 51 354.93 C51 354.93 51 354.93 51
						 354.94" class="st2"/>
		</g>
		<g id="shape24315-13" transform="translate(663.843,-73.9621)">
			<title>Sheet.24315</title>
			<path d="M0 321.51 C2.67 321.28 3.89 321.26 5.12 321.33 C8.51 321.54 11.99 322.51 14.68 324.49 C17.77 326.75 19.83 330.33
						 21 334.13 C22.13 337.8 22.43 341.67 21.35 345.27 C20.5 348.07 18.82 350.71 16.61 352.54 C15.4 353.55 14.02
						 354.31 12.56 354.94 L0 321.51 Z" class="st1"/>
			<path d="M0 321.51 C2.67 321.28 3.89 321.26 5.12 321.33 C8.51 321.54 11.99 322.51 14.68 324.49 C17.77 326.75 19.83 330.33
						 21 334.13 C22.13 337.8 22.43 341.67 21.35 345.27 C20.5 348.07 18.82 350.71 16.61 352.54 C15.4 353.55 14.02
						 354.31 12.56 354.94" class="st2"/>
		</g>
		<g id="shape24316-16" transform="translate(661.234,-39.8496)">
			<title>Sheet.24316</title>
			<path d="M22.59 314.34 C25.24 317.33 27.66 320.44 28.99 324.11 C30.24 327.54 30.53 331.46 29.7 335.07 C28.92 338.39 27.19
						 341.45 24.96 344.01 C22.09 347.3 18.41 349.75 14.43 351.64 C10.78 353.37 6.87 354.62 2.94 354.88 C1.96 354.95
						 0.98 354.95 -0 354.91 L22.59 314.34 Z" class="st1"/>
			<path d="M22.59 314.34 C25.24 317.33 27.66 320.44 28.99 324.11 C30.24 327.54 30.53 331.46 29.7 335.07 C28.92 338.39 27.19
						 341.45 24.96 344.01 C22.09 347.3 18.41 349.75 14.43 351.64 C10.78 353.37 6.87 354.62 2.94 354.88 C1.96 354.95
						 0.98 354.95 -0 354.91" class="st2"/>
		</g>
		<g id="shape24317-19" transform="translate(612.775,-14.273)">
			<title>Sheet.24317</title>
			<path d="M30.98 310.41 C35.04 312.36 39.1 314.31 42.2 317.36 C44.45 319.57 46.21 322.36 47.36 325.43 C48.82 329.32 49.32
						 333.67 48.26 337.54 C46.7 343.21 41.78 347.87 36.37 350.77 C29.69 354.33 22.24 355.21 14.83 355.03 C11.25
						 354.94 7.67 354.6 4.29 353.68 C2.83 353.28 1.4 352.77 0 352.17 L30.98 310.41 Z" class="st1"/>
			<path d="M30.98 310.41 C35.04 312.36 39.1 314.31 42.2 317.36 C44.45 319.57 46.21 322.36 47.36 325.43 C48.82 329.32 49.32
						 333.67 48.26 337.54 C46.7 343.21 41.78 347.87 36.37 350.77 C29.69 354.33 22.24 355.21 14.83 355.03 C11.25
						 354.94 7.67 354.6 4.29 353.68 C2.83 353.28 1.4 352.77 0 352.17" class="st2"/>
		</g>
		<g id="shape24318-22" transform="translate(543.443,-1.7053E-013)">
			<title>Sheet.24318</title>
			<path d="M71.96 330.7 C70.53 335.49 68.78 340.04 65.77 343.67 C60.74 349.72 52.22 353.18 44.01 354.43 C37.03 355.49 30.28
						 354.96 23.38 353.53 C17.16 352.25 10.82 350.24 6.33 346.13 C3.84 343.86 1.92 340.95 0 338.03 L71.96 330.7
						 Z" class="st1"/>
			<path d="M71.96 330.7 C70.53 335.49 68.78 340.04 65.77 343.67 C60.74 349.72 52.22 353.18 44.01 354.43 C37.03 355.49 30.28
						 354.96 23.38 353.53 C17.16 352.25 10.82 350.24 6.33 346.13 C3.84 343.86 1.92 340.95 0 338.03" class="st2"/>
		</g>
		<g id="shape24319-25" transform="translate(490.928,-5.58812)">
			<title>Sheet.24319</title>
			<path d="M57.25 350.1 C57.22 350.11 57.2 350.12 57.18 350.13 C57.18 350.13 57.17 350.13 57.17 350.13 C52.59 351.84 47.96
						 353.33 43.14 354.19 C34.54 355.71 25.37 355.19 17.12 351.95 C11.38 349.68 6.08 346.1 2.32 341.41 C1.47 340.36
						 0.71 339.25 0 338.11 L57.25 350.1 Z" class="st1"/>
			<path d="M57.25 350.1 C57.22 350.11 57.2 350.12 57.18 350.13 C57.18 350.13 57.17 350.13 57.17 350.13 C52.59 351.84 47.96
						 353.33 43.14 354.19 C34.54 355.71 25.37 355.19 17.12 351.95 C11.38 349.68 6.08 346.1 2.32 341.41 C1.47 340.36
						 0.71 339.25 0 338.11" class="st2"/>
		</g>
		<g id="shape24320-28" transform="translate(463.293,-22.3953)">
			<title>Sheet.24320</title>
			<path d="M32.28 354.63 C29.12 354.91 25.9 355.04 22.55 354.85 C15.36 354.44 7.54 352.54 3.48 347.23 C1.54 344.7 0.46
						 341.39 0.12 338.04 C-0.17 335.25 0.05 332.44 1.01 329.97 C1.79 327.97 3.04 326.2 4.48 324.52 L32.28 354.63
						 Z" class="st1"/>
			<path d="M32.28 354.63 C29.12 354.91 25.9 355.04 22.55 354.85 C15.36 354.44 7.54 352.54 3.48 347.23 C1.54 344.7 0.46
						 341.39 0.12 338.04 C-0.17 335.25 0.05 332.44 1.01 329.97 C1.79 327.97 3.04 326.2 4.48 324.52" class="st2"/>
		</g>
		<g id="shape24321-31" transform="translate(456.743,-48.8131)">
			<title>Sheet.24321</title>
			<path d="M24.56 354.94 C21.4 354.34 18.26 353.6 15.19 352.57 C11.36 351.29 7.63 349.54 4.65 346.74 C2.56 344.79 0.84
						 342.34 0.24 339.58 C-0.44 336.42 0.36 332.86 2.09 330.11 C5.04 325.41 10.72 323.1 16.12 321.43 C18.12 320.81
						 20.08 320.28 22.03 319.78 L24.56 354.94 Z" class="st1"/>
			<path d="M24.56 354.94 C21.4 354.34 18.26 353.6 15.19 352.57 C11.36 351.29 7.63 349.54 4.65 346.74 C2.56 344.79 0.84
						 342.34 0.24 339.58 C-0.44 336.42 0.36 332.86 2.09 330.11 C5.04 325.41 10.72 323.1 16.12 321.43 C18.12 320.81
						 20.08 320.28 22.03 319.78" class="st2"/>
		</g>
		<g id="shape24322-34" transform="translate(14.4218,-79.5716)">
			<title>Sheet.24322</title>
			<desc>UDP client</desc>
			<rect x="0" y="339.82" width="197.596" height="15.1181" class="st3"/>
			<text x="0" y="349.65" class="st4">UDP client</text>		</g>
		<g id="shape24323-37" transform="translate(0,-9.62588)">
			<title>Sheet.24323</title>
			<path d="M0 248.63 L225.81 248.63 L225.81 354.94 L0 354.94 L0 248.63 Z" class="st5"/>
		</g>
		<g id="shape24324-39" transform="translate(939.865,-78.4329)">
			<title>Sheet.24324</title>
			<desc>UDP server</desc>
			<rect x="0" y="339.82" width="197.596" height="15.1181" class="st3"/>
			<text x="0" y="349.65" class="st4">UDP server</text>		</g>
		<g id="shape24325-42" transform="translate(931.272,-17.5753)">
			<title>Sheet.24325</title>
			<path d="M0 265.77 L209.33 265.77 L209.33 354.94 L0 354.94 L0 265.77 Z" class="st5"/>
		</g>
		<g id="shape24326-44" transform="translate(923.164,-9.62588)">
			<title>Sheet.24326</title>
			<path d="M0 248.63 L225.81 248.63 L225.81 354.94 L0 354.94 L0 248.63 Z" class="st5"/>
		</g>
		<g id="shape24327-46" transform="translate(473.795,-54.5177)">
			<title>Sheet.24327</title>
			<desc>Internet</desc>
			<rect x="0" y="332.261" width="197.596" height="22.6772" class="st3"/>
			<text x="61.19" y="350.4" class="st6">Internet</text>		</g>
		<g id="shape24328-49" transform="translate(565.986,-199.88)">
			<title>Sheet.24328</title>
			<path d="M0 354.94 L4.25 354.94" class="st2"/>
		</g>
		<g id="shape24329-52" transform="translate(578.742,-199.88)">
			<title>Sheet.24329</title>
			<path d="M0 354.94 L4.25 354.94" class="st2"/>
		</g>
		<g id="shape24330-55" transform="translate(248.52,-3.67514) rotate(-63.4349)">
			<title>Sheet.24330</title>
			<path d="M0 354.94 L19.02 354.94" class="st2"/>
		</g>
		<g id="shape24331-58" transform="translate(891.956,-20.683) rotate(63.4349)">
			<title>Sheet.24331</title>
			<path d="M0 354.94 L19.02 354.94" class="st2"/>
		</g>
		<g id="shape24332-61" transform="translate(565.986,-139.843)">
			<title>Sheet.24332</title>
			<path d="M0 354.94 L4.25 354.94" class="st2"/>
		</g>
		<g id="shape24333-64" transform="translate(578.742,-139.843)">
			<title>Sheet.24333</title>
			<path d="M0 354.94 L4.25 354.94" class="st2"/>
		</g>
		<g id="shape24334-67" transform="translate(883.452,56.362) rotate(63.4349)">
			<title>Sheet.24334</title>
			<path d="M0 354.94 L19.02 354.94" class="st2"/>
		</g>
		<g id="shape24335-70" transform="translate(257.024,73.3699) rotate(-63.4349)">
			<title>Sheet.24335</title>
			<path d="M0 354.94 L19.02 354.94" class="st2"/>
		</g>
		<g id="shape24336-73" transform="translate(215.3,215.095) rotate(-90)">
			<title>Sheet.24336</title>
			<path d="M0 354.94 L60.04 354.94" class="st2"/>
		</g>
		<g id="shape24337-76" transform="translate(933.679,155.058) rotate(90)">
			<title>Sheet.24337</title>
			<path d="M0 354.94 L60.04 354.94" class="st2"/>
		</g>
		<g id="shape24338-79" transform="translate(280.957,-9.62588)">
			<title>Sheet.24338</title>
			<path d="M0 248.63 L69.26 248.63 L69.26 354.94 L0 354.94 L0 248.63 Z" class="st5"/>
		</g>
		<g id="shape24339-81" transform="translate(216.367,-59.6827)">
			<title>Sheet.24339</title>
			<desc>BLE enabled router</desc>
			<rect x="0" y="343.599" width="197.596" height="11.3386" class="st3"/>
			<text x="90.56" y="339.06" class="st7">BLE <tspan x="80.2" dy="1.2em" class="st8">enabled </tspan><tspan x="84.16"
						dy="1.2em" class="st8">router</tspan></text>		</g>
		<g id="shape24340-86" transform="translate(597.761,283.653) rotate(90)">
			<title>Sheet.24340</title>
			<path d="M0 354.94 L4.25 354.94" class="st2"/>
		</g>
		<g id="shape24341-89" transform="translate(597.761,296.409) rotate(90)">
			<title>Sheet.24341</title>
			<path d="M0 354.94 L4.25 354.94" class="st2"/>
		</g>
		<g id="shape24342-92" transform="translate(401.556,601.119) rotate(153.435)">
			<title>Sheet.24342</title>
			<path d="M0 354.94 L19.02 354.94" class="st2"/>
		</g>
		<g id="shape24343-95" transform="translate(384.548,-25.3089) rotate(26.5651)">
			<title>Sheet.24343</title>
			<path d="M0 354.94 L19.02 354.94" class="st2"/>
		</g>
		<g id="shape24344-98" transform="translate(242.823,-67.0326)">
			<title>Sheet.24344</title>
			<path d="M0 354.94 L21.13 354.94" class="st2"/>
		</g>
		<g id="shape24345-101" transform="translate(263.949,651.347) rotate(180)">
			<title>Sheet.24345</title>
			<path d="M0 354.94 L21.13 354.94" class="st2"/>
		</g>
		<g id="shape24346-104" transform="translate(618.887,283.653) rotate(90)">
			<title>Sheet.24346</title>
			<path d="M0 354.94 L4.25 354.94" class="st2"/>
		</g>
		<g id="shape24347-107" transform="translate(618.887,296.409) rotate(90)">
			<title>Sheet.24347</title>
			<path d="M0 354.94 L4.25 354.94" class="st2"/>
		</g>
		<g id="shape24348-110" transform="translate(422.682,-33.8128) rotate(26.5651)">
			<title>Sheet.24348</title>
			<path d="M0 354.94 L19.02 354.94" class="st2"/>
		</g>
		<g id="shape24349-113" transform="translate(439.69,609.623) rotate(153.435)">
			<title>Sheet.24349</title>
			<path d="M0 354.94 L19.02 354.94" class="st2"/>
		</g>
		<g id="shape24350-116" transform="translate(794.335,283.653) rotate(90)">
			<title>Sheet.24350</title>
			<path d="M0 354.94 L4.25 354.94" class="st2"/>
		</g>
		<g id="shape24351-119" transform="translate(794.335,296.409) rotate(90)">
			<title>Sheet.24351</title>
			<path d="M0 354.94 L4.25 354.94" class="st2"/>
		</g>
		<g id="shape24352-122" transform="translate(598.131,-33.8128) rotate(26.5651)">
			<title>Sheet.24352</title>
			<path d="M0 354.94 L19.02 354.94" class="st2"/>
		</g>
		<g id="shape24353-125" transform="translate(615.139,609.623) rotate(153.435)">
			<title>Sheet.24353</title>
			<path d="M0 354.94 L19.02 354.94" class="st2"/>
		</g>
		<g id="shape24354-128" transform="translate(722.164,283.653) rotate(90)">
			<title>Sheet.24354</title>
			<path d="M0 354.94 L4.25 354.94" class="st2"/>
		</g>
		<g id="shape24355-131" transform="translate(722.164,296.409) rotate(90)">
			<title>Sheet.24355</title>
			<path d="M0 354.94 L4.25 354.94" class="st2"/>
		</g>
		<g id="shape24356-134" transform="translate(525.959,601.119) rotate(153.435)">
			<title>Sheet.24356</title>
			<path d="M0 354.94 L19.02 354.94" class="st2"/>
		</g>
		<g id="shape24357-137" transform="translate(508.951,-25.3089) rotate(26.5651)">
			<title>Sheet.24357</title>
			<path d="M0 354.94 L19.02 354.94" class="st2"/>
		</g>
		<g id="shape24358-140" transform="translate(367.226,-67.0326)">
			<title>Sheet.24358</title>
			<path d="M0 354.94 L72.17 354.94" class="st2"/>
		</g>
		<g id="shape24359-143" transform="translate(439.398,651.347) rotate(180)">
			<title>Sheet.24359</title>
			<path d="M0 354.94 L72.17 354.94" class="st2"/>
		</g>
		<g id="shape24360-146" transform="translate(798.761,-9.62588)">
			<title>Sheet.24360</title>
			<path d="M69.26 248.63 L0 248.63 L0 354.94 L69.26 354.94 L69.26 248.63 Z" class="st5"/>
		</g>
		<g id="shape24361-148" transform="translate(1261.09,283.653) rotate(90)">
			<title>Sheet.24361</title>
			<path d="M0 354.94 L4.25 354.94" class="st2"/>
		</g>
		<g id="shape24362-151" transform="translate(1261.09,296.409) rotate(90)">
			<title>Sheet.24362</title>
			<path d="M0 354.94 L4.25 354.94" class="st2"/>
		</g>
		<g id="shape24363-154" transform="translate(1064.89,-33.8128) rotate(26.5651)">
			<title>Sheet.24363</title>
			<path d="M0 354.94 L19.02 354.94" class="st2"/>
		</g>
		<g id="shape24364-157" transform="translate(1081.9,609.623) rotate(153.435)">
			<title>Sheet.24364</title>
			<path d="M0 354.94 L19.02 354.94" class="st2"/>
		</g>
		<g id="shape24365-160" transform="translate(906.156,642.843) rotate(180)">
			<title>Sheet.24365</title>
			<path d="M0 354.94 L21.13 354.94" class="st2"/>
		</g>
		<g id="shape24366-163" transform="translate(885.03,-58.5287)">
			<title>Sheet.24366</title>
			<path d="M0 354.94 L21.13 354.94" class="st2"/>
		</g>
		<g id="shape24367-166" transform="translate(1239.97,283.653) rotate(90)">
			<title>Sheet.24367</title>
			<path d="M0 354.94 L4.25 354.94" class="st2"/>
		</g>
		<g id="shape24368-169" transform="translate(1239.97,296.409) rotate(90)">
			<title>Sheet.24368</title>
			<path d="M0 354.94 L4.25 354.94" class="st2"/>
		</g>
		<g id="shape24369-172" transform="translate(1043.76,601.119) rotate(153.435)">
			<title>Sheet.24369</title>
			<path d="M0 354.94 L19.02 354.94" class="st2"/>
		</g>
		<g id="shape24370-175" transform="translate(1026.76,-25.3089) rotate(26.5651)">
			<title>Sheet.24370</title>
			<path d="M0 354.94 L19.02 354.94" class="st2"/>
		</g>
		<g id="shape24371-178" transform="translate(1064.52,283.653) rotate(90)">
			<title>Sheet.24371</title>
			<path d="M0 354.94 L4.25 354.94" class="st2"/>
		</g>
		<g id="shape24372-181" transform="translate(1064.52,296.409) rotate(90)">
			<title>Sheet.24372</title>
			<path d="M0 354.94 L4.25 354.94" class="st2"/>
		</g>
		<g id="shape24373-184" transform="translate(868.314,601.119) rotate(153.435)">
			<title>Sheet.24373</title>
			<path d="M0 354.94 L19.02 354.94" class="st2"/>
		</g>
		<g id="shape24374-187" transform="translate(851.307,-25.3089) rotate(26.5651)">
			<title>Sheet.24374</title>
			<path d="M0 354.94 L19.02 354.94" class="st2"/>
		</g>
		<g id="shape24375-190" transform="translate(1136.69,283.653) rotate(90)">
			<title>Sheet.24375</title>
			<path d="M0 354.94 L4.25 354.94" class="st2"/>
		</g>
		<g id="shape24376-193" transform="translate(1136.69,296.409) rotate(90)">
			<title>Sheet.24376</title>
			<path d="M0 354.94 L4.25 354.94" class="st2"/>
		</g>
		<g id="shape24377-196" transform="translate(940.486,-33.8128) rotate(26.5651)">
			<title>Sheet.24377</title>
			<path d="M0 354.94 L19.02 354.94" class="st2"/>
		</g>
		<g id="shape24378-199" transform="translate(957.494,609.623) rotate(153.435)">
			<title>Sheet.24378</title>
			<path d="M0 354.94 L19.02 354.94" class="st2"/>
		</g>
		<g id="shape24379-202" transform="translate(781.753,642.843) rotate(180)">
			<title>Sheet.24379</title>
			<path d="M0 354.94 L72.17 354.94" class="st2"/>
		</g>
		<g id="shape24380-205" transform="translate(709.582,-58.5287)">
			<title>Sheet.24380</title>
			<path d="M0 354.94 L72.17 354.94" class="st2"/>
		</g>
		<g id="shape24381-208" transform="translate(734.171,-59.6827)">
			<title>Sheet.24381</title>
			<desc>BLE enabled router</desc>
			<rect x="0" y="343.599" width="197.596" height="11.3386" class="st3"/>
			<text x="90.56" y="339.06" class="st7">BLE <tspan x="80.2" dy="1.2em" class="st8">enabled </tspan><tspan x="84.16"
						dy="1.2em" class="st8">router</tspan></text>		</g>
		<g id="shape24382-213" transform="translate(335.833,-69.2306)">
			<title>Sheet.24382</title>
			<desc>UDP/IPv6</desc>
			<rect x="0" y="343.599" width="135.084" height="11.3386" class="st3"/>
			<text x="45.51" y="354.37" class="st7">UDP/IPv6</text>		</g>
		<g id="shape24383-216" transform="translate(938.972,117.534) rotate(90)">
			<title>Sheet.24383</title>
			<desc>UDP/IPv6</desc>
			<rect x="0" y="343.599" width="135.084" height="11.3386" class="st3"/>
			<text x="45.51" y="354.37" class="st7">UDP/IPv6</text>		</g>
		<g id="shape24384-219" transform="translate(678.189,-69.2306)">
			<title>Sheet.24384</title>
			<desc>UDP/IPv6</desc>
			<rect x="0" y="343.599" width="135.084" height="11.3386" class="st3"/>
			<text x="45.51" y="354.37" class="st7">UDP/IPv6</text>		</g>
		<g id="shape24641-222" transform="translate(499.906,-354.938)">
			<title>Sheet.24641</title>
			<path d="M0 354.94 L151.71 354.94" class="st2"/>
		</g>
		<g id="shape24642-225" transform="translate(497.185,-352.199)">
			<title>Sheet.24642</title>
			<path d="M2.72 352.2 A2.72126 2.72126 -180 0 0 -0 354.94 L2.72 352.2 Z" class="st1"/>
			<path d="M2.72 352.2 A2.72126 2.72126 -180 0 0 -0 354.94" class="st2"/>
		</g>
		<g id="shape24643-228" transform="translate(502.205,-348.082)">
			<title>Sheet.24643</title>
			<path d="M0 354.94 L147.22 354.94" class="st2"/>
		</g>
		<g id="shape24644-231" transform="translate(501.525,-347.399)">
			<title>Sheet.24644</title>
			<path d="M0.68 354.25 a0.680315 0.680315 -180 0 0 -0.680308 0.6834 L0.68 354.25 Z" class="st1"/>
			<path d="M0.68 354.25 a0.680315 0.680315 -180 0 0 -0.680308 0.6834" class="st2"/>
		</g>
		<g id="shape24645-234" transform="translate(501.899,-264.995)">
			<title>Sheet.24645</title>
			<path d="M0 354.94 L148.25 354.94" class="st2"/>
		</g>
		<g id="shape24646-237" transform="translate(502.578,-264.447)">
			<title>Sheet.24646</title>
			<path d="M0 354.94 L146.89 354.94" class="st2"/>
		</g>
		<g id="shape24647-240" transform="translate(499.814,-257.454)">
			<title>Sheet.24647</title>
			<path d="M0 354.94 L152.25 354.94" class="st2"/>
		</g>
		<g id="shape24648-243" transform="translate(497.773,-257.763)">
			<title>Sheet.24648</title>
			<path d="M0 353.22 A2.04094 2.04094 -180 0 0 0.96 354.94 L0 353.22 Z" class="st1"/>
			<path d="M0 353.22 A2.04094 2.04094 -180 0 0 0.96 354.94" class="st2"/>
		</g>
		<g id="shape24649-246" transform="translate(498.735,-257.454)">
			<title>Sheet.24649</title>
			<path d="M0 354.63 A2.04094 2.04094 -180 0 0 1.08 354.94 L0 354.63 Z" class="st1"/>
			<path d="M0 354.63 A2.04094 2.04094 -180 0 0 1.08 354.94" class="st2"/>
		</g>
		<g id="shape24650-249" transform="translate(483.284,-238.43)">
			<title>Sheet.24650</title>
			<path d="M0 354.94 L0.84 354.94" class="st2"/>
		</g>
		<g id="shape24651-252" transform="translate(484.12,-238.43)">
			<title>Sheet.24651</title>
			<path d="M0 354.94 L183.1 354.94" class="st2"/>
		</g>
		<g id="shape24652-255" transform="translate(667.218,-238.43)">
			<title>Sheet.24652</title>
			<path d="M0 354.94 L0.83 354.94" class="st2"/>
		</g>
		<g id="shape24653-258" transform="translate(473.999,-225.831)">
			<title>Sheet.24653</title>
			<path d="M0 354.94 L202.61 354.94" class="st2"/>
		</g>
		<g id="shape24654-261" transform="translate(473.482,-226.953)">
			<title>Sheet.24654</title>
		</g>
		<g id="shape24655-262" transform="translate(473.319,-225.831)">
			<title>Sheet.24655</title>
			<path d="M0 354.26 a0.680315 0.680315 -180 0 0 0.680315 0.680315 L0 354.26 Z" class="st1"/>
			<path d="M0 354.26 a0.680315 0.680315 -180 0 0 0.680315 0.680315" class="st2"/>
		</g>
		<g id="shape24656-265" transform="translate(485.787,-219.576)">
			<title>Sheet.24656</title>
			<path d="M0 354.94 L175.97 354.94" class="st2"/>
		</g>
		<g id="shape24657-268" transform="translate(852.115,0.486632) rotate(89.6365)">
			<title>Sheet.24657</title>
			<path d="M0 354.94 L92.72 354.94" class="st2"/>
		</g>
		<g id="shape24658-271" transform="translate(856.459,5.9294) rotate(89.7402)">
			<title>Sheet.24658</title>
			<path d="M0 354.94 L82.28 354.94" class="st2"/>
		</g>
		<g id="shape24659-274" transform="translate(501.898,-264.447)">
			<title>Sheet.24659</title>
			<path d="M-0 354.26 a0.680315 0.680315 -180 0 0 0.680308 0.67723 L0 354.26 Z" class="st1"/>
			<path d="M-0 354.26 a0.680315 0.680315 -180 0 0 0.680308 0.67723" class="st2"/>
		</g>
		<g id="shape24660-277" transform="translate(1005.05,7.36509) rotate(89.9725)">
			<title>Sheet.24660</title>
			<path d="M0 354.94 L82.28 354.94" class="st2"/>
		</g>
		<g id="shape24661-280" transform="translate(649.467,-264.447)">
			<title>Sheet.24661</title>
			<path d="M0 354.94 a0.680315 0.680315 -180 0 0 0.680315 -0.680641 L0 354.94 Z" class="st1"/>
			<path d="M0 354.94 a0.680315 0.680315 -180 0 0 0.680315 -0.680641" class="st2"/>
		</g>
		<g id="shape24662-283" transform="translate(649.427,-347.402)">
			<title>Sheet.24662</title>
			<path d="M0.68 354.94 a0.680315 0.680315 -180 0 0 -0.680315 -0.679989 L0.68 354.94 Z" class="st1"/>
			<path d="M0.68 354.94 a0.680315 0.680315 -180 0 0 -0.680315 -0.679989" class="st2"/>
		</g>
		<g id="shape24663-286" transform="translate(299.171,94.5649) rotate(-89.8575)">
			<title>Sheet.24663</title>
			<path d="M0 354.94 L92.72 354.94" class="st2"/>
		</g>
		<g id="shape24664-289" transform="translate(652.067,-257.454)">
			<title>Sheet.24664</title>
			<path d="M0 354.94 A2.04094 2.04094 -180 0 0 1.51 354.27 L0 354.94 Z" class="st1"/>
			<path d="M0 354.94 A2.04094 2.04094 -180 0 0 1.51 354.27" class="st2"/>
		</g>
		<g id="shape24665-292" transform="translate(653.581,-258.127)">
			<title>Sheet.24665</title>
			<path d="M-0 354.94 A2.04094 2.04094 -180 0 0 0.53 353.57 L0 354.94 Z" class="st1"/>
			<path d="M-0 354.94 A2.04094 2.04094 -180 0 0 0.53 353.57" class="st2"/>
		</g>
		<g id="shape24666-295" transform="translate(651.617,-352.21)">
			<title>Sheet.24666</title>
			<path d="M2.72 354.94 A2.72126 2.72126 -180 0 0 -0 352.21 L2.72 354.94 Z" class="st1"/>
			<path d="M2.72 354.94 A2.72126 2.72126 -180 0 0 -0 352.21" class="st2"/>
		</g>
		<g id="shape24667-298" transform="translate(767.133,330.685) rotate(130.499)">
			<title>Sheet.24667</title>
			<path d="M0 354.94 L3.2 354.94" class="st2"/>
		</g>
		<g id="shape24668-301" transform="translate(753.183,347.018) rotate(130.499)">
			<title>Sheet.24668</title>
			<path d="M0 354.94 L15.09 354.94" class="st2"/>
		</g>
		<g id="shape24669-304" transform="translate(933.258,-120.336) rotate(51.6576)">
			<title>Sheet.24669</title>
			<path d="M0 354.94 L3.51 354.94" class="st2"/>
		</g>
		<g id="shape24670-307" transform="translate(946.43,-103.682) rotate(51.6576)">
			<title>Sheet.24670</title>
			<path d="M0 354.94 L14.66 354.94" class="st2"/>
		</g>
		<g id="shape24671-310" transform="translate(676.607,-225.831)">
			<title>Sheet.24671</title>
			<path d="M-0 354.94 a0.680315 0.680315 -180 0 0 0.680315 -0.680315 L0 354.94 Z" class="st1"/>
			<path d="M-0 354.94 a0.680315 0.680315 -180 0 0 0.680315 -0.680315" class="st2"/>
		</g>
		<g id="shape24672-313" transform="translate(677.287,-226.511)">
			<title>Sheet.24672</title>
		</g>
		<g id="shape24673-314" transform="translate(759.767,476.862) rotate(166.45)">
			<title>Sheet.24673</title>
			<path d="M0 354.94 L15.11 354.94" class="st2"/>
		</g>
		<g id="shape24674-317" transform="translate(661.76,-219.576)">
			<title>Sheet.24674</title>
		</g>
		<g id="shape24675-318" transform="translate(531.943,-237.686)">
			<title>Sheet.24675</title>
			<path d="M0 354.94 L45.36 354.94" class="st2"/>
		</g>
		<g id="shape24676-321" transform="translate(531.003,-237.063)">
			<title>Sheet.24676</title>
			<path d="M0.94 354.31 A1.02047 1.02047 -180 0 0 -0 354.94 L0.94 354.31 Z" class="st1"/>
			<path d="M0.94 354.31 A1.02047 1.02047 -180 0 0 -0 354.94" class="st2"/>
		</g>
		<g id="shape24677-324" transform="translate(528.111,-228.392)">
			<title>Sheet.24677</title>
			<path d="M0 354.94 L49.15 354.94" class="st2"/>
		</g>
		<g id="shape24678-327" transform="translate(578.287,479.818) rotate(180)">
			<title>Sheet.24678</title>
			<path d="M0 354.94 L50.24 354.94" class="st2"/>
		</g>
		<g id="shape24679-330" transform="translate(857.984,255.949) rotate(112.893)">
			<title>Sheet.24679</title>
			<path d="M0 354.94 L8.64 354.94" class="st2"/>
		</g>
		<g id="shape24680-333" transform="translate(527.641,-228.392)">
			<title>Sheet.24680</title>
			<path d="M0 354.23 a0.510236 0.510236 -180 0 0 0.470047 0.708723 L0 354.23 Z" class="st1"/>
			<path d="M0 354.23 a0.510236 0.510236 -180 0 0 0.470047 0.708723" class="st2"/>
		</g>
		<g id="shape24681-336" transform="translate(901.848,192.983) rotate(101.062)">
			<title>Sheet.24681</title>
			<path d="M0 354.94 L1.7 354.94" class="st2"/>
		</g>
		<g id="shape24682-339" transform="translate(901.472,192.983) rotate(101.062)">
			<title>Sheet.24682</title>
			<path d="M0 354.94 L1.7 354.94" class="st2"/>
		</g>
		<g id="shape24683-342" transform="translate(933.254,120.091) rotate(90.2929)">
			<title>Sheet.24683</title>
			<path d="M0 354.94 L7.25 354.94" class="st2"/>
		</g>
		<g id="shape24684-345" transform="translate(577.263,-228.392)">
			<title>Sheet.24684</title>
			<path d="M0 354.94 A1.02047 1.02047 -180 0 0 1.02 353.92 L0 354.94 Z" class="st1"/>
			<path d="M0 354.94 A1.02047 1.02047 -180 0 0 1.02 353.92" class="st2"/>
		</g>
		<g id="shape24685-348" transform="translate(577.3,-236.661)">
			<title>Sheet.24685</title>
			<path d="M1.02 354.94 A1.02047 1.02047 -180 0 0 0 353.91 L1.02 354.94 Z" class="st1"/>
			<path d="M1.02 354.94 A1.02047 1.02047 -180 0 0 0 353.91" class="st2"/>
		</g>
		<g id="shape24686-351" transform="translate(497.804,-256.736)">
			<title>Sheet.24686</title>
			<path d="M0 354.94 L156.58 354.94" class="st2"/>
		</g>
		<g id="shape24687-354" transform="translate(654.382,-255.085)">
			<title>Sheet.24687</title>
			<path d="M0 353.29 A3.46711 3.46711 -180 0 0 0.49 354.94 L0 353.29 Z" class="st1"/>
			<path d="M0 353.29 A3.46711 3.46711 -180 0 0 0.49 354.94" class="st2"/>
		</g>
		<g id="shape24688-357" transform="translate(497.234,-254.764)">
			<title>Sheet.24688</title>
			<path d="M0 354.94 A3.52318 3.52318 -180 0 0 0.57 352.97 L0 354.94 Z" class="st1"/>
			<path d="M0 354.94 A3.52318 3.52318 -180 0 0 0.57 352.97" class="st2"/>
		</g>
		<g id="shape24689-360" transform="translate(234.92,-140.279) rotate(-47.7865)">
			<title>Sheet.24689</title>
			<path d="M0 354.94 L1.39 354.94" class="st2"/>
		</g>
		<g id="shape24690-363" transform="translate(346.817,275.359) rotate(-119.942)">
			<title>Sheet.24690</title>
			<path d="M0 354.94 L1.6 354.94" class="st2"/>
		</g>
		<g id="shape24691-366" transform="translate(382.191,474.876) rotate(-163.063)">
			<title>Sheet.24691</title>
			<path d="M0 354.94 L12.12 354.94" class="st2"/>
		</g>
		<g id="shape24692-369" transform="translate(485.59,-219.605)">
			<title>Sheet.24692</title>
		</g>
		<g id="shape24693-370" transform="translate(473.999,-223.134)">
			<title>Sheet.24693</title>
			<path d="M0 354.94 L202.61 354.94" class="st2"/>
		</g>
		<g id="shape24694-373" transform="translate(473.319,-223.134)">
			<title>Sheet.24694</title>
			<path d="M0 354.26 a0.680315 0.680315 -180 0 0 0.680315 0.680315 L0 354.26 Z" class="st1"/>
			<path d="M0 354.26 a0.680315 0.680315 -180 0 0 0.680315 0.680315" class="st2"/>
		</g>
		<g id="shape24695-376" transform="translate(676.607,-223.134)">
			<title>Sheet.24695</title>
			<path d="M-0 354.94 a0.680315 0.680315 -180 0 0 0.680315 -0.680315 L0 354.94 Z" class="st1"/>
			<path d="M-0 354.94 a0.680315 0.680315 -180 0 0 0.680315 -0.680315" class="st2"/>
		</g>
		<g id="shape24696-379" transform="translate(1032.22,128.426) rotate(90)">
			<title>Sheet.24696</title>
			<path d="M0 354.94 L2.7 354.94" class="st2"/>
		</g>
		<g id="shape24697-382" transform="translate(828.257,128.426) rotate(90)">
			<title>Sheet.24697</title>
			<path d="M0 354.94 L2.7 354.94" class="st2"/>
		</g>
		<g id="shape24698-385" transform="translate(764.965,334.123) rotate(130.319)">
			<title>Sheet.24698</title>
			<path d="M0 354.94 L15.8 354.94" class="st2"/>
		</g>
		<g id="shape24699-388" transform="translate(494.342,-250.476)">
			<title>Sheet.24699</title>
			<path d="M-0 354.94 A3.34859 3.34859 -180 0 0 0.81 353.08 L0 354.94 Z" class="st1"/>
			<path d="M-0 354.94 A3.34859 3.34859 -180 0 0 0.81 353.08" class="st2"/>
		</g>
		<g id="shape24700-391" transform="translate(936.181,-115.626) rotate(51.7331)">
			<title>Sheet.24700</title>
			<path d="M0 354.94 L15.68 354.94" class="st2"/>
		</g>
		<g id="shape24701-394" transform="translate(495.153,-252.332)">
			<title>Sheet.24701</title>
			<path d="M0 354.94 L161.9 354.94" class="st2"/>
		</g>
		<g id="shape24702-397" transform="translate(657.051,-250.741)">
			<title>Sheet.24702</title>
			<path d="M-0 353.35 A3.46711 3.46711 -180 0 0 0.46 354.94 L0 353.35 Z" class="st1"/>
			<path d="M-0 353.35 A3.46711 3.46711 -180 0 0 0.46 354.94" class="st2"/>
		</g>
		<g id="shape24703-400" transform="translate(505.162,-251.357)">
			<title>Sheet.24703</title>
			<path d="M0 354.94 L110.07 354.94" class="st2"/>
		</g>
		<g id="shape24704-403" transform="translate(618.74,-251.357)">
			<title>Sheet.24704</title>
			<path d="M0 354.94 L27.86 354.94" class="st2"/>
		</g>
		<g id="shape24705-406" transform="translate(618.268,-250.652)">
			<title>Sheet.24705</title>
			<path d="M0.47 354.23 a0.510236 0.510236 -180 0 0 -0.471621 0.704953 L0.47 354.23 Z" class="st1"/>
			<path d="M0.47 354.23 a0.510236 0.510236 -180 0 0 -0.471621 0.704953" class="st2"/>
		</g>
		<g id="shape24706-409" transform="translate(504.335,-250.934)">
			<title>Sheet.24706</title>
			<path d="M0.83 354.51 A1.02047 1.02047 -180 0 0 0 354.94 L0.83 354.51 Z" class="st1"/>
			<path d="M0.83 354.51 A1.02047 1.02047 -180 0 0 0 354.94" class="st2"/>
		</g>
		<g id="shape24707-412" transform="translate(941.432,-94.842) rotate(55.9235)">
			<title>Sheet.24707</title>
			<path d="M0 354.94 L12.64 354.94" class="st2"/>
		</g>
		<g id="shape24708-415" transform="translate(646.595,-250.908)">
			<title>Sheet.24708</title>
			<path d="M0.85 354.94 A1.02047 1.02047 -180 0 0 -0 354.49 L0.85 354.94 Z" class="st1"/>
			<path d="M0.85 354.94 A1.02047 1.02047 -180 0 0 -0 354.49" class="st2"/>
		</g>
		<g id="shape24709-418" transform="translate(654.24,-239.909)">
			<title>Sheet.24709</title>
			<path d="M0 354.94 a0.340157 0.340157 -180 0 0 0.281749 -0.530747 L0 354.94 Z" class="st1"/>
			<path d="M0 354.94 a0.340157 0.340157 -180 0 0 0.281749 -0.530747" class="st2"/>
		</g>
		<g id="shape24710-421" transform="translate(792.209,311.632) rotate(125.801)">
			<title>Sheet.24710</title>
			<path d="M0 354.94 L12.93 354.94" class="st2"/>
		</g>
		<g id="shape24711-424" transform="translate(496.71,-239.909)">
			<title>Sheet.24711</title>
			<path d="M0.06 354.4 a0.340157 0.340157 -180 0 0 0.275887 0.539139 L0.06 354.4 Z" class="st1"/>
			<path d="M0.06 354.4 a0.340157 0.340157 -180 0 0 0.275887 0.539139" class="st2"/>
		</g>
		<g id="shape24712-427" transform="translate(497.048,-239.909)">
			<title>Sheet.24712</title>
			<path d="M0 354.94 L122.83 354.94" class="st2"/>
		</g>
		<g id="shape24713-430" transform="translate(623.386,-239.909)">
			<title>Sheet.24713</title>
			<path d="M0 354.94 L30.85 354.94" class="st2"/>
		</g>
		<g id="shape24714-433" transform="translate(654.24,-239.205)">
			<title>Sheet.24714</title>
		</g>
		<g id="shape24715-434" transform="translate(497.048,-239.205)">
			<title>Sheet.24715</title>
		</g>
		<g id="shape24716-435" transform="translate(497.048,-238.865)">
			<title>Sheet.24716</title>
			<path d="M0 354.94 L122.83 354.94" class="st2"/>
		</g>
		<g id="shape24717-438" transform="translate(623.386,-238.865)">
			<title>Sheet.24717</title>
			<path d="M0 354.94 L30.85 354.94" class="st2"/>
		</g>
		<g id="shape24718-441" transform="translate(1009.52,114.689) rotate(90)">
			<title>Sheet.24718</title>
			<path d="M0 354.94 L1.04 354.94" class="st2"/>
		</g>
		<g id="shape24719-444" transform="translate(851.645,114.689) rotate(90)">
			<title>Sheet.24719</title>
			<path d="M0 354.94 L1.04 354.94" class="st2"/>
		</g>
		<g id="shape24720-447" transform="translate(946.344,-31.1661) rotate(67.5659)">
			<title>Sheet.24720</title>
			<path d="M0 354.94 L10.94 354.94" class="st2"/>
		</g>
		<g id="shape24721-450" transform="translate(622.443,-239.909)">
			<title>Sheet.24721</title>
			<path d="M0 354.31 A1.02047 1.02047 -180 0 0 0.94 354.94 L0 354.31 Z" class="st1"/>
			<path d="M0 354.31 A1.02047 1.02047 -180 0 0 0.94 354.94" class="st2"/>
		</g>
		<g id="shape24722-453" transform="translate(946.344,-30.1216) rotate(67.5659)">
			<title>Sheet.24722</title>
			<path d="M0 354.94 L10.94 354.94" class="st2"/>
		</g>
		<g id="shape24723-456" transform="translate(944.249,-31.24) rotate(67.5659)">
			<title>Sheet.24723</title>
			<path d="M0 354.94 L10.94 354.94" class="st2"/>
		</g>
		<g id="shape24724-459" transform="translate(619.877,-239.909)">
			<title>Sheet.24724</title>
			<path d="M0 354.94 a0.510236 0.510236 -180 0 0 0.471621 -0.704953 L0 354.94 Z" class="st1"/>
			<path d="M0 354.94 a0.510236 0.510236 -180 0 0 0.471621 -0.704953" class="st2"/>
		</g>
		<g id="shape24725-462" transform="translate(615.23,-250.726)">
			<title>Sheet.24725</title>
			<path d="M0.94 354.94 A1.02047 1.02047 -180 0 0 0 354.31 L0.94 354.94 Z" class="st1"/>
			<path d="M0.94 354.94 A1.02047 1.02047 -180 0 0 0 354.31" class="st2"/>
		</g>
		<g id="shape24726-465" transform="translate(974.814,115.029) rotate(90)">
			<title>Sheet.24726</title>
			<path d="M0 354.94 L1.04 354.94" class="st2"/>
		</g>
		<g id="shape24727-468" transform="translate(619.877,-238.865)">
			<title>Sheet.24727</title>
			<path d="M-0 354.94 a0.510236 0.510236 -180 0 0 0.510236 -0.510236 L0 354.94 Z" class="st1"/>
			<path d="M-0 354.94 a0.510236 0.510236 -180 0 0 0.510236 -0.510236" class="st2"/>
		</g>
		<g id="shape24728-471" transform="translate(265.449,115.563) rotate(-90)">
			<title>Sheet.24728</title>
			<path d="M0 354.94 L1.04 354.94" class="st2"/>
		</g>
		<g id="shape24729-474" transform="translate(978.324,115.029) rotate(90)">
			<title>Sheet.24729</title>
			<path d="M0 354.94 L1.04 354.94" class="st2"/>
		</g>
		<g id="shape24730-477" transform="translate(622.443,-238.865)">
			<title>Sheet.24730</title>
			<path d="M0 354.31 A1.02047 1.02047 -180 0 0 0.94 354.94 L0 354.31 Z" class="st1"/>
			<path d="M0 354.31 A1.02047 1.02047 -180 0 0 0.94 354.94" class="st2"/>
		</g>
		<g id="shape24731-480" transform="translate(977.381,114.398) rotate(90)">
			<title>Sheet.24731</title>
			<path d="M0 354.94 L1.04 354.94" class="st2"/>
		</g>
		<g id="shape24732-483" transform="translate(973.167,104.091) rotate(90)">
			<title>Sheet.24732</title>
			<path d="M0 354.94 L1.04 354.94" class="st2"/>
		</g>
		<g id="shape24733-486" transform="translate(618.74,-249.803)">
			<title>Sheet.24733</title>
		</g>
		<g id="shape24734-487" transform="translate(1009.18,115.029) rotate(90)">
			<title>Sheet.24734</title>
			<path d="M0 354.94 L1.04 354.94" class="st2"/>
		</g>
		<g id="shape24735-490" transform="translate(1031.54,129.107) rotate(90)">
			<title>Sheet.24735</title>
			<path d="M0 354.94 L2.7 354.94" class="st2"/>
		</g>
		<g id="shape24736-493" transform="translate(828.937,129.107) rotate(90)">
			<title>Sheet.24736</title>
			<path d="M0 354.94 L2.7 354.94" class="st2"/>
		</g>
		<g id="shape24737-496" transform="translate(851.986,115.029) rotate(90)">
			<title>Sheet.24737</title>
			<path d="M0 354.94 L1.04 354.94" class="st2"/>
		</g>
		<g id="shape24738-499" transform="translate(514.135,-321.163)">
			<title>Sheet.24738</title>
			<desc>UDP client/server</desc>
			<rect x="0" y="339.82" width="197.596" height="15.1181" class="st3"/>
			<text x="0" y="349.65" class="st4">UDP client/server</text>		</g>
		<g id="shape25034-502" transform="translate(8.10764,-17.5753)">
			<title>Sheet.25034</title>
			<path d="M0 265.77 L209.33 265.77 L209.33 354.94 L0 354.94 L0 265.77 Z" class="st5"/>
		</g>
		<g id="shape25035-504" transform="translate(1108.88,-25.693)">
			<title>Sheet.25035</title>
			<path d="M0 354.94 L22.68 354.94 L22.68 319.72 L0 319.72 L0 354.94 Z" class="st5"/>
		</g>
		<g id="shape25036-506" transform="translate(1113.19,-45.0639)">
			<title>Sheet.25036</title>
			<path d="M12.44 354.94 A7.04425 7.04425 -180 1 0 1.62 354.94 L12.44 354.94 Z" class="st1"/>
			<path d="M12.44 354.94 A7.04425 7.04425 -180 1 0 1.62 354.94" class="st2"/>
		</g>
		<g id="shape25037-509" transform="translate(1108.19,-62.845)">
			<title>Sheet.25037</title>
			<desc>Light 2</desc>
			<rect x="0" y="349.268" width="24.2894" height="5.66929" class="st3"/>
			<text x="4.45" y="354.65" class="st9">Light 2</text>		</g>
		<g id="shape25038-512" transform="translate(1117,-36.0443)">
			<title>Sheet.25038</title>
			<path d="M0 354.94 L6.44 354.94" class="st2"/>
		</g>
		<g id="shape25039-515" transform="translate(1114.81,-36.0443)">
			<title>Sheet.25039</title>
			<path d="M2.19 354.94 A17.0418 17.0418 -180 0 0 0 345.92 L2.19 354.94 Z" class="st1"/>
			<path d="M2.19 354.94 A17.0418 17.0418 -180 0 0 0 345.92" class="st2"/>
		</g>
		<g id="shape25040-518" transform="translate(1123.44,-36.0443)">
			<title>Sheet.25040</title>
			<path d="M2.19 345.92 A17.0418 17.0418 -180 0 0 -0 354.94 L2.19 345.92 Z" class="st1"/>
			<path d="M2.19 345.92 A17.0418 17.0418 -180 0 0 -0 354.94" class="st2"/>
		</g>
		<g id="shape25041-521" transform="translate(1117,-30.305)">
			<title>Sheet.25041</title>
			<path d="M0 354.94 L6.44 354.94" class="st2"/>
		</g>
		<g id="shape25042-524" transform="translate(1117.6,-29.7424)">
			<title>Sheet.25042</title>
			<path d="M0 354.94 L5.25 354.94" class="st2"/>
		</g>
		<g id="shape25043-527" transform="translate(873.449,582.825) rotate(-136.539)">
			<title>Sheet.25043</title>
			<path d="M0 354.94 L0.82 354.94" class="st2"/>
		</g>
		<g id="shape25044-530" transform="translate(878.702,67.566) rotate(-43.4609)">
			<title>Sheet.25044</title>
			<path d="M0 354.94 L0.82 354.94" class="st2"/>
		</g>
		<g id="shape25045-533" transform="translate(1471.94,318.893) rotate(90)">
			<title>Sheet.25045</title>
			<path d="M0 354.94 L0.93 354.94" class="st2"/>
		</g>
		<g id="shape25046-536" transform="translate(762.065,324.633) rotate(-90)">
			<title>Sheet.25046</title>
			<path d="M0 354.94 L0.69 354.94" class="st2"/>
		</g>
		<g id="shape25047-539" transform="translate(867.498,576.382) rotate(-135.336)">
			<title>Sheet.25047</title>
			<path d="M0 354.94 L0.45 354.94" class="st2"/>
		</g>
		<g id="shape25048-542" transform="translate(867.175,70.973) rotate(-44.6645)">
			<title>Sheet.25048</title>
			<path d="M0 354.94 L0.45 354.94" class="st2"/>
		</g>
		<g id="shape25049-545" transform="translate(1116.78,-31.4197)">
			<title>Sheet.25049</title>
		</g>
		<g id="shape25050-546" transform="translate(873.938,70.9158) rotate(-44.6645)">
			<title>Sheet.25050</title>
			<path d="M0 354.94 L0.45 354.94" class="st2"/>
		</g>
		<g id="shape25051-549" transform="translate(874.262,575.283) rotate(-135.336)">
			<title>Sheet.25051</title>
			<path d="M0 354.94 L0.45 354.94" class="st2"/>
		</g>
		<g id="shape25052-552" transform="translate(1123.67,-31.998)">
			<title>Sheet.25052</title>
		</g>
		<g id="shape25053-553" transform="translate(867.498,575.292) rotate(-135.336)">
			<title>Sheet.25053</title>
			<path d="M0 354.94 L0.45 354.94" class="st2"/>
		</g>
		<g id="shape25054-556" transform="translate(867.175,69.8821) rotate(-44.6645)">
			<title>Sheet.25054</title>
			<path d="M0 354.94 L0.45 354.94" class="st2"/>
		</g>
		<g id="shape25055-559" transform="translate(1116.78,-32.5106)">
			<title>Sheet.25055</title>
		</g>
		<g id="shape25056-560" transform="translate(873.938,69.8249) rotate(-44.6645)">
			<title>Sheet.25056</title>
			<path d="M0 354.94 L0.45 354.94" class="st2"/>
		</g>
		<g id="shape25057-563" transform="translate(874.262,574.192) rotate(-135.336)">
			<title>Sheet.25057</title>
			<path d="M0 354.94 L0.45 354.94" class="st2"/>
		</g>
		<g id="shape25058-566" transform="translate(1123.67,-33.0889)">
			<title>Sheet.25058</title>
		</g>
		<g id="shape25059-567" transform="translate(867.498,574.201) rotate(-135.336)">
			<title>Sheet.25059</title>
			<path d="M0 354.94 L0.45 354.94" class="st2"/>
		</g>
		<g id="shape25060-570" transform="translate(867.175,68.7912) rotate(-44.6645)">
			<title>Sheet.25060</title>
			<path d="M0 354.94 L0.45 354.94" class="st2"/>
		</g>
		<g id="shape25061-573" transform="translate(1116.78,-33.6015)">
			<title>Sheet.25061</title>
		</g>
		<g id="shape25062-574" transform="translate(873.938,68.734) rotate(-44.6645)">
			<title>Sheet.25062</title>
			<path d="M0 354.94 L0.45 354.94" class="st2"/>
		</g>
		<g id="shape25063-577" transform="translate(874.262,573.101) rotate(-135.336)">
			<title>Sheet.25063</title>
			<path d="M0 354.94 L0.45 354.94" class="st2"/>
		</g>
		<g id="shape25064-580" transform="translate(1123.67,-34.1798)">
			<title>Sheet.25064</title>
		</g>
		<g id="shape25065-581" transform="translate(867.498,573.11) rotate(-135.336)">
			<title>Sheet.25065</title>
			<path d="M0 354.94 L0.45 354.94" class="st2"/>
		</g>
		<g id="shape25066-584" transform="translate(867.175,67.7003) rotate(-44.6645)">
			<title>Sheet.25066</title>
			<path d="M0 354.94 L0.45 354.94" class="st2"/>
		</g>
		<g id="shape25067-587" transform="translate(1116.78,-34.6924)">
			<title>Sheet.25067</title>
		</g>
		<g id="shape25068-588" transform="translate(873.938,67.6431) rotate(-44.6645)">
			<title>Sheet.25068</title>
			<path d="M0 354.94 L0.45 354.94" class="st2"/>
		</g>
		<g id="shape25069-591" transform="translate(874.262,572.01) rotate(-135.336)">
			<title>Sheet.25069</title>
			<path d="M0 354.94 L0.45 354.94" class="st2"/>
		</g>
		<g id="shape25070-594" transform="translate(1123.67,-35.2707)">
			<title>Sheet.25070</title>
		</g>
		<g id="shape25071-595" transform="translate(1085.26,-33.6903) rotate(-5.131)">
			<title>Sheet.25071</title>
			<path d="M0 354.94 L6.47 354.94" class="st2"/>
		</g>
		<g id="shape25072-598" transform="translate(1085.26,-32.8498) rotate(-5.131)">
			<title>Sheet.25072</title>
			<path d="M0 354.94 L6.47 354.94" class="st2"/>
		</g>
		<g id="shape25073-601" transform="translate(1085.26,-32.5994) rotate(-5.131)">
			<title>Sheet.25073</title>
			<path d="M0 354.94 L6.47 354.94" class="st2"/>
		</g>
		<g id="shape25074-604" transform="translate(1085.26,-31.7589) rotate(-5.131)">
			<title>Sheet.25074</title>
			<path d="M0 354.94 L6.47 354.94" class="st2"/>
		</g>
		<g id="shape25075-607" transform="translate(1085.26,-31.5085) rotate(-5.131)">
			<title>Sheet.25075</title>
			<path d="M0 354.94 L6.47 354.94" class="st2"/>
		</g>
		<g id="shape25076-610" transform="translate(1085.26,-30.668) rotate(-5.131)">
			<title>Sheet.25076</title>
			<path d="M0 354.94 L6.47 354.94" class="st2"/>
		</g>
		<g id="shape25077-613" transform="translate(1085.26,-30.4176) rotate(-5.131)">
			<title>Sheet.25077</title>
			<path d="M0 354.94 L6.47 354.94" class="st2"/>
		</g>
		<g id="shape25078-616" transform="translate(1085.26,-29.5771) rotate(-5.131)">
			<title>Sheet.25078</title>
			<path d="M0 354.94 L6.47 354.94" class="st2"/>
		</g>
		<g id="shape25079-619" transform="translate(1471.94,320.666) rotate(90)">
			<title>Sheet.25079</title>
			<path d="M0 354.94 L0.25 354.94" class="st2"/>
		</g>
		<g id="shape25080-622" transform="translate(1471.94,321.756) rotate(90)">
			<title>Sheet.25080</title>
			<path d="M0 354.94 L0.25 354.94" class="st2"/>
		</g>
		<g id="shape25081-625" transform="translate(1471.94,322.847) rotate(90)">
			<title>Sheet.25081</title>
			<path d="M0 354.94 L0.25 354.94" class="st2"/>
		</g>
		<g id="shape25082-628" transform="translate(768.506,322.519) rotate(-90)">
			<title>Sheet.25082</title>
			<path d="M0 354.94 L0.25 354.94" class="st2"/>
		</g>
		<g id="shape25083-631" transform="translate(768.506,321.429) rotate(-90)">
			<title>Sheet.25083</title>
			<path d="M0 354.94 L0.25 354.94" class="st2"/>
		</g>
		<g id="shape25084-634" transform="translate(768.506,320.338) rotate(-90)">
			<title>Sheet.25084</title>
			<path d="M0 354.94 L0.25 354.94" class="st2"/>
		</g>
		<g id="shape25085-637" transform="translate(1478.38,318.893) rotate(90)">
			<title>Sheet.25085</title>
			<path d="M0 354.94 L0.35 354.94" class="st2"/>
		</g>
		<g id="shape25086-640" transform="translate(1478.38,323.36) rotate(90)">
			<title>Sheet.25086</title>
			<path d="M0 354.94 L1.27 354.94" class="st2"/>
		</g>
		<g id="shape25087-643" transform="translate(1119.59,-29.4897)">
			<title>Sheet.25087</title>
			<path d="M0 354.94 L1.27 354.94" class="st2"/>
		</g>
		<g id="shape25088-646" transform="translate(875.91,583.52) rotate(-136.643)">
			<title>Sheet.25088</title>
			<path d="M0 354.94 L0.37 354.94" class="st2"/>
		</g>
		<g id="shape25089-649" transform="translate(877.177,67.3763) rotate(-43.357)">
			<title>Sheet.25089</title>
			<path d="M0 354.94 L0.37 354.94" class="st2"/>
		</g>
		<g id="shape25090-652" transform="translate(1076.89,-25.693)">
			<title>Sheet.25090</title>
			<path d="M0 354.94 L22.68 354.94 L22.68 319.72 L0 319.72 L0 354.94 Z" class="st5"/>
		</g>
		<g id="shape25091-654" transform="translate(1081.19,-45.0639)">
			<title>Sheet.25091</title>
			<path d="M12.44 354.94 A7.04425 7.04425 -180 1 0 1.62 354.94 L12.44 354.94 Z" class="st1"/>
			<path d="M12.44 354.94 A7.04425 7.04425 -180 1 0 1.62 354.94" class="st2"/>
		</g>
		<g id="shape25092-657" transform="translate(1076.19,-62.845)">
			<title>Sheet.25092</title>
			<desc>Light 1</desc>
			<rect x="0" y="349.268" width="24.2894" height="5.66929" class="st3"/>
			<text x="4.45" y="354.65" class="st9">Light 1</text>		</g>
		<g id="shape25093-660" transform="translate(1085.01,-36.0443)">
			<title>Sheet.25093</title>
			<path d="M0 354.94 L6.44 354.94" class="st2"/>
		</g>
		<g id="shape25094-663" transform="translate(1082.81,-36.0443)">
			<title>Sheet.25094</title>
			<path d="M2.19 354.94 A17.0418 17.0418 -180 0 0 0 345.92 L2.19 354.94 Z" class="st1"/>
			<path d="M2.19 354.94 A17.0418 17.0418 -180 0 0 0 345.92" class="st2"/>
		</g>
		<g id="shape25095-666" transform="translate(1091.45,-36.0443)">
			<title>Sheet.25095</title>
			<path d="M2.19 345.92 A17.0418 17.0418 -180 0 0 0 354.94 L2.19 345.92 Z" class="st1"/>
			<path d="M2.19 345.92 A17.0418 17.0418 -180 0 0 0 354.94" class="st2"/>
		</g>
		<g id="shape25096-669" transform="translate(1085.01,-30.305)">
			<title>Sheet.25096</title>
			<path d="M0 354.94 L6.44 354.94" class="st2"/>
		</g>
		<g id="shape25097-672" transform="translate(1085.6,-29.7424)">
			<title>Sheet.25097</title>
			<path d="M0 354.94 L5.25 354.94" class="st2"/>
		</g>
		<g id="shape25098-675" transform="translate(841.452,582.825) rotate(-136.539)">
			<title>Sheet.25098</title>
			<path d="M0 354.94 L0.82 354.94" class="st2"/>
		</g>
		<g id="shape25099-678" transform="translate(846.705,67.566) rotate(-43.4609)">
			<title>Sheet.25099</title>
			<path d="M0 354.94 L0.82 354.94" class="st2"/>
		</g>
		<g id="shape25100-681" transform="translate(1439.94,318.893) rotate(90)">
			<title>Sheet.25100</title>
			<path d="M0 354.94 L0.93 354.94" class="st2"/>
		</g>
		<g id="shape25101-684" transform="translate(730.067,324.633) rotate(-90)">
			<title>Sheet.25101</title>
			<path d="M0 354.94 L0.69 354.94" class="st2"/>
		</g>
		<g id="shape25102-687" transform="translate(835.5,576.382) rotate(-135.336)">
			<title>Sheet.25102</title>
			<path d="M0 354.94 L0.45 354.94" class="st2"/>
		</g>
		<g id="shape25103-690" transform="translate(835.177,70.973) rotate(-44.6645)">
			<title>Sheet.25103</title>
			<path d="M0 354.94 L0.45 354.94" class="st2"/>
		</g>
		<g id="shape25104-693" transform="translate(1084.78,-31.4197)">
			<title>Sheet.25104</title>
		</g>
		<g id="shape25105-694" transform="translate(841.941,70.9158) rotate(-44.6645)">
			<title>Sheet.25105</title>
			<path d="M0 354.94 L0.45 354.94" class="st2"/>
		</g>
		<g id="shape25106-697" transform="translate(842.264,575.283) rotate(-135.336)">
			<title>Sheet.25106</title>
			<path d="M0 354.94 L0.45 354.94" class="st2"/>
		</g>
		<g id="shape25107-700" transform="translate(1091.67,-31.998)">
			<title>Sheet.25107</title>
		</g>
		<g id="shape25108-701" transform="translate(835.5,575.292) rotate(-135.336)">
			<title>Sheet.25108</title>
			<path d="M0 354.94 L0.45 354.94" class="st2"/>
		</g>
		<g id="shape25109-704" transform="translate(835.177,69.8821) rotate(-44.6645)">
			<title>Sheet.25109</title>
			<path d="M0 354.94 L0.45 354.94" class="st2"/>
		</g>
		<g id="shape25110-707" transform="translate(1084.78,-32.5106)">
			<title>Sheet.25110</title>
		</g>
		<g id="shape25111-708" transform="translate(841.941,69.8249) rotate(-44.6645)">
			<title>Sheet.25111</title>
			<path d="M0 354.94 L0.45 354.94" class="st2"/>
		</g>
		<g id="shape25112-711" transform="translate(842.264,574.192) rotate(-135.336)">
			<title>Sheet.25112</title>
			<path d="M0 354.94 L0.45 354.94" class="st2"/>
		</g>
		<g id="shape25113-714" transform="translate(1091.67,-33.0889)">
			<title>Sheet.25113</title>
		</g>
		<g id="shape25114-715" transform="translate(835.5,574.201) rotate(-135.336)">
			<title>Sheet.25114</title>
			<path d="M0 354.94 L0.45 354.94" class="st2"/>
		</g>
		<g id="shape25115-718" transform="translate(835.177,68.7912) rotate(-44.6645)">
			<title>Sheet.25115</title>
			<path d="M0 354.94 L0.45 354.94" class="st2"/>
		</g>
		<g id="shape25116-721" transform="translate(1084.78,-33.6015)">
			<title>Sheet.25116</title>
		</g>
		<g id="shape25117-722" transform="translate(841.941,68.734) rotate(-44.6645)">
			<title>Sheet.25117</title>
			<path d="M0 354.94 L0.45 354.94" class="st2"/>
		</g>
		<g id="shape25118-725" transform="translate(842.264,573.101) rotate(-135.336)">
			<title>Sheet.25118</title>
			<path d="M0 354.94 L0.45 354.94" class="st2"/>
		</g>
		<g id="shape25119-728" transform="translate(1091.67,-34.1798)">
			<title>Sheet.25119</title>
		</g>
		<g id="shape25120-729" transform="translate(835.5,573.11) rotate(-135.336)">
			<title>Sheet.25120</title>
			<path d="M0 354.94 L0.45 354.94" class="st2"/>
		</g>
		<g id="shape25121-732" transform="translate(835.177,67.7003) rotate(-44.6645)">
			<title>Sheet.25121</title>
			<path d="M0 354.94 L0.45 354.94" class="st2"/>
		</g>
		<g id="shape25122-735" transform="translate(1084.78,-34.6924)">
			<title>Sheet.25122</title>
		</g>
		<g id="shape25123-736" transform="translate(841.941,67.6431) rotate(-44.6645)">
			<title>Sheet.25123</title>
			<path d="M0 354.94 L0.45 354.94" class="st2"/>
		</g>
		<g id="shape25124-739" transform="translate(842.264,572.01) rotate(-135.336)">
			<title>Sheet.25124</title>
			<path d="M0 354.94 L0.45 354.94" class="st2"/>
		</g>
		<g id="shape25125-742" transform="translate(1091.67,-35.2707)">
			<title>Sheet.25125</title>
		</g>
		<g id="shape25126-743" transform="translate(1053.26,-33.6903) rotate(-5.131)">
			<title>Sheet.25126</title>
			<path d="M0 354.94 L6.47 354.94" class="st2"/>
		</g>
		<g id="shape25127-746" transform="translate(1053.26,-32.8498) rotate(-5.131)">
			<title>Sheet.25127</title>
			<path d="M0 354.94 L6.47 354.94" class="st2"/>
		</g>
		<g id="shape25128-749" transform="translate(1053.26,-32.5994) rotate(-5.131)">
			<title>Sheet.25128</title>
			<path d="M0 354.94 L6.47 354.94" class="st2"/>
		</g>
		<g id="shape25129-752" transform="translate(1053.26,-31.7589) rotate(-5.131)">
			<title>Sheet.25129</title>
			<path d="M0 354.94 L6.47 354.94" class="st2"/>
		</g>
		<g id="shape25130-755" transform="translate(1053.26,-31.5085) rotate(-5.131)">
			<title>Sheet.25130</title>
			<path d="M0 354.94 L6.47 354.94" class="st2"/>
		</g>
		<g id="shape25131-758" transform="translate(1053.26,-30.668) rotate(-5.131)">
			<title>Sheet.25131</title>
			<path d="M0 354.94 L6.47 354.94" class="st2"/>
		</g>
		<g id="shape25132-761" transform="translate(1053.26,-30.4176) rotate(-5.131)">
			<title>Sheet.25132</title>
			<path d="M0 354.94 L6.47 354.94" class="st2"/>
		</g>
		<g id="shape25133-764" transform="translate(1053.26,-29.5771) rotate(-5.131)">
			<title>Sheet.25133</title>
			<path d="M0 354.94 L6.47 354.94" class="st2"/>
		</g>
		<g id="shape25134-767" transform="translate(1439.94,320.666) rotate(90)">
			<title>Sheet.25134</title>
			<path d="M0 354.94 L0.25 354.94" class="st2"/>
		</g>
		<g id="shape25135-770" transform="translate(1439.94,321.756) rotate(90)">
			<title>Sheet.25135</title>
			<path d="M0 354.94 L0.25 354.94" class="st2"/>
		</g>
		<g id="shape25136-773" transform="translate(1439.94,322.847) rotate(90)">
			<title>Sheet.25136</title>
			<path d="M0 354.94 L0.25 354.94" class="st2"/>
		</g>
		<g id="shape25137-776" transform="translate(736.508,322.519) rotate(-90)">
			<title>Sheet.25137</title>
			<path d="M0 354.94 L0.25 354.94" class="st2"/>
		</g>
		<g id="shape25138-779" transform="translate(736.508,321.429) rotate(-90)">
			<title>Sheet.25138</title>
			<path d="M0 354.94 L0.25 354.94" class="st2"/>
		</g>
		<g id="shape25139-782" transform="translate(736.508,320.338) rotate(-90)">
			<title>Sheet.25139</title>
			<path d="M0 354.94 L0.25 354.94" class="st2"/>
		</g>
		<g id="shape25140-785" transform="translate(1446.38,318.893) rotate(90)">
			<title>Sheet.25140</title>
			<path d="M0 354.94 L0.35 354.94" class="st2"/>
		</g>
		<g id="shape25141-788" transform="translate(1446.38,323.36) rotate(90)">
			<title>Sheet.25141</title>
			<path d="M0 354.94 L1.27 354.94" class="st2"/>
		</g>
		<g id="shape25142-791" transform="translate(1087.59,-29.4897)">
			<title>Sheet.25142</title>
			<path d="M0 354.94 L1.27 354.94" class="st2"/>
		</g>
		<g id="shape25143-794" transform="translate(843.912,583.52) rotate(-136.643)">
			<title>Sheet.25143</title>
			<path d="M0 354.94 L0.37 354.94" class="st2"/>
		</g>
		<g id="shape25144-797" transform="translate(845.179,67.3763) rotate(-43.357)">
			<title>Sheet.25144</title>
			<path d="M0 354.94 L0.37 354.94" class="st2"/>
		</g>
		<g id="shape25163-800" transform="translate(185.907,-72.2014)">
			<title>Sheet.25163</title>
			<desc>BLE 6lowpan</desc>
			<rect x="0" y="347.379" width="135.084" height="7.55906" class="st3"/>
			<text x="47.94" y="354.56" class="st10">BLE 6lowpan</text>		</g>
		<g id="shape25164-803" transform="translate(828.114,-72.2014)">
			<title>Sheet.25164</title>
			<desc>BLE 6lowpan</desc>
			<rect x="0" y="347.379" width="135.084" height="7.55906" class="st3"/>
			<text x="47.94" y="354.56" class="st10">BLE 6lowpan</text>		</g>
		<g id="shape25171-806" transform="translate(185.72,-25.693)">
			<title>Sheet.25171</title>
			<path d="M0 354.94 L22.68 354.94 L22.68 319.72 L0 319.72 L0 354.94 Z" class="st5"/>
		</g>
		<g id="shape25172-808" transform="translate(190.027,-45.0639)">
			<title>Sheet.25172</title>
			<path d="M12.44 354.94 A7.04425 7.04425 -180 1 0 1.62 354.94 L12.44 354.94 Z" class="st1"/>
			<path d="M12.44 354.94 A7.04425 7.04425 -180 1 0 1.62 354.94" class="st2"/>
		</g>
		<g id="shape25173-811" transform="translate(185.022,-62.845)">
			<title>Sheet.25173</title>
			<desc>Light 2</desc>
			<rect x="0" y="349.268" width="24.2894" height="5.66929" class="st3"/>
			<text x="4.45" y="354.65" class="st9">Light 2</text>		</g>
		<g id="shape25174-814" transform="translate(193.839,-36.0443)">
			<title>Sheet.25174</title>
			<path d="M0 354.94 L6.44 354.94" class="st2"/>
		</g>
		<g id="shape25175-817" transform="translate(191.648,-36.0443)">
			<title>Sheet.25175</title>
			<path d="M2.19 354.94 A17.0418 17.0418 -180 0 0 -0 345.92 L2.19 354.94 Z" class="st1"/>
			<path d="M2.19 354.94 A17.0418 17.0418 -180 0 0 -0 345.92" class="st2"/>
		</g>
		<g id="shape25176-820" transform="translate(200.279,-36.0443)">
			<title>Sheet.25176</title>
			<path d="M2.19 345.92 A17.0418 17.0418 -180 0 0 -0 354.94 L2.19 345.92 Z" class="st1"/>
			<path d="M2.19 345.92 A17.0418 17.0418 -180 0 0 -0 354.94" class="st2"/>
		</g>
		<g id="shape25177-823" transform="translate(193.839,-30.305)">
			<title>Sheet.25177</title>
			<path d="M0 354.94 L6.44 354.94" class="st2"/>
		</g>
		<g id="shape25178-826" transform="translate(194.432,-29.7424)">
			<title>Sheet.25178</title>
			<path d="M0 354.94 L5.25 354.94" class="st2"/>
		</g>
		<g id="shape25179-829" transform="translate(-49.715,582.825) rotate(-136.539)">
			<title>Sheet.25179</title>
			<path d="M0 354.94 L0.82 354.94" class="st2"/>
		</g>
		<g id="shape25180-832" transform="translate(-44.462,67.566) rotate(-43.4609)">
			<title>Sheet.25180</title>
			<path d="M0 354.94 L0.82 354.94" class="st2"/>
		</g>
		<g id="shape25181-835" transform="translate(548.776,318.893) rotate(90)">
			<title>Sheet.25181</title>
			<path d="M0 354.94 L0.93 354.94" class="st2"/>
		</g>
		<g id="shape25182-838" transform="translate(-161.099,324.633) rotate(-90)">
			<title>Sheet.25182</title>
			<path d="M0 354.94 L0.69 354.94" class="st2"/>
		</g>
		<g id="shape25183-841" transform="translate(-55.6663,576.382) rotate(-135.336)">
			<title>Sheet.25183</title>
			<path d="M0 354.94 L0.45 354.94" class="st2"/>
		</g>
		<g id="shape25184-844" transform="translate(-55.9895,70.973) rotate(-44.6645)">
			<title>Sheet.25184</title>
			<path d="M0 354.94 L0.45 354.94" class="st2"/>
		</g>
		<g id="shape25185-847" transform="translate(193.615,-31.4197)">
			<title>Sheet.25185</title>
		</g>
		<g id="shape25186-848" transform="translate(-49.2259,70.9158) rotate(-44.6645)">
			<title>Sheet.25186</title>
			<path d="M0 354.94 L0.45 354.94" class="st2"/>
		</g>
		<g id="shape25187-851" transform="translate(-48.9027,575.283) rotate(-135.336)">
			<title>Sheet.25187</title>
			<path d="M0 354.94 L0.45 354.94" class="st2"/>
		</g>
		<g id="shape25188-854" transform="translate(200.503,-31.998)">
			<title>Sheet.25188</title>
		</g>
		<g id="shape25189-855" transform="translate(-55.6663,575.292) rotate(-135.336)">
			<title>Sheet.25189</title>
			<path d="M0 354.94 L0.45 354.94" class="st2"/>
		</g>
		<g id="shape25190-858" transform="translate(-55.9895,69.8821) rotate(-44.6645)">
			<title>Sheet.25190</title>
			<path d="M0 354.94 L0.45 354.94" class="st2"/>
		</g>
		<g id="shape25191-861" transform="translate(193.615,-32.5106)">
			<title>Sheet.25191</title>
		</g>
		<g id="shape25192-862" transform="translate(-49.2259,69.8249) rotate(-44.6645)">
			<title>Sheet.25192</title>
			<path d="M0 354.94 L0.45 354.94" class="st2"/>
		</g>
		<g id="shape25193-865" transform="translate(-48.9027,574.192) rotate(-135.336)">
			<title>Sheet.25193</title>
			<path d="M0 354.94 L0.45 354.94" class="st2"/>
		</g>
		<g id="shape25194-868" transform="translate(200.503,-33.0889)">
			<title>Sheet.25194</title>
		</g>
		<g id="shape25195-869" transform="translate(-55.6663,574.201) rotate(-135.336)">
			<title>Sheet.25195</title>
			<path d="M0 354.94 L0.45 354.94" class="st2"/>
		</g>
		<g id="shape25196-872" transform="translate(-55.9895,68.7912) rotate(-44.6645)">
			<title>Sheet.25196</title>
			<path d="M0 354.94 L0.45 354.94" class="st2"/>
		</g>
		<g id="shape25197-875" transform="translate(193.615,-33.6015)">
			<title>Sheet.25197</title>
		</g>
		<g id="shape25198-876" transform="translate(-49.2259,68.734) rotate(-44.6645)">
			<title>Sheet.25198</title>
			<path d="M0 354.94 L0.45 354.94" class="st2"/>
		</g>
		<g id="shape25199-879" transform="translate(-48.9027,573.101) rotate(-135.336)">
			<title>Sheet.25199</title>
			<path d="M0 354.94 L0.45 354.94" class="st2"/>
		</g>
		<g id="shape25200-882" transform="translate(200.503,-34.1798)">
			<title>Sheet.25200</title>
		</g>
		<g id="shape25201-883" transform="translate(-55.6663,573.11) rotate(-135.336)">
			<title>Sheet.25201</title>
			<path d="M0 354.94 L0.45 354.94" class="st2"/>
		</g>
		<g id="shape25202-886" transform="translate(-55.9895,67.7003) rotate(-44.6645)">
			<title>Sheet.25202</title>
			<path d="M0 354.94 L0.45 354.94" class="st2"/>
		</g>
		<g id="shape25203-889" transform="translate(193.615,-34.6924)">
			<title>Sheet.25203</title>
		</g>
		<g id="shape25204-890" transform="translate(-49.2259,67.6431) rotate(-44.6645)">
			<title>Sheet.25204</title>
			<path d="M0 354.94 L0.45 354.94" class="st2"/>
		</g>
		<g id="shape25205-893" transform="translate(-48.9027,572.01) rotate(-135.336)">
			<title>Sheet.25205</title>
			<path d="M0 354.94 L0.45 354.94" class="st2"/>
		</g>
		<g id="shape25206-896" transform="translate(200.503,-35.2707)">
			<title>Sheet.25206</title>
		</g>
		<g id="shape25207-897" transform="translate(162.095,-33.6903) rotate(-5.131)">
			<title>Sheet.25207</title>
			<path d="M0 354.94 L6.47 354.94" class="st2"/>
		</g>
		<g id="shape25208-900" transform="translate(162.095,-32.8498) rotate(-5.131)">
			<title>Sheet.25208</title>
			<path d="M0 354.94 L6.47 354.94" class="st2"/>
		</g>
		<g id="shape25209-903" transform="translate(162.095,-32.5994) rotate(-5.131)">
			<title>Sheet.25209</title>
			<path d="M0 354.94 L6.47 354.94" class="st2"/>
		</g>
		<g id="shape25210-906" transform="translate(162.095,-31.7589) rotate(-5.131)">
			<title>Sheet.25210</title>
			<path d="M0 354.94 L6.47 354.94" class="st2"/>
		</g>
		<g id="shape25211-909" transform="translate(162.095,-31.5085) rotate(-5.131)">
			<title>Sheet.25211</title>
			<path d="M0 354.94 L6.47 354.94" class="st2"/>
		</g>
		<g id="shape25212-912" transform="translate(162.095,-30.668) rotate(-5.131)">
			<title>Sheet.25212</title>
			<path d="M0 354.94 L6.47 354.94" class="st2"/>
		</g>
		<g id="shape25213-915" transform="translate(162.095,-30.4176) rotate(-5.131)">
			<title>Sheet.25213</title>
			<path d="M0 354.94 L6.47 354.94" class="st2"/>
		</g>
		<g id="shape25214-918" transform="translate(162.095,-29.5771) rotate(-5.131)">
			<title>Sheet.25214</title>
			<path d="M0 354.94 L6.47 354.94" class="st2"/>
		</g>
		<g id="shape25215-921" transform="translate(548.776,320.666) rotate(90)">
			<title>Sheet.25215</title>
			<path d="M0 354.94 L0.25 354.94" class="st2"/>
		</g>
		<g id="shape25216-924" transform="translate(548.776,321.756) rotate(90)">
			<title>Sheet.25216</title>
			<path d="M0 354.94 L0.25 354.94" class="st2"/>
		</g>
		<g id="shape25217-927" transform="translate(548.776,322.847) rotate(90)">
			<title>Sheet.25217</title>
			<path d="M0 354.94 L0.25 354.94" class="st2"/>
		</g>
		<g id="shape25218-930" transform="translate(-154.659,322.519) rotate(-90)">
			<title>Sheet.25218</title>
			<path d="M0 354.94 L0.25 354.94" class="st2"/>
		</g>
		<g id="shape25219-933" transform="translate(-154.659,321.429) rotate(-90)">
			<title>Sheet.25219</title>
			<path d="M0 354.94 L0.25 354.94" class="st2"/>
		</g>
		<g id="shape25220-936" transform="translate(-154.659,320.338) rotate(-90)">
			<title>Sheet.25220</title>
			<path d="M0 354.94 L0.25 354.94" class="st2"/>
		</g>
		<g id="shape25221-939" transform="translate(555.217,318.893) rotate(90)">
			<title>Sheet.25221</title>
			<path d="M0 354.94 L0.35 354.94" class="st2"/>
		</g>
		<g id="shape25222-942" transform="translate(555.217,323.36) rotate(90)">
			<title>Sheet.25222</title>
			<path d="M0 354.94 L1.27 354.94" class="st2"/>
		</g>
		<g id="shape25223-945" transform="translate(196.425,-29.4897)">
			<title>Sheet.25223</title>
			<path d="M0 354.94 L1.27 354.94" class="st2"/>
		</g>
		<g id="shape25224-948" transform="translate(-47.2546,583.52) rotate(-136.643)">
			<title>Sheet.25224</title>
			<path d="M0 354.94 L0.37 354.94" class="st2"/>
		</g>
		<g id="shape25225-951" transform="translate(-45.9873,67.3763) rotate(-43.357)">
			<title>Sheet.25225</title>
			<path d="M0 354.94 L0.37 354.94" class="st2"/>
		</g>
		<g id="shape25226-954" transform="translate(153.722,-25.693)">
			<title>Sheet.25226</title>
			<path d="M0 354.94 L22.68 354.94 L22.68 319.72 L0 319.72 L0 354.94 Z" class="st5"/>
		</g>
		<g id="shape25227-956" transform="translate(158.03,-45.0639)">
			<title>Sheet.25227</title>
			<path d="M12.44 354.94 A7.04425 7.04425 -180 1 0 1.62 354.94 L12.44 354.94 Z" class="st1"/>
			<path d="M12.44 354.94 A7.04425 7.04425 -180 1 0 1.62 354.94" class="st2"/>
		</g>
		<g id="shape25228-959" transform="translate(153.024,-62.845)">
			<title>Sheet.25228</title>
			<desc>Light 1</desc>
			<rect x="0" y="349.268" width="24.2894" height="5.66929" class="st3"/>
			<text x="4.45" y="354.65" class="st9">Light 1</text>		</g>
		<g id="shape25229-962" transform="translate(161.841,-36.0443)">
			<title>Sheet.25229</title>
			<path d="M0 354.94 L6.44 354.94" class="st2"/>
		</g>
		<g id="shape25230-965" transform="translate(159.651,-36.0443)">
			<title>Sheet.25230</title>
			<path d="M2.19 354.94 A17.0418 17.0418 -180 0 0 -0 345.92 L2.19 354.94 Z" class="st1"/>
			<path d="M2.19 354.94 A17.0418 17.0418 -180 0 0 -0 345.92" class="st2"/>
		</g>
		<g id="shape25231-968" transform="translate(168.281,-36.0443)">
			<title>Sheet.25231</title>
			<path d="M2.19 345.92 A17.0418 17.0418 -180 0 0 -0 354.94 L2.19 345.92 Z" class="st1"/>
			<path d="M2.19 345.92 A17.0418 17.0418 -180 0 0 -0 354.94" class="st2"/>
		</g>
		<g id="shape25232-971" transform="translate(161.841,-30.305)">
			<title>Sheet.25232</title>
			<path d="M0 354.94 L6.44 354.94" class="st2"/>
		</g>
		<g id="shape25233-974" transform="translate(162.435,-29.7424)">
			<title>Sheet.25233</title>
			<path d="M0 354.94 L5.25 354.94" class="st2"/>
		</g>
		<g id="shape25234-977" transform="translate(-81.7127,582.825) rotate(-136.539)">
			<title>Sheet.25234</title>
			<path d="M0 354.94 L0.82 354.94" class="st2"/>
		</g>
		<g id="shape25235-980" transform="translate(-76.4598,67.566) rotate(-43.4609)">
			<title>Sheet.25235</title>
			<path d="M0 354.94 L0.82 354.94" class="st2"/>
		</g>
		<g id="shape25236-983" transform="translate(516.779,318.893) rotate(90)">
			<title>Sheet.25236</title>
			<path d="M0 354.94 L0.93 354.94" class="st2"/>
		</g>
		<g id="shape25237-986" transform="translate(-193.097,324.633) rotate(-90)">
			<title>Sheet.25237</title>
			<path d="M0 354.94 L0.69 354.94" class="st2"/>
		</g>
		<g id="shape25238-989" transform="translate(-87.664,576.382) rotate(-135.336)">
			<title>Sheet.25238</title>
			<path d="M0 354.94 L0.45 354.94" class="st2"/>
		</g>
		<g id="shape25239-992" transform="translate(-87.9872,70.973) rotate(-44.6645)">
			<title>Sheet.25239</title>
			<path d="M0 354.94 L0.45 354.94" class="st2"/>
		</g>
		<g id="shape25240-995" transform="translate(161.617,-31.4197)">
			<title>Sheet.25240</title>
		</g>
		<g id="shape25241-996" transform="translate(-81.2236,70.9158) rotate(-44.6645)">
			<title>Sheet.25241</title>
			<path d="M0 354.94 L0.45 354.94" class="st2"/>
		</g>
		<g id="shape25242-999" transform="translate(-80.9004,575.283) rotate(-135.336)">
			<title>Sheet.25242</title>
			<path d="M0 354.94 L0.45 354.94" class="st2"/>
		</g>
		<g id="shape25243-1002" transform="translate(168.505,-31.998)">
			<title>Sheet.25243</title>
		</g>
		<g id="shape25244-1003" transform="translate(-87.664,575.292) rotate(-135.336)">
			<title>Sheet.25244</title>
			<path d="M0 354.94 L0.45 354.94" class="st2"/>
		</g>
		<g id="shape25245-1006" transform="translate(-87.9872,69.8821) rotate(-44.6645)">
			<title>Sheet.25245</title>
			<path d="M0 354.94 L0.45 354.94" class="st2"/>
		</g>
		<g id="shape25246-1009" transform="translate(161.617,-32.5106)">
			<title>Sheet.25246</title>
		</g>
		<g id="shape25247-1010" transform="translate(-81.2236,69.8249) rotate(-44.6645)">
			<title>Sheet.25247</title>
			<path d="M0 354.94 L0.45 354.94" class="st2"/>
		</g>
		<g id="shape25248-1013" transform="translate(-80.9004,574.192) rotate(-135.336)">
			<title>Sheet.25248</title>
			<path d="M0 354.94 L0.45 354.94" class="st2"/>
		</g>
		<g id="shape25249-1016" transform="translate(168.505,-33.0889)">
			<title>Sheet.25249</title>
		</g>
		<g id="shape25250-1017" transform="translate(-87.664,574.201) rotate(-135.336)">
			<title>Sheet.25250</title>
			<path d="M0 354.94 L0.45 354.94" class="st2"/>
		</g>
		<g id="shape25251-1020" transform="translate(-87.9872,68.7912) rotate(-44.6645)">
			<title>Sheet.25251</title>
			<path d="M0 354.94 L0.45 354.94" class="st2"/>
		</g>
		<g id="shape25252-1023" transform="translate(161.617,-33.6015)">
			<title>Sheet.25252</title>
		</g>
		<g id="shape25253-1024" transform="translate(-81.2236,68.734) rotate(-44.6645)">
			<title>Sheet.25253</title>
			<path d="M0 354.94 L0.45 354.94" class="st2"/>
		</g>
		<g id="shape25254-1027" transform="translate(-80.9004,573.101) rotate(-135.336)">
			<title>Sheet.25254</title>
			<path d="M0 354.94 L0.45 354.94" class="st2"/>
		</g>
		<g id="shape25255-1030" transform="translate(168.505,-34.1798)">
			<title>Sheet.25255</title>
		</g>
		<g id="shape25256-1031" transform="translate(-87.664,573.11) rotate(-135.336)">
			<title>Sheet.25256</title>
			<path d="M0 354.94 L0.45 354.94" class="st2"/>
		</g>
		<g id="shape25257-1034" transform="translate(-87.9872,67.7003) rotate(-44.6645)">
			<title>Sheet.25257</title>
			<path d="M0 354.94 L0.45 354.94" class="st2"/>
		</g>
		<g id="shape25258-1037" transform="translate(161.617,-34.6924)">
			<title>Sheet.25258</title>
		</g>
		<g id="shape25259-1038" transform="translate(-81.2236,67.6431) rotate(-44.6645)">
			<title>Sheet.25259</title>
			<path d="M0 354.94 L0.45 354.94" class="st2"/>
		</g>
		<g id="shape25260-1041" transform="translate(-80.9004,572.01) rotate(-135.336)">
			<title>Sheet.25260</title>
			<path d="M0 354.94 L0.45 354.94" class="st2"/>
		</g>
		<g id="shape25261-1044" transform="translate(168.505,-35.2707)">
			<title>Sheet.25261</title>
		</g>
		<g id="shape25262-1045" transform="translate(130.098,-33.6903) rotate(-5.131)">
			<title>Sheet.25262</title>
			<path d="M0 354.94 L6.47 354.94" class="st2"/>
		</g>
		<g id="shape25263-1048" transform="translate(130.098,-32.8498) rotate(-5.131)">
			<title>Sheet.25263</title>
			<path d="M0 354.94 L6.47 354.94" class="st2"/>
		</g>
		<g id="shape25264-1051" transform="translate(130.098,-32.5994) rotate(-5.131)">
			<title>Sheet.25264</title>
			<path d="M0 354.94 L6.47 354.94" class="st2"/>
		</g>
		<g id="shape25265-1054" transform="translate(130.098,-31.7589) rotate(-5.131)">
			<title>Sheet.25265</title>
			<path d="M0 354.94 L6.47 354.94" class="st2"/>
		</g>
		<g id="shape25266-1057" transform="translate(130.098,-31.5085) rotate(-5.131)">
			<title>Sheet.25266</title>
			<path d="M0 354.94 L6.47 354.94" class="st2"/>
		</g>
		<g id="shape25267-1060" transform="translate(130.098,-30.668) rotate(-5.131)">
			<title>Sheet.25267</title>
			<path d="M0 354.94 L6.47 354.94" class="st2"/>
		</g>
		<g id="shape25268-1063" transform="translate(130.098,-30.4176) rotate(-5.131)">
			<title>Sheet.25268</title>
			<path d="M0 354.94 L6.47 354.94" class="st2"/>
		</g>
		<g id="shape25269-1066" transform="translate(130.098,-29.5771) rotate(-5.131)">
			<title>Sheet.25269</title>
			<path d="M0 354.94 L6.47 354.94" class="st2"/>
		</g>
		<g id="shape25270-1069" transform="translate(516.779,320.666) rotate(90)">
			<title>Sheet.25270</title>
			<path d="M0 354.94 L0.25 354.94" class="st2"/>
		</g>
		<g id="shape25271-1072" transform="translate(516.779,321.756) rotate(90)">
			<title>Sheet.25271</title>
			<path d="M0 354.94 L0.25 354.94" class="st2"/>
		</g>
		<g id="shape25272-1075" transform="translate(516.779,322.847) rotate(90)">
			<title>Sheet.25272</title>
			<path d="M0 354.94 L0.25 354.94" class="st2"/>
		</g>
		<g id="shape25273-1078" transform="translate(-186.656,322.519) rotate(-90)">
			<title>Sheet.25273</title>
			<path d="M0 354.94 L0.25 354.94" class="st2"/>
		</g>
		<g id="shape25274-1081" transform="translate(-186.656,321.429) rotate(-90)">
			<title>Sheet.25274</title>
			<path d="M0 354.94 L0.25 354.94" class="st2"/>
		</g>
		<g id="shape25275-1084" transform="translate(-186.656,320.338) rotate(-90)">
			<title>Sheet.25275</title>
			<path d="M0 354.94 L0.25 354.94" class="st2"/>
		</g>
		<g id="shape25276-1087" transform="translate(523.219,318.893) rotate(90)">
			<title>Sheet.25276</title>
			<path d="M0 354.94 L0.35 354.94" class="st2"/>
		</g>
		<g id="shape25277-1090" transform="translate(523.219,323.36) rotate(90)">
			<title>Sheet.25277</title>
			<path d="M0 354.94 L1.27 354.94" class="st2"/>
		</g>
		<g id="shape25278-1093" transform="translate(164.427,-29.4897)">
			<title>Sheet.25278</title>
			<path d="M0 354.94 L1.27 354.94" class="st2"/>
		</g>
		<g id="shape25279-1096" transform="translate(-79.2523,583.52) rotate(-136.643)">
			<title>Sheet.25279</title>
			<path d="M0 354.94 L0.37 354.94" class="st2"/>
		</g>
		<g id="shape25280-1099" transform="translate(-77.985,67.3763) rotate(-43.357)">
			<title>Sheet.25280</title>
			<path d="M0 354.94 L0.37 354.94" class="st2"/>
		</g>
	</g>
</svg>
