<?xml version="1.0" encoding="UTF-8" standalone="no"?>
<!DOCTYPE svg PUBLIC "-//W3C//DTD SVG 1.1//EN" "http://www.w3.org/Graphics/SVG/1.1/DTD/svg11.dtd">
<!-- Generated by Microsoft Visio, SVG Export nRF_UDP_Client.svg Page-1 -->
<svg xmlns="http://www.w3.org/2000/svg" xmlns:xlink="http://www.w3.org/1999/xlink" xmlns:ev="http://www.w3.org/2001/xml-events"
		width="8in" height="2.5in" viewBox="0 0 1148.98 354.938" xml:space="preserve" color-interpolation-filters="sRGB"
		class="st18">
	<style type="text/css">
	<![CDATA[
		.st1 {fill:none}
		.st2 {stroke:#000000;stroke-linecap:round;stroke-linejoin:round;stroke-width:0.75}
		.st3 {stroke:#000000;stroke-linecap:butt;stroke-width:0.75}
		.st4 {fill:none;stroke:#dfdfdf;stroke-linecap:butt;stroke-width:0.75}
		.st5 {fill:none;stroke:none;stroke-linecap:round;stroke-linejoin:round;stroke-width:0.75}
		.st6 {fill:#000000;font-family:Calibri;font-size:1.88976em}
		.st7 {fill:#000000;font-family:Calibri;font-size:0.944893em}
		.st8 {font-size:1em}
		.st9 {stroke:#dfdfdf;stroke-linecap:round;stroke-linejoin:round;stroke-width:0.75}
		.st10 {fill:#dfdfdf;font-family:Calibri;font-size:0.944893em}
		.st11 {fill:#000000;font-family:Calibri;font-size:1.25983em}
		.st12 {fill:#dfdfdf;font-family:Calibri;font-size:1.25983em}
		.st13 {fill:#000000;font-family:Calibri;font-size:0.629929em}
		.st14 {fill:#dfdfdf;font-family:Calibri;font-size:0.629929em}
		.st15 {fill:#dfdfdf;font-family:Calibri;font-size:0.472435em}
		.st16 {fill:none;stroke:#000000;stroke-linecap:butt;stroke-width:0.75}
		.st17 {fill:#000000;font-family:Calibri;font-size:0.472435em}
		.st18 {fill:none;fill-rule:evenodd;font-size:12px;overflow:visible;stroke-linecap:square;stroke-miterlimit:3}
	]]>
	</style>

	<g>
		<title>Page-1</title>
		<g id="shape24385-1" transform="translate(478.741,-80.3194)">
			<title>Sheet.24385</title>
			<path d="M0.23 354.94 C0.12 353.2 0.01 351.47 0 349.74 L0.23 354.94 Z" class="st1"/>
			<path d="M0.23 354.94 C0.12 353.2 0.01 351.47 0 349.74" class="st2"/>
		</g>
		<g id="shape24386-4" transform="translate(478.818,-88.3562)">
			<title>Sheet.24386</title>
			<path d="M-0 354.94 C0.04 354.4 0.09 353.87 0.15 353.34 C0.79 348.29 2.92 343.26 6.21 339.44 C11.46 333.34 19.67 330.32
						 27.96 328.91 C35.67 327.6 43.44 327.68 50.39 330.25 C51.97 330.83 53.5 331.55 55.01 332.33 L0 354.94 Z"
					class="st1"/>
			<path d="M-0 354.94 C0.04 354.4 0.09 353.87 0.15 353.34 C0.79 348.29 2.92 343.26 6.21 339.44 C11.46 333.34 19.67 330.32
						 27.96 328.91 C35.67 327.6 43.44 327.68 50.39 330.25 C51.97 330.83 53.5 331.55 55.01 332.33" class="st2"/>
		</g>
		<g id="shape24387-7" transform="translate(536.318,-107.44)">
			<title>Sheet.24387</title>
			<path d="M0 352.78 C1.22 353.48 2.44 354.21 3.65 354.94 L0 352.78 Z" class="st1"/>
			<path d="M0 352.78 C1.22 353.48 2.44 354.21 3.65 354.94" class="st2"/>
		</g>
		<g id="shape24388-10" transform="translate(532.492,-111.635)">
			<title>Sheet.24388</title>
			<path d="M0 354.94 C0.98 353.83 1.99 352.76 3.04 351.76 L0 354.94 Z" class="st1"/>
			<path d="M0 354.94 C0.98 353.83 1.99 352.76 3.04 351.76" class="st2"/>
		</g>
		<g id="shape24389-13" transform="translate(539.563,-117.081)">
			<title>Sheet.24389</title>
			<path d="M0 353.94 C0.06 353.9 0.12 353.86 0.18 353.82 C5.97 350.07 13.45 348.97 20.81 349.11 C26.42 349.22 31.96 350.04
						 36.51 352.7 C37.63 353.35 38.68 354.11 39.7 354.94 L0 353.94 Z" class="st1"/>
			<path d="M0 353.94 C0.06 353.9 0.12 353.86 0.18 353.82 C5.97 350.07 13.45 348.97 20.81 349.11 C26.42 349.22 31.96 350.04
						 36.51 352.7 C37.63 353.35 38.68 354.11 39.7 354.94" class="st2"/>
		</g>
		<g id="shape24390-16" transform="translate(576.477,-113.351)">
			<title>Sheet.24390</title>
			<path d="M0 354.94 C2.53 351.32 5.23 347.9 8.79 345.61 C15.63 341.2 25.67 340.9 33.46 344.04 C36.91 345.43 39.93 347.5
						 42.82 349.74 L0 354.94 Z" class="st1"/>
			<path d="M0 354.94 C2.53 351.32 5.23 347.9 8.79 345.61 C15.63 341.2 25.67 340.9 33.46 344.04 C36.91 345.43 39.93 347.5
						 42.82 349.74" class="st2"/>
		</g>
		<g id="shape24391-19" transform="translate(614.299,-107.507)">
			<title>Sheet.24391</title>
			<path d="M0 347.53 C4.18 344.37 8.42 341.34 13.17 339.27 C18.62 336.9 24.74 335.81 30.8 336.64 C35.59 337.3 40.33 339.16
						 43.7 342.25 C47.23 345.49 49.25 350.08 51 354.91 C51 354.92 51 354.92 51 354.93 C51 354.93 51 354.93 51
						 354.94 L0 347.53 Z" class="st1"/>
			<path d="M0 347.53 C4.18 344.37 8.42 341.34 13.17 339.27 C18.62 336.9 24.74 335.81 30.8 336.64 C35.59 337.3 40.33 339.16
						 43.7 342.25 C47.23 345.49 49.25 350.08 51 354.91 C51 354.92 51 354.92 51 354.93 C51 354.93 51 354.93 51
						 354.94" class="st2"/>
		</g>
		<g id="shape24392-22" transform="translate(663.843,-73.9621)">
			<title>Sheet.24392</title>
			<path d="M0 321.51 C2.67 321.28 3.89 321.26 5.12 321.33 C8.51 321.54 11.99 322.51 14.68 324.49 C17.77 326.75 19.83 330.33
						 21 334.13 C22.13 337.8 22.43 341.67 21.35 345.27 C20.5 348.07 18.82 350.71 16.61 352.54 C15.4 353.55 14.02
						 354.31 12.56 354.94 L0 321.51 Z" class="st1"/>
			<path d="M0 321.51 C2.67 321.28 3.89 321.26 5.12 321.33 C8.51 321.54 11.99 322.51 14.68 324.49 C17.77 326.75 19.83 330.33
						 21 334.13 C22.13 337.8 22.43 341.67 21.35 345.27 C20.5 348.07 18.82 350.71 16.61 352.54 C15.4 353.55 14.02
						 354.31 12.56 354.94" class="st2"/>
		</g>
		<g id="shape24393-25" transform="translate(661.234,-39.8496)">
			<title>Sheet.24393</title>
			<path d="M22.59 314.34 C25.24 317.33 27.66 320.44 28.99 324.11 C30.24 327.54 30.53 331.46 29.7 335.07 C28.92 338.39 27.19
						 341.45 24.96 344.01 C22.09 347.3 18.41 349.75 14.43 351.64 C10.78 353.37 6.87 354.62 2.94 354.88 C1.96 354.95
						 0.98 354.95 -0 354.91 L22.59 314.34 Z" class="st1"/>
			<path d="M22.59 314.34 C25.24 317.33 27.66 320.44 28.99 324.11 C30.24 327.54 30.53 331.46 29.7 335.07 C28.92 338.39 27.19
						 341.45 24.96 344.01 C22.09 347.3 18.41 349.75 14.43 351.64 C10.78 353.37 6.87 354.62 2.94 354.88 C1.96 354.95
						 0.98 354.95 -0 354.91" class="st2"/>
		</g>
		<g id="shape24394-28" transform="translate(612.775,-14.273)">
			<title>Sheet.24394</title>
			<path d="M30.98 310.41 C35.04 312.36 39.1 314.31 42.2 317.36 C44.45 319.57 46.21 322.36 47.36 325.43 C48.82 329.32 49.32
						 333.67 48.26 337.54 C46.7 343.21 41.78 347.87 36.37 350.77 C29.69 354.33 22.24 355.21 14.83 355.03 C11.25
						 354.94 7.67 354.6 4.29 353.68 C2.83 353.28 1.4 352.77 0 352.17 L30.98 310.41 Z" class="st1"/>
			<path d="M30.98 310.41 C35.04 312.36 39.1 314.31 42.2 317.36 C44.45 319.57 46.21 322.36 47.36 325.43 C48.82 329.32 49.32
						 333.67 48.26 337.54 C46.7 343.21 41.78 347.87 36.37 350.77 C29.69 354.33 22.24 355.21 14.83 355.03 C11.25
						 354.94 7.67 354.6 4.29 353.68 C2.83 353.28 1.4 352.77 0 352.17" class="st2"/>
		</g>
		<g id="shape24395-31" transform="translate(543.443,5.68434E-014)">
			<title>Sheet.24395</title>
			<path d="M71.96 330.7 C70.53 335.49 68.78 340.04 65.77 343.67 C60.74 349.72 52.22 353.18 44.01 354.43 C37.03 355.49 30.28
						 354.96 23.38 353.53 C17.16 352.25 10.82 350.24 6.33 346.13 C3.84 343.86 1.92 340.95 0 338.03 L71.96 330.7
						 Z" class="st1"/>
			<path d="M71.96 330.7 C70.53 335.49 68.78 340.04 65.77 343.67 C60.74 349.72 52.22 353.18 44.01 354.43 C37.03 355.49 30.28
						 354.96 23.38 353.53 C17.16 352.25 10.82 350.24 6.33 346.13 C3.84 343.86 1.92 340.95 0 338.03" class="st2"/>
		</g>
		<g id="shape24396-34" transform="translate(490.928,-5.58812)">
			<title>Sheet.24396</title>
			<path d="M57.25 350.1 C57.22 350.11 57.2 350.12 57.18 350.13 C57.18 350.13 57.17 350.13 57.17 350.13 C52.59 351.84 47.96
						 353.33 43.14 354.19 C34.54 355.71 25.37 355.19 17.12 351.95 C11.38 349.68 6.08 346.1 2.32 341.41 C1.47 340.36
						 0.71 339.25 0 338.11 L57.25 350.1 Z" class="st1"/>
			<path d="M57.25 350.1 C57.22 350.11 57.2 350.12 57.18 350.13 C57.18 350.13 57.17 350.13 57.17 350.13 C52.59 351.84 47.96
						 353.33 43.14 354.19 C34.54 355.71 25.37 355.19 17.12 351.95 C11.38 349.68 6.08 346.1 2.32 341.41 C1.47 340.36
						 0.71 339.25 0 338.11" class="st2"/>
		</g>
		<g id="shape24397-37" transform="translate(463.293,-22.3953)">
			<title>Sheet.24397</title>
			<path d="M32.28 354.63 C29.12 354.91 25.9 355.04 22.55 354.85 C15.36 354.44 7.54 352.54 3.48 347.23 C1.54 344.7 0.46
						 341.39 0.12 338.04 C-0.17 335.25 0.05 332.44 1.01 329.97 C1.79 327.97 3.04 326.2 4.48 324.52 L32.28 354.63
						 Z" class="st1"/>
			<path d="M32.28 354.63 C29.12 354.91 25.9 355.04 22.55 354.85 C15.36 354.44 7.54 352.54 3.48 347.23 C1.54 344.7 0.46
						 341.39 0.12 338.04 C-0.17 335.25 0.05 332.44 1.01 329.97 C1.79 327.97 3.04 326.2 4.48 324.52" class="st2"/>
		</g>
		<g id="shape24398-40" transform="translate(456.743,-48.8131)">
			<title>Sheet.24398</title>
			<path d="M24.56 354.94 C21.4 354.34 18.26 353.6 15.19 352.57 C11.36 351.29 7.63 349.54 4.65 346.74 C2.56 344.79 0.84
						 342.34 0.24 339.58 C-0.44 336.42 0.36 332.86 2.09 330.11 C5.04 325.41 10.72 323.1 16.12 321.43 C18.12 320.81
						 20.08 320.28 22.03 319.78 L24.56 354.94 Z" class="st1"/>
			<path d="M24.56 354.94 C21.4 354.34 18.26 353.6 15.19 352.57 C11.36 351.29 7.63 349.54 4.65 346.74 C2.56 344.79 0.84
						 342.34 0.24 339.58 C-0.44 336.42 0.36 332.86 2.09 330.11 C5.04 325.41 10.72 323.1 16.12 321.43 C18.12 320.81
						 20.08 320.28 22.03 319.78" class="st2"/>
		</g>
		<g id="shape24399-43" transform="translate(0,-9.62588)">
			<title>Sheet.24399</title>
			<path d="M225.81 279.04 L225.81 354.94 L0 354.94 L0 248.63 L225.81 248.63 L225.81 276.21 L225.81 276.21 L225.81 279.04
						 Z" class="st1"/>
			<path d="M225.81 279.04 L225.81 354.94 L0 354.94 L0 248.63 L225.81 248.63 L225.81 276.21 L225.81 276.21" class="st3"/>
		</g>
		<g id="shape24400-46" transform="translate(931.272,-17.5753)">
			<title>Sheet.24400</title>
			<path d="M0 265.77 L209.33 265.77 L209.33 354.94 L0 354.94 L0 265.77 Z" class="st4"/>
		</g>
		<g id="shape24401-48" transform="translate(923.164,-9.62588)">
			<title>Sheet.24401</title>
			<path d="M0 248.63 L225.81 248.63 L225.81 354.94 L0 354.94 L0 248.63 Z" class="st4"/>
		</g>
		<g id="shape24402-50" transform="translate(473.795,-54.5177)">
			<title>Sheet.24402</title>
			<desc>Internet</desc>
			<rect x="0" y="332.261" width="197.596" height="22.6772" class="st5"/>
			<text x="61.19" y="350.4" class="st6">Internet</text>		</g>
		<g id="shape24403-53" transform="translate(565.986,-199.88)">
			<title>Sheet.24403</title>
			<path d="M0 354.94 L4.25 354.94" class="st2"/>
		</g>
		<g id="shape24404-56" transform="translate(578.742,-199.88)">
			<title>Sheet.24404</title>
			<path d="M0 354.94 L4.25 354.94" class="st2"/>
		</g>
		<g id="shape24405-59" transform="translate(248.52,-3.67514) rotate(-63.4349)">
			<title>Sheet.24405</title>
			<path d="M0 354.94 L19.02 354.94" class="st2"/>
		</g>
		<g id="shape24406-62" transform="translate(891.956,-20.683) rotate(63.4349)">
			<title>Sheet.24406</title>
			<path d="M0 354.94 L19.02 354.94" class="st2"/>
		</g>
		<g id="shape24407-65" transform="translate(565.986,-139.843)">
			<title>Sheet.24407</title>
			<path d="M0 354.94 L4.25 354.94" class="st2"/>
		</g>
		<g id="shape24408-68" transform="translate(578.742,-139.843)">
			<title>Sheet.24408</title>
			<path d="M0 354.94 L4.25 354.94" class="st2"/>
		</g>
		<g id="shape24409-71" transform="translate(883.452,56.362) rotate(63.4349)">
			<title>Sheet.24409</title>
			<path d="M0 354.94 L19.02 354.94" class="st2"/>
		</g>
		<g id="shape24410-74" transform="translate(257.024,73.3699) rotate(-63.4349)">
			<title>Sheet.24410</title>
			<path d="M0 354.94 L19.02 354.94" class="st2"/>
		</g>
		<g id="shape24411-77" transform="translate(215.3,215.095) rotate(-90)">
			<title>Sheet.24411</title>
			<path d="M0 354.94 L60.04 354.94" class="st2"/>
		</g>
		<g id="shape24412-80" transform="translate(933.679,155.058) rotate(90)">
			<title>Sheet.24412</title>
			<path d="M0 354.94 L60.04 354.94" class="st2"/>
		</g>
		<g id="shape24413-83" transform="translate(280.957,-9.62588)">
			<title>Sheet.24413</title>
			<path d="M69.26 279.04 L69.26 354.94 L0 354.94 L0 279.04 L0 279.04 L69.26 279.04 Z" class="st1"/>
			<path d="M69.26 279.04 L69.26 354.94 L0 354.94 L0 279.04 L0 279.04" class="st3"/>
		</g>
		<g id="shape24414-86" transform="translate(280.957,-88.3562)">
			<title>Sheet.24414</title>
			<path d="M0 354.94 L0 327.36 L69.26 327.36 L69.26 354.94 L69.26 354.94 L0 354.94 Z" class="st1"/>
			<path d="M0 354.94 L0 327.36 L69.26 327.36 L69.26 354.94 L69.26 354.94" class="st3"/>
		</g>
		<g id="shape24415-89" transform="translate(216.367,-59.6827)">
			<title>Sheet.24415</title>
			<desc>BLE enabled router</desc>
			<rect x="0" y="343.599" width="197.596" height="11.3386" class="st5"/>
			<text x="90.56" y="339.06" class="st7">BLE <tspan x="80.2" dy="1.2em" class="st8">enabled </tspan><tspan x="84.16"
						dy="1.2em" class="st8">router</tspan></text>		</g>
		<g id="shape24416-94" transform="translate(597.761,283.653) rotate(90)">
			<title>Sheet.24416</title>
			<path d="M0 354.94 L4.25 354.94" class="st2"/>
		</g>
		<g id="shape24417-97" transform="translate(597.761,296.409) rotate(90)">
			<title>Sheet.24417</title>
			<path d="M0 354.94 L4.25 354.94" class="st2"/>
		</g>
		<g id="shape24418-100" transform="translate(401.556,601.119) rotate(153.435)">
			<title>Sheet.24418</title>
			<path d="M0 354.94 L19.02 354.94" class="st2"/>
		</g>
		<g id="shape24419-103" transform="translate(384.548,-25.3089) rotate(26.5651)">
			<title>Sheet.24419</title>
			<path d="M0 354.94 L19.02 354.94" class="st2"/>
		</g>
		<g id="shape24420-106" transform="translate(242.823,-67.0326)">
			<title>Sheet.24420</title>
			<path d="M0 354.94 L21.13 354.94" class="st2"/>
		</g>
		<g id="shape24421-109" transform="translate(263.949,651.347) rotate(180)">
			<title>Sheet.24421</title>
			<path d="M0 354.94 L21.13 354.94" class="st2"/>
		</g>
		<g id="shape24422-112" transform="translate(618.887,283.653) rotate(90)">
			<title>Sheet.24422</title>
			<path d="M0 354.94 L4.25 354.94" class="st2"/>
		</g>
		<g id="shape24423-115" transform="translate(618.887,296.409) rotate(90)">
			<title>Sheet.24423</title>
			<path d="M0 354.94 L4.25 354.94" class="st2"/>
		</g>
		<g id="shape24424-118" transform="translate(422.682,-33.8128) rotate(26.5651)">
			<title>Sheet.24424</title>
			<path d="M0 354.94 L19.02 354.94" class="st2"/>
		</g>
		<g id="shape24425-121" transform="translate(439.69,609.623) rotate(153.435)">
			<title>Sheet.24425</title>
			<path d="M0 354.94 L19.02 354.94" class="st2"/>
		</g>
		<g id="shape24426-124" transform="translate(794.335,283.653) rotate(90)">
			<title>Sheet.24426</title>
			<path d="M0 354.94 L4.25 354.94" class="st2"/>
		</g>
		<g id="shape24427-127" transform="translate(794.335,296.409) rotate(90)">
			<title>Sheet.24427</title>
			<path d="M0 354.94 L4.25 354.94" class="st2"/>
		</g>
		<g id="shape24428-130" transform="translate(598.131,-33.8128) rotate(26.5651)">
			<title>Sheet.24428</title>
			<path d="M0 354.94 L19.02 354.94" class="st2"/>
		</g>
		<g id="shape24429-133" transform="translate(615.139,609.623) rotate(153.435)">
			<title>Sheet.24429</title>
			<path d="M0 354.94 L19.02 354.94" class="st2"/>
		</g>
		<g id="shape24430-136" transform="translate(722.164,283.653) rotate(90)">
			<title>Sheet.24430</title>
			<path d="M0 354.94 L4.25 354.94" class="st2"/>
		</g>
		<g id="shape24431-139" transform="translate(722.164,296.409) rotate(90)">
			<title>Sheet.24431</title>
			<path d="M0 354.94 L4.25 354.94" class="st2"/>
		</g>
		<g id="shape24432-142" transform="translate(525.959,601.119) rotate(153.435)">
			<title>Sheet.24432</title>
			<path d="M0 354.94 L19.02 354.94" class="st2"/>
		</g>
		<g id="shape24433-145" transform="translate(508.951,-25.3089) rotate(26.5651)">
			<title>Sheet.24433</title>
			<path d="M0 354.94 L19.02 354.94" class="st2"/>
		</g>
		<g id="shape24434-148" transform="translate(367.226,-67.0326)">
			<title>Sheet.24434</title>
			<path d="M0 354.94 L72.17 354.94" class="st2"/>
		</g>
		<g id="shape24435-151" transform="translate(439.398,651.347) rotate(180)">
			<title>Sheet.24435</title>
			<path d="M0 354.94 L72.17 354.94" class="st2"/>
		</g>
		<g id="shape24436-154" transform="translate(798.761,-9.62588)">
			<title>Sheet.24436</title>
			<path d="M69.26 248.63 L0 248.63 L0 354.94 L69.26 354.94 L69.26 248.63 Z" class="st4"/>
		</g>
		<g id="shape24437-156" transform="translate(1261.09,283.653) rotate(90)">
			<title>Sheet.24437</title>
			<path d="M0 354.94 L4.25 354.94" class="st9"/>
		</g>
		<g id="shape24438-159" transform="translate(1261.09,296.409) rotate(90)">
			<title>Sheet.24438</title>
			<path d="M0 354.94 L4.25 354.94" class="st9"/>
		</g>
		<g id="shape24439-162" transform="translate(1064.89,-33.8128) rotate(26.5651)">
			<title>Sheet.24439</title>
			<path d="M0 354.94 L19.02 354.94" class="st9"/>
		</g>
		<g id="shape24440-165" transform="translate(1081.9,609.623) rotate(153.435)">
			<title>Sheet.24440</title>
			<path d="M0 354.94 L19.02 354.94" class="st9"/>
		</g>
		<g id="shape24441-168" transform="translate(906.156,642.843) rotate(180)">
			<title>Sheet.24441</title>
			<path d="M0 354.94 L21.13 354.94" class="st9"/>
		</g>
		<g id="shape24442-171" transform="translate(885.03,-58.5287)">
			<title>Sheet.24442</title>
			<path d="M0 354.94 L21.13 354.94" class="st9"/>
		</g>
		<g id="shape24443-174" transform="translate(1239.97,283.653) rotate(90)">
			<title>Sheet.24443</title>
			<path d="M0 354.94 L4.25 354.94" class="st9"/>
		</g>
		<g id="shape24444-177" transform="translate(1239.97,296.409) rotate(90)">
			<title>Sheet.24444</title>
			<path d="M0 354.94 L4.25 354.94" class="st9"/>
		</g>
		<g id="shape24445-180" transform="translate(1043.76,601.119) rotate(153.435)">
			<title>Sheet.24445</title>
			<path d="M0 354.94 L19.02 354.94" class="st9"/>
		</g>
		<g id="shape24446-183" transform="translate(1026.76,-25.3089) rotate(26.5651)">
			<title>Sheet.24446</title>
			<path d="M0 354.94 L19.02 354.94" class="st9"/>
		</g>
		<g id="shape24447-186" transform="translate(1064.52,283.653) rotate(90)">
			<title>Sheet.24447</title>
			<path d="M0 354.94 L4.25 354.94" class="st9"/>
		</g>
		<g id="shape24448-189" transform="translate(1064.52,296.409) rotate(90)">
			<title>Sheet.24448</title>
			<path d="M0 354.94 L4.25 354.94" class="st9"/>
		</g>
		<g id="shape24449-192" transform="translate(868.314,601.119) rotate(153.435)">
			<title>Sheet.24449</title>
			<path d="M0 354.94 L19.02 354.94" class="st9"/>
		</g>
		<g id="shape24450-195" transform="translate(851.307,-25.3089) rotate(26.5651)">
			<title>Sheet.24450</title>
			<path d="M0 354.94 L19.02 354.94" class="st9"/>
		</g>
		<g id="shape24451-198" transform="translate(1136.69,283.653) rotate(90)">
			<title>Sheet.24451</title>
			<path d="M0 354.94 L4.25 354.94" class="st9"/>
		</g>
		<g id="shape24452-201" transform="translate(1136.69,296.409) rotate(90)">
			<title>Sheet.24452</title>
			<path d="M0 354.94 L4.25 354.94" class="st9"/>
		</g>
		<g id="shape24453-204" transform="translate(940.486,-33.8128) rotate(26.5651)">
			<title>Sheet.24453</title>
			<path d="M0 354.94 L19.02 354.94" class="st9"/>
		</g>
		<g id="shape24454-207" transform="translate(957.494,609.623) rotate(153.435)">
			<title>Sheet.24454</title>
			<path d="M0 354.94 L19.02 354.94" class="st9"/>
		</g>
		<g id="shape24455-210" transform="translate(781.753,642.843) rotate(180)">
			<title>Sheet.24455</title>
			<path d="M0 354.94 L72.17 354.94" class="st9"/>
		</g>
		<g id="shape24456-213" transform="translate(709.582,-58.5287)">
			<title>Sheet.24456</title>
			<path d="M0 354.94 L72.17 354.94" class="st9"/>
		</g>
		<g id="shape24457-216" transform="translate(734.171,-59.6827)">
			<title>Sheet.24457</title>
			<desc>BLE enabled router</desc>
			<rect x="0" y="343.599" width="197.596" height="11.3386" class="st5"/>
			<text x="90.56" y="339.06" class="st10">BLE <tspan x="80.2" dy="1.2em" class="st8">enabled </tspan><tspan x="84.16"
						dy="1.2em" class="st8">router</tspan></text>		</g>
		<g id="shape24458-221" transform="translate(893.165,148.386) rotate(90)">
			<title>Sheet.24458</title>
			<path d="M0 354.94 L77.09 354.94" class="st2"/>
		</g>
		<g id="shape24459-224" transform="translate(896,148.386) rotate(90)">
			<title>Sheet.24459</title>
			<path d="M0 354.94 L77.09 354.94" class="st2"/>
		</g>
		<g id="shape24460-227" transform="translate(497.125,-85.5216)">
			<title>Sheet.24460</title>
			<path d="M0 354.94 A43.937 43.937 -180 0 0 43.94 311 L0 354.94 Z" class="st1"/>
			<path d="M0 354.94 A43.937 43.937 -180 0 0 43.94 311" class="st2"/>
		</g>
		<g id="shape24461-230" transform="translate(497.125,-88.3562)">
			<title>Sheet.24461</title>
			<path d="M0 354.94 A41.1024 41.1024 -180 0 0 41.1 313.84 L0 354.94 Z" class="st1"/>
			<path d="M0 354.94 A41.1024 41.1024 -180 0 0 41.1 313.84" class="st2"/>
		</g>
		<g id="shape24462-233" transform="translate(220.381,-85.5216)">
			<title>Sheet.24462</title>
			<path d="M0 354.94 L276.74 354.94" class="st2"/>
		</g>
		<g id="shape24463-236" transform="translate(220.381,-88.3562)">
			<title>Sheet.24463</title>
			<path d="M0 354.94 L276.74 354.94" class="st2"/>
		</g>
		<g id="shape24464-239" transform="translate(379.114,581.794) rotate(153.435)">
			<title>Sheet.24464</title>
			<path d="M0 354.94 L8.21 354.94" class="st2"/>
		</g>
		<g id="shape24465-242" transform="translate(371.773,-49.4671) rotate(26.5651)">
			<title>Sheet.24465</title>
			<path d="M0 354.94 L8.21 354.94" class="st2"/>
		</g>
		<g id="shape24466-245" transform="translate(575.319,264.329) rotate(90)">
			<title>Sheet.24466</title>
			<path d="M0 354.94 L2.25 354.94" class="st2"/>
		</g>
		<g id="shape24467-248" transform="translate(575.319,269.416) rotate(90)">
			<title>Sheet.24467</title>
			<path d="M0 354.94 L2.25 354.94" class="st2"/>
		</g>
		<g id="shape24468-251" transform="translate(225.849,307.119) rotate(-116.565)">
			<title>Sheet.24468</title>
			<path d="M0 354.94 L8.21 354.94" class="st2"/>
		</g>
		<g id="shape24469-254" transform="translate(857.111,299.778) rotate(116.565)">
			<title>Sheet.24469</title>
			<path d="M0 354.94 L8.21 354.94" class="st2"/>
		</g>
		<g id="shape24470-257" transform="translate(543.315,503.323) rotate(180)">
			<title>Sheet.24470</title>
			<path d="M0 354.94 L2.25 354.94" class="st2"/>
		</g>
		<g id="shape24471-260" transform="translate(538.227,503.323) rotate(180)">
			<title>Sheet.24471</title>
			<path d="M0 354.94 L2.25 354.94" class="st2"/>
		</g>
		<g id="shape24739-263" transform="translate(499.906,-354.938)">
			<title>Sheet.24739</title>
			<path d="M0 354.94 L151.71 354.94" class="st2"/>
		</g>
		<g id="shape24740-266" transform="translate(497.185,-352.199)">
			<title>Sheet.24740</title>
			<path d="M2.72 352.2 A2.72126 2.72126 -180 0 0 -0 354.94 L2.72 352.2 Z" class="st1"/>
			<path d="M2.72 352.2 A2.72126 2.72126 -180 0 0 -0 354.94" class="st2"/>
		</g>
		<g id="shape24741-269" transform="translate(502.205,-348.082)">
			<title>Sheet.24741</title>
			<path d="M0 354.94 L147.22 354.94" class="st2"/>
		</g>
		<g id="shape24742-272" transform="translate(501.525,-347.399)">
			<title>Sheet.24742</title>
			<path d="M0.68 354.25 a0.680315 0.680315 -180 0 0 -0.680308 0.6834 L0.68 354.25 Z" class="st1"/>
			<path d="M0.68 354.25 a0.680315 0.680315 -180 0 0 -0.680308 0.6834" class="st2"/>
		</g>
		<g id="shape24743-275" transform="translate(501.899,-264.995)">
			<title>Sheet.24743</title>
			<path d="M0 354.94 L148.25 354.94" class="st2"/>
		</g>
		<g id="shape24744-278" transform="translate(502.578,-264.447)">
			<title>Sheet.24744</title>
			<path d="M0 354.94 L146.89 354.94" class="st2"/>
		</g>
		<g id="shape24745-281" transform="translate(499.814,-257.454)">
			<title>Sheet.24745</title>
			<path d="M0 354.94 L152.25 354.94" class="st2"/>
		</g>
		<g id="shape24746-284" transform="translate(497.773,-257.763)">
			<title>Sheet.24746</title>
			<path d="M0 353.22 A2.04094 2.04094 -180 0 0 0.96 354.94 L0 353.22 Z" class="st1"/>
			<path d="M0 353.22 A2.04094 2.04094 -180 0 0 0.96 354.94" class="st2"/>
		</g>
		<g id="shape24747-287" transform="translate(498.735,-257.454)">
			<title>Sheet.24747</title>
			<path d="M0 354.63 A2.04094 2.04094 -180 0 0 1.08 354.94 L0 354.63 Z" class="st1"/>
			<path d="M0 354.63 A2.04094 2.04094 -180 0 0 1.08 354.94" class="st2"/>
		</g>
		<g id="shape24748-290" transform="translate(483.284,-238.43)">
			<title>Sheet.24748</title>
			<path d="M0 354.94 L0.84 354.94" class="st2"/>
		</g>
		<g id="shape24749-293" transform="translate(484.12,-238.43)">
			<title>Sheet.24749</title>
			<path d="M0 354.94 L183.1 354.94" class="st2"/>
		</g>
		<g id="shape24750-296" transform="translate(667.218,-238.43)">
			<title>Sheet.24750</title>
			<path d="M0 354.94 L0.83 354.94" class="st2"/>
		</g>
		<g id="shape24751-299" transform="translate(473.999,-225.831)">
			<title>Sheet.24751</title>
			<path d="M0 354.94 L202.61 354.94" class="st2"/>
		</g>
		<g id="shape24752-302" transform="translate(473.482,-226.953)">
			<title>Sheet.24752</title>
		</g>
		<g id="shape24753-303" transform="translate(473.319,-225.831)">
			<title>Sheet.24753</title>
			<path d="M0 354.26 a0.680315 0.680315 -180 0 0 0.680315 0.680315 L0 354.26 Z" class="st1"/>
			<path d="M0 354.26 a0.680315 0.680315 -180 0 0 0.680315 0.680315" class="st2"/>
		</g>
		<g id="shape24754-306" transform="translate(485.787,-219.576)">
			<title>Sheet.24754</title>
			<path d="M0 354.94 L175.97 354.94" class="st2"/>
		</g>
		<g id="shape24755-309" transform="translate(852.115,0.486632) rotate(89.6365)">
			<title>Sheet.24755</title>
			<path d="M0 354.94 L92.72 354.94" class="st2"/>
		</g>
		<g id="shape24756-312" transform="translate(856.459,5.9294) rotate(89.7402)">
			<title>Sheet.24756</title>
			<path d="M0 354.94 L82.28 354.94" class="st2"/>
		</g>
		<g id="shape24757-315" transform="translate(501.898,-264.447)">
			<title>Sheet.24757</title>
			<path d="M0 354.26 a0.680315 0.680315 -180 0 0 0.680308 0.67723 L0 354.26 Z" class="st1"/>
			<path d="M0 354.26 a0.680315 0.680315 -180 0 0 0.680308 0.67723" class="st2"/>
		</g>
		<g id="shape24758-318" transform="translate(1005.05,7.36509) rotate(89.9725)">
			<title>Sheet.24758</title>
			<path d="M0 354.94 L82.28 354.94" class="st2"/>
		</g>
		<g id="shape24759-321" transform="translate(649.467,-264.447)">
			<title>Sheet.24759</title>
			<path d="M0 354.94 a0.680315 0.680315 -180 0 0 0.680315 -0.680641 L0 354.94 Z" class="st1"/>
			<path d="M0 354.94 a0.680315 0.680315 -180 0 0 0.680315 -0.680641" class="st2"/>
		</g>
		<g id="shape24760-324" transform="translate(649.427,-347.402)">
			<title>Sheet.24760</title>
			<path d="M0.68 354.94 a0.680315 0.680315 -180 0 0 -0.680315 -0.679989 L0.68 354.94 Z" class="st1"/>
			<path d="M0.68 354.94 a0.680315 0.680315 -180 0 0 -0.680315 -0.679989" class="st2"/>
		</g>
		<g id="shape24761-327" transform="translate(299.171,94.5649) rotate(-89.8575)">
			<title>Sheet.24761</title>
			<path d="M0 354.94 L92.72 354.94" class="st2"/>
		</g>
		<g id="shape24762-330" transform="translate(652.067,-257.454)">
			<title>Sheet.24762</title>
			<path d="M-0 354.94 A2.04094 2.04094 -180 0 0 1.51 354.27 L0 354.94 Z" class="st1"/>
			<path d="M-0 354.94 A2.04094 2.04094 -180 0 0 1.51 354.27" class="st2"/>
		</g>
		<g id="shape24763-333" transform="translate(653.581,-258.127)">
			<title>Sheet.24763</title>
			<path d="M0 354.94 A2.04094 2.04094 -180 0 0 0.53 353.57 L0 354.94 Z" class="st1"/>
			<path d="M0 354.94 A2.04094 2.04094 -180 0 0 0.53 353.57" class="st2"/>
		</g>
		<g id="shape24764-336" transform="translate(651.617,-352.21)">
			<title>Sheet.24764</title>
			<path d="M2.72 354.94 A2.72126 2.72126 -180 0 0 -0 352.21 L2.72 354.94 Z" class="st1"/>
			<path d="M2.72 354.94 A2.72126 2.72126 -180 0 0 -0 352.21" class="st2"/>
		</g>
		<g id="shape24765-339" transform="translate(767.133,330.685) rotate(130.499)">
			<title>Sheet.24765</title>
			<path d="M0 354.94 L3.2 354.94" class="st2"/>
		</g>
		<g id="shape24766-342" transform="translate(753.183,347.018) rotate(130.499)">
			<title>Sheet.24766</title>
			<path d="M0 354.94 L15.09 354.94" class="st2"/>
		</g>
		<g id="shape24767-345" transform="translate(933.258,-120.336) rotate(51.6576)">
			<title>Sheet.24767</title>
			<path d="M0 354.94 L3.51 354.94" class="st2"/>
		</g>
		<g id="shape24768-348" transform="translate(946.43,-103.682) rotate(51.6576)">
			<title>Sheet.24768</title>
			<path d="M0 354.94 L14.66 354.94" class="st2"/>
		</g>
		<g id="shape24769-351" transform="translate(676.607,-225.831)">
			<title>Sheet.24769</title>
			<path d="M-0 354.94 a0.680315 0.680315 -180 0 0 0.680315 -0.680315 L0 354.94 Z" class="st1"/>
			<path d="M-0 354.94 a0.680315 0.680315 -180 0 0 0.680315 -0.680315" class="st2"/>
		</g>
		<g id="shape24770-354" transform="translate(677.287,-226.511)">
			<title>Sheet.24770</title>
		</g>
		<g id="shape24771-355" transform="translate(759.767,476.862) rotate(166.45)">
			<title>Sheet.24771</title>
			<path d="M0 354.94 L15.11 354.94" class="st2"/>
		</g>
		<g id="shape24772-358" transform="translate(661.76,-219.576)">
			<title>Sheet.24772</title>
		</g>
		<g id="shape24773-359" transform="translate(531.943,-237.686)">
			<title>Sheet.24773</title>
			<path d="M0 354.94 L45.36 354.94" class="st2"/>
		</g>
		<g id="shape24774-362" transform="translate(531.003,-237.063)">
			<title>Sheet.24774</title>
			<path d="M0.94 354.31 A1.02047 1.02047 -180 0 0 -0 354.94 L0.94 354.31 Z" class="st1"/>
			<path d="M0.94 354.31 A1.02047 1.02047 -180 0 0 -0 354.94" class="st2"/>
		</g>
		<g id="shape24775-365" transform="translate(528.111,-228.392)">
			<title>Sheet.24775</title>
			<path d="M0 354.94 L49.15 354.94" class="st2"/>
		</g>
		<g id="shape24776-368" transform="translate(578.287,479.818) rotate(180)">
			<title>Sheet.24776</title>
			<path d="M0 354.94 L50.24 354.94" class="st2"/>
		</g>
		<g id="shape24777-371" transform="translate(857.984,255.949) rotate(112.893)">
			<title>Sheet.24777</title>
			<path d="M0 354.94 L8.64 354.94" class="st2"/>
		</g>
		<g id="shape24778-374" transform="translate(527.641,-228.392)">
			<title>Sheet.24778</title>
			<path d="M0 354.23 a0.510236 0.510236 -180 0 0 0.470047 0.708723 L0 354.23 Z" class="st1"/>
			<path d="M0 354.23 a0.510236 0.510236 -180 0 0 0.470047 0.708723" class="st2"/>
		</g>
		<g id="shape24779-377" transform="translate(901.848,192.983) rotate(101.062)">
			<title>Sheet.24779</title>
			<path d="M0 354.94 L1.7 354.94" class="st2"/>
		</g>
		<g id="shape24780-380" transform="translate(901.472,192.983) rotate(101.062)">
			<title>Sheet.24780</title>
			<path d="M0 354.94 L1.7 354.94" class="st2"/>
		</g>
		<g id="shape24781-383" transform="translate(933.254,120.091) rotate(90.2929)">
			<title>Sheet.24781</title>
			<path d="M0 354.94 L7.25 354.94" class="st2"/>
		</g>
		<g id="shape24782-386" transform="translate(577.263,-228.392)">
			<title>Sheet.24782</title>
			<path d="M0 354.94 A1.02047 1.02047 -180 0 0 1.02 353.92 L0 354.94 Z" class="st1"/>
			<path d="M0 354.94 A1.02047 1.02047 -180 0 0 1.02 353.92" class="st2"/>
		</g>
		<g id="shape24783-389" transform="translate(577.3,-236.661)">
			<title>Sheet.24783</title>
			<path d="M1.02 354.94 A1.02047 1.02047 -180 0 0 0 353.91 L1.02 354.94 Z" class="st1"/>
			<path d="M1.02 354.94 A1.02047 1.02047 -180 0 0 0 353.91" class="st2"/>
		</g>
		<g id="shape24784-392" transform="translate(497.804,-256.736)">
			<title>Sheet.24784</title>
			<path d="M0 354.94 L156.58 354.94" class="st2"/>
		</g>
		<g id="shape24785-395" transform="translate(654.382,-255.085)">
			<title>Sheet.24785</title>
			<path d="M-0 353.29 A3.46711 3.46711 -180 0 0 0.49 354.94 L0 353.29 Z" class="st1"/>
			<path d="M-0 353.29 A3.46711 3.46711 -180 0 0 0.49 354.94" class="st2"/>
		</g>
		<g id="shape24786-398" transform="translate(497.234,-254.764)">
			<title>Sheet.24786</title>
			<path d="M0 354.94 A3.52318 3.52318 -180 0 0 0.57 352.97 L0 354.94 Z" class="st1"/>
			<path d="M0 354.94 A3.52318 3.52318 -180 0 0 0.57 352.97" class="st2"/>
		</g>
		<g id="shape24787-401" transform="translate(234.92,-140.279) rotate(-47.7865)">
			<title>Sheet.24787</title>
			<path d="M0 354.94 L1.39 354.94" class="st2"/>
		</g>
		<g id="shape24788-404" transform="translate(346.817,275.359) rotate(-119.942)">
			<title>Sheet.24788</title>
			<path d="M0 354.94 L1.6 354.94" class="st2"/>
		</g>
		<g id="shape24789-407" transform="translate(382.191,474.876) rotate(-163.063)">
			<title>Sheet.24789</title>
			<path d="M0 354.94 L12.12 354.94" class="st2"/>
		</g>
		<g id="shape24790-410" transform="translate(485.59,-219.605)">
			<title>Sheet.24790</title>
		</g>
		<g id="shape24791-411" transform="translate(473.999,-223.134)">
			<title>Sheet.24791</title>
			<path d="M0 354.94 L202.61 354.94" class="st2"/>
		</g>
		<g id="shape24792-414" transform="translate(473.319,-223.134)">
			<title>Sheet.24792</title>
			<path d="M0 354.26 a0.680315 0.680315 -180 0 0 0.680315 0.680315 L0 354.26 Z" class="st1"/>
			<path d="M0 354.26 a0.680315 0.680315 -180 0 0 0.680315 0.680315" class="st2"/>
		</g>
		<g id="shape24793-417" transform="translate(676.607,-223.134)">
			<title>Sheet.24793</title>
			<path d="M-0 354.94 a0.680315 0.680315 -180 0 0 0.680315 -0.680315 L0 354.94 Z" class="st1"/>
			<path d="M-0 354.94 a0.680315 0.680315 -180 0 0 0.680315 -0.680315" class="st2"/>
		</g>
		<g id="shape24794-420" transform="translate(1032.22,128.426) rotate(90)">
			<title>Sheet.24794</title>
			<path d="M0 354.94 L2.7 354.94" class="st2"/>
		</g>
		<g id="shape24795-423" transform="translate(828.257,128.426) rotate(90)">
			<title>Sheet.24795</title>
			<path d="M0 354.94 L2.7 354.94" class="st2"/>
		</g>
		<g id="shape24796-426" transform="translate(764.965,334.123) rotate(130.319)">
			<title>Sheet.24796</title>
			<path d="M0 354.94 L15.8 354.94" class="st2"/>
		</g>
		<g id="shape24797-429" transform="translate(494.342,-250.476)">
			<title>Sheet.24797</title>
			<path d="M0 354.94 A3.34859 3.34859 -180 0 0 0.81 353.08 L0 354.94 Z" class="st1"/>
			<path d="M0 354.94 A3.34859 3.34859 -180 0 0 0.81 353.08" class="st2"/>
		</g>
		<g id="shape24798-432" transform="translate(936.181,-115.626) rotate(51.7331)">
			<title>Sheet.24798</title>
			<path d="M0 354.94 L15.68 354.94" class="st2"/>
		</g>
		<g id="shape24799-435" transform="translate(495.153,-252.332)">
			<title>Sheet.24799</title>
			<path d="M0 354.94 L161.9 354.94" class="st2"/>
		</g>
		<g id="shape24800-438" transform="translate(657.051,-250.741)">
			<title>Sheet.24800</title>
			<path d="M0 353.35 A3.46711 3.46711 -180 0 0 0.46 354.94 L0 353.35 Z" class="st1"/>
			<path d="M0 353.35 A3.46711 3.46711 -180 0 0 0.46 354.94" class="st2"/>
		</g>
		<g id="shape24801-441" transform="translate(505.162,-251.357)">
			<title>Sheet.24801</title>
			<path d="M0 354.94 L110.07 354.94" class="st2"/>
		</g>
		<g id="shape24802-444" transform="translate(618.74,-251.357)">
			<title>Sheet.24802</title>
			<path d="M0 354.94 L27.86 354.94" class="st2"/>
		</g>
		<g id="shape24803-447" transform="translate(618.268,-250.652)">
			<title>Sheet.24803</title>
			<path d="M0.47 354.23 a0.510236 0.510236 -180 0 0 -0.471621 0.704953 L0.47 354.23 Z" class="st1"/>
			<path d="M0.47 354.23 a0.510236 0.510236 -180 0 0 -0.471621 0.704953" class="st2"/>
		</g>
		<g id="shape24804-450" transform="translate(504.335,-250.934)">
			<title>Sheet.24804</title>
			<path d="M0.83 354.51 A1.02047 1.02047 -180 0 0 0 354.94 L0.83 354.51 Z" class="st1"/>
			<path d="M0.83 354.51 A1.02047 1.02047 -180 0 0 0 354.94" class="st2"/>
		</g>
		<g id="shape24805-453" transform="translate(941.432,-94.842) rotate(55.9235)">
			<title>Sheet.24805</title>
			<path d="M0 354.94 L12.64 354.94" class="st2"/>
		</g>
		<g id="shape24806-456" transform="translate(646.595,-250.908)">
			<title>Sheet.24806</title>
			<path d="M0.85 354.94 A1.02047 1.02047 -180 0 0 0 354.49 L0.85 354.94 Z" class="st1"/>
			<path d="M0.85 354.94 A1.02047 1.02047 -180 0 0 0 354.49" class="st2"/>
		</g>
		<g id="shape24807-459" transform="translate(654.24,-239.909)">
			<title>Sheet.24807</title>
			<path d="M0 354.94 a0.340157 0.340157 -180 0 0 0.281749 -0.530747 L0 354.94 Z" class="st1"/>
			<path d="M0 354.94 a0.340157 0.340157 -180 0 0 0.281749 -0.530747" class="st2"/>
		</g>
		<g id="shape24808-462" transform="translate(792.209,311.632) rotate(125.801)">
			<title>Sheet.24808</title>
			<path d="M0 354.94 L12.93 354.94" class="st2"/>
		</g>
		<g id="shape24809-465" transform="translate(496.71,-239.909)">
			<title>Sheet.24809</title>
			<path d="M0.06 354.4 a0.340157 0.340157 -180 0 0 0.275887 0.539139 L0.06 354.4 Z" class="st1"/>
			<path d="M0.06 354.4 a0.340157 0.340157 -180 0 0 0.275887 0.539139" class="st2"/>
		</g>
		<g id="shape24810-468" transform="translate(497.048,-239.909)">
			<title>Sheet.24810</title>
			<path d="M0 354.94 L122.83 354.94" class="st2"/>
		</g>
		<g id="shape24811-471" transform="translate(623.386,-239.909)">
			<title>Sheet.24811</title>
			<path d="M0 354.94 L30.85 354.94" class="st2"/>
		</g>
		<g id="shape24812-474" transform="translate(654.24,-239.205)">
			<title>Sheet.24812</title>
		</g>
		<g id="shape24813-475" transform="translate(497.048,-239.205)">
			<title>Sheet.24813</title>
		</g>
		<g id="shape24814-476" transform="translate(497.048,-238.865)">
			<title>Sheet.24814</title>
			<path d="M0 354.94 L122.83 354.94" class="st2"/>
		</g>
		<g id="shape24815-479" transform="translate(623.386,-238.865)">
			<title>Sheet.24815</title>
			<path d="M0 354.94 L30.85 354.94" class="st2"/>
		</g>
		<g id="shape24816-482" transform="translate(1009.52,114.689) rotate(90)">
			<title>Sheet.24816</title>
			<path d="M0 354.94 L1.04 354.94" class="st2"/>
		</g>
		<g id="shape24817-485" transform="translate(851.645,114.689) rotate(90)">
			<title>Sheet.24817</title>
			<path d="M0 354.94 L1.04 354.94" class="st2"/>
		</g>
		<g id="shape24818-488" transform="translate(946.344,-31.1661) rotate(67.5659)">
			<title>Sheet.24818</title>
			<path d="M0 354.94 L10.94 354.94" class="st2"/>
		</g>
		<g id="shape24819-491" transform="translate(622.443,-239.909)">
			<title>Sheet.24819</title>
			<path d="M0 354.31 A1.02047 1.02047 -180 0 0 0.94 354.94 L0 354.31 Z" class="st1"/>
			<path d="M0 354.31 A1.02047 1.02047 -180 0 0 0.94 354.94" class="st2"/>
		</g>
		<g id="shape24820-494" transform="translate(946.344,-30.1216) rotate(67.5659)">
			<title>Sheet.24820</title>
			<path d="M0 354.94 L10.94 354.94" class="st2"/>
		</g>
		<g id="shape24821-497" transform="translate(944.249,-31.24) rotate(67.5659)">
			<title>Sheet.24821</title>
			<path d="M0 354.94 L10.94 354.94" class="st2"/>
		</g>
		<g id="shape24822-500" transform="translate(619.877,-239.909)">
			<title>Sheet.24822</title>
			<path d="M0 354.94 a0.510236 0.510236 -180 0 0 0.471621 -0.704953 L0 354.94 Z" class="st1"/>
			<path d="M0 354.94 a0.510236 0.510236 -180 0 0 0.471621 -0.704953" class="st2"/>
		</g>
		<g id="shape24823-503" transform="translate(615.23,-250.726)">
			<title>Sheet.24823</title>
			<path d="M0.94 354.94 A1.02047 1.02047 -180 0 0 -0 354.31 L0.94 354.94 Z" class="st1"/>
			<path d="M0.94 354.94 A1.02047 1.02047 -180 0 0 -0 354.31" class="st2"/>
		</g>
		<g id="shape24824-506" transform="translate(974.814,115.029) rotate(90)">
			<title>Sheet.24824</title>
			<path d="M0 354.94 L1.04 354.94" class="st2"/>
		</g>
		<g id="shape24825-509" transform="translate(619.877,-238.865)">
			<title>Sheet.24825</title>
			<path d="M-0 354.94 a0.510236 0.510236 -180 0 0 0.510236 -0.510236 L0 354.94 Z" class="st1"/>
			<path d="M-0 354.94 a0.510236 0.510236 -180 0 0 0.510236 -0.510236" class="st2"/>
		</g>
		<g id="shape24826-512" transform="translate(265.449,115.563) rotate(-90)">
			<title>Sheet.24826</title>
			<path d="M0 354.94 L1.04 354.94" class="st2"/>
		</g>
		<g id="shape24827-515" transform="translate(978.324,115.029) rotate(90)">
			<title>Sheet.24827</title>
			<path d="M0 354.94 L1.04 354.94" class="st2"/>
		</g>
		<g id="shape24828-518" transform="translate(622.443,-238.865)">
			<title>Sheet.24828</title>
			<path d="M0 354.31 A1.02047 1.02047 -180 0 0 0.94 354.94 L0 354.31 Z" class="st1"/>
			<path d="M0 354.31 A1.02047 1.02047 -180 0 0 0.94 354.94" class="st2"/>
		</g>
		<g id="shape24829-521" transform="translate(977.381,114.398) rotate(90)">
			<title>Sheet.24829</title>
			<path d="M0 354.94 L1.04 354.94" class="st2"/>
		</g>
		<g id="shape24830-524" transform="translate(973.167,104.091) rotate(90)">
			<title>Sheet.24830</title>
			<path d="M0 354.94 L1.04 354.94" class="st2"/>
		</g>
		<g id="shape24831-527" transform="translate(618.74,-249.803)">
			<title>Sheet.24831</title>
		</g>
		<g id="shape24832-528" transform="translate(1009.18,115.029) rotate(90)">
			<title>Sheet.24832</title>
			<path d="M0 354.94 L1.04 354.94" class="st2"/>
		</g>
		<g id="shape24833-531" transform="translate(1031.54,129.107) rotate(90)">
			<title>Sheet.24833</title>
			<path d="M0 354.94 L2.7 354.94" class="st2"/>
		</g>
		<g id="shape24834-534" transform="translate(828.937,129.107) rotate(90)">
			<title>Sheet.24834</title>
			<path d="M0 354.94 L2.7 354.94" class="st2"/>
		</g>
		<g id="shape24835-537" transform="translate(851.986,115.029) rotate(90)">
			<title>Sheet.24835</title>
			<path d="M0 354.94 L1.04 354.94" class="st2"/>
		</g>
		<g id="shape25031-540" transform="translate(514.135,-321.163)">
			<title>Sheet.25031</title>
			<desc>UDP client/server</desc>
			<rect x="0" y="339.82" width="197.596" height="15.1181" class="st5"/>
			<text x="0" y="349.65" class="st11">UDP client/server</text>		</g>
		<g id="shape25145-543" transform="translate(8.10764,-17.5753)">
			<title>Sheet.25145</title>
			<path d="M209.33 287.77 L209.33 354.94 L0 354.94 L0 265.77 L209.33 265.77 L209.33 283.38 L209.33 283.38 L209.33 287.77
						 Z" class="st1"/>
			<path d="M209.33 287.77 L209.33 354.94 L0 354.94 L0 265.77 L209.33 265.77 L209.33 283.38 L209.33 283.38" class="st3"/>
		</g>
		<g id="shape25148-546" transform="translate(14.4218,-79.5716)">
			<title>Sheet.25148</title>
			<desc>UDP client</desc>
			<rect x="0" y="339.82" width="197.596" height="15.1181" class="st5"/>
			<text x="0" y="349.65" class="st11">UDP client</text>		</g>
		<g id="shape25149-549" transform="translate(939.865,-78.4329)">
			<title>Sheet.25149</title>
			<desc>UDP server</desc>
			<rect x="0" y="339.82" width="197.596" height="15.1181" class="st5"/>
			<text x="0" y="349.65" class="st12">UDP server</text>		</g>
		<g id="shape25150-552" transform="translate(335.833,-69.2306)">
			<title>Sheet.25150</title>
			<desc>UDP/IPv6</desc>
			<rect x="0" y="343.599" width="135.084" height="11.3386" class="st5"/>
			<text x="45.51" y="354.37" class="st7">UDP/IPv6</text>		</g>
		<g id="shape25151-555" transform="translate(938.972,117.534) rotate(90)">
			<title>Sheet.25151</title>
			<desc>UDP/IPv6</desc>
			<rect x="0" y="343.599" width="135.084" height="11.3386" class="st5"/>
			<text x="45.51" y="354.37" class="st7">UDP/IPv6</text>		</g>
		<g id="shape25152-558" transform="translate(678.189,-69.2306)">
			<title>Sheet.25152</title>
			<desc>UDP/IPv6</desc>
			<rect x="0" y="343.599" width="135.084" height="11.3386" class="st5"/>
			<text x="45.51" y="354.37" class="st10">UDP/IPv6</text>		</g>
		<g id="shape25165-561" transform="translate(185.907,-72.2014)">
			<title>Sheet.25165</title>
			<desc>BLE 6lowpan</desc>
			<rect x="0" y="347.379" width="135.084" height="7.55906" class="st5"/>
			<text x="47.94" y="354.56" class="st13">BLE 6lowpan</text>		</g>
		<g id="shape25166-564" transform="translate(828.114,-72.2014)">
			<title>Sheet.25166</title>
			<desc>BLE 6lowpan</desc>
			<rect x="0" y="347.379" width="135.084" height="7.55906" class="st5"/>
			<text x="47.94" y="354.56" class="st14">BLE 6lowpan</text>		</g>
		<g id="shape25281-567" transform="translate(1108.88,-25.693)">
			<title>Sheet.25281</title>
			<path d="M0 354.94 L22.68 354.94 L22.68 319.72 L0 319.72 L0 354.94 Z" class="st4"/>
		</g>
		<g id="shape25282-569" transform="translate(1113.19,-45.0639)">
			<title>Sheet.25282</title>
			<path d="M12.44 354.94 A7.04425 7.04425 -180 1 0 1.62 354.94 L12.44 354.94 Z" class="st1"/>
			<path d="M12.44 354.94 A7.04425 7.04425 -180 1 0 1.62 354.94" class="st9"/>
		</g>
		<g id="shape25283-572" transform="translate(1108.19,-62.845)">
			<title>Sheet.25283</title>
			<desc>Light 2</desc>
			<rect x="0" y="349.268" width="24.2894" height="5.66929" class="st5"/>
			<text x="4.45" y="354.65" class="st15">Light 2</text>		</g>
		<g id="shape25284-575" transform="translate(1117,-36.0443)">
			<title>Sheet.25284</title>
			<path d="M0 354.94 L6.44 354.94" class="st9"/>
		</g>
		<g id="shape25285-578" transform="translate(1114.81,-36.0443)">
			<title>Sheet.25285</title>
			<path d="M2.19 354.94 A17.0418 17.0418 -180 0 0 0 345.92 L2.19 354.94 Z" class="st1"/>
			<path d="M2.19 354.94 A17.0418 17.0418 -180 0 0 0 345.92" class="st9"/>
		</g>
		<g id="shape25286-581" transform="translate(1123.44,-36.0443)">
			<title>Sheet.25286</title>
			<path d="M2.19 345.92 A17.0418 17.0418 -180 0 0 -0 354.94 L2.19 345.92 Z" class="st1"/>
			<path d="M2.19 345.92 A17.0418 17.0418 -180 0 0 -0 354.94" class="st9"/>
		</g>
		<g id="shape25287-584" transform="translate(1117,-30.305)">
			<title>Sheet.25287</title>
			<path d="M0 354.94 L6.44 354.94" class="st9"/>
		</g>
		<g id="shape25288-587" transform="translate(1117.6,-29.7424)">
			<title>Sheet.25288</title>
			<path d="M0 354.94 L5.25 354.94" class="st9"/>
		</g>
		<g id="shape25289-590" transform="translate(873.449,582.825) rotate(-136.539)">
			<title>Sheet.25289</title>
			<path d="M0 354.94 L0.82 354.94" class="st9"/>
		</g>
		<g id="shape25290-593" transform="translate(878.702,67.566) rotate(-43.4609)">
			<title>Sheet.25290</title>
			<path d="M0 354.94 L0.82 354.94" class="st9"/>
		</g>
		<g id="shape25291-596" transform="translate(1471.94,318.893) rotate(90)">
			<title>Sheet.25291</title>
			<path d="M0 354.94 L0.93 354.94" class="st9"/>
		</g>
		<g id="shape25292-599" transform="translate(762.065,324.633) rotate(-90)">
			<title>Sheet.25292</title>
			<path d="M0 354.94 L0.69 354.94" class="st9"/>
		</g>
		<g id="shape25293-602" transform="translate(867.498,576.382) rotate(-135.336)">
			<title>Sheet.25293</title>
			<path d="M0 354.94 L0.45 354.94" class="st9"/>
		</g>
		<g id="shape25294-605" transform="translate(867.175,70.973) rotate(-44.6645)">
			<title>Sheet.25294</title>
			<path d="M0 354.94 L0.45 354.94" class="st9"/>
		</g>
		<g id="shape25295-608" transform="translate(1116.78,-31.4197)">
			<title>Sheet.25295</title>
		</g>
		<g id="shape25296-609" transform="translate(873.938,70.9158) rotate(-44.6645)">
			<title>Sheet.25296</title>
			<path d="M0 354.94 L0.45 354.94" class="st9"/>
		</g>
		<g id="shape25297-612" transform="translate(874.262,575.283) rotate(-135.336)">
			<title>Sheet.25297</title>
			<path d="M0 354.94 L0.45 354.94" class="st9"/>
		</g>
		<g id="shape25298-615" transform="translate(1123.67,-31.998)">
			<title>Sheet.25298</title>
		</g>
		<g id="shape25299-616" transform="translate(867.498,575.292) rotate(-135.336)">
			<title>Sheet.25299</title>
			<path d="M0 354.94 L0.45 354.94" class="st9"/>
		</g>
		<g id="shape25300-619" transform="translate(867.175,69.8821) rotate(-44.6645)">
			<title>Sheet.25300</title>
			<path d="M0 354.94 L0.45 354.94" class="st9"/>
		</g>
		<g id="shape25301-622" transform="translate(1116.78,-32.5106)">
			<title>Sheet.25301</title>
		</g>
		<g id="shape25302-623" transform="translate(873.938,69.8249) rotate(-44.6645)">
			<title>Sheet.25302</title>
			<path d="M0 354.94 L0.45 354.94" class="st9"/>
		</g>
		<g id="shape25303-626" transform="translate(874.262,574.192) rotate(-135.336)">
			<title>Sheet.25303</title>
			<path d="M0 354.94 L0.45 354.94" class="st9"/>
		</g>
		<g id="shape25304-629" transform="translate(1123.67,-33.0889)">
			<title>Sheet.25304</title>
		</g>
		<g id="shape25305-630" transform="translate(867.498,574.201) rotate(-135.336)">
			<title>Sheet.25305</title>
			<path d="M0 354.94 L0.45 354.94" class="st9"/>
		</g>
		<g id="shape25306-633" transform="translate(867.175,68.7912) rotate(-44.6645)">
			<title>Sheet.25306</title>
			<path d="M0 354.94 L0.45 354.94" class="st9"/>
		</g>
		<g id="shape25307-636" transform="translate(1116.78,-33.6015)">
			<title>Sheet.25307</title>
		</g>
		<g id="shape25308-637" transform="translate(873.938,68.734) rotate(-44.6645)">
			<title>Sheet.25308</title>
			<path d="M0 354.94 L0.45 354.94" class="st9"/>
		</g>
		<g id="shape25309-640" transform="translate(874.262,573.101) rotate(-135.336)">
			<title>Sheet.25309</title>
			<path d="M0 354.94 L0.45 354.94" class="st9"/>
		</g>
		<g id="shape25310-643" transform="translate(1123.67,-34.1798)">
			<title>Sheet.25310</title>
		</g>
		<g id="shape25311-644" transform="translate(867.498,573.11) rotate(-135.336)">
			<title>Sheet.25311</title>
			<path d="M0 354.94 L0.45 354.94" class="st9"/>
		</g>
		<g id="shape25312-647" transform="translate(867.175,67.7003) rotate(-44.6645)">
			<title>Sheet.25312</title>
			<path d="M0 354.94 L0.45 354.94" class="st9"/>
		</g>
		<g id="shape25313-650" transform="translate(1116.78,-34.6924)">
			<title>Sheet.25313</title>
		</g>
		<g id="shape25314-651" transform="translate(873.938,67.6431) rotate(-44.6645)">
			<title>Sheet.25314</title>
			<path d="M0 354.94 L0.45 354.94" class="st9"/>
		</g>
		<g id="shape25315-654" transform="translate(874.262,572.01) rotate(-135.336)">
			<title>Sheet.25315</title>
			<path d="M0 354.94 L0.45 354.94" class="st9"/>
		</g>
		<g id="shape25316-657" transform="translate(1123.67,-35.2707)">
			<title>Sheet.25316</title>
		</g>
		<g id="shape25317-658" transform="translate(1085.26,-33.6903) rotate(-5.131)">
			<title>Sheet.25317</title>
			<path d="M0 354.94 L6.47 354.94" class="st9"/>
		</g>
		<g id="shape25318-661" transform="translate(1085.26,-32.8498) rotate(-5.131)">
			<title>Sheet.25318</title>
			<path d="M0 354.94 L6.47 354.94" class="st9"/>
		</g>
		<g id="shape25319-664" transform="translate(1085.26,-32.5994) rotate(-5.131)">
			<title>Sheet.25319</title>
			<path d="M0 354.94 L6.47 354.94" class="st9"/>
		</g>
		<g id="shape25320-667" transform="translate(1085.26,-31.7589) rotate(-5.131)">
			<title>Sheet.25320</title>
			<path d="M0 354.94 L6.47 354.94" class="st9"/>
		</g>
		<g id="shape25321-670" transform="translate(1085.26,-31.5085) rotate(-5.131)">
			<title>Sheet.25321</title>
			<path d="M0 354.94 L6.47 354.94" class="st9"/>
		</g>
		<g id="shape25322-673" transform="translate(1085.26,-30.668) rotate(-5.131)">
			<title>Sheet.25322</title>
			<path d="M0 354.94 L6.47 354.94" class="st9"/>
		</g>
		<g id="shape25323-676" transform="translate(1085.26,-30.4176) rotate(-5.131)">
			<title>Sheet.25323</title>
			<path d="M0 354.94 L6.47 354.94" class="st9"/>
		</g>
		<g id="shape25324-679" transform="translate(1085.26,-29.5771) rotate(-5.131)">
			<title>Sheet.25324</title>
			<path d="M0 354.94 L6.47 354.94" class="st9"/>
		</g>
		<g id="shape25325-682" transform="translate(1471.94,320.666) rotate(90)">
			<title>Sheet.25325</title>
			<path d="M0 354.94 L0.25 354.94" class="st9"/>
		</g>
		<g id="shape25326-685" transform="translate(1471.94,321.756) rotate(90)">
			<title>Sheet.25326</title>
			<path d="M0 354.94 L0.25 354.94" class="st9"/>
		</g>
		<g id="shape25327-688" transform="translate(1471.94,322.847) rotate(90)">
			<title>Sheet.25327</title>
			<path d="M0 354.94 L0.25 354.94" class="st9"/>
		</g>
		<g id="shape25328-691" transform="translate(768.506,322.519) rotate(-90)">
			<title>Sheet.25328</title>
			<path d="M0 354.94 L0.25 354.94" class="st9"/>
		</g>
		<g id="shape25329-694" transform="translate(768.506,321.429) rotate(-90)">
			<title>Sheet.25329</title>
			<path d="M0 354.94 L0.25 354.94" class="st9"/>
		</g>
		<g id="shape25330-697" transform="translate(768.506,320.338) rotate(-90)">
			<title>Sheet.25330</title>
			<path d="M0 354.94 L0.25 354.94" class="st9"/>
		</g>
		<g id="shape25331-700" transform="translate(1478.38,318.893) rotate(90)">
			<title>Sheet.25331</title>
			<path d="M0 354.94 L0.35 354.94" class="st9"/>
		</g>
		<g id="shape25332-703" transform="translate(1478.38,323.36) rotate(90)">
			<title>Sheet.25332</title>
			<path d="M0 354.94 L1.27 354.94" class="st9"/>
		</g>
		<g id="shape25333-706" transform="translate(1119.59,-29.4897)">
			<title>Sheet.25333</title>
			<path d="M0 354.94 L1.27 354.94" class="st9"/>
		</g>
		<g id="shape25334-709" transform="translate(875.91,583.52) rotate(-136.643)">
			<title>Sheet.25334</title>
			<path d="M0 354.94 L0.37 354.94" class="st9"/>
		</g>
		<g id="shape25335-712" transform="translate(877.177,67.3763) rotate(-43.357)">
			<title>Sheet.25335</title>
			<path d="M0 354.94 L0.37 354.94" class="st9"/>
		</g>
		<g id="shape25336-715" transform="translate(1076.89,-25.693)">
			<title>Sheet.25336</title>
			<path d="M0 354.94 L22.68 354.94 L22.68 319.72 L0 319.72 L0 354.94 Z" class="st4"/>
		</g>
		<g id="shape25337-717" transform="translate(1081.19,-45.0639)">
			<title>Sheet.25337</title>
			<path d="M12.44 354.94 A7.04425 7.04425 -180 1 0 1.62 354.94 L12.44 354.94 Z" class="st1"/>
			<path d="M12.44 354.94 A7.04425 7.04425 -180 1 0 1.62 354.94" class="st9"/>
		</g>
		<g id="shape25338-720" transform="translate(1076.19,-62.845)">
			<title>Sheet.25338</title>
			<desc>Light 1</desc>
			<rect x="0" y="349.268" width="24.2894" height="5.66929" class="st5"/>
			<text x="4.45" y="354.65" class="st15">Light 1</text>		</g>
		<g id="shape25339-723" transform="translate(1085.01,-36.0443)">
			<title>Sheet.25339</title>
			<path d="M0 354.94 L6.44 354.94" class="st9"/>
		</g>
		<g id="shape25340-726" transform="translate(1082.81,-36.0443)">
			<title>Sheet.25340</title>
			<path d="M2.19 354.94 A17.0418 17.0418 -180 0 0 0 345.92 L2.19 354.94 Z" class="st1"/>
			<path d="M2.19 354.94 A17.0418 17.0418 -180 0 0 0 345.92" class="st9"/>
		</g>
		<g id="shape25341-729" transform="translate(1091.45,-36.0443)">
			<title>Sheet.25341</title>
			<path d="M2.19 345.92 A17.0418 17.0418 -180 0 0 -0 354.94 L2.19 345.92 Z" class="st1"/>
			<path d="M2.19 345.92 A17.0418 17.0418 -180 0 0 -0 354.94" class="st9"/>
		</g>
		<g id="shape25342-732" transform="translate(1085.01,-30.305)">
			<title>Sheet.25342</title>
			<path d="M0 354.94 L6.44 354.94" class="st9"/>
		</g>
		<g id="shape25343-735" transform="translate(1085.6,-29.7424)">
			<title>Sheet.25343</title>
			<path d="M0 354.94 L5.25 354.94" class="st9"/>
		</g>
		<g id="shape25344-738" transform="translate(841.452,582.825) rotate(-136.539)">
			<title>Sheet.25344</title>
			<path d="M0 354.94 L0.82 354.94" class="st9"/>
		</g>
		<g id="shape25345-741" transform="translate(846.705,67.566) rotate(-43.4609)">
			<title>Sheet.25345</title>
			<path d="M0 354.94 L0.82 354.94" class="st9"/>
		</g>
		<g id="shape25346-744" transform="translate(1439.94,318.893) rotate(90)">
			<title>Sheet.25346</title>
			<path d="M0 354.94 L0.93 354.94" class="st9"/>
		</g>
		<g id="shape25347-747" transform="translate(730.067,324.633) rotate(-90)">
			<title>Sheet.25347</title>
			<path d="M0 354.94 L0.69 354.94" class="st9"/>
		</g>
		<g id="shape25348-750" transform="translate(835.5,576.382) rotate(-135.336)">
			<title>Sheet.25348</title>
			<path d="M0 354.94 L0.45 354.94" class="st9"/>
		</g>
		<g id="shape25349-753" transform="translate(835.177,70.973) rotate(-44.6645)">
			<title>Sheet.25349</title>
			<path d="M0 354.94 L0.45 354.94" class="st9"/>
		</g>
		<g id="shape25350-756" transform="translate(1084.78,-31.4197)">
			<title>Sheet.25350</title>
		</g>
		<g id="shape25351-757" transform="translate(841.941,70.9158) rotate(-44.6645)">
			<title>Sheet.25351</title>
			<path d="M0 354.94 L0.45 354.94" class="st9"/>
		</g>
		<g id="shape25352-760" transform="translate(842.264,575.283) rotate(-135.336)">
			<title>Sheet.25352</title>
			<path d="M0 354.94 L0.45 354.94" class="st9"/>
		</g>
		<g id="shape25353-763" transform="translate(1091.67,-31.998)">
			<title>Sheet.25353</title>
		</g>
		<g id="shape25354-764" transform="translate(835.5,575.292) rotate(-135.336)">
			<title>Sheet.25354</title>
			<path d="M0 354.94 L0.45 354.94" class="st9"/>
		</g>
		<g id="shape25355-767" transform="translate(835.177,69.8821) rotate(-44.6645)">
			<title>Sheet.25355</title>
			<path d="M0 354.94 L0.45 354.94" class="st9"/>
		</g>
		<g id="shape25356-770" transform="translate(1084.78,-32.5106)">
			<title>Sheet.25356</title>
		</g>
		<g id="shape25357-771" transform="translate(841.941,69.8249) rotate(-44.6645)">
			<title>Sheet.25357</title>
			<path d="M0 354.94 L0.45 354.94" class="st9"/>
		</g>
		<g id="shape25358-774" transform="translate(842.264,574.192) rotate(-135.336)">
			<title>Sheet.25358</title>
			<path d="M0 354.94 L0.45 354.94" class="st9"/>
		</g>
		<g id="shape25359-777" transform="translate(1091.67,-33.0889)">
			<title>Sheet.25359</title>
		</g>
		<g id="shape25360-778" transform="translate(835.5,574.201) rotate(-135.336)">
			<title>Sheet.25360</title>
			<path d="M0 354.94 L0.45 354.94" class="st9"/>
		</g>
		<g id="shape25361-781" transform="translate(835.177,68.7912) rotate(-44.6645)">
			<title>Sheet.25361</title>
			<path d="M0 354.94 L0.45 354.94" class="st9"/>
		</g>
		<g id="shape25362-784" transform="translate(1084.78,-33.6015)">
			<title>Sheet.25362</title>
		</g>
		<g id="shape25363-785" transform="translate(841.941,68.734) rotate(-44.6645)">
			<title>Sheet.25363</title>
			<path d="M0 354.94 L0.45 354.94" class="st9"/>
		</g>
		<g id="shape25364-788" transform="translate(842.264,573.101) rotate(-135.336)">
			<title>Sheet.25364</title>
			<path d="M0 354.94 L0.45 354.94" class="st9"/>
		</g>
		<g id="shape25365-791" transform="translate(1091.67,-34.1798)">
			<title>Sheet.25365</title>
		</g>
		<g id="shape25366-792" transform="translate(835.5,573.11) rotate(-135.336)">
			<title>Sheet.25366</title>
			<path d="M0 354.94 L0.45 354.94" class="st9"/>
		</g>
		<g id="shape25367-795" transform="translate(835.177,67.7003) rotate(-44.6645)">
			<title>Sheet.25367</title>
			<path d="M0 354.94 L0.45 354.94" class="st9"/>
		</g>
		<g id="shape25368-798" transform="translate(1084.78,-34.6924)">
			<title>Sheet.25368</title>
		</g>
		<g id="shape25369-799" transform="translate(841.941,67.6431) rotate(-44.6645)">
			<title>Sheet.25369</title>
			<path d="M0 354.94 L0.45 354.94" class="st9"/>
		</g>
		<g id="shape25370-802" transform="translate(842.264,572.01) rotate(-135.336)">
			<title>Sheet.25370</title>
			<path d="M0 354.94 L0.45 354.94" class="st9"/>
		</g>
		<g id="shape25371-805" transform="translate(1091.67,-35.2707)">
			<title>Sheet.25371</title>
		</g>
		<g id="shape25372-806" transform="translate(1053.26,-33.6903) rotate(-5.131)">
			<title>Sheet.25372</title>
			<path d="M0 354.94 L6.47 354.94" class="st9"/>
		</g>
		<g id="shape25373-809" transform="translate(1053.26,-32.8498) rotate(-5.131)">
			<title>Sheet.25373</title>
			<path d="M0 354.94 L6.47 354.94" class="st9"/>
		</g>
		<g id="shape25374-812" transform="translate(1053.26,-32.5994) rotate(-5.131)">
			<title>Sheet.25374</title>
			<path d="M0 354.94 L6.47 354.94" class="st9"/>
		</g>
		<g id="shape25375-815" transform="translate(1053.26,-31.7589) rotate(-5.131)">
			<title>Sheet.25375</title>
			<path d="M0 354.94 L6.47 354.94" class="st9"/>
		</g>
		<g id="shape25376-818" transform="translate(1053.26,-31.5085) rotate(-5.131)">
			<title>Sheet.25376</title>
			<path d="M0 354.94 L6.47 354.94" class="st9"/>
		</g>
		<g id="shape25377-821" transform="translate(1053.26,-30.668) rotate(-5.131)">
			<title>Sheet.25377</title>
			<path d="M0 354.94 L6.47 354.94" class="st9"/>
		</g>
		<g id="shape25378-824" transform="translate(1053.26,-30.4176) rotate(-5.131)">
			<title>Sheet.25378</title>
			<path d="M0 354.94 L6.47 354.94" class="st9"/>
		</g>
		<g id="shape25379-827" transform="translate(1053.26,-29.5771) rotate(-5.131)">
			<title>Sheet.25379</title>
			<path d="M0 354.94 L6.47 354.94" class="st9"/>
		</g>
		<g id="shape25380-830" transform="translate(1439.94,320.666) rotate(90)">
			<title>Sheet.25380</title>
			<path d="M0 354.94 L0.25 354.94" class="st9"/>
		</g>
		<g id="shape25381-833" transform="translate(1439.94,321.756) rotate(90)">
			<title>Sheet.25381</title>
			<path d="M0 354.94 L0.25 354.94" class="st9"/>
		</g>
		<g id="shape25382-836" transform="translate(1439.94,322.847) rotate(90)">
			<title>Sheet.25382</title>
			<path d="M0 354.94 L0.25 354.94" class="st9"/>
		</g>
		<g id="shape25383-839" transform="translate(736.508,322.519) rotate(-90)">
			<title>Sheet.25383</title>
			<path d="M0 354.94 L0.25 354.94" class="st9"/>
		</g>
		<g id="shape25384-842" transform="translate(736.508,321.429) rotate(-90)">
			<title>Sheet.25384</title>
			<path d="M0 354.94 L0.25 354.94" class="st9"/>
		</g>
		<g id="shape25385-845" transform="translate(736.508,320.338) rotate(-90)">
			<title>Sheet.25385</title>
			<path d="M0 354.94 L0.25 354.94" class="st9"/>
		</g>
		<g id="shape25386-848" transform="translate(1446.38,318.893) rotate(90)">
			<title>Sheet.25386</title>
			<path d="M0 354.94 L0.35 354.94" class="st9"/>
		</g>
		<g id="shape25387-851" transform="translate(1446.38,323.36) rotate(90)">
			<title>Sheet.25387</title>
			<path d="M0 354.94 L1.27 354.94" class="st9"/>
		</g>
		<g id="shape25388-854" transform="translate(1087.59,-29.4897)">
			<title>Sheet.25388</title>
			<path d="M0 354.94 L1.27 354.94" class="st9"/>
		</g>
		<g id="shape25389-857" transform="translate(843.912,583.52) rotate(-136.643)">
			<title>Sheet.25389</title>
			<path d="M0 354.94 L0.37 354.94" class="st9"/>
		</g>
		<g id="shape25390-860" transform="translate(845.179,67.3763) rotate(-43.357)">
			<title>Sheet.25390</title>
			<path d="M0 354.94 L0.37 354.94" class="st9"/>
		</g>
		<g id="shape25391-863" transform="translate(185.72,-25.693)">
			<title>Sheet.25391</title>
			<path d="M0 354.94 L22.68 354.94 L22.68 319.72 L0 319.72 L0 354.94 Z" class="st16"/>
		</g>
		<g id="shape25392-865" transform="translate(190.027,-45.0639)">
			<title>Sheet.25392</title>
			<path d="M12.44 354.94 A7.04425 7.04425 -180 1 0 1.62 354.94 L12.44 354.94 Z" class="st1"/>
			<path d="M12.44 354.94 A7.04425 7.04425 -180 1 0 1.62 354.94" class="st2"/>
		</g>
		<g id="shape25393-868" transform="translate(185.022,-62.845)">
			<title>Sheet.25393</title>
			<desc>Light 2</desc>
			<rect x="0" y="349.268" width="24.2894" height="5.66929" class="st5"/>
			<text x="4.45" y="354.65" class="st17">Light 2</text>		</g>
		<g id="shape25394-871" transform="translate(193.839,-36.0443)">
			<title>Sheet.25394</title>
			<path d="M0 354.94 L6.44 354.94" class="st2"/>
		</g>
		<g id="shape25395-874" transform="translate(191.648,-36.0443)">
			<title>Sheet.25395</title>
			<path d="M2.19 354.94 A17.0418 17.0418 -180 0 0 -0 345.92 L2.19 354.94 Z" class="st1"/>
			<path d="M2.19 354.94 A17.0418 17.0418 -180 0 0 -0 345.92" class="st2"/>
		</g>
		<g id="shape25396-877" transform="translate(200.279,-36.0443)">
			<title>Sheet.25396</title>
			<path d="M2.19 345.92 A17.0418 17.0418 -180 0 0 0 354.94 L2.19 345.92 Z" class="st1"/>
			<path d="M2.19 345.92 A17.0418 17.0418 -180 0 0 0 354.94" class="st2"/>
		</g>
		<g id="shape25397-880" transform="translate(193.839,-30.305)">
			<title>Sheet.25397</title>
			<path d="M0 354.94 L6.44 354.94" class="st2"/>
		</g>
		<g id="shape25398-883" transform="translate(194.432,-29.7424)">
			<title>Sheet.25398</title>
			<path d="M0 354.94 L5.25 354.94" class="st2"/>
		</g>
		<g id="shape25399-886" transform="translate(-49.715,582.825) rotate(-136.539)">
			<title>Sheet.25399</title>
			<path d="M0 354.94 L0.82 354.94" class="st2"/>
		</g>
		<g id="shape25400-889" transform="translate(-44.462,67.566) rotate(-43.4609)">
			<title>Sheet.25400</title>
			<path d="M0 354.94 L0.82 354.94" class="st2"/>
		</g>
		<g id="shape25401-892" transform="translate(548.776,318.893) rotate(90)">
			<title>Sheet.25401</title>
			<path d="M0 354.94 L0.93 354.94" class="st2"/>
		</g>
		<g id="shape25402-895" transform="translate(-161.099,324.633) rotate(-90)">
			<title>Sheet.25402</title>
			<path d="M0 354.94 L0.69 354.94" class="st2"/>
		</g>
		<g id="shape25403-898" transform="translate(-55.6663,576.382) rotate(-135.336)">
			<title>Sheet.25403</title>
			<path d="M0 354.94 L0.45 354.94" class="st2"/>
		</g>
		<g id="shape25404-901" transform="translate(-55.9895,70.973) rotate(-44.6645)">
			<title>Sheet.25404</title>
			<path d="M0 354.94 L0.45 354.94" class="st2"/>
		</g>
		<g id="shape25405-904" transform="translate(193.615,-31.4197)">
			<title>Sheet.25405</title>
		</g>
		<g id="shape25406-905" transform="translate(-49.2259,70.9158) rotate(-44.6645)">
			<title>Sheet.25406</title>
			<path d="M0 354.94 L0.45 354.94" class="st2"/>
		</g>
		<g id="shape25407-908" transform="translate(-48.9027,575.283) rotate(-135.336)">
			<title>Sheet.25407</title>
			<path d="M0 354.94 L0.45 354.94" class="st2"/>
		</g>
		<g id="shape25408-911" transform="translate(200.503,-31.998)">
			<title>Sheet.25408</title>
		</g>
		<g id="shape25409-912" transform="translate(-55.6663,575.292) rotate(-135.336)">
			<title>Sheet.25409</title>
			<path d="M0 354.94 L0.45 354.94" class="st2"/>
		</g>
		<g id="shape25410-915" transform="translate(-55.9895,69.8821) rotate(-44.6645)">
			<title>Sheet.25410</title>
			<path d="M0 354.94 L0.45 354.94" class="st2"/>
		</g>
		<g id="shape25411-918" transform="translate(193.615,-32.5106)">
			<title>Sheet.25411</title>
		</g>
		<g id="shape25412-919" transform="translate(-49.2259,69.8249) rotate(-44.6645)">
			<title>Sheet.25412</title>
			<path d="M0 354.94 L0.45 354.94" class="st2"/>
		</g>
		<g id="shape25413-922" transform="translate(-48.9027,574.192) rotate(-135.336)">
			<title>Sheet.25413</title>
			<path d="M0 354.94 L0.45 354.94" class="st2"/>
		</g>
		<g id="shape25414-925" transform="translate(200.503,-33.0889)">
			<title>Sheet.25414</title>
		</g>
		<g id="shape25415-926" transform="translate(-55.6663,574.201) rotate(-135.336)">
			<title>Sheet.25415</title>
			<path d="M0 354.94 L0.45 354.94" class="st2"/>
		</g>
		<g id="shape25416-929" transform="translate(-55.9895,68.7912) rotate(-44.6645)">
			<title>Sheet.25416</title>
			<path d="M0 354.94 L0.45 354.94" class="st2"/>
		</g>
		<g id="shape25417-932" transform="translate(193.615,-33.6015)">
			<title>Sheet.25417</title>
		</g>
		<g id="shape25418-933" transform="translate(-49.2259,68.734) rotate(-44.6645)">
			<title>Sheet.25418</title>
			<path d="M0 354.94 L0.45 354.94" class="st2"/>
		</g>
		<g id="shape25419-936" transform="translate(-48.9027,573.101) rotate(-135.336)">
			<title>Sheet.25419</title>
			<path d="M0 354.94 L0.45 354.94" class="st2"/>
		</g>
		<g id="shape25420-939" transform="translate(200.503,-34.1798)">
			<title>Sheet.25420</title>
		</g>
		<g id="shape25421-940" transform="translate(-55.6663,573.11) rotate(-135.336)">
			<title>Sheet.25421</title>
			<path d="M0 354.94 L0.45 354.94" class="st2"/>
		</g>
		<g id="shape25422-943" transform="translate(-55.9895,67.7003) rotate(-44.6645)">
			<title>Sheet.25422</title>
			<path d="M0 354.94 L0.45 354.94" class="st2"/>
		</g>
		<g id="shape25423-946" transform="translate(193.615,-34.6924)">
			<title>Sheet.25423</title>
		</g>
		<g id="shape25424-947" transform="translate(-49.2259,67.6431) rotate(-44.6645)">
			<title>Sheet.25424</title>
			<path d="M0 354.94 L0.45 354.94" class="st2"/>
		</g>
		<g id="shape25425-950" transform="translate(-48.9027,572.01) rotate(-135.336)">
			<title>Sheet.25425</title>
			<path d="M0 354.94 L0.45 354.94" class="st2"/>
		</g>
		<g id="shape25426-953" transform="translate(200.503,-35.2707)">
			<title>Sheet.25426</title>
		</g>
		<g id="shape25427-954" transform="translate(162.095,-33.6903) rotate(-5.131)">
			<title>Sheet.25427</title>
			<path d="M0 354.94 L6.47 354.94" class="st2"/>
		</g>
		<g id="shape25428-957" transform="translate(162.095,-32.8498) rotate(-5.131)">
			<title>Sheet.25428</title>
			<path d="M0 354.94 L6.47 354.94" class="st2"/>
		</g>
		<g id="shape25429-960" transform="translate(162.095,-32.5994) rotate(-5.131)">
			<title>Sheet.25429</title>
			<path d="M0 354.94 L6.47 354.94" class="st2"/>
		</g>
		<g id="shape25430-963" transform="translate(162.095,-31.7589) rotate(-5.131)">
			<title>Sheet.25430</title>
			<path d="M0 354.94 L6.47 354.94" class="st2"/>
		</g>
		<g id="shape25431-966" transform="translate(162.095,-31.5085) rotate(-5.131)">
			<title>Sheet.25431</title>
			<path d="M0 354.94 L6.47 354.94" class="st2"/>
		</g>
		<g id="shape25432-969" transform="translate(162.095,-30.668) rotate(-5.131)">
			<title>Sheet.25432</title>
			<path d="M0 354.94 L6.47 354.94" class="st2"/>
		</g>
		<g id="shape25433-972" transform="translate(162.095,-30.4176) rotate(-5.131)">
			<title>Sheet.25433</title>
			<path d="M0 354.94 L6.47 354.94" class="st2"/>
		</g>
		<g id="shape25434-975" transform="translate(162.095,-29.5771) rotate(-5.131)">
			<title>Sheet.25434</title>
			<path d="M0 354.94 L6.47 354.94" class="st2"/>
		</g>
		<g id="shape25435-978" transform="translate(548.776,320.666) rotate(90)">
			<title>Sheet.25435</title>
			<path d="M0 354.94 L0.25 354.94" class="st2"/>
		</g>
		<g id="shape25436-981" transform="translate(548.776,321.756) rotate(90)">
			<title>Sheet.25436</title>
			<path d="M0 354.94 L0.25 354.94" class="st2"/>
		</g>
		<g id="shape25437-984" transform="translate(548.776,322.847) rotate(90)">
			<title>Sheet.25437</title>
			<path d="M0 354.94 L0.25 354.94" class="st2"/>
		</g>
		<g id="shape25438-987" transform="translate(-154.659,322.519) rotate(-90)">
			<title>Sheet.25438</title>
			<path d="M0 354.94 L0.25 354.94" class="st2"/>
		</g>
		<g id="shape25439-990" transform="translate(-154.659,321.429) rotate(-90)">
			<title>Sheet.25439</title>
			<path d="M0 354.94 L0.25 354.94" class="st2"/>
		</g>
		<g id="shape25440-993" transform="translate(-154.659,320.338) rotate(-90)">
			<title>Sheet.25440</title>
			<path d="M0 354.94 L0.25 354.94" class="st2"/>
		</g>
		<g id="shape25441-996" transform="translate(555.217,318.893) rotate(90)">
			<title>Sheet.25441</title>
			<path d="M0 354.94 L0.35 354.94" class="st2"/>
		</g>
		<g id="shape25442-999" transform="translate(555.217,323.36) rotate(90)">
			<title>Sheet.25442</title>
			<path d="M0 354.94 L1.27 354.94" class="st2"/>
		</g>
		<g id="shape25443-1002" transform="translate(196.425,-29.4897)">
			<title>Sheet.25443</title>
			<path d="M0 354.94 L1.27 354.94" class="st2"/>
		</g>
		<g id="shape25444-1005" transform="translate(-47.2546,583.52) rotate(-136.643)">
			<title>Sheet.25444</title>
			<path d="M0 354.94 L0.37 354.94" class="st2"/>
		</g>
		<g id="shape25445-1008" transform="translate(-45.9873,67.3763) rotate(-43.357)">
			<title>Sheet.25445</title>
			<path d="M0 354.94 L0.37 354.94" class="st2"/>
		</g>
		<g id="shape25446-1011" transform="translate(153.722,-25.693)">
			<title>Sheet.25446</title>
			<path d="M0 354.94 L22.68 354.94 L22.68 319.72 L0 319.72 L0 354.94 Z" class="st16"/>
		</g>
		<g id="shape25447-1013" transform="translate(158.03,-45.0639)">
			<title>Sheet.25447</title>
			<path d="M12.44 354.94 A7.04425 7.04425 -180 1 0 1.62 354.94 L12.44 354.94 Z" class="st1"/>
			<path d="M12.44 354.94 A7.04425 7.04425 -180 1 0 1.62 354.94" class="st2"/>
		</g>
		<g id="shape25448-1016" transform="translate(153.024,-62.845)">
			<title>Sheet.25448</title>
			<desc>Light 1</desc>
			<rect x="0" y="349.268" width="24.2894" height="5.66929" class="st5"/>
			<text x="4.45" y="354.65" class="st17">Light 1</text>		</g>
		<g id="shape25449-1019" transform="translate(161.841,-36.0443)">
			<title>Sheet.25449</title>
			<path d="M0 354.94 L6.44 354.94" class="st2"/>
		</g>
		<g id="shape25450-1022" transform="translate(159.651,-36.0443)">
			<title>Sheet.25450</title>
			<path d="M2.19 354.94 A17.0418 17.0418 -180 0 0 -0 345.92 L2.19 354.94 Z" class="st1"/>
			<path d="M2.19 354.94 A17.0418 17.0418 -180 0 0 -0 345.92" class="st2"/>
		</g>
		<g id="shape25451-1025" transform="translate(168.281,-36.0443)">
			<title>Sheet.25451</title>
			<path d="M2.19 345.92 A17.0418 17.0418 -180 0 0 0 354.94 L2.19 345.92 Z" class="st1"/>
			<path d="M2.19 345.92 A17.0418 17.0418 -180 0 0 0 354.94" class="st2"/>
		</g>
		<g id="shape25452-1028" transform="translate(161.841,-30.305)">
			<title>Sheet.25452</title>
			<path d="M0 354.94 L6.44 354.94" class="st2"/>
		</g>
		<g id="shape25453-1031" transform="translate(162.435,-29.7424)">
			<title>Sheet.25453</title>
			<path d="M0 354.94 L5.25 354.94" class="st2"/>
		</g>
		<g id="shape25454-1034" transform="translate(-81.7127,582.825) rotate(-136.539)">
			<title>Sheet.25454</title>
			<path d="M0 354.94 L0.82 354.94" class="st2"/>
		</g>
		<g id="shape25455-1037" transform="translate(-76.4598,67.566) rotate(-43.4609)">
			<title>Sheet.25455</title>
			<path d="M0 354.94 L0.82 354.94" class="st2"/>
		</g>
		<g id="shape25456-1040" transform="translate(516.779,318.893) rotate(90)">
			<title>Sheet.25456</title>
			<path d="M0 354.94 L0.93 354.94" class="st2"/>
		</g>
		<g id="shape25457-1043" transform="translate(-193.097,324.633) rotate(-90)">
			<title>Sheet.25457</title>
			<path d="M0 354.94 L0.69 354.94" class="st2"/>
		</g>
		<g id="shape25458-1046" transform="translate(-87.664,576.382) rotate(-135.336)">
			<title>Sheet.25458</title>
			<path d="M0 354.94 L0.45 354.94" class="st2"/>
		</g>
		<g id="shape25459-1049" transform="translate(-87.9872,70.973) rotate(-44.6645)">
			<title>Sheet.25459</title>
			<path d="M0 354.94 L0.45 354.94" class="st2"/>
		</g>
		<g id="shape25460-1052" transform="translate(161.617,-31.4197)">
			<title>Sheet.25460</title>
		</g>
		<g id="shape25461-1053" transform="translate(-81.2236,70.9158) rotate(-44.6645)">
			<title>Sheet.25461</title>
			<path d="M0 354.94 L0.45 354.94" class="st2"/>
		</g>
		<g id="shape25462-1056" transform="translate(-80.9004,575.283) rotate(-135.336)">
			<title>Sheet.25462</title>
			<path d="M0 354.94 L0.45 354.94" class="st2"/>
		</g>
		<g id="shape25463-1059" transform="translate(168.505,-31.998)">
			<title>Sheet.25463</title>
		</g>
		<g id="shape25464-1060" transform="translate(-87.664,575.292) rotate(-135.336)">
			<title>Sheet.25464</title>
			<path d="M0 354.94 L0.45 354.94" class="st2"/>
		</g>
		<g id="shape25465-1063" transform="translate(-87.9872,69.8821) rotate(-44.6645)">
			<title>Sheet.25465</title>
			<path d="M0 354.94 L0.45 354.94" class="st2"/>
		</g>
		<g id="shape25466-1066" transform="translate(161.617,-32.5106)">
			<title>Sheet.25466</title>
		</g>
		<g id="shape25467-1067" transform="translate(-81.2236,69.8249) rotate(-44.6645)">
			<title>Sheet.25467</title>
			<path d="M0 354.94 L0.45 354.94" class="st2"/>
		</g>
		<g id="shape25468-1070" transform="translate(-80.9004,574.192) rotate(-135.336)">
			<title>Sheet.25468</title>
			<path d="M0 354.94 L0.45 354.94" class="st2"/>
		</g>
		<g id="shape25469-1073" transform="translate(168.505,-33.0889)">
			<title>Sheet.25469</title>
		</g>
		<g id="shape25470-1074" transform="translate(-87.664,574.201) rotate(-135.336)">
			<title>Sheet.25470</title>
			<path d="M0 354.94 L0.45 354.94" class="st2"/>
		</g>
		<g id="shape25471-1077" transform="translate(-87.9872,68.7912) rotate(-44.6645)">
			<title>Sheet.25471</title>
			<path d="M0 354.94 L0.45 354.94" class="st2"/>
		</g>
		<g id="shape25472-1080" transform="translate(161.617,-33.6015)">
			<title>Sheet.25472</title>
		</g>
		<g id="shape25473-1081" transform="translate(-81.2236,68.734) rotate(-44.6645)">
			<title>Sheet.25473</title>
			<path d="M0 354.94 L0.45 354.94" class="st2"/>
		</g>
		<g id="shape25474-1084" transform="translate(-80.9004,573.101) rotate(-135.336)">
			<title>Sheet.25474</title>
			<path d="M0 354.94 L0.45 354.94" class="st2"/>
		</g>
		<g id="shape25475-1087" transform="translate(168.505,-34.1798)">
			<title>Sheet.25475</title>
		</g>
		<g id="shape25476-1088" transform="translate(-87.664,573.11) rotate(-135.336)">
			<title>Sheet.25476</title>
			<path d="M0 354.94 L0.45 354.94" class="st2"/>
		</g>
		<g id="shape25477-1091" transform="translate(-87.9872,67.7003) rotate(-44.6645)">
			<title>Sheet.25477</title>
			<path d="M0 354.94 L0.45 354.94" class="st2"/>
		</g>
		<g id="shape25478-1094" transform="translate(161.617,-34.6924)">
			<title>Sheet.25478</title>
		</g>
		<g id="shape25479-1095" transform="translate(-81.2236,67.6431) rotate(-44.6645)">
			<title>Sheet.25479</title>
			<path d="M0 354.94 L0.45 354.94" class="st2"/>
		</g>
		<g id="shape25480-1098" transform="translate(-80.9004,572.01) rotate(-135.336)">
			<title>Sheet.25480</title>
			<path d="M0 354.94 L0.45 354.94" class="st2"/>
		</g>
		<g id="shape25481-1101" transform="translate(168.505,-35.2707)">
			<title>Sheet.25481</title>
		</g>
		<g id="shape25482-1102" transform="translate(130.098,-33.6903) rotate(-5.131)">
			<title>Sheet.25482</title>
			<path d="M0 354.94 L6.47 354.94" class="st2"/>
		</g>
		<g id="shape25483-1105" transform="translate(130.098,-32.8498) rotate(-5.131)">
			<title>Sheet.25483</title>
			<path d="M0 354.94 L6.47 354.94" class="st2"/>
		</g>
		<g id="shape25484-1108" transform="translate(130.098,-32.5994) rotate(-5.131)">
			<title>Sheet.25484</title>
			<path d="M0 354.94 L6.47 354.94" class="st2"/>
		</g>
		<g id="shape25485-1111" transform="translate(130.098,-31.7589) rotate(-5.131)">
			<title>Sheet.25485</title>
			<path d="M0 354.94 L6.47 354.94" class="st2"/>
		</g>
		<g id="shape25486-1114" transform="translate(130.098,-31.5085) rotate(-5.131)">
			<title>Sheet.25486</title>
			<path d="M0 354.94 L6.47 354.94" class="st2"/>
		</g>
		<g id="shape25487-1117" transform="translate(130.098,-30.668) rotate(-5.131)">
			<title>Sheet.25487</title>
			<path d="M0 354.94 L6.47 354.94" class="st2"/>
		</g>
		<g id="shape25488-1120" transform="translate(130.098,-30.4176) rotate(-5.131)">
			<title>Sheet.25488</title>
			<path d="M0 354.94 L6.47 354.94" class="st2"/>
		</g>
		<g id="shape25489-1123" transform="translate(130.098,-29.5771) rotate(-5.131)">
			<title>Sheet.25489</title>
			<path d="M0 354.94 L6.47 354.94" class="st2"/>
		</g>
		<g id="shape25490-1126" transform="translate(516.779,320.666) rotate(90)">
			<title>Sheet.25490</title>
			<path d="M0 354.94 L0.25 354.94" class="st2"/>
		</g>
		<g id="shape25491-1129" transform="translate(516.779,321.756) rotate(90)">
			<title>Sheet.25491</title>
			<path d="M0 354.94 L0.25 354.94" class="st2"/>
		</g>
		<g id="shape25492-1132" transform="translate(516.779,322.847) rotate(90)">
			<title>Sheet.25492</title>
			<path d="M0 354.94 L0.25 354.94" class="st2"/>
		</g>
		<g id="shape25493-1135" transform="translate(-186.656,322.519) rotate(-90)">
			<title>Sheet.25493</title>
			<path d="M0 354.94 L0.25 354.94" class="st2"/>
		</g>
		<g id="shape25494-1138" transform="translate(-186.656,321.429) rotate(-90)">
			<title>Sheet.25494</title>
			<path d="M0 354.94 L0.25 354.94" class="st2"/>
		</g>
		<g id="shape25495-1141" transform="translate(-186.656,320.338) rotate(-90)">
			<title>Sheet.25495</title>
			<path d="M0 354.94 L0.25 354.94" class="st2"/>
		</g>
		<g id="shape25496-1144" transform="translate(523.219,318.893) rotate(90)">
			<title>Sheet.25496</title>
			<path d="M0 354.94 L0.35 354.94" class="st2"/>
		</g>
		<g id="shape25497-1147" transform="translate(523.219,323.36) rotate(90)">
			<title>Sheet.25497</title>
			<path d="M0 354.94 L1.27 354.94" class="st2"/>
		</g>
		<g id="shape25498-1150" transform="translate(164.427,-29.4897)">
			<title>Sheet.25498</title>
			<path d="M0 354.94 L1.27 354.94" class="st2"/>
		</g>
		<g id="shape25499-1153" transform="translate(-79.2523,583.52) rotate(-136.643)">
			<title>Sheet.25499</title>
			<path d="M0 354.94 L0.37 354.94" class="st2"/>
		</g>
		<g id="shape25500-1156" transform="translate(-77.985,67.3763) rotate(-43.357)">
			<title>Sheet.25500</title>
			<path d="M0 354.94 L0.37 354.94" class="st2"/>
		</g>
	</g>
</svg>
