<?xml version="1.0" encoding="UTF-8" standalone="no"?>
<!DOCTYPE svg PUBLIC "-//W3C//DTD SVG 1.1//EN" "http://www.w3.org/Graphics/SVG/1.1/DTD/svg11.dtd">
<!-- Generated by Microsoft Visio, SVG Export nRF_UDP_Client_Server.svg Page-1 -->
<svg xmlns="http://www.w3.org/2000/svg" xmlns:xlink="http://www.w3.org/1999/xlink" xmlns:ev="http://www.w3.org/2001/xml-events"
		width="8in" height="2.5in" viewBox="0 0 1148.98 354.938" xml:space="preserve" color-interpolation-filters="sRGB"
		class="st15">
	<style type="text/css">
	<![CDATA[
		.st1 {fill:none}
		.st2 {stroke:#000000;stroke-linecap:round;stroke-linejoin:round;stroke-width:0.75}
		.st3 {stroke:#000000;stroke-linecap:butt;stroke-width:0.75}
		.st4 {fill:none;stroke:none;stroke-linecap:round;stroke-linejoin:round;stroke-width:0.75}
		.st5 {fill:#000000;font-family:Calibri;font-size:1.88976em}
		.st6 {stroke:#dfdfdf;stroke-linecap:round;stroke-linejoin:round;stroke-width:0.75}
		.st7 {fill:#000000;font-family:Calibri;font-size:0.944893em}
		.st8 {font-size:1em}
		.st9 {fill:#dfdfdf;font-family:Calibri;font-size:1.25983em}
		.st10 {fill:#000000;font-family:Calibri;font-size:1.25983em}
		.st11 {fill:#dfdfdf;font-family:Calibri;font-size:0.944893em}
		.st12 {fill:#000000;font-family:Calibri;font-size:0.629929em}
		.st13 {fill:none;stroke:#000000;stroke-linecap:butt;stroke-width:0.75}
		.st14 {fill:#000000;font-family:Calibri;font-size:0.472435em}
		.st15 {fill:none;fill-rule:evenodd;font-size:12px;overflow:visible;stroke-linecap:square;stroke-miterlimit:3}
	]]>
	</style>

	<g>
		<title>Page-1</title>
		<g id="shape24544-1" transform="translate(478.745,-80.3194)">
			<title>Sheet.24544</title>
			<path d="M0.23 354.94 C0.03 351.72 -0.18 348.51 0.23 345.3 C0.86 340.25 2.99 335.23 6.28 331.4 C11.53 325.31 19.74 322.28
						 28.03 320.87 C35.74 319.56 43.52 319.65 50.46 322.21 C54.21 323.6 57.72 325.71 61.22 327.82 L0.23 354.94
						 Z" class="st1"/>
			<path d="M0.23 354.94 C0.03 351.72 -0.18 348.51 0.23 345.3 C0.86 340.25 2.99 335.23 6.28 331.4 C11.53 325.31 19.74 322.28
						 28.03 320.87 C35.74 319.56 43.52 319.65 50.46 322.21 C54.21 323.6 57.72 325.71 61.22 327.82" class="st2"/>
		</g>
		<g id="shape24545-4" transform="translate(532.492,-111.635)">
			<title>Sheet.24545</title>
			<path d="M0 354.94 C2.22 352.44 4.56 350.12 7.25 348.37 C13.05 344.62 20.52 343.53 27.88 343.67 C33.49 343.77 39.03 344.59
						 43.58 347.25 C44.7 347.9 45.75 348.66 46.77 349.49 L0 354.94 Z" class="st1"/>
			<path d="M0 354.94 C2.22 352.44 4.56 350.12 7.25 348.37 C13.05 344.62 20.52 343.53 27.88 343.67 C33.49 343.77 39.03 344.59
						 43.58 347.25 C44.7 347.9 45.75 348.66 46.77 349.49" class="st2"/>
		</g>
		<g id="shape24546-7" transform="translate(576.477,-113.351)">
			<title>Sheet.24546</title>
			<path d="M0 354.94 C2.53 351.32 5.23 347.9 8.79 345.61 C15.63 341.2 25.67 340.9 33.46 344.04 C36.91 345.43 39.93 347.5
						 42.82 349.74 L0 354.94 Z" class="st1"/>
			<path d="M0 354.94 C2.53 351.32 5.23 347.9 8.79 345.61 C15.63 341.2 25.67 340.9 33.46 344.04 C36.91 345.43 39.93 347.5
						 42.82 349.74" class="st2"/>
		</g>
		<g id="shape24547-10" transform="translate(614.299,-107.507)">
			<title>Sheet.24547</title>
			<path d="M0 347.53 C4.18 344.37 8.42 341.34 13.17 339.27 C18.62 336.9 24.74 335.81 30.8 336.64 C35.59 337.3 40.33 339.16
						 43.7 342.25 C47.23 345.49 49.25 350.08 51 354.91 C51 354.92 51 354.92 51 354.93 C51 354.93 51 354.93 51
						 354.94 L0 347.53 Z" class="st1"/>
			<path d="M0 347.53 C4.18 344.37 8.42 341.34 13.17 339.27 C18.62 336.9 24.74 335.81 30.8 336.64 C35.59 337.3 40.33 339.16
						 43.7 342.25 C47.23 345.49 49.25 350.08 51 354.91 C51 354.92 51 354.92 51 354.93 C51 354.93 51 354.93 51
						 354.94" class="st2"/>
		</g>
		<g id="shape24548-13" transform="translate(663.843,-73.9621)">
			<title>Sheet.24548</title>
			<path d="M0 321.51 C2.67 321.28 3.89 321.26 5.12 321.33 C8.51 321.54 11.99 322.51 14.68 324.49 C17.77 326.75 19.83 330.33
						 21 334.13 C22.13 337.8 22.43 341.67 21.35 345.27 C20.5 348.07 18.82 350.71 16.61 352.54 C15.4 353.55 14.02
						 354.31 12.56 354.94 L0 321.51 Z" class="st1"/>
			<path d="M0 321.51 C2.67 321.28 3.89 321.26 5.12 321.33 C8.51 321.54 11.99 322.51 14.68 324.49 C17.77 326.75 19.83 330.33
						 21 334.13 C22.13 337.8 22.43 341.67 21.35 345.27 C20.5 348.07 18.82 350.71 16.61 352.54 C15.4 353.55 14.02
						 354.31 12.56 354.94" class="st2"/>
		</g>
		<g id="shape24549-16" transform="translate(665.561,-40.0397)">
			<title>Sheet.24549</title>
			<path d="M18.27 314.53 C20.91 317.53 23.33 320.63 24.67 324.3 C25.92 327.73 26.21 331.65 25.37 335.26 C24.6 338.58 22.86
						 341.64 20.63 344.2 C17.77 347.49 14.08 349.94 10.1 351.83 C6.88 353.35 3.46 354.5 0 354.94 L18.27 314.53
						 Z" class="st1"/>
			<path d="M18.27 314.53 C20.91 317.53 23.33 320.63 24.67 324.3 C25.92 327.73 26.21 331.65 25.37 335.26 C24.6 338.58 22.86
						 341.64 20.63 344.2 C17.77 347.49 14.08 349.94 10.1 351.83 C6.88 353.35 3.46 354.5 0 354.94" class="st2"/>
		</g>
		<g id="shape24550-19" transform="translate(643.759,-40.0397)">
			<title>Sheet.24550</title>
			<path d="M0 336.18 C4.06 338.13 8.11 340.08 11.22 343.13 C13.47 345.34 15.22 348.13 16.38 351.2 C16.83 352.41 17.19 353.67
						 17.44 354.94 L0 336.18 Z" class="st1"/>
			<path d="M0 336.18 C4.06 338.13 8.11 340.08 11.22 343.13 C13.47 345.34 15.22 348.13 16.38 351.2 C16.83 352.41 17.19 353.67
						 17.44 354.94" class="st2"/>
		</g>
		<g id="shape24551-22" transform="translate(612.775,-14.273)">
			<title>Sheet.24551</title>
			<path d="M48.79 332.01 C48.9 333.89 48.74 335.76 48.26 337.54 C46.7 343.21 41.78 347.87 36.37 350.77 C29.69 354.33 22.24
						 355.21 14.83 355.03 C11.25 354.94 7.67 354.6 4.29 353.68 C2.83 353.28 1.4 352.77 0 352.17 L48.79 332.01
						 Z" class="st1"/>
			<path d="M48.79 332.01 C48.9 333.89 48.74 335.76 48.26 337.54 C46.7 343.21 41.78 347.87 36.37 350.77 C29.69 354.33 22.24
						 355.21 14.83 355.03 C11.25 354.94 7.67 354.6 4.29 353.68 C2.83 353.28 1.4 352.77 0 352.17" class="st2"/>
		</g>
		<g id="shape24552-25" transform="translate(543.443,0)">
			<title>Sheet.24552</title>
			<path d="M71.96 330.7 C70.53 335.49 68.78 340.04 65.77 343.67 C60.74 349.72 52.22 353.18 44.01 354.43 C37.03 355.49 30.28
						 354.96 23.38 353.53 C17.16 352.25 10.82 350.24 6.33 346.13 C3.84 343.86 1.92 340.95 0 338.03 L71.96 330.7
						 Z" class="st1"/>
			<path d="M71.96 330.7 C70.53 335.49 68.78 340.04 65.77 343.67 C60.74 349.72 52.22 353.18 44.01 354.43 C37.03 355.49 30.28
						 354.96 23.38 353.53 C17.16 352.25 10.82 350.24 6.33 346.13 C3.84 343.86 1.92 340.95 0 338.03" class="st2"/>
		</g>
		<g id="shape24553-28" transform="translate(490.928,-5.58812)">
			<title>Sheet.24553</title>
			<path d="M57.25 350.1 C57.22 350.11 57.2 350.12 57.18 350.13 C57.18 350.13 57.17 350.13 57.17 350.13 C52.59 351.84 47.96
						 353.33 43.14 354.19 C34.54 355.71 25.37 355.19 17.12 351.95 C11.38 349.68 6.08 346.1 2.32 341.41 C1.47 340.36
						 0.71 339.25 0 338.11 L57.25 350.1 Z" class="st1"/>
			<path d="M57.25 350.1 C57.22 350.11 57.2 350.12 57.18 350.13 C57.18 350.13 57.17 350.13 57.17 350.13 C52.59 351.84 47.96
						 353.33 43.14 354.19 C34.54 355.71 25.37 355.19 17.12 351.95 C11.38 349.68 6.08 346.1 2.32 341.41 C1.47 340.36
						 0.71 339.25 0 338.11" class="st2"/>
		</g>
		<g id="shape24554-31" transform="translate(463.723,-22.3953)">
			<title>Sheet.24554</title>
			<path d="M31.85 354.63 C28.69 354.91 25.47 355.04 22.12 354.85 C14.93 354.44 7.11 352.54 3.05 347.23 C1.52 345.23 0.52
						 342.74 -0 340.13 L31.85 354.63 Z" class="st1"/>
			<path d="M31.85 354.63 C28.69 354.91 25.47 355.04 22.12 354.85 C14.93 354.44 7.11 352.54 3.05 347.23 C1.52 345.23 0.52
						 342.74 -0 340.13" class="st2"/>
		</g>
		<g id="shape24555-34" transform="translate(463.32,-40.0397)">
			<title>Sheet.24555</title>
			<path d="M0.02 354.94 C-0.15 352.4 0.11 349.86 0.99 347.61 C1.76 345.62 3.02 343.85 4.45 342.16 L0.02 354.94 Z"
					class="st1"/>
			<path d="M0.02 354.94 C-0.15 352.4 0.11 349.86 0.99 347.61 C1.76 345.62 3.02 343.85 4.45 342.16" class="st2"/>
		</g>
		<g id="shape24556-37" transform="translate(456.743,-48.8131)">
			<title>Sheet.24556</title>
			<path d="M24.56 354.94 C21.4 354.34 18.26 353.6 15.19 352.57 C11.36 351.29 7.63 349.54 4.65 346.74 C2.56 344.79 0.84
						 342.34 0.24 339.58 C-0.44 336.42 0.36 332.86 2.09 330.11 C5.04 325.41 10.72 323.1 16.12 321.43 C18.12 320.81
						 20.08 320.28 22.03 319.78 L24.56 354.94 Z" class="st1"/>
			<path d="M24.56 354.94 C21.4 354.34 18.26 353.6 15.19 352.57 C11.36 351.29 7.63 349.54 4.65 346.74 C2.56 344.79 0.84
						 342.34 0.24 339.58 C-0.44 336.42 0.36 332.86 2.09 330.11 C5.04 325.41 10.72 323.1 16.12 321.43 C18.12 320.81
						 20.08 320.28 22.03 319.78" class="st2"/>
		</g>
		<g id="shape24557-40" transform="translate(0,-9.62588)">
			<title>Sheet.24557</title>
			<path d="M225.81 327.36 L225.81 354.94 L0 354.94 L0 248.63 L225.81 248.63 L225.81 324.52 L225.81 324.52 L225.81 327.36
						 Z" class="st1"/>
			<path d="M225.81 327.36 L225.81 354.94 L0 354.94 L0 248.63 L225.81 248.63 L225.81 324.52 L225.81 324.52" class="st3"/>
		</g>
		<g id="shape24558-43" transform="translate(931.272,-17.5753)">
			<title>Sheet.24558</title>
			<path d="M0 332.47 L0 265.77 L209.33 265.77 L209.33 354.94 L0 354.94 L0 335.31 L0 335.31 L0 332.47 Z" class="st1"/>
			<path d="M0 332.47 L0 265.77 L209.33 265.77 L209.33 354.94 L0 354.94 L0 335.31 L0 335.31" class="st3"/>
		</g>
		<g id="shape24559-46" transform="translate(923.164,-9.62588)">
			<title>Sheet.24559</title>
			<path d="M0 324.52 L0 248.63 L225.81 248.63 L225.81 354.94 L0 354.94 L0 327.36 L0 327.36 L0 324.52 Z" class="st1"/>
			<path d="M0 324.52 L0 248.63 L225.81 248.63 L225.81 354.94 L0 354.94 L0 327.36 L0 327.36" class="st3"/>
		</g>
		<g id="shape24560-49" transform="translate(473.795,-54.5177)">
			<title>Sheet.24560</title>
			<desc>Internet</desc>
			<rect x="0" y="332.261" width="197.596" height="22.6772" class="st4"/>
			<text x="61.19" y="350.4" class="st5">Internet</text>		</g>
		<g id="shape24561-52" transform="translate(565.986,-199.88)">
			<title>Sheet.24561</title>
			<path d="M0 354.94 L4.25 354.94" class="st6"/>
		</g>
		<g id="shape24562-55" transform="translate(578.742,-199.88)">
			<title>Sheet.24562</title>
			<path d="M0 354.94 L4.25 354.94" class="st6"/>
		</g>
		<g id="shape24563-58" transform="translate(248.52,-3.67514) rotate(-63.4349)">
			<title>Sheet.24563</title>
			<path d="M0 354.94 L19.02 354.94" class="st6"/>
		</g>
		<g id="shape24564-61" transform="translate(891.956,-20.683) rotate(63.4349)">
			<title>Sheet.24564</title>
			<path d="M0 354.94 L19.02 354.94" class="st6"/>
		</g>
		<g id="shape24565-64" transform="translate(565.986,-139.843)">
			<title>Sheet.24565</title>
			<path d="M0 354.94 L4.25 354.94" class="st6"/>
		</g>
		<g id="shape24566-67" transform="translate(578.742,-139.843)">
			<title>Sheet.24566</title>
			<path d="M0 354.94 L4.25 354.94" class="st6"/>
		</g>
		<g id="shape24567-70" transform="translate(883.452,56.362) rotate(63.4349)">
			<title>Sheet.24567</title>
			<path d="M0 354.94 L19.02 354.94" class="st6"/>
		</g>
		<g id="shape24568-73" transform="translate(257.024,73.3699) rotate(-63.4349)">
			<title>Sheet.24568</title>
			<path d="M0 354.94 L19.02 354.94" class="st6"/>
		</g>
		<g id="shape24569-76" transform="translate(215.3,215.095) rotate(-90)">
			<title>Sheet.24569</title>
			<path d="M0 354.94 L60.04 354.94" class="st6"/>
		</g>
		<g id="shape24570-79" transform="translate(933.679,155.058) rotate(90)">
			<title>Sheet.24570</title>
			<path d="M0 354.94 L60.04 354.94" class="st6"/>
		</g>
		<g id="shape24571-82" transform="translate(280.957,-9.62588)">
			<title>Sheet.24571</title>
			<path d="M69.26 327.36 L69.26 354.94 L0 354.94 L0 327.36 L0 327.36 L69.26 327.36 Z" class="st1"/>
			<path d="M69.26 327.36 L69.26 354.94 L0 354.94 L0 327.36 L0 327.36" class="st3"/>
		</g>
		<g id="shape24572-85" transform="translate(280.957,-40.0397)">
			<title>Sheet.24572</title>
			<path d="M0 354.94 L0 279.04 L69.26 279.04 L69.26 354.94 L69.26 354.94 L0 354.94 Z" class="st1"/>
			<path d="M0 354.94 L0 279.04 L69.26 279.04 L69.26 354.94 L69.26 354.94" class="st3"/>
		</g>
		<g id="shape24573-88" transform="translate(216.367,-59.6827)">
			<title>Sheet.24573</title>
			<desc>BLE enabled router</desc>
			<rect x="0" y="343.599" width="197.596" height="11.3386" class="st4"/>
			<text x="90.56" y="339.06" class="st7">BLE <tspan x="80.2" dy="1.2em" class="st8">enabled </tspan><tspan x="84.16"
						dy="1.2em" class="st8">router</tspan></text>		</g>
		<g id="shape24574-93" transform="translate(597.761,283.653) rotate(90)">
			<title>Sheet.24574</title>
			<path d="M0 354.94 L4.25 354.94" class="st2"/>
		</g>
		<g id="shape24575-96" transform="translate(597.761,296.409) rotate(90)">
			<title>Sheet.24575</title>
			<path d="M0 354.94 L4.25 354.94" class="st2"/>
		</g>
		<g id="shape24576-99" transform="translate(401.556,601.119) rotate(153.435)">
			<title>Sheet.24576</title>
			<path d="M0 354.94 L19.02 354.94" class="st2"/>
		</g>
		<g id="shape24577-102" transform="translate(384.548,-25.3089) rotate(26.5651)">
			<title>Sheet.24577</title>
			<path d="M0 354.94 L19.02 354.94" class="st2"/>
		</g>
		<g id="shape24578-105" transform="translate(242.823,-67.0326)">
			<title>Sheet.24578</title>
			<path d="M0 354.94 L21.13 354.94" class="st2"/>
		</g>
		<g id="shape24579-108" transform="translate(263.949,651.347) rotate(180)">
			<title>Sheet.24579</title>
			<path d="M0 354.94 L21.13 354.94" class="st2"/>
		</g>
		<g id="shape24580-111" transform="translate(618.887,283.653) rotate(90)">
			<title>Sheet.24580</title>
			<path d="M0 354.94 L4.25 354.94" class="st2"/>
		</g>
		<g id="shape24581-114" transform="translate(618.887,296.409) rotate(90)">
			<title>Sheet.24581</title>
			<path d="M0 354.94 L4.25 354.94" class="st2"/>
		</g>
		<g id="shape24582-117" transform="translate(422.682,-33.8128) rotate(26.5651)">
			<title>Sheet.24582</title>
			<path d="M0 354.94 L19.02 354.94" class="st2"/>
		</g>
		<g id="shape24583-120" transform="translate(439.69,609.623) rotate(153.435)">
			<title>Sheet.24583</title>
			<path d="M0 354.94 L19.02 354.94" class="st2"/>
		</g>
		<g id="shape24584-123" transform="translate(794.335,283.653) rotate(90)">
			<title>Sheet.24584</title>
			<path d="M0 354.94 L4.25 354.94" class="st2"/>
		</g>
		<g id="shape24585-126" transform="translate(794.335,296.409) rotate(90)">
			<title>Sheet.24585</title>
			<path d="M0 354.94 L4.25 354.94" class="st2"/>
		</g>
		<g id="shape24586-129" transform="translate(598.131,-33.8128) rotate(26.5651)">
			<title>Sheet.24586</title>
			<path d="M0 354.94 L19.02 354.94" class="st2"/>
		</g>
		<g id="shape24587-132" transform="translate(615.139,609.623) rotate(153.435)">
			<title>Sheet.24587</title>
			<path d="M0 354.94 L19.02 354.94" class="st2"/>
		</g>
		<g id="shape24588-135" transform="translate(722.164,283.653) rotate(90)">
			<title>Sheet.24588</title>
			<path d="M0 354.94 L4.25 354.94" class="st2"/>
		</g>
		<g id="shape24589-138" transform="translate(722.164,296.409) rotate(90)">
			<title>Sheet.24589</title>
			<path d="M0 354.94 L4.25 354.94" class="st2"/>
		</g>
		<g id="shape24590-141" transform="translate(525.959,601.119) rotate(153.435)">
			<title>Sheet.24590</title>
			<path d="M0 354.94 L19.02 354.94" class="st2"/>
		</g>
		<g id="shape24591-144" transform="translate(508.951,-25.3089) rotate(26.5651)">
			<title>Sheet.24591</title>
			<path d="M0 354.94 L19.02 354.94" class="st2"/>
		</g>
		<g id="shape24592-147" transform="translate(367.226,-67.0326)">
			<title>Sheet.24592</title>
			<path d="M0 354.94 L72.17 354.94" class="st2"/>
		</g>
		<g id="shape24593-150" transform="translate(439.398,651.347) rotate(180)">
			<title>Sheet.24593</title>
			<path d="M0 354.94 L72.17 354.94" class="st2"/>
		</g>
		<g id="shape24594-153" transform="translate(798.761,-40.0397)">
			<title>Sheet.24594</title>
			<path d="M69.26 354.94 L69.26 279.04 L0 279.04 L0 354.94 L0 354.94 L69.26 354.94 Z" class="st1"/>
			<path d="M69.26 354.94 L69.26 279.04 L0 279.04 L0 354.94 L0 354.94" class="st3"/>
		</g>
		<g id="shape24595-156" transform="translate(798.761,-9.62588)">
			<title>Sheet.24595</title>
			<path d="M0 327.36 L0 354.94 L69.26 354.94 L69.26 327.36 L69.26 327.36 L0 327.36 Z" class="st1"/>
			<path d="M0 327.36 L0 354.94 L69.26 354.94 L69.26 327.36 L69.26 327.36" class="st3"/>
		</g>
		<g id="shape24596-159" transform="translate(1261.09,283.653) rotate(90)">
			<title>Sheet.24596</title>
			<path d="M0 354.94 L4.25 354.94" class="st2"/>
		</g>
		<g id="shape24597-162" transform="translate(1261.09,296.409) rotate(90)">
			<title>Sheet.24597</title>
			<path d="M0 354.94 L4.25 354.94" class="st2"/>
		</g>
		<g id="shape24598-165" transform="translate(1064.89,-33.8128) rotate(26.5651)">
			<title>Sheet.24598</title>
			<path d="M0 354.94 L19.02 354.94" class="st2"/>
		</g>
		<g id="shape24599-168" transform="translate(1081.9,609.623) rotate(153.435)">
			<title>Sheet.24599</title>
			<path d="M0 354.94 L19.02 354.94" class="st2"/>
		</g>
		<g id="shape24600-171" transform="translate(906.156,642.843) rotate(180)">
			<title>Sheet.24600</title>
			<path d="M0 354.94 L21.13 354.94" class="st2"/>
		</g>
		<g id="shape24601-174" transform="translate(885.03,-58.5287)">
			<title>Sheet.24601</title>
			<path d="M0 354.94 L21.13 354.94" class="st2"/>
		</g>
		<g id="shape24602-177" transform="translate(1239.97,283.653) rotate(90)">
			<title>Sheet.24602</title>
			<path d="M0 354.94 L4.25 354.94" class="st2"/>
		</g>
		<g id="shape24603-180" transform="translate(1239.97,296.409) rotate(90)">
			<title>Sheet.24603</title>
			<path d="M0 354.94 L4.25 354.94" class="st2"/>
		</g>
		<g id="shape24604-183" transform="translate(1043.76,601.119) rotate(153.435)">
			<title>Sheet.24604</title>
			<path d="M0 354.94 L19.02 354.94" class="st2"/>
		</g>
		<g id="shape24605-186" transform="translate(1026.76,-25.3089) rotate(26.5651)">
			<title>Sheet.24605</title>
			<path d="M0 354.94 L19.02 354.94" class="st2"/>
		</g>
		<g id="shape24606-189" transform="translate(1064.52,283.653) rotate(90)">
			<title>Sheet.24606</title>
			<path d="M0 354.94 L4.25 354.94" class="st2"/>
		</g>
		<g id="shape24607-192" transform="translate(1064.52,296.409) rotate(90)">
			<title>Sheet.24607</title>
			<path d="M0 354.94 L4.25 354.94" class="st2"/>
		</g>
		<g id="shape24608-195" transform="translate(868.314,601.119) rotate(153.435)">
			<title>Sheet.24608</title>
			<path d="M0 354.94 L19.02 354.94" class="st2"/>
		</g>
		<g id="shape24609-198" transform="translate(851.307,-25.3089) rotate(26.5651)">
			<title>Sheet.24609</title>
			<path d="M0 354.94 L19.02 354.94" class="st2"/>
		</g>
		<g id="shape24610-201" transform="translate(1136.69,283.653) rotate(90)">
			<title>Sheet.24610</title>
			<path d="M0 354.94 L4.25 354.94" class="st2"/>
		</g>
		<g id="shape24611-204" transform="translate(1136.69,296.409) rotate(90)">
			<title>Sheet.24611</title>
			<path d="M0 354.94 L4.25 354.94" class="st2"/>
		</g>
		<g id="shape24612-207" transform="translate(940.486,-33.8128) rotate(26.5651)">
			<title>Sheet.24612</title>
			<path d="M0 354.94 L19.02 354.94" class="st2"/>
		</g>
		<g id="shape24613-210" transform="translate(957.494,609.623) rotate(153.435)">
			<title>Sheet.24613</title>
			<path d="M0 354.94 L19.02 354.94" class="st2"/>
		</g>
		<g id="shape24614-213" transform="translate(781.753,642.843) rotate(180)">
			<title>Sheet.24614</title>
			<path d="M0 354.94 L72.17 354.94" class="st2"/>
		</g>
		<g id="shape24615-216" transform="translate(709.582,-58.5287)">
			<title>Sheet.24615</title>
			<path d="M0 354.94 L72.17 354.94" class="st2"/>
		</g>
		<g id="shape24616-219" transform="translate(734.171,-59.6827)">
			<title>Sheet.24616</title>
			<desc>BLE enabled router</desc>
			<rect x="0" y="343.599" width="197.596" height="11.3386" class="st4"/>
			<text x="90.56" y="339.06" class="st7">BLE <tspan x="80.2" dy="1.2em" class="st8">enabled </tspan><tspan x="84.16"
						dy="1.2em" class="st8">router</tspan></text>		</g>
		<g id="shape24631-224" transform="translate(935.418,669.836) rotate(180)">
			<title>Sheet.24631</title>
			<path d="M0 354.94 L720.66 354.94" class="st2"/>
		</g>
		<g id="shape24632-227" transform="translate(935.418,672.67) rotate(180)">
			<title>Sheet.24632</title>
			<path d="M0 354.94 L720.66 354.94" class="st2"/>
		</g>
		<g id="shape24633-230" transform="translate(776.685,2.51964) rotate(-26.5651)">
			<title>Sheet.24633</title>
			<path d="M0 354.94 L8.21 354.94" class="st2"/>
		</g>
		<g id="shape24634-233" transform="translate(784.026,633.781) rotate(-153.435)">
			<title>Sheet.24634</title>
			<path d="M0 354.94 L8.21 354.94" class="st2"/>
		</g>
		<g id="shape24635-236" transform="translate(580.48,319.986) rotate(-90)">
			<title>Sheet.24635</title>
			<path d="M0 354.94 L2.25 354.94" class="st2"/>
		</g>
		<g id="shape24636-239" transform="translate(580.48,314.898) rotate(-90)">
			<title>Sheet.24636</title>
			<path d="M0 354.94 L2.25 354.94" class="st2"/>
		</g>
		<g id="shape24637-242" transform="translate(56.0294,637.452) rotate(-153.435)">
			<title>Sheet.24637</title>
			<path d="M0 354.94 L8.21 354.94" class="st2"/>
		</g>
		<g id="shape24638-245" transform="translate(48.6888,-1.15063) rotate(-26.5651)">
			<title>Sheet.24638</title>
			<path d="M0 354.94 L8.21 354.94" class="st2"/>
		</g>
		<g id="shape24639-248" transform="translate(-140.175,319.986) rotate(-90)">
			<title>Sheet.24639</title>
			<path d="M0 354.94 L2.25 354.94" class="st2"/>
		</g>
		<g id="shape24640-251" transform="translate(-140.175,314.898) rotate(-90)">
			<title>Sheet.24640</title>
			<path d="M0 354.94 L2.25 354.94" class="st2"/>
		</g>
		<g id="shape24933-254" transform="translate(499.906,-354.938)">
			<title>Sheet.24933</title>
			<path d="M0 354.94 L151.71 354.94" class="st6"/>
		</g>
		<g id="shape24934-257" transform="translate(497.185,-352.199)">
			<title>Sheet.24934</title>
			<path d="M2.72 352.2 A2.72126 2.72126 -180 0 0 0 354.94 L2.72 352.2 Z" class="st1"/>
			<path d="M2.72 352.2 A2.72126 2.72126 -180 0 0 0 354.94" class="st6"/>
		</g>
		<g id="shape24935-260" transform="translate(502.205,-348.082)">
			<title>Sheet.24935</title>
			<path d="M0 354.94 L147.22 354.94" class="st6"/>
		</g>
		<g id="shape24936-263" transform="translate(501.525,-347.399)">
			<title>Sheet.24936</title>
			<path d="M0.68 354.25 a0.680315 0.680315 -180 0 0 -0.680308 0.6834 L0.68 354.25 Z" class="st1"/>
			<path d="M0.68 354.25 a0.680315 0.680315 -180 0 0 -0.680308 0.6834" class="st6"/>
		</g>
		<g id="shape24937-266" transform="translate(501.899,-264.995)">
			<title>Sheet.24937</title>
			<path d="M0 354.94 L148.25 354.94" class="st6"/>
		</g>
		<g id="shape24938-269" transform="translate(502.578,-264.447)">
			<title>Sheet.24938</title>
			<path d="M0 354.94 L146.89 354.94" class="st6"/>
		</g>
		<g id="shape24939-272" transform="translate(499.814,-257.454)">
			<title>Sheet.24939</title>
			<path d="M0 354.94 L152.25 354.94" class="st6"/>
		</g>
		<g id="shape24940-275" transform="translate(497.773,-257.763)">
			<title>Sheet.24940</title>
			<path d="M0 353.22 A2.04094 2.04094 -180 0 0 0.96 354.94 L0 353.22 Z" class="st1"/>
			<path d="M0 353.22 A2.04094 2.04094 -180 0 0 0.96 354.94" class="st6"/>
		</g>
		<g id="shape24941-278" transform="translate(498.735,-257.454)">
			<title>Sheet.24941</title>
			<path d="M-0 354.63 A2.04094 2.04094 -180 0 0 1.08 354.94 L0 354.63 Z" class="st1"/>
			<path d="M-0 354.63 A2.04094 2.04094 -180 0 0 1.08 354.94" class="st6"/>
		</g>
		<g id="shape24942-281" transform="translate(483.284,-238.43)">
			<title>Sheet.24942</title>
			<path d="M0 354.94 L0.84 354.94" class="st6"/>
		</g>
		<g id="shape24943-284" transform="translate(484.12,-238.43)">
			<title>Sheet.24943</title>
			<path d="M0 354.94 L183.1 354.94" class="st6"/>
		</g>
		<g id="shape24944-287" transform="translate(667.218,-238.43)">
			<title>Sheet.24944</title>
			<path d="M0 354.94 L0.83 354.94" class="st6"/>
		</g>
		<g id="shape24945-290" transform="translate(473.999,-225.831)">
			<title>Sheet.24945</title>
			<path d="M0 354.94 L202.61 354.94" class="st6"/>
		</g>
		<g id="shape24946-293" transform="translate(473.482,-226.953)">
			<title>Sheet.24946</title>
		</g>
		<g id="shape24947-294" transform="translate(473.319,-225.831)">
			<title>Sheet.24947</title>
			<path d="M0 354.26 a0.680315 0.680315 -180 0 0 0.680315 0.680315 L0 354.26 Z" class="st1"/>
			<path d="M0 354.26 a0.680315 0.680315 -180 0 0 0.680315 0.680315" class="st6"/>
		</g>
		<g id="shape24948-297" transform="translate(485.787,-219.576)">
			<title>Sheet.24948</title>
			<path d="M0 354.94 L175.97 354.94" class="st6"/>
		</g>
		<g id="shape24949-300" transform="translate(852.115,0.486632) rotate(89.6365)">
			<title>Sheet.24949</title>
			<path d="M0 354.94 L92.72 354.94" class="st6"/>
		</g>
		<g id="shape24950-303" transform="translate(856.459,5.9294) rotate(89.7402)">
			<title>Sheet.24950</title>
			<path d="M0 354.94 L82.28 354.94" class="st6"/>
		</g>
		<g id="shape24951-306" transform="translate(501.898,-264.447)">
			<title>Sheet.24951</title>
			<path d="M0 354.26 a0.680315 0.680315 -180 0 0 0.680308 0.67723 L0 354.26 Z" class="st1"/>
			<path d="M0 354.26 a0.680315 0.680315 -180 0 0 0.680308 0.67723" class="st6"/>
		</g>
		<g id="shape24952-309" transform="translate(1005.05,7.36509) rotate(89.9725)">
			<title>Sheet.24952</title>
			<path d="M0 354.94 L82.28 354.94" class="st6"/>
		</g>
		<g id="shape24953-312" transform="translate(649.467,-264.447)">
			<title>Sheet.24953</title>
			<path d="M-0 354.94 a0.680315 0.680315 -180 0 0 0.680315 -0.680641 L0 354.94 Z" class="st1"/>
			<path d="M-0 354.94 a0.680315 0.680315 -180 0 0 0.680315 -0.680641" class="st6"/>
		</g>
		<g id="shape24954-315" transform="translate(649.427,-347.402)">
			<title>Sheet.24954</title>
			<path d="M0.68 354.94 a0.680315 0.680315 -180 0 0 -0.680315 -0.679989 L0.68 354.94 Z" class="st1"/>
			<path d="M0.68 354.94 a0.680315 0.680315 -180 0 0 -0.680315 -0.679989" class="st6"/>
		</g>
		<g id="shape24955-318" transform="translate(299.171,94.5649) rotate(-89.8575)">
			<title>Sheet.24955</title>
			<path d="M0 354.94 L92.72 354.94" class="st6"/>
		</g>
		<g id="shape24956-321" transform="translate(652.067,-257.454)">
			<title>Sheet.24956</title>
			<path d="M-0 354.94 A2.04094 2.04094 -180 0 0 1.51 354.27 L0 354.94 Z" class="st1"/>
			<path d="M-0 354.94 A2.04094 2.04094 -180 0 0 1.51 354.27" class="st6"/>
		</g>
		<g id="shape24957-324" transform="translate(653.581,-258.127)">
			<title>Sheet.24957</title>
			<path d="M0 354.94 A2.04094 2.04094 -180 0 0 0.53 353.57 L0 354.94 Z" class="st1"/>
			<path d="M0 354.94 A2.04094 2.04094 -180 0 0 0.53 353.57" class="st6"/>
		</g>
		<g id="shape24958-327" transform="translate(651.617,-352.21)">
			<title>Sheet.24958</title>
			<path d="M2.72 354.94 A2.72126 2.72126 -180 0 0 -0 352.21 L2.72 354.94 Z" class="st1"/>
			<path d="M2.72 354.94 A2.72126 2.72126 -180 0 0 -0 352.21" class="st6"/>
		</g>
		<g id="shape24959-330" transform="translate(767.133,330.685) rotate(130.499)">
			<title>Sheet.24959</title>
			<path d="M0 354.94 L3.2 354.94" class="st6"/>
		</g>
		<g id="shape24960-333" transform="translate(753.183,347.018) rotate(130.499)">
			<title>Sheet.24960</title>
			<path d="M0 354.94 L15.09 354.94" class="st6"/>
		</g>
		<g id="shape24961-336" transform="translate(933.258,-120.336) rotate(51.6576)">
			<title>Sheet.24961</title>
			<path d="M0 354.94 L3.51 354.94" class="st6"/>
		</g>
		<g id="shape24962-339" transform="translate(946.43,-103.682) rotate(51.6576)">
			<title>Sheet.24962</title>
			<path d="M0 354.94 L14.66 354.94" class="st6"/>
		</g>
		<g id="shape24963-342" transform="translate(676.607,-225.831)">
			<title>Sheet.24963</title>
			<path d="M0 354.94 a0.680315 0.680315 -180 0 0 0.680315 -0.680315 L0 354.94 Z" class="st1"/>
			<path d="M0 354.94 a0.680315 0.680315 -180 0 0 0.680315 -0.680315" class="st6"/>
		</g>
		<g id="shape24964-345" transform="translate(677.287,-226.511)">
			<title>Sheet.24964</title>
		</g>
		<g id="shape24965-346" transform="translate(759.767,476.862) rotate(166.45)">
			<title>Sheet.24965</title>
			<path d="M0 354.94 L15.11 354.94" class="st6"/>
		</g>
		<g id="shape24966-349" transform="translate(661.76,-219.576)">
			<title>Sheet.24966</title>
		</g>
		<g id="shape24967-350" transform="translate(531.943,-237.686)">
			<title>Sheet.24967</title>
			<path d="M0 354.94 L45.36 354.94" class="st6"/>
		</g>
		<g id="shape24968-353" transform="translate(531.003,-237.063)">
			<title>Sheet.24968</title>
			<path d="M0.94 354.31 A1.02047 1.02047 -180 0 0 -0 354.94 L0.94 354.31 Z" class="st1"/>
			<path d="M0.94 354.31 A1.02047 1.02047 -180 0 0 -0 354.94" class="st6"/>
		</g>
		<g id="shape24969-356" transform="translate(528.111,-228.392)">
			<title>Sheet.24969</title>
			<path d="M0 354.94 L49.15 354.94" class="st6"/>
		</g>
		<g id="shape24970-359" transform="translate(578.287,479.818) rotate(180)">
			<title>Sheet.24970</title>
			<path d="M0 354.94 L50.24 354.94" class="st6"/>
		</g>
		<g id="shape24971-362" transform="translate(857.984,255.949) rotate(112.893)">
			<title>Sheet.24971</title>
			<path d="M0 354.94 L8.64 354.94" class="st6"/>
		</g>
		<g id="shape24972-365" transform="translate(527.641,-228.392)">
			<title>Sheet.24972</title>
			<path d="M0 354.23 a0.510236 0.510236 -180 0 0 0.470047 0.708723 L0 354.23 Z" class="st1"/>
			<path d="M0 354.23 a0.510236 0.510236 -180 0 0 0.470047 0.708723" class="st6"/>
		</g>
		<g id="shape24973-368" transform="translate(901.848,192.983) rotate(101.062)">
			<title>Sheet.24973</title>
			<path d="M0 354.94 L1.7 354.94" class="st6"/>
		</g>
		<g id="shape24974-371" transform="translate(901.472,192.983) rotate(101.062)">
			<title>Sheet.24974</title>
			<path d="M0 354.94 L1.7 354.94" class="st6"/>
		</g>
		<g id="shape24975-374" transform="translate(933.254,120.091) rotate(90.2929)">
			<title>Sheet.24975</title>
			<path d="M0 354.94 L7.25 354.94" class="st6"/>
		</g>
		<g id="shape24976-377" transform="translate(577.263,-228.392)">
			<title>Sheet.24976</title>
			<path d="M0 354.94 A1.02047 1.02047 -180 0 0 1.02 353.92 L0 354.94 Z" class="st1"/>
			<path d="M0 354.94 A1.02047 1.02047 -180 0 0 1.02 353.92" class="st6"/>
		</g>
		<g id="shape24977-380" transform="translate(577.3,-236.661)">
			<title>Sheet.24977</title>
			<path d="M1.02 354.94 A1.02047 1.02047 -180 0 0 -0 353.91 L1.02 354.94 Z" class="st1"/>
			<path d="M1.02 354.94 A1.02047 1.02047 -180 0 0 -0 353.91" class="st6"/>
		</g>
		<g id="shape24978-383" transform="translate(497.804,-256.736)">
			<title>Sheet.24978</title>
			<path d="M0 354.94 L156.58 354.94" class="st6"/>
		</g>
		<g id="shape24979-386" transform="translate(654.382,-255.085)">
			<title>Sheet.24979</title>
			<path d="M0 353.29 A3.46711 3.46711 -180 0 0 0.49 354.94 L0 353.29 Z" class="st1"/>
			<path d="M0 353.29 A3.46711 3.46711 -180 0 0 0.49 354.94" class="st6"/>
		</g>
		<g id="shape24980-389" transform="translate(497.234,-254.764)">
			<title>Sheet.24980</title>
			<path d="M0 354.94 A3.52318 3.52318 -180 0 0 0.57 352.97 L0 354.94 Z" class="st1"/>
			<path d="M0 354.94 A3.52318 3.52318 -180 0 0 0.57 352.97" class="st6"/>
		</g>
		<g id="shape24981-392" transform="translate(234.92,-140.279) rotate(-47.7865)">
			<title>Sheet.24981</title>
			<path d="M0 354.94 L1.39 354.94" class="st6"/>
		</g>
		<g id="shape24982-395" transform="translate(346.817,275.359) rotate(-119.942)">
			<title>Sheet.24982</title>
			<path d="M0 354.94 L1.6 354.94" class="st6"/>
		</g>
		<g id="shape24983-398" transform="translate(382.191,474.876) rotate(-163.063)">
			<title>Sheet.24983</title>
			<path d="M0 354.94 L12.12 354.94" class="st6"/>
		</g>
		<g id="shape24984-401" transform="translate(485.59,-219.605)">
			<title>Sheet.24984</title>
		</g>
		<g id="shape24985-402" transform="translate(473.999,-223.134)">
			<title>Sheet.24985</title>
			<path d="M0 354.94 L202.61 354.94" class="st6"/>
		</g>
		<g id="shape24986-405" transform="translate(473.319,-223.134)">
			<title>Sheet.24986</title>
			<path d="M0 354.26 a0.680315 0.680315 -180 0 0 0.680315 0.680315 L0 354.26 Z" class="st1"/>
			<path d="M0 354.26 a0.680315 0.680315 -180 0 0 0.680315 0.680315" class="st6"/>
		</g>
		<g id="shape24987-408" transform="translate(676.607,-223.134)">
			<title>Sheet.24987</title>
			<path d="M0 354.94 a0.680315 0.680315 -180 0 0 0.680315 -0.680315 L0 354.94 Z" class="st1"/>
			<path d="M0 354.94 a0.680315 0.680315 -180 0 0 0.680315 -0.680315" class="st6"/>
		</g>
		<g id="shape24988-411" transform="translate(1032.22,128.426) rotate(90)">
			<title>Sheet.24988</title>
			<path d="M0 354.94 L2.7 354.94" class="st6"/>
		</g>
		<g id="shape24989-414" transform="translate(828.257,128.426) rotate(90)">
			<title>Sheet.24989</title>
			<path d="M0 354.94 L2.7 354.94" class="st6"/>
		</g>
		<g id="shape24990-417" transform="translate(764.965,334.123) rotate(130.319)">
			<title>Sheet.24990</title>
			<path d="M0 354.94 L15.8 354.94" class="st6"/>
		</g>
		<g id="shape24991-420" transform="translate(494.342,-250.476)">
			<title>Sheet.24991</title>
			<path d="M0 354.94 A3.34859 3.34859 -180 0 0 0.81 353.08 L0 354.94 Z" class="st1"/>
			<path d="M0 354.94 A3.34859 3.34859 -180 0 0 0.81 353.08" class="st6"/>
		</g>
		<g id="shape24992-423" transform="translate(936.181,-115.626) rotate(51.7331)">
			<title>Sheet.24992</title>
			<path d="M0 354.94 L15.68 354.94" class="st6"/>
		</g>
		<g id="shape24993-426" transform="translate(495.153,-252.332)">
			<title>Sheet.24993</title>
			<path d="M0 354.94 L161.9 354.94" class="st6"/>
		</g>
		<g id="shape24994-429" transform="translate(657.051,-250.741)">
			<title>Sheet.24994</title>
			<path d="M0 353.35 A3.46711 3.46711 -180 0 0 0.46 354.94 L0 353.35 Z" class="st1"/>
			<path d="M0 353.35 A3.46711 3.46711 -180 0 0 0.46 354.94" class="st6"/>
		</g>
		<g id="shape24995-432" transform="translate(505.162,-251.357)">
			<title>Sheet.24995</title>
			<path d="M0 354.94 L110.07 354.94" class="st6"/>
		</g>
		<g id="shape24996-435" transform="translate(618.74,-251.357)">
			<title>Sheet.24996</title>
			<path d="M0 354.94 L27.86 354.94" class="st6"/>
		</g>
		<g id="shape24997-438" transform="translate(618.268,-250.652)">
			<title>Sheet.24997</title>
			<path d="M0.47 354.23 a0.510236 0.510236 -180 0 0 -0.471621 0.704953 L0.47 354.23 Z" class="st1"/>
			<path d="M0.47 354.23 a0.510236 0.510236 -180 0 0 -0.471621 0.704953" class="st6"/>
		</g>
		<g id="shape24998-441" transform="translate(504.335,-250.934)">
			<title>Sheet.24998</title>
			<path d="M0.83 354.51 A1.02047 1.02047 -180 0 0 0 354.94 L0.83 354.51 Z" class="st1"/>
			<path d="M0.83 354.51 A1.02047 1.02047 -180 0 0 0 354.94" class="st6"/>
		</g>
		<g id="shape24999-444" transform="translate(941.432,-94.842) rotate(55.9235)">
			<title>Sheet.24999</title>
			<path d="M0 354.94 L12.64 354.94" class="st6"/>
		</g>
		<g id="shape25000-447" transform="translate(646.595,-250.908)">
			<title>Sheet.25000</title>
			<path d="M0.85 354.94 A1.02047 1.02047 -180 0 0 -0 354.49 L0.85 354.94 Z" class="st1"/>
			<path d="M0.85 354.94 A1.02047 1.02047 -180 0 0 -0 354.49" class="st6"/>
		</g>
		<g id="shape25001-450" transform="translate(654.24,-239.909)">
			<title>Sheet.25001</title>
			<path d="M0 354.94 a0.340157 0.340157 -180 0 0 0.281749 -0.530747 L0 354.94 Z" class="st1"/>
			<path d="M0 354.94 a0.340157 0.340157 -180 0 0 0.281749 -0.530747" class="st6"/>
		</g>
		<g id="shape25002-453" transform="translate(792.209,311.632) rotate(125.801)">
			<title>Sheet.25002</title>
			<path d="M0 354.94 L12.93 354.94" class="st6"/>
		</g>
		<g id="shape25003-456" transform="translate(496.71,-239.909)">
			<title>Sheet.25003</title>
			<path d="M0.06 354.4 a0.340157 0.340157 -180 0 0 0.275887 0.539139 L0.06 354.4 Z" class="st1"/>
			<path d="M0.06 354.4 a0.340157 0.340157 -180 0 0 0.275887 0.539139" class="st6"/>
		</g>
		<g id="shape25004-459" transform="translate(497.048,-239.909)">
			<title>Sheet.25004</title>
			<path d="M0 354.94 L122.83 354.94" class="st6"/>
		</g>
		<g id="shape25005-462" transform="translate(623.386,-239.909)">
			<title>Sheet.25005</title>
			<path d="M0 354.94 L30.85 354.94" class="st6"/>
		</g>
		<g id="shape25006-465" transform="translate(654.24,-239.205)">
			<title>Sheet.25006</title>
		</g>
		<g id="shape25007-466" transform="translate(497.048,-239.205)">
			<title>Sheet.25007</title>
		</g>
		<g id="shape25008-467" transform="translate(497.048,-238.865)">
			<title>Sheet.25008</title>
			<path d="M0 354.94 L122.83 354.94" class="st6"/>
		</g>
		<g id="shape25009-470" transform="translate(623.386,-238.865)">
			<title>Sheet.25009</title>
			<path d="M0 354.94 L30.85 354.94" class="st6"/>
		</g>
		<g id="shape25010-473" transform="translate(1009.52,114.689) rotate(90)">
			<title>Sheet.25010</title>
			<path d="M0 354.94 L1.04 354.94" class="st6"/>
		</g>
		<g id="shape25011-476" transform="translate(851.645,114.689) rotate(90)">
			<title>Sheet.25011</title>
			<path d="M0 354.94 L1.04 354.94" class="st6"/>
		</g>
		<g id="shape25012-479" transform="translate(946.344,-31.1661) rotate(67.5659)">
			<title>Sheet.25012</title>
			<path d="M0 354.94 L10.94 354.94" class="st6"/>
		</g>
		<g id="shape25013-482" transform="translate(622.443,-239.909)">
			<title>Sheet.25013</title>
			<path d="M0 354.31 A1.02047 1.02047 -180 0 0 0.94 354.94 L0 354.31 Z" class="st1"/>
			<path d="M0 354.31 A1.02047 1.02047 -180 0 0 0.94 354.94" class="st6"/>
		</g>
		<g id="shape25014-485" transform="translate(946.344,-30.1216) rotate(67.5659)">
			<title>Sheet.25014</title>
			<path d="M0 354.94 L10.94 354.94" class="st6"/>
		</g>
		<g id="shape25015-488" transform="translate(944.249,-31.24) rotate(67.5659)">
			<title>Sheet.25015</title>
			<path d="M0 354.94 L10.94 354.94" class="st6"/>
		</g>
		<g id="shape25016-491" transform="translate(619.877,-239.909)">
			<title>Sheet.25016</title>
			<path d="M0 354.94 a0.510236 0.510236 -180 0 0 0.471621 -0.704953 L0 354.94 Z" class="st1"/>
			<path d="M0 354.94 a0.510236 0.510236 -180 0 0 0.471621 -0.704953" class="st6"/>
		</g>
		<g id="shape25017-494" transform="translate(615.23,-250.726)">
			<title>Sheet.25017</title>
			<path d="M0.94 354.94 A1.02047 1.02047 -180 0 0 0 354.31 L0.94 354.94 Z" class="st1"/>
			<path d="M0.94 354.94 A1.02047 1.02047 -180 0 0 0 354.31" class="st6"/>
		</g>
		<g id="shape25018-497" transform="translate(974.814,115.029) rotate(90)">
			<title>Sheet.25018</title>
			<path d="M0 354.94 L1.04 354.94" class="st6"/>
		</g>
		<g id="shape25019-500" transform="translate(619.877,-238.865)">
			<title>Sheet.25019</title>
			<path d="M0 354.94 a0.510236 0.510236 -180 0 0 0.510236 -0.510236 L0 354.94 Z" class="st1"/>
			<path d="M0 354.94 a0.510236 0.510236 -180 0 0 0.510236 -0.510236" class="st6"/>
		</g>
		<g id="shape25020-503" transform="translate(265.449,115.563) rotate(-90)">
			<title>Sheet.25020</title>
			<path d="M0 354.94 L1.04 354.94" class="st6"/>
		</g>
		<g id="shape25021-506" transform="translate(978.324,115.029) rotate(90)">
			<title>Sheet.25021</title>
			<path d="M0 354.94 L1.04 354.94" class="st6"/>
		</g>
		<g id="shape25022-509" transform="translate(622.443,-238.865)">
			<title>Sheet.25022</title>
			<path d="M-0 354.31 A1.02047 1.02047 -180 0 0 0.94 354.94 L0 354.31 Z" class="st1"/>
			<path d="M-0 354.31 A1.02047 1.02047 -180 0 0 0.94 354.94" class="st6"/>
		</g>
		<g id="shape25023-512" transform="translate(977.381,114.398) rotate(90)">
			<title>Sheet.25023</title>
			<path d="M0 354.94 L1.04 354.94" class="st6"/>
		</g>
		<g id="shape25024-515" transform="translate(973.167,104.091) rotate(90)">
			<title>Sheet.25024</title>
			<path d="M0 354.94 L1.04 354.94" class="st6"/>
		</g>
		<g id="shape25025-518" transform="translate(618.74,-249.803)">
			<title>Sheet.25025</title>
		</g>
		<g id="shape25026-519" transform="translate(1009.18,115.029) rotate(90)">
			<title>Sheet.25026</title>
			<path d="M0 354.94 L1.04 354.94" class="st6"/>
		</g>
		<g id="shape25027-522" transform="translate(1031.54,129.107) rotate(90)">
			<title>Sheet.25027</title>
			<path d="M0 354.94 L2.7 354.94" class="st6"/>
		</g>
		<g id="shape25028-525" transform="translate(828.937,129.107) rotate(90)">
			<title>Sheet.25028</title>
			<path d="M0 354.94 L2.7 354.94" class="st6"/>
		</g>
		<g id="shape25029-528" transform="translate(851.986,115.029) rotate(90)">
			<title>Sheet.25029</title>
			<path d="M0 354.94 L1.04 354.94" class="st6"/>
		</g>
		<g id="shape25033-531" transform="translate(514.135,-321.163)">
			<title>Sheet.25033</title>
			<desc>UDP client/server</desc>
			<rect x="0" y="339.82" width="197.596" height="15.1181" class="st4"/>
			<text x="0" y="349.65" class="st9">UDP client/server</text>		</g>
		<g id="shape25147-534" transform="translate(8.10764,-17.5753)">
			<title>Sheet.25147</title>
			<path d="M209.33 335.31 L209.33 354.94 L0 354.94 L0 265.77 L209.33 265.77 L209.33 332.47 L209.33 332.47 L209.33 335.31
						 Z" class="st1"/>
			<path d="M209.33 335.31 L209.33 354.94 L0 354.94 L0 265.77 L209.33 265.77 L209.33 332.47 L209.33 332.47" class="st3"/>
		</g>
		<g id="shape25158-537" transform="translate(14.4218,-79.5716)">
			<title>Sheet.25158</title>
			<desc>UDP client</desc>
			<rect x="0" y="339.82" width="197.596" height="15.1181" class="st4"/>
			<text x="0" y="349.65" class="st10">UDP client</text>		</g>
		<g id="shape25159-540" transform="translate(939.865,-78.4329)">
			<title>Sheet.25159</title>
			<desc>UDP server</desc>
			<rect x="0" y="339.82" width="197.596" height="15.1181" class="st4"/>
			<text x="0" y="349.65" class="st10">UDP server</text>		</g>
		<g id="shape25160-543" transform="translate(335.833,-69.2306)">
			<title>Sheet.25160</title>
			<desc>UDP/IPv6</desc>
			<rect x="0" y="343.599" width="135.084" height="11.3386" class="st4"/>
			<text x="45.51" y="354.37" class="st7">UDP/IPv6</text>		</g>
		<g id="shape25161-546" transform="translate(938.972,117.534) rotate(90)">
			<title>Sheet.25161</title>
			<desc>UDP/IPv6</desc>
			<rect x="0" y="343.599" width="135.084" height="11.3386" class="st4"/>
			<text x="45.51" y="354.37" class="st11">UDP/IPv6</text>		</g>
		<g id="shape25162-549" transform="translate(678.189,-69.2306)">
			<title>Sheet.25162</title>
			<desc>UDP/IPv6</desc>
			<rect x="0" y="343.599" width="135.084" height="11.3386" class="st4"/>
			<text x="45.51" y="354.37" class="st7">UDP/IPv6</text>		</g>
		<g id="shape25169-552" transform="translate(185.907,-72.2014)">
			<title>Sheet.25169</title>
			<desc>BLE 6lowpan</desc>
			<rect x="0" y="347.379" width="135.084" height="7.55906" class="st4"/>
			<text x="47.94" y="354.56" class="st12">BLE 6lowpan</text>		</g>
		<g id="shape25170-555" transform="translate(828.114,-72.2014)">
			<title>Sheet.25170</title>
			<desc>BLE 6lowpan</desc>
			<rect x="0" y="347.379" width="135.084" height="7.55906" class="st4"/>
			<text x="47.94" y="354.56" class="st12">BLE 6lowpan</text>		</g>
		<g id="shape25721-558" transform="translate(1108.88,-25.693)">
			<title>Sheet.25721</title>
			<path d="M0 354.94 L22.68 354.94 L22.68 319.72 L0 319.72 L0 354.94 Z" class="st13"/>
		</g>
		<g id="shape25722-560" transform="translate(1113.19,-45.0639)">
			<title>Sheet.25722</title>
			<path d="M12.44 354.94 A7.04425 7.04425 -180 1 0 1.62 354.94 L12.44 354.94 Z" class="st1"/>
			<path d="M12.44 354.94 A7.04425 7.04425 -180 1 0 1.62 354.94" class="st2"/>
		</g>
		<g id="shape25723-563" transform="translate(1108.19,-62.845)">
			<title>Sheet.25723</title>
			<desc>Light 2</desc>
			<rect x="0" y="349.268" width="24.2894" height="5.66929" class="st4"/>
			<text x="4.45" y="354.65" class="st14">Light 2</text>		</g>
		<g id="shape25724-566" transform="translate(1117,-36.0443)">
			<title>Sheet.25724</title>
			<path d="M0 354.94 L6.44 354.94" class="st2"/>
		</g>
		<g id="shape25725-569" transform="translate(1114.81,-36.0443)">
			<title>Sheet.25725</title>
			<path d="M2.19 354.94 A17.0418 17.0418 -180 0 0 0 345.92 L2.19 354.94 Z" class="st1"/>
			<path d="M2.19 354.94 A17.0418 17.0418 -180 0 0 0 345.92" class="st2"/>
		</g>
		<g id="shape25726-572" transform="translate(1123.44,-36.0443)">
			<title>Sheet.25726</title>
			<path d="M2.19 345.92 A17.0418 17.0418 -180 0 0 0 354.94 L2.19 345.92 Z" class="st1"/>
			<path d="M2.19 345.92 A17.0418 17.0418 -180 0 0 0 354.94" class="st2"/>
		</g>
		<g id="shape25727-575" transform="translate(1117,-30.305)">
			<title>Sheet.25727</title>
			<path d="M0 354.94 L6.44 354.94" class="st2"/>
		</g>
		<g id="shape25728-578" transform="translate(1117.6,-29.7424)">
			<title>Sheet.25728</title>
			<path d="M0 354.94 L5.25 354.94" class="st2"/>
		</g>
		<g id="shape25729-581" transform="translate(873.449,582.825) rotate(-136.539)">
			<title>Sheet.25729</title>
			<path d="M0 354.94 L0.82 354.94" class="st2"/>
		</g>
		<g id="shape25730-584" transform="translate(878.702,67.566) rotate(-43.4609)">
			<title>Sheet.25730</title>
			<path d="M0 354.94 L0.82 354.94" class="st2"/>
		</g>
		<g id="shape25731-587" transform="translate(1471.94,318.893) rotate(90)">
			<title>Sheet.25731</title>
			<path d="M0 354.94 L0.93 354.94" class="st2"/>
		</g>
		<g id="shape25732-590" transform="translate(762.065,324.633) rotate(-90)">
			<title>Sheet.25732</title>
			<path d="M0 354.94 L0.69 354.94" class="st2"/>
		</g>
		<g id="shape25733-593" transform="translate(867.498,576.382) rotate(-135.336)">
			<title>Sheet.25733</title>
			<path d="M0 354.94 L0.45 354.94" class="st2"/>
		</g>
		<g id="shape25734-596" transform="translate(867.175,70.973) rotate(-44.6645)">
			<title>Sheet.25734</title>
			<path d="M0 354.94 L0.45 354.94" class="st2"/>
		</g>
		<g id="shape25735-599" transform="translate(1116.78,-31.4197)">
			<title>Sheet.25735</title>
		</g>
		<g id="shape25736-600" transform="translate(873.938,70.9158) rotate(-44.6645)">
			<title>Sheet.25736</title>
			<path d="M0 354.94 L0.45 354.94" class="st2"/>
		</g>
		<g id="shape25737-603" transform="translate(874.262,575.283) rotate(-135.336)">
			<title>Sheet.25737</title>
			<path d="M0 354.94 L0.45 354.94" class="st2"/>
		</g>
		<g id="shape25738-606" transform="translate(1123.67,-31.998)">
			<title>Sheet.25738</title>
		</g>
		<g id="shape25739-607" transform="translate(867.498,575.292) rotate(-135.336)">
			<title>Sheet.25739</title>
			<path d="M0 354.94 L0.45 354.94" class="st2"/>
		</g>
		<g id="shape25740-610" transform="translate(867.175,69.8821) rotate(-44.6645)">
			<title>Sheet.25740</title>
			<path d="M0 354.94 L0.45 354.94" class="st2"/>
		</g>
		<g id="shape25741-613" transform="translate(1116.78,-32.5106)">
			<title>Sheet.25741</title>
		</g>
		<g id="shape25742-614" transform="translate(873.938,69.8249) rotate(-44.6645)">
			<title>Sheet.25742</title>
			<path d="M0 354.94 L0.45 354.94" class="st2"/>
		</g>
		<g id="shape25743-617" transform="translate(874.262,574.192) rotate(-135.336)">
			<title>Sheet.25743</title>
			<path d="M0 354.94 L0.45 354.94" class="st2"/>
		</g>
		<g id="shape25744-620" transform="translate(1123.67,-33.0889)">
			<title>Sheet.25744</title>
		</g>
		<g id="shape25745-621" transform="translate(867.498,574.201) rotate(-135.336)">
			<title>Sheet.25745</title>
			<path d="M0 354.94 L0.45 354.94" class="st2"/>
		</g>
		<g id="shape25746-624" transform="translate(867.175,68.7912) rotate(-44.6645)">
			<title>Sheet.25746</title>
			<path d="M0 354.94 L0.45 354.94" class="st2"/>
		</g>
		<g id="shape25747-627" transform="translate(1116.78,-33.6015)">
			<title>Sheet.25747</title>
		</g>
		<g id="shape25748-628" transform="translate(873.938,68.734) rotate(-44.6645)">
			<title>Sheet.25748</title>
			<path d="M0 354.94 L0.45 354.94" class="st2"/>
		</g>
		<g id="shape25749-631" transform="translate(874.262,573.101) rotate(-135.336)">
			<title>Sheet.25749</title>
			<path d="M0 354.94 L0.45 354.94" class="st2"/>
		</g>
		<g id="shape25750-634" transform="translate(1123.67,-34.1798)">
			<title>Sheet.25750</title>
		</g>
		<g id="shape25751-635" transform="translate(867.498,573.11) rotate(-135.336)">
			<title>Sheet.25751</title>
			<path d="M0 354.94 L0.45 354.94" class="st2"/>
		</g>
		<g id="shape25752-638" transform="translate(867.175,67.7003) rotate(-44.6645)">
			<title>Sheet.25752</title>
			<path d="M0 354.94 L0.45 354.94" class="st2"/>
		</g>
		<g id="shape25753-641" transform="translate(1116.78,-34.6924)">
			<title>Sheet.25753</title>
		</g>
		<g id="shape25754-642" transform="translate(873.938,67.6431) rotate(-44.6645)">
			<title>Sheet.25754</title>
			<path d="M0 354.94 L0.45 354.94" class="st2"/>
		</g>
		<g id="shape25755-645" transform="translate(874.262,572.01) rotate(-135.336)">
			<title>Sheet.25755</title>
			<path d="M0 354.94 L0.45 354.94" class="st2"/>
		</g>
		<g id="shape25756-648" transform="translate(1123.67,-35.2707)">
			<title>Sheet.25756</title>
		</g>
		<g id="shape25757-649" transform="translate(1085.26,-33.6903) rotate(-5.131)">
			<title>Sheet.25757</title>
			<path d="M0 354.94 L6.47 354.94" class="st2"/>
		</g>
		<g id="shape25758-652" transform="translate(1085.26,-32.8498) rotate(-5.131)">
			<title>Sheet.25758</title>
			<path d="M0 354.94 L6.47 354.94" class="st2"/>
		</g>
		<g id="shape25759-655" transform="translate(1085.26,-32.5994) rotate(-5.131)">
			<title>Sheet.25759</title>
			<path d="M0 354.94 L6.47 354.94" class="st2"/>
		</g>
		<g id="shape25760-658" transform="translate(1085.26,-31.7589) rotate(-5.131)">
			<title>Sheet.25760</title>
			<path d="M0 354.94 L6.47 354.94" class="st2"/>
		</g>
		<g id="shape25761-661" transform="translate(1085.26,-31.5085) rotate(-5.131)">
			<title>Sheet.25761</title>
			<path d="M0 354.94 L6.47 354.94" class="st2"/>
		</g>
		<g id="shape25762-664" transform="translate(1085.26,-30.668) rotate(-5.131)">
			<title>Sheet.25762</title>
			<path d="M0 354.94 L6.47 354.94" class="st2"/>
		</g>
		<g id="shape25763-667" transform="translate(1085.26,-30.4176) rotate(-5.131)">
			<title>Sheet.25763</title>
			<path d="M0 354.94 L6.47 354.94" class="st2"/>
		</g>
		<g id="shape25764-670" transform="translate(1085.26,-29.5771) rotate(-5.131)">
			<title>Sheet.25764</title>
			<path d="M0 354.94 L6.47 354.94" class="st2"/>
		</g>
		<g id="shape25765-673" transform="translate(1471.94,320.666) rotate(90)">
			<title>Sheet.25765</title>
			<path d="M0 354.94 L0.25 354.94" class="st2"/>
		</g>
		<g id="shape25766-676" transform="translate(1471.94,321.756) rotate(90)">
			<title>Sheet.25766</title>
			<path d="M0 354.94 L0.25 354.94" class="st2"/>
		</g>
		<g id="shape25767-679" transform="translate(1471.94,322.847) rotate(90)">
			<title>Sheet.25767</title>
			<path d="M0 354.94 L0.25 354.94" class="st2"/>
		</g>
		<g id="shape25768-682" transform="translate(768.506,322.519) rotate(-90)">
			<title>Sheet.25768</title>
			<path d="M0 354.94 L0.25 354.94" class="st2"/>
		</g>
		<g id="shape25769-685" transform="translate(768.506,321.429) rotate(-90)">
			<title>Sheet.25769</title>
			<path d="M0 354.94 L0.25 354.94" class="st2"/>
		</g>
		<g id="shape25770-688" transform="translate(768.506,320.338) rotate(-90)">
			<title>Sheet.25770</title>
			<path d="M0 354.94 L0.25 354.94" class="st2"/>
		</g>
		<g id="shape25771-691" transform="translate(1478.38,318.893) rotate(90)">
			<title>Sheet.25771</title>
			<path d="M0 354.94 L0.35 354.94" class="st2"/>
		</g>
		<g id="shape25772-694" transform="translate(1478.38,323.36) rotate(90)">
			<title>Sheet.25772</title>
			<path d="M0 354.94 L1.27 354.94" class="st2"/>
		</g>
		<g id="shape25773-697" transform="translate(1119.59,-29.4897)">
			<title>Sheet.25773</title>
			<path d="M0 354.94 L1.27 354.94" class="st2"/>
		</g>
		<g id="shape25774-700" transform="translate(875.91,583.52) rotate(-136.643)">
			<title>Sheet.25774</title>
			<path d="M0 354.94 L0.37 354.94" class="st2"/>
		</g>
		<g id="shape25775-703" transform="translate(877.177,67.3763) rotate(-43.357)">
			<title>Sheet.25775</title>
			<path d="M0 354.94 L0.37 354.94" class="st2"/>
		</g>
		<g id="shape25776-706" transform="translate(1076.89,-25.693)">
			<title>Sheet.25776</title>
			<path d="M0 354.94 L22.68 354.94 L22.68 319.72 L0 319.72 L0 354.94 Z" class="st13"/>
		</g>
		<g id="shape25777-708" transform="translate(1081.19,-45.0639)">
			<title>Sheet.25777</title>
			<path d="M12.44 354.94 A7.04425 7.04425 -180 1 0 1.62 354.94 L12.44 354.94 Z" class="st1"/>
			<path d="M12.44 354.94 A7.04425 7.04425 -180 1 0 1.62 354.94" class="st2"/>
		</g>
		<g id="shape25778-711" transform="translate(1076.19,-62.845)">
			<title>Sheet.25778</title>
			<desc>Light 1</desc>
			<rect x="0" y="349.268" width="24.2894" height="5.66929" class="st4"/>
			<text x="4.45" y="354.65" class="st14">Light 1</text>		</g>
		<g id="shape25779-714" transform="translate(1085.01,-36.0443)">
			<title>Sheet.25779</title>
			<path d="M0 354.94 L6.44 354.94" class="st2"/>
		</g>
		<g id="shape25780-717" transform="translate(1082.81,-36.0443)">
			<title>Sheet.25780</title>
			<path d="M2.19 354.94 A17.0418 17.0418 -180 0 0 -0 345.92 L2.19 354.94 Z" class="st1"/>
			<path d="M2.19 354.94 A17.0418 17.0418 -180 0 0 -0 345.92" class="st2"/>
		</g>
		<g id="shape25781-720" transform="translate(1091.45,-36.0443)">
			<title>Sheet.25781</title>
			<path d="M2.19 345.92 A17.0418 17.0418 -180 0 0 0 354.94 L2.19 345.92 Z" class="st1"/>
			<path d="M2.19 345.92 A17.0418 17.0418 -180 0 0 0 354.94" class="st2"/>
		</g>
		<g id="shape25782-723" transform="translate(1085.01,-30.305)">
			<title>Sheet.25782</title>
			<path d="M0 354.94 L6.44 354.94" class="st2"/>
		</g>
		<g id="shape25783-726" transform="translate(1085.6,-29.7424)">
			<title>Sheet.25783</title>
			<path d="M0 354.94 L5.25 354.94" class="st2"/>
		</g>
		<g id="shape25784-729" transform="translate(841.452,582.825) rotate(-136.539)">
			<title>Sheet.25784</title>
			<path d="M0 354.94 L0.82 354.94" class="st2"/>
		</g>
		<g id="shape25785-732" transform="translate(846.705,67.566) rotate(-43.4609)">
			<title>Sheet.25785</title>
			<path d="M0 354.94 L0.82 354.94" class="st2"/>
		</g>
		<g id="shape25786-735" transform="translate(1439.94,318.893) rotate(90)">
			<title>Sheet.25786</title>
			<path d="M0 354.94 L0.93 354.94" class="st2"/>
		</g>
		<g id="shape25787-738" transform="translate(730.067,324.633) rotate(-90)">
			<title>Sheet.25787</title>
			<path d="M0 354.94 L0.69 354.94" class="st2"/>
		</g>
		<g id="shape25788-741" transform="translate(835.5,576.382) rotate(-135.336)">
			<title>Sheet.25788</title>
			<path d="M0 354.94 L0.45 354.94" class="st2"/>
		</g>
		<g id="shape25789-744" transform="translate(835.177,70.973) rotate(-44.6645)">
			<title>Sheet.25789</title>
			<path d="M0 354.94 L0.45 354.94" class="st2"/>
		</g>
		<g id="shape25790-747" transform="translate(1084.78,-31.4197)">
			<title>Sheet.25790</title>
		</g>
		<g id="shape25791-748" transform="translate(841.941,70.9158) rotate(-44.6645)">
			<title>Sheet.25791</title>
			<path d="M0 354.94 L0.45 354.94" class="st2"/>
		</g>
		<g id="shape25792-751" transform="translate(842.264,575.283) rotate(-135.336)">
			<title>Sheet.25792</title>
			<path d="M0 354.94 L0.45 354.94" class="st2"/>
		</g>
		<g id="shape25793-754" transform="translate(1091.67,-31.998)">
			<title>Sheet.25793</title>
		</g>
		<g id="shape25794-755" transform="translate(835.5,575.292) rotate(-135.336)">
			<title>Sheet.25794</title>
			<path d="M0 354.94 L0.45 354.94" class="st2"/>
		</g>
		<g id="shape25795-758" transform="translate(835.177,69.8821) rotate(-44.6645)">
			<title>Sheet.25795</title>
			<path d="M0 354.94 L0.45 354.94" class="st2"/>
		</g>
		<g id="shape25796-761" transform="translate(1084.78,-32.5106)">
			<title>Sheet.25796</title>
		</g>
		<g id="shape25797-762" transform="translate(841.941,69.8249) rotate(-44.6645)">
			<title>Sheet.25797</title>
			<path d="M0 354.94 L0.45 354.94" class="st2"/>
		</g>
		<g id="shape25798-765" transform="translate(842.264,574.192) rotate(-135.336)">
			<title>Sheet.25798</title>
			<path d="M0 354.94 L0.45 354.94" class="st2"/>
		</g>
		<g id="shape25799-768" transform="translate(1091.67,-33.0889)">
			<title>Sheet.25799</title>
		</g>
		<g id="shape25800-769" transform="translate(835.5,574.201) rotate(-135.336)">
			<title>Sheet.25800</title>
			<path d="M0 354.94 L0.45 354.94" class="st2"/>
		</g>
		<g id="shape25801-772" transform="translate(835.177,68.7912) rotate(-44.6645)">
			<title>Sheet.25801</title>
			<path d="M0 354.94 L0.45 354.94" class="st2"/>
		</g>
		<g id="shape25802-775" transform="translate(1084.78,-33.6015)">
			<title>Sheet.25802</title>
		</g>
		<g id="shape25803-776" transform="translate(841.941,68.734) rotate(-44.6645)">
			<title>Sheet.25803</title>
			<path d="M0 354.94 L0.45 354.94" class="st2"/>
		</g>
		<g id="shape25804-779" transform="translate(842.264,573.101) rotate(-135.336)">
			<title>Sheet.25804</title>
			<path d="M0 354.94 L0.45 354.94" class="st2"/>
		</g>
		<g id="shape25805-782" transform="translate(1091.67,-34.1798)">
			<title>Sheet.25805</title>
		</g>
		<g id="shape25806-783" transform="translate(835.5,573.11) rotate(-135.336)">
			<title>Sheet.25806</title>
			<path d="M0 354.94 L0.45 354.94" class="st2"/>
		</g>
		<g id="shape25807-786" transform="translate(835.177,67.7003) rotate(-44.6645)">
			<title>Sheet.25807</title>
			<path d="M0 354.94 L0.45 354.94" class="st2"/>
		</g>
		<g id="shape25808-789" transform="translate(1084.78,-34.6924)">
			<title>Sheet.25808</title>
		</g>
		<g id="shape25809-790" transform="translate(841.941,67.6431) rotate(-44.6645)">
			<title>Sheet.25809</title>
			<path d="M0 354.94 L0.45 354.94" class="st2"/>
		</g>
		<g id="shape25810-793" transform="translate(842.264,572.01) rotate(-135.336)">
			<title>Sheet.25810</title>
			<path d="M0 354.94 L0.45 354.94" class="st2"/>
		</g>
		<g id="shape25811-796" transform="translate(1091.67,-35.2707)">
			<title>Sheet.25811</title>
		</g>
		<g id="shape25812-797" transform="translate(1053.26,-33.6903) rotate(-5.131)">
			<title>Sheet.25812</title>
			<path d="M0 354.94 L6.47 354.94" class="st2"/>
		</g>
		<g id="shape25813-800" transform="translate(1053.26,-32.8498) rotate(-5.131)">
			<title>Sheet.25813</title>
			<path d="M0 354.94 L6.47 354.94" class="st2"/>
		</g>
		<g id="shape25814-803" transform="translate(1053.26,-32.5994) rotate(-5.131)">
			<title>Sheet.25814</title>
			<path d="M0 354.94 L6.47 354.94" class="st2"/>
		</g>
		<g id="shape25815-806" transform="translate(1053.26,-31.7589) rotate(-5.131)">
			<title>Sheet.25815</title>
			<path d="M0 354.94 L6.47 354.94" class="st2"/>
		</g>
		<g id="shape25816-809" transform="translate(1053.26,-31.5085) rotate(-5.131)">
			<title>Sheet.25816</title>
			<path d="M0 354.94 L6.47 354.94" class="st2"/>
		</g>
		<g id="shape25817-812" transform="translate(1053.26,-30.668) rotate(-5.131)">
			<title>Sheet.25817</title>
			<path d="M0 354.94 L6.47 354.94" class="st2"/>
		</g>
		<g id="shape25818-815" transform="translate(1053.26,-30.4176) rotate(-5.131)">
			<title>Sheet.25818</title>
			<path d="M0 354.94 L6.47 354.94" class="st2"/>
		</g>
		<g id="shape25819-818" transform="translate(1053.26,-29.5771) rotate(-5.131)">
			<title>Sheet.25819</title>
			<path d="M0 354.94 L6.47 354.94" class="st2"/>
		</g>
		<g id="shape25820-821" transform="translate(1439.94,320.666) rotate(90)">
			<title>Sheet.25820</title>
			<path d="M0 354.94 L0.25 354.94" class="st2"/>
		</g>
		<g id="shape25821-824" transform="translate(1439.94,321.756) rotate(90)">
			<title>Sheet.25821</title>
			<path d="M0 354.94 L0.25 354.94" class="st2"/>
		</g>
		<g id="shape25822-827" transform="translate(1439.94,322.847) rotate(90)">
			<title>Sheet.25822</title>
			<path d="M0 354.94 L0.25 354.94" class="st2"/>
		</g>
		<g id="shape25823-830" transform="translate(736.508,322.519) rotate(-90)">
			<title>Sheet.25823</title>
			<path d="M0 354.94 L0.25 354.94" class="st2"/>
		</g>
		<g id="shape25824-833" transform="translate(736.508,321.429) rotate(-90)">
			<title>Sheet.25824</title>
			<path d="M0 354.94 L0.25 354.94" class="st2"/>
		</g>
		<g id="shape25825-836" transform="translate(736.508,320.338) rotate(-90)">
			<title>Sheet.25825</title>
			<path d="M0 354.94 L0.25 354.94" class="st2"/>
		</g>
		<g id="shape25826-839" transform="translate(1446.38,318.893) rotate(90)">
			<title>Sheet.25826</title>
			<path d="M0 354.94 L0.35 354.94" class="st2"/>
		</g>
		<g id="shape25827-842" transform="translate(1446.38,323.36) rotate(90)">
			<title>Sheet.25827</title>
			<path d="M0 354.94 L1.27 354.94" class="st2"/>
		</g>
		<g id="shape25828-845" transform="translate(1087.59,-29.4897)">
			<title>Sheet.25828</title>
			<path d="M0 354.94 L1.27 354.94" class="st2"/>
		</g>
		<g id="shape25829-848" transform="translate(843.912,583.52) rotate(-136.643)">
			<title>Sheet.25829</title>
			<path d="M0 354.94 L0.37 354.94" class="st2"/>
		</g>
		<g id="shape25830-851" transform="translate(845.179,67.3763) rotate(-43.357)">
			<title>Sheet.25830</title>
			<path d="M0 354.94 L0.37 354.94" class="st2"/>
		</g>
		<g id="shape25831-854" transform="translate(185.72,-25.693)">
			<title>Sheet.25831</title>
			<path d="M0 354.94 L22.68 354.94 L22.68 319.72 L0 319.72 L0 354.94 Z" class="st13"/>
		</g>
		<g id="shape25832-856" transform="translate(190.027,-45.0639)">
			<title>Sheet.25832</title>
			<path d="M12.44 354.94 A7.04425 7.04425 -180 1 0 1.62 354.94 L12.44 354.94 Z" class="st1"/>
			<path d="M12.44 354.94 A7.04425 7.04425 -180 1 0 1.62 354.94" class="st2"/>
		</g>
		<g id="shape25833-859" transform="translate(185.022,-62.845)">
			<title>Sheet.25833</title>
			<desc>Light 2</desc>
			<rect x="0" y="349.268" width="24.2894" height="5.66929" class="st4"/>
			<text x="4.45" y="354.65" class="st14">Light 2</text>		</g>
		<g id="shape25834-862" transform="translate(193.839,-36.0443)">
			<title>Sheet.25834</title>
			<path d="M0 354.94 L6.44 354.94" class="st2"/>
		</g>
		<g id="shape25835-865" transform="translate(191.648,-36.0443)">
			<title>Sheet.25835</title>
			<path d="M2.19 354.94 A17.0418 17.0418 -180 0 0 0 345.92 L2.19 354.94 Z" class="st1"/>
			<path d="M2.19 354.94 A17.0418 17.0418 -180 0 0 0 345.92" class="st2"/>
		</g>
		<g id="shape25836-868" transform="translate(200.279,-36.0443)">
			<title>Sheet.25836</title>
			<path d="M2.19 345.92 A17.0418 17.0418 -180 0 0 0 354.94 L2.19 345.92 Z" class="st1"/>
			<path d="M2.19 345.92 A17.0418 17.0418 -180 0 0 0 354.94" class="st2"/>
		</g>
		<g id="shape25837-871" transform="translate(193.839,-30.305)">
			<title>Sheet.25837</title>
			<path d="M0 354.94 L6.44 354.94" class="st2"/>
		</g>
		<g id="shape25838-874" transform="translate(194.432,-29.7424)">
			<title>Sheet.25838</title>
			<path d="M0 354.94 L5.25 354.94" class="st2"/>
		</g>
		<g id="shape25839-877" transform="translate(-49.715,582.825) rotate(-136.539)">
			<title>Sheet.25839</title>
			<path d="M0 354.94 L0.82 354.94" class="st2"/>
		</g>
		<g id="shape25840-880" transform="translate(-44.462,67.566) rotate(-43.4609)">
			<title>Sheet.25840</title>
			<path d="M0 354.94 L0.82 354.94" class="st2"/>
		</g>
		<g id="shape25841-883" transform="translate(548.776,318.893) rotate(90)">
			<title>Sheet.25841</title>
			<path d="M0 354.94 L0.93 354.94" class="st2"/>
		</g>
		<g id="shape25842-886" transform="translate(-161.099,324.633) rotate(-90)">
			<title>Sheet.25842</title>
			<path d="M0 354.94 L0.69 354.94" class="st2"/>
		</g>
		<g id="shape25843-889" transform="translate(-55.6663,576.382) rotate(-135.336)">
			<title>Sheet.25843</title>
			<path d="M0 354.94 L0.45 354.94" class="st2"/>
		</g>
		<g id="shape25844-892" transform="translate(-55.9895,70.973) rotate(-44.6645)">
			<title>Sheet.25844</title>
			<path d="M0 354.94 L0.45 354.94" class="st2"/>
		</g>
		<g id="shape25845-895" transform="translate(193.615,-31.4197)">
			<title>Sheet.25845</title>
		</g>
		<g id="shape25846-896" transform="translate(-49.2259,70.9158) rotate(-44.6645)">
			<title>Sheet.25846</title>
			<path d="M0 354.94 L0.45 354.94" class="st2"/>
		</g>
		<g id="shape25847-899" transform="translate(-48.9027,575.283) rotate(-135.336)">
			<title>Sheet.25847</title>
			<path d="M0 354.94 L0.45 354.94" class="st2"/>
		</g>
		<g id="shape25848-902" transform="translate(200.503,-31.998)">
			<title>Sheet.25848</title>
		</g>
		<g id="shape25849-903" transform="translate(-55.6663,575.292) rotate(-135.336)">
			<title>Sheet.25849</title>
			<path d="M0 354.94 L0.45 354.94" class="st2"/>
		</g>
		<g id="shape25850-906" transform="translate(-55.9895,69.8821) rotate(-44.6645)">
			<title>Sheet.25850</title>
			<path d="M0 354.94 L0.45 354.94" class="st2"/>
		</g>
		<g id="shape25851-909" transform="translate(193.615,-32.5106)">
			<title>Sheet.25851</title>
		</g>
		<g id="shape25852-910" transform="translate(-49.2259,69.8249) rotate(-44.6645)">
			<title>Sheet.25852</title>
			<path d="M0 354.94 L0.45 354.94" class="st2"/>
		</g>
		<g id="shape25853-913" transform="translate(-48.9027,574.192) rotate(-135.336)">
			<title>Sheet.25853</title>
			<path d="M0 354.94 L0.45 354.94" class="st2"/>
		</g>
		<g id="shape25854-916" transform="translate(200.503,-33.0889)">
			<title>Sheet.25854</title>
		</g>
		<g id="shape25855-917" transform="translate(-55.6663,574.201) rotate(-135.336)">
			<title>Sheet.25855</title>
			<path d="M0 354.94 L0.45 354.94" class="st2"/>
		</g>
		<g id="shape25856-920" transform="translate(-55.9895,68.7912) rotate(-44.6645)">
			<title>Sheet.25856</title>
			<path d="M0 354.94 L0.45 354.94" class="st2"/>
		</g>
		<g id="shape25857-923" transform="translate(193.615,-33.6015)">
			<title>Sheet.25857</title>
		</g>
		<g id="shape25858-924" transform="translate(-49.2259,68.734) rotate(-44.6645)">
			<title>Sheet.25858</title>
			<path d="M0 354.94 L0.45 354.94" class="st2"/>
		</g>
		<g id="shape25859-927" transform="translate(-48.9027,573.101) rotate(-135.336)">
			<title>Sheet.25859</title>
			<path d="M0 354.94 L0.45 354.94" class="st2"/>
		</g>
		<g id="shape25860-930" transform="translate(200.503,-34.1798)">
			<title>Sheet.25860</title>
		</g>
		<g id="shape25861-931" transform="translate(-55.6663,573.11) rotate(-135.336)">
			<title>Sheet.25861</title>
			<path d="M0 354.94 L0.45 354.94" class="st2"/>
		</g>
		<g id="shape25862-934" transform="translate(-55.9895,67.7003) rotate(-44.6645)">
			<title>Sheet.25862</title>
			<path d="M0 354.94 L0.45 354.94" class="st2"/>
		</g>
		<g id="shape25863-937" transform="translate(193.615,-34.6924)">
			<title>Sheet.25863</title>
		</g>
		<g id="shape25864-938" transform="translate(-49.2259,67.6431) rotate(-44.6645)">
			<title>Sheet.25864</title>
			<path d="M0 354.94 L0.45 354.94" class="st2"/>
		</g>
		<g id="shape25865-941" transform="translate(-48.9027,572.01) rotate(-135.336)">
			<title>Sheet.25865</title>
			<path d="M0 354.94 L0.45 354.94" class="st2"/>
		</g>
		<g id="shape25866-944" transform="translate(200.503,-35.2707)">
			<title>Sheet.25866</title>
		</g>
		<g id="shape25867-945" transform="translate(162.095,-33.6903) rotate(-5.131)">
			<title>Sheet.25867</title>
			<path d="M0 354.94 L6.47 354.94" class="st2"/>
		</g>
		<g id="shape25868-948" transform="translate(162.095,-32.8498) rotate(-5.131)">
			<title>Sheet.25868</title>
			<path d="M0 354.94 L6.47 354.94" class="st2"/>
		</g>
		<g id="shape25869-951" transform="translate(162.095,-32.5994) rotate(-5.131)">
			<title>Sheet.25869</title>
			<path d="M0 354.94 L6.47 354.94" class="st2"/>
		</g>
		<g id="shape25870-954" transform="translate(162.095,-31.7589) rotate(-5.131)">
			<title>Sheet.25870</title>
			<path d="M0 354.94 L6.47 354.94" class="st2"/>
		</g>
		<g id="shape25871-957" transform="translate(162.095,-31.5085) rotate(-5.131)">
			<title>Sheet.25871</title>
			<path d="M0 354.94 L6.47 354.94" class="st2"/>
		</g>
		<g id="shape25872-960" transform="translate(162.095,-30.668) rotate(-5.131)">
			<title>Sheet.25872</title>
			<path d="M0 354.94 L6.47 354.94" class="st2"/>
		</g>
		<g id="shape25873-963" transform="translate(162.095,-30.4176) rotate(-5.131)">
			<title>Sheet.25873</title>
			<path d="M0 354.94 L6.47 354.94" class="st2"/>
		</g>
		<g id="shape25874-966" transform="translate(162.095,-29.5771) rotate(-5.131)">
			<title>Sheet.25874</title>
			<path d="M0 354.94 L6.47 354.94" class="st2"/>
		</g>
		<g id="shape25875-969" transform="translate(548.776,320.666) rotate(90)">
			<title>Sheet.25875</title>
			<path d="M0 354.94 L0.25 354.94" class="st2"/>
		</g>
		<g id="shape25876-972" transform="translate(548.776,321.756) rotate(90)">
			<title>Sheet.25876</title>
			<path d="M0 354.94 L0.25 354.94" class="st2"/>
		</g>
		<g id="shape25877-975" transform="translate(548.776,322.847) rotate(90)">
			<title>Sheet.25877</title>
			<path d="M0 354.94 L0.25 354.94" class="st2"/>
		</g>
		<g id="shape25878-978" transform="translate(-154.659,322.519) rotate(-90)">
			<title>Sheet.25878</title>
			<path d="M0 354.94 L0.25 354.94" class="st2"/>
		</g>
		<g id="shape25879-981" transform="translate(-154.659,321.429) rotate(-90)">
			<title>Sheet.25879</title>
			<path d="M0 354.94 L0.25 354.94" class="st2"/>
		</g>
		<g id="shape25880-984" transform="translate(-154.659,320.338) rotate(-90)">
			<title>Sheet.25880</title>
			<path d="M0 354.94 L0.25 354.94" class="st2"/>
		</g>
		<g id="shape25881-987" transform="translate(555.217,318.893) rotate(90)">
			<title>Sheet.25881</title>
			<path d="M0 354.94 L0.35 354.94" class="st2"/>
		</g>
		<g id="shape25882-990" transform="translate(555.217,323.36) rotate(90)">
			<title>Sheet.25882</title>
			<path d="M0 354.94 L1.27 354.94" class="st2"/>
		</g>
		<g id="shape25883-993" transform="translate(196.425,-29.4897)">
			<title>Sheet.25883</title>
			<path d="M0 354.94 L1.27 354.94" class="st2"/>
		</g>
		<g id="shape25884-996" transform="translate(-47.2546,583.52) rotate(-136.643)">
			<title>Sheet.25884</title>
			<path d="M0 354.94 L0.37 354.94" class="st2"/>
		</g>
		<g id="shape25885-999" transform="translate(-45.9873,67.3763) rotate(-43.357)">
			<title>Sheet.25885</title>
			<path d="M0 354.94 L0.37 354.94" class="st2"/>
		</g>
		<g id="shape25886-1002" transform="translate(153.722,-25.693)">
			<title>Sheet.25886</title>
			<path d="M0 354.94 L22.68 354.94 L22.68 319.72 L0 319.72 L0 354.94 Z" class="st13"/>
		</g>
		<g id="shape25887-1004" transform="translate(158.03,-45.0639)">
			<title>Sheet.25887</title>
			<path d="M12.44 354.94 A7.04425 7.04425 -180 1 0 1.62 354.94 L12.44 354.94 Z" class="st1"/>
			<path d="M12.44 354.94 A7.04425 7.04425 -180 1 0 1.62 354.94" class="st2"/>
		</g>
		<g id="shape25888-1007" transform="translate(153.024,-62.845)">
			<title>Sheet.25888</title>
			<desc>Light 1</desc>
			<rect x="0" y="349.268" width="24.2894" height="5.66929" class="st4"/>
			<text x="4.45" y="354.65" class="st14">Light 1</text>		</g>
		<g id="shape25889-1010" transform="translate(161.841,-36.0443)">
			<title>Sheet.25889</title>
			<path d="M0 354.94 L6.44 354.94" class="st2"/>
		</g>
		<g id="shape25890-1013" transform="translate(159.651,-36.0443)">
			<title>Sheet.25890</title>
			<path d="M2.19 354.94 A17.0418 17.0418 -180 0 0 0 345.92 L2.19 354.94 Z" class="st1"/>
			<path d="M2.19 354.94 A17.0418 17.0418 -180 0 0 0 345.92" class="st2"/>
		</g>
		<g id="shape25891-1016" transform="translate(168.281,-36.0443)">
			<title>Sheet.25891</title>
			<path d="M2.19 345.92 A17.0418 17.0418 -180 0 0 0 354.94 L2.19 345.92 Z" class="st1"/>
			<path d="M2.19 345.92 A17.0418 17.0418 -180 0 0 0 354.94" class="st2"/>
		</g>
		<g id="shape25892-1019" transform="translate(161.841,-30.305)">
			<title>Sheet.25892</title>
			<path d="M0 354.94 L6.44 354.94" class="st2"/>
		</g>
		<g id="shape25893-1022" transform="translate(162.435,-29.7424)">
			<title>Sheet.25893</title>
			<path d="M0 354.94 L5.25 354.94" class="st2"/>
		</g>
		<g id="shape25894-1025" transform="translate(-81.7127,582.825) rotate(-136.539)">
			<title>Sheet.25894</title>
			<path d="M0 354.94 L0.82 354.94" class="st2"/>
		</g>
		<g id="shape25895-1028" transform="translate(-76.4598,67.566) rotate(-43.4609)">
			<title>Sheet.25895</title>
			<path d="M0 354.94 L0.82 354.94" class="st2"/>
		</g>
		<g id="shape25896-1031" transform="translate(516.779,318.893) rotate(90)">
			<title>Sheet.25896</title>
			<path d="M0 354.94 L0.93 354.94" class="st2"/>
		</g>
		<g id="shape25897-1034" transform="translate(-193.097,324.633) rotate(-90)">
			<title>Sheet.25897</title>
			<path d="M0 354.94 L0.69 354.94" class="st2"/>
		</g>
		<g id="shape25898-1037" transform="translate(-87.664,576.382) rotate(-135.336)">
			<title>Sheet.25898</title>
			<path d="M0 354.94 L0.45 354.94" class="st2"/>
		</g>
		<g id="shape25899-1040" transform="translate(-87.9872,70.973) rotate(-44.6645)">
			<title>Sheet.25899</title>
			<path d="M0 354.94 L0.45 354.94" class="st2"/>
		</g>
		<g id="shape25900-1043" transform="translate(161.617,-31.4197)">
			<title>Sheet.25900</title>
		</g>
		<g id="shape25901-1044" transform="translate(-81.2236,70.9158) rotate(-44.6645)">
			<title>Sheet.25901</title>
			<path d="M0 354.94 L0.45 354.94" class="st2"/>
		</g>
		<g id="shape25902-1047" transform="translate(-80.9004,575.283) rotate(-135.336)">
			<title>Sheet.25902</title>
			<path d="M0 354.94 L0.45 354.94" class="st2"/>
		</g>
		<g id="shape25903-1050" transform="translate(168.505,-31.998)">
			<title>Sheet.25903</title>
		</g>
		<g id="shape25904-1051" transform="translate(-87.664,575.292) rotate(-135.336)">
			<title>Sheet.25904</title>
			<path d="M0 354.94 L0.45 354.94" class="st2"/>
		</g>
		<g id="shape25905-1054" transform="translate(-87.9872,69.8821) rotate(-44.6645)">
			<title>Sheet.25905</title>
			<path d="M0 354.94 L0.45 354.94" class="st2"/>
		</g>
		<g id="shape25906-1057" transform="translate(161.617,-32.5106)">
			<title>Sheet.25906</title>
		</g>
		<g id="shape25907-1058" transform="translate(-81.2236,69.8249) rotate(-44.6645)">
			<title>Sheet.25907</title>
			<path d="M0 354.94 L0.45 354.94" class="st2"/>
		</g>
		<g id="shape25908-1061" transform="translate(-80.9004,574.192) rotate(-135.336)">
			<title>Sheet.25908</title>
			<path d="M0 354.94 L0.45 354.94" class="st2"/>
		</g>
		<g id="shape25909-1064" transform="translate(168.505,-33.0889)">
			<title>Sheet.25909</title>
		</g>
		<g id="shape25910-1065" transform="translate(-87.664,574.201) rotate(-135.336)">
			<title>Sheet.25910</title>
			<path d="M0 354.94 L0.45 354.94" class="st2"/>
		</g>
		<g id="shape25911-1068" transform="translate(-87.9872,68.7912) rotate(-44.6645)">
			<title>Sheet.25911</title>
			<path d="M0 354.94 L0.45 354.94" class="st2"/>
		</g>
		<g id="shape25912-1071" transform="translate(161.617,-33.6015)">
			<title>Sheet.25912</title>
		</g>
		<g id="shape25913-1072" transform="translate(-81.2236,68.734) rotate(-44.6645)">
			<title>Sheet.25913</title>
			<path d="M0 354.94 L0.45 354.94" class="st2"/>
		</g>
		<g id="shape25914-1075" transform="translate(-80.9004,573.101) rotate(-135.336)">
			<title>Sheet.25914</title>
			<path d="M0 354.94 L0.45 354.94" class="st2"/>
		</g>
		<g id="shape25915-1078" transform="translate(168.505,-34.1798)">
			<title>Sheet.25915</title>
		</g>
		<g id="shape25916-1079" transform="translate(-87.664,573.11) rotate(-135.336)">
			<title>Sheet.25916</title>
			<path d="M0 354.94 L0.45 354.94" class="st2"/>
		</g>
		<g id="shape25917-1082" transform="translate(-87.9872,67.7003) rotate(-44.6645)">
			<title>Sheet.25917</title>
			<path d="M0 354.94 L0.45 354.94" class="st2"/>
		</g>
		<g id="shape25918-1085" transform="translate(161.617,-34.6924)">
			<title>Sheet.25918</title>
		</g>
		<g id="shape25919-1086" transform="translate(-81.2236,67.6431) rotate(-44.6645)">
			<title>Sheet.25919</title>
			<path d="M0 354.94 L0.45 354.94" class="st2"/>
		</g>
		<g id="shape25920-1089" transform="translate(-80.9004,572.01) rotate(-135.336)">
			<title>Sheet.25920</title>
			<path d="M0 354.94 L0.45 354.94" class="st2"/>
		</g>
		<g id="shape25921-1092" transform="translate(168.505,-35.2707)">
			<title>Sheet.25921</title>
		</g>
		<g id="shape25922-1093" transform="translate(130.098,-33.6903) rotate(-5.131)">
			<title>Sheet.25922</title>
			<path d="M0 354.94 L6.47 354.94" class="st2"/>
		</g>
		<g id="shape25923-1096" transform="translate(130.098,-32.8498) rotate(-5.131)">
			<title>Sheet.25923</title>
			<path d="M0 354.94 L6.47 354.94" class="st2"/>
		</g>
		<g id="shape25924-1099" transform="translate(130.098,-32.5994) rotate(-5.131)">
			<title>Sheet.25924</title>
			<path d="M0 354.94 L6.47 354.94" class="st2"/>
		</g>
		<g id="shape25925-1102" transform="translate(130.098,-31.7589) rotate(-5.131)">
			<title>Sheet.25925</title>
			<path d="M0 354.94 L6.47 354.94" class="st2"/>
		</g>
		<g id="shape25926-1105" transform="translate(130.098,-31.5085) rotate(-5.131)">
			<title>Sheet.25926</title>
			<path d="M0 354.94 L6.47 354.94" class="st2"/>
		</g>
		<g id="shape25927-1108" transform="translate(130.098,-30.668) rotate(-5.131)">
			<title>Sheet.25927</title>
			<path d="M0 354.94 L6.47 354.94" class="st2"/>
		</g>
		<g id="shape25928-1111" transform="translate(130.098,-30.4176) rotate(-5.131)">
			<title>Sheet.25928</title>
			<path d="M0 354.94 L6.47 354.94" class="st2"/>
		</g>
		<g id="shape25929-1114" transform="translate(130.098,-29.5771) rotate(-5.131)">
			<title>Sheet.25929</title>
			<path d="M0 354.94 L6.47 354.94" class="st2"/>
		</g>
		<g id="shape25930-1117" transform="translate(516.779,320.666) rotate(90)">
			<title>Sheet.25930</title>
			<path d="M0 354.94 L0.25 354.94" class="st2"/>
		</g>
		<g id="shape25931-1120" transform="translate(516.779,321.756) rotate(90)">
			<title>Sheet.25931</title>
			<path d="M0 354.94 L0.25 354.94" class="st2"/>
		</g>
		<g id="shape25932-1123" transform="translate(516.779,322.847) rotate(90)">
			<title>Sheet.25932</title>
			<path d="M0 354.94 L0.25 354.94" class="st2"/>
		</g>
		<g id="shape25933-1126" transform="translate(-186.656,322.519) rotate(-90)">
			<title>Sheet.25933</title>
			<path d="M0 354.94 L0.25 354.94" class="st2"/>
		</g>
		<g id="shape25934-1129" transform="translate(-186.656,321.429) rotate(-90)">
			<title>Sheet.25934</title>
			<path d="M0 354.94 L0.25 354.94" class="st2"/>
		</g>
		<g id="shape25935-1132" transform="translate(-186.656,320.338) rotate(-90)">
			<title>Sheet.25935</title>
			<path d="M0 354.94 L0.25 354.94" class="st2"/>
		</g>
		<g id="shape25936-1135" transform="translate(523.219,318.893) rotate(90)">
			<title>Sheet.25936</title>
			<path d="M0 354.94 L0.35 354.94" class="st2"/>
		</g>
		<g id="shape25937-1138" transform="translate(523.219,323.36) rotate(90)">
			<title>Sheet.25937</title>
			<path d="M0 354.94 L1.27 354.94" class="st2"/>
		</g>
		<g id="shape25938-1141" transform="translate(164.427,-29.4897)">
			<title>Sheet.25938</title>
			<path d="M0 354.94 L1.27 354.94" class="st2"/>
		</g>
		<g id="shape25939-1144" transform="translate(-79.2523,583.52) rotate(-136.643)">
			<title>Sheet.25939</title>
			<path d="M0 354.94 L0.37 354.94" class="st2"/>
		</g>
		<g id="shape25940-1147" transform="translate(-77.985,67.3763) rotate(-43.357)">
			<title>Sheet.25940</title>
			<path d="M0 354.94 L0.37 354.94" class="st2"/>
		</g>
	</g>
</svg>
