<?xml version="1.0" encoding="UTF-8" standalone="no"?>
<!DOCTYPE svg PUBLIC "-//W3C//DTD SVG 1.1//EN" "http://www.w3.org/Graphics/SVG/1.1/DTD/svg11.dtd">
<!-- Generated by Microsoft Visio, SVG Export ICMPv6_link_local.svg Page-1 -->
<svg xmlns="http://www.w3.org/2000/svg" xmlns:xlink="http://www.w3.org/1999/xlink" xmlns:ev="http://www.w3.org/2001/xml-events"
		width="5.74949in" height="1.47652in" viewBox="0 0 413.963 106.31" xml:space="preserve" color-interpolation-filters="sRGB"
		class="st11">
	<style type="text/css">
	<![CDATA[
		.st1 {fill:none;stroke:#000000;stroke-linecap:butt;stroke-width:0.75}
		.st2 {fill:none;stroke:none;stroke-linecap:round;stroke-linejoin:round;stroke-width:0.75}
		.st3 {fill:#000000;font-family:Calibri;font-size:0.944893em}
		.st4 {font-size:1em}
		.st5 {stroke:#000000;stroke-linecap:round;stroke-linejoin:round;stroke-width:0.75}
		.st6 {fill:#000000;font-family:Calibri;font-size:0.629929em}
		.st7 {fill:#000000;font-family:Calibri;font-size:1.25983em}
		.st8 {fill:none;stroke:#000000;stroke-linecap:round;stroke-linejoin:round;stroke-width:0.75}
		.st9 {fill:#000000;font-family:Calibri;font-size:0.472435em}
		.st10 {fill:none}
		.st11 {fill:none;fill-rule:evenodd;font-size:12px;overflow:visible;stroke-linecap:square;stroke-miterlimit:3}
	]]>
	</style>

	<g>
		<title>Page-1</title>
		<g id="shape3-1">
			<title>Sheet.3</title>
			<path d="M0 0 L225.81 0 L225.81 106.31 L0 106.31 L0 0 Z" class="st1"/>
		</g>
		<g id="shape4-3" transform="translate(280.957,2.84217E-014)">
			<title>Sheet.4</title>
			<path d="M0 0 L69.26 0 L69.26 106.31 L0 106.31 L0 0 Z" class="st1"/>
		</g>
		<g id="shape5-5" transform="translate(216.367,-50.0568)">
			<title>Sheet.5</title>
			<desc>BLE enabled router</desc>
			<rect x="0" y="94.971" width="197.596" height="11.3386" class="st2"/>
			<text x="90.20" y="63.44" class="st3">
             
            <tspan x="90.21" dy="1.2em" class="st4">BLE </tspan>
            <tspan x="80.2" dy="1.2em" class="st4">enabled </tspan>
            <tspan x="84.16" dy="1.2em" class="st4">router</tspan>
            <tspan x="88.12" dy="2em" class="st4">TFTP</tspan>
            <tspan x="85.08" dy="1.2em" class="st4">Server</tspan>
            </text>		
        </g>
		<g id="shape6-10" transform="translate(349.132,44.6508) rotate(90)">
			<title>Sheet.6</title>
			<path d="M0 106.31 L4.25 106.31" class="st5"/>
		</g>
		<g id="shape7-13" transform="translate(349.132,57.4067) rotate(90)">
			<title>Sheet.7</title>
			<path d="M0 106.31 L4.25 106.31" class="st5"/>
		</g>
		<g id="shape8-16" transform="translate(290.366,139.737) rotate(153.435)">
			<title>Sheet.8</title>
			<path d="M0 106.31 L19.02 106.31" class="st5"/>
		</g>
		<g id="shape9-19" transform="translate(273.358,-41.9314) rotate(26.5651)">
			<title>Sheet.9</title>
			<path d="M0 106.31 L19.02 106.31" class="st5"/>
		</g>
		<g id="shape10-22" transform="translate(242.823,-57.4067)">
			<title>Sheet.10</title>
			<path d="M0 106.31 L21.13 106.31" class="st5"/>
		</g>
		<g id="shape11-25" transform="translate(263.949,163.716) rotate(180)">
			<title>Sheet.11</title>
			<path d="M0 106.31 L21.13 106.31" class="st5"/>
		</g>
		<g id="shape12-28" transform="translate(370.259,44.6508) rotate(90)">
			<title>Sheet.12</title>
			<path d="M0 106.31 L4.25 106.31" class="st5"/>
		</g>
		<g id="shape13-31" transform="translate(370.259,57.4067) rotate(90)">
			<title>Sheet.13</title>
			<path d="M0 106.31 L4.25 106.31" class="st5"/>
		</g>
		<g id="shape14-34" transform="translate(311.492,-50.4353) rotate(26.5651)">
			<title>Sheet.14</title>
			<path d="M0 106.31 L19.02 106.31" class="st5"/>
		</g>
		<g id="shape15-37" transform="translate(328.5,148.241) rotate(153.435)">
			<title>Sheet.15</title>
			<path d="M0 106.31 L19.02 106.31" class="st5"/>
		</g>
		<g id="shape16-40" transform="translate(8.10764,-7.94943)">
			<title>Sheet.16</title>
			<path d="M0 17.15 L209.33 17.15 L209.33 106.31 L0 106.31 L0 17.15 Z" class="st1"/>
		</g>
		<g id="shape17-42" transform="translate(185.907,-62.5756)">
			<title>Sheet.17</title>
			<desc>BLE 6lowpan</desc>
			<rect x="0" y="98.7505" width="135.084" height="7.55906" class="st2"/>
			<text x="47.94" y="105.93" class="st6">BLE 6lowpan</text>		</g>
		<g id="shape300-45" transform="translate(14.4218,-69.9457)">
			<title>Sheet.300</title>
			<desc>TFTP client</desc>
			<rect x="0" y="91.1914" width="197.596" height="15.1181" class="st2"/>
			<text x="0" y="101.02" class="st7">TFTP <tspan x="0" dy="1.2em" class="st4">client</tspan></text>		</g>
		<g id="shape301-49" transform="translate(125.386,-15.1888)">
			<title>Sheet.301</title>
			<path d="M0 106.31 L22.68 106.31 L22.68 83.63 L0 83.63 L0 106.31 Z" class="st1"/>
		</g>
		<g id="shape302-51" transform="translate(129.681,-19.4832)">
			<title>Sheet.302</title>
			<ellipse cx="7.04425" cy="99.2653" rx="7.04425" ry="7.04425" class="st8"/>
		</g>
		<g id="shape303-53" transform="translate(93.3885,-15.1888)">
			<title>Sheet.303</title>
			<path d="M0 106.31 L22.68 106.31 L22.68 83.63 L0 83.63 L0 106.31 Z" class="st1"/>
		</g>
		<g id="shape304-55" transform="translate(97.6828,-19.4832)">
			<title>Sheet.304</title>
			<ellipse cx="7.04425" cy="99.2653" rx="7.04425" ry="7.04425" class="st8"/>
		</g>
		<g id="shape305-57" transform="translate(92.6904,-39.7976)">
			<title>Sheet.305</title>
			<desc>Button 1</desc>
			<rect x="0" y="100.64" width="24.2894" height="5.66929" class="st2"/>
			<text x="2.15" y="106.03" class="st9">Button 1</text>		</g>
		<g id="shape306-60" transform="translate(124.688,-39.7976)">
			<title>Sheet.306</title>
			<desc>Button 2</desc>
			<rect x="0" y="100.64" width="24.2894" height="5.66929" class="st2"/>
			<text x="2.15" y="106.03" class="st9">Button 2</text>		</g>
		<g id="shape307-63" transform="translate(157.384,-49.2048)">
			<title>Sheet.307</title>
			<path d="M0 106.31 L22.68 106.31 L22.68 71.09 L0 71.09 L0 106.31 Z" class="st1"/>
		</g>
		<g id="shape308-65" transform="translate(161.691,-68.5756)">
			<title>Sheet.308</title>
			<path d="M12.44 106.31 A7.04425 7.04425 -180 1 0 1.62 106.31 L12.44 106.31 Z" class="st10"/>
			<path d="M12.44 106.31 A7.04425 7.04425 -180 1 0 1.62 106.31" class="st5"/>
		</g>
		<g id="shape309-68" transform="translate(156.686,-86.3568)">
			<title>Sheet.309</title>
			<desc>Light 3</desc>
			<rect x="0" y="100.64" width="24.2894" height="5.66929" class="st2"/>
			<text x="4.45" y="106.03" class="st9">Light 3</text>		</g>
		<g id="shape310-71" transform="translate(188.684,-86.3568)">
			<title>Sheet.310</title>
			<desc>Light 4</desc>
			<rect x="0" y="100.64" width="24.2894" height="5.66929" class="st2"/>
			<text x="4.45" y="106.03" class="st9">Light 4</text>		</g>
		<g id="shape311-74" transform="translate(165.502,-59.5561)">
			<title>Sheet.311</title>
			<path d="M0 106.31 L6.44 106.31" class="st5"/>
		</g>
		<g id="shape312-77" transform="translate(163.312,-59.5561)">
			<title>Sheet.312</title>
			<path d="M2.19 106.31 A17.0418 17.0418 -180 0 0 -0 97.29 L2.19 106.31 Z" class="st10"/>
			<path d="M2.19 106.31 A17.0418 17.0418 -180 0 0 -0 97.29" class="st5"/>
		</g>
		<g id="shape313-80" transform="translate(171.943,-59.5561)">
			<title>Sheet.313</title>
			<path d="M2.19 97.29 A17.0418 17.0418 -180 0 0 0 106.31 L2.19 97.29 Z" class="st10"/>
			<path d="M2.19 97.29 A17.0418 17.0418 -180 0 0 0 106.31" class="st5"/>
		</g>
		<g id="shape314-83" transform="translate(165.502,-53.8168)">
			<title>Sheet.314</title>
			<path d="M0 106.31 L6.44 106.31" class="st5"/>
		</g>
		<g id="shape315-86" transform="translate(166.096,-53.2542)">
			<title>Sheet.315</title>
			<path d="M0 106.31 L5.25 106.31" class="st5"/>
		</g>
		<g id="shape316-89" transform="translate(92.97,130.219) rotate(-136.539)">
			<title>Sheet.316</title>
			<path d="M0 106.31 L0.82 106.31" class="st5"/>
		</g>
		<g id="shape317-92" transform="translate(98.223,-24.1088) rotate(-43.4609)">
			<title>Sheet.317</title>
			<path d="M0 106.31 L0.82 106.31" class="st5"/>
		</g>
		<g id="shape318-95" transform="translate(271.812,46.7535) rotate(90)">
			<title>Sheet.318</title>
			<path d="M0 106.31 L0.93 106.31" class="st5"/>
		</g>
		<g id="shape319-98" transform="translate(59.1928,52.4927) rotate(-90)">
			<title>Sheet.319</title>
			<path d="M0 106.31 L0.69 106.31" class="st5"/>
		</g>
		<g id="shape320-101" transform="translate(90.7716,127.409) rotate(-135.336)">
			<title>Sheet.320</title>
			<path d="M0 106.31 L0.45 106.31" class="st5"/>
		</g>
		<g id="shape321-104" transform="translate(90.4484,-24.3338) rotate(-44.6645)">
			<title>Sheet.321</title>
			<path d="M0 106.31 L0.45 106.31" class="st5"/>
		</g>
		<g id="shape322-107" transform="translate(165.137,-54.8307)">
			<title>Sheet.322</title>
			<path d="M0.04 106.11 a0.141732 0.141732 -180 0 0 -1.41553E-015 0.20161 L0.04 106.11 Z" class="st10"/>
			<path d="M0.04 106.11 a0.141732 0.141732 -180 0 0 -1.41553E-015 0.20161" class="st5"/>
		</g>
		<g id="shape323-110" transform="translate(97.212,-24.3911) rotate(-44.6645)">
			<title>Sheet.323</title>
			<path d="M0 106.31 L0.45 106.31" class="st5"/>
		</g>
		<g id="shape324-113" transform="translate(97.5352,126.31) rotate(-135.336)">
			<title>Sheet.324</title>
			<path d="M0 106.31 L0.45 106.31" class="st5"/>
		</g>
		<g id="shape325-116" transform="translate(172.266,-55.409)">
			<title>Sheet.325</title>
			<path d="M0 106.31 a0.141732 0.141732 -180 0 0 1.38778E-017 -0.20161 L0 106.31 Z" class="st10"/>
			<path d="M0 106.31 a0.141732 0.141732 -180 0 0 1.38778E-017 -0.20161" class="st5"/>
		</g>
		<g id="shape326-119" transform="translate(90.7716,126.319) rotate(-135.336)">
			<title>Sheet.326</title>
			<path d="M0 106.31 L0.45 106.31" class="st5"/>
		</g>
		<g id="shape327-122" transform="translate(90.4484,-25.4247) rotate(-44.6645)">
			<title>Sheet.327</title>
			<path d="M0 106.31 L0.45 106.31" class="st5"/>
		</g>
		<g id="shape328-125" transform="translate(165.137,-55.9215)">
			<title>Sheet.328</title>
			<path d="M0.04 106.11 a0.141732 0.141732 -180 0 0 -1.41553E-015 0.20161 L0.04 106.11 Z" class="st10"/>
			<path d="M0.04 106.11 a0.141732 0.141732 -180 0 0 -1.41553E-015 0.20161" class="st5"/>
		</g>
		<g id="shape329-128" transform="translate(97.212,-25.482) rotate(-44.6645)">
			<title>Sheet.329</title>
			<path d="M0 106.31 L0.45 106.31" class="st5"/>
		</g>
		<g id="shape330-131" transform="translate(97.5352,125.219) rotate(-135.336)">
			<title>Sheet.330</title>
			<path d="M0 106.31 L0.45 106.31" class="st5"/>
		</g>
		<g id="shape331-134" transform="translate(172.266,-56.4999)">
			<title>Sheet.331</title>
			<path d="M0 106.31 a0.141732 0.141732 -180 0 0 1.38778E-017 -0.20161 L0 106.31 Z" class="st10"/>
			<path d="M0 106.31 a0.141732 0.141732 -180 0 0 1.38778E-017 -0.20161" class="st5"/>
		</g>
		<g id="shape332-137" transform="translate(90.7716,125.228) rotate(-135.336)">
			<title>Sheet.332</title>
			<path d="M0 106.31 L0.45 106.31" class="st5"/>
		</g>
		<g id="shape333-140" transform="translate(90.4484,-26.5156) rotate(-44.6645)">
			<title>Sheet.333</title>
			<path d="M0 106.31 L0.45 106.31" class="st5"/>
		</g>
		<g id="shape334-143" transform="translate(165.137,-57.0124)">
			<title>Sheet.334</title>
			<path d="M0.04 106.11 a0.141732 0.141732 -180 0 0 -1.40166E-015 0.20161 L0.04 106.11 Z" class="st10"/>
			<path d="M0.04 106.11 a0.141732 0.141732 -180 0 0 -1.40166E-015 0.20161" class="st5"/>
		</g>
		<g id="shape335-146" transform="translate(97.212,-26.5729) rotate(-44.6645)">
			<title>Sheet.335</title>
			<path d="M0 106.31 L0.45 106.31" class="st5"/>
		</g>
		<g id="shape336-149" transform="translate(97.5352,124.128) rotate(-135.336)">
			<title>Sheet.336</title>
			<path d="M0 106.31 L0.45 106.31" class="st5"/>
		</g>
		<g id="shape337-152" transform="translate(172.266,-57.5907)">
			<title>Sheet.337</title>
			<path d="M0 106.31 a0.141732 0.141732 -180 0 0 1.38778E-017 -0.20161 L0 106.31 Z" class="st10"/>
			<path d="M0 106.31 a0.141732 0.141732 -180 0 0 1.38778E-017 -0.20161" class="st5"/>
		</g>
		<g id="shape338-155" transform="translate(90.7716,124.137) rotate(-135.336)">
			<title>Sheet.338</title>
			<path d="M0 106.31 L0.45 106.31" class="st5"/>
		</g>
		<g id="shape339-158" transform="translate(90.4484,-27.6065) rotate(-44.6645)">
			<title>Sheet.339</title>
			<path d="M0 106.31 L0.45 106.31" class="st5"/>
		</g>
		<g id="shape340-161" transform="translate(165.137,-58.1033)">
			<title>Sheet.340</title>
			<path d="M0.04 106.11 a0.141732 0.141732 -180 0 0 -1.41553E-015 0.20161 L0.04 106.11 Z" class="st10"/>
			<path d="M0.04 106.11 a0.141732 0.141732 -180 0 0 -1.41553E-015 0.20161" class="st5"/>
		</g>
		<g id="shape341-164" transform="translate(97.212,-27.6637) rotate(-44.6645)">
			<title>Sheet.341</title>
			<path d="M0 106.31 L0.45 106.31" class="st5"/>
		</g>
		<g id="shape342-167" transform="translate(97.5352,123.037) rotate(-135.336)">
			<title>Sheet.342</title>
			<path d="M0 106.31 L0.45 106.31" class="st5"/>
		</g>
		<g id="shape343-170" transform="translate(172.266,-58.6816)">
			<title>Sheet.343</title>
			<path d="M0 106.31 a0.141732 0.141732 -180 0 0 1.38778E-017 -0.20161 L0 106.31 Z" class="st10"/>
			<path d="M0 106.31 a0.141732 0.141732 -180 0 0 1.38778E-017 -0.20161" class="st5"/>
		</g>
		<g id="shape344-173" transform="translate(155.995,-58.1984) rotate(-5.131)">
			<title>Sheet.344</title>
			<path d="M0 106.31 L6.47 106.31" class="st5"/>
		</g>
		<g id="shape345-176" transform="translate(155.995,-57.3579) rotate(-5.131)">
			<title>Sheet.345</title>
			<path d="M0 106.31 L6.47 106.31" class="st5"/>
		</g>
		<g id="shape346-179" transform="translate(155.995,-57.1075) rotate(-5.131)">
			<title>Sheet.346</title>
			<path d="M0 106.31 L6.47 106.31" class="st5"/>
		</g>
		<g id="shape347-182" transform="translate(155.995,-56.267) rotate(-5.131)">
			<title>Sheet.347</title>
			<path d="M0 106.31 L6.47 106.31" class="st5"/>
		</g>
		<g id="shape348-185" transform="translate(155.995,-56.0166) rotate(-5.131)">
			<title>Sheet.348</title>
			<path d="M0 106.31 L6.47 106.31" class="st5"/>
		</g>
		<g id="shape349-188" transform="translate(155.995,-55.1761) rotate(-5.131)">
			<title>Sheet.349</title>
			<path d="M0 106.31 L6.47 106.31" class="st5"/>
		</g>
		<g id="shape350-191" transform="translate(155.995,-54.9257) rotate(-5.131)">
			<title>Sheet.350</title>
			<path d="M0 106.31 L6.47 106.31" class="st5"/>
		</g>
		<g id="shape351-194" transform="translate(155.995,-54.0852) rotate(-5.131)">
			<title>Sheet.351</title>
			<path d="M0 106.31 L6.47 106.31" class="st5"/>
		</g>
		<g id="shape352-197" transform="translate(271.812,48.5256) rotate(90)">
			<title>Sheet.352</title>
			<path d="M0 106.31 L0.25 106.31" class="st5"/>
		</g>
		<g id="shape353-200" transform="translate(271.812,49.6165) rotate(90)">
			<title>Sheet.353</title>
			<path d="M0 106.31 L0.25 106.31" class="st5"/>
		</g>
		<g id="shape354-203" transform="translate(271.812,50.7074) rotate(90)">
			<title>Sheet.354</title>
			<path d="M0 106.31 L0.25 106.31" class="st5"/>
		</g>
		<g id="shape355-206" transform="translate(65.6332,50.3795) rotate(-90)">
			<title>Sheet.355</title>
			<path d="M0 106.31 L0.25 106.31" class="st5"/>
		</g>
		<g id="shape356-209" transform="translate(65.6332,49.2886) rotate(-90)">
			<title>Sheet.356</title>
			<path d="M0 106.31 L0.25 106.31" class="st5"/>
		</g>
		<g id="shape357-212" transform="translate(65.6332,48.1977) rotate(-90)">
			<title>Sheet.357</title>
			<path d="M0 106.31 L0.25 106.31" class="st5"/>
		</g>
		<g id="shape358-215" transform="translate(278.252,46.7535) rotate(90)">
			<title>Sheet.358</title>
			<path d="M0 106.31 L0.35 106.31" class="st5"/>
		</g>
		<g id="shape359-218" transform="translate(278.252,51.22) rotate(90)">
			<title>Sheet.359</title>
			<path d="M0 106.31 L1.27 106.31" class="st5"/>
		</g>
		<g id="shape360-221" transform="translate(168.089,-53.0015)">
			<title>Sheet.360</title>
			<path d="M0 106.31 L1.27 106.31" class="st5"/>
		</g>
		<g id="shape361-224" transform="translate(95.1029,130.605) rotate(-136.643)">
			<title>Sheet.361</title>
			<path d="M0 106.31 L0.37 106.31" class="st5"/>
		</g>
		<g id="shape362-227" transform="translate(96.3702,-23.9886) rotate(-43.357)">
			<title>Sheet.362</title>
			<path d="M0 106.31 L0.37 106.31" class="st5"/>
		</g>
		<g id="shape363-230" transform="translate(189.382,-49.2048)">
			<title>Sheet.363</title>
			<path d="M0 106.31 L22.68 106.31 L22.68 71.09 L0 71.09 L0 106.31 Z" class="st1"/>
		</g>
		<g id="shape364-232" transform="translate(193.689,-68.5756)">
			<title>Sheet.364</title>
			<path d="M12.44 106.31 A7.04425 7.04425 -180 1 0 1.62 106.31 L12.44 106.31 Z" class="st10"/>
			<path d="M12.44 106.31 A7.04425 7.04425 -180 1 0 1.62 106.31" class="st5"/>
		</g>
		<g id="shape365-235" transform="translate(197.5,-59.5561)">
			<title>Sheet.365</title>
			<path d="M0 106.31 L6.44 106.31" class="st5"/>
		</g>
		<g id="shape366-238" transform="translate(195.31,-59.5561)">
			<title>Sheet.366</title>
			<path d="M2.19 106.31 A17.0418 17.0418 -180 0 0 -0 97.29 L2.19 106.31 Z" class="st10"/>
			<path d="M2.19 106.31 A17.0418 17.0418 -180 0 0 -0 97.29" class="st5"/>
		</g>
		<g id="shape367-241" transform="translate(203.94,-59.5561)">
			<title>Sheet.367</title>
			<path d="M2.19 97.29 A17.0418 17.0418 -180 0 0 0 106.31 L2.19 97.29 Z" class="st10"/>
			<path d="M2.19 97.29 A17.0418 17.0418 -180 0 0 0 106.31" class="st5"/>
		</g>
		<g id="shape368-244" transform="translate(197.5,-53.8168)">
			<title>Sheet.368</title>
			<path d="M0 106.31 L6.44 106.31" class="st5"/>
		</g>
		<g id="shape369-247" transform="translate(198.094,-53.2542)">
			<title>Sheet.369</title>
			<path d="M0 106.31 L5.25 106.31" class="st5"/>
		</g>
		<g id="shape370-250" transform="translate(124.968,130.219) rotate(-136.539)">
			<title>Sheet.370</title>
			<path d="M0 106.31 L0.82 106.31" class="st5"/>
		</g>
		<g id="shape371-253" transform="translate(130.221,-24.1088) rotate(-43.4609)">
			<title>Sheet.371</title>
			<path d="M0 106.31 L0.82 106.31" class="st5"/>
		</g>
		<g id="shape372-256" transform="translate(303.81,46.7535) rotate(90)">
			<title>Sheet.372</title>
			<path d="M0 106.31 L0.93 106.31" class="st5"/>
		</g>
		<g id="shape373-259" transform="translate(91.1905,52.4927) rotate(-90)">
			<title>Sheet.373</title>
			<path d="M0 106.31 L0.69 106.31" class="st5"/>
		</g>
		<g id="shape374-262" transform="translate(122.769,127.409) rotate(-135.336)">
			<title>Sheet.374</title>
			<path d="M0 106.31 L0.45 106.31" class="st5"/>
		</g>
		<g id="shape375-265" transform="translate(122.446,-24.3338) rotate(-44.6645)">
			<title>Sheet.375</title>
			<path d="M0 106.31 L0.45 106.31" class="st5"/>
		</g>
		<g id="shape376-268" transform="translate(197.135,-54.8307)">
			<title>Sheet.376</title>
			<path d="M0.04 106.11 a0.141732 0.141732 -180 0 0 -1.41553E-015 0.20161 L0.04 106.11 Z" class="st10"/>
			<path d="M0.04 106.11 a0.141732 0.141732 -180 0 0 -1.41553E-015 0.20161" class="st5"/>
		</g>
		<g id="shape377-271" transform="translate(129.21,-24.3911) rotate(-44.6645)">
			<title>Sheet.377</title>
			<path d="M0 106.31 L0.45 106.31" class="st5"/>
		</g>
		<g id="shape378-274" transform="translate(129.533,126.31) rotate(-135.336)">
			<title>Sheet.378</title>
			<path d="M0 106.31 L0.45 106.31" class="st5"/>
		</g>
		<g id="shape379-277" transform="translate(204.264,-55.409)">
			<title>Sheet.379</title>
			<path d="M0 106.31 a0.141732 0.141732 -180 0 0 1.38778E-017 -0.20161 L0 106.31 Z" class="st10"/>
			<path d="M0 106.31 a0.141732 0.141732 -180 0 0 1.38778E-017 -0.20161" class="st5"/>
		</g>
		<g id="shape380-280" transform="translate(122.769,126.319) rotate(-135.336)">
			<title>Sheet.380</title>
			<path d="M0 106.31 L0.45 106.31" class="st5"/>
		</g>
		<g id="shape381-283" transform="translate(122.446,-25.4247) rotate(-44.6645)">
			<title>Sheet.381</title>
			<path d="M0 106.31 L0.45 106.31" class="st5"/>
		</g>
		<g id="shape382-286" transform="translate(197.135,-55.9215)">
			<title>Sheet.382</title>
			<path d="M0.04 106.11 a0.141732 0.141732 -180 0 0 -1.41553E-015 0.20161 L0.04 106.11 Z" class="st10"/>
			<path d="M0.04 106.11 a0.141732 0.141732 -180 0 0 -1.41553E-015 0.20161" class="st5"/>
		</g>
		<g id="shape383-289" transform="translate(129.21,-25.482) rotate(-44.6645)">
			<title>Sheet.383</title>
			<path d="M0 106.31 L0.45 106.31" class="st5"/>
		</g>
		<g id="shape384-292" transform="translate(129.533,125.219) rotate(-135.336)">
			<title>Sheet.384</title>
			<path d="M0 106.31 L0.45 106.31" class="st5"/>
		</g>
		<g id="shape385-295" transform="translate(204.264,-56.4999)">
			<title>Sheet.385</title>
			<path d="M0 106.31 a0.141732 0.141732 -180 0 0 1.38778E-017 -0.20161 L0 106.31 Z" class="st10"/>
			<path d="M0 106.31 a0.141732 0.141732 -180 0 0 1.38778E-017 -0.20161" class="st5"/>
		</g>
		<g id="shape386-298" transform="translate(122.769,125.228) rotate(-135.336)">
			<title>Sheet.386</title>
			<path d="M0 106.31 L0.45 106.31" class="st5"/>
		</g>
		<g id="shape387-301" transform="translate(122.446,-26.5156) rotate(-44.6645)">
			<title>Sheet.387</title>
			<path d="M0 106.31 L0.45 106.31" class="st5"/>
		</g>
		<g id="shape388-304" transform="translate(197.135,-57.0124)">
			<title>Sheet.388</title>
			<path d="M0.04 106.11 a0.141732 0.141732 -180 0 0 -1.40166E-015 0.20161 L0.04 106.11 Z" class="st10"/>
			<path d="M0.04 106.11 a0.141732 0.141732 -180 0 0 -1.40166E-015 0.20161" class="st5"/>
		</g>
		<g id="shape389-307" transform="translate(129.21,-26.5729) rotate(-44.6645)">
			<title>Sheet.389</title>
			<path d="M0 106.31 L0.45 106.31" class="st5"/>
		</g>
		<g id="shape390-310" transform="translate(129.533,124.128) rotate(-135.336)">
			<title>Sheet.390</title>
			<path d="M0 106.31 L0.45 106.31" class="st5"/>
		</g>
		<g id="shape391-313" transform="translate(204.264,-57.5907)">
			<title>Sheet.391</title>
			<path d="M0 106.31 a0.141732 0.141732 -180 0 0 1.38778E-017 -0.20161 L0 106.31 Z" class="st10"/>
			<path d="M0 106.31 a0.141732 0.141732 -180 0 0 1.38778E-017 -0.20161" class="st5"/>
		</g>
		<g id="shape392-316" transform="translate(122.769,124.137) rotate(-135.336)">
			<title>Sheet.392</title>
			<path d="M0 106.31 L0.45 106.31" class="st5"/>
		</g>
		<g id="shape393-319" transform="translate(122.446,-27.6065) rotate(-44.6645)">
			<title>Sheet.393</title>
			<path d="M0 106.31 L0.45 106.31" class="st5"/>
		</g>
		<g id="shape394-322" transform="translate(197.135,-58.1033)">
			<title>Sheet.394</title>
			<path d="M0.04 106.11 a0.141732 0.141732 -180 0 0 -1.41553E-015 0.20161 L0.04 106.11 Z" class="st10"/>
			<path d="M0.04 106.11 a0.141732 0.141732 -180 0 0 -1.41553E-015 0.20161" class="st5"/>
		</g>
		<g id="shape395-325" transform="translate(129.21,-27.6637) rotate(-44.6645)">
			<title>Sheet.395</title>
			<path d="M0 106.31 L0.45 106.31" class="st5"/>
		</g>
		<g id="shape396-328" transform="translate(129.533,123.037) rotate(-135.336)">
			<title>Sheet.396</title>
			<path d="M0 106.31 L0.45 106.31" class="st5"/>
		</g>
		<g id="shape397-331" transform="translate(204.264,-58.6816)">
			<title>Sheet.397</title>
			<path d="M0 106.31 a0.141732 0.141732 -180 0 0 1.38778E-017 -0.20161 L0 106.31 Z" class="st10"/>
			<path d="M0 106.31 a0.141732 0.141732 -180 0 0 1.38778E-017 -0.20161" class="st5"/>
		</g>
		<g id="shape398-334" transform="translate(187.992,-58.1984) rotate(-5.131)">
			<title>Sheet.398</title>
			<path d="M0 106.31 L6.47 106.31" class="st5"/>
		</g>
		<g id="shape399-337" transform="translate(187.992,-57.3579) rotate(-5.131)">
			<title>Sheet.399</title>
			<path d="M0 106.31 L6.47 106.31" class="st5"/>
		</g>
		<g id="shape400-340" transform="translate(187.992,-57.1075) rotate(-5.131)">
			<title>Sheet.400</title>
			<path d="M0 106.31 L6.47 106.31" class="st5"/>
		</g>
		<g id="shape401-343" transform="translate(187.992,-56.267) rotate(-5.131)">
			<title>Sheet.401</title>
			<path d="M0 106.31 L6.47 106.31" class="st5"/>
		</g>
		<g id="shape402-346" transform="translate(187.992,-56.0166) rotate(-5.131)">
			<title>Sheet.402</title>
			<path d="M0 106.31 L6.47 106.31" class="st5"/>
		</g>
		<g id="shape403-349" transform="translate(187.992,-55.1761) rotate(-5.131)">
			<title>Sheet.403</title>
			<path d="M0 106.31 L6.47 106.31" class="st5"/>
		</g>
		<g id="shape404-352" transform="translate(187.992,-54.9257) rotate(-5.131)">
			<title>Sheet.404</title>
			<path d="M0 106.31 L6.47 106.31" class="st5"/>
		</g>
		<g id="shape405-355" transform="translate(187.992,-54.0852) rotate(-5.131)">
			<title>Sheet.405</title>
			<path d="M0 106.31 L6.47 106.31" class="st5"/>
		</g>
		<g id="shape406-358" transform="translate(303.81,48.5256) rotate(90)">
			<title>Sheet.406</title>
			<path d="M0 106.31 L0.25 106.31" class="st5"/>
		</g>
		<g id="shape407-361" transform="translate(303.81,49.6165) rotate(90)">
			<title>Sheet.407</title>
			<path d="M0 106.31 L0.25 106.31" class="st5"/>
		</g>
		<g id="shape408-364" transform="translate(303.81,50.7074) rotate(90)">
			<title>Sheet.408</title>
			<path d="M0 106.31 L0.25 106.31" class="st5"/>
		</g>
		<g id="shape409-367" transform="translate(97.6309,50.3795) rotate(-90)">
			<title>Sheet.409</title>
			<path d="M0 106.31 L0.25 106.31" class="st5"/>
		</g>
		<g id="shape410-370" transform="translate(97.6309,49.2886) rotate(-90)">
			<title>Sheet.410</title>
			<path d="M0 106.31 L0.25 106.31" class="st5"/>
		</g>
		<g id="shape411-373" transform="translate(97.6309,48.1977) rotate(-90)">
			<title>Sheet.411</title>
			<path d="M0 106.31 L0.25 106.31" class="st5"/>
		</g>
		<g id="shape412-376" transform="translate(310.25,46.7535) rotate(90)">
			<title>Sheet.412</title>
			<path d="M0 106.31 L0.35 106.31" class="st5"/>
		</g>
		<g id="shape413-379" transform="translate(310.25,51.22) rotate(90)">
			<title>Sheet.413</title>
			<path d="M0 106.31 L1.27 106.31" class="st5"/>
		</g>
		<g id="shape414-382" transform="translate(200.087,-53.0015)">
			<title>Sheet.414</title>
			<path d="M0 106.31 L1.27 106.31" class="st5"/>
		</g>
		<g id="shape415-385" transform="translate(127.101,130.605) rotate(-136.643)">
			<title>Sheet.415</title>
			<path d="M0 106.31 L0.37 106.31" class="st5"/>
		</g>
		<g id="shape416-388" transform="translate(128.368,-23.9886) rotate(-43.357)">
			<title>Sheet.416</title>
			<path d="M0 106.31 L0.37 106.31" class="st5"/>
		</g>
		<g id="shape417-391" transform="translate(125.386,-49.2048)">
			<title>Sheet.417</title>
			<path d="M0 106.31 L22.68 106.31 L22.68 71.09 L0 71.09 L0 106.31 Z" class="st1"/>
		</g>
		<g id="shape418-393" transform="translate(129.693,-68.5756)">
			<title>Sheet.418</title>
			<path d="M12.44 106.31 A7.04425 7.04425 -180 1 0 1.62 106.31 L12.44 106.31 Z" class="st10"/>
			<path d="M12.44 106.31 A7.04425 7.04425 -180 1 0 1.62 106.31" class="st5"/>
		</g>
		<g id="shape419-396" transform="translate(124.688,-86.3568)">
			<title>Sheet.419</title>
			<desc>Light 2</desc>
			<rect x="0" y="100.64" width="24.2894" height="5.66929" class="st2"/>
			<text x="4.45" y="106.03" class="st9">Light 2</text>		</g>
		<g id="shape420-399" transform="translate(133.505,-59.5561)">
			<title>Sheet.420</title>
			<path d="M0 106.31 L6.44 106.31" class="st5"/>
		</g>
		<g id="shape421-402" transform="translate(131.314,-59.5561)">
			<title>Sheet.421</title>
			<path d="M2.19 106.31 A17.0418 17.0418 -180 0 0 0 97.29 L2.19 106.31 Z" class="st10"/>
			<path d="M2.19 106.31 A17.0418 17.0418 -180 0 0 0 97.29" class="st5"/>
		</g>
		<g id="shape422-405" transform="translate(139.945,-59.5561)">
			<title>Sheet.422</title>
			<path d="M2.19 97.29 A17.0418 17.0418 -180 0 0 0 106.31 L2.19 97.29 Z" class="st10"/>
			<path d="M2.19 97.29 A17.0418 17.0418 -180 0 0 0 106.31" class="st5"/>
		</g>
		<g id="shape423-408" transform="translate(133.505,-53.8168)">
			<title>Sheet.423</title>
			<path d="M0 106.31 L6.44 106.31" class="st5"/>
		</g>
		<g id="shape424-411" transform="translate(134.098,-53.2542)">
			<title>Sheet.424</title>
			<path d="M0 106.31 L5.25 106.31" class="st5"/>
		</g>
		<g id="shape425-414" transform="translate(60.9723,130.219) rotate(-136.539)">
			<title>Sheet.425</title>
			<path d="M0 106.31 L0.82 106.31" class="st5"/>
		</g>
		<g id="shape426-417" transform="translate(66.2252,-24.1088) rotate(-43.4609)">
			<title>Sheet.426</title>
			<path d="M0 106.31 L0.82 106.31" class="st5"/>
		</g>
		<g id="shape427-420" transform="translate(239.814,46.7535) rotate(90)">
			<title>Sheet.427</title>
			<path d="M0 106.31 L0.93 106.31" class="st5"/>
		</g>
		<g id="shape428-423" transform="translate(27.195,52.4927) rotate(-90)">
			<title>Sheet.428</title>
			<path d="M0 106.31 L0.69 106.31" class="st5"/>
		</g>
		<g id="shape429-426" transform="translate(58.7739,127.409) rotate(-135.336)">
			<title>Sheet.429</title>
			<path d="M0 106.31 L0.45 106.31" class="st5"/>
		</g>
		<g id="shape430-429" transform="translate(58.4507,-24.3338) rotate(-44.6645)">
			<title>Sheet.430</title>
			<path d="M0 106.31 L0.45 106.31" class="st5"/>
		</g>
		<g id="shape431-432" transform="translate(133.139,-54.8307)">
			<title>Sheet.431</title>
			<path d="M0.04 106.11 a0.141732 0.141732 -180 0 0 -1.41553E-015 0.20161 L0.04 106.11 Z" class="st10"/>
			<path d="M0.04 106.11 a0.141732 0.141732 -180 0 0 -1.41553E-015 0.20161" class="st5"/>
		</g>
		<g id="shape432-435" transform="translate(65.2143,-24.3911) rotate(-44.6645)">
			<title>Sheet.432</title>
			<path d="M0 106.31 L0.45 106.31" class="st5"/>
		</g>
		<g id="shape433-438" transform="translate(65.5375,126.31) rotate(-135.336)">
			<title>Sheet.433</title>
			<path d="M0 106.31 L0.45 106.31" class="st5"/>
		</g>
		<g id="shape434-441" transform="translate(140.268,-55.409)">
			<title>Sheet.434</title>
			<path d="M0 106.31 a0.141732 0.141732 -180 0 0 1.38778E-017 -0.20161 L0 106.31 Z" class="st10"/>
			<path d="M0 106.31 a0.141732 0.141732 -180 0 0 1.38778E-017 -0.20161" class="st5"/>
		</g>
		<g id="shape435-444" transform="translate(58.7739,126.319) rotate(-135.336)">
			<title>Sheet.435</title>
			<path d="M0 106.31 L0.45 106.31" class="st5"/>
		</g>
		<g id="shape436-447" transform="translate(58.4507,-25.4247) rotate(-44.6645)">
			<title>Sheet.436</title>
			<path d="M0 106.31 L0.45 106.31" class="st5"/>
		</g>
		<g id="shape437-450" transform="translate(133.139,-55.9215)">
			<title>Sheet.437</title>
			<path d="M0.04 106.11 a0.141732 0.141732 -180 0 0 -1.41553E-015 0.20161 L0.04 106.11 Z" class="st10"/>
			<path d="M0.04 106.11 a0.141732 0.141732 -180 0 0 -1.41553E-015 0.20161" class="st5"/>
		</g>
		<g id="shape438-453" transform="translate(65.2143,-25.482) rotate(-44.6645)">
			<title>Sheet.438</title>
			<path d="M0 106.31 L0.45 106.31" class="st5"/>
		</g>
		<g id="shape439-456" transform="translate(65.5375,125.219) rotate(-135.336)">
			<title>Sheet.439</title>
			<path d="M0 106.31 L0.45 106.31" class="st5"/>
		</g>
		<g id="shape440-459" transform="translate(140.268,-56.4999)">
			<title>Sheet.440</title>
			<path d="M0 106.31 a0.141732 0.141732 -180 0 0 1.38778E-017 -0.20161 L0 106.31 Z" class="st10"/>
			<path d="M0 106.31 a0.141732 0.141732 -180 0 0 1.38778E-017 -0.20161" class="st5"/>
		</g>
		<g id="shape441-462" transform="translate(58.7739,125.228) rotate(-135.336)">
			<title>Sheet.441</title>
			<path d="M0 106.31 L0.45 106.31" class="st5"/>
		</g>
		<g id="shape442-465" transform="translate(58.4507,-26.5156) rotate(-44.6645)">
			<title>Sheet.442</title>
			<path d="M0 106.31 L0.45 106.31" class="st5"/>
		</g>
		<g id="shape443-468" transform="translate(133.139,-57.0124)">
			<title>Sheet.443</title>
			<path d="M0.04 106.11 a0.141732 0.141732 -180 0 0 -1.40166E-015 0.20161 L0.04 106.11 Z" class="st10"/>
			<path d="M0.04 106.11 a0.141732 0.141732 -180 0 0 -1.40166E-015 0.20161" class="st5"/>
		</g>
		<g id="shape444-471" transform="translate(65.2143,-26.5729) rotate(-44.6645)">
			<title>Sheet.444</title>
			<path d="M0 106.31 L0.45 106.31" class="st5"/>
		</g>
		<g id="shape445-474" transform="translate(65.5375,124.128) rotate(-135.336)">
			<title>Sheet.445</title>
			<path d="M0 106.31 L0.45 106.31" class="st5"/>
		</g>
		<g id="shape446-477" transform="translate(140.268,-57.5907)">
			<title>Sheet.446</title>
			<path d="M0 106.31 a0.141732 0.141732 -180 0 0 1.38778E-017 -0.20161 L0 106.31 Z" class="st10"/>
			<path d="M0 106.31 a0.141732 0.141732 -180 0 0 1.38778E-017 -0.20161" class="st5"/>
		</g>
		<g id="shape447-480" transform="translate(58.7739,124.137) rotate(-135.336)">
			<title>Sheet.447</title>
			<path d="M0 106.31 L0.45 106.31" class="st5"/>
		</g>
		<g id="shape448-483" transform="translate(58.4507,-27.6065) rotate(-44.6645)">
			<title>Sheet.448</title>
			<path d="M0 106.31 L0.45 106.31" class="st5"/>
		</g>
		<g id="shape449-486" transform="translate(133.139,-58.1033)">
			<title>Sheet.449</title>
			<path d="M0.04 106.11 a0.141732 0.141732 -180 0 0 -1.41553E-015 0.20161 L0.04 106.11 Z" class="st10"/>
			<path d="M0.04 106.11 a0.141732 0.141732 -180 0 0 -1.41553E-015 0.20161" class="st5"/>
		</g>
		<g id="shape450-489" transform="translate(65.2143,-27.6637) rotate(-44.6645)">
			<title>Sheet.450</title>
			<path d="M0 106.31 L0.45 106.31" class="st5"/>
		</g>
		<g id="shape451-492" transform="translate(65.5375,123.037) rotate(-135.336)">
			<title>Sheet.451</title>
			<path d="M0 106.31 L0.45 106.31" class="st5"/>
		</g>
		<g id="shape452-495" transform="translate(140.268,-58.6816)">
			<title>Sheet.452</title>
			<path d="M0 106.31 a0.141732 0.141732 -180 0 0 1.38778E-017 -0.20161 L0 106.31 Z" class="st10"/>
			<path d="M0 106.31 a0.141732 0.141732 -180 0 0 1.38778E-017 -0.20161" class="st5"/>
		</g>
		<g id="shape453-498" transform="translate(123.997,-58.1984) rotate(-5.131)">
			<title>Sheet.453</title>
			<path d="M0 106.31 L6.47 106.31" class="st5"/>
		</g>
		<g id="shape454-501" transform="translate(123.997,-57.3579) rotate(-5.131)">
			<title>Sheet.454</title>
			<path d="M0 106.31 L6.47 106.31" class="st5"/>
		</g>
		<g id="shape455-504" transform="translate(123.997,-57.1075) rotate(-5.131)">
			<title>Sheet.455</title>
			<path d="M0 106.31 L6.47 106.31" class="st5"/>
		</g>
		<g id="shape456-507" transform="translate(123.997,-56.267) rotate(-5.131)">
			<title>Sheet.456</title>
			<path d="M0 106.31 L6.47 106.31" class="st5"/>
		</g>
		<g id="shape457-510" transform="translate(123.997,-56.0166) rotate(-5.131)">
			<title>Sheet.457</title>
			<path d="M0 106.31 L6.47 106.31" class="st5"/>
		</g>
		<g id="shape458-513" transform="translate(123.997,-55.1761) rotate(-5.131)">
			<title>Sheet.458</title>
			<path d="M0 106.31 L6.47 106.31" class="st5"/>
		</g>
		<g id="shape459-516" transform="translate(123.997,-54.9257) rotate(-5.131)">
			<title>Sheet.459</title>
			<path d="M0 106.31 L6.47 106.31" class="st5"/>
		</g>
		<g id="shape460-519" transform="translate(123.997,-54.0852) rotate(-5.131)">
			<title>Sheet.460</title>
			<path d="M0 106.31 L6.47 106.31" class="st5"/>
		</g>
		<g id="shape461-522" transform="translate(239.814,48.5256) rotate(90)">
			<title>Sheet.461</title>
			<path d="M0 106.31 L0.25 106.31" class="st5"/>
		</g>
		<g id="shape462-525" transform="translate(239.814,49.6165) rotate(90)">
			<title>Sheet.462</title>
			<path d="M0 106.31 L0.25 106.31" class="st5"/>
		</g>
		<g id="shape463-528" transform="translate(239.814,50.7074) rotate(90)">
			<title>Sheet.463</title>
			<path d="M0 106.31 L0.25 106.31" class="st5"/>
		</g>
		<g id="shape464-531" transform="translate(33.6355,50.3795) rotate(-90)">
			<title>Sheet.464</title>
			<path d="M0 106.31 L0.25 106.31" class="st5"/>
		</g>
		<g id="shape465-534" transform="translate(33.6355,49.2886) rotate(-90)">
			<title>Sheet.465</title>
			<path d="M0 106.31 L0.25 106.31" class="st5"/>
		</g>
		<g id="shape466-537" transform="translate(33.6355,48.1977) rotate(-90)">
			<title>Sheet.466</title>
			<path d="M0 106.31 L0.25 106.31" class="st5"/>
		</g>
		<g id="shape467-540" transform="translate(246.255,46.7535) rotate(90)">
			<title>Sheet.467</title>
			<path d="M0 106.31 L0.35 106.31" class="st5"/>
		</g>
		<g id="shape468-543" transform="translate(246.255,51.22) rotate(90)">
			<title>Sheet.468</title>
			<path d="M0 106.31 L1.27 106.31" class="st5"/>
		</g>
		<g id="shape469-546" transform="translate(136.091,-53.0015)">
			<title>Sheet.469</title>
			<path d="M0 106.31 L1.27 106.31" class="st5"/>
		</g>
		<g id="shape470-549" transform="translate(63.1052,130.605) rotate(-136.643)">
			<title>Sheet.470</title>
			<path d="M0 106.31 L0.37 106.31" class="st5"/>
		</g>
		<g id="shape471-552" transform="translate(64.3724,-23.9886) rotate(-43.357)">
			<title>Sheet.471</title>
			<path d="M0 106.31 L0.37 106.31" class="st5"/>
		</g>
		<g id="shape472-555" transform="translate(93.3885,-49.2048)">
			<title>Sheet.472</title>
			<path d="M0 106.31 L22.68 106.31 L22.68 71.09 L0 71.09 L0 106.31 Z" class="st1"/>
		</g>
		<g id="shape473-557" transform="translate(97.6956,-68.5756)">
			<title>Sheet.473</title>
			<path d="M12.44 106.31 A7.04425 7.04425 -180 1 0 1.62 106.31 L12.44 106.31 Z" class="st10"/>
			<path d="M12.44 106.31 A7.04425 7.04425 -180 1 0 1.62 106.31" class="st5"/>
		</g>
		<g id="shape474-560" transform="translate(92.6904,-86.3568)">
			<title>Sheet.474</title>
			<desc>Light 1</desc>
			<rect x="0" y="100.64" width="24.2894" height="5.66929" class="st2"/>
			<text x="4.45" y="106.03" class="st9">Light 1</text>		</g>
		<g id="shape475-563" transform="translate(101.507,-59.5561)">
			<title>Sheet.475</title>
			<path d="M0 106.31 L6.44 106.31" class="st5"/>
		</g>
		<g id="shape476-566" transform="translate(99.3167,-59.5561)">
			<title>Sheet.476</title>
			<path d="M2.19 106.31 A17.0418 17.0418 -180 0 0 0 97.29 L2.19 106.31 Z" class="st10"/>
			<path d="M2.19 106.31 A17.0418 17.0418 -180 0 0 0 97.29" class="st5"/>
		</g>
		<g id="shape477-569" transform="translate(107.947,-59.5561)">
			<title>Sheet.477</title>
			<path d="M2.19 97.29 A17.0418 17.0418 -180 0 0 0 106.31 L2.19 97.29 Z" class="st10"/>
			<path d="M2.19 97.29 A17.0418 17.0418 -180 0 0 0 106.31" class="st5"/>
		</g>
		<g id="shape478-572" transform="translate(101.507,-53.8168)">
			<title>Sheet.478</title>
			<path d="M0 106.31 L6.44 106.31" class="st5"/>
		</g>
		<g id="shape479-575" transform="translate(102.101,-53.2542)">
			<title>Sheet.479</title>
			<path d="M0 106.31 L5.25 106.31" class="st5"/>
		</g>
		<g id="shape480-578" transform="translate(28.9745,130.219) rotate(-136.539)">
			<title>Sheet.480</title>
			<path d="M0 106.31 L0.82 106.31" class="st5"/>
		</g>
		<g id="shape481-581" transform="translate(34.2275,-24.1088) rotate(-43.4609)">
			<title>Sheet.481</title>
			<path d="M0 106.31 L0.82 106.31" class="st5"/>
		</g>
		<g id="shape482-584" transform="translate(207.816,46.7535) rotate(90)">
			<title>Sheet.482</title>
			<path d="M0 106.31 L0.93 106.31" class="st5"/>
		</g>
		<g id="shape483-587" transform="translate(-4.80267,52.4927) rotate(-90)">
			<title>Sheet.483</title>
			<path d="M0 106.31 L0.69 106.31" class="st5"/>
		</g>
		<g id="shape484-590" transform="translate(26.7761,127.409) rotate(-135.336)">
			<title>Sheet.484</title>
			<path d="M0 106.31 L0.45 106.31" class="st5"/>
		</g>
		<g id="shape485-593" transform="translate(26.4529,-24.3338) rotate(-44.6645)">
			<title>Sheet.485</title>
			<path d="M0 106.31 L0.45 106.31" class="st5"/>
		</g>
		<g id="shape486-596" transform="translate(101.142,-54.8307)">
			<title>Sheet.486</title>
			<path d="M0.04 106.11 a0.141732 0.141732 -180 0 0 -1.41553E-015 0.20161 L0.04 106.11 Z" class="st10"/>
			<path d="M0.04 106.11 a0.141732 0.141732 -180 0 0 -1.41553E-015 0.20161" class="st5"/>
		</g>
		<g id="shape487-599" transform="translate(33.2165,-24.3911) rotate(-44.6645)">
			<title>Sheet.487</title>
			<path d="M0 106.31 L0.45 106.31" class="st5"/>
		</g>
		<g id="shape488-602" transform="translate(33.5398,126.31) rotate(-135.336)">
			<title>Sheet.488</title>
			<path d="M0 106.31 L0.45 106.31" class="st5"/>
		</g>
		<g id="shape489-605" transform="translate(108.27,-55.409)">
			<title>Sheet.489</title>
			<path d="M0 106.31 a0.141732 0.141732 -180 0 0 1.38778E-017 -0.20161 L0 106.31 Z" class="st10"/>
			<path d="M0 106.31 a0.141732 0.141732 -180 0 0 1.38778E-017 -0.20161" class="st5"/>
		</g>
		<g id="shape490-608" transform="translate(26.7761,126.319) rotate(-135.336)">
			<title>Sheet.490</title>
			<path d="M0 106.31 L0.45 106.31" class="st5"/>
		</g>
		<g id="shape491-611" transform="translate(26.4529,-25.4247) rotate(-44.6645)">
			<title>Sheet.491</title>
			<path d="M0 106.31 L0.45 106.31" class="st5"/>
		</g>
		<g id="shape492-614" transform="translate(101.142,-55.9215)">
			<title>Sheet.492</title>
			<path d="M0.04 106.11 a0.141732 0.141732 -180 0 0 -1.41553E-015 0.20161 L0.04 106.11 Z" class="st10"/>
			<path d="M0.04 106.11 a0.141732 0.141732 -180 0 0 -1.41553E-015 0.20161" class="st5"/>
		</g>
		<g id="shape493-617" transform="translate(33.2165,-25.482) rotate(-44.6645)">
			<title>Sheet.493</title>
			<path d="M0 106.31 L0.45 106.31" class="st5"/>
		</g>
		<g id="shape494-620" transform="translate(33.5398,125.219) rotate(-135.336)">
			<title>Sheet.494</title>
			<path d="M0 106.31 L0.45 106.31" class="st5"/>
		</g>
		<g id="shape495-623" transform="translate(108.27,-56.4999)">
			<title>Sheet.495</title>
			<path d="M0 106.31 a0.141732 0.141732 -180 0 0 1.38778E-017 -0.20161 L0 106.31 Z" class="st10"/>
			<path d="M0 106.31 a0.141732 0.141732 -180 0 0 1.38778E-017 -0.20161" class="st5"/>
		</g>
		<g id="shape496-626" transform="translate(26.7761,125.228) rotate(-135.336)">
			<title>Sheet.496</title>
			<path d="M0 106.31 L0.45 106.31" class="st5"/>
		</g>
		<g id="shape497-629" transform="translate(26.4529,-26.5156) rotate(-44.6645)">
			<title>Sheet.497</title>
			<path d="M0 106.31 L0.45 106.31" class="st5"/>
		</g>
		<g id="shape498-632" transform="translate(101.142,-57.0124)">
			<title>Sheet.498</title>
			<path d="M0.04 106.11 a0.141732 0.141732 -180 0 0 -1.40166E-015 0.20161 L0.04 106.11 Z" class="st10"/>
			<path d="M0.04 106.11 a0.141732 0.141732 -180 0 0 -1.40166E-015 0.20161" class="st5"/>
		</g>
		<g id="shape499-635" transform="translate(33.2165,-26.5729) rotate(-44.6645)">
			<title>Sheet.499</title>
			<path d="M0 106.31 L0.45 106.31" class="st5"/>
		</g>
		<g id="shape500-638" transform="translate(33.5398,124.128) rotate(-135.336)">
			<title>Sheet.500</title>
			<path d="M0 106.31 L0.45 106.31" class="st5"/>
		</g>
		<g id="shape501-641" transform="translate(108.27,-57.5907)">
			<title>Sheet.501</title>
			<path d="M0 106.31 a0.141732 0.141732 -180 0 0 1.38778E-017 -0.20161 L0 106.31 Z" class="st10"/>
			<path d="M0 106.31 a0.141732 0.141732 -180 0 0 1.38778E-017 -0.20161" class="st5"/>
		</g>
		<g id="shape502-644" transform="translate(26.7761,124.137) rotate(-135.336)">
			<title>Sheet.502</title>
			<path d="M0 106.31 L0.45 106.31" class="st5"/>
		</g>
		<g id="shape503-647" transform="translate(26.4529,-27.6065) rotate(-44.6645)">
			<title>Sheet.503</title>
			<path d="M0 106.31 L0.45 106.31" class="st5"/>
		</g>
		<g id="shape504-650" transform="translate(101.142,-58.1033)">
			<title>Sheet.504</title>
			<path d="M0.04 106.11 a0.141732 0.141732 -180 0 0 -1.41553E-015 0.20161 L0.04 106.11 Z" class="st10"/>
			<path d="M0.04 106.11 a0.141732 0.141732 -180 0 0 -1.41553E-015 0.20161" class="st5"/>
		</g>
		<g id="shape505-653" transform="translate(33.2165,-27.6637) rotate(-44.6645)">
			<title>Sheet.505</title>
			<path d="M0 106.31 L0.45 106.31" class="st5"/>
		</g>
		<g id="shape506-656" transform="translate(33.5398,123.037) rotate(-135.336)">
			<title>Sheet.506</title>
			<path d="M0 106.31 L0.45 106.31" class="st5"/>
		</g>
		<g id="shape507-659" transform="translate(108.27,-58.6816)">
			<title>Sheet.507</title>
			<path d="M0 106.31 a0.141732 0.141732 -180 0 0 1.38778E-017 -0.20161 L0 106.31 Z" class="st10"/>
			<path d="M0 106.31 a0.141732 0.141732 -180 0 0 1.38778E-017 -0.20161" class="st5"/>
		</g>
		<g id="shape508-662" transform="translate(91.9993,-58.1984) rotate(-5.131)">
			<title>Sheet.508</title>
			<path d="M0 106.31 L6.47 106.31" class="st5"/>
		</g>
		<g id="shape509-665" transform="translate(91.9993,-57.3579) rotate(-5.131)">
			<title>Sheet.509</title>
			<path d="M0 106.31 L6.47 106.31" class="st5"/>
		</g>
		<g id="shape510-668" transform="translate(91.9993,-57.1075) rotate(-5.131)">
			<title>Sheet.510</title>
			<path d="M0 106.31 L6.47 106.31" class="st5"/>
		</g>
		<g id="shape511-671" transform="translate(91.9993,-56.267) rotate(-5.131)">
			<title>Sheet.511</title>
			<path d="M0 106.31 L6.47 106.31" class="st5"/>
		</g>
		<g id="shape512-674" transform="translate(91.9993,-56.0166) rotate(-5.131)">
			<title>Sheet.512</title>
			<path d="M0 106.31 L6.47 106.31" class="st5"/>
		</g>
		<g id="shape513-677" transform="translate(91.9993,-55.1761) rotate(-5.131)">
			<title>Sheet.513</title>
			<path d="M0 106.31 L6.47 106.31" class="st5"/>
		</g>
		<g id="shape514-680" transform="translate(91.9993,-54.9257) rotate(-5.131)">
			<title>Sheet.514</title>
			<path d="M0 106.31 L6.47 106.31" class="st5"/>
		</g>
		<g id="shape515-683" transform="translate(91.9993,-54.0852) rotate(-5.131)">
			<title>Sheet.515</title>
			<path d="M0 106.31 L6.47 106.31" class="st5"/>
		</g>
		<g id="shape516-686" transform="translate(207.816,48.5256) rotate(90)">
			<title>Sheet.516</title>
			<path d="M0 106.31 L0.25 106.31" class="st5"/>
		</g>
		<g id="shape517-689" transform="translate(207.816,49.6165) rotate(90)">
			<title>Sheet.517</title>
			<path d="M0 106.31 L0.25 106.31" class="st5"/>
		</g>
		<g id="shape518-692" transform="translate(207.816,50.7074) rotate(90)">
			<title>Sheet.518</title>
			<path d="M0 106.31 L0.25 106.31" class="st5"/>
		</g>
		<g id="shape519-695" transform="translate(1.63773,50.3795) rotate(-90)">
			<title>Sheet.519</title>
			<path d="M0 106.31 L0.25 106.31" class="st5"/>
		</g>
		<g id="shape520-698" transform="translate(1.63773,49.2886) rotate(-90)">
			<title>Sheet.520</title>
			<path d="M0 106.31 L0.25 106.31" class="st5"/>
		</g>
		<g id="shape521-701" transform="translate(1.63773,48.1977) rotate(-90)">
			<title>Sheet.521</title>
			<path d="M0 106.31 L0.25 106.31" class="st5"/>
		</g>
		<g id="shape522-704" transform="translate(214.257,46.7535) rotate(90)">
			<title>Sheet.522</title>
			<path d="M0 106.31 L0.35 106.31" class="st5"/>
		</g>
		<g id="shape523-707" transform="translate(214.257,51.22) rotate(90)">
			<title>Sheet.523</title>
			<path d="M0 106.31 L1.27 106.31" class="st5"/>
		</g>
		<g id="shape524-710" transform="translate(104.093,-53.0015)">
			<title>Sheet.524</title>
			<path d="M0 106.31 L1.27 106.31" class="st5"/>
		</g>
		<g id="shape525-713" transform="translate(31.1074,130.605) rotate(-136.643)">
			<title>Sheet.525</title>
			<path d="M0 106.31 L0.37 106.31" class="st5"/>
		</g>
		<g id="shape526-716" transform="translate(32.3747,-23.9886) rotate(-43.357)">
			<title>Sheet.526</title>
			<path d="M0 106.31 L0.37 106.31" class="st5"/>
		</g>
		<g id="shape527-719" transform="translate(157.384,-15.1888)">
			<title>Sheet.527</title>
			<path d="M0 106.31 L22.68 106.31 L22.68 83.63 L0 83.63 L0 106.31 Z" class="st1"/>
		</g>
		<g id="shape528-721" transform="translate(161.678,-19.4832)">
			<title>Sheet.528</title>
			<ellipse cx="7.04425" cy="99.2653" rx="7.04425" ry="7.04425" class="st8"/>
		</g>
		<g id="shape529-723" transform="translate(156.686,-39.7976)">
			<title>Sheet.529</title>
			<desc>Button 3</desc>
			<rect x="0" y="100.64" width="24.2894" height="5.66929" class="st2"/>
			<text x="2.15" y="106.03" class="st9">Button 3</text>		</g>
		<g id="shape530-726" transform="translate(189.382,-15.1888)">
			<title>Sheet.530</title>
			<path d="M0 106.31 L22.68 106.31 L22.68 83.63 L0 83.63 L0 106.31 Z" class="st1"/>
		</g>
		<g id="shape531-728" transform="translate(193.676,-19.4832)">
			<title>Sheet.531</title>
			<ellipse cx="7.04425" cy="99.2653" rx="7.04425" ry="7.04425" class="st8"/>
		</g>
		<g id="shape532-730" transform="translate(188.684,-39.7976)">
			<title>Sheet.532</title>
			<desc>Button 4</desc>
			<rect x="0" y="100.64" width="24.2894" height="5.66929" class="st2"/>
			<text x="2.15" y="106.03" class="st9">Button 4</text>		</g>
	</g>
</svg>
